<?xml version="1.0" encoding="utf-8" standalone="no"?>
<!DOCTYPE svg PUBLIC "-//W3C//DTD SVG 1.1//EN"
  "http://www.w3.org/Graphics/SVG/1.1/DTD/svg11.dtd">
<svg xmlns:xlink="http://www.w3.org/1999/xlink" width="423.06pt" height="356.903062pt" viewBox="0 0 423.06 356.903062" xmlns="http://www.w3.org/2000/svg" version="1.1">
 <metadata>
  <rdf:RDF xmlns:dc="http://purl.org/dc/elements/1.1/" xmlns:cc="http://creativecommons.org/ns#" xmlns:rdf="http://www.w3.org/1999/02/22-rdf-syntax-ns#">
   <cc:Work>
    <dc:type rdf:resource="http://purl.org/dc/dcmitype/StillImage"/>
    <dc:date>2026-06-26T16:54:33.616900</dc:date>
    <dc:format>image/svg+xml</dc:format>
    <dc:creator>
     <cc:Agent>
      <dc:title>Matplotlib v3.11.0, https://matplotlib.org/</dc:title>
     </cc:Agent>
    </dc:creator>
   </cc:Work>
  </rdf:RDF>
 </metadata>
 <defs>
  <style type="text/css">*{stroke-linejoin: round; stroke-linecap: butt}</style>
 </defs>
 <g id="figure_1">
  <g id="patch_1">
   <path d="M 0 356.903062 
L 423.06 356.903062 
L 423.06 0 
L 0 0 
z
" style="fill: #fbfaf7"/>
  </g>
  <g id="axes_1">
   <g id="patch_2">
    <path d="M 58.74 155.315698 
L 415.86 155.315698 
L 415.86 10.239062 
L 58.74 10.239062 
z
" style="fill: #fbfaf7"/>
   </g>
   <g id="FillBetweenPolyCollection_1">
    <defs>
     <path id="mce3ab0e665" d="M 58.74 -212.747106 
L 58.74 -324.344518 
L 60.234226 -322.762407 
L 61.728452 -321.21836 
L 63.222678 -319.711095 
L 64.716904 -318.239381 
L 66.21113 -316.802041 
L 67.705356 -315.397951 
L 69.199582 -314.02603 
L 70.693808 -312.685244 
L 72.188033 -311.374602 
L 73.682259 -310.093152 
L 75.176485 -308.839982 
L 76.670711 -307.614215 
L 78.164937 -306.415011 
L 79.659163 -305.241561 
L 81.153389 -304.093089 
L 82.647615 -302.968848 
L 84.141841 -301.86812 
L 85.636067 -300.790214 
L 87.130293 -299.734466 
L 88.624519 -298.700237 
L 90.118745 -297.686909 
L 91.612971 -296.69389 
L 93.107197 -295.720607 
L 94.601423 -294.766511 
L 96.095649 -293.831068 
L 97.589874 -292.913767 
L 99.0841 -292.014113 
L 100.578326 -291.131629 
L 102.072552 -290.265854 
L 103.566778 -289.416345 
L 105.061004 -288.582671 
L 106.55523 -287.764417 
L 108.049456 -286.961182 
L 109.543682 -286.172579 
L 111.037908 -285.398234 
L 112.532134 -284.637782 
L 114.02636 -283.890875 
L 115.520586 -283.157173 
L 117.014812 -282.436347 
L 118.509038 -281.72808 
L 120.003264 -281.032064 
L 121.49749 -280.348 
L 122.991715 -279.675601 
L 124.485941 -279.014586 
L 125.980167 -278.364685 
L 127.474393 -277.725634 
L 128.968619 -277.097178 
L 130.462845 -276.479071 
L 131.957071 -275.871072 
L 133.451297 -275.27295 
L 134.945523 -274.684477 
L 136.439749 -274.105436 
L 137.933975 -273.535613 
L 139.428201 -272.974802 
L 140.922427 -272.422803 
L 142.416653 -271.87942 
L 143.910879 -271.344464 
L 145.405105 -270.817752 
L 146.899331 -270.299103 
L 148.393556 -269.788346 
L 149.887782 -269.28531 
L 151.382008 -268.789831 
L 152.876234 -268.30175 
L 154.37046 -267.82091 
L 155.864686 -267.347161 
L 157.358912 -266.880356 
L 158.853138 -266.420351 
L 160.347364 -265.967006 
L 161.84159 -265.520187 
L 163.335816 -265.079759 
L 164.830042 -264.645596 
L 166.324268 -264.217571 
L 167.818494 -263.795562 
L 169.31272 -263.37945 
L 170.806946 -262.969119 
L 172.301172 -262.564456 
L 173.795397 -262.165351 
L 175.289623 -261.771695 
L 176.783849 -261.383385 
L 178.278075 -261.000317 
L 179.772301 -260.622393 
L 181.266527 -260.249515 
L 182.760753 -259.881588 
L 184.254979 -259.518519 
L 185.749205 -259.160218 
L 187.243431 -258.806597 
L 188.737657 -258.45757 
L 190.231883 -258.113053 
L 191.726109 -257.772962 
L 193.220335 -257.43722 
L 194.714561 -257.105746 
L 196.208787 -256.778465 
L 197.703013 -256.455301 
L 199.197238 -256.136182 
L 200.691464 -255.821037 
L 202.18569 -255.509795 
L 203.679916 -255.202389 
L 205.174142 -254.898752 
L 206.668368 -254.598819 
L 208.162594 -254.302526 
L 209.65682 -254.009811 
L 211.151046 -253.720612 
L 212.645272 -253.434871 
L 214.139498 -253.152529 
L 215.633724 -252.87353 
L 217.12795 -252.597816 
L 218.622176 -252.325335 
L 220.116402 -252.056031 
L 221.610628 -251.789854 
L 223.104854 -251.526752 
L 224.599079 -251.266675 
L 226.093305 -251.009573 
L 227.587531 -250.7554 
L 229.081757 -250.504107 
L 230.575983 -250.255649 
L 232.070209 -250.00998 
L 233.564435 -249.767057 
L 235.058661 -249.526837 
L 236.552887 -249.289276 
L 238.047113 -249.054334 
L 239.541339 -248.821969 
L 241.035565 -248.592142 
L 242.529791 -248.364813 
L 244.024017 -248.139945 
L 245.518243 -247.9175 
L 247.012469 -247.697441 
L 248.506695 -247.479732 
L 250.000921 -247.264337 
L 251.495146 -247.051222 
L 252.989372 -246.840353 
L 254.483598 -246.631696 
L 255.977824 -246.425218 
L 257.47205 -246.220889 
L 258.966276 -246.018675 
L 260.460502 -245.818547 
L 261.954728 -245.620473 
L 263.448954 -245.424424 
L 264.94318 -245.230371 
L 266.437406 -245.038285 
L 267.931632 -244.848139 
L 269.425858 -244.659903 
L 270.920084 -244.473552 
L 272.41431 -244.289059 
L 273.908536 -244.106397 
L 275.402762 -243.925541 
L 276.896987 -243.746466 
L 278.391213 -243.569147 
L 279.885439 -243.393559 
L 281.379665 -243.21968 
L 282.873891 -243.047484 
L 284.368117 -242.876951 
L 285.862343 -242.708055 
L 287.356569 -242.540777 
L 288.850795 -242.375093 
L 290.345021 -242.210982 
L 291.839247 -242.048424 
L 293.333473 -241.887397 
L 294.827699 -241.727881 
L 296.321925 -241.569856 
L 297.816151 -241.413303 
L 299.310377 -241.258201 
L 300.804603 -241.104533 
L 302.298828 -240.952279 
L 303.793054 -240.801421 
L 305.28728 -240.651941 
L 306.781506 -240.503822 
L 308.275732 -240.357045 
L 309.769958 -240.211593 
L 311.264184 -240.067451 
L 312.75841 -239.9246 
L 314.252636 -239.783025 
L 315.746862 -239.642709 
L 317.241088 -239.503637 
L 318.735314 -239.365794 
L 320.22954 -239.229163 
L 321.723766 -239.093731 
L 323.217992 -238.959481 
L 324.712218 -238.8264 
L 326.206444 -238.694473 
L 327.700669 -238.563686 
L 329.194895 -238.434024 
L 330.689121 -238.305476 
L 332.183347 -238.178026 
L 333.677573 -238.051661 
L 335.171799 -237.92637 
L 336.666025 -237.802138 
L 338.160251 -237.678953 
L 339.654477 -237.556803 
L 341.148703 -237.435675 
L 342.642929 -237.315557 
L 344.137155 -237.196438 
L 345.631381 -237.078306 
L 347.125607 -236.961148 
L 348.619833 -236.844954 
L 350.114059 -236.729713 
L 351.608285 -236.615414 
L 353.10251 -236.502045 
L 354.596736 -236.389596 
L 356.090962 -236.278056 
L 357.585188 -236.167416 
L 359.079414 -236.057664 
L 360.57364 -235.948791 
L 362.067866 -235.840787 
L 363.562092 -235.733642 
L 365.056318 -235.627347 
L 366.550544 -235.521891 
L 368.04477 -235.417266 
L 369.538996 -235.313462 
L 371.033222 -235.21047 
L 372.527448 -235.108281 
L 374.021674 -235.006887 
L 375.5159 -234.906278 
L 377.010126 -234.806446 
L 378.504351 -234.707383 
L 379.998577 -234.60908 
L 381.492803 -234.511529 
L 382.987029 -234.414722 
L 384.481255 -234.31865 
L 385.975481 -234.223307 
L 387.469707 -234.128683 
L 388.963933 -234.034773 
L 390.458159 -233.941567 
L 391.952385 -233.849058 
L 393.446611 -233.757239 
L 394.940837 -233.666104 
L 396.435063 -233.575643 
L 397.929289 -233.485852 
L 399.423515 -233.396722 
L 400.917741 -233.308246 
L 402.411967 -233.220419 
L 403.906192 -233.133232 
L 405.400418 -233.04668 
L 406.894644 -232.960757 
L 408.38887 -232.875454 
L 409.883096 -232.790768 
L 411.377322 -232.70669 
L 412.871548 -232.623214 
L 414.365774 -232.540336 
L 415.86 -232.458048 
L 415.86 -212.747106 
L 415.86 -212.747106 
L 414.365774 -212.747106 
L 412.871548 -212.747106 
L 411.377322 -212.747106 
L 409.883096 -212.747106 
L 408.38887 -212.747106 
L 406.894644 -212.747106 
L 405.400418 -212.747106 
L 403.906192 -212.747106 
L 402.411967 -212.747106 
L 400.917741 -212.747106 
L 399.423515 -212.747106 
L 397.929289 -212.747106 
L 396.435063 -212.747106 
L 394.940837 -212.747106 
L 393.446611 -212.747106 
L 391.952385 -212.747106 
L 390.458159 -212.747106 
L 388.963933 -212.747106 
L 387.469707 -212.747106 
L 385.975481 -212.747106 
L 384.481255 -212.747106 
L 382.987029 -212.747106 
L 381.492803 -212.747106 
L 379.998577 -212.747106 
L 378.504351 -212.747106 
L 377.010126 -212.747106 
L 375.5159 -212.747106 
L 374.021674 -212.747106 
L 372.527448 -212.747106 
L 371.033222 -212.747106 
L 369.538996 -212.747106 
L 368.04477 -212.747106 
L 366.550544 -212.747106 
L 365.056318 -212.747106 
L 363.562092 -212.747106 
L 362.067866 -212.747106 
L 360.57364 -212.747106 
L 359.079414 -212.747106 
L 357.585188 -212.747106 
L 356.090962 -212.747106 
L 354.596736 -212.747106 
L 353.10251 -212.747106 
L 351.608285 -212.747106 
L 350.114059 -212.747106 
L 348.619833 -212.747106 
L 347.125607 -212.747106 
L 345.631381 -212.747106 
L 344.137155 -212.747106 
L 342.642929 -212.747106 
L 341.148703 -212.747106 
L 339.654477 -212.747106 
L 338.160251 -212.747106 
L 336.666025 -212.747106 
L 335.171799 -212.747106 
L 333.677573 -212.747106 
L 332.183347 -212.747106 
L 330.689121 -212.747106 
L 329.194895 -212.747106 
L 327.700669 -212.747106 
L 326.206444 -212.747106 
L 324.712218 -212.747106 
L 323.217992 -212.747106 
L 321.723766 -212.747106 
L 320.22954 -212.747106 
L 318.735314 -212.747106 
L 317.241088 -212.747106 
L 315.746862 -212.747106 
L 314.252636 -212.747106 
L 312.75841 -212.747106 
L 311.264184 -212.747106 
L 309.769958 -212.747106 
L 308.275732 -212.747106 
L 306.781506 -212.747106 
L 305.28728 -212.747106 
L 303.793054 -212.747106 
L 302.298828 -212.747106 
L 300.804603 -212.747106 
L 299.310377 -212.747106 
L 297.816151 -212.747106 
L 296.321925 -212.747106 
L 294.827699 -212.747106 
L 293.333473 -212.747106 
L 291.839247 -212.747106 
L 290.345021 -212.747106 
L 288.850795 -212.747106 
L 287.356569 -212.747106 
L 285.862343 -212.747106 
L 284.368117 -212.747106 
L 282.873891 -212.747106 
L 281.379665 -212.747106 
L 279.885439 -212.747106 
L 278.391213 -212.747106 
L 276.896987 -212.747106 
L 275.402762 -212.747106 
L 273.908536 -212.747106 
L 272.41431 -212.747106 
L 270.920084 -212.747106 
L 269.425858 -212.747106 
L 267.931632 -212.747106 
L 266.437406 -212.747106 
L 264.94318 -212.747106 
L 263.448954 -212.747106 
L 261.954728 -212.747106 
L 260.460502 -212.747106 
L 258.966276 -212.747106 
L 257.47205 -212.747106 
L 255.977824 -212.747106 
L 254.483598 -212.747106 
L 252.989372 -212.747106 
L 251.495146 -212.747106 
L 250.000921 -212.747106 
L 248.506695 -212.747106 
L 247.012469 -212.747106 
L 245.518243 -212.747106 
L 244.024017 -212.747106 
L 242.529791 -212.747106 
L 241.035565 -212.747106 
L 239.541339 -212.747106 
L 238.047113 -212.747106 
L 236.552887 -212.747106 
L 235.058661 -212.747106 
L 233.564435 -212.747106 
L 232.070209 -212.747106 
L 230.575983 -212.747106 
L 229.081757 -212.747106 
L 227.587531 -212.747106 
L 226.093305 -212.747106 
L 224.599079 -212.747106 
L 223.104854 -212.747106 
L 221.610628 -212.747106 
L 220.116402 -212.747106 
L 218.622176 -212.747106 
L 217.12795 -212.747106 
L 215.633724 -212.747106 
L 214.139498 -212.747106 
L 212.645272 -212.747106 
L 211.151046 -212.747106 
L 209.65682 -212.747106 
L 208.162594 -212.747106 
L 206.668368 -212.747106 
L 205.174142 -212.747106 
L 203.679916 -212.747106 
L 202.18569 -212.747106 
L 200.691464 -212.747106 
L 199.197238 -212.747106 
L 197.703013 -212.747106 
L 196.208787 -212.747106 
L 194.714561 -212.747106 
L 193.220335 -212.747106 
L 191.726109 -212.747106 
L 190.231883 -212.747106 
L 188.737657 -212.747106 
L 187.243431 -212.747106 
L 185.749205 -212.747106 
L 184.254979 -212.747106 
L 182.760753 -212.747106 
L 181.266527 -212.747106 
L 179.772301 -212.747106 
L 178.278075 -212.747106 
L 176.783849 -212.747106 
L 175.289623 -212.747106 
L 173.795397 -212.747106 
L 172.301172 -212.747106 
L 170.806946 -212.747106 
L 169.31272 -212.747106 
L 167.818494 -212.747106 
L 166.324268 -212.747106 
L 164.830042 -212.747106 
L 163.335816 -212.747106 
L 161.84159 -212.747106 
L 160.347364 -212.747106 
L 158.853138 -212.747106 
L 157.358912 -212.747106 
L 155.864686 -212.747106 
L 154.37046 -212.747106 
L 152.876234 -212.747106 
L 151.382008 -212.747106 
L 149.887782 -212.747106 
L 148.393556 -212.747106 
L 146.899331 -212.747106 
L 145.405105 -212.747106 
L 143.910879 -212.747106 
L 142.416653 -212.747106 
L 140.922427 -212.747106 
L 139.428201 -212.747106 
L 137.933975 -212.747106 
L 136.439749 -212.747106 
L 134.945523 -212.747106 
L 133.451297 -212.747106 
L 131.957071 -212.747106 
L 130.462845 -212.747106 
L 128.968619 -212.747106 
L 127.474393 -212.747106 
L 125.980167 -212.747106 
L 124.485941 -212.747106 
L 122.991715 -212.747106 
L 121.49749 -212.747106 
L 120.003264 -212.747106 
L 118.509038 -212.747106 
L 117.014812 -212.747106 
L 115.520586 -212.747106 
L 114.02636 -212.747106 
L 112.532134 -212.747106 
L 111.037908 -212.747106 
L 109.543682 -212.747106 
L 108.049456 -212.747106 
L 106.55523 -212.747106 
L 105.061004 -212.747106 
L 103.566778 -212.747106 
L 102.072552 -212.747106 
L 100.578326 -212.747106 
L 99.0841 -212.747106 
L 97.589874 -212.747106 
L 96.095649 -212.747106 
L 94.601423 -212.747106 
L 93.107197 -212.747106 
L 91.612971 -212.747106 
L 90.118745 -212.747106 
L 88.624519 -212.747106 
L 87.130293 -212.747106 
L 85.636067 -212.747106 
L 84.141841 -212.747106 
L 82.647615 -212.747106 
L 81.153389 -212.747106 
L 79.659163 -212.747106 
L 78.164937 -212.747106 
L 76.670711 -212.747106 
L 75.176485 -212.747106 
L 73.682259 -212.747106 
L 72.188033 -212.747106 
L 70.693808 -212.747106 
L 69.199582 -212.747106 
L 67.705356 -212.747106 
L 66.21113 -212.747106 
L 64.716904 -212.747106 
L 63.222678 -212.747106 
L 61.728452 -212.747106 
L 60.234226 -212.747106 
L 58.74 -212.747106 
z
"/>
    </defs>
    <g clip-path="url(#p50a4195e6d)">
     <use xlink:href="#mce3ab0e665" x="0" y="356.903062" style="fill: #2f6f4f; fill-opacity: 0.16"/>
    </g>
   </g>
   <g id="matplotlib.axis_1">
    <g id="xtick_1">
     <g id="line2d_1">
      <defs>
       <path id="m5e7695ad5e" d="M 0 0 
L 0 3.5 
" style="stroke: #8a929b; stroke-width: 0.8"/>
      </defs>
      <g>
       <use xlink:href="#m5e7695ad5e" x="58.74" y="155.315698" style="fill: #8a929b; stroke: #8a929b; stroke-width: 0.8"/>
      </g>
     </g>
    </g>
    <g id="xtick_2">
     <g id="line2d_2">
      <g>
       <use xlink:href="#m5e7695ad5e" x="131.621633" y="155.315698" style="fill: #8a929b; stroke: #8a929b; stroke-width: 0.8"/>
      </g>
     </g>
    </g>
    <g id="xtick_3">
     <g id="line2d_3">
      <g>
       <use xlink:href="#m5e7695ad5e" x="204.503265" y="155.315698" style="fill: #8a929b; stroke: #8a929b; stroke-width: 0.8"/>
      </g>
     </g>
    </g>
    <g id="xtick_4">
     <g id="line2d_4">
      <g>
       <use xlink:href="#m5e7695ad5e" x="277.384898" y="155.315698" style="fill: #8a929b; stroke: #8a929b; stroke-width: 0.8"/>
      </g>
     </g>
    </g>
    <g id="xtick_5">
     <g id="line2d_5">
      <g>
       <use xlink:href="#m5e7695ad5e" x="350.266531" y="155.315698" style="fill: #8a929b; stroke: #8a929b; stroke-width: 0.8"/>
      </g>
     </g>
    </g>
   </g>
   <g id="matplotlib.axis_2">
    <g id="ytick_1">
     <g id="line2d_6">
      <defs>
       <path id="m8f526f303a" d="M 0 0 
L -3.5 0 
" style="stroke: #8a929b; stroke-width: 0.8"/>
      </defs>
      <g>
       <use xlink:href="#m8f526f303a" x="58.74" y="144.155957" style="fill: #8a929b; stroke: #8a929b; stroke-width: 0.8"/>
      </g>
     </g>
     <g id="text_1">
      <!-- 0 -->
      <g style="fill: #8a929b" transform="translate(46.65 147.195019) scale(0.08 -0.08)">
       <defs>
        <path id="DejaVuSans-13" d="M 2034 4250 
Q 1547 4250 1301 3770 
Q 1056 3291 1056 2328 
Q 1056 1369 1301 889 
Q 1547 409 2034 409 
Q 2525 409 2770 889 
Q 3016 1369 3016 2328 
Q 3016 3291 2770 3770 
Q 2525 4250 2034 4250 
z
M 2034 4750 
Q 2819 4750 3233 4129 
Q 3647 3509 3647 2328 
Q 3647 1150 3233 529 
Q 2819 -91 2034 -91 
Q 1250 -91 836 529 
Q 422 1150 422 2328 
Q 422 3509 836 4129 
Q 1250 4750 2034 4750 
z
" transform="scale(0.015625)"/>
       </defs>
       <use xlink:href="#DejaVuSans-13"/>
      </g>
     </g>
    </g>
    <g id="ytick_2">
     <g id="line2d_7">
      <g>
       <use xlink:href="#m8f526f303a" x="58.74" y="121.836474" style="fill: #8a929b; stroke: #8a929b; stroke-width: 0.8"/>
      </g>
     </g>
     <g id="text_2">
      <!-- 20000 -->
      <g style="fill: #8a929b" transform="translate(26.29 124.875537) scale(0.08 -0.08)">
       <defs>
        <path id="DejaVuSans-15" d="M 1228 531 
L 3431 531 
L 3431 0 
L 469 0 
L 469 531 
Q 828 903 1448 1529 
Q 2069 2156 2228 2338 
Q 2531 2678 2651 2914 
Q 2772 3150 2772 3378 
Q 2772 3750 2511 3984 
Q 2250 4219 1831 4219 
Q 1534 4219 1204 4116 
Q 875 4013 500 3803 
L 500 4441 
Q 881 4594 1212 4672 
Q 1544 4750 1819 4750 
Q 2544 4750 2975 4387 
Q 3406 4025 3406 3419 
Q 3406 3131 3298 2873 
Q 3191 2616 2906 2266 
Q 2828 2175 2409 1742 
Q 1991 1309 1228 531 
z
" transform="scale(0.015625)"/>
       </defs>
       <use xlink:href="#DejaVuSans-15"/>
       <use xlink:href="#DejaVuSans-13" transform="translate(63.625 0)"/>
       <use xlink:href="#DejaVuSans-13" transform="translate(127.25 0)"/>
       <use xlink:href="#DejaVuSans-13" transform="translate(190.875 0)"/>
       <use xlink:href="#DejaVuSans-13" transform="translate(254.5 0)"/>
      </g>
     </g>
    </g>
    <g id="ytick_3">
     <g id="line2d_8">
      <g>
       <use xlink:href="#m8f526f303a" x="58.74" y="99.516992" style="fill: #8a929b; stroke: #8a929b; stroke-width: 0.8"/>
      </g>
     </g>
     <g id="text_3">
      <!-- 40000 -->
      <g style="fill: #8a929b" transform="translate(26.29 102.556055) scale(0.08 -0.08)">
       <defs>
        <path id="DejaVuSans-17" d="M 2419 4116 
L 825 1625 
L 2419 1625 
L 2419 4116 
z
M 2253 4666 
L 3047 4666 
L 3047 1625 
L 3713 1625 
L 3713 1100 
L 3047 1100 
L 3047 0 
L 2419 0 
L 2419 1100 
L 313 1100 
L 313 1709 
L 2253 4666 
z
" transform="scale(0.015625)"/>
       </defs>
       <use xlink:href="#DejaVuSans-17"/>
       <use xlink:href="#DejaVuSans-13" transform="translate(63.625 0)"/>
       <use xlink:href="#DejaVuSans-13" transform="translate(127.25 0)"/>
       <use xlink:href="#DejaVuSans-13" transform="translate(190.875 0)"/>
       <use xlink:href="#DejaVuSans-13" transform="translate(254.5 0)"/>
      </g>
     </g>
    </g>
    <g id="ytick_4">
     <g id="line2d_9">
      <g>
       <use xlink:href="#m8f526f303a" x="58.74" y="77.19751" style="fill: #8a929b; stroke: #8a929b; stroke-width: 0.8"/>
      </g>
     </g>
     <g id="text_4">
      <!-- 60000 -->
      <g style="fill: #8a929b" transform="translate(26.29 80.236572) scale(0.08 -0.08)">
       <defs>
        <path id="DejaVuSans-19" d="M 2113 2584 
Q 1688 2584 1439 2293 
Q 1191 2003 1191 1497 
Q 1191 994 1439 701 
Q 1688 409 2113 409 
Q 2538 409 2786 701 
Q 3034 994 3034 1497 
Q 3034 2003 2786 2293 
Q 2538 2584 2113 2584 
z
M 3366 4563 
L 3366 3988 
Q 3128 4100 2886 4159 
Q 2644 4219 2406 4219 
Q 1781 4219 1451 3797 
Q 1122 3375 1075 2522 
Q 1259 2794 1537 2939 
Q 1816 3084 2150 3084 
Q 2853 3084 3261 2657 
Q 3669 2231 3669 1497 
Q 3669 778 3244 343 
Q 2819 -91 2113 -91 
Q 1303 -91 875 529 
Q 447 1150 447 2328 
Q 447 3434 972 4092 
Q 1497 4750 2381 4750 
Q 2619 4750 2861 4703 
Q 3103 4656 3366 4563 
z
" transform="scale(0.015625)"/>
       </defs>
       <use xlink:href="#DejaVuSans-19"/>
       <use xlink:href="#DejaVuSans-13" transform="translate(63.625 0)"/>
       <use xlink:href="#DejaVuSans-13" transform="translate(127.25 0)"/>
       <use xlink:href="#DejaVuSans-13" transform="translate(190.875 0)"/>
       <use xlink:href="#DejaVuSans-13" transform="translate(254.5 0)"/>
      </g>
     </g>
    </g>
    <g id="ytick_5">
     <g id="line2d_10">
      <g>
       <use xlink:href="#m8f526f303a" x="58.74" y="54.878027" style="fill: #8a929b; stroke: #8a929b; stroke-width: 0.8"/>
      </g>
     </g>
     <g id="text_5">
      <!-- 80000 -->
      <g style="fill: #8a929b" transform="translate(26.29 57.91709) scale(0.08 -0.08)">
       <defs>
        <path id="DejaVuSans-1b" d="M 2034 2216 
Q 1584 2216 1326 1975 
Q 1069 1734 1069 1313 
Q 1069 891 1326 650 
Q 1584 409 2034 409 
Q 2484 409 2743 651 
Q 3003 894 3003 1313 
Q 3003 1734 2745 1975 
Q 2488 2216 2034 2216 
z
M 1403 2484 
Q 997 2584 770 2862 
Q 544 3141 544 3541 
Q 544 4100 942 4425 
Q 1341 4750 2034 4750 
Q 2731 4750 3128 4425 
Q 3525 4100 3525 3541 
Q 3525 3141 3298 2862 
Q 3072 2584 2669 2484 
Q 3125 2378 3379 2068 
Q 3634 1759 3634 1313 
Q 3634 634 3220 271 
Q 2806 -91 2034 -91 
Q 1263 -91 848 271 
Q 434 634 434 1313 
Q 434 1759 690 2068 
Q 947 2378 1403 2484 
z
M 1172 3481 
Q 1172 3119 1398 2916 
Q 1625 2713 2034 2713 
Q 2441 2713 2670 2916 
Q 2900 3119 2900 3481 
Q 2900 3844 2670 4047 
Q 2441 4250 2034 4250 
Q 1625 4250 1398 4047 
Q 1172 3844 1172 3481 
z
" transform="scale(0.015625)"/>
       </defs>
       <use xlink:href="#DejaVuSans-1b"/>
       <use xlink:href="#DejaVuSans-13" transform="translate(63.625 0)"/>
       <use xlink:href="#DejaVuSans-13" transform="translate(127.25 0)"/>
       <use xlink:href="#DejaVuSans-13" transform="translate(190.875 0)"/>
       <use xlink:href="#DejaVuSans-13" transform="translate(254.5 0)"/>
      </g>
     </g>
    </g>
    <g id="ytick_6">
     <g id="line2d_11">
      <g>
       <use xlink:href="#m8f526f303a" x="58.74" y="32.558545" style="fill: #8a929b; stroke: #8a929b; stroke-width: 0.8"/>
      </g>
     </g>
     <g id="text_6">
      <!-- 100000 -->
      <g style="fill: #8a929b" transform="translate(21.2 35.597607) scale(0.08 -0.08)">
       <defs>
        <path id="DejaVuSans-14" d="M 794 531 
L 1825 531 
L 1825 4091 
L 703 3866 
L 703 4441 
L 1819 4666 
L 2450 4666 
L 2450 531 
L 3481 531 
L 3481 0 
L 794 0 
L 794 531 
z
" transform="scale(0.015625)"/>
       </defs>
       <use xlink:href="#DejaVuSans-14"/>
       <use xlink:href="#DejaVuSans-13" transform="translate(63.625 0)"/>
       <use xlink:href="#DejaVuSans-13" transform="translate(127.25 0)"/>
       <use xlink:href="#DejaVuSans-13" transform="translate(190.875 0)"/>
       <use xlink:href="#DejaVuSans-13" transform="translate(254.5 0)"/>
       <use xlink:href="#DejaVuSans-13" transform="translate(318.125 0)"/>
      </g>
     </g>
    </g>
    <g id="ytick_7">
     <g id="line2d_12">
      <g>
       <use xlink:href="#m8f526f303a" x="58.74" y="10.239062" style="fill: #8a929b; stroke: #8a929b; stroke-width: 0.8"/>
      </g>
     </g>
     <g id="text_7">
      <!-- 120000 -->
      <g style="fill: #8a929b" transform="translate(21.2 13.278125) scale(0.08 -0.08)">
       <use xlink:href="#DejaVuSans-14"/>
       <use xlink:href="#DejaVuSans-15" transform="translate(63.625 0)"/>
       <use xlink:href="#DejaVuSans-13" transform="translate(127.25 0)"/>
       <use xlink:href="#DejaVuSans-13" transform="translate(190.875 0)"/>
       <use xlink:href="#DejaVuSans-13" transform="translate(254.5 0)"/>
       <use xlink:href="#DejaVuSans-13" transform="translate(318.125 0)"/>
      </g>
     </g>
    </g>
    <g id="text_8">
     <!-- P  (Pa) -->
     <g style="fill: #1f2933" transform="translate(14.797656 98.726599) rotate(-90) scale(0.1 -0.1)">
      <defs>
       <path id="DejaVuSans-33" d="M 1259 4147 
L 1259 2394 
L 2053 2394 
Q 2494 2394 2734 2622 
Q 2975 2850 2975 3272 
Q 2975 3691 2734 3919 
Q 2494 4147 2053 4147 
L 1259 4147 
z
M 628 4666 
L 2053 4666 
Q 2838 4666 3239 4311 
Q 3641 3956 3641 3272 
Q 3641 2581 3239 2228 
Q 2838 1875 2053 1875 
L 1259 1875 
L 1259 0 
L 628 0 
L 628 4666 
z
" transform="scale(0.015625)"/>
       <path id="DejaVuSans-3" transform="scale(0.015625)"/>
       <path id="DejaVuSans-b" d="M 1984 4856 
Q 1566 4138 1362 3434 
Q 1159 2731 1159 2009 
Q 1159 1288 1364 580 
Q 1569 -128 1984 -844 
L 1484 -844 
Q 1016 -109 783 600 
Q 550 1309 550 2009 
Q 550 2706 781 3412 
Q 1013 4119 1484 4856 
L 1984 4856 
z
" transform="scale(0.015625)"/>
       <path id="DejaVuSans-44" d="M 2194 1759 
Q 1497 1759 1228 1600 
Q 959 1441 959 1056 
Q 959 750 1161 570 
Q 1363 391 1709 391 
Q 2188 391 2477 730 
Q 2766 1069 2766 1631 
L 2766 1759 
L 2194 1759 
z
M 3341 1997 
L 3341 0 
L 2766 0 
L 2766 531 
Q 2569 213 2275 61 
Q 1981 -91 1556 -91 
Q 1019 -91 701 211 
Q 384 513 384 1019 
Q 384 1609 779 1909 
Q 1175 2209 1959 2209 
L 2766 2209 
L 2766 2266 
Q 2766 2663 2505 2880 
Q 2244 3097 1772 3097 
Q 1472 3097 1187 3025 
Q 903 2953 641 2809 
L 641 3341 
Q 956 3463 1253 3523 
Q 1550 3584 1831 3584 
Q 2591 3584 2966 3190 
Q 3341 2797 3341 1997 
z
" transform="scale(0.015625)"/>
       <path id="DejaVuSans-c" d="M 513 4856 
L 1013 4856 
Q 1481 4119 1714 3412 
Q 1947 2706 1947 2009 
Q 1947 1309 1714 600 
Q 1481 -109 1013 -844 
L 513 -844 
Q 928 -128 1133 580 
Q 1338 1288 1338 2009 
Q 1338 2731 1133 3434 
Q 928 4138 513 4856 
z
" transform="scale(0.015625)"/>
      </defs>
      <use xlink:href="#DejaVuSans-33"/>
      <use xlink:href="#DejaVuSans-3" transform="translate(60.296875 0)"/>
      <use xlink:href="#DejaVuSans-3" transform="translate(92.078125 0)"/>
      <use xlink:href="#DejaVuSans-b" transform="translate(123.859375 0)"/>
      <use xlink:href="#DejaVuSans-33" transform="translate(162.875 0)"/>
      <use xlink:href="#DejaVuSans-44" transform="translate(218.6875 0)"/>
      <use xlink:href="#DejaVuSans-c" transform="translate(279.96875 0)"/>
     </g>
    </g>
   </g>
   <g id="line2d_13">
    <path d="M 58.74 144.155957 
L 415.86 144.155957 
" clip-path="url(#p50a4195e6d)" style="fill: none; stroke: #d8d4c8; stroke-linecap: square"/>
   </g>
   <g id="line2d_14">
    <path d="M 58.74 32.558545 
L 63.222678 37.191968 
L 67.705356 41.505111 
L 72.188033 45.528461 
L 76.670711 49.288847 
L 81.153389 52.809974 
L 87.130293 57.168596 
L 93.107197 61.182455 
L 99.0841 64.88895 
L 105.061004 68.320392 
L 111.037908 71.504829 
L 117.014812 74.466716 
L 124.485941 77.888476 
L 131.957071 81.03199 
L 139.428201 83.92826 
L 146.899331 86.603959 
L 155.864686 89.555901 
L 164.830042 92.257466 
L 173.795397 94.737712 
L 184.254979 97.384543 
L 194.714561 99.797317 
L 206.668368 102.304243 
L 218.622176 104.577728 
L 232.070209 106.893082 
L 245.518243 108.985562 
L 260.460502 111.084516 
L 276.896987 113.156597 
L 294.827699 115.175182 
L 314.252636 117.120038 
L 335.171799 118.976693 
L 357.585188 120.735647 
L 381.492803 122.391534 
L 408.38887 124.027608 
L 415.86 124.445014 
L 415.86 124.445014 
" clip-path="url(#p50a4195e6d)" style="fill: none; stroke: #1f2933; stroke-width: 2.2; stroke-linecap: square"/>
   </g>
   <g id="patch_3">
    <path d="M 58.74 155.315698 
L 58.74 10.239062 
" style="fill: none; stroke: #d8d4c8; stroke-width: 0.8; stroke-linejoin: miter; stroke-linecap: square"/>
   </g>
   <g id="patch_4">
    <path d="M 58.74 155.315698 
L 415.86 155.315698 
" style="fill: none; stroke: #d8d4c8; stroke-width: 0.8; stroke-linejoin: miter; stroke-linecap: square"/>
   </g>
   <g id="text_9">
    <g id="patch_5">
     <path d="M 163.754547 134.473324 
L 310.845453 134.473324 
Q 313.253453 134.473324 313.253453 132.065324 
L 313.253453 123.464652 
Q 313.253453 121.056652 310.845453 121.056652 
L 163.754547 121.056652 
Q 161.346547 121.056652 161.346547 123.464652 
L 161.346547 132.065324 
Q 161.346547 134.473324 163.754547 134.473324 
z
" style="fill: #fbfaf7; opacity: 0.92; stroke: #d8d4c8; stroke-width: 0.6; stroke-linejoin: miter"/>
    </g>
    <!-- shaded area  =  ∫ F dx  =  work W -->
    <g style="fill: #1f2933" transform="translate(163.754547 129.999309) scale(0.086 -0.086)">
     <defs>
      <path id="DejaVuSans-56" d="M 2834 3397 
L 2834 2853 
Q 2591 2978 2328 3040 
Q 2066 3103 1784 3103 
Q 1356 3103 1142 2972 
Q 928 2841 928 2578 
Q 928 2378 1081 2264 
Q 1234 2150 1697 2047 
L 1894 2003 
Q 2506 1872 2764 1633 
Q 3022 1394 3022 966 
Q 3022 478 2636 193 
Q 2250 -91 1575 -91 
Q 1294 -91 989 -36 
Q 684 19 347 128 
L 347 722 
Q 666 556 975 473 
Q 1284 391 1588 391 
Q 1994 391 2212 530 
Q 2431 669 2431 922 
Q 2431 1156 2273 1281 
Q 2116 1406 1581 1522 
L 1381 1569 
Q 847 1681 609 1914 
Q 372 2147 372 2553 
Q 372 3047 722 3315 
Q 1072 3584 1716 3584 
Q 2034 3584 2315 3537 
Q 2597 3491 2834 3397 
z
" transform="scale(0.015625)"/>
      <path id="DejaVuSans-4b" d="M 3513 2113 
L 3513 0 
L 2938 0 
L 2938 2094 
Q 2938 2591 2744 2837 
Q 2550 3084 2163 3084 
Q 1697 3084 1428 2787 
Q 1159 2491 1159 1978 
L 1159 0 
L 581 0 
L 581 4863 
L 1159 4863 
L 1159 2956 
Q 1366 3272 1645 3428 
Q 1925 3584 2291 3584 
Q 2894 3584 3203 3211 
Q 3513 2838 3513 2113 
z
" transform="scale(0.015625)"/>
      <path id="DejaVuSans-47" d="M 2906 2969 
L 2906 4863 
L 3481 4863 
L 3481 0 
L 2906 0 
L 2906 525 
Q 2725 213 2448 61 
Q 2172 -91 1784 -91 
Q 1150 -91 751 415 
Q 353 922 353 1747 
Q 353 2572 751 3078 
Q 1150 3584 1784 3584 
Q 2172 3584 2448 3432 
Q 2725 3281 2906 2969 
z
M 947 1747 
Q 947 1113 1208 752 
Q 1469 391 1925 391 
Q 2381 391 2643 752 
Q 2906 1113 2906 1747 
Q 2906 2381 2643 2742 
Q 2381 3103 1925 3103 
Q 1469 3103 1208 2742 
Q 947 2381 947 1747 
z
" transform="scale(0.015625)"/>
      <path id="DejaVuSans-48" d="M 3597 1894 
L 3597 1613 
L 953 1613 
Q 991 1019 1311 708 
Q 1631 397 2203 397 
Q 2534 397 2845 478 
Q 3156 559 3463 722 
L 3463 178 
Q 3153 47 2828 -22 
Q 2503 -91 2169 -91 
Q 1331 -91 842 396 
Q 353 884 353 1716 
Q 353 2575 817 3079 
Q 1281 3584 2069 3584 
Q 2775 3584 3186 3129 
Q 3597 2675 3597 1894 
z
M 3022 2063 
Q 3016 2534 2758 2815 
Q 2500 3097 2075 3097 
Q 1594 3097 1305 2825 
Q 1016 2553 972 2059 
L 3022 2063 
z
" transform="scale(0.015625)"/>
      <path id="DejaVuSans-55" d="M 2631 2963 
Q 2534 3019 2420 3045 
Q 2306 3072 2169 3072 
Q 1681 3072 1420 2755 
Q 1159 2438 1159 1844 
L 1159 0 
L 581 0 
L 581 3500 
L 1159 3500 
L 1159 2956 
Q 1341 3275 1631 3429 
Q 1922 3584 2338 3584 
Q 2397 3584 2469 3576 
Q 2541 3569 2628 3553 
L 2631 2963 
z
" transform="scale(0.015625)"/>
      <path id="DejaVuSans-20" d="M 678 2906 
L 4684 2906 
L 4684 2381 
L 678 2381 
L 678 2906 
z
M 678 1631 
L 4684 1631 
L 4684 1100 
L 678 1100 
L 678 1631 
z
" transform="scale(0.015625)"/>
      <path id="DejaVuSans-cb5" d="M 1509 3906 
Q 1534 4428 1787 4636 
Q 2041 4844 2277 4844 
Q 2513 4844 2709 4648 
Q 2906 4453 2969 4016 
L 2506 3969 
Q 2453 4375 2275 4375 
Q 2053 4375 2028 3828 
L 1825 -422 
Q 1800 -944 1547 -1151 
Q 1294 -1359 1058 -1359 
Q 822 -1359 625 -1164 
Q 428 -969 366 -531 
L 828 -484 
Q 881 -891 1059 -891 
Q 1281 -891 1306 -344 
L 1509 3906 
z
" transform="scale(0.015625)"/>
      <path id="DejaVuSans-29" d="M 628 4666 
L 3309 4666 
L 3309 4134 
L 1259 4134 
L 1259 2759 
L 3109 2759 
L 3109 2228 
L 1259 2228 
L 1259 0 
L 628 0 
L 628 4666 
z
" transform="scale(0.015625)"/>
      <path id="DejaVuSans-5b" d="M 3513 3500 
L 2247 1797 
L 3578 0 
L 2900 0 
L 1881 1375 
L 863 0 
L 184 0 
L 1544 1831 
L 300 3500 
L 978 3500 
L 1906 2253 
L 2834 3500 
L 3513 3500 
z
" transform="scale(0.015625)"/>
      <path id="DejaVuSans-5a" d="M 269 3500 
L 844 3500 
L 1563 769 
L 2278 3500 
L 2956 3500 
L 3675 769 
L 4391 3500 
L 4966 3500 
L 4050 0 
L 3372 0 
L 2619 2869 
L 1863 0 
L 1184 0 
L 269 3500 
z
" transform="scale(0.015625)"/>
      <path id="DejaVuSans-52" d="M 1959 3097 
Q 1497 3097 1228 2736 
Q 959 2375 959 1747 
Q 959 1119 1226 758 
Q 1494 397 1959 397 
Q 2419 397 2687 759 
Q 2956 1122 2956 1747 
Q 2956 2369 2687 2733 
Q 2419 3097 1959 3097 
z
M 1959 3584 
Q 2709 3584 3137 3096 
Q 3566 2609 3566 1747 
Q 3566 888 3137 398 
Q 2709 -91 1959 -91 
Q 1206 -91 779 398 
Q 353 888 353 1747 
Q 353 2609 779 3096 
Q 1206 3584 1959 3584 
z
" transform="scale(0.015625)"/>
      <path id="DejaVuSans-4e" d="M 581 4863 
L 1159 4863 
L 1159 1991 
L 2875 3500 
L 3609 3500 
L 1753 1863 
L 3688 0 
L 2938 0 
L 1159 1709 
L 1159 0 
L 581 0 
L 581 4863 
z
" transform="scale(0.015625)"/>
      <path id="DejaVuSans-3a" d="M 213 4666 
L 850 4666 
L 1831 722 
L 2809 4666 
L 3519 4666 
L 4500 722 
L 5478 4666 
L 6119 4666 
L 4947 0 
L 4153 0 
L 3169 4050 
L 2175 0 
L 1381 0 
L 213 4666 
z
" transform="scale(0.015625)"/>
     </defs>
     <use xlink:href="#DejaVuSans-56"/>
     <use xlink:href="#DejaVuSans-4b" transform="translate(52.09375 0)"/>
     <use xlink:href="#DejaVuSans-44" transform="translate(115.46875 0)"/>
     <use xlink:href="#DejaVuSans-47" transform="translate(176.75 0)"/>
     <use xlink:href="#DejaVuSans-48" transform="translate(240.234375 0)"/>
     <use xlink:href="#DejaVuSans-47" transform="translate(301.765625 0)"/>
     <use xlink:href="#DejaVuSans-3" transform="translate(365.25 0)"/>
     <use xlink:href="#DejaVuSans-44" transform="translate(397.03125 0)"/>
     <use xlink:href="#DejaVuSans-55" transform="translate(458.3125 0)"/>
     <use xlink:href="#DejaVuSans-48" transform="translate(497.21875 0)"/>
     <use xlink:href="#DejaVuSans-44" transform="translate(558.75 0)"/>
     <use xlink:href="#DejaVuSans-3" transform="translate(620.03125 0)"/>
     <use xlink:href="#DejaVuSans-3" transform="translate(651.8125 0)"/>
     <use xlink:href="#DejaVuSans-20" transform="translate(683.59375 0)"/>
     <use xlink:href="#DejaVuSans-3" transform="translate(767.390625 0)"/>
     <use xlink:href="#DejaVuSans-3" transform="translate(799.171875 0)"/>
     <use xlink:href="#DejaVuSans-cb5" transform="translate(830.953125 0)"/>
     <use xlink:href="#DejaVuSans-3" transform="translate(883.046875 0)"/>
     <use xlink:href="#DejaVuSans-29" transform="translate(914.828125 0)"/>
     <use xlink:href="#DejaVuSans-3" transform="translate(972.34375 0)"/>
     <use xlink:href="#DejaVuSans-47" transform="translate(1004.125 0)"/>
     <use xlink:href="#DejaVuSans-5b" transform="translate(1067.609375 0)"/>
     <use xlink:href="#DejaVuSans-3" transform="translate(1126.796875 0)"/>
     <use xlink:href="#DejaVuSans-3" transform="translate(1158.578125 0)"/>
     <use xlink:href="#DejaVuSans-20" transform="translate(1190.359375 0)"/>
     <use xlink:href="#DejaVuSans-3" transform="translate(1274.15625 0)"/>
     <use xlink:href="#DejaVuSans-3" transform="translate(1305.9375 0)"/>
     <use xlink:href="#DejaVuSans-5a" transform="translate(1337.71875 0)"/>
     <use xlink:href="#DejaVuSans-52" transform="translate(1419.5 0)"/>
     <use xlink:href="#DejaVuSans-55" transform="translate(1480.6875 0)"/>
     <use xlink:href="#DejaVuSans-4e" transform="translate(1521.796875 0)"/>
     <use xlink:href="#DejaVuSans-3" transform="translate(1579.703125 0)"/>
     <use xlink:href="#DejaVuSans-3a" transform="translate(1611.484375 0)"/>
    </g>
   </g>
  </g>
  <g id="axes_2">
   <g id="patch_6">
    <path d="M 58.74 320.703062 
L 415.86 320.703062 
L 415.86 175.626427 
L 58.74 175.626427 
z
" style="fill: #fbfaf7"/>
   </g>
   <g id="matplotlib.axis_3">
    <g id="xtick_6">
     <g id="line2d_15">
      <g>
       <use xlink:href="#m5e7695ad5e" x="58.74" y="320.703062" style="fill: #8a929b; stroke: #8a929b; stroke-width: 0.8"/>
      </g>
     </g>
     <g id="text_10">
      <!-- 0.0010 -->
      <g style="fill: #8a929b" transform="translate(44.74375 333.781187) scale(0.08 -0.08)">
       <defs>
        <path id="DejaVuSans-11" d="M 684 794 
L 1344 794 
L 1344 0 
L 684 0 
L 684 794 
z
" transform="scale(0.015625)"/>
       </defs>
       <use xlink:href="#DejaVuSans-13"/>
       <use xlink:href="#DejaVuSans-11" transform="translate(63.625 0)"/>
       <use xlink:href="#DejaVuSans-13" transform="translate(95.40625 0)"/>
       <use xlink:href="#DejaVuSans-13" transform="translate(159.03125 0)"/>
       <use xlink:href="#DejaVuSans-14" transform="translate(222.65625 0)"/>
       <use xlink:href="#DejaVuSans-13" transform="translate(286.28125 0)"/>
      </g>
     </g>
    </g>
    <g id="xtick_7">
     <g id="line2d_16">
      <g>
       <use xlink:href="#m5e7695ad5e" x="131.621633" y="320.703062" style="fill: #8a929b; stroke: #8a929b; stroke-width: 0.8"/>
      </g>
     </g>
     <g id="text_11">
      <!-- 0.0015 -->
      <g style="fill: #8a929b" transform="translate(117.625383 333.781187) scale(0.08 -0.08)">
       <defs>
        <path id="DejaVuSans-18" d="M 691 4666 
L 3169 4666 
L 3169 4134 
L 1269 4134 
L 1269 2991 
Q 1406 3038 1543 3061 
Q 1681 3084 1819 3084 
Q 2600 3084 3056 2656 
Q 3513 2228 3513 1497 
Q 3513 744 3044 326 
Q 2575 -91 1722 -91 
Q 1428 -91 1123 -41 
Q 819 9 494 109 
L 494 744 
Q 775 591 1075 516 
Q 1375 441 1709 441 
Q 2250 441 2565 725 
Q 2881 1009 2881 1497 
Q 2881 1984 2565 2268 
Q 2250 2553 1709 2553 
Q 1456 2553 1204 2497 
Q 953 2441 691 2322 
L 691 4666 
z
" transform="scale(0.015625)"/>
       </defs>
       <use xlink:href="#DejaVuSans-13"/>
       <use xlink:href="#DejaVuSans-11" transform="translate(63.625 0)"/>
       <use xlink:href="#DejaVuSans-13" transform="translate(95.40625 0)"/>
       <use xlink:href="#DejaVuSans-13" transform="translate(159.03125 0)"/>
       <use xlink:href="#DejaVuSans-14" transform="translate(222.65625 0)"/>
       <use xlink:href="#DejaVuSans-18" transform="translate(286.28125 0)"/>
      </g>
     </g>
    </g>
    <g id="xtick_8">
     <g id="line2d_17">
      <g>
       <use xlink:href="#m5e7695ad5e" x="204.503265" y="320.703062" style="fill: #8a929b; stroke: #8a929b; stroke-width: 0.8"/>
      </g>
     </g>
     <g id="text_12">
      <!-- 0.0020 -->
      <g style="fill: #8a929b" transform="translate(190.507015 333.781187) scale(0.08 -0.08)">
       <use xlink:href="#DejaVuSans-13"/>
       <use xlink:href="#DejaVuSans-11" transform="translate(63.625 0)"/>
       <use xlink:href="#DejaVuSans-13" transform="translate(95.40625 0)"/>
       <use xlink:href="#DejaVuSans-13" transform="translate(159.03125 0)"/>
       <use xlink:href="#DejaVuSans-15" transform="translate(222.65625 0)"/>
       <use xlink:href="#DejaVuSans-13" transform="translate(286.28125 0)"/>
      </g>
     </g>
    </g>
    <g id="xtick_9">
     <g id="line2d_18">
      <g>
       <use xlink:href="#m5e7695ad5e" x="277.384898" y="320.703062" style="fill: #8a929b; stroke: #8a929b; stroke-width: 0.8"/>
      </g>
     </g>
     <g id="text_13">
      <!-- 0.0025 -->
      <g style="fill: #8a929b" transform="translate(263.388648 333.781187) scale(0.08 -0.08)">
       <use xlink:href="#DejaVuSans-13"/>
       <use xlink:href="#DejaVuSans-11" transform="translate(63.625 0)"/>
       <use xlink:href="#DejaVuSans-13" transform="translate(95.40625 0)"/>
       <use xlink:href="#DejaVuSans-13" transform="translate(159.03125 0)"/>
       <use xlink:href="#DejaVuSans-15" transform="translate(222.65625 0)"/>
       <use xlink:href="#DejaVuSans-18" transform="translate(286.28125 0)"/>
      </g>
     </g>
    </g>
    <g id="xtick_10">
     <g id="line2d_19">
      <g>
       <use xlink:href="#m5e7695ad5e" x="350.266531" y="320.703062" style="fill: #8a929b; stroke: #8a929b; stroke-width: 0.8"/>
      </g>
     </g>
     <g id="text_14">
      <!-- 0.0030 -->
      <g style="fill: #8a929b" transform="translate(336.270281 333.781187) scale(0.08 -0.08)">
       <defs>
        <path id="DejaVuSans-16" d="M 2597 2516 
Q 3050 2419 3304 2112 
Q 3559 1806 3559 1356 
Q 3559 666 3084 287 
Q 2609 -91 1734 -91 
Q 1441 -91 1130 -33 
Q 819 25 488 141 
L 488 750 
Q 750 597 1062 519 
Q 1375 441 1716 441 
Q 2309 441 2620 675 
Q 2931 909 2931 1356 
Q 2931 1769 2642 2001 
Q 2353 2234 1838 2234 
L 1294 2234 
L 1294 2753 
L 1863 2753 
Q 2328 2753 2575 2939 
Q 2822 3125 2822 3475 
Q 2822 3834 2567 4026 
Q 2313 4219 1838 4219 
Q 1578 4219 1281 4162 
Q 984 4106 628 3988 
L 628 4550 
Q 988 4650 1302 4700 
Q 1616 4750 1894 4750 
Q 2613 4750 3031 4423 
Q 3450 4097 3450 3541 
Q 3450 3153 3228 2886 
Q 3006 2619 2597 2516 
z
" transform="scale(0.015625)"/>
       </defs>
       <use xlink:href="#DejaVuSans-13"/>
       <use xlink:href="#DejaVuSans-11" transform="translate(63.625 0)"/>
       <use xlink:href="#DejaVuSans-13" transform="translate(95.40625 0)"/>
       <use xlink:href="#DejaVuSans-13" transform="translate(159.03125 0)"/>
       <use xlink:href="#DejaVuSans-16" transform="translate(222.65625 0)"/>
       <use xlink:href="#DejaVuSans-13" transform="translate(286.28125 0)"/>
      </g>
     </g>
    </g>
    <g id="text_15">
     <!-- V  (m³) -->
     <g style="fill: #1f2933" transform="translate(219.925 347.300719) scale(0.1 -0.1)">
      <defs>
       <path id="DejaVuSans-39" d="M 1831 0 
L 50 4666 
L 709 4666 
L 2188 738 
L 3669 4666 
L 4325 4666 
L 2547 0 
L 1831 0 
z
" transform="scale(0.015625)"/>
       <path id="DejaVuSans-50" d="M 3328 2828 
Q 3544 3216 3844 3400 
Q 4144 3584 4550 3584 
Q 5097 3584 5394 3201 
Q 5691 2819 5691 2113 
L 5691 0 
L 5113 0 
L 5113 2094 
Q 5113 2597 4934 2840 
Q 4756 3084 4391 3084 
Q 3944 3084 3684 2787 
Q 3425 2491 3425 1978 
L 3425 0 
L 2847 0 
L 2847 2094 
Q 2847 2600 2669 2842 
Q 2491 3084 2119 3084 
Q 1678 3084 1418 2786 
Q 1159 2488 1159 1978 
L 1159 0 
L 581 0 
L 581 3500 
L 1159 3500 
L 1159 2956 
Q 1356 3278 1631 3431 
Q 1906 3584 2284 3584 
Q 2666 3584 2933 3390 
Q 3200 3197 3328 2828 
z
" transform="scale(0.015625)"/>
       <path id="DejaVuSans-75" d="M 1638 3500 
Q 1925 3444 2083 3273 
Q 2241 3103 2241 2847 
Q 2241 2459 1944 2250 
Q 1647 2041 1094 2041 
Q 916 2041 720 2073 
Q 525 2106 306 2169 
L 306 2547 
Q 469 2463 655 2422 
Q 841 2381 1050 2381 
Q 1391 2381 1578 2504 
Q 1766 2628 1766 2847 
Q 1766 3078 1592 3197 
Q 1419 3316 1081 3316 
L 813 3316 
L 813 3653 
L 1106 3653 
Q 1400 3653 1551 3751 
Q 1703 3850 1703 4038 
Q 1703 4219 1547 4314 
Q 1391 4409 1094 4409 
Q 969 4409 809 4381 
Q 650 4353 397 4281 
L 397 4641 
Q 625 4694 825 4722 
Q 1025 4750 1197 4750 
Q 1647 4750 1911 4565 
Q 2175 4381 2175 4072 
Q 2175 3856 2034 3706 
Q 1894 3556 1638 3500 
z
" transform="scale(0.015625)"/>
      </defs>
      <use xlink:href="#DejaVuSans-39"/>
      <use xlink:href="#DejaVuSans-3" transform="translate(68.40625 0)"/>
      <use xlink:href="#DejaVuSans-3" transform="translate(100.1875 0)"/>
      <use xlink:href="#DejaVuSans-b" transform="translate(131.96875 0)"/>
      <use xlink:href="#DejaVuSans-50" transform="translate(170.984375 0)"/>
      <use xlink:href="#DejaVuSans-75" transform="translate(268.390625 0)"/>
      <use xlink:href="#DejaVuSans-c" transform="translate(308.484375 0)"/>
     </g>
    </g>
   </g>
   <g id="matplotlib.axis_4">
    <g id="ytick_8">
     <g id="line2d_20">
      <g>
       <use xlink:href="#m8f526f303a" x="58.74" y="309.543321" style="fill: #8a929b; stroke: #8a929b; stroke-width: 0.8"/>
      </g>
     </g>
     <g id="text_16">
      <!-- 0 -->
      <g style="fill: #8a929b" transform="translate(46.65 312.582384) scale(0.08 -0.08)">
       <use xlink:href="#DejaVuSans-13"/>
      </g>
     </g>
    </g>
    <g id="ytick_9">
     <g id="line2d_21">
      <g>
       <use xlink:href="#m8f526f303a" x="58.74" y="286.689179" style="fill: #8a929b; stroke: #8a929b; stroke-width: 0.8"/>
      </g>
     </g>
     <g id="text_17">
      <!-- 20 -->
      <g style="fill: #8a929b" transform="translate(41.56 289.728241) scale(0.08 -0.08)">
       <use xlink:href="#DejaVuSans-15"/>
       <use xlink:href="#DejaVuSans-13" transform="translate(63.625 0)"/>
      </g>
     </g>
    </g>
    <g id="ytick_10">
     <g id="line2d_22">
      <g>
       <use xlink:href="#m8f526f303a" x="58.74" y="263.835036" style="fill: #8a929b; stroke: #8a929b; stroke-width: 0.8"/>
      </g>
     </g>
     <g id="text_18">
      <!-- 40 -->
      <g style="fill: #8a929b" transform="translate(41.56 266.874099) scale(0.08 -0.08)">
       <use xlink:href="#DejaVuSans-17"/>
       <use xlink:href="#DejaVuSans-13" transform="translate(63.625 0)"/>
      </g>
     </g>
    </g>
    <g id="ytick_11">
     <g id="line2d_23">
      <g>
       <use xlink:href="#m8f526f303a" x="58.74" y="240.980893" style="fill: #8a929b; stroke: #8a929b; stroke-width: 0.8"/>
      </g>
     </g>
     <g id="text_19">
      <!-- 60 -->
      <g style="fill: #8a929b" transform="translate(41.56 244.019956) scale(0.08 -0.08)">
       <use xlink:href="#DejaVuSans-19"/>
       <use xlink:href="#DejaVuSans-13" transform="translate(63.625 0)"/>
      </g>
     </g>
    </g>
    <g id="ytick_12">
     <g id="line2d_24">
      <g>
       <use xlink:href="#m8f526f303a" x="58.74" y="218.126751" style="fill: #8a929b; stroke: #8a929b; stroke-width: 0.8"/>
      </g>
     </g>
     <g id="text_20">
      <!-- 80 -->
      <g style="fill: #8a929b" transform="translate(41.56 221.165813) scale(0.08 -0.08)">
       <use xlink:href="#DejaVuSans-1b"/>
       <use xlink:href="#DejaVuSans-13" transform="translate(63.625 0)"/>
      </g>
     </g>
    </g>
    <g id="ytick_13">
     <g id="line2d_25">
      <g>
       <use xlink:href="#m8f526f303a" x="58.74" y="195.272608" style="fill: #8a929b; stroke: #8a929b; stroke-width: 0.8"/>
      </g>
     </g>
     <g id="text_21">
      <!-- 100 -->
      <g style="fill: #8a929b" transform="translate(36.47 198.311671) scale(0.08 -0.08)">
       <use xlink:href="#DejaVuSans-14"/>
       <use xlink:href="#DejaVuSans-13" transform="translate(63.625 0)"/>
       <use xlink:href="#DejaVuSans-13" transform="translate(127.25 0)"/>
      </g>
     </g>
    </g>
    <g id="text_22">
     <!-- W  (J) -->
     <g style="fill: #1f2933" transform="translate(30.067656 261.663182) rotate(-90) scale(0.1 -0.1)">
      <defs>
       <path id="DejaVuSans-2d" d="M 628 4666 
L 1259 4666 
L 1259 325 
Q 1259 -519 939 -900 
Q 619 -1281 -91 -1281 
L -331 -1281 
L -331 -750 
L -134 -750 
Q 284 -750 456 -515 
Q 628 -281 628 325 
L 628 4666 
z
" transform="scale(0.015625)"/>
      </defs>
      <use xlink:href="#DejaVuSans-3a"/>
      <use xlink:href="#DejaVuSans-3" transform="translate(98.875 0)"/>
      <use xlink:href="#DejaVuSans-3" transform="translate(130.65625 0)"/>
      <use xlink:href="#DejaVuSans-b" transform="translate(162.4375 0)"/>
      <use xlink:href="#DejaVuSans-2d" transform="translate(201.453125 0)"/>
      <use xlink:href="#DejaVuSans-c" transform="translate(230.953125 0)"/>
     </g>
    </g>
   </g>
   <g id="line2d_26">
    <path d="M 58.74 309.543321 
L 415.86 309.543321 
" clip-path="url(#p3dd0fe7dec)" style="fill: none; stroke: #d8d4c8; stroke-linecap: square"/>
   </g>
   <g id="line2d_27">
    <path d="M 58.74 309.543321 
L 64.716904 304.98797 
L 70.693808 300.677127 
L 78.164937 295.599656 
L 85.636067 290.833894 
L 93.107197 286.348412 
L 100.578326 282.116089 
L 108.049456 278.113379 
L 117.014812 273.584449 
L 125.980167 269.325866 
L 134.945523 265.311094 
L 143.910879 261.517142 
L 154.37046 257.34337 
L 164.830042 253.415387 
L 175.289623 249.70938 
L 187.243431 245.719358 
L 199.197238 241.965644 
L 212.645272 237.99664 
L 226.093305 234.269458 
L 239.541339 230.759891 
L 254.483598 227.090263 
L 269.425858 223.638789 
L 285.862343 220.068766 
L 303.793054 216.41724 
L 321.723766 212.993018 
L 341.148703 209.513091 
L 362.067866 206.004466 
L 382.987029 202.717481 
L 405.400418 199.415639 
L 415.86 197.945909 
L 415.86 197.945909 
" clip-path="url(#p3dd0fe7dec)" style="fill: none; stroke: #2f6f4f; stroke-width: 2.2; stroke-linecap: square"/>
   </g>
   <g id="patch_7">
    <path d="M 58.74 320.703062 
L 58.74 175.626427 
" style="fill: none; stroke: #d8d4c8; stroke-width: 0.8; stroke-linejoin: miter; stroke-linecap: square"/>
   </g>
   <g id="patch_8">
    <path d="M 58.74 320.703062 
L 415.86 320.703062 
" style="fill: none; stroke: #d8d4c8; stroke-width: 0.8; stroke-linejoin: miter; stroke-linecap: square"/>
   </g>
   <g id="text_23">
    <g id="patch_9">
     <path d="M 288.1544 234.291816 
L 368.182775 234.291816 
Q 370.590775 234.291816 370.590775 231.883816 
L 370.590775 223.283144 
Q 370.590775 220.875144 368.182775 220.875144 
L 288.1544 220.875144 
Q 285.7464 220.875144 285.7464 223.283144 
L 285.7464 231.883816 
Q 285.7464 234.291816 288.1544 234.291816 
z
" style="fill: #fbfaf7; opacity: 0.92; stroke: #d8d4c8; stroke-width: 0.6; stroke-linejoin: miter"/>
    </g>
    <!-- slope of W  =  F(x) -->
    <g style="fill: #1f2933" transform="translate(288.1544 229.8178) scale(0.086 -0.086)">
     <defs>
      <path id="DejaVuSans-4f" d="M 603 4863 
L 1178 4863 
L 1178 0 
L 603 0 
L 603 4863 
z
" transform="scale(0.015625)"/>
      <path id="DejaVuSans-53" d="M 1159 525 
L 1159 -1331 
L 581 -1331 
L 581 3500 
L 1159 3500 
L 1159 2969 
Q 1341 3281 1617 3432 
Q 1894 3584 2278 3584 
Q 2916 3584 3314 3078 
Q 3713 2572 3713 1747 
Q 3713 922 3314 415 
Q 2916 -91 2278 -91 
Q 1894 -91 1617 61 
Q 1341 213 1159 525 
z
M 3116 1747 
Q 3116 2381 2855 2742 
Q 2594 3103 2138 3103 
Q 1681 3103 1420 2742 
Q 1159 2381 1159 1747 
Q 1159 1113 1420 752 
Q 1681 391 2138 391 
Q 2594 391 2855 752 
Q 3116 1113 3116 1747 
z
" transform="scale(0.015625)"/>
      <path id="DejaVuSans-49" d="M 2375 4863 
L 2375 4384 
L 1825 4384 
Q 1516 4384 1395 4259 
Q 1275 4134 1275 3809 
L 1275 3500 
L 2222 3500 
L 2222 3053 
L 1275 3053 
L 1275 0 
L 697 0 
L 697 3053 
L 147 3053 
L 147 3500 
L 697 3500 
L 697 3744 
Q 697 4328 969 4595 
Q 1241 4863 1831 4863 
L 2375 4863 
z
" transform="scale(0.015625)"/>
     </defs>
     <use xlink:href="#DejaVuSans-56"/>
     <use xlink:href="#DejaVuSans-4f" transform="translate(52.09375 0)"/>
     <use xlink:href="#DejaVuSans-52" transform="translate(79.875 0)"/>
     <use xlink:href="#DejaVuSans-53" transform="translate(141.0625 0)"/>
     <use xlink:href="#DejaVuSans-48" transform="translate(204.546875 0)"/>
     <use xlink:href="#DejaVuSans-3" transform="translate(266.078125 0)"/>
     <use xlink:href="#DejaVuSans-52" transform="translate(297.859375 0)"/>
     <use xlink:href="#DejaVuSans-49" transform="translate(359.046875 0)"/>
     <use xlink:href="#DejaVuSans-3" transform="translate(394.25 0)"/>
     <use xlink:href="#DejaVuSans-3a" transform="translate(426.03125 0)"/>
     <use xlink:href="#DejaVuSans-3" transform="translate(524.90625 0)"/>
     <use xlink:href="#DejaVuSans-3" transform="translate(556.6875 0)"/>
     <use xlink:href="#DejaVuSans-20" transform="translate(588.46875 0)"/>
     <use xlink:href="#DejaVuSans-3" transform="translate(672.265625 0)"/>
     <use xlink:href="#DejaVuSans-3" transform="translate(704.046875 0)"/>
     <use xlink:href="#DejaVuSans-29" transform="translate(735.828125 0)"/>
     <use xlink:href="#DejaVuSans-b" transform="translate(793.34375 0)"/>
     <use xlink:href="#DejaVuSans-5b" transform="translate(832.359375 0)"/>
     <use xlink:href="#DejaVuSans-c" transform="translate(891.546875 0)"/>
    </g>
   </g>
  </g>
 </g>
 <defs>
  <clipPath id="p50a4195e6d">
   <rect x="58.74" y="10.239062" width="357.12" height="145.076636"/>
  </clipPath>
  <clipPath id="p3dd0fe7dec">
   <rect x="58.74" y="175.626427" width="357.12" height="145.076636"/>
  </clipPath>
 </defs>
</svg>
