<?xml version="1.0" encoding="utf-8" standalone="no"?>
<!DOCTYPE svg PUBLIC "-//W3C//DTD SVG 1.1//EN"
  "http://www.w3.org/Graphics/SVG/1.1/DTD/svg11.dtd">
<svg xmlns:xlink="http://www.w3.org/1999/xlink" width="286.062719pt" height="275.757656pt" viewBox="0 0 286.062719 275.757656" xmlns="http://www.w3.org/2000/svg" version="1.1">
 <metadata>
  <rdf:RDF xmlns:dc="http://purl.org/dc/elements/1.1/" xmlns:cc="http://creativecommons.org/ns#" xmlns:rdf="http://www.w3.org/1999/02/22-rdf-syntax-ns#">
   <cc:Work>
    <dc:type rdf:resource="http://purl.org/dc/dcmitype/StillImage"/>
    <dc:date>2026-06-26T19:42:16.999657</dc:date>
    <dc:format>image/svg+xml</dc:format>
    <dc:creator>
     <cc:Agent>
      <dc:title>Matplotlib v3.11.0, https://matplotlib.org/</dc:title>
     </cc:Agent>
    </dc:creator>
   </cc:Work>
  </rdf:RDF>
 </metadata>
 <defs>
  <style type="text/css">*{stroke-linejoin: round; stroke-linecap: butt}</style>
 </defs>
 <g id="figure_1">
  <g id="patch_1">
   <path d="M 0 275.757656 
L 286.062719 275.757656 
L 286.062719 0 
L 0 0 
z
" style="fill: #fbfaf7"/>
  </g>
  <g id="axes_1">
   <g id="patch_2">
    <path d="M 39.99375 239.557656 
L 261.75375 239.557656 
L 261.75375 17.797656 
L 39.99375 17.797656 
z
" style="fill: #fbfaf7"/>
   </g>
   <g id="matplotlib.axis_1">
    <g id="xtick_1">
     <g id="line2d_1">
      <defs>
       <path id="ma3e44b4eab" d="M 0 0 
L 0 3.5 
" style="stroke: #8a929b; stroke-width: 0.8"/>
      </defs>
      <g>
       <use xlink:href="#ma3e44b4eab" x="43.483919" y="239.557656" style="fill: #8a929b; stroke: #8a929b; stroke-width: 0.8"/>
      </g>
     </g>
     <g id="text_1">
      <!-- −8 -->
      <g style="fill: #8a929b" transform="translate(37.587044 252.635781) scale(0.08 -0.08)">
       <defs>
        <path id="DejaVuSans-c9c" d="M 678 2272 
L 4684 2272 
L 4684 1741 
L 678 1741 
L 678 2272 
z
" transform="scale(0.015625)"/>
        <path id="DejaVuSans-1b" d="M 2034 2216 
Q 1584 2216 1326 1975 
Q 1069 1734 1069 1313 
Q 1069 891 1326 650 
Q 1584 409 2034 409 
Q 2484 409 2743 651 
Q 3003 894 3003 1313 
Q 3003 1734 2745 1975 
Q 2488 2216 2034 2216 
z
M 1403 2484 
Q 997 2584 770 2862 
Q 544 3141 544 3541 
Q 544 4100 942 4425 
Q 1341 4750 2034 4750 
Q 2731 4750 3128 4425 
Q 3525 4100 3525 3541 
Q 3525 3141 3298 2862 
Q 3072 2584 2669 2484 
Q 3125 2378 3379 2068 
Q 3634 1759 3634 1313 
Q 3634 634 3220 271 
Q 2806 -91 2034 -91 
Q 1263 -91 848 271 
Q 434 634 434 1313 
Q 434 1759 690 2068 
Q 947 2378 1403 2484 
z
M 1172 3481 
Q 1172 3119 1398 2916 
Q 1625 2713 2034 2713 
Q 2441 2713 2670 2916 
Q 2900 3119 2900 3481 
Q 2900 3844 2670 4047 
Q 2441 4250 2034 4250 
Q 1625 4250 1398 4047 
Q 1172 3844 1172 3481 
z
" transform="scale(0.015625)"/>
       </defs>
       <use xlink:href="#DejaVuSans-c9c"/>
       <use xlink:href="#DejaVuSans-1b" transform="translate(83.796875 0)"/>
      </g>
     </g>
    </g>
    <g id="xtick_2">
     <g id="line2d_2">
      <g>
       <use xlink:href="#ma3e44b4eab" x="70.331377" y="239.557656" style="fill: #8a929b; stroke: #8a929b; stroke-width: 0.8"/>
      </g>
     </g>
     <g id="text_2">
      <!-- −6 -->
      <g style="fill: #8a929b" transform="translate(64.434502 252.635781) scale(0.08 -0.08)">
       <defs>
        <path id="DejaVuSans-19" d="M 2113 2584 
Q 1688 2584 1439 2293 
Q 1191 2003 1191 1497 
Q 1191 994 1439 701 
Q 1688 409 2113 409 
Q 2538 409 2786 701 
Q 3034 994 3034 1497 
Q 3034 2003 2786 2293 
Q 2538 2584 2113 2584 
z
M 3366 4563 
L 3366 3988 
Q 3128 4100 2886 4159 
Q 2644 4219 2406 4219 
Q 1781 4219 1451 3797 
Q 1122 3375 1075 2522 
Q 1259 2794 1537 2939 
Q 1816 3084 2150 3084 
Q 2853 3084 3261 2657 
Q 3669 2231 3669 1497 
Q 3669 778 3244 343 
Q 2819 -91 2113 -91 
Q 1303 -91 875 529 
Q 447 1150 447 2328 
Q 447 3434 972 4092 
Q 1497 4750 2381 4750 
Q 2619 4750 2861 4703 
Q 3103 4656 3366 4563 
z
" transform="scale(0.015625)"/>
       </defs>
       <use xlink:href="#DejaVuSans-c9c"/>
       <use xlink:href="#DejaVuSans-19" transform="translate(83.796875 0)"/>
      </g>
     </g>
    </g>
    <g id="xtick_3">
     <g id="line2d_3">
      <g>
       <use xlink:href="#ma3e44b4eab" x="97.178835" y="239.557656" style="fill: #8a929b; stroke: #8a929b; stroke-width: 0.8"/>
      </g>
     </g>
     <g id="text_3">
      <!-- −4 -->
      <g style="fill: #8a929b" transform="translate(91.28196 252.635781) scale(0.08 -0.08)">
       <defs>
        <path id="DejaVuSans-17" d="M 2419 4116 
L 825 1625 
L 2419 1625 
L 2419 4116 
z
M 2253 4666 
L 3047 4666 
L 3047 1625 
L 3713 1625 
L 3713 1100 
L 3047 1100 
L 3047 0 
L 2419 0 
L 2419 1100 
L 313 1100 
L 313 1709 
L 2253 4666 
z
" transform="scale(0.015625)"/>
       </defs>
       <use xlink:href="#DejaVuSans-c9c"/>
       <use xlink:href="#DejaVuSans-17" transform="translate(83.796875 0)"/>
      </g>
     </g>
    </g>
    <g id="xtick_4">
     <g id="line2d_4">
      <g>
       <use xlink:href="#ma3e44b4eab" x="124.026292" y="239.557656" style="fill: #8a929b; stroke: #8a929b; stroke-width: 0.8"/>
      </g>
     </g>
     <g id="text_4">
      <!-- −2 -->
      <g style="fill: #8a929b" transform="translate(118.129417 252.635781) scale(0.08 -0.08)">
       <defs>
        <path id="DejaVuSans-15" d="M 1228 531 
L 3431 531 
L 3431 0 
L 469 0 
L 469 531 
Q 828 903 1448 1529 
Q 2069 2156 2228 2338 
Q 2531 2678 2651 2914 
Q 2772 3150 2772 3378 
Q 2772 3750 2511 3984 
Q 2250 4219 1831 4219 
Q 1534 4219 1204 4116 
Q 875 4013 500 3803 
L 500 4441 
Q 881 4594 1212 4672 
Q 1544 4750 1819 4750 
Q 2544 4750 2975 4387 
Q 3406 4025 3406 3419 
Q 3406 3131 3298 2873 
Q 3191 2616 2906 2266 
Q 2828 2175 2409 1742 
Q 1991 1309 1228 531 
z
" transform="scale(0.015625)"/>
       </defs>
       <use xlink:href="#DejaVuSans-c9c"/>
       <use xlink:href="#DejaVuSans-15" transform="translate(83.796875 0)"/>
      </g>
     </g>
    </g>
    <g id="xtick_5">
     <g id="line2d_5">
      <g>
       <use xlink:href="#ma3e44b4eab" x="150.87375" y="239.557656" style="fill: #8a929b; stroke: #8a929b; stroke-width: 0.8"/>
      </g>
     </g>
     <g id="text_5">
      <!-- 0 -->
      <g style="fill: #8a929b" transform="translate(148.32875 252.635781) scale(0.08 -0.08)">
       <defs>
        <path id="DejaVuSans-13" d="M 2034 4250 
Q 1547 4250 1301 3770 
Q 1056 3291 1056 2328 
Q 1056 1369 1301 889 
Q 1547 409 2034 409 
Q 2525 409 2770 889 
Q 3016 1369 3016 2328 
Q 3016 3291 2770 3770 
Q 2525 4250 2034 4250 
z
M 2034 4750 
Q 2819 4750 3233 4129 
Q 3647 3509 3647 2328 
Q 3647 1150 3233 529 
Q 2819 -91 2034 -91 
Q 1250 -91 836 529 
Q 422 1150 422 2328 
Q 422 3509 836 4129 
Q 1250 4750 2034 4750 
z
" transform="scale(0.015625)"/>
       </defs>
       <use xlink:href="#DejaVuSans-13"/>
      </g>
     </g>
    </g>
    <g id="xtick_6">
     <g id="line2d_6">
      <g>
       <use xlink:href="#ma3e44b4eab" x="177.721208" y="239.557656" style="fill: #8a929b; stroke: #8a929b; stroke-width: 0.8"/>
      </g>
     </g>
     <g id="text_6">
      <!-- 2 -->
      <g style="fill: #8a929b" transform="translate(175.176208 252.635781) scale(0.08 -0.08)">
       <use xlink:href="#DejaVuSans-15"/>
      </g>
     </g>
    </g>
    <g id="xtick_7">
     <g id="line2d_7">
      <g>
       <use xlink:href="#ma3e44b4eab" x="204.568665" y="239.557656" style="fill: #8a929b; stroke: #8a929b; stroke-width: 0.8"/>
      </g>
     </g>
     <g id="text_7">
      <!-- 4 -->
      <g style="fill: #8a929b" transform="translate(202.023665 252.635781) scale(0.08 -0.08)">
       <use xlink:href="#DejaVuSans-17"/>
      </g>
     </g>
    </g>
    <g id="xtick_8">
     <g id="line2d_8">
      <g>
       <use xlink:href="#ma3e44b4eab" x="231.416123" y="239.557656" style="fill: #8a929b; stroke: #8a929b; stroke-width: 0.8"/>
      </g>
     </g>
     <g id="text_8">
      <!-- 6 -->
      <g style="fill: #8a929b" transform="translate(228.871123 252.635781) scale(0.08 -0.08)">
       <use xlink:href="#DejaVuSans-19"/>
      </g>
     </g>
    </g>
    <g id="xtick_9">
     <g id="line2d_9">
      <g>
       <use xlink:href="#ma3e44b4eab" x="258.263581" y="239.557656" style="fill: #8a929b; stroke: #8a929b; stroke-width: 0.8"/>
      </g>
     </g>
     <g id="text_9">
      <!-- 8 -->
      <g style="fill: #8a929b" transform="translate(255.718581 252.635781) scale(0.08 -0.08)">
       <use xlink:href="#DejaVuSans-1b"/>
      </g>
     </g>
    </g>
    <g id="text_10">
     <!-- x  (m) -->
     <g style="fill: #1f2933" transform="translate(135.964375 266.155313) scale(0.1 -0.1)">
      <defs>
       <path id="DejaVuSans-5b" d="M 3513 3500 
L 2247 1797 
L 3578 0 
L 2900 0 
L 1881 1375 
L 863 0 
L 184 0 
L 1544 1831 
L 300 3500 
L 978 3500 
L 1906 2253 
L 2834 3500 
L 3513 3500 
z
" transform="scale(0.015625)"/>
       <path id="DejaVuSans-3" transform="scale(0.015625)"/>
       <path id="DejaVuSans-b" d="M 1984 4856 
Q 1566 4138 1362 3434 
Q 1159 2731 1159 2009 
Q 1159 1288 1364 580 
Q 1569 -128 1984 -844 
L 1484 -844 
Q 1016 -109 783 600 
Q 550 1309 550 2009 
Q 550 2706 781 3412 
Q 1013 4119 1484 4856 
L 1984 4856 
z
" transform="scale(0.015625)"/>
       <path id="DejaVuSans-50" d="M 3328 2828 
Q 3544 3216 3844 3400 
Q 4144 3584 4550 3584 
Q 5097 3584 5394 3201 
Q 5691 2819 5691 2113 
L 5691 0 
L 5113 0 
L 5113 2094 
Q 5113 2597 4934 2840 
Q 4756 3084 4391 3084 
Q 3944 3084 3684 2787 
Q 3425 2491 3425 1978 
L 3425 0 
L 2847 0 
L 2847 2094 
Q 2847 2600 2669 2842 
Q 2491 3084 2119 3084 
Q 1678 3084 1418 2786 
Q 1159 2488 1159 1978 
L 1159 0 
L 581 0 
L 581 3500 
L 1159 3500 
L 1159 2956 
Q 1356 3278 1631 3431 
Q 1906 3584 2284 3584 
Q 2666 3584 2933 3390 
Q 3200 3197 3328 2828 
z
" transform="scale(0.015625)"/>
       <path id="DejaVuSans-c" d="M 513 4856 
L 1013 4856 
Q 1481 4119 1714 3412 
Q 1947 2706 1947 2009 
Q 1947 1309 1714 600 
Q 1481 -109 1013 -844 
L 513 -844 
Q 928 -128 1133 580 
Q 1338 1288 1338 2009 
Q 1338 2731 1133 3434 
Q 928 4138 513 4856 
z
" transform="scale(0.015625)"/>
      </defs>
      <use xlink:href="#DejaVuSans-5b"/>
      <use xlink:href="#DejaVuSans-3" transform="translate(59.1875 0)"/>
      <use xlink:href="#DejaVuSans-3" transform="translate(90.96875 0)"/>
      <use xlink:href="#DejaVuSans-b" transform="translate(122.75 0)"/>
      <use xlink:href="#DejaVuSans-50" transform="translate(161.765625 0)"/>
      <use xlink:href="#DejaVuSans-c" transform="translate(259.171875 0)"/>
     </g>
    </g>
    <g id="text_11">
     <!-- 1e6 -->
     <g style="fill: #8a929b" transform="translate(242.875625 265.155313) scale(0.1 -0.1)">
      <defs>
       <path id="DejaVuSans-14" d="M 794 531 
L 1825 531 
L 1825 4091 
L 703 3866 
L 703 4441 
L 1819 4666 
L 2450 4666 
L 2450 531 
L 3481 531 
L 3481 0 
L 794 0 
L 794 531 
z
" transform="scale(0.015625)"/>
       <path id="DejaVuSans-48" d="M 3597 1894 
L 3597 1613 
L 953 1613 
Q 991 1019 1311 708 
Q 1631 397 2203 397 
Q 2534 397 2845 478 
Q 3156 559 3463 722 
L 3463 178 
Q 3153 47 2828 -22 
Q 2503 -91 2169 -91 
Q 1331 -91 842 396 
Q 353 884 353 1716 
Q 353 2575 817 3079 
Q 1281 3584 2069 3584 
Q 2775 3584 3186 3129 
Q 3597 2675 3597 1894 
z
M 3022 2063 
Q 3016 2534 2758 2815 
Q 2500 3097 2075 3097 
Q 1594 3097 1305 2825 
Q 1016 2553 972 2059 
L 3022 2063 
z
" transform="scale(0.015625)"/>
      </defs>
      <use xlink:href="#DejaVuSans-14"/>
      <use xlink:href="#DejaVuSans-48" transform="translate(63.625 0)"/>
      <use xlink:href="#DejaVuSans-19" transform="translate(125.15625 0)"/>
     </g>
    </g>
   </g>
   <g id="matplotlib.axis_2">
    <g id="ytick_1">
     <g id="line2d_10">
      <defs>
       <path id="m9189fdbcdf" d="M 0 0 
L -3.5 0 
" style="stroke: #8a929b; stroke-width: 0.8"/>
      </defs>
      <g>
       <use xlink:href="#m9189fdbcdf" x="39.99375" y="236.067487" style="fill: #8a929b; stroke: #8a929b; stroke-width: 0.8"/>
      </g>
     </g>
     <g id="text_12">
      <!-- −8 -->
      <g style="fill: #8a929b" transform="translate(21.2 239.106549) scale(0.08 -0.08)">
       <use xlink:href="#DejaVuSans-c9c"/>
       <use xlink:href="#DejaVuSans-1b" transform="translate(83.796875 0)"/>
      </g>
     </g>
    </g>
    <g id="ytick_2">
     <g id="line2d_11">
      <g>
       <use xlink:href="#m9189fdbcdf" x="39.99375" y="209.220029" style="fill: #8a929b; stroke: #8a929b; stroke-width: 0.8"/>
      </g>
     </g>
     <g id="text_13">
      <!-- −6 -->
      <g style="fill: #8a929b" transform="translate(21.2 212.259092) scale(0.08 -0.08)">
       <use xlink:href="#DejaVuSans-c9c"/>
       <use xlink:href="#DejaVuSans-19" transform="translate(83.796875 0)"/>
      </g>
     </g>
    </g>
    <g id="ytick_3">
     <g id="line2d_12">
      <g>
       <use xlink:href="#m9189fdbcdf" x="39.99375" y="182.372572" style="fill: #8a929b; stroke: #8a929b; stroke-width: 0.8"/>
      </g>
     </g>
     <g id="text_14">
      <!-- −4 -->
      <g style="fill: #8a929b" transform="translate(21.2 185.411634) scale(0.08 -0.08)">
       <use xlink:href="#DejaVuSans-c9c"/>
       <use xlink:href="#DejaVuSans-17" transform="translate(83.796875 0)"/>
      </g>
     </g>
    </g>
    <g id="ytick_4">
     <g id="line2d_13">
      <g>
       <use xlink:href="#m9189fdbcdf" x="39.99375" y="155.525114" style="fill: #8a929b; stroke: #8a929b; stroke-width: 0.8"/>
      </g>
     </g>
     <g id="text_15">
      <!-- −2 -->
      <g style="fill: #8a929b" transform="translate(21.2 158.564176) scale(0.08 -0.08)">
       <use xlink:href="#DejaVuSans-c9c"/>
       <use xlink:href="#DejaVuSans-15" transform="translate(83.796875 0)"/>
      </g>
     </g>
    </g>
    <g id="ytick_5">
     <g id="line2d_14">
      <g>
       <use xlink:href="#m9189fdbcdf" x="39.99375" y="128.677656" style="fill: #8a929b; stroke: #8a929b; stroke-width: 0.8"/>
      </g>
     </g>
     <g id="text_16">
      <!-- 0 -->
      <g style="fill: #8a929b" transform="translate(27.90375 131.716719) scale(0.08 -0.08)">
       <use xlink:href="#DejaVuSans-13"/>
      </g>
     </g>
    </g>
    <g id="ytick_6">
     <g id="line2d_15">
      <g>
       <use xlink:href="#m9189fdbcdf" x="39.99375" y="101.830199" style="fill: #8a929b; stroke: #8a929b; stroke-width: 0.8"/>
      </g>
     </g>
     <g id="text_17">
      <!-- 2 -->
      <g style="fill: #8a929b" transform="translate(27.90375 104.869261) scale(0.08 -0.08)">
       <use xlink:href="#DejaVuSans-15"/>
      </g>
     </g>
    </g>
    <g id="ytick_7">
     <g id="line2d_16">
      <g>
       <use xlink:href="#m9189fdbcdf" x="39.99375" y="74.982741" style="fill: #8a929b; stroke: #8a929b; stroke-width: 0.8"/>
      </g>
     </g>
     <g id="text_18">
      <!-- 4 -->
      <g style="fill: #8a929b" transform="translate(27.90375 78.021803) scale(0.08 -0.08)">
       <use xlink:href="#DejaVuSans-17"/>
      </g>
     </g>
    </g>
    <g id="ytick_8">
     <g id="line2d_17">
      <g>
       <use xlink:href="#m9189fdbcdf" x="39.99375" y="48.135283" style="fill: #8a929b; stroke: #8a929b; stroke-width: 0.8"/>
      </g>
     </g>
     <g id="text_19">
      <!-- 6 -->
      <g style="fill: #8a929b" transform="translate(27.90375 51.174346) scale(0.08 -0.08)">
       <use xlink:href="#DejaVuSans-19"/>
      </g>
     </g>
    </g>
    <g id="ytick_9">
     <g id="line2d_18">
      <g>
       <use xlink:href="#m9189fdbcdf" x="39.99375" y="21.287826" style="fill: #8a929b; stroke: #8a929b; stroke-width: 0.8"/>
      </g>
     </g>
     <g id="text_20">
      <!-- 8 -->
      <g style="fill: #8a929b" transform="translate(27.90375 24.326888) scale(0.08 -0.08)">
       <use xlink:href="#DejaVuSans-1b"/>
      </g>
     </g>
    </g>
    <g id="text_21">
     <!-- y  (m) -->
     <g style="fill: #1f2933" transform="translate(14.797656 143.587031) rotate(-90) scale(0.1 -0.1)">
      <defs>
       <path id="DejaVuSans-5c" d="M 2059 -325 
Q 1816 -950 1584 -1140 
Q 1353 -1331 966 -1331 
L 506 -1331 
L 506 -850 
L 844 -850 
Q 1081 -850 1212 -737 
Q 1344 -625 1503 -206 
L 1606 56 
L 191 3500 
L 800 3500 
L 1894 763 
L 2988 3500 
L 3597 3500 
L 2059 -325 
z
" transform="scale(0.015625)"/>
      </defs>
      <use xlink:href="#DejaVuSans-5c"/>
      <use xlink:href="#DejaVuSans-3" transform="translate(59.1875 0)"/>
      <use xlink:href="#DejaVuSans-3" transform="translate(90.96875 0)"/>
      <use xlink:href="#DejaVuSans-b" transform="translate(122.75 0)"/>
      <use xlink:href="#DejaVuSans-50" transform="translate(161.765625 0)"/>
      <use xlink:href="#DejaVuSans-c" transform="translate(259.171875 0)"/>
     </g>
    </g>
    <g id="text_22">
     <!-- 1e6 -->
     <g style="fill: #8a929b" transform="translate(39.99375 14.797656) scale(0.1 -0.1)">
      <use xlink:href="#DejaVuSans-14"/>
      <use xlink:href="#DejaVuSans-48" transform="translate(63.625 0)"/>
      <use xlink:href="#DejaVuSans-19" transform="translate(125.15625 0)"/>
     </g>
    </g>
   </g>
   <g id="line2d_19">
    <path d="M 244.839852 128.677656 
L 244.709995 123.739293 
L 244.320783 118.814579 
L 243.673292 113.917125 
L 242.769311 109.060468 
L 241.61134 104.258031 
L 240.202578 99.523088 
L 238.546919 94.868726 
L 236.648939 90.307808 
L 234.513884 85.852941 
L 232.147656 81.516438 
L 229.556794 77.310285 
L 226.748459 73.246105 
L 223.730413 69.335134 
L 220.510998 65.58818 
L 217.099112 62.0156 
L 213.504185 58.627268 
L 209.736153 55.432549 
L 205.805431 52.440272 
L 201.722882 49.658709 
L 197.499791 47.095547 
L 193.14783 44.757871 
L 188.679027 42.652141 
L 184.105734 40.784178 
L 179.44059 39.159145 
L 174.696491 37.781533 
L 169.886547 36.655149 
L 165.024054 35.783108 
L 160.122451 35.167818 
L 155.195285 34.810982 
L 150.256174 34.713584 
L 145.318771 34.875895 
L 140.396721 35.297465 
L 135.503629 35.97713 
L 130.653018 36.91301 
L 125.858296 38.10252 
L 121.132714 39.542371 
L 116.489334 41.228584 
L 111.940989 43.156499 
L 107.50025 45.320786 
L 103.179392 47.715464 
L 98.990357 50.333915 
L 94.944723 53.1689 
L 91.053672 56.212585 
L 87.327958 59.456557 
L 83.777879 62.891849 
L 80.413247 66.508968 
L 77.243362 70.297915 
L 74.276984 74.248219 
L 71.522312 78.34896 
L 68.986961 82.588806 
L 66.677938 86.956037 
L 64.601624 91.438583 
L 62.763759 96.024054 
L 61.169421 100.699777 
L 59.823019 105.452829 
L 58.728272 110.270071 
L 57.888207 115.138191 
L 57.305146 120.043732 
L 56.9807 124.973137 
L 56.915766 129.912781 
L 57.110523 134.849011 
L 57.564434 139.768183 
L 58.276243 144.656703 
L 59.243983 149.501058 
L 60.46498 154.287859 
L 61.935858 159.003876 
L 63.652552 163.636074 
L 65.610318 168.171649 
L 67.803745 172.598067 
L 70.226769 176.903093 
L 72.872695 181.074829 
L 75.734208 185.101743 
L 78.803401 188.972706 
L 82.071789 192.677019 
L 85.53034 196.204443 
L 89.169493 199.54523 
L 92.979192 202.690145 
L 96.948907 205.630496 
L 101.067664 208.358156 
L 105.324082 210.865587 
L 109.706394 213.145858 
L 114.202489 215.192666 
L 118.799941 217.000354 
L 123.486041 218.563927 
L 128.247839 219.879062 
L 133.072172 220.942124 
L 137.945708 221.750176 
L 142.854975 222.300984 
L 147.786406 222.593025 
L 152.72637 222.625493 
L 157.661213 222.398298 
L 162.577296 221.912067 
L 167.461032 221.168144 
L 172.298922 220.168586 
L 177.077595 218.916156 
L 181.783843 217.414314 
L 186.404658 215.667212 
L 190.927269 213.679679 
L 195.339175 211.457208 
L 199.628184 209.005942 
L 203.782439 206.332656 
L 207.790459 203.444738 
L 211.641167 200.350171 
L 215.323919 197.057507 
L 218.828537 193.575848 
L 222.145333 189.914816 
L 225.265142 186.084529 
L 228.179339 182.095576 
L 230.879871 177.95898 
L 233.359273 173.686175 
L 235.610692 169.288971 
L 237.627907 164.77952 
L 239.40534 160.170288 
L 240.93808 155.474012 
L 242.221891 150.703674 
L 243.253223 145.872458 
L 244.029227 140.993717 
L 244.547758 136.080935 
L 244.807382 131.147691 
L 244.839852 128.677656 
L 244.839852 128.677656 
" clip-path="url(#p71f2b4288c)" style="fill: none; stroke: #2f6f4f; stroke-width: 2.4; stroke-linecap: square"/>
   </g>
   <g id="line2d_20">
    <path d="M 39.99375 128.677656 
L 261.75375 128.677656 
" clip-path="url(#p71f2b4288c)" style="fill: none; stroke-dasharray: 0.8,1.32; stroke-dashoffset: 0; stroke: #d8d4c8; stroke-width: 0.8"/>
   </g>
   <g id="line2d_21">
    <path d="M 150.87375 239.557656 
L 150.87375 17.797656 
" clip-path="url(#p71f2b4288c)" style="fill: none; stroke-dasharray: 0.8,1.32; stroke-dashoffset: 0; stroke: #d8d4c8; stroke-width: 0.8"/>
   </g>
   <g id="patch_3">
    <path d="M 39.99375 239.557656 
L 39.99375 17.797656 
" style="fill: none; stroke: #d8d4c8; stroke-width: 0.8; stroke-linejoin: miter; stroke-linecap: square"/>
   </g>
   <g id="patch_4">
    <path d="M 39.99375 239.557656 
L 261.75375 239.557656 
" style="fill: none; stroke: #d8d4c8; stroke-width: 0.8; stroke-linejoin: miter; stroke-linecap: square"/>
   </g>
   <g id="text_23">
    <g id="patch_5">
     <path d="M 210.816985 143.001656 
L 278.862719 143.001656 
Q 281.186719 143.001656 281.186719 140.677656 
L 281.186719 132.377656 
Q 281.186719 130.053656 278.862719 130.053656 
L 210.816985 130.053656 
Q 208.492985 130.053656 208.492985 132.377656 
L 208.492985 140.677656 
Q 208.492985 143.001656 210.816985 143.001656 
z
" style="fill: #fbfaf7; opacity: 0.92; stroke: #d8d4c8; stroke-width: 0.6; stroke-linejoin: miter"/>
    </g>
    <!-- R = 7.00×10⁶ m -->
    <g style="fill: #1f2933" transform="translate(210.816985 138.683711) scale(0.083 -0.083)">
     <defs>
      <path id="DejaVuSans-35" d="M 2841 2188 
Q 3044 2119 3236 1894 
Q 3428 1669 3622 1275 
L 4263 0 
L 3584 0 
L 2988 1197 
Q 2756 1666 2539 1819 
Q 2322 1972 1947 1972 
L 1259 1972 
L 1259 0 
L 628 0 
L 628 4666 
L 2053 4666 
Q 2853 4666 3247 4331 
Q 3641 3997 3641 3322 
Q 3641 2881 3436 2590 
Q 3231 2300 2841 2188 
z
M 1259 4147 
L 1259 2491 
L 2053 2491 
Q 2509 2491 2742 2702 
Q 2975 2913 2975 3322 
Q 2975 3731 2742 3939 
Q 2509 4147 2053 4147 
L 1259 4147 
z
" transform="scale(0.015625)"/>
      <path id="DejaVuSans-20" d="M 678 2906 
L 4684 2906 
L 4684 2381 
L 678 2381 
L 678 2906 
z
M 678 1631 
L 4684 1631 
L 4684 1100 
L 678 1100 
L 678 1631 
z
" transform="scale(0.015625)"/>
      <path id="DejaVuSans-1a" d="M 525 4666 
L 3525 4666 
L 3525 4397 
L 1831 0 
L 1172 0 
L 2766 4134 
L 525 4134 
L 525 4666 
z
" transform="scale(0.015625)"/>
      <path id="DejaVuSans-11" d="M 684 794 
L 1344 794 
L 1344 0 
L 684 0 
L 684 794 
z
" transform="scale(0.015625)"/>
      <path id="DejaVuSans-99" d="M 4488 3438 
L 3059 2003 
L 4488 575 
L 4116 197 
L 2681 1631 
L 1247 197 
L 878 575 
L 2303 2003 
L 878 3438 
L 1247 3816 
L 2681 2381 
L 4116 3816 
L 4488 3438 
z
" transform="scale(0.015625)"/>
      <path id="DejaVuSans-b51" d="M 1359 3541 
Q 1084 3541 925 3378 
Q 766 3213 766 2928 
Q 766 2647 925 2484 
Q 1084 2319 1359 2319 
Q 1631 2319 1791 2484 
Q 1950 2647 1950 2928 
Q 1950 3213 1791 3378 
Q 1631 3541 1359 3541 
z
M 2166 4647 
L 2166 4325 
Q 2013 4388 1856 4419 
Q 1700 4453 1547 4453 
Q 1147 4453 934 4219 
Q 722 3981 691 3503 
Q 809 3656 988 3738 
Q 1169 3819 1381 3819 
Q 1834 3819 2097 3581 
Q 2359 3341 2359 2928 
Q 2359 2531 2084 2284 
Q 1813 2041 1359 2041 
Q 838 2041 563 2387 
Q 288 2734 288 3397 
Q 288 4016 625 4381 
Q 963 4750 1531 4750 
Q 1684 4750 1841 4725 
Q 1997 4697 2166 4647 
z
" transform="scale(0.015625)"/>
     </defs>
     <use xlink:href="#DejaVuSans-35"/>
     <use xlink:href="#DejaVuSans-3" transform="translate(69.484375 0)"/>
     <use xlink:href="#DejaVuSans-20" transform="translate(101.265625 0)"/>
     <use xlink:href="#DejaVuSans-3" transform="translate(185.0625 0)"/>
     <use xlink:href="#DejaVuSans-1a" transform="translate(216.84375 0)"/>
     <use xlink:href="#DejaVuSans-11" transform="translate(280.46875 0)"/>
     <use xlink:href="#DejaVuSans-13" transform="translate(312.25 0)"/>
     <use xlink:href="#DejaVuSans-13" transform="translate(375.875 0)"/>
     <use xlink:href="#DejaVuSans-99" transform="translate(439.5 0)"/>
     <use xlink:href="#DejaVuSans-14" transform="translate(523.296875 0)"/>
     <use xlink:href="#DejaVuSans-13" transform="translate(586.921875 0)"/>
     <use xlink:href="#DejaVuSans-b51" transform="translate(650.546875 0)"/>
     <use xlink:href="#DejaVuSans-3" transform="translate(690.640625 0)"/>
     <use xlink:href="#DejaVuSans-50" transform="translate(722.421875 0)"/>
    </g>
   </g>
   <g id="text_24">
    <g id="patch_6">
     <path d="M 124.795539 123.302305 
L 176.951961 123.302305 
Q 179.275961 123.302305 179.275961 120.978305 
L 179.275961 112.677656 
Q 179.275961 110.353656 176.951961 110.353656 
L 124.795539 110.353656 
Q 122.471539 110.353656 122.471539 112.677656 
L 122.471539 120.978305 
Q 122.471539 123.302305 124.795539 123.302305 
z
" style="fill: #fbfaf7; opacity: 0.92; stroke: #d8d4c8; stroke-width: 0.6; stroke-linejoin: miter"/>
    </g>
    <!-- central body -->
    <g style="fill: #1f2933" transform="translate(124.795539 118.984359) scale(0.083 -0.083)">
     <defs>
      <path id="DejaVuSans-46" d="M 3122 3366 
L 3122 2828 
Q 2878 2963 2633 3030 
Q 2388 3097 2138 3097 
Q 1578 3097 1268 2742 
Q 959 2388 959 1747 
Q 959 1106 1268 751 
Q 1578 397 2138 397 
Q 2388 397 2633 464 
Q 2878 531 3122 666 
L 3122 134 
Q 2881 22 2623 -34 
Q 2366 -91 2075 -91 
Q 1284 -91 818 406 
Q 353 903 353 1747 
Q 353 2603 823 3093 
Q 1294 3584 2113 3584 
Q 2378 3584 2631 3529 
Q 2884 3475 3122 3366 
z
" transform="scale(0.015625)"/>
      <path id="DejaVuSans-51" d="M 3513 2113 
L 3513 0 
L 2938 0 
L 2938 2094 
Q 2938 2591 2744 2837 
Q 2550 3084 2163 3084 
Q 1697 3084 1428 2787 
Q 1159 2491 1159 1978 
L 1159 0 
L 581 0 
L 581 3500 
L 1159 3500 
L 1159 2956 
Q 1366 3272 1645 3428 
Q 1925 3584 2291 3584 
Q 2894 3584 3203 3211 
Q 3513 2838 3513 2113 
z
" transform="scale(0.015625)"/>
      <path id="DejaVuSans-57" d="M 1172 4494 
L 1172 3500 
L 2356 3500 
L 2356 3053 
L 1172 3053 
L 1172 1153 
Q 1172 725 1289 603 
Q 1406 481 1766 481 
L 2356 481 
L 2356 0 
L 1766 0 
Q 1100 0 847 248 
Q 594 497 594 1153 
L 594 3053 
L 172 3053 
L 172 3500 
L 594 3500 
L 594 4494 
L 1172 4494 
z
" transform="scale(0.015625)"/>
      <path id="DejaVuSans-55" d="M 2631 2963 
Q 2534 3019 2420 3045 
Q 2306 3072 2169 3072 
Q 1681 3072 1420 2755 
Q 1159 2438 1159 1844 
L 1159 0 
L 581 0 
L 581 3500 
L 1159 3500 
L 1159 2956 
Q 1341 3275 1631 3429 
Q 1922 3584 2338 3584 
Q 2397 3584 2469 3576 
Q 2541 3569 2628 3553 
L 2631 2963 
z
" transform="scale(0.015625)"/>
      <path id="DejaVuSans-44" d="M 2194 1759 
Q 1497 1759 1228 1600 
Q 959 1441 959 1056 
Q 959 750 1161 570 
Q 1363 391 1709 391 
Q 2188 391 2477 730 
Q 2766 1069 2766 1631 
L 2766 1759 
L 2194 1759 
z
M 3341 1997 
L 3341 0 
L 2766 0 
L 2766 531 
Q 2569 213 2275 61 
Q 1981 -91 1556 -91 
Q 1019 -91 701 211 
Q 384 513 384 1019 
Q 384 1609 779 1909 
Q 1175 2209 1959 2209 
L 2766 2209 
L 2766 2266 
Q 2766 2663 2505 2880 
Q 2244 3097 1772 3097 
Q 1472 3097 1187 3025 
Q 903 2953 641 2809 
L 641 3341 
Q 956 3463 1253 3523 
Q 1550 3584 1831 3584 
Q 2591 3584 2966 3190 
Q 3341 2797 3341 1997 
z
" transform="scale(0.015625)"/>
      <path id="DejaVuSans-4f" d="M 603 4863 
L 1178 4863 
L 1178 0 
L 603 0 
L 603 4863 
z
" transform="scale(0.015625)"/>
      <path id="DejaVuSans-45" d="M 3116 1747 
Q 3116 2381 2855 2742 
Q 2594 3103 2138 3103 
Q 1681 3103 1420 2742 
Q 1159 2381 1159 1747 
Q 1159 1113 1420 752 
Q 1681 391 2138 391 
Q 2594 391 2855 752 
Q 3116 1113 3116 1747 
z
M 1159 2969 
Q 1341 3281 1617 3432 
Q 1894 3584 2278 3584 
Q 2916 3584 3314 3078 
Q 3713 2572 3713 1747 
Q 3713 922 3314 415 
Q 2916 -91 2278 -91 
Q 1894 -91 1617 61 
Q 1341 213 1159 525 
L 1159 0 
L 581 0 
L 581 4863 
L 1159 4863 
L 1159 2969 
z
" transform="scale(0.015625)"/>
      <path id="DejaVuSans-52" d="M 1959 3097 
Q 1497 3097 1228 2736 
Q 959 2375 959 1747 
Q 959 1119 1226 758 
Q 1494 397 1959 397 
Q 2419 397 2687 759 
Q 2956 1122 2956 1747 
Q 2956 2369 2687 2733 
Q 2419 3097 1959 3097 
z
M 1959 3584 
Q 2709 3584 3137 3096 
Q 3566 2609 3566 1747 
Q 3566 888 3137 398 
Q 2709 -91 1959 -91 
Q 1206 -91 779 398 
Q 353 888 353 1747 
Q 353 2609 779 3096 
Q 1206 3584 1959 3584 
z
" transform="scale(0.015625)"/>
      <path id="DejaVuSans-47" d="M 2906 2969 
L 2906 4863 
L 3481 4863 
L 3481 0 
L 2906 0 
L 2906 525 
Q 2725 213 2448 61 
Q 2172 -91 1784 -91 
Q 1150 -91 751 415 
Q 353 922 353 1747 
Q 353 2572 751 3078 
Q 1150 3584 1784 3584 
Q 2172 3584 2448 3432 
Q 2725 3281 2906 2969 
z
M 947 1747 
Q 947 1113 1208 752 
Q 1469 391 1925 391 
Q 2381 391 2643 752 
Q 2906 1113 2906 1747 
Q 2906 2381 2643 2742 
Q 2381 3103 1925 3103 
Q 1469 3103 1208 2742 
Q 947 2381 947 1747 
z
" transform="scale(0.015625)"/>
     </defs>
     <use xlink:href="#DejaVuSans-46"/>
     <use xlink:href="#DejaVuSans-48" transform="translate(54.984375 0)"/>
     <use xlink:href="#DejaVuSans-51" transform="translate(116.515625 0)"/>
     <use xlink:href="#DejaVuSans-57" transform="translate(179.890625 0)"/>
     <use xlink:href="#DejaVuSans-55" transform="translate(219.09375 0)"/>
     <use xlink:href="#DejaVuSans-44" transform="translate(260.203125 0)"/>
     <use xlink:href="#DejaVuSans-4f" transform="translate(321.484375 0)"/>
     <use xlink:href="#DejaVuSans-3" transform="translate(349.265625 0)"/>
     <use xlink:href="#DejaVuSans-45" transform="translate(381.046875 0)"/>
     <use xlink:href="#DejaVuSans-52" transform="translate(444.53125 0)"/>
     <use xlink:href="#DejaVuSans-47" transform="translate(505.71875 0)"/>
     <use xlink:href="#DejaVuSans-5c" transform="translate(569.203125 0)"/>
    </g>
   </g>
   <g id="PathCollection_1">
    <defs>
     <path id="mb39c833421" d="M 0 3.872983 
C 1.027127 3.872983 2.012324 3.464901 2.738613 2.738613 
C 3.464901 2.012324 3.872983 1.027127 3.872983 0 
C 3.872983 -1.027127 3.464901 -2.012324 2.738613 -2.738613 
C 2.012324 -3.464901 1.027127 -3.872983 0 -3.872983 
C -1.027127 -3.872983 -2.012324 -3.464901 -2.738613 -2.738613 
C -3.464901 -2.012324 -3.872983 -1.027127 -3.872983 0 
C -3.872983 1.027127 -3.464901 2.012324 -2.738613 2.738613 
C -2.012324 3.464901 -1.027127 3.872983 0 3.872983 
z
" style="stroke: #1f2933"/>
    </defs>
    <g clip-path="url(#p71f2b4288c)">
     <use xlink:href="#mb39c833421" x="150.87375" y="128.677656" style="fill: #1f2933; stroke: #1f2933"/>
    </g>
   </g>
   <g id="PathCollection_2">
    <defs>
     <path id="m40d4025a78" d="M 0 3 
C 0.795609 3 1.55874 2.683901 2.12132 2.12132 
C 2.683901 1.55874 3 0.795609 3 0 
C 3 -0.795609 2.683901 -1.55874 2.12132 -2.12132 
C 1.55874 -2.683901 0.795609 -3 0 -3 
C -0.795609 -3 -1.55874 -2.683901 -2.12132 -2.12132 
C -2.683901 -1.55874 -3 -0.795609 -3 0 
C -3 0.795609 -2.683901 1.55874 -2.12132 2.12132 
C -1.55874 2.683901 -0.795609 3 0 3 
z
" style="stroke: #2f6f4f"/>
    </defs>
    <g clip-path="url(#p71f2b4288c)">
     <use xlink:href="#m40d4025a78" x="244.839852" y="128.677656" style="fill: #2f6f4f; stroke: #2f6f4f"/>
    </g>
   </g>
   <g id="PathCollection_3">
    <g clip-path="url(#p71f2b4288c)">
     <use xlink:href="#m40d4025a78" x="150.87375" y="128.677656" style="fill: #2f6f4f; stroke: #2f6f4f"/>
    </g>
   </g>
  </g>
 </g>
 <defs>
  <clipPath id="p71f2b4288c">
   <rect x="39.99375" y="17.797656" width="221.76" height="221.76"/>
  </clipPath>
 </defs>
</svg>
