<?xml version="1.0" encoding="utf-8" standalone="no"?>
<!DOCTYPE svg PUBLIC "-//W3C//DTD SVG 1.1//EN"
  "http://www.w3.org/Graphics/SVG/1.1/DTD/svg11.dtd">
<svg xmlns:xlink="http://www.w3.org/1999/xlink" width="419.23875pt" height="353.864pt" viewBox="0 0 419.23875 353.864" xmlns="http://www.w3.org/2000/svg" version="1.1">
 <metadata>
  <rdf:RDF xmlns:dc="http://purl.org/dc/elements/1.1/" xmlns:cc="http://creativecommons.org/ns#" xmlns:rdf="http://www.w3.org/1999/02/22-rdf-syntax-ns#">
   <cc:Work>
    <dc:type rdf:resource="http://purl.org/dc/dcmitype/StillImage"/>
    <dc:date>2026-06-26T19:42:15.762604</dc:date>
    <dc:format>image/svg+xml</dc:format>
    <dc:creator>
     <cc:Agent>
      <dc:title>Matplotlib v3.11.0, https://matplotlib.org/</dc:title>
     </cc:Agent>
    </dc:creator>
   </cc:Work>
  </rdf:RDF>
 </metadata>
 <defs>
  <style type="text/css">*{stroke-linejoin: round; stroke-linecap: butt}</style>
 </defs>
 <g id="figure_1">
  <g id="patch_1">
   <path d="M 0 353.864 
L 419.23875 353.864 
L 419.23875 0 
L 0 0 
z
" style="fill: #fbfaf7"/>
  </g>
  <g id="axes_1">
   <g id="patch_2">
    <path d="M 46.0125 152.276636 
L 403.1325 152.276636 
L 403.1325 7.2 
L 46.0125 7.2 
z
" style="fill: #fbfaf7"/>
   </g>
   <g id="FillBetweenPolyCollection_1">
    <defs>
     <path id="mfa2fee61b0" d="M 46.0125 -212.747106 
L 46.0125 -324.344518 
L 47.506726 -319.817715 
L 49.000952 -315.560863 
L 50.495178 -311.552918 
L 51.989404 -307.774845 
L 53.48363 -304.209396 
L 54.977856 -300.84091 
L 56.472082 -297.655142 
L 57.966308 -294.639113 
L 59.460533 -291.780975 
L 60.954759 -289.069896 
L 62.448985 -286.495958 
L 63.943211 -284.050064 
L 65.437437 -281.72386 
L 66.931663 -279.509663 
L 68.425889 -277.400396 
L 69.920115 -275.38953 
L 71.414341 -273.47104 
L 72.908567 -271.639353 
L 74.402793 -269.88931 
L 75.897019 -268.21613 
L 77.391245 -266.615377 
L 78.885471 -265.08293 
L 80.379697 -263.614958 
L 81.873923 -262.207893 
L 83.368149 -260.858413 
L 84.862374 -259.563417 
L 86.3566 -258.320011 
L 87.850826 -257.125492 
L 89.345052 -255.977329 
L 90.839278 -254.873154 
L 92.333504 -253.810749 
L 93.82773 -252.788034 
L 95.321956 -251.803055 
L 96.816182 -250.853978 
L 98.310408 -249.939081 
L 99.804634 -249.05674 
L 101.29886 -248.20543 
L 102.793086 -247.383713 
L 104.287312 -246.590231 
L 105.781538 -245.823707 
L 107.275764 -245.082934 
L 108.76999 -244.366769 
L 110.264215 -243.674136 
L 111.758441 -243.004014 
L 113.252667 -242.355439 
L 114.746893 -241.727497 
L 116.241119 -241.119321 
L 117.735345 -240.53009 
L 119.229571 -239.959027 
L 120.723797 -239.405391 
L 122.218023 -238.86848 
L 123.712249 -238.347628 
L 125.206475 -237.842201 
L 126.700701 -237.351595 
L 128.194927 -236.875237 
L 129.689153 -236.41258 
L 131.183379 -235.963103 
L 132.677605 -235.526312 
L 134.171831 -235.101732 
L 135.666056 -234.688913 
L 137.160282 -234.287424 
L 138.654508 -233.896856 
L 140.148734 -233.516814 
L 141.64296 -233.146924 
L 143.137186 -232.786829 
L 144.631412 -232.436184 
L 146.125638 -232.094663 
L 147.619864 -231.761951 
L 149.11409 -231.437748 
L 150.608316 -231.121767 
L 152.102542 -230.813731 
L 153.596768 -230.513377 
L 155.090994 -230.220451 
L 156.58522 -229.93471 
L 158.079446 -229.655921 
L 159.573672 -229.383861 
L 161.067897 -229.118314 
L 162.562123 -228.859075 
L 164.056349 -228.605945 
L 165.550575 -228.358734 
L 167.044801 -228.117259 
L 168.539027 -227.881343 
L 170.033253 -227.650817 
L 171.527479 -227.425518 
L 173.021705 -227.20529 
L 174.515931 -226.989982 
L 176.010157 -226.779447 
L 177.504383 -226.573546 
L 178.998609 -226.372144 
L 180.492835 -226.17511 
L 181.987061 -225.98232 
L 183.481287 -225.793652 
L 184.975513 -225.60899 
L 186.469738 -225.428221 
L 187.963964 -225.251236 
L 189.45819 -225.077931 
L 190.952416 -224.908204 
L 192.446642 -224.741957 
L 193.940868 -224.579096 
L 195.435094 -224.419529 
L 196.92932 -224.263169 
L 198.423546 -224.10993 
L 199.917772 -223.959729 
L 201.411998 -223.812487 
L 202.906224 -223.668126 
L 204.40045 -223.526572 
L 205.894676 -223.387752 
L 207.388902 -223.251597 
L 208.883128 -223.118038 
L 210.377354 -222.98701 
L 211.871579 -222.85845 
L 213.365805 -222.732296 
L 214.860031 -222.608489 
L 216.354257 -222.486969 
L 217.848483 -222.367683 
L 219.342709 -222.250574 
L 220.836935 -222.13559 
L 222.331161 -222.022681 
L 223.825387 -221.911797 
L 225.319613 -221.802889 
L 226.813839 -221.69591 
L 228.308065 -221.590817 
L 229.802291 -221.487564 
L 231.296517 -221.386108 
L 232.790743 -221.286409 
L 234.284969 -221.188426 
L 235.779195 -221.092119 
L 237.273421 -220.997452 
L 238.767646 -220.904386 
L 240.261872 -220.812886 
L 241.756098 -220.722917 
L 243.250324 -220.634445 
L 244.74455 -220.547437 
L 246.238776 -220.461861 
L 247.733002 -220.377685 
L 249.227228 -220.29488 
L 250.721454 -220.213415 
L 252.21568 -220.133262 
L 253.709906 -220.054393 
L 255.204132 -219.97678 
L 256.698358 -219.900397 
L 258.192584 -219.825219 
L 259.68681 -219.751219 
L 261.181036 -219.678374 
L 262.675262 -219.606659 
L 264.169487 -219.536052 
L 265.663713 -219.466529 
L 267.157939 -219.398069 
L 268.652165 -219.330649 
L 270.146391 -219.26425 
L 271.640617 -219.19885 
L 273.134843 -219.13443 
L 274.629069 -219.070969 
L 276.123295 -219.00845 
L 277.617521 -218.946853 
L 279.111747 -218.886161 
L 280.605973 -218.826356 
L 282.100199 -218.76742 
L 283.594425 -218.709337 
L 285.088651 -218.652091 
L 286.582877 -218.595665 
L 288.077103 -218.540045 
L 289.571328 -218.485213 
L 291.065554 -218.431157 
L 292.55978 -218.377861 
L 294.054006 -218.325311 
L 295.548232 -218.273494 
L 297.042458 -218.222395 
L 298.536684 -218.172001 
L 300.03091 -218.1223 
L 301.525136 -218.073279 
L 303.019362 -218.024925 
L 304.513588 -217.977227 
L 306.007814 -217.930173 
L 307.50204 -217.883751 
L 308.996266 -217.837949 
L 310.490492 -217.792758 
L 311.984718 -217.748165 
L 313.478944 -217.704162 
L 314.973169 -217.660736 
L 316.467395 -217.617879 
L 317.961621 -217.575579 
L 319.455847 -217.533829 
L 320.950073 -217.492617 
L 322.444299 -217.451936 
L 323.938525 -217.411775 
L 325.432751 -217.372127 
L 326.926977 -217.332982 
L 328.421203 -217.294331 
L 329.915429 -217.256168 
L 331.409655 -217.218483 
L 332.903881 -217.181268 
L 334.398107 -217.144516 
L 335.892333 -217.108219 
L 337.386559 -217.072369 
L 338.880785 -217.03696 
L 340.37501 -217.001983 
L 341.869236 -216.967433 
L 343.363462 -216.933302 
L 344.857688 -216.899583 
L 346.351914 -216.86627 
L 347.84614 -216.833357 
L 349.340366 -216.800836 
L 350.834592 -216.768702 
L 352.328818 -216.736948 
L 353.823044 -216.70557 
L 355.31727 -216.674559 
L 356.811496 -216.643912 
L 358.305722 -216.613622 
L 359.799948 -216.583684 
L 361.294174 -216.554092 
L 362.7884 -216.524842 
L 364.282626 -216.495927 
L 365.776851 -216.467343 
L 367.271077 -216.439084 
L 368.765303 -216.411147 
L 370.259529 -216.383525 
L 371.753755 -216.356214 
L 373.247981 -216.32921 
L 374.742207 -216.302508 
L 376.236433 -216.276103 
L 377.730659 -216.249992 
L 379.224885 -216.224169 
L 380.719111 -216.198631 
L 382.213337 -216.173373 
L 383.707563 -216.148391 
L 385.201789 -216.123681 
L 386.696015 -216.09924 
L 388.190241 -216.075063 
L 389.684467 -216.051147 
L 391.178692 -216.027487 
L 392.672918 -216.004081 
L 394.167144 -215.980925 
L 395.66137 -215.958014 
L 397.155596 -215.935346 
L 398.649822 -215.912918 
L 400.144048 -215.890725 
L 401.638274 -215.868765 
L 403.1325 -215.847034 
L 403.1325 -212.747106 
L 403.1325 -212.747106 
L 401.638274 -212.747106 
L 400.144048 -212.747106 
L 398.649822 -212.747106 
L 397.155596 -212.747106 
L 395.66137 -212.747106 
L 394.167144 -212.747106 
L 392.672918 -212.747106 
L 391.178692 -212.747106 
L 389.684467 -212.747106 
L 388.190241 -212.747106 
L 386.696015 -212.747106 
L 385.201789 -212.747106 
L 383.707563 -212.747106 
L 382.213337 -212.747106 
L 380.719111 -212.747106 
L 379.224885 -212.747106 
L 377.730659 -212.747106 
L 376.236433 -212.747106 
L 374.742207 -212.747106 
L 373.247981 -212.747106 
L 371.753755 -212.747106 
L 370.259529 -212.747106 
L 368.765303 -212.747106 
L 367.271077 -212.747106 
L 365.776851 -212.747106 
L 364.282626 -212.747106 
L 362.7884 -212.747106 
L 361.294174 -212.747106 
L 359.799948 -212.747106 
L 358.305722 -212.747106 
L 356.811496 -212.747106 
L 355.31727 -212.747106 
L 353.823044 -212.747106 
L 352.328818 -212.747106 
L 350.834592 -212.747106 
L 349.340366 -212.747106 
L 347.84614 -212.747106 
L 346.351914 -212.747106 
L 344.857688 -212.747106 
L 343.363462 -212.747106 
L 341.869236 -212.747106 
L 340.37501 -212.747106 
L 338.880785 -212.747106 
L 337.386559 -212.747106 
L 335.892333 -212.747106 
L 334.398107 -212.747106 
L 332.903881 -212.747106 
L 331.409655 -212.747106 
L 329.915429 -212.747106 
L 328.421203 -212.747106 
L 326.926977 -212.747106 
L 325.432751 -212.747106 
L 323.938525 -212.747106 
L 322.444299 -212.747106 
L 320.950073 -212.747106 
L 319.455847 -212.747106 
L 317.961621 -212.747106 
L 316.467395 -212.747106 
L 314.973169 -212.747106 
L 313.478944 -212.747106 
L 311.984718 -212.747106 
L 310.490492 -212.747106 
L 308.996266 -212.747106 
L 307.50204 -212.747106 
L 306.007814 -212.747106 
L 304.513588 -212.747106 
L 303.019362 -212.747106 
L 301.525136 -212.747106 
L 300.03091 -212.747106 
L 298.536684 -212.747106 
L 297.042458 -212.747106 
L 295.548232 -212.747106 
L 294.054006 -212.747106 
L 292.55978 -212.747106 
L 291.065554 -212.747106 
L 289.571328 -212.747106 
L 288.077103 -212.747106 
L 286.582877 -212.747106 
L 285.088651 -212.747106 
L 283.594425 -212.747106 
L 282.100199 -212.747106 
L 280.605973 -212.747106 
L 279.111747 -212.747106 
L 277.617521 -212.747106 
L 276.123295 -212.747106 
L 274.629069 -212.747106 
L 273.134843 -212.747106 
L 271.640617 -212.747106 
L 270.146391 -212.747106 
L 268.652165 -212.747106 
L 267.157939 -212.747106 
L 265.663713 -212.747106 
L 264.169487 -212.747106 
L 262.675262 -212.747106 
L 261.181036 -212.747106 
L 259.68681 -212.747106 
L 258.192584 -212.747106 
L 256.698358 -212.747106 
L 255.204132 -212.747106 
L 253.709906 -212.747106 
L 252.21568 -212.747106 
L 250.721454 -212.747106 
L 249.227228 -212.747106 
L 247.733002 -212.747106 
L 246.238776 -212.747106 
L 244.74455 -212.747106 
L 243.250324 -212.747106 
L 241.756098 -212.747106 
L 240.261872 -212.747106 
L 238.767646 -212.747106 
L 237.273421 -212.747106 
L 235.779195 -212.747106 
L 234.284969 -212.747106 
L 232.790743 -212.747106 
L 231.296517 -212.747106 
L 229.802291 -212.747106 
L 228.308065 -212.747106 
L 226.813839 -212.747106 
L 225.319613 -212.747106 
L 223.825387 -212.747106 
L 222.331161 -212.747106 
L 220.836935 -212.747106 
L 219.342709 -212.747106 
L 217.848483 -212.747106 
L 216.354257 -212.747106 
L 214.860031 -212.747106 
L 213.365805 -212.747106 
L 211.871579 -212.747106 
L 210.377354 -212.747106 
L 208.883128 -212.747106 
L 207.388902 -212.747106 
L 205.894676 -212.747106 
L 204.40045 -212.747106 
L 202.906224 -212.747106 
L 201.411998 -212.747106 
L 199.917772 -212.747106 
L 198.423546 -212.747106 
L 196.92932 -212.747106 
L 195.435094 -212.747106 
L 193.940868 -212.747106 
L 192.446642 -212.747106 
L 190.952416 -212.747106 
L 189.45819 -212.747106 
L 187.963964 -212.747106 
L 186.469738 -212.747106 
L 184.975513 -212.747106 
L 183.481287 -212.747106 
L 181.987061 -212.747106 
L 180.492835 -212.747106 
L 178.998609 -212.747106 
L 177.504383 -212.747106 
L 176.010157 -212.747106 
L 174.515931 -212.747106 
L 173.021705 -212.747106 
L 171.527479 -212.747106 
L 170.033253 -212.747106 
L 168.539027 -212.747106 
L 167.044801 -212.747106 
L 165.550575 -212.747106 
L 164.056349 -212.747106 
L 162.562123 -212.747106 
L 161.067897 -212.747106 
L 159.573672 -212.747106 
L 158.079446 -212.747106 
L 156.58522 -212.747106 
L 155.090994 -212.747106 
L 153.596768 -212.747106 
L 152.102542 -212.747106 
L 150.608316 -212.747106 
L 149.11409 -212.747106 
L 147.619864 -212.747106 
L 146.125638 -212.747106 
L 144.631412 -212.747106 
L 143.137186 -212.747106 
L 141.64296 -212.747106 
L 140.148734 -212.747106 
L 138.654508 -212.747106 
L 137.160282 -212.747106 
L 135.666056 -212.747106 
L 134.171831 -212.747106 
L 132.677605 -212.747106 
L 131.183379 -212.747106 
L 129.689153 -212.747106 
L 128.194927 -212.747106 
L 126.700701 -212.747106 
L 125.206475 -212.747106 
L 123.712249 -212.747106 
L 122.218023 -212.747106 
L 120.723797 -212.747106 
L 119.229571 -212.747106 
L 117.735345 -212.747106 
L 116.241119 -212.747106 
L 114.746893 -212.747106 
L 113.252667 -212.747106 
L 111.758441 -212.747106 
L 110.264215 -212.747106 
L 108.76999 -212.747106 
L 107.275764 -212.747106 
L 105.781538 -212.747106 
L 104.287312 -212.747106 
L 102.793086 -212.747106 
L 101.29886 -212.747106 
L 99.804634 -212.747106 
L 98.310408 -212.747106 
L 96.816182 -212.747106 
L 95.321956 -212.747106 
L 93.82773 -212.747106 
L 92.333504 -212.747106 
L 90.839278 -212.747106 
L 89.345052 -212.747106 
L 87.850826 -212.747106 
L 86.3566 -212.747106 
L 84.862374 -212.747106 
L 83.368149 -212.747106 
L 81.873923 -212.747106 
L 80.379697 -212.747106 
L 78.885471 -212.747106 
L 77.391245 -212.747106 
L 75.897019 -212.747106 
L 74.402793 -212.747106 
L 72.908567 -212.747106 
L 71.414341 -212.747106 
L 69.920115 -212.747106 
L 68.425889 -212.747106 
L 66.931663 -212.747106 
L 65.437437 -212.747106 
L 63.943211 -212.747106 
L 62.448985 -212.747106 
L 60.954759 -212.747106 
L 59.460533 -212.747106 
L 57.966308 -212.747106 
L 56.472082 -212.747106 
L 54.977856 -212.747106 
L 53.48363 -212.747106 
L 51.989404 -212.747106 
L 50.495178 -212.747106 
L 49.000952 -212.747106 
L 47.506726 -212.747106 
L 46.0125 -212.747106 
z
"/>
    </defs>
    <g clip-path="url(#p871f1a3e0e)">
     <use xlink:href="#mfa2fee61b0" x="0" y="353.864" style="fill: #2f6f4f; fill-opacity: 0.16"/>
    </g>
   </g>
   <g id="matplotlib.axis_1">
    <g id="xtick_1">
     <g id="line2d_1">
      <defs>
       <path id="mabe5913cd3" d="M 0 0 
L 0 3.5 
" style="stroke: #8a929b; stroke-width: 0.8"/>
      </defs>
      <g>
       <use xlink:href="#mabe5913cd3" x="46.0125" y="152.276636" style="fill: #8a929b; stroke: #8a929b; stroke-width: 0.8"/>
      </g>
     </g>
    </g>
    <g id="xtick_2">
     <g id="line2d_2">
      <g>
       <use xlink:href="#mabe5913cd3" x="117.4365" y="152.276636" style="fill: #8a929b; stroke: #8a929b; stroke-width: 0.8"/>
      </g>
     </g>
    </g>
    <g id="xtick_3">
     <g id="line2d_3">
      <g>
       <use xlink:href="#mabe5913cd3" x="188.8605" y="152.276636" style="fill: #8a929b; stroke: #8a929b; stroke-width: 0.8"/>
      </g>
     </g>
    </g>
    <g id="xtick_4">
     <g id="line2d_4">
      <g>
       <use xlink:href="#mabe5913cd3" x="260.2845" y="152.276636" style="fill: #8a929b; stroke: #8a929b; stroke-width: 0.8"/>
      </g>
     </g>
    </g>
    <g id="xtick_5">
     <g id="line2d_5">
      <g>
       <use xlink:href="#mabe5913cd3" x="331.7085" y="152.276636" style="fill: #8a929b; stroke: #8a929b; stroke-width: 0.8"/>
      </g>
     </g>
    </g>
    <g id="xtick_6">
     <g id="line2d_6">
      <g>
       <use xlink:href="#mabe5913cd3" x="403.1325" y="152.276636" style="fill: #8a929b; stroke: #8a929b; stroke-width: 0.8"/>
      </g>
     </g>
    </g>
   </g>
   <g id="matplotlib.axis_2">
    <g id="ytick_1">
     <g id="line2d_7">
      <defs>
       <path id="m0424793dff" d="M 0 0 
L -3.5 0 
" style="stroke: #8a929b; stroke-width: 0.8"/>
      </defs>
      <g>
       <use xlink:href="#m0424793dff" x="46.0125" y="141.116894" style="fill: #8a929b; stroke: #8a929b; stroke-width: 0.8"/>
      </g>
     </g>
     <g id="text_1">
      <!-- 0 -->
      <g style="fill: #8a929b" transform="translate(33.9225 144.155957) scale(0.08 -0.08)">
       <defs>
        <path id="DejaVuSans-13" d="M 2034 4250 
Q 1547 4250 1301 3770 
Q 1056 3291 1056 2328 
Q 1056 1369 1301 889 
Q 1547 409 2034 409 
Q 2525 409 2770 889 
Q 3016 1369 3016 2328 
Q 3016 3291 2770 3770 
Q 2525 4250 2034 4250 
z
M 2034 4750 
Q 2819 4750 3233 4129 
Q 3647 3509 3647 2328 
Q 3647 1150 3233 529 
Q 2819 -91 2034 -91 
Q 1250 -91 836 529 
Q 422 1150 422 2328 
Q 422 3509 836 4129 
Q 1250 4750 2034 4750 
z
" transform="scale(0.015625)"/>
       </defs>
       <use xlink:href="#DejaVuSans-13"/>
      </g>
     </g>
    </g>
    <g id="ytick_2">
     <g id="line2d_8">
      <g>
       <use xlink:href="#m0424793dff" x="46.0125" y="116.289884" style="fill: #8a929b; stroke: #8a929b; stroke-width: 0.8"/>
      </g>
     </g>
     <g id="text_2">
      <!-- 20 -->
      <g style="fill: #8a929b" transform="translate(28.8325 119.328946) scale(0.08 -0.08)">
       <defs>
        <path id="DejaVuSans-15" d="M 1228 531 
L 3431 531 
L 3431 0 
L 469 0 
L 469 531 
Q 828 903 1448 1529 
Q 2069 2156 2228 2338 
Q 2531 2678 2651 2914 
Q 2772 3150 2772 3378 
Q 2772 3750 2511 3984 
Q 2250 4219 1831 4219 
Q 1534 4219 1204 4116 
Q 875 4013 500 3803 
L 500 4441 
Q 881 4594 1212 4672 
Q 1544 4750 1819 4750 
Q 2544 4750 2975 4387 
Q 3406 4025 3406 3419 
Q 3406 3131 3298 2873 
Q 3191 2616 2906 2266 
Q 2828 2175 2409 1742 
Q 1991 1309 1228 531 
z
" transform="scale(0.015625)"/>
       </defs>
       <use xlink:href="#DejaVuSans-15"/>
       <use xlink:href="#DejaVuSans-13" transform="translate(63.625 0)"/>
      </g>
     </g>
    </g>
    <g id="ytick_3">
     <g id="line2d_9">
      <g>
       <use xlink:href="#m0424793dff" x="46.0125" y="91.462873" style="fill: #8a929b; stroke: #8a929b; stroke-width: 0.8"/>
      </g>
     </g>
     <g id="text_3">
      <!-- 40 -->
      <g style="fill: #8a929b" transform="translate(28.8325 94.501936) scale(0.08 -0.08)">
       <defs>
        <path id="DejaVuSans-17" d="M 2419 4116 
L 825 1625 
L 2419 1625 
L 2419 4116 
z
M 2253 4666 
L 3047 4666 
L 3047 1625 
L 3713 1625 
L 3713 1100 
L 3047 1100 
L 3047 0 
L 2419 0 
L 2419 1100 
L 313 1100 
L 313 1709 
L 2253 4666 
z
" transform="scale(0.015625)"/>
       </defs>
       <use xlink:href="#DejaVuSans-17"/>
       <use xlink:href="#DejaVuSans-13" transform="translate(63.625 0)"/>
      </g>
     </g>
    </g>
    <g id="ytick_4">
     <g id="line2d_10">
      <g>
       <use xlink:href="#m0424793dff" x="46.0125" y="66.635863" style="fill: #8a929b; stroke: #8a929b; stroke-width: 0.8"/>
      </g>
     </g>
     <g id="text_4">
      <!-- 60 -->
      <g style="fill: #8a929b" transform="translate(28.8325 69.674925) scale(0.08 -0.08)">
       <defs>
        <path id="DejaVuSans-19" d="M 2113 2584 
Q 1688 2584 1439 2293 
Q 1191 2003 1191 1497 
Q 1191 994 1439 701 
Q 1688 409 2113 409 
Q 2538 409 2786 701 
Q 3034 994 3034 1497 
Q 3034 2003 2786 2293 
Q 2538 2584 2113 2584 
z
M 3366 4563 
L 3366 3988 
Q 3128 4100 2886 4159 
Q 2644 4219 2406 4219 
Q 1781 4219 1451 3797 
Q 1122 3375 1075 2522 
Q 1259 2794 1537 2939 
Q 1816 3084 2150 3084 
Q 2853 3084 3261 2657 
Q 3669 2231 3669 1497 
Q 3669 778 3244 343 
Q 2819 -91 2113 -91 
Q 1303 -91 875 529 
Q 447 1150 447 2328 
Q 447 3434 972 4092 
Q 1497 4750 2381 4750 
Q 2619 4750 2861 4703 
Q 3103 4656 3366 4563 
z
" transform="scale(0.015625)"/>
       </defs>
       <use xlink:href="#DejaVuSans-19"/>
       <use xlink:href="#DejaVuSans-13" transform="translate(63.625 0)"/>
      </g>
     </g>
    </g>
    <g id="ytick_5">
     <g id="line2d_11">
      <g>
       <use xlink:href="#m0424793dff" x="46.0125" y="41.808853" style="fill: #8a929b; stroke: #8a929b; stroke-width: 0.8"/>
      </g>
     </g>
     <g id="text_5">
      <!-- 80 -->
      <g style="fill: #8a929b" transform="translate(28.8325 44.847915) scale(0.08 -0.08)">
       <defs>
        <path id="DejaVuSans-1b" d="M 2034 2216 
Q 1584 2216 1326 1975 
Q 1069 1734 1069 1313 
Q 1069 891 1326 650 
Q 1584 409 2034 409 
Q 2484 409 2743 651 
Q 3003 894 3003 1313 
Q 3003 1734 2745 1975 
Q 2488 2216 2034 2216 
z
M 1403 2484 
Q 997 2584 770 2862 
Q 544 3141 544 3541 
Q 544 4100 942 4425 
Q 1341 4750 2034 4750 
Q 2731 4750 3128 4425 
Q 3525 4100 3525 3541 
Q 3525 3141 3298 2862 
Q 3072 2584 2669 2484 
Q 3125 2378 3379 2068 
Q 3634 1759 3634 1313 
Q 3634 634 3220 271 
Q 2806 -91 2034 -91 
Q 1263 -91 848 271 
Q 434 634 434 1313 
Q 434 1759 690 2068 
Q 947 2378 1403 2484 
z
M 1172 3481 
Q 1172 3119 1398 2916 
Q 1625 2713 2034 2713 
Q 2441 2713 2670 2916 
Q 2900 3119 2900 3481 
Q 2900 3844 2670 4047 
Q 2441 4250 2034 4250 
Q 1625 4250 1398 4047 
Q 1172 3844 1172 3481 
z
" transform="scale(0.015625)"/>
       </defs>
       <use xlink:href="#DejaVuSans-1b"/>
       <use xlink:href="#DejaVuSans-13" transform="translate(63.625 0)"/>
      </g>
     </g>
    </g>
    <g id="ytick_6">
     <g id="line2d_12">
      <g>
       <use xlink:href="#m0424793dff" x="46.0125" y="16.981842" style="fill: #8a929b; stroke: #8a929b; stroke-width: 0.8"/>
      </g>
     </g>
     <g id="text_6">
      <!-- 100 -->
      <g style="fill: #8a929b" transform="translate(23.7425 20.020905) scale(0.08 -0.08)">
       <defs>
        <path id="DejaVuSans-14" d="M 794 531 
L 1825 531 
L 1825 4091 
L 703 3866 
L 703 4441 
L 1819 4666 
L 2450 4666 
L 2450 531 
L 3481 531 
L 3481 0 
L 794 0 
L 794 531 
z
" transform="scale(0.015625)"/>
       </defs>
       <use xlink:href="#DejaVuSans-14"/>
       <use xlink:href="#DejaVuSans-13" transform="translate(63.625 0)"/>
       <use xlink:href="#DejaVuSans-13" transform="translate(127.25 0)"/>
      </g>
     </g>
    </g>
    <g id="text_7">
     <!-- F  (N) -->
     <g style="fill: #1f2933" transform="translate(17.340156 93.434412) rotate(-90) scale(0.1 -0.1)">
      <defs>
       <path id="DejaVuSans-29" d="M 628 4666 
L 3309 4666 
L 3309 4134 
L 1259 4134 
L 1259 2759 
L 3109 2759 
L 3109 2228 
L 1259 2228 
L 1259 0 
L 628 0 
L 628 4666 
z
" transform="scale(0.015625)"/>
       <path id="DejaVuSans-3" transform="scale(0.015625)"/>
       <path id="DejaVuSans-b" d="M 1984 4856 
Q 1566 4138 1362 3434 
Q 1159 2731 1159 2009 
Q 1159 1288 1364 580 
Q 1569 -128 1984 -844 
L 1484 -844 
Q 1016 -109 783 600 
Q 550 1309 550 2009 
Q 550 2706 781 3412 
Q 1013 4119 1484 4856 
L 1984 4856 
z
" transform="scale(0.015625)"/>
       <path id="DejaVuSans-31" d="M 628 4666 
L 1478 4666 
L 3547 763 
L 3547 4666 
L 4159 4666 
L 4159 0 
L 3309 0 
L 1241 3903 
L 1241 0 
L 628 0 
L 628 4666 
z
" transform="scale(0.015625)"/>
       <path id="DejaVuSans-c" d="M 513 4856 
L 1013 4856 
Q 1481 4119 1714 3412 
Q 1947 2706 1947 2009 
Q 1947 1309 1714 600 
Q 1481 -109 1013 -844 
L 513 -844 
Q 928 -128 1133 580 
Q 1338 1288 1338 2009 
Q 1338 2731 1133 3434 
Q 928 4138 513 4856 
z
" transform="scale(0.015625)"/>
      </defs>
      <use xlink:href="#DejaVuSans-29"/>
      <use xlink:href="#DejaVuSans-3" transform="translate(57.515625 0)"/>
      <use xlink:href="#DejaVuSans-3" transform="translate(89.296875 0)"/>
      <use xlink:href="#DejaVuSans-b" transform="translate(121.078125 0)"/>
      <use xlink:href="#DejaVuSans-31" transform="translate(160.09375 0)"/>
      <use xlink:href="#DejaVuSans-c" transform="translate(234.90625 0)"/>
     </g>
    </g>
   </g>
   <g id="line2d_13">
    <path d="M 46.0125 141.116894 
L 403.1325 141.116894 
" clip-path="url(#p871f1a3e0e)" style="fill: none; stroke: #d8d4c8; stroke-linecap: square"/>
   </g>
   <g id="line2d_14">
    <path d="M 46.0125 29.519482 
L 49.000952 38.303137 
L 51.989404 46.089155 
L 54.977856 53.02309 
L 57.966308 59.224887 
L 60.954759 64.794104 
L 63.943211 69.813936 
L 66.931663 74.354337 
L 69.920115 78.47447 
L 72.908567 82.224647 
L 75.897019 85.64787 
L 78.885471 88.78107 
L 81.873923 91.656107 
L 84.862374 94.300583 
L 89.345052 97.886671 
L 93.82773 101.075966 
L 98.310408 103.924919 
L 102.793086 106.480287 
L 107.275764 108.781066 
L 111.758441 110.859986 
L 117.735345 113.33391 
L 123.712249 115.516372 
L 129.689153 117.45142 
L 135.666056 119.175087 
L 143.137186 121.077171 
L 150.608316 122.742233 
L 159.573672 124.480139 
L 168.539027 125.982657 
L 178.998609 127.491856 
L 189.45819 128.786069 
L 201.411998 130.051513 
L 214.860031 131.255511 
L 229.802291 132.376436 
L 247.733002 133.486315 
L 267.157939 134.465931 
L 289.571328 135.378787 
L 316.467395 136.246121 
L 347.84614 137.030643 
L 385.201789 137.740319 
L 403.1325 138.016966 
L 403.1325 138.016966 
" clip-path="url(#p871f1a3e0e)" style="fill: none; stroke: #1f2933; stroke-width: 2.2; stroke-linecap: square"/>
   </g>
   <g id="patch_3">
    <path d="M 46.0125 152.276636 
L 46.0125 7.2 
" style="fill: none; stroke: #d8d4c8; stroke-width: 0.8; stroke-linejoin: miter; stroke-linecap: square"/>
   </g>
   <g id="patch_4">
    <path d="M 46.0125 152.276636 
L 403.1325 152.276636 
" style="fill: none; stroke: #d8d4c8; stroke-width: 0.8; stroke-linejoin: miter; stroke-linecap: square"/>
   </g>
   <g id="text_8">
    <g id="patch_5">
     <path d="M 151.027047 143.725733 
L 298.117953 143.725733 
Q 300.525953 143.725733 300.525953 141.317733 
L 300.525953 132.717062 
Q 300.525953 130.309062 298.117953 130.309062 
L 151.027047 130.309062 
Q 148.619047 130.309062 148.619047 132.717062 
L 148.619047 141.317733 
Q 148.619047 143.725733 151.027047 143.725733 
z
" style="fill: #fbfaf7; opacity: 0.92; stroke: #d8d4c8; stroke-width: 0.6; stroke-linejoin: miter"/>
    </g>
    <!-- shaded area  =  ∫ F dx  =  work W -->
    <g style="fill: #1f2933" transform="translate(151.027047 139.251718) scale(0.086 -0.086)">
     <defs>
      <path id="DejaVuSans-56" d="M 2834 3397 
L 2834 2853 
Q 2591 2978 2328 3040 
Q 2066 3103 1784 3103 
Q 1356 3103 1142 2972 
Q 928 2841 928 2578 
Q 928 2378 1081 2264 
Q 1234 2150 1697 2047 
L 1894 2003 
Q 2506 1872 2764 1633 
Q 3022 1394 3022 966 
Q 3022 478 2636 193 
Q 2250 -91 1575 -91 
Q 1294 -91 989 -36 
Q 684 19 347 128 
L 347 722 
Q 666 556 975 473 
Q 1284 391 1588 391 
Q 1994 391 2212 530 
Q 2431 669 2431 922 
Q 2431 1156 2273 1281 
Q 2116 1406 1581 1522 
L 1381 1569 
Q 847 1681 609 1914 
Q 372 2147 372 2553 
Q 372 3047 722 3315 
Q 1072 3584 1716 3584 
Q 2034 3584 2315 3537 
Q 2597 3491 2834 3397 
z
" transform="scale(0.015625)"/>
      <path id="DejaVuSans-4b" d="M 3513 2113 
L 3513 0 
L 2938 0 
L 2938 2094 
Q 2938 2591 2744 2837 
Q 2550 3084 2163 3084 
Q 1697 3084 1428 2787 
Q 1159 2491 1159 1978 
L 1159 0 
L 581 0 
L 581 4863 
L 1159 4863 
L 1159 2956 
Q 1366 3272 1645 3428 
Q 1925 3584 2291 3584 
Q 2894 3584 3203 3211 
Q 3513 2838 3513 2113 
z
" transform="scale(0.015625)"/>
      <path id="DejaVuSans-44" d="M 2194 1759 
Q 1497 1759 1228 1600 
Q 959 1441 959 1056 
Q 959 750 1161 570 
Q 1363 391 1709 391 
Q 2188 391 2477 730 
Q 2766 1069 2766 1631 
L 2766 1759 
L 2194 1759 
z
M 3341 1997 
L 3341 0 
L 2766 0 
L 2766 531 
Q 2569 213 2275 61 
Q 1981 -91 1556 -91 
Q 1019 -91 701 211 
Q 384 513 384 1019 
Q 384 1609 779 1909 
Q 1175 2209 1959 2209 
L 2766 2209 
L 2766 2266 
Q 2766 2663 2505 2880 
Q 2244 3097 1772 3097 
Q 1472 3097 1187 3025 
Q 903 2953 641 2809 
L 641 3341 
Q 956 3463 1253 3523 
Q 1550 3584 1831 3584 
Q 2591 3584 2966 3190 
Q 3341 2797 3341 1997 
z
" transform="scale(0.015625)"/>
      <path id="DejaVuSans-47" d="M 2906 2969 
L 2906 4863 
L 3481 4863 
L 3481 0 
L 2906 0 
L 2906 525 
Q 2725 213 2448 61 
Q 2172 -91 1784 -91 
Q 1150 -91 751 415 
Q 353 922 353 1747 
Q 353 2572 751 3078 
Q 1150 3584 1784 3584 
Q 2172 3584 2448 3432 
Q 2725 3281 2906 2969 
z
M 947 1747 
Q 947 1113 1208 752 
Q 1469 391 1925 391 
Q 2381 391 2643 752 
Q 2906 1113 2906 1747 
Q 2906 2381 2643 2742 
Q 2381 3103 1925 3103 
Q 1469 3103 1208 2742 
Q 947 2381 947 1747 
z
" transform="scale(0.015625)"/>
      <path id="DejaVuSans-48" d="M 3597 1894 
L 3597 1613 
L 953 1613 
Q 991 1019 1311 708 
Q 1631 397 2203 397 
Q 2534 397 2845 478 
Q 3156 559 3463 722 
L 3463 178 
Q 3153 47 2828 -22 
Q 2503 -91 2169 -91 
Q 1331 -91 842 396 
Q 353 884 353 1716 
Q 353 2575 817 3079 
Q 1281 3584 2069 3584 
Q 2775 3584 3186 3129 
Q 3597 2675 3597 1894 
z
M 3022 2063 
Q 3016 2534 2758 2815 
Q 2500 3097 2075 3097 
Q 1594 3097 1305 2825 
Q 1016 2553 972 2059 
L 3022 2063 
z
" transform="scale(0.015625)"/>
      <path id="DejaVuSans-55" d="M 2631 2963 
Q 2534 3019 2420 3045 
Q 2306 3072 2169 3072 
Q 1681 3072 1420 2755 
Q 1159 2438 1159 1844 
L 1159 0 
L 581 0 
L 581 3500 
L 1159 3500 
L 1159 2956 
Q 1341 3275 1631 3429 
Q 1922 3584 2338 3584 
Q 2397 3584 2469 3576 
Q 2541 3569 2628 3553 
L 2631 2963 
z
" transform="scale(0.015625)"/>
      <path id="DejaVuSans-20" d="M 678 2906 
L 4684 2906 
L 4684 2381 
L 678 2381 
L 678 2906 
z
M 678 1631 
L 4684 1631 
L 4684 1100 
L 678 1100 
L 678 1631 
z
" transform="scale(0.015625)"/>
      <path id="DejaVuSans-cb5" d="M 1509 3906 
Q 1534 4428 1787 4636 
Q 2041 4844 2277 4844 
Q 2513 4844 2709 4648 
Q 2906 4453 2969 4016 
L 2506 3969 
Q 2453 4375 2275 4375 
Q 2053 4375 2028 3828 
L 1825 -422 
Q 1800 -944 1547 -1151 
Q 1294 -1359 1058 -1359 
Q 822 -1359 625 -1164 
Q 428 -969 366 -531 
L 828 -484 
Q 881 -891 1059 -891 
Q 1281 -891 1306 -344 
L 1509 3906 
z
" transform="scale(0.015625)"/>
      <path id="DejaVuSans-5b" d="M 3513 3500 
L 2247 1797 
L 3578 0 
L 2900 0 
L 1881 1375 
L 863 0 
L 184 0 
L 1544 1831 
L 300 3500 
L 978 3500 
L 1906 2253 
L 2834 3500 
L 3513 3500 
z
" transform="scale(0.015625)"/>
      <path id="DejaVuSans-5a" d="M 269 3500 
L 844 3500 
L 1563 769 
L 2278 3500 
L 2956 3500 
L 3675 769 
L 4391 3500 
L 4966 3500 
L 4050 0 
L 3372 0 
L 2619 2869 
L 1863 0 
L 1184 0 
L 269 3500 
z
" transform="scale(0.015625)"/>
      <path id="DejaVuSans-52" d="M 1959 3097 
Q 1497 3097 1228 2736 
Q 959 2375 959 1747 
Q 959 1119 1226 758 
Q 1494 397 1959 397 
Q 2419 397 2687 759 
Q 2956 1122 2956 1747 
Q 2956 2369 2687 2733 
Q 2419 3097 1959 3097 
z
M 1959 3584 
Q 2709 3584 3137 3096 
Q 3566 2609 3566 1747 
Q 3566 888 3137 398 
Q 2709 -91 1959 -91 
Q 1206 -91 779 398 
Q 353 888 353 1747 
Q 353 2609 779 3096 
Q 1206 3584 1959 3584 
z
" transform="scale(0.015625)"/>
      <path id="DejaVuSans-4e" d="M 581 4863 
L 1159 4863 
L 1159 1991 
L 2875 3500 
L 3609 3500 
L 1753 1863 
L 3688 0 
L 2938 0 
L 1159 1709 
L 1159 0 
L 581 0 
L 581 4863 
z
" transform="scale(0.015625)"/>
      <path id="DejaVuSans-3a" d="M 213 4666 
L 850 4666 
L 1831 722 
L 2809 4666 
L 3519 4666 
L 4500 722 
L 5478 4666 
L 6119 4666 
L 4947 0 
L 4153 0 
L 3169 4050 
L 2175 0 
L 1381 0 
L 213 4666 
z
" transform="scale(0.015625)"/>
     </defs>
     <use xlink:href="#DejaVuSans-56"/>
     <use xlink:href="#DejaVuSans-4b" transform="translate(52.09375 0)"/>
     <use xlink:href="#DejaVuSans-44" transform="translate(115.46875 0)"/>
     <use xlink:href="#DejaVuSans-47" transform="translate(176.75 0)"/>
     <use xlink:href="#DejaVuSans-48" transform="translate(240.234375 0)"/>
     <use xlink:href="#DejaVuSans-47" transform="translate(301.765625 0)"/>
     <use xlink:href="#DejaVuSans-3" transform="translate(365.25 0)"/>
     <use xlink:href="#DejaVuSans-44" transform="translate(397.03125 0)"/>
     <use xlink:href="#DejaVuSans-55" transform="translate(458.3125 0)"/>
     <use xlink:href="#DejaVuSans-48" transform="translate(497.21875 0)"/>
     <use xlink:href="#DejaVuSans-44" transform="translate(558.75 0)"/>
     <use xlink:href="#DejaVuSans-3" transform="translate(620.03125 0)"/>
     <use xlink:href="#DejaVuSans-3" transform="translate(651.8125 0)"/>
     <use xlink:href="#DejaVuSans-20" transform="translate(683.59375 0)"/>
     <use xlink:href="#DejaVuSans-3" transform="translate(767.390625 0)"/>
     <use xlink:href="#DejaVuSans-3" transform="translate(799.171875 0)"/>
     <use xlink:href="#DejaVuSans-cb5" transform="translate(830.953125 0)"/>
     <use xlink:href="#DejaVuSans-3" transform="translate(883.046875 0)"/>
     <use xlink:href="#DejaVuSans-29" transform="translate(914.828125 0)"/>
     <use xlink:href="#DejaVuSans-3" transform="translate(972.34375 0)"/>
     <use xlink:href="#DejaVuSans-47" transform="translate(1004.125 0)"/>
     <use xlink:href="#DejaVuSans-5b" transform="translate(1067.609375 0)"/>
     <use xlink:href="#DejaVuSans-3" transform="translate(1126.796875 0)"/>
     <use xlink:href="#DejaVuSans-3" transform="translate(1158.578125 0)"/>
     <use xlink:href="#DejaVuSans-20" transform="translate(1190.359375 0)"/>
     <use xlink:href="#DejaVuSans-3" transform="translate(1274.15625 0)"/>
     <use xlink:href="#DejaVuSans-3" transform="translate(1305.9375 0)"/>
     <use xlink:href="#DejaVuSans-5a" transform="translate(1337.71875 0)"/>
     <use xlink:href="#DejaVuSans-52" transform="translate(1419.5 0)"/>
     <use xlink:href="#DejaVuSans-55" transform="translate(1480.6875 0)"/>
     <use xlink:href="#DejaVuSans-4e" transform="translate(1521.796875 0)"/>
     <use xlink:href="#DejaVuSans-3" transform="translate(1579.703125 0)"/>
     <use xlink:href="#DejaVuSans-3a" transform="translate(1611.484375 0)"/>
    </g>
   </g>
  </g>
  <g id="axes_2">
   <g id="patch_6">
    <path d="M 46.0125 317.664 
L 403.1325 317.664 
L 403.1325 172.587364 
L 46.0125 172.587364 
z
" style="fill: #fbfaf7"/>
   </g>
   <g id="matplotlib.axis_3">
    <g id="xtick_7">
     <g id="line2d_15">
      <g>
       <use xlink:href="#mabe5913cd3" x="46.0125" y="317.664" style="fill: #8a929b; stroke: #8a929b; stroke-width: 0.8"/>
      </g>
     </g>
     <g id="text_9">
      <!-- 0.02 -->
      <g style="fill: #8a929b" transform="translate(37.10625 330.742125) scale(0.08 -0.08)">
       <defs>
        <path id="DejaVuSans-11" d="M 684 794 
L 1344 794 
L 1344 0 
L 684 0 
L 684 794 
z
" transform="scale(0.015625)"/>
       </defs>
       <use xlink:href="#DejaVuSans-13"/>
       <use xlink:href="#DejaVuSans-11" transform="translate(63.625 0)"/>
       <use xlink:href="#DejaVuSans-13" transform="translate(95.40625 0)"/>
       <use xlink:href="#DejaVuSans-15" transform="translate(159.03125 0)"/>
      </g>
     </g>
    </g>
    <g id="xtick_8">
     <g id="line2d_16">
      <g>
       <use xlink:href="#mabe5913cd3" x="117.4365" y="317.664" style="fill: #8a929b; stroke: #8a929b; stroke-width: 0.8"/>
      </g>
     </g>
     <g id="text_10">
      <!-- 0.04 -->
      <g style="fill: #8a929b" transform="translate(108.53025 330.742125) scale(0.08 -0.08)">
       <use xlink:href="#DejaVuSans-13"/>
       <use xlink:href="#DejaVuSans-11" transform="translate(63.625 0)"/>
       <use xlink:href="#DejaVuSans-13" transform="translate(95.40625 0)"/>
       <use xlink:href="#DejaVuSans-17" transform="translate(159.03125 0)"/>
      </g>
     </g>
    </g>
    <g id="xtick_9">
     <g id="line2d_17">
      <g>
       <use xlink:href="#mabe5913cd3" x="188.8605" y="317.664" style="fill: #8a929b; stroke: #8a929b; stroke-width: 0.8"/>
      </g>
     </g>
     <g id="text_11">
      <!-- 0.06 -->
      <g style="fill: #8a929b" transform="translate(179.95425 330.742125) scale(0.08 -0.08)">
       <use xlink:href="#DejaVuSans-13"/>
       <use xlink:href="#DejaVuSans-11" transform="translate(63.625 0)"/>
       <use xlink:href="#DejaVuSans-13" transform="translate(95.40625 0)"/>
       <use xlink:href="#DejaVuSans-19" transform="translate(159.03125 0)"/>
      </g>
     </g>
    </g>
    <g id="xtick_10">
     <g id="line2d_18">
      <g>
       <use xlink:href="#mabe5913cd3" x="260.2845" y="317.664" style="fill: #8a929b; stroke: #8a929b; stroke-width: 0.8"/>
      </g>
     </g>
     <g id="text_12">
      <!-- 0.08 -->
      <g style="fill: #8a929b" transform="translate(251.37825 330.742125) scale(0.08 -0.08)">
       <use xlink:href="#DejaVuSans-13"/>
       <use xlink:href="#DejaVuSans-11" transform="translate(63.625 0)"/>
       <use xlink:href="#DejaVuSans-13" transform="translate(95.40625 0)"/>
       <use xlink:href="#DejaVuSans-1b" transform="translate(159.03125 0)"/>
      </g>
     </g>
    </g>
    <g id="xtick_11">
     <g id="line2d_19">
      <g>
       <use xlink:href="#mabe5913cd3" x="331.7085" y="317.664" style="fill: #8a929b; stroke: #8a929b; stroke-width: 0.8"/>
      </g>
     </g>
     <g id="text_13">
      <!-- 0.10 -->
      <g style="fill: #8a929b" transform="translate(322.80225 330.742125) scale(0.08 -0.08)">
       <use xlink:href="#DejaVuSans-13"/>
       <use xlink:href="#DejaVuSans-11" transform="translate(63.625 0)"/>
       <use xlink:href="#DejaVuSans-14" transform="translate(95.40625 0)"/>
       <use xlink:href="#DejaVuSans-13" transform="translate(159.03125 0)"/>
      </g>
     </g>
    </g>
    <g id="xtick_12">
     <g id="line2d_20">
      <g>
       <use xlink:href="#mabe5913cd3" x="403.1325" y="317.664" style="fill: #8a929b; stroke: #8a929b; stroke-width: 0.8"/>
      </g>
     </g>
     <g id="text_14">
      <!-- 0.12 -->
      <g style="fill: #8a929b" transform="translate(394.22625 330.742125) scale(0.08 -0.08)">
       <use xlink:href="#DejaVuSans-13"/>
       <use xlink:href="#DejaVuSans-11" transform="translate(63.625 0)"/>
       <use xlink:href="#DejaVuSans-14" transform="translate(95.40625 0)"/>
       <use xlink:href="#DejaVuSans-15" transform="translate(159.03125 0)"/>
      </g>
     </g>
    </g>
    <g id="text_15">
     <!-- r  (m) -->
     <g style="fill: #1f2933" transform="translate(210.567031 344.261656) scale(0.1 -0.1)">
      <defs>
       <path id="DejaVuSans-50" d="M 3328 2828 
Q 3544 3216 3844 3400 
Q 4144 3584 4550 3584 
Q 5097 3584 5394 3201 
Q 5691 2819 5691 2113 
L 5691 0 
L 5113 0 
L 5113 2094 
Q 5113 2597 4934 2840 
Q 4756 3084 4391 3084 
Q 3944 3084 3684 2787 
Q 3425 2491 3425 1978 
L 3425 0 
L 2847 0 
L 2847 2094 
Q 2847 2600 2669 2842 
Q 2491 3084 2119 3084 
Q 1678 3084 1418 2786 
Q 1159 2488 1159 1978 
L 1159 0 
L 581 0 
L 581 3500 
L 1159 3500 
L 1159 2956 
Q 1356 3278 1631 3431 
Q 1906 3584 2284 3584 
Q 2666 3584 2933 3390 
Q 3200 3197 3328 2828 
z
" transform="scale(0.015625)"/>
      </defs>
      <use xlink:href="#DejaVuSans-55"/>
      <use xlink:href="#DejaVuSans-3" transform="translate(41.109375 0)"/>
      <use xlink:href="#DejaVuSans-3" transform="translate(72.890625 0)"/>
      <use xlink:href="#DejaVuSans-b" transform="translate(104.671875 0)"/>
      <use xlink:href="#DejaVuSans-50" transform="translate(143.6875 0)"/>
      <use xlink:href="#DejaVuSans-c" transform="translate(241.09375 0)"/>
     </g>
    </g>
   </g>
   <g id="matplotlib.axis_4">
    <g id="ytick_7">
     <g id="line2d_21">
      <g>
       <use xlink:href="#m0424793dff" x="46.0125" y="306.504259" style="fill: #8a929b; stroke: #8a929b; stroke-width: 0.8"/>
      </g>
     </g>
     <g id="text_16">
      <!-- 0.00 -->
      <g style="fill: #8a929b" transform="translate(21.2 309.543321) scale(0.08 -0.08)">
       <use xlink:href="#DejaVuSans-13"/>
       <use xlink:href="#DejaVuSans-11" transform="translate(63.625 0)"/>
       <use xlink:href="#DejaVuSans-13" transform="translate(95.40625 0)"/>
       <use xlink:href="#DejaVuSans-13" transform="translate(159.03125 0)"/>
      </g>
     </g>
    </g>
    <g id="ytick_8">
     <g id="line2d_22">
      <g>
       <use xlink:href="#m0424793dff" x="46.0125" y="287.884001" style="fill: #8a929b; stroke: #8a929b; stroke-width: 0.8"/>
      </g>
     </g>
     <g id="text_17">
      <!-- 0.25 -->
      <g style="fill: #8a929b" transform="translate(21.2 290.923063) scale(0.08 -0.08)">
       <defs>
        <path id="DejaVuSans-18" d="M 691 4666 
L 3169 4666 
L 3169 4134 
L 1269 4134 
L 1269 2991 
Q 1406 3038 1543 3061 
Q 1681 3084 1819 3084 
Q 2600 3084 3056 2656 
Q 3513 2228 3513 1497 
Q 3513 744 3044 326 
Q 2575 -91 1722 -91 
Q 1428 -91 1123 -41 
Q 819 9 494 109 
L 494 744 
Q 775 591 1075 516 
Q 1375 441 1709 441 
Q 2250 441 2565 725 
Q 2881 1009 2881 1497 
Q 2881 1984 2565 2268 
Q 2250 2553 1709 2553 
Q 1456 2553 1204 2497 
Q 953 2441 691 2322 
L 691 4666 
z
" transform="scale(0.015625)"/>
       </defs>
       <use xlink:href="#DejaVuSans-13"/>
       <use xlink:href="#DejaVuSans-11" transform="translate(63.625 0)"/>
       <use xlink:href="#DejaVuSans-15" transform="translate(95.40625 0)"/>
       <use xlink:href="#DejaVuSans-18" transform="translate(159.03125 0)"/>
      </g>
     </g>
    </g>
    <g id="ytick_9">
     <g id="line2d_23">
      <g>
       <use xlink:href="#m0424793dff" x="46.0125" y="269.263743" style="fill: #8a929b; stroke: #8a929b; stroke-width: 0.8"/>
      </g>
     </g>
     <g id="text_18">
      <!-- 0.50 -->
      <g style="fill: #8a929b" transform="translate(21.2 272.302806) scale(0.08 -0.08)">
       <use xlink:href="#DejaVuSans-13"/>
       <use xlink:href="#DejaVuSans-11" transform="translate(63.625 0)"/>
       <use xlink:href="#DejaVuSans-18" transform="translate(95.40625 0)"/>
       <use xlink:href="#DejaVuSans-13" transform="translate(159.03125 0)"/>
      </g>
     </g>
    </g>
    <g id="ytick_10">
     <g id="line2d_24">
      <g>
       <use xlink:href="#m0424793dff" x="46.0125" y="250.643485" style="fill: #8a929b; stroke: #8a929b; stroke-width: 0.8"/>
      </g>
     </g>
     <g id="text_19">
      <!-- 0.75 -->
      <g style="fill: #8a929b" transform="translate(21.2 253.682548) scale(0.08 -0.08)">
       <defs>
        <path id="DejaVuSans-1a" d="M 525 4666 
L 3525 4666 
L 3525 4397 
L 1831 0 
L 1172 0 
L 2766 4134 
L 525 4134 
L 525 4666 
z
" transform="scale(0.015625)"/>
       </defs>
       <use xlink:href="#DejaVuSans-13"/>
       <use xlink:href="#DejaVuSans-11" transform="translate(63.625 0)"/>
       <use xlink:href="#DejaVuSans-1a" transform="translate(95.40625 0)"/>
       <use xlink:href="#DejaVuSans-18" transform="translate(159.03125 0)"/>
      </g>
     </g>
    </g>
    <g id="ytick_11">
     <g id="line2d_25">
      <g>
       <use xlink:href="#m0424793dff" x="46.0125" y="232.023227" style="fill: #8a929b; stroke: #8a929b; stroke-width: 0.8"/>
      </g>
     </g>
     <g id="text_20">
      <!-- 1.00 -->
      <g style="fill: #8a929b" transform="translate(21.2 235.06229) scale(0.08 -0.08)">
       <use xlink:href="#DejaVuSans-14"/>
       <use xlink:href="#DejaVuSans-11" transform="translate(63.625 0)"/>
       <use xlink:href="#DejaVuSans-13" transform="translate(95.40625 0)"/>
       <use xlink:href="#DejaVuSans-13" transform="translate(159.03125 0)"/>
      </g>
     </g>
    </g>
    <g id="ytick_12">
     <g id="line2d_26">
      <g>
       <use xlink:href="#m0424793dff" x="46.0125" y="213.40297" style="fill: #8a929b; stroke: #8a929b; stroke-width: 0.8"/>
      </g>
     </g>
     <g id="text_21">
      <!-- 1.25 -->
      <g style="fill: #8a929b" transform="translate(21.2 216.442032) scale(0.08 -0.08)">
       <use xlink:href="#DejaVuSans-14"/>
       <use xlink:href="#DejaVuSans-11" transform="translate(63.625 0)"/>
       <use xlink:href="#DejaVuSans-15" transform="translate(95.40625 0)"/>
       <use xlink:href="#DejaVuSans-18" transform="translate(159.03125 0)"/>
      </g>
     </g>
    </g>
    <g id="ytick_13">
     <g id="line2d_27">
      <g>
       <use xlink:href="#m0424793dff" x="46.0125" y="194.782712" style="fill: #8a929b; stroke: #8a929b; stroke-width: 0.8"/>
      </g>
     </g>
     <g id="text_22">
      <!-- 1.50 -->
      <g style="fill: #8a929b" transform="translate(21.2 197.821774) scale(0.08 -0.08)">
       <use xlink:href="#DejaVuSans-14"/>
       <use xlink:href="#DejaVuSans-11" transform="translate(63.625 0)"/>
       <use xlink:href="#DejaVuSans-18" transform="translate(95.40625 0)"/>
       <use xlink:href="#DejaVuSans-13" transform="translate(159.03125 0)"/>
      </g>
     </g>
    </g>
    <g id="ytick_14">
     <g id="line2d_28">
      <g>
       <use xlink:href="#m0424793dff" x="46.0125" y="176.162454" style="fill: #8a929b; stroke: #8a929b; stroke-width: 0.8"/>
      </g>
     </g>
     <g id="text_23">
      <!-- 1.75 -->
      <g style="fill: #8a929b" transform="translate(21.2 179.201516) scale(0.08 -0.08)">
       <use xlink:href="#DejaVuSans-14"/>
       <use xlink:href="#DejaVuSans-11" transform="translate(63.625 0)"/>
       <use xlink:href="#DejaVuSans-1a" transform="translate(95.40625 0)"/>
       <use xlink:href="#DejaVuSans-18" transform="translate(159.03125 0)"/>
      </g>
     </g>
    </g>
    <g id="text_24">
     <!-- ΔU  (J) -->
     <g style="fill: #1f2933" transform="translate(14.797656 260.760057) rotate(-90) scale(0.1 -0.1)">
      <defs>
       <path id="DejaVuSans-329" d="M 2188 4044 
L 906 525 
L 3472 525 
L 2188 4044 
z
M 50 0 
L 1831 4666 
L 2547 4666 
L 4325 0 
L 50 0 
z
" transform="scale(0.015625)"/>
       <path id="DejaVuSans-38" d="M 556 4666 
L 1191 4666 
L 1191 1831 
Q 1191 1081 1462 751 
Q 1734 422 2344 422 
Q 2950 422 3222 751 
Q 3494 1081 3494 1831 
L 3494 4666 
L 4128 4666 
L 4128 1753 
Q 4128 841 3676 375 
Q 3225 -91 2344 -91 
Q 1459 -91 1007 375 
Q 556 841 556 1753 
L 556 4666 
z
" transform="scale(0.015625)"/>
       <path id="DejaVuSans-2d" d="M 628 4666 
L 1259 4666 
L 1259 325 
Q 1259 -519 939 -900 
Q 619 -1281 -91 -1281 
L -331 -1281 
L -331 -750 
L -134 -750 
Q 284 -750 456 -515 
Q 628 -281 628 325 
L 628 4666 
z
" transform="scale(0.015625)"/>
      </defs>
      <use xlink:href="#DejaVuSans-329"/>
      <use xlink:href="#DejaVuSans-38" transform="translate(68.40625 0)"/>
      <use xlink:href="#DejaVuSans-3" transform="translate(141.59375 0)"/>
      <use xlink:href="#DejaVuSans-3" transform="translate(173.375 0)"/>
      <use xlink:href="#DejaVuSans-b" transform="translate(205.15625 0)"/>
      <use xlink:href="#DejaVuSans-2d" transform="translate(244.171875 0)"/>
      <use xlink:href="#DejaVuSans-c" transform="translate(273.671875 0)"/>
     </g>
    </g>
   </g>
   <g id="line2d_29">
    <path d="M 46.0125 306.504259 
L 403.1325 306.504259 
" clip-path="url(#pb811044323)" style="fill: none; stroke: #d8d4c8; stroke-linecap: square"/>
   </g>
   <g id="line2d_30">
    <path d="M 46.0125 306.504259 
L 49.000952 301.12607 
L 51.989404 296.163186 
L 54.977856 291.569289 
L 57.966308 287.304704 
L 60.954759 283.335246 
L 63.943211 279.631303 
L 68.425889 274.517739 
L 72.908567 269.870458 
L 77.391245 265.628463 
L 81.873923 261.740952 
L 86.3566 258.165273 
L 90.839278 254.865354 
L 95.321956 251.810478 
L 99.804634 248.974328 
L 105.781538 245.494284 
L 111.758441 242.317512 
L 117.735345 239.406024 
L 123.712249 236.727921 
L 129.689153 234.256223 
L 137.160282 231.422177 
L 144.631412 228.837167 
L 152.102542 226.469751 
L 161.067897 223.879252 
L 170.033253 221.526413 
L 180.492835 219.040395 
L 190.952416 216.794737 
L 202.906224 214.480215 
L 214.860031 212.395994 
L 228.308065 210.285996 
L 243.250324 208.189297 
L 258.192584 206.313537 
L 274.629069 204.465988 
L 292.55978 202.668321 
L 311.984718 200.936468 
L 334.398107 199.170535 
L 358.305722 197.514263 
L 385.201789 195.881497 
L 403.1325 194.906847 
L 403.1325 194.906847 
" clip-path="url(#pb811044323)" style="fill: none; stroke: #2f6f4f; stroke-width: 2.2; stroke-linecap: square"/>
   </g>
   <g id="patch_7">
    <path d="M 46.0125 317.664 
L 46.0125 172.587364 
" style="fill: none; stroke: #d8d4c8; stroke-width: 0.8; stroke-linejoin: miter; stroke-linecap: square"/>
   </g>
   <g id="patch_8">
    <path d="M 46.0125 317.664 
L 403.1325 317.664 
" style="fill: none; stroke: #d8d4c8; stroke-width: 0.8; stroke-linejoin: miter; stroke-linecap: square"/>
   </g>
   <g id="text_25">
    <g id="patch_9">
     <path d="M 275.4269 218.258694 
L 355.455275 218.258694 
Q 357.863275 218.258694 357.863275 215.850694 
L 357.863275 207.250022 
Q 357.863275 204.842022 355.455275 204.842022 
L 275.4269 204.842022 
Q 273.0189 204.842022 273.0189 207.250022 
L 273.0189 215.850694 
Q 273.0189 218.258694 275.4269 218.258694 
z
" style="fill: #fbfaf7; opacity: 0.92; stroke: #d8d4c8; stroke-width: 0.6; stroke-linejoin: miter"/>
    </g>
    <!-- slope of W  =  F(x) -->
    <g style="fill: #1f2933" transform="translate(275.4269 213.784678) scale(0.086 -0.086)">
     <defs>
      <path id="DejaVuSans-4f" d="M 603 4863 
L 1178 4863 
L 1178 0 
L 603 0 
L 603 4863 
z
" transform="scale(0.015625)"/>
      <path id="DejaVuSans-53" d="M 1159 525 
L 1159 -1331 
L 581 -1331 
L 581 3500 
L 1159 3500 
L 1159 2969 
Q 1341 3281 1617 3432 
Q 1894 3584 2278 3584 
Q 2916 3584 3314 3078 
Q 3713 2572 3713 1747 
Q 3713 922 3314 415 
Q 2916 -91 2278 -91 
Q 1894 -91 1617 61 
Q 1341 213 1159 525 
z
M 3116 1747 
Q 3116 2381 2855 2742 
Q 2594 3103 2138 3103 
Q 1681 3103 1420 2742 
Q 1159 2381 1159 1747 
Q 1159 1113 1420 752 
Q 1681 391 2138 391 
Q 2594 391 2855 752 
Q 3116 1113 3116 1747 
z
" transform="scale(0.015625)"/>
      <path id="DejaVuSans-49" d="M 2375 4863 
L 2375 4384 
L 1825 4384 
Q 1516 4384 1395 4259 
Q 1275 4134 1275 3809 
L 1275 3500 
L 2222 3500 
L 2222 3053 
L 1275 3053 
L 1275 0 
L 697 0 
L 697 3053 
L 147 3053 
L 147 3500 
L 697 3500 
L 697 3744 
Q 697 4328 969 4595 
Q 1241 4863 1831 4863 
L 2375 4863 
z
" transform="scale(0.015625)"/>
     </defs>
     <use xlink:href="#DejaVuSans-56"/>
     <use xlink:href="#DejaVuSans-4f" transform="translate(52.09375 0)"/>
     <use xlink:href="#DejaVuSans-52" transform="translate(79.875 0)"/>
     <use xlink:href="#DejaVuSans-53" transform="translate(141.0625 0)"/>
     <use xlink:href="#DejaVuSans-48" transform="translate(204.546875 0)"/>
     <use xlink:href="#DejaVuSans-3" transform="translate(266.078125 0)"/>
     <use xlink:href="#DejaVuSans-52" transform="translate(297.859375 0)"/>
     <use xlink:href="#DejaVuSans-49" transform="translate(359.046875 0)"/>
     <use xlink:href="#DejaVuSans-3" transform="translate(394.25 0)"/>
     <use xlink:href="#DejaVuSans-3a" transform="translate(426.03125 0)"/>
     <use xlink:href="#DejaVuSans-3" transform="translate(524.90625 0)"/>
     <use xlink:href="#DejaVuSans-3" transform="translate(556.6875 0)"/>
     <use xlink:href="#DejaVuSans-20" transform="translate(588.46875 0)"/>
     <use xlink:href="#DejaVuSans-3" transform="translate(672.265625 0)"/>
     <use xlink:href="#DejaVuSans-3" transform="translate(704.046875 0)"/>
     <use xlink:href="#DejaVuSans-29" transform="translate(735.828125 0)"/>
     <use xlink:href="#DejaVuSans-b" transform="translate(793.34375 0)"/>
     <use xlink:href="#DejaVuSans-5b" transform="translate(832.359375 0)"/>
     <use xlink:href="#DejaVuSans-c" transform="translate(891.546875 0)"/>
    </g>
   </g>
  </g>
 </g>
 <defs>
  <clipPath id="p871f1a3e0e">
   <rect x="46.0125" y="7.2" width="357.12" height="145.076636"/>
  </clipPath>
  <clipPath id="pb811044323">
   <rect x="46.0125" y="172.587364" width="357.12" height="145.076636"/>
  </clipPath>
 </defs>
</svg>
