<?xml version="1.0" encoding="utf-8" standalone="no"?>
<!DOCTYPE svg PUBLIC "-//W3C//DTD SVG 1.1//EN"
  "http://www.w3.org/Graphics/SVG/1.1/DTD/svg11.dtd">
<svg xmlns:xlink="http://www.w3.org/1999/xlink" width="426.877031pt" height="353.864pt" viewBox="0 0 426.877031 353.864" xmlns="http://www.w3.org/2000/svg" version="1.1">
 <metadata>
  <rdf:RDF xmlns:dc="http://purl.org/dc/elements/1.1/" xmlns:cc="http://creativecommons.org/ns#" xmlns:rdf="http://www.w3.org/1999/02/22-rdf-syntax-ns#">
   <cc:Work>
    <dc:type rdf:resource="http://purl.org/dc/dcmitype/StillImage"/>
    <dc:date>2026-06-27T13:58:23.701412</dc:date>
    <dc:format>image/svg+xml</dc:format>
    <dc:creator>
     <cc:Agent>
      <dc:title>Matplotlib v3.11.0, https://matplotlib.org/</dc:title>
     </cc:Agent>
    </dc:creator>
   </cc:Work>
  </rdf:RDF>
 </metadata>
 <defs>
  <style type="text/css">*{stroke-linejoin: round; stroke-linecap: butt}</style>
 </defs>
 <g id="figure_1">
  <g id="patch_1">
   <path d="M 0 353.864 
L 426.877031 353.864 
L 426.877031 0 
L 0 0 
z
" style="fill: #fbfaf7"/>
  </g>
  <g id="axes_1">
   <g id="patch_2">
    <path d="M 53.650781 152.276636 
L 410.770781 152.276636 
L 410.770781 7.2 
L 53.650781 7.2 
z
" style="fill: #fbfaf7"/>
   </g>
   <g id="FillBetweenPolyCollection_1">
    <defs>
     <path id="me9d4dc31f2" d="M 53.650781 -212.747106 
L 53.650781 -212.747106 
L 55.145007 -216.385727 
L 56.639233 -220.019193 
L 58.133459 -223.642367 
L 59.627685 -227.250155 
L 61.121911 -230.837521 
L 62.616137 -234.39951 
L 64.110363 -237.931264 
L 65.604589 -241.428044 
L 67.098815 -244.885242 
L 68.593041 -248.298399 
L 70.087267 -251.663223 
L 71.581493 -254.975599 
L 73.075718 -258.231604 
L 74.569944 -261.427517 
L 76.06417 -264.559828 
L 77.558396 -267.62525 
L 79.052622 -270.620723 
L 80.546848 -273.54342 
L 82.041074 -276.390753 
L 83.5353 -279.160372 
L 85.029526 -281.850173 
L 86.523752 -284.458291 
L 88.017978 -286.983102 
L 89.512204 -289.423223 
L 91.00643 -291.777502 
L 92.500656 -294.045022 
L 93.994882 -296.225088 
L 95.489108 -298.317224 
L 96.983334 -300.321167 
L 98.477559 -302.236856 
L 99.971785 -304.064424 
L 101.466011 -305.804194 
L 102.960237 -307.45666 
L 104.454463 -309.022487 
L 105.948689 -310.502495 
L 107.442915 -311.897651 
L 108.937141 -313.209058 
L 110.431367 -314.437944 
L 111.925593 -315.585654 
L 113.419819 -316.653636 
L 114.914045 -317.643437 
L 116.408271 -318.556686 
L 117.902497 -319.39509 
L 119.396723 -320.16042 
L 120.890949 -320.854508 
L 122.385175 -321.479232 
L 123.8794 -322.036513 
L 125.373626 -322.528302 
L 126.867852 -322.956578 
L 128.362078 -323.323337 
L 129.856304 -323.630586 
L 131.35053 -323.880338 
L 132.844756 -324.074607 
L 134.338982 -324.215398 
L 135.833208 -324.304708 
L 137.327434 -324.344518 
L 138.82166 -324.336787 
L 140.315886 -324.283455 
L 141.810112 -324.186431 
L 143.304338 -324.047597 
L 144.798564 -323.868801 
L 146.29279 -323.651856 
L 147.787016 -323.398538 
L 149.281242 -323.110583 
L 150.775467 -322.789688 
L 152.269693 -322.437508 
L 153.763919 -322.055653 
L 155.258145 -321.645692 
L 156.752371 -321.209147 
L 158.246597 -320.747496 
L 159.740823 -320.262172 
L 161.235049 -319.754564 
L 162.729275 -319.226013 
L 164.223501 -318.677816 
L 165.717727 -318.111227 
L 167.211953 -317.527453 
L 168.706179 -316.927658 
L 170.200405 -316.312963 
L 171.694631 -315.684447 
L 173.188857 -315.043145 
L 174.683083 -314.390054 
L 176.177308 -313.726128 
L 177.671534 -313.052282 
L 179.16576 -312.369395 
L 180.659986 -311.678304 
L 182.154212 -310.979815 
L 183.648438 -310.274693 
L 185.142664 -309.563673 
L 186.63689 -308.847453 
L 188.131116 -308.126701 
L 189.625342 -307.402053 
L 191.119568 -306.674113 
L 192.613794 -305.943457 
L 194.10802 -305.210633 
L 195.602246 -304.47616 
L 197.096472 -303.740531 
L 198.590698 -303.004215 
L 200.084924 -302.267654 
L 201.579149 -301.531269 
L 203.073375 -300.795455 
L 204.567601 -300.060588 
L 206.061827 -299.327022 
L 207.556053 -298.595091 
L 209.050279 -297.865109 
L 210.544505 -297.137372 
L 212.038731 -296.412159 
L 213.532957 -295.68973 
L 215.027183 -294.970331 
L 216.521409 -294.254192 
L 218.015635 -293.541526 
L 219.509861 -292.832534 
L 221.004087 -292.127403 
L 222.498313 -291.426306 
L 223.992539 -290.729406 
L 225.486765 -290.036852 
L 226.98099 -289.348782 
L 228.475216 -288.665324 
L 229.969442 -287.986596 
L 231.463668 -287.312705 
L 232.957894 -286.64375 
L 234.45212 -285.979822 
L 235.946346 -285.321 
L 237.440572 -284.66736 
L 238.934798 -284.018967 
L 240.429024 -283.37588 
L 241.92325 -282.738152 
L 243.417476 -282.105828 
L 244.911702 -281.478947 
L 246.405928 -280.857545 
L 247.900154 -280.241649 
L 249.39438 -279.631283 
L 250.888606 -279.026465 
L 252.382831 -278.427209 
L 253.877057 -277.833525 
L 255.371283 -277.245419 
L 256.865509 -276.662891 
L 258.359735 -276.085941 
L 259.853961 -275.514563 
L 261.348187 -274.948748 
L 262.842413 -274.388484 
L 264.336639 -273.833758 
L 265.830865 -273.284552 
L 267.325091 -272.740846 
L 268.819317 -272.20262 
L 270.313543 -271.669848 
L 271.807769 -271.142505 
L 273.301995 -270.620562 
L 274.796221 -270.103991 
L 276.290447 -269.592759 
L 277.784672 -269.086834 
L 279.278898 -268.586182 
L 280.773124 -268.090767 
L 282.26735 -267.600553 
L 283.761576 -267.115501 
L 285.255802 -266.635573 
L 286.750028 -266.160729 
L 288.244254 -265.690929 
L 289.73848 -265.226131 
L 291.232706 -264.766293 
L 292.726932 -264.311373 
L 294.221158 -263.861327 
L 295.715384 -263.416111 
L 297.20961 -262.975683 
L 298.703836 -262.539997 
L 300.198062 -262.109008 
L 301.692288 -261.682672 
L 303.186513 -261.260943 
L 304.680739 -260.843776 
L 306.174965 -260.431125 
L 307.669191 -260.022945 
L 309.163417 -259.619189 
L 310.657643 -259.219813 
L 312.151869 -258.82477 
L 313.646095 -258.434015 
L 315.140321 -258.047502 
L 316.634547 -257.665186 
L 318.128773 -257.287021 
L 319.622999 -256.912961 
L 321.117225 -256.542963 
L 322.611451 -256.17698 
L 324.105677 -255.814969 
L 325.599903 -255.456884 
L 327.094129 -255.102682 
L 328.588354 -254.752318 
L 330.08258 -254.405749 
L 331.576806 -254.062932 
L 333.071032 -253.723823 
L 334.565258 -253.388379 
L 336.059484 -253.056559 
L 337.55371 -252.728319 
L 339.047936 -252.403618 
L 340.542162 -252.082414 
L 342.036388 -251.764667 
L 343.530614 -251.450335 
L 345.02484 -251.139379 
L 346.519066 -250.831757 
L 348.013292 -250.527431 
L 349.507518 -250.226361 
L 351.001744 -249.928508 
L 352.49597 -249.633834 
L 353.990195 -249.3423 
L 355.484421 -249.053869 
L 356.978647 -248.768503 
L 358.472873 -248.486166 
L 359.967099 -248.206821 
L 361.461325 -247.930431 
L 362.955551 -247.656961 
L 364.449777 -247.386376 
L 365.944003 -247.11864 
L 367.438229 -246.853719 
L 368.932455 -246.591579 
L 370.426681 -246.332186 
L 371.920907 -246.075506 
L 373.415133 -245.821506 
L 374.909359 -245.570155 
L 376.403585 -245.321418 
L 377.897811 -245.075266 
L 379.392036 -244.831665 
L 380.886262 -244.590586 
L 382.380488 -244.351996 
L 383.874714 -244.115867 
L 385.36894 -243.882168 
L 386.863166 -243.650868 
L 388.357392 -243.42194 
L 389.851618 -243.195354 
L 391.345844 -242.971082 
L 392.84007 -242.749095 
L 394.334296 -242.529366 
L 395.828522 -242.311867 
L 397.322748 -242.096571 
L 398.816974 -241.883451 
L 400.3112 -241.672481 
L 401.805426 -241.463635 
L 403.299652 -241.256887 
L 404.793877 -241.052211 
L 406.288103 -240.849583 
L 407.782329 -240.648978 
L 409.276555 -240.450371 
L 410.770781 -240.253738 
L 410.770781 -212.747106 
L 410.770781 -212.747106 
L 409.276555 -212.747106 
L 407.782329 -212.747106 
L 406.288103 -212.747106 
L 404.793877 -212.747106 
L 403.299652 -212.747106 
L 401.805426 -212.747106 
L 400.3112 -212.747106 
L 398.816974 -212.747106 
L 397.322748 -212.747106 
L 395.828522 -212.747106 
L 394.334296 -212.747106 
L 392.84007 -212.747106 
L 391.345844 -212.747106 
L 389.851618 -212.747106 
L 388.357392 -212.747106 
L 386.863166 -212.747106 
L 385.36894 -212.747106 
L 383.874714 -212.747106 
L 382.380488 -212.747106 
L 380.886262 -212.747106 
L 379.392036 -212.747106 
L 377.897811 -212.747106 
L 376.403585 -212.747106 
L 374.909359 -212.747106 
L 373.415133 -212.747106 
L 371.920907 -212.747106 
L 370.426681 -212.747106 
L 368.932455 -212.747106 
L 367.438229 -212.747106 
L 365.944003 -212.747106 
L 364.449777 -212.747106 
L 362.955551 -212.747106 
L 361.461325 -212.747106 
L 359.967099 -212.747106 
L 358.472873 -212.747106 
L 356.978647 -212.747106 
L 355.484421 -212.747106 
L 353.990195 -212.747106 
L 352.49597 -212.747106 
L 351.001744 -212.747106 
L 349.507518 -212.747106 
L 348.013292 -212.747106 
L 346.519066 -212.747106 
L 345.02484 -212.747106 
L 343.530614 -212.747106 
L 342.036388 -212.747106 
L 340.542162 -212.747106 
L 339.047936 -212.747106 
L 337.55371 -212.747106 
L 336.059484 -212.747106 
L 334.565258 -212.747106 
L 333.071032 -212.747106 
L 331.576806 -212.747106 
L 330.08258 -212.747106 
L 328.588354 -212.747106 
L 327.094129 -212.747106 
L 325.599903 -212.747106 
L 324.105677 -212.747106 
L 322.611451 -212.747106 
L 321.117225 -212.747106 
L 319.622999 -212.747106 
L 318.128773 -212.747106 
L 316.634547 -212.747106 
L 315.140321 -212.747106 
L 313.646095 -212.747106 
L 312.151869 -212.747106 
L 310.657643 -212.747106 
L 309.163417 -212.747106 
L 307.669191 -212.747106 
L 306.174965 -212.747106 
L 304.680739 -212.747106 
L 303.186513 -212.747106 
L 301.692288 -212.747106 
L 300.198062 -212.747106 
L 298.703836 -212.747106 
L 297.20961 -212.747106 
L 295.715384 -212.747106 
L 294.221158 -212.747106 
L 292.726932 -212.747106 
L 291.232706 -212.747106 
L 289.73848 -212.747106 
L 288.244254 -212.747106 
L 286.750028 -212.747106 
L 285.255802 -212.747106 
L 283.761576 -212.747106 
L 282.26735 -212.747106 
L 280.773124 -212.747106 
L 279.278898 -212.747106 
L 277.784672 -212.747106 
L 276.290447 -212.747106 
L 274.796221 -212.747106 
L 273.301995 -212.747106 
L 271.807769 -212.747106 
L 270.313543 -212.747106 
L 268.819317 -212.747106 
L 267.325091 -212.747106 
L 265.830865 -212.747106 
L 264.336639 -212.747106 
L 262.842413 -212.747106 
L 261.348187 -212.747106 
L 259.853961 -212.747106 
L 258.359735 -212.747106 
L 256.865509 -212.747106 
L 255.371283 -212.747106 
L 253.877057 -212.747106 
L 252.382831 -212.747106 
L 250.888606 -212.747106 
L 249.39438 -212.747106 
L 247.900154 -212.747106 
L 246.405928 -212.747106 
L 244.911702 -212.747106 
L 243.417476 -212.747106 
L 241.92325 -212.747106 
L 240.429024 -212.747106 
L 238.934798 -212.747106 
L 237.440572 -212.747106 
L 235.946346 -212.747106 
L 234.45212 -212.747106 
L 232.957894 -212.747106 
L 231.463668 -212.747106 
L 229.969442 -212.747106 
L 228.475216 -212.747106 
L 226.98099 -212.747106 
L 225.486765 -212.747106 
L 223.992539 -212.747106 
L 222.498313 -212.747106 
L 221.004087 -212.747106 
L 219.509861 -212.747106 
L 218.015635 -212.747106 
L 216.521409 -212.747106 
L 215.027183 -212.747106 
L 213.532957 -212.747106 
L 212.038731 -212.747106 
L 210.544505 -212.747106 
L 209.050279 -212.747106 
L 207.556053 -212.747106 
L 206.061827 -212.747106 
L 204.567601 -212.747106 
L 203.073375 -212.747106 
L 201.579149 -212.747106 
L 200.084924 -212.747106 
L 198.590698 -212.747106 
L 197.096472 -212.747106 
L 195.602246 -212.747106 
L 194.10802 -212.747106 
L 192.613794 -212.747106 
L 191.119568 -212.747106 
L 189.625342 -212.747106 
L 188.131116 -212.747106 
L 186.63689 -212.747106 
L 185.142664 -212.747106 
L 183.648438 -212.747106 
L 182.154212 -212.747106 
L 180.659986 -212.747106 
L 179.16576 -212.747106 
L 177.671534 -212.747106 
L 176.177308 -212.747106 
L 174.683083 -212.747106 
L 173.188857 -212.747106 
L 171.694631 -212.747106 
L 170.200405 -212.747106 
L 168.706179 -212.747106 
L 167.211953 -212.747106 
L 165.717727 -212.747106 
L 164.223501 -212.747106 
L 162.729275 -212.747106 
L 161.235049 -212.747106 
L 159.740823 -212.747106 
L 158.246597 -212.747106 
L 156.752371 -212.747106 
L 155.258145 -212.747106 
L 153.763919 -212.747106 
L 152.269693 -212.747106 
L 150.775467 -212.747106 
L 149.281242 -212.747106 
L 147.787016 -212.747106 
L 146.29279 -212.747106 
L 144.798564 -212.747106 
L 143.304338 -212.747106 
L 141.810112 -212.747106 
L 140.315886 -212.747106 
L 138.82166 -212.747106 
L 137.327434 -212.747106 
L 135.833208 -212.747106 
L 134.338982 -212.747106 
L 132.844756 -212.747106 
L 131.35053 -212.747106 
L 129.856304 -212.747106 
L 128.362078 -212.747106 
L 126.867852 -212.747106 
L 125.373626 -212.747106 
L 123.8794 -212.747106 
L 122.385175 -212.747106 
L 120.890949 -212.747106 
L 119.396723 -212.747106 
L 117.902497 -212.747106 
L 116.408271 -212.747106 
L 114.914045 -212.747106 
L 113.419819 -212.747106 
L 111.925593 -212.747106 
L 110.431367 -212.747106 
L 108.937141 -212.747106 
L 107.442915 -212.747106 
L 105.948689 -212.747106 
L 104.454463 -212.747106 
L 102.960237 -212.747106 
L 101.466011 -212.747106 
L 99.971785 -212.747106 
L 98.477559 -212.747106 
L 96.983334 -212.747106 
L 95.489108 -212.747106 
L 93.994882 -212.747106 
L 92.500656 -212.747106 
L 91.00643 -212.747106 
L 89.512204 -212.747106 
L 88.017978 -212.747106 
L 86.523752 -212.747106 
L 85.029526 -212.747106 
L 83.5353 -212.747106 
L 82.041074 -212.747106 
L 80.546848 -212.747106 
L 79.052622 -212.747106 
L 77.558396 -212.747106 
L 76.06417 -212.747106 
L 74.569944 -212.747106 
L 73.075718 -212.747106 
L 71.581493 -212.747106 
L 70.087267 -212.747106 
L 68.593041 -212.747106 
L 67.098815 -212.747106 
L 65.604589 -212.747106 
L 64.110363 -212.747106 
L 62.616137 -212.747106 
L 61.121911 -212.747106 
L 59.627685 -212.747106 
L 58.133459 -212.747106 
L 56.639233 -212.747106 
L 55.145007 -212.747106 
L 53.650781 -212.747106 
z
"/>
    </defs>
    <g clip-path="url(#p7805d07568)">
     <use xlink:href="#me9d4dc31f2" x="0" y="353.864" style="fill: #2f6f4f; fill-opacity: 0.16"/>
    </g>
   </g>
   <g id="matplotlib.axis_1">
    <g id="xtick_1">
     <g id="line2d_1">
      <defs>
       <path id="m5e665a89ad" d="M 0 0 
L 0 3.5 
" style="stroke: #8a929b; stroke-width: 0.8"/>
      </defs>
      <g>
       <use xlink:href="#m5e665a89ad" x="53.650781" y="152.276636" style="fill: #8a929b; stroke: #8a929b; stroke-width: 0.8"/>
      </g>
     </g>
    </g>
    <g id="xtick_2">
     <g id="line2d_2">
      <g>
       <use xlink:href="#m5e665a89ad" x="113.170781" y="152.276636" style="fill: #8a929b; stroke: #8a929b; stroke-width: 0.8"/>
      </g>
     </g>
    </g>
    <g id="xtick_3">
     <g id="line2d_3">
      <g>
       <use xlink:href="#m5e665a89ad" x="172.690781" y="152.276636" style="fill: #8a929b; stroke: #8a929b; stroke-width: 0.8"/>
      </g>
     </g>
    </g>
    <g id="xtick_4">
     <g id="line2d_4">
      <g>
       <use xlink:href="#m5e665a89ad" x="232.210781" y="152.276636" style="fill: #8a929b; stroke: #8a929b; stroke-width: 0.8"/>
      </g>
     </g>
    </g>
    <g id="xtick_5">
     <g id="line2d_5">
      <g>
       <use xlink:href="#m5e665a89ad" x="291.730781" y="152.276636" style="fill: #8a929b; stroke: #8a929b; stroke-width: 0.8"/>
      </g>
     </g>
    </g>
    <g id="xtick_6">
     <g id="line2d_6">
      <g>
       <use xlink:href="#m5e665a89ad" x="351.250781" y="152.276636" style="fill: #8a929b; stroke: #8a929b; stroke-width: 0.8"/>
      </g>
     </g>
    </g>
    <g id="xtick_7">
     <g id="line2d_7">
      <g>
       <use xlink:href="#m5e665a89ad" x="410.770781" y="152.276636" style="fill: #8a929b; stroke: #8a929b; stroke-width: 0.8"/>
      </g>
     </g>
    </g>
   </g>
   <g id="matplotlib.axis_2">
    <g id="ytick_1">
     <g id="line2d_8">
      <defs>
       <path id="m1b198b741d" d="M 0 0 
L -3.5 0 
" style="stroke: #8a929b; stroke-width: 0.8"/>
      </defs>
      <g>
       <use xlink:href="#m1b198b741d" x="53.650781" y="141.116894" style="fill: #8a929b; stroke: #8a929b; stroke-width: 0.8"/>
      </g>
     </g>
     <g id="text_1">
      <!-- 0 -->
      <g style="fill: #8a929b" transform="translate(41.560781 144.155957) scale(0.08 -0.08)">
       <defs>
        <path id="DejaVuSans-13" d="M 2034 4250 
Q 1547 4250 1301 3770 
Q 1056 3291 1056 2328 
Q 1056 1369 1301 889 
Q 1547 409 2034 409 
Q 2525 409 2770 889 
Q 3016 1369 3016 2328 
Q 3016 3291 2770 3770 
Q 2525 4250 2034 4250 
z
M 2034 4750 
Q 2819 4750 3233 4129 
Q 3647 3509 3647 2328 
Q 3647 1150 3233 529 
Q 2819 -91 2034 -91 
Q 1250 -91 836 529 
Q 422 1150 422 2328 
Q 422 3509 836 4129 
Q 1250 4750 2034 4750 
z
" transform="scale(0.015625)"/>
       </defs>
       <use xlink:href="#DejaVuSans-13"/>
      </g>
     </g>
    </g>
    <g id="ytick_2">
     <g id="line2d_9">
      <g>
       <use xlink:href="#m1b198b741d" x="53.650781" y="115.451579" style="fill: #8a929b; stroke: #8a929b; stroke-width: 0.8"/>
      </g>
     </g>
     <g id="text_2">
      <!-- 5000 -->
      <g style="fill: #8a929b" transform="translate(26.290781 118.490641) scale(0.08 -0.08)">
       <defs>
        <path id="DejaVuSans-18" d="M 691 4666 
L 3169 4666 
L 3169 4134 
L 1269 4134 
L 1269 2991 
Q 1406 3038 1543 3061 
Q 1681 3084 1819 3084 
Q 2600 3084 3056 2656 
Q 3513 2228 3513 1497 
Q 3513 744 3044 326 
Q 2575 -91 1722 -91 
Q 1428 -91 1123 -41 
Q 819 9 494 109 
L 494 744 
Q 775 591 1075 516 
Q 1375 441 1709 441 
Q 2250 441 2565 725 
Q 2881 1009 2881 1497 
Q 2881 1984 2565 2268 
Q 2250 2553 1709 2553 
Q 1456 2553 1204 2497 
Q 953 2441 691 2322 
L 691 4666 
z
" transform="scale(0.015625)"/>
       </defs>
       <use xlink:href="#DejaVuSans-18"/>
       <use xlink:href="#DejaVuSans-13" transform="translate(63.625 0)"/>
       <use xlink:href="#DejaVuSans-13" transform="translate(127.25 0)"/>
       <use xlink:href="#DejaVuSans-13" transform="translate(190.875 0)"/>
      </g>
     </g>
    </g>
    <g id="ytick_3">
     <g id="line2d_10">
      <g>
       <use xlink:href="#m1b198b741d" x="53.650781" y="89.786263" style="fill: #8a929b; stroke: #8a929b; stroke-width: 0.8"/>
      </g>
     </g>
     <g id="text_3">
      <!-- 10000 -->
      <g style="fill: #8a929b" transform="translate(21.200781 92.825326) scale(0.08 -0.08)">
       <defs>
        <path id="DejaVuSans-14" d="M 794 531 
L 1825 531 
L 1825 4091 
L 703 3866 
L 703 4441 
L 1819 4666 
L 2450 4666 
L 2450 531 
L 3481 531 
L 3481 0 
L 794 0 
L 794 531 
z
" transform="scale(0.015625)"/>
       </defs>
       <use xlink:href="#DejaVuSans-14"/>
       <use xlink:href="#DejaVuSans-13" transform="translate(63.625 0)"/>
       <use xlink:href="#DejaVuSans-13" transform="translate(127.25 0)"/>
       <use xlink:href="#DejaVuSans-13" transform="translate(190.875 0)"/>
       <use xlink:href="#DejaVuSans-13" transform="translate(254.5 0)"/>
      </g>
     </g>
    </g>
    <g id="ytick_4">
     <g id="line2d_11">
      <g>
       <use xlink:href="#m1b198b741d" x="53.650781" y="64.120948" style="fill: #8a929b; stroke: #8a929b; stroke-width: 0.8"/>
      </g>
     </g>
     <g id="text_4">
      <!-- 15000 -->
      <g style="fill: #8a929b" transform="translate(21.200781 67.16001) scale(0.08 -0.08)">
       <use xlink:href="#DejaVuSans-14"/>
       <use xlink:href="#DejaVuSans-18" transform="translate(63.625 0)"/>
       <use xlink:href="#DejaVuSans-13" transform="translate(127.25 0)"/>
       <use xlink:href="#DejaVuSans-13" transform="translate(190.875 0)"/>
       <use xlink:href="#DejaVuSans-13" transform="translate(254.5 0)"/>
      </g>
     </g>
    </g>
    <g id="ytick_5">
     <g id="line2d_12">
      <g>
       <use xlink:href="#m1b198b741d" x="53.650781" y="38.455632" style="fill: #8a929b; stroke: #8a929b; stroke-width: 0.8"/>
      </g>
     </g>
     <g id="text_5">
      <!-- 20000 -->
      <g style="fill: #8a929b" transform="translate(21.200781 41.494695) scale(0.08 -0.08)">
       <defs>
        <path id="DejaVuSans-15" d="M 1228 531 
L 3431 531 
L 3431 0 
L 469 0 
L 469 531 
Q 828 903 1448 1529 
Q 2069 2156 2228 2338 
Q 2531 2678 2651 2914 
Q 2772 3150 2772 3378 
Q 2772 3750 2511 3984 
Q 2250 4219 1831 4219 
Q 1534 4219 1204 4116 
Q 875 4013 500 3803 
L 500 4441 
Q 881 4594 1212 4672 
Q 1544 4750 1819 4750 
Q 2544 4750 2975 4387 
Q 3406 4025 3406 3419 
Q 3406 3131 3298 2873 
Q 3191 2616 2906 2266 
Q 2828 2175 2409 1742 
Q 1991 1309 1228 531 
z
" transform="scale(0.015625)"/>
       </defs>
       <use xlink:href="#DejaVuSans-15"/>
       <use xlink:href="#DejaVuSans-13" transform="translate(63.625 0)"/>
       <use xlink:href="#DejaVuSans-13" transform="translate(127.25 0)"/>
       <use xlink:href="#DejaVuSans-13" transform="translate(190.875 0)"/>
       <use xlink:href="#DejaVuSans-13" transform="translate(254.5 0)"/>
      </g>
     </g>
    </g>
    <g id="ytick_6">
     <g id="line2d_13">
      <g>
       <use xlink:href="#m1b198b741d" x="53.650781" y="12.790317" style="fill: #8a929b; stroke: #8a929b; stroke-width: 0.8"/>
      </g>
     </g>
     <g id="text_6">
      <!-- 25000 -->
      <g style="fill: #8a929b" transform="translate(21.200781 15.829379) scale(0.08 -0.08)">
       <use xlink:href="#DejaVuSans-15"/>
       <use xlink:href="#DejaVuSans-18" transform="translate(63.625 0)"/>
       <use xlink:href="#DejaVuSans-13" transform="translate(127.25 0)"/>
       <use xlink:href="#DejaVuSans-13" transform="translate(190.875 0)"/>
       <use xlink:href="#DejaVuSans-13" transform="translate(254.5 0)"/>
      </g>
     </g>
    </g>
    <g id="text_7">
     <!-- dE/dr  (N/C/m) -->
     <g style="fill: #1f2933" transform="translate(14.798438 115.536755) rotate(-90) scale(0.1 -0.1)">
      <defs>
       <path id="DejaVuSans-47" d="M 2906 2969 
L 2906 4863 
L 3481 4863 
L 3481 0 
L 2906 0 
L 2906 525 
Q 2725 213 2448 61 
Q 2172 -91 1784 -91 
Q 1150 -91 751 415 
Q 353 922 353 1747 
Q 353 2572 751 3078 
Q 1150 3584 1784 3584 
Q 2172 3584 2448 3432 
Q 2725 3281 2906 2969 
z
M 947 1747 
Q 947 1113 1208 752 
Q 1469 391 1925 391 
Q 2381 391 2643 752 
Q 2906 1113 2906 1747 
Q 2906 2381 2643 2742 
Q 2381 3103 1925 3103 
Q 1469 3103 1208 2742 
Q 947 2381 947 1747 
z
" transform="scale(0.015625)"/>
       <path id="DejaVuSans-28" d="M 628 4666 
L 3578 4666 
L 3578 4134 
L 1259 4134 
L 1259 2753 
L 3481 2753 
L 3481 2222 
L 1259 2222 
L 1259 531 
L 3634 531 
L 3634 0 
L 628 0 
L 628 4666 
z
" transform="scale(0.015625)"/>
       <path id="DejaVuSans-12" d="M 1625 4666 
L 2156 4666 
L 531 -594 
L 0 -594 
L 1625 4666 
z
" transform="scale(0.015625)"/>
       <path id="DejaVuSans-55" d="M 2631 2963 
Q 2534 3019 2420 3045 
Q 2306 3072 2169 3072 
Q 1681 3072 1420 2755 
Q 1159 2438 1159 1844 
L 1159 0 
L 581 0 
L 581 3500 
L 1159 3500 
L 1159 2956 
Q 1341 3275 1631 3429 
Q 1922 3584 2338 3584 
Q 2397 3584 2469 3576 
Q 2541 3569 2628 3553 
L 2631 2963 
z
" transform="scale(0.015625)"/>
       <path id="DejaVuSans-3" transform="scale(0.015625)"/>
       <path id="DejaVuSans-b" d="M 1984 4856 
Q 1566 4138 1362 3434 
Q 1159 2731 1159 2009 
Q 1159 1288 1364 580 
Q 1569 -128 1984 -844 
L 1484 -844 
Q 1016 -109 783 600 
Q 550 1309 550 2009 
Q 550 2706 781 3412 
Q 1013 4119 1484 4856 
L 1984 4856 
z
" transform="scale(0.015625)"/>
       <path id="DejaVuSans-31" d="M 628 4666 
L 1478 4666 
L 3547 763 
L 3547 4666 
L 4159 4666 
L 4159 0 
L 3309 0 
L 1241 3903 
L 1241 0 
L 628 0 
L 628 4666 
z
" transform="scale(0.015625)"/>
       <path id="DejaVuSans-26" d="M 4122 4306 
L 4122 3641 
Q 3803 3938 3442 4084 
Q 3081 4231 2675 4231 
Q 1875 4231 1450 3742 
Q 1025 3253 1025 2328 
Q 1025 1406 1450 917 
Q 1875 428 2675 428 
Q 3081 428 3442 575 
Q 3803 722 4122 1019 
L 4122 359 
Q 3791 134 3420 21 
Q 3050 -91 2638 -91 
Q 1578 -91 968 557 
Q 359 1206 359 2328 
Q 359 3453 968 4101 
Q 1578 4750 2638 4750 
Q 3056 4750 3426 4639 
Q 3797 4528 4122 4306 
z
" transform="scale(0.015625)"/>
       <path id="DejaVuSans-50" d="M 3328 2828 
Q 3544 3216 3844 3400 
Q 4144 3584 4550 3584 
Q 5097 3584 5394 3201 
Q 5691 2819 5691 2113 
L 5691 0 
L 5113 0 
L 5113 2094 
Q 5113 2597 4934 2840 
Q 4756 3084 4391 3084 
Q 3944 3084 3684 2787 
Q 3425 2491 3425 1978 
L 3425 0 
L 2847 0 
L 2847 2094 
Q 2847 2600 2669 2842 
Q 2491 3084 2119 3084 
Q 1678 3084 1418 2786 
Q 1159 2488 1159 1978 
L 1159 0 
L 581 0 
L 581 3500 
L 1159 3500 
L 1159 2956 
Q 1356 3278 1631 3431 
Q 1906 3584 2284 3584 
Q 2666 3584 2933 3390 
Q 3200 3197 3328 2828 
z
" transform="scale(0.015625)"/>
       <path id="DejaVuSans-c" d="M 513 4856 
L 1013 4856 
Q 1481 4119 1714 3412 
Q 1947 2706 1947 2009 
Q 1947 1309 1714 600 
Q 1481 -109 1013 -844 
L 513 -844 
Q 928 -128 1133 580 
Q 1338 1288 1338 2009 
Q 1338 2731 1133 3434 
Q 928 4138 513 4856 
z
" transform="scale(0.015625)"/>
      </defs>
      <use xlink:href="#DejaVuSans-47"/>
      <use xlink:href="#DejaVuSans-28" transform="translate(63.484375 0)"/>
      <use xlink:href="#DejaVuSans-12" transform="translate(126.671875 0)"/>
      <use xlink:href="#DejaVuSans-47" transform="translate(160.359375 0)"/>
      <use xlink:href="#DejaVuSans-55" transform="translate(223.84375 0)"/>
      <use xlink:href="#DejaVuSans-3" transform="translate(264.953125 0)"/>
      <use xlink:href="#DejaVuSans-3" transform="translate(296.734375 0)"/>
      <use xlink:href="#DejaVuSans-b" transform="translate(328.515625 0)"/>
      <use xlink:href="#DejaVuSans-31" transform="translate(367.53125 0)"/>
      <use xlink:href="#DejaVuSans-12" transform="translate(442.34375 0)"/>
      <use xlink:href="#DejaVuSans-26" transform="translate(476.03125 0)"/>
      <use xlink:href="#DejaVuSans-12" transform="translate(545.859375 0)"/>
      <use xlink:href="#DejaVuSans-50" transform="translate(579.546875 0)"/>
      <use xlink:href="#DejaVuSans-c" transform="translate(676.953125 0)"/>
     </g>
    </g>
   </g>
   <g id="line2d_14">
    <path d="M 53.650781 141.116894 
L 410.770781 141.116894 
" clip-path="url(#p7805d07568)" style="fill: none; stroke: #d8d4c8; stroke-linecap: square"/>
   </g>
   <g id="line2d_15">
    <path d="M 53.650781 141.116894 
L 64.110363 115.932736 
L 70.087267 102.200777 
L 74.569944 92.436483 
L 79.052622 83.243277 
L 83.5353 74.703628 
L 86.523752 69.405709 
L 89.512204 64.440777 
L 92.500656 59.818978 
L 95.489108 55.546776 
L 98.477559 51.627144 
L 101.466011 48.059806 
L 104.454463 44.841513 
L 107.442915 41.966349 
L 110.431367 39.426056 
L 113.419819 37.210364 
L 116.408271 35.307314 
L 119.396723 33.70358 
L 122.385175 32.384768 
L 125.373626 31.335698 
L 128.362078 30.540663 
L 131.35053 29.983662 
L 134.338982 29.648602 
L 137.327434 29.519482 
L 140.315886 29.580545 
L 143.304338 29.816403 
L 146.29279 30.212144 
L 150.775467 31.074312 
L 155.258145 32.218308 
L 159.740823 33.601828 
L 164.223501 35.186184 
L 170.200405 37.551037 
L 177.671534 40.811718 
L 186.63689 45.016547 
L 201.579149 52.332731 
L 218.015635 60.322474 
L 229.969442 65.877404 
L 240.429024 70.48812 
L 250.888606 74.837535 
L 261.348187 78.915252 
L 271.807769 82.721495 
L 282.26735 86.263447 
L 292.726932 89.552627 
L 303.186513 92.603057 
L 313.646095 95.429985 
L 324.105677 98.049031 
L 336.059484 100.807441 
L 348.013292 103.336569 
L 361.461325 105.933569 
L 374.909359 108.293845 
L 389.851618 110.668646 
L 404.793877 112.811789 
L 410.770781 113.610262 
L 410.770781 113.610262 
" clip-path="url(#p7805d07568)" style="fill: none; stroke: #1f2933; stroke-width: 2.2; stroke-linecap: square"/>
   </g>
   <g id="patch_3">
    <path d="M 53.650781 152.276636 
L 53.650781 7.2 
" style="fill: none; stroke: #d8d4c8; stroke-width: 0.8; stroke-linejoin: miter; stroke-linecap: square"/>
   </g>
   <g id="patch_4">
    <path d="M 53.650781 152.276636 
L 410.770781 152.276636 
" style="fill: none; stroke: #d8d4c8; stroke-width: 0.8; stroke-linejoin: miter; stroke-linecap: square"/>
   </g>
   <g id="text_8">
    <g id="patch_5">
     <path d="M 158.665328 114.421506 
L 305.756234 114.421506 
Q 308.164234 114.421506 308.164234 112.013506 
L 308.164234 103.412834 
Q 308.164234 101.004834 305.756234 101.004834 
L 158.665328 101.004834 
Q 156.257328 101.004834 156.257328 103.412834 
L 156.257328 112.013506 
Q 156.257328 114.421506 158.665328 114.421506 
z
" style="fill: #fbfaf7; opacity: 0.92; stroke: #d8d4c8; stroke-width: 0.6; stroke-linejoin: miter"/>
    </g>
    <!-- shaded area  =  ∫ F dx  =  work W -->
    <g style="fill: #1f2933" transform="translate(158.665328 109.94749) scale(0.086 -0.086)">
     <defs>
      <path id="DejaVuSans-56" d="M 2834 3397 
L 2834 2853 
Q 2591 2978 2328 3040 
Q 2066 3103 1784 3103 
Q 1356 3103 1142 2972 
Q 928 2841 928 2578 
Q 928 2378 1081 2264 
Q 1234 2150 1697 2047 
L 1894 2003 
Q 2506 1872 2764 1633 
Q 3022 1394 3022 966 
Q 3022 478 2636 193 
Q 2250 -91 1575 -91 
Q 1294 -91 989 -36 
Q 684 19 347 128 
L 347 722 
Q 666 556 975 473 
Q 1284 391 1588 391 
Q 1994 391 2212 530 
Q 2431 669 2431 922 
Q 2431 1156 2273 1281 
Q 2116 1406 1581 1522 
L 1381 1569 
Q 847 1681 609 1914 
Q 372 2147 372 2553 
Q 372 3047 722 3315 
Q 1072 3584 1716 3584 
Q 2034 3584 2315 3537 
Q 2597 3491 2834 3397 
z
" transform="scale(0.015625)"/>
      <path id="DejaVuSans-4b" d="M 3513 2113 
L 3513 0 
L 2938 0 
L 2938 2094 
Q 2938 2591 2744 2837 
Q 2550 3084 2163 3084 
Q 1697 3084 1428 2787 
Q 1159 2491 1159 1978 
L 1159 0 
L 581 0 
L 581 4863 
L 1159 4863 
L 1159 2956 
Q 1366 3272 1645 3428 
Q 1925 3584 2291 3584 
Q 2894 3584 3203 3211 
Q 3513 2838 3513 2113 
z
" transform="scale(0.015625)"/>
      <path id="DejaVuSans-44" d="M 2194 1759 
Q 1497 1759 1228 1600 
Q 959 1441 959 1056 
Q 959 750 1161 570 
Q 1363 391 1709 391 
Q 2188 391 2477 730 
Q 2766 1069 2766 1631 
L 2766 1759 
L 2194 1759 
z
M 3341 1997 
L 3341 0 
L 2766 0 
L 2766 531 
Q 2569 213 2275 61 
Q 1981 -91 1556 -91 
Q 1019 -91 701 211 
Q 384 513 384 1019 
Q 384 1609 779 1909 
Q 1175 2209 1959 2209 
L 2766 2209 
L 2766 2266 
Q 2766 2663 2505 2880 
Q 2244 3097 1772 3097 
Q 1472 3097 1187 3025 
Q 903 2953 641 2809 
L 641 3341 
Q 956 3463 1253 3523 
Q 1550 3584 1831 3584 
Q 2591 3584 2966 3190 
Q 3341 2797 3341 1997 
z
" transform="scale(0.015625)"/>
      <path id="DejaVuSans-48" d="M 3597 1894 
L 3597 1613 
L 953 1613 
Q 991 1019 1311 708 
Q 1631 397 2203 397 
Q 2534 397 2845 478 
Q 3156 559 3463 722 
L 3463 178 
Q 3153 47 2828 -22 
Q 2503 -91 2169 -91 
Q 1331 -91 842 396 
Q 353 884 353 1716 
Q 353 2575 817 3079 
Q 1281 3584 2069 3584 
Q 2775 3584 3186 3129 
Q 3597 2675 3597 1894 
z
M 3022 2063 
Q 3016 2534 2758 2815 
Q 2500 3097 2075 3097 
Q 1594 3097 1305 2825 
Q 1016 2553 972 2059 
L 3022 2063 
z
" transform="scale(0.015625)"/>
      <path id="DejaVuSans-20" d="M 678 2906 
L 4684 2906 
L 4684 2381 
L 678 2381 
L 678 2906 
z
M 678 1631 
L 4684 1631 
L 4684 1100 
L 678 1100 
L 678 1631 
z
" transform="scale(0.015625)"/>
      <path id="DejaVuSans-cb5" d="M 1509 3906 
Q 1534 4428 1787 4636 
Q 2041 4844 2277 4844 
Q 2513 4844 2709 4648 
Q 2906 4453 2969 4016 
L 2506 3969 
Q 2453 4375 2275 4375 
Q 2053 4375 2028 3828 
L 1825 -422 
Q 1800 -944 1547 -1151 
Q 1294 -1359 1058 -1359 
Q 822 -1359 625 -1164 
Q 428 -969 366 -531 
L 828 -484 
Q 881 -891 1059 -891 
Q 1281 -891 1306 -344 
L 1509 3906 
z
" transform="scale(0.015625)"/>
      <path id="DejaVuSans-29" d="M 628 4666 
L 3309 4666 
L 3309 4134 
L 1259 4134 
L 1259 2759 
L 3109 2759 
L 3109 2228 
L 1259 2228 
L 1259 0 
L 628 0 
L 628 4666 
z
" transform="scale(0.015625)"/>
      <path id="DejaVuSans-5b" d="M 3513 3500 
L 2247 1797 
L 3578 0 
L 2900 0 
L 1881 1375 
L 863 0 
L 184 0 
L 1544 1831 
L 300 3500 
L 978 3500 
L 1906 2253 
L 2834 3500 
L 3513 3500 
z
" transform="scale(0.015625)"/>
      <path id="DejaVuSans-5a" d="M 269 3500 
L 844 3500 
L 1563 769 
L 2278 3500 
L 2956 3500 
L 3675 769 
L 4391 3500 
L 4966 3500 
L 4050 0 
L 3372 0 
L 2619 2869 
L 1863 0 
L 1184 0 
L 269 3500 
z
" transform="scale(0.015625)"/>
      <path id="DejaVuSans-52" d="M 1959 3097 
Q 1497 3097 1228 2736 
Q 959 2375 959 1747 
Q 959 1119 1226 758 
Q 1494 397 1959 397 
Q 2419 397 2687 759 
Q 2956 1122 2956 1747 
Q 2956 2369 2687 2733 
Q 2419 3097 1959 3097 
z
M 1959 3584 
Q 2709 3584 3137 3096 
Q 3566 2609 3566 1747 
Q 3566 888 3137 398 
Q 2709 -91 1959 -91 
Q 1206 -91 779 398 
Q 353 888 353 1747 
Q 353 2609 779 3096 
Q 1206 3584 1959 3584 
z
" transform="scale(0.015625)"/>
      <path id="DejaVuSans-4e" d="M 581 4863 
L 1159 4863 
L 1159 1991 
L 2875 3500 
L 3609 3500 
L 1753 1863 
L 3688 0 
L 2938 0 
L 1159 1709 
L 1159 0 
L 581 0 
L 581 4863 
z
" transform="scale(0.015625)"/>
      <path id="DejaVuSans-3a" d="M 213 4666 
L 850 4666 
L 1831 722 
L 2809 4666 
L 3519 4666 
L 4500 722 
L 5478 4666 
L 6119 4666 
L 4947 0 
L 4153 0 
L 3169 4050 
L 2175 0 
L 1381 0 
L 213 4666 
z
" transform="scale(0.015625)"/>
     </defs>
     <use xlink:href="#DejaVuSans-56"/>
     <use xlink:href="#DejaVuSans-4b" transform="translate(52.09375 0)"/>
     <use xlink:href="#DejaVuSans-44" transform="translate(115.46875 0)"/>
     <use xlink:href="#DejaVuSans-47" transform="translate(176.75 0)"/>
     <use xlink:href="#DejaVuSans-48" transform="translate(240.234375 0)"/>
     <use xlink:href="#DejaVuSans-47" transform="translate(301.765625 0)"/>
     <use xlink:href="#DejaVuSans-3" transform="translate(365.25 0)"/>
     <use xlink:href="#DejaVuSans-44" transform="translate(397.03125 0)"/>
     <use xlink:href="#DejaVuSans-55" transform="translate(458.3125 0)"/>
     <use xlink:href="#DejaVuSans-48" transform="translate(497.21875 0)"/>
     <use xlink:href="#DejaVuSans-44" transform="translate(558.75 0)"/>
     <use xlink:href="#DejaVuSans-3" transform="translate(620.03125 0)"/>
     <use xlink:href="#DejaVuSans-3" transform="translate(651.8125 0)"/>
     <use xlink:href="#DejaVuSans-20" transform="translate(683.59375 0)"/>
     <use xlink:href="#DejaVuSans-3" transform="translate(767.390625 0)"/>
     <use xlink:href="#DejaVuSans-3" transform="translate(799.171875 0)"/>
     <use xlink:href="#DejaVuSans-cb5" transform="translate(830.953125 0)"/>
     <use xlink:href="#DejaVuSans-3" transform="translate(883.046875 0)"/>
     <use xlink:href="#DejaVuSans-29" transform="translate(914.828125 0)"/>
     <use xlink:href="#DejaVuSans-3" transform="translate(972.34375 0)"/>
     <use xlink:href="#DejaVuSans-47" transform="translate(1004.125 0)"/>
     <use xlink:href="#DejaVuSans-5b" transform="translate(1067.609375 0)"/>
     <use xlink:href="#DejaVuSans-3" transform="translate(1126.796875 0)"/>
     <use xlink:href="#DejaVuSans-3" transform="translate(1158.578125 0)"/>
     <use xlink:href="#DejaVuSans-20" transform="translate(1190.359375 0)"/>
     <use xlink:href="#DejaVuSans-3" transform="translate(1274.15625 0)"/>
     <use xlink:href="#DejaVuSans-3" transform="translate(1305.9375 0)"/>
     <use xlink:href="#DejaVuSans-5a" transform="translate(1337.71875 0)"/>
     <use xlink:href="#DejaVuSans-52" transform="translate(1419.5 0)"/>
     <use xlink:href="#DejaVuSans-55" transform="translate(1480.6875 0)"/>
     <use xlink:href="#DejaVuSans-4e" transform="translate(1521.796875 0)"/>
     <use xlink:href="#DejaVuSans-3" transform="translate(1579.703125 0)"/>
     <use xlink:href="#DejaVuSans-3a" transform="translate(1611.484375 0)"/>
    </g>
   </g>
  </g>
  <g id="axes_2">
   <g id="patch_6">
    <path d="M 53.650781 317.664 
L 410.770781 317.664 
L 410.770781 172.587364 
L 53.650781 172.587364 
z
" style="fill: #fbfaf7"/>
   </g>
   <g id="matplotlib.axis_3">
    <g id="xtick_8">
     <g id="line2d_16">
      <g>
       <use xlink:href="#m5e665a89ad" x="53.650781" y="317.664" style="fill: #8a929b; stroke: #8a929b; stroke-width: 0.8"/>
      </g>
     </g>
     <g id="text_9">
      <!-- 0.00 -->
      <g style="fill: #8a929b" transform="translate(44.744531 330.742125) scale(0.08 -0.08)">
       <defs>
        <path id="DejaVuSans-11" d="M 684 794 
L 1344 794 
L 1344 0 
L 684 0 
L 684 794 
z
" transform="scale(0.015625)"/>
       </defs>
       <use xlink:href="#DejaVuSans-13"/>
       <use xlink:href="#DejaVuSans-11" transform="translate(63.625 0)"/>
       <use xlink:href="#DejaVuSans-13" transform="translate(95.40625 0)"/>
       <use xlink:href="#DejaVuSans-13" transform="translate(159.03125 0)"/>
      </g>
     </g>
    </g>
    <g id="xtick_9">
     <g id="line2d_17">
      <g>
       <use xlink:href="#m5e665a89ad" x="113.170781" y="317.664" style="fill: #8a929b; stroke: #8a929b; stroke-width: 0.8"/>
      </g>
     </g>
     <g id="text_10">
      <!-- 0.05 -->
      <g style="fill: #8a929b" transform="translate(104.264531 330.742125) scale(0.08 -0.08)">
       <use xlink:href="#DejaVuSans-13"/>
       <use xlink:href="#DejaVuSans-11" transform="translate(63.625 0)"/>
       <use xlink:href="#DejaVuSans-13" transform="translate(95.40625 0)"/>
       <use xlink:href="#DejaVuSans-18" transform="translate(159.03125 0)"/>
      </g>
     </g>
    </g>
    <g id="xtick_10">
     <g id="line2d_18">
      <g>
       <use xlink:href="#m5e665a89ad" x="172.690781" y="317.664" style="fill: #8a929b; stroke: #8a929b; stroke-width: 0.8"/>
      </g>
     </g>
     <g id="text_11">
      <!-- 0.10 -->
      <g style="fill: #8a929b" transform="translate(163.784531 330.742125) scale(0.08 -0.08)">
       <use xlink:href="#DejaVuSans-13"/>
       <use xlink:href="#DejaVuSans-11" transform="translate(63.625 0)"/>
       <use xlink:href="#DejaVuSans-14" transform="translate(95.40625 0)"/>
       <use xlink:href="#DejaVuSans-13" transform="translate(159.03125 0)"/>
      </g>
     </g>
    </g>
    <g id="xtick_11">
     <g id="line2d_19">
      <g>
       <use xlink:href="#m5e665a89ad" x="232.210781" y="317.664" style="fill: #8a929b; stroke: #8a929b; stroke-width: 0.8"/>
      </g>
     </g>
     <g id="text_12">
      <!-- 0.15 -->
      <g style="fill: #8a929b" transform="translate(223.304531 330.742125) scale(0.08 -0.08)">
       <use xlink:href="#DejaVuSans-13"/>
       <use xlink:href="#DejaVuSans-11" transform="translate(63.625 0)"/>
       <use xlink:href="#DejaVuSans-14" transform="translate(95.40625 0)"/>
       <use xlink:href="#DejaVuSans-18" transform="translate(159.03125 0)"/>
      </g>
     </g>
    </g>
    <g id="xtick_12">
     <g id="line2d_20">
      <g>
       <use xlink:href="#m5e665a89ad" x="291.730781" y="317.664" style="fill: #8a929b; stroke: #8a929b; stroke-width: 0.8"/>
      </g>
     </g>
     <g id="text_13">
      <!-- 0.20 -->
      <g style="fill: #8a929b" transform="translate(282.824531 330.742125) scale(0.08 -0.08)">
       <use xlink:href="#DejaVuSans-13"/>
       <use xlink:href="#DejaVuSans-11" transform="translate(63.625 0)"/>
       <use xlink:href="#DejaVuSans-15" transform="translate(95.40625 0)"/>
       <use xlink:href="#DejaVuSans-13" transform="translate(159.03125 0)"/>
      </g>
     </g>
    </g>
    <g id="xtick_13">
     <g id="line2d_21">
      <g>
       <use xlink:href="#m5e665a89ad" x="351.250781" y="317.664" style="fill: #8a929b; stroke: #8a929b; stroke-width: 0.8"/>
      </g>
     </g>
     <g id="text_14">
      <!-- 0.25 -->
      <g style="fill: #8a929b" transform="translate(342.344531 330.742125) scale(0.08 -0.08)">
       <use xlink:href="#DejaVuSans-13"/>
       <use xlink:href="#DejaVuSans-11" transform="translate(63.625 0)"/>
       <use xlink:href="#DejaVuSans-15" transform="translate(95.40625 0)"/>
       <use xlink:href="#DejaVuSans-18" transform="translate(159.03125 0)"/>
      </g>
     </g>
    </g>
    <g id="xtick_14">
     <g id="line2d_22">
      <g>
       <use xlink:href="#m5e665a89ad" x="410.770781" y="317.664" style="fill: #8a929b; stroke: #8a929b; stroke-width: 0.8"/>
      </g>
     </g>
     <g id="text_15">
      <!-- 0.30 -->
      <g style="fill: #8a929b" transform="translate(401.864531 330.742125) scale(0.08 -0.08)">
       <defs>
        <path id="DejaVuSans-16" d="M 2597 2516 
Q 3050 2419 3304 2112 
Q 3559 1806 3559 1356 
Q 3559 666 3084 287 
Q 2609 -91 1734 -91 
Q 1441 -91 1130 -33 
Q 819 25 488 141 
L 488 750 
Q 750 597 1062 519 
Q 1375 441 1716 441 
Q 2309 441 2620 675 
Q 2931 909 2931 1356 
Q 2931 1769 2642 2001 
Q 2353 2234 1838 2234 
L 1294 2234 
L 1294 2753 
L 1863 2753 
Q 2328 2753 2575 2939 
Q 2822 3125 2822 3475 
Q 2822 3834 2567 4026 
Q 2313 4219 1838 4219 
Q 1578 4219 1281 4162 
Q 984 4106 628 3988 
L 628 4550 
Q 988 4650 1302 4700 
Q 1616 4750 1894 4750 
Q 2613 4750 3031 4423 
Q 3450 4097 3450 3541 
Q 3450 3153 3228 2886 
Q 3006 2619 2597 2516 
z
" transform="scale(0.015625)"/>
       </defs>
       <use xlink:href="#DejaVuSans-13"/>
       <use xlink:href="#DejaVuSans-11" transform="translate(63.625 0)"/>
       <use xlink:href="#DejaVuSans-16" transform="translate(95.40625 0)"/>
       <use xlink:href="#DejaVuSans-13" transform="translate(159.03125 0)"/>
      </g>
     </g>
    </g>
    <g id="text_16">
     <!-- r  (m) -->
     <g style="fill: #1f2933" transform="translate(218.205312 344.261656) scale(0.1 -0.1)">
      <use xlink:href="#DejaVuSans-55"/>
      <use xlink:href="#DejaVuSans-3" transform="translate(41.109375 0)"/>
      <use xlink:href="#DejaVuSans-3" transform="translate(72.890625 0)"/>
      <use xlink:href="#DejaVuSans-b" transform="translate(104.671875 0)"/>
      <use xlink:href="#DejaVuSans-50" transform="translate(143.6875 0)"/>
      <use xlink:href="#DejaVuSans-c" transform="translate(241.09375 0)"/>
     </g>
    </g>
   </g>
   <g id="matplotlib.axis_4">
    <g id="ytick_7">
     <g id="line2d_23">
      <g>
       <use xlink:href="#m1b198b741d" x="53.650781" y="306.504259" style="fill: #8a929b; stroke: #8a929b; stroke-width: 0.8"/>
      </g>
     </g>
     <g id="text_17">
      <!-- 0 -->
      <g style="fill: #8a929b" transform="translate(41.560781 309.543321) scale(0.08 -0.08)">
       <use xlink:href="#DejaVuSans-13"/>
      </g>
     </g>
    </g>
    <g id="ytick_8">
     <g id="line2d_24">
      <g>
       <use xlink:href="#m1b198b741d" x="53.650781" y="277.610563" style="fill: #8a929b; stroke: #8a929b; stroke-width: 0.8"/>
      </g>
     </g>
     <g id="text_18">
      <!-- 1000 -->
      <g style="fill: #8a929b" transform="translate(26.290781 280.649625) scale(0.08 -0.08)">
       <use xlink:href="#DejaVuSans-14"/>
       <use xlink:href="#DejaVuSans-13" transform="translate(63.625 0)"/>
       <use xlink:href="#DejaVuSans-13" transform="translate(127.25 0)"/>
       <use xlink:href="#DejaVuSans-13" transform="translate(190.875 0)"/>
      </g>
     </g>
    </g>
    <g id="ytick_9">
     <g id="line2d_25">
      <g>
       <use xlink:href="#m1b198b741d" x="53.650781" y="248.716866" style="fill: #8a929b; stroke: #8a929b; stroke-width: 0.8"/>
      </g>
     </g>
     <g id="text_19">
      <!-- 2000 -->
      <g style="fill: #8a929b" transform="translate(26.290781 251.755929) scale(0.08 -0.08)">
       <use xlink:href="#DejaVuSans-15"/>
       <use xlink:href="#DejaVuSans-13" transform="translate(63.625 0)"/>
       <use xlink:href="#DejaVuSans-13" transform="translate(127.25 0)"/>
       <use xlink:href="#DejaVuSans-13" transform="translate(190.875 0)"/>
      </g>
     </g>
    </g>
    <g id="ytick_10">
     <g id="line2d_26">
      <g>
       <use xlink:href="#m1b198b741d" x="53.650781" y="219.82317" style="fill: #8a929b; stroke: #8a929b; stroke-width: 0.8"/>
      </g>
     </g>
     <g id="text_20">
      <!-- 3000 -->
      <g style="fill: #8a929b" transform="translate(26.290781 222.862233) scale(0.08 -0.08)">
       <use xlink:href="#DejaVuSans-16"/>
       <use xlink:href="#DejaVuSans-13" transform="translate(63.625 0)"/>
       <use xlink:href="#DejaVuSans-13" transform="translate(127.25 0)"/>
       <use xlink:href="#DejaVuSans-13" transform="translate(190.875 0)"/>
      </g>
     </g>
    </g>
    <g id="ytick_11">
     <g id="line2d_27">
      <g>
       <use xlink:href="#m1b198b741d" x="53.650781" y="190.929474" style="fill: #8a929b; stroke: #8a929b; stroke-width: 0.8"/>
      </g>
     </g>
     <g id="text_21">
      <!-- 4000 -->
      <g style="fill: #8a929b" transform="translate(26.290781 193.968537) scale(0.08 -0.08)">
       <defs>
        <path id="DejaVuSans-17" d="M 2419 4116 
L 825 1625 
L 2419 1625 
L 2419 4116 
z
M 2253 4666 
L 3047 4666 
L 3047 1625 
L 3713 1625 
L 3713 1100 
L 3047 1100 
L 3047 0 
L 2419 0 
L 2419 1100 
L 313 1100 
L 313 1709 
L 2253 4666 
z
" transform="scale(0.015625)"/>
       </defs>
       <use xlink:href="#DejaVuSans-17"/>
       <use xlink:href="#DejaVuSans-13" transform="translate(63.625 0)"/>
       <use xlink:href="#DejaVuSans-13" transform="translate(127.25 0)"/>
       <use xlink:href="#DejaVuSans-13" transform="translate(190.875 0)"/>
      </g>
     </g>
    </g>
    <g id="text_22">
     <!-- E  (N/C) -->
     <g style="fill: #1f2933" transform="translate(19.888438 264.281151) rotate(-90) scale(0.1 -0.1)">
      <use xlink:href="#DejaVuSans-28"/>
      <use xlink:href="#DejaVuSans-3" transform="translate(63.1875 0)"/>
      <use xlink:href="#DejaVuSans-3" transform="translate(94.96875 0)"/>
      <use xlink:href="#DejaVuSans-b" transform="translate(126.75 0)"/>
      <use xlink:href="#DejaVuSans-31" transform="translate(165.765625 0)"/>
      <use xlink:href="#DejaVuSans-12" transform="translate(240.578125 0)"/>
      <use xlink:href="#DejaVuSans-26" transform="translate(274.265625 0)"/>
      <use xlink:href="#DejaVuSans-c" transform="translate(344.09375 0)"/>
     </g>
    </g>
   </g>
   <g id="line2d_28">
    <path d="M 53.650781 306.504259 
L 410.770781 306.504259 
" clip-path="url(#pff6d3f90c9)" style="fill: none; stroke: #d8d4c8; stroke-linecap: square"/>
   </g>
   <g id="line2d_29">
    <path d="M 53.650781 306.504259 
L 58.133459 306.388663 
L 62.616137 306.043346 
L 67.098815 305.472658 
L 71.581493 304.683689 
L 76.06417 303.686017 
L 80.546848 302.491405 
L 85.029526 301.113425 
L 91.00643 299.016928 
L 96.983334 296.659292 
L 102.960237 294.080095 
L 110.431367 290.604671 
L 119.396723 286.162596 
L 131.35053 279.966796 
L 159.740823 265.138585 
L 171.694631 259.185484 
L 182.154212 254.208697 
L 192.613794 249.473867 
L 203.073375 244.99165 
L 213.532957 240.763524 
L 223.992539 236.784666 
L 234.45212 233.046136 
L 244.911702 229.536478 
L 255.371283 226.242865 
L 267.325091 222.726086 
L 279.278898 219.453985 
L 291.232706 216.407179 
L 304.680739 213.225995 
L 318.128773 210.282441 
L 331.576806 207.554311 
L 346.519066 204.751306 
L 361.461325 202.164718 
L 377.897811 199.543303 
L 395.828522 196.921848 
L 410.770781 194.906847 
L 410.770781 194.906847 
" clip-path="url(#pff6d3f90c9)" style="fill: none; stroke: #2f6f4f; stroke-width: 2.2; stroke-linecap: square"/>
   </g>
   <g id="patch_7">
    <path d="M 53.650781 317.664 
L 53.650781 172.587364 
" style="fill: none; stroke: #d8d4c8; stroke-width: 0.8; stroke-linejoin: miter; stroke-linecap: square"/>
   </g>
   <g id="patch_8">
    <path d="M 53.650781 317.664 
L 410.770781 317.664 
" style="fill: none; stroke: #d8d4c8; stroke-width: 0.8; stroke-linejoin: miter; stroke-linecap: square"/>
   </g>
   <g id="text_23">
    <g id="patch_9">
     <path d="M 283.065181 233.589383 
L 363.093556 233.589383 
Q 365.501556 233.589383 365.501556 231.181383 
L 365.501556 222.580711 
Q 365.501556 220.172711 363.093556 220.172711 
L 283.065181 220.172711 
Q 280.657181 220.172711 280.657181 222.580711 
L 280.657181 231.181383 
Q 280.657181 233.589383 283.065181 233.589383 
z
" style="fill: #fbfaf7; opacity: 0.92; stroke: #d8d4c8; stroke-width: 0.6; stroke-linejoin: miter"/>
    </g>
    <!-- slope of W  =  F(x) -->
    <g style="fill: #1f2933" transform="translate(283.065181 229.115368) scale(0.086 -0.086)">
     <defs>
      <path id="DejaVuSans-4f" d="M 603 4863 
L 1178 4863 
L 1178 0 
L 603 0 
L 603 4863 
z
" transform="scale(0.015625)"/>
      <path id="DejaVuSans-53" d="M 1159 525 
L 1159 -1331 
L 581 -1331 
L 581 3500 
L 1159 3500 
L 1159 2969 
Q 1341 3281 1617 3432 
Q 1894 3584 2278 3584 
Q 2916 3584 3314 3078 
Q 3713 2572 3713 1747 
Q 3713 922 3314 415 
Q 2916 -91 2278 -91 
Q 1894 -91 1617 61 
Q 1341 213 1159 525 
z
M 3116 1747 
Q 3116 2381 2855 2742 
Q 2594 3103 2138 3103 
Q 1681 3103 1420 2742 
Q 1159 2381 1159 1747 
Q 1159 1113 1420 752 
Q 1681 391 2138 391 
Q 2594 391 2855 752 
Q 3116 1113 3116 1747 
z
" transform="scale(0.015625)"/>
      <path id="DejaVuSans-49" d="M 2375 4863 
L 2375 4384 
L 1825 4384 
Q 1516 4384 1395 4259 
Q 1275 4134 1275 3809 
L 1275 3500 
L 2222 3500 
L 2222 3053 
L 1275 3053 
L 1275 0 
L 697 0 
L 697 3053 
L 147 3053 
L 147 3500 
L 697 3500 
L 697 3744 
Q 697 4328 969 4595 
Q 1241 4863 1831 4863 
L 2375 4863 
z
" transform="scale(0.015625)"/>
     </defs>
     <use xlink:href="#DejaVuSans-56"/>
     <use xlink:href="#DejaVuSans-4f" transform="translate(52.09375 0)"/>
     <use xlink:href="#DejaVuSans-52" transform="translate(79.875 0)"/>
     <use xlink:href="#DejaVuSans-53" transform="translate(141.0625 0)"/>
     <use xlink:href="#DejaVuSans-48" transform="translate(204.546875 0)"/>
     <use xlink:href="#DejaVuSans-3" transform="translate(266.078125 0)"/>
     <use xlink:href="#DejaVuSans-52" transform="translate(297.859375 0)"/>
     <use xlink:href="#DejaVuSans-49" transform="translate(359.046875 0)"/>
     <use xlink:href="#DejaVuSans-3" transform="translate(394.25 0)"/>
     <use xlink:href="#DejaVuSans-3a" transform="translate(426.03125 0)"/>
     <use xlink:href="#DejaVuSans-3" transform="translate(524.90625 0)"/>
     <use xlink:href="#DejaVuSans-3" transform="translate(556.6875 0)"/>
     <use xlink:href="#DejaVuSans-20" transform="translate(588.46875 0)"/>
     <use xlink:href="#DejaVuSans-3" transform="translate(672.265625 0)"/>
     <use xlink:href="#DejaVuSans-3" transform="translate(704.046875 0)"/>
     <use xlink:href="#DejaVuSans-29" transform="translate(735.828125 0)"/>
     <use xlink:href="#DejaVuSans-b" transform="translate(793.34375 0)"/>
     <use xlink:href="#DejaVuSans-5b" transform="translate(832.359375 0)"/>
     <use xlink:href="#DejaVuSans-c" transform="translate(891.546875 0)"/>
    </g>
   </g>
  </g>
 </g>
 <defs>
  <clipPath id="p7805d07568">
   <rect x="53.650781" y="7.2" width="357.12" height="145.076636"/>
  </clipPath>
  <clipPath id="pff6d3f90c9">
   <rect x="53.650781" y="172.587364" width="357.12" height="145.076636"/>
  </clipPath>
 </defs>
</svg>
