<?xml version="1.0" encoding="utf-8" standalone="no"?>
<!DOCTYPE svg PUBLIC "-//W3C//DTD SVG 1.1//EN"
  "http://www.w3.org/Graphics/SVG/1.1/DTD/svg11.dtd">
<svg xmlns:xlink="http://www.w3.org/1999/xlink" width="316.523203pt" height="275.757656pt" viewBox="0 0 316.523203 275.757656" xmlns="http://www.w3.org/2000/svg" version="1.1">
 <metadata>
  <rdf:RDF xmlns:dc="http://purl.org/dc/elements/1.1/" xmlns:cc="http://creativecommons.org/ns#" xmlns:rdf="http://www.w3.org/1999/02/22-rdf-syntax-ns#">
   <cc:Work>
    <dc:type rdf:resource="http://purl.org/dc/dcmitype/StillImage"/>
    <dc:date>2026-06-26T19:42:17.224616</dc:date>
    <dc:format>image/svg+xml</dc:format>
    <dc:creator>
     <cc:Agent>
      <dc:title>Matplotlib v3.11.0, https://matplotlib.org/</dc:title>
     </cc:Agent>
    </dc:creator>
   </cc:Work>
  </rdf:RDF>
 </metadata>
 <defs>
  <style type="text/css">*{stroke-linejoin: round; stroke-linecap: butt}</style>
 </defs>
 <g id="figure_1">
  <g id="patch_1">
   <path d="M 0 275.757656 
L 316.523203 275.757656 
L 316.523203 0 
L 0 0 
z
" style="fill: #fbfaf7"/>
  </g>
  <g id="axes_1">
   <g id="patch_2">
    <path d="M 87.563203 239.557656 
L 309.323203 239.557656 
L 309.323203 17.797656 
L 87.563203 17.797656 
z
" style="fill: #fbfaf7"/>
   </g>
   <g id="matplotlib.axis_1">
    <g id="xtick_1">
     <g id="line2d_1">
      <defs>
       <path id="m27c1bac2ab" d="M 0 0 
L 0 3.5 
" style="stroke: #8a929b; stroke-width: 0.8"/>
      </defs>
      <g>
       <use xlink:href="#m27c1bac2ab" x="114.536967" y="239.557656" style="fill: #8a929b; stroke: #8a929b; stroke-width: 0.8"/>
      </g>
     </g>
     <g id="text_1">
      <!-- −2 -->
      <g style="fill: #8a929b" transform="translate(108.640092 252.635781) scale(0.08 -0.08)">
       <defs>
        <path id="DejaVuSans-c9c" d="M 678 2272 
L 4684 2272 
L 4684 1741 
L 678 1741 
L 678 2272 
z
" transform="scale(0.015625)"/>
        <path id="DejaVuSans-15" d="M 1228 531 
L 3431 531 
L 3431 0 
L 469 0 
L 469 531 
Q 828 903 1448 1529 
Q 2069 2156 2228 2338 
Q 2531 2678 2651 2914 
Q 2772 3150 2772 3378 
Q 2772 3750 2511 3984 
Q 2250 4219 1831 4219 
Q 1534 4219 1204 4116 
Q 875 4013 500 3803 
L 500 4441 
Q 881 4594 1212 4672 
Q 1544 4750 1819 4750 
Q 2544 4750 2975 4387 
Q 3406 4025 3406 3419 
Q 3406 3131 3298 2873 
Q 3191 2616 2906 2266 
Q 2828 2175 2409 1742 
Q 1991 1309 1228 531 
z
" transform="scale(0.015625)"/>
       </defs>
       <use xlink:href="#DejaVuSans-c9c"/>
       <use xlink:href="#DejaVuSans-15" transform="translate(83.796875 0)"/>
      </g>
     </g>
    </g>
    <g id="xtick_2">
     <g id="line2d_2">
      <g>
       <use xlink:href="#m27c1bac2ab" x="156.490085" y="239.557656" style="fill: #8a929b; stroke: #8a929b; stroke-width: 0.8"/>
      </g>
     </g>
     <g id="text_2">
      <!-- −1 -->
      <g style="fill: #8a929b" transform="translate(150.59321 252.635781) scale(0.08 -0.08)">
       <defs>
        <path id="DejaVuSans-14" d="M 794 531 
L 1825 531 
L 1825 4091 
L 703 3866 
L 703 4441 
L 1819 4666 
L 2450 4666 
L 2450 531 
L 3481 531 
L 3481 0 
L 794 0 
L 794 531 
z
" transform="scale(0.015625)"/>
       </defs>
       <use xlink:href="#DejaVuSans-c9c"/>
       <use xlink:href="#DejaVuSans-14" transform="translate(83.796875 0)"/>
      </g>
     </g>
    </g>
    <g id="xtick_3">
     <g id="line2d_3">
      <g>
       <use xlink:href="#m27c1bac2ab" x="198.443203" y="239.557656" style="fill: #8a929b; stroke: #8a929b; stroke-width: 0.8"/>
      </g>
     </g>
     <g id="text_3">
      <!-- 0 -->
      <g style="fill: #8a929b" transform="translate(195.898203 252.635781) scale(0.08 -0.08)">
       <defs>
        <path id="DejaVuSans-13" d="M 2034 4250 
Q 1547 4250 1301 3770 
Q 1056 3291 1056 2328 
Q 1056 1369 1301 889 
Q 1547 409 2034 409 
Q 2525 409 2770 889 
Q 3016 1369 3016 2328 
Q 3016 3291 2770 3770 
Q 2525 4250 2034 4250 
z
M 2034 4750 
Q 2819 4750 3233 4129 
Q 3647 3509 3647 2328 
Q 3647 1150 3233 529 
Q 2819 -91 2034 -91 
Q 1250 -91 836 529 
Q 422 1150 422 2328 
Q 422 3509 836 4129 
Q 1250 4750 2034 4750 
z
" transform="scale(0.015625)"/>
       </defs>
       <use xlink:href="#DejaVuSans-13"/>
      </g>
     </g>
    </g>
    <g id="xtick_4">
     <g id="line2d_4">
      <g>
       <use xlink:href="#m27c1bac2ab" x="240.396321" y="239.557656" style="fill: #8a929b; stroke: #8a929b; stroke-width: 0.8"/>
      </g>
     </g>
     <g id="text_4">
      <!-- 1 -->
      <g style="fill: #8a929b" transform="translate(237.851321 252.635781) scale(0.08 -0.08)">
       <use xlink:href="#DejaVuSans-14"/>
      </g>
     </g>
    </g>
    <g id="xtick_5">
     <g id="line2d_5">
      <g>
       <use xlink:href="#m27c1bac2ab" x="282.34944" y="239.557656" style="fill: #8a929b; stroke: #8a929b; stroke-width: 0.8"/>
      </g>
     </g>
     <g id="text_5">
      <!-- 2 -->
      <g style="fill: #8a929b" transform="translate(279.80444 252.635781) scale(0.08 -0.08)">
       <use xlink:href="#DejaVuSans-15"/>
      </g>
     </g>
    </g>
    <g id="text_6">
     <!-- x  (m) -->
     <g style="fill: #1f2933" transform="translate(183.533828 266.155313) scale(0.1 -0.1)">
      <defs>
       <path id="DejaVuSans-5b" d="M 3513 3500 
L 2247 1797 
L 3578 0 
L 2900 0 
L 1881 1375 
L 863 0 
L 184 0 
L 1544 1831 
L 300 3500 
L 978 3500 
L 1906 2253 
L 2834 3500 
L 3513 3500 
z
" transform="scale(0.015625)"/>
       <path id="DejaVuSans-3" transform="scale(0.015625)"/>
       <path id="DejaVuSans-b" d="M 1984 4856 
Q 1566 4138 1362 3434 
Q 1159 2731 1159 2009 
Q 1159 1288 1364 580 
Q 1569 -128 1984 -844 
L 1484 -844 
Q 1016 -109 783 600 
Q 550 1309 550 2009 
Q 550 2706 781 3412 
Q 1013 4119 1484 4856 
L 1984 4856 
z
" transform="scale(0.015625)"/>
       <path id="DejaVuSans-50" d="M 3328 2828 
Q 3544 3216 3844 3400 
Q 4144 3584 4550 3584 
Q 5097 3584 5394 3201 
Q 5691 2819 5691 2113 
L 5691 0 
L 5113 0 
L 5113 2094 
Q 5113 2597 4934 2840 
Q 4756 3084 4391 3084 
Q 3944 3084 3684 2787 
Q 3425 2491 3425 1978 
L 3425 0 
L 2847 0 
L 2847 2094 
Q 2847 2600 2669 2842 
Q 2491 3084 2119 3084 
Q 1678 3084 1418 2786 
Q 1159 2488 1159 1978 
L 1159 0 
L 581 0 
L 581 3500 
L 1159 3500 
L 1159 2956 
Q 1356 3278 1631 3431 
Q 1906 3584 2284 3584 
Q 2666 3584 2933 3390 
Q 3200 3197 3328 2828 
z
" transform="scale(0.015625)"/>
       <path id="DejaVuSans-c" d="M 513 4856 
L 1013 4856 
Q 1481 4119 1714 3412 
Q 1947 2706 1947 2009 
Q 1947 1309 1714 600 
Q 1481 -109 1013 -844 
L 513 -844 
Q 928 -128 1133 580 
Q 1338 1288 1338 2009 
Q 1338 2731 1133 3434 
Q 928 4138 513 4856 
z
" transform="scale(0.015625)"/>
      </defs>
      <use xlink:href="#DejaVuSans-5b"/>
      <use xlink:href="#DejaVuSans-3" transform="translate(59.1875 0)"/>
      <use xlink:href="#DejaVuSans-3" transform="translate(90.96875 0)"/>
      <use xlink:href="#DejaVuSans-b" transform="translate(122.75 0)"/>
      <use xlink:href="#DejaVuSans-50" transform="translate(161.765625 0)"/>
      <use xlink:href="#DejaVuSans-c" transform="translate(259.171875 0)"/>
     </g>
    </g>
    <g id="text_7">
     <!-- 1e7 -->
     <g style="fill: #8a929b" transform="translate(290.445078 265.155313) scale(0.1 -0.1)">
      <defs>
       <path id="DejaVuSans-48" d="M 3597 1894 
L 3597 1613 
L 953 1613 
Q 991 1019 1311 708 
Q 1631 397 2203 397 
Q 2534 397 2845 478 
Q 3156 559 3463 722 
L 3463 178 
Q 3153 47 2828 -22 
Q 2503 -91 2169 -91 
Q 1331 -91 842 396 
Q 353 884 353 1716 
Q 353 2575 817 3079 
Q 1281 3584 2069 3584 
Q 2775 3584 3186 3129 
Q 3597 2675 3597 1894 
z
M 3022 2063 
Q 3016 2534 2758 2815 
Q 2500 3097 2075 3097 
Q 1594 3097 1305 2825 
Q 1016 2553 972 2059 
L 3022 2063 
z
" transform="scale(0.015625)"/>
       <path id="DejaVuSans-1a" d="M 525 4666 
L 3525 4666 
L 3525 4397 
L 1831 0 
L 1172 0 
L 2766 4134 
L 525 4134 
L 525 4666 
z
" transform="scale(0.015625)"/>
      </defs>
      <use xlink:href="#DejaVuSans-14"/>
      <use xlink:href="#DejaVuSans-48" transform="translate(63.625 0)"/>
      <use xlink:href="#DejaVuSans-1a" transform="translate(125.15625 0)"/>
     </g>
    </g>
   </g>
   <g id="matplotlib.axis_2">
    <g id="ytick_1">
     <g id="line2d_6">
      <defs>
       <path id="m69e504d7f6" d="M 0 0 
L -3.5 0 
" style="stroke: #8a929b; stroke-width: 0.8"/>
      </defs>
      <g>
       <use xlink:href="#m69e504d7f6" x="87.563203" y="212.583893" style="fill: #8a929b; stroke: #8a929b; stroke-width: 0.8"/>
      </g>
     </g>
     <g id="text_8">
      <!-- −2 -->
      <g style="fill: #8a929b" transform="translate(68.769453 215.622955) scale(0.08 -0.08)">
       <use xlink:href="#DejaVuSans-c9c"/>
       <use xlink:href="#DejaVuSans-15" transform="translate(83.796875 0)"/>
      </g>
     </g>
    </g>
    <g id="ytick_2">
     <g id="line2d_7">
      <g>
       <use xlink:href="#m69e504d7f6" x="87.563203" y="170.630775" style="fill: #8a929b; stroke: #8a929b; stroke-width: 0.8"/>
      </g>
     </g>
     <g id="text_9">
      <!-- −1 -->
      <g style="fill: #8a929b" transform="translate(68.769453 173.669837) scale(0.08 -0.08)">
       <use xlink:href="#DejaVuSans-c9c"/>
       <use xlink:href="#DejaVuSans-14" transform="translate(83.796875 0)"/>
      </g>
     </g>
    </g>
    <g id="ytick_3">
     <g id="line2d_8">
      <g>
       <use xlink:href="#m69e504d7f6" x="87.563203" y="128.677656" style="fill: #8a929b; stroke: #8a929b; stroke-width: 0.8"/>
      </g>
     </g>
     <g id="text_10">
      <!-- 0 -->
      <g style="fill: #8a929b" transform="translate(75.473203 131.716719) scale(0.08 -0.08)">
       <use xlink:href="#DejaVuSans-13"/>
      </g>
     </g>
    </g>
    <g id="ytick_4">
     <g id="line2d_9">
      <g>
       <use xlink:href="#m69e504d7f6" x="87.563203" y="86.724538" style="fill: #8a929b; stroke: #8a929b; stroke-width: 0.8"/>
      </g>
     </g>
     <g id="text_11">
      <!-- 1 -->
      <g style="fill: #8a929b" transform="translate(75.473203 89.7636) scale(0.08 -0.08)">
       <use xlink:href="#DejaVuSans-14"/>
      </g>
     </g>
    </g>
    <g id="ytick_5">
     <g id="line2d_10">
      <g>
       <use xlink:href="#m69e504d7f6" x="87.563203" y="44.77142" style="fill: #8a929b; stroke: #8a929b; stroke-width: 0.8"/>
      </g>
     </g>
     <g id="text_12">
      <!-- 2 -->
      <g style="fill: #8a929b" transform="translate(75.473203 47.810482) scale(0.08 -0.08)">
       <use xlink:href="#DejaVuSans-15"/>
      </g>
     </g>
    </g>
    <g id="text_13">
     <!-- y  (m) -->
     <g style="fill: #1f2933" transform="translate(62.367109 143.587031) rotate(-90) scale(0.1 -0.1)">
      <defs>
       <path id="DejaVuSans-5c" d="M 2059 -325 
Q 1816 -950 1584 -1140 
Q 1353 -1331 966 -1331 
L 506 -1331 
L 506 -850 
L 844 -850 
Q 1081 -850 1212 -737 
Q 1344 -625 1503 -206 
L 1606 56 
L 191 3500 
L 800 3500 
L 1894 763 
L 2988 3500 
L 3597 3500 
L 2059 -325 
z
" transform="scale(0.015625)"/>
      </defs>
      <use xlink:href="#DejaVuSans-5c"/>
      <use xlink:href="#DejaVuSans-3" transform="translate(59.1875 0)"/>
      <use xlink:href="#DejaVuSans-3" transform="translate(90.96875 0)"/>
      <use xlink:href="#DejaVuSans-b" transform="translate(122.75 0)"/>
      <use xlink:href="#DejaVuSans-50" transform="translate(161.765625 0)"/>
      <use xlink:href="#DejaVuSans-c" transform="translate(259.171875 0)"/>
     </g>
    </g>
    <g id="text_14">
     <!-- 1e7 -->
     <g style="fill: #8a929b" transform="translate(87.563203 14.797656) scale(0.1 -0.1)">
      <use xlink:href="#DejaVuSans-14"/>
      <use xlink:href="#DejaVuSans-48" transform="translate(63.625 0)"/>
      <use xlink:href="#DejaVuSans-1a" transform="translate(125.15625 0)"/>
     </g>
    </g>
   </g>
   <g id="line2d_11">
    <path d="M 238.718197 128.677656 
L 238.525078 124.014327 
L 237.962861 119.474398 
L 237.023392 114.94047 
L 235.756986 110.606412 
L 234.143071 106.353809 
L 232.264578 102.356769 
L 230.086058 98.497289 
L 227.713502 94.924546 
L 225.095192 91.524278 
L 222.30176 88.367586 
L 219.414211 85.504872 
L 216.357946 82.83465 
L 213.262172 80.445429 
L 210.040235 78.247746 
L 206.822379 76.310467 
L 203.513037 74.557545 
L 200.241213 73.040915 
L 196.905432 71.698304 
L 193.574731 70.548795 
L 190.316291 69.598246 
L 187.024474 68.804308 
L 183.820121 68.185805 
L 180.597257 67.712579 
L 177.472438 67.393017 
L 174.340778 67.208146 
L 171.314245 67.157119 
L 168.290124 67.231117 
L 165.32498 67.425409 
L 162.470896 67.727349 
L 156.901599 68.648218 
L 151.595436 69.950177 
L 146.561665 71.594241 
L 141.806611 73.545458 
L 137.296789 75.792907 
L 133.112521 78.269316 
L 129.21507 80.967276 
L 125.604973 83.863473 
L 122.282172 86.936594 
L 119.246204 90.167054 
L 116.49634 93.536747 
L 114.031701 97.028845 
L 111.851337 100.627604 
L 109.939036 104.350656 
L 108.32685 108.119665 
L 106.996233 111.952949 
L 105.946465 115.837629 
L 105.176957 119.761238 
L 104.687265 123.711613 
L 104.477101 127.676804 
L 104.546343 131.644972 
L 104.895029 135.604304 
L 105.530058 139.57704 
L 106.44085 143.482552 
L 107.632181 147.342892 
L 109.104709 151.145399 
L 110.859213 154.876945 
L 112.896568 158.523824 
L 115.217713 162.071623 
L 117.823608 165.505082 
L 120.715178 168.807942 
L 123.922132 171.989496 
L 127.389793 174.975937 
L 131.144841 177.774936 
L 135.187061 180.364208 
L 139.515528 182.719314 
L 144.128323 184.813324 
L 149.022163 186.616436 
L 154.191899 188.095543 
L 159.62986 189.213759 
L 162.470896 189.627964 
L 165.32498 189.929903 
L 168.290124 190.124196 
L 171.314245 190.198194 
L 174.340778 190.147166 
L 177.472438 189.962296 
L 180.597257 189.642734 
L 183.820121 189.169508 
L 187.024474 188.551004 
L 190.316291 187.757066 
L 193.574731 186.806518 
L 196.905432 185.657009 
L 200.241213 184.314398 
L 203.513037 182.797768 
L 206.822379 181.044845 
L 210.040235 179.107566 
L 213.262172 176.909883 
L 216.357946 174.520662 
L 219.414211 171.85044 
L 222.30176 168.987727 
L 225.095192 165.831034 
L 227.713502 162.430766 
L 230.086058 158.858023 
L 232.264578 154.998544 
L 234.143071 151.001504 
L 235.756986 146.7489 
L 237.023392 142.414842 
L 237.962861 137.880914 
L 238.525078 133.340986 
L 238.718197 128.677656 
L 238.718197 128.677656 
" clip-path="url(#pc054032549)" style="fill: none; stroke: #2f6f4f; stroke-width: 2.4; stroke-linecap: square"/>
   </g>
   <g id="line2d_12">
    <path d="M 87.563203 128.677656 
L 309.323203 128.677656 
" clip-path="url(#pc054032549)" style="fill: none; stroke-dasharray: 0.8,1.32; stroke-dashoffset: 0; stroke: #d8d4c8; stroke-width: 0.8"/>
   </g>
   <g id="line2d_13">
    <path d="M 198.443203 239.557656 
L 198.443203 17.797656 
" clip-path="url(#pc054032549)" style="fill: none; stroke-dasharray: 0.8,1.32; stroke-dashoffset: 0; stroke: #d8d4c8; stroke-width: 0.8"/>
   </g>
   <g id="patch_3">
    <path d="M 87.563203 239.557656 
L 87.563203 17.797656 
" style="fill: none; stroke: #d8d4c8; stroke-width: 0.8; stroke-linejoin: miter; stroke-linecap: square"/>
   </g>
   <g id="patch_4">
    <path d="M 87.563203 239.557656 
L 309.323203 239.557656 
" style="fill: none; stroke: #d8d4c8; stroke-width: 0.8; stroke-linejoin: miter; stroke-linecap: square"/>
   </g>
   <g id="text_15">
    <g id="patch_5">
     <path d="M 156.733758 123.302305 
L 240.152648 123.302305 
Q 242.476648 123.302305 242.476648 120.978305 
L 242.476648 112.677656 
Q 242.476648 110.353656 240.152648 110.353656 
L 156.733758 110.353656 
Q 154.409758 110.353656 154.409758 112.677656 
L 154.409758 120.978305 
Q 154.409758 123.302305 156.733758 123.302305 
z
" style="fill: #fbfaf7; opacity: 0.92; stroke: #d8d4c8; stroke-width: 0.6; stroke-linejoin: miter"/>
    </g>
    <!-- focus (central body) -->
    <g style="fill: #1f2933" transform="translate(156.733758 118.984359) scale(0.083 -0.083)">
     <defs>
      <path id="DejaVuSans-49" d="M 2375 4863 
L 2375 4384 
L 1825 4384 
Q 1516 4384 1395 4259 
Q 1275 4134 1275 3809 
L 1275 3500 
L 2222 3500 
L 2222 3053 
L 1275 3053 
L 1275 0 
L 697 0 
L 697 3053 
L 147 3053 
L 147 3500 
L 697 3500 
L 697 3744 
Q 697 4328 969 4595 
Q 1241 4863 1831 4863 
L 2375 4863 
z
" transform="scale(0.015625)"/>
      <path id="DejaVuSans-52" d="M 1959 3097 
Q 1497 3097 1228 2736 
Q 959 2375 959 1747 
Q 959 1119 1226 758 
Q 1494 397 1959 397 
Q 2419 397 2687 759 
Q 2956 1122 2956 1747 
Q 2956 2369 2687 2733 
Q 2419 3097 1959 3097 
z
M 1959 3584 
Q 2709 3584 3137 3096 
Q 3566 2609 3566 1747 
Q 3566 888 3137 398 
Q 2709 -91 1959 -91 
Q 1206 -91 779 398 
Q 353 888 353 1747 
Q 353 2609 779 3096 
Q 1206 3584 1959 3584 
z
" transform="scale(0.015625)"/>
      <path id="DejaVuSans-46" d="M 3122 3366 
L 3122 2828 
Q 2878 2963 2633 3030 
Q 2388 3097 2138 3097 
Q 1578 3097 1268 2742 
Q 959 2388 959 1747 
Q 959 1106 1268 751 
Q 1578 397 2138 397 
Q 2388 397 2633 464 
Q 2878 531 3122 666 
L 3122 134 
Q 2881 22 2623 -34 
Q 2366 -91 2075 -91 
Q 1284 -91 818 406 
Q 353 903 353 1747 
Q 353 2603 823 3093 
Q 1294 3584 2113 3584 
Q 2378 3584 2631 3529 
Q 2884 3475 3122 3366 
z
" transform="scale(0.015625)"/>
      <path id="DejaVuSans-58" d="M 544 1381 
L 544 3500 
L 1119 3500 
L 1119 1403 
Q 1119 906 1312 657 
Q 1506 409 1894 409 
Q 2359 409 2629 706 
Q 2900 1003 2900 1516 
L 2900 3500 
L 3475 3500 
L 3475 0 
L 2900 0 
L 2900 538 
Q 2691 219 2414 64 
Q 2138 -91 1772 -91 
Q 1169 -91 856 284 
Q 544 659 544 1381 
z
M 1991 3584 
L 1991 3584 
z
" transform="scale(0.015625)"/>
      <path id="DejaVuSans-56" d="M 2834 3397 
L 2834 2853 
Q 2591 2978 2328 3040 
Q 2066 3103 1784 3103 
Q 1356 3103 1142 2972 
Q 928 2841 928 2578 
Q 928 2378 1081 2264 
Q 1234 2150 1697 2047 
L 1894 2003 
Q 2506 1872 2764 1633 
Q 3022 1394 3022 966 
Q 3022 478 2636 193 
Q 2250 -91 1575 -91 
Q 1294 -91 989 -36 
Q 684 19 347 128 
L 347 722 
Q 666 556 975 473 
Q 1284 391 1588 391 
Q 1994 391 2212 530 
Q 2431 669 2431 922 
Q 2431 1156 2273 1281 
Q 2116 1406 1581 1522 
L 1381 1569 
Q 847 1681 609 1914 
Q 372 2147 372 2553 
Q 372 3047 722 3315 
Q 1072 3584 1716 3584 
Q 2034 3584 2315 3537 
Q 2597 3491 2834 3397 
z
" transform="scale(0.015625)"/>
      <path id="DejaVuSans-51" d="M 3513 2113 
L 3513 0 
L 2938 0 
L 2938 2094 
Q 2938 2591 2744 2837 
Q 2550 3084 2163 3084 
Q 1697 3084 1428 2787 
Q 1159 2491 1159 1978 
L 1159 0 
L 581 0 
L 581 3500 
L 1159 3500 
L 1159 2956 
Q 1366 3272 1645 3428 
Q 1925 3584 2291 3584 
Q 2894 3584 3203 3211 
Q 3513 2838 3513 2113 
z
" transform="scale(0.015625)"/>
      <path id="DejaVuSans-57" d="M 1172 4494 
L 1172 3500 
L 2356 3500 
L 2356 3053 
L 1172 3053 
L 1172 1153 
Q 1172 725 1289 603 
Q 1406 481 1766 481 
L 2356 481 
L 2356 0 
L 1766 0 
Q 1100 0 847 248 
Q 594 497 594 1153 
L 594 3053 
L 172 3053 
L 172 3500 
L 594 3500 
L 594 4494 
L 1172 4494 
z
" transform="scale(0.015625)"/>
      <path id="DejaVuSans-55" d="M 2631 2963 
Q 2534 3019 2420 3045 
Q 2306 3072 2169 3072 
Q 1681 3072 1420 2755 
Q 1159 2438 1159 1844 
L 1159 0 
L 581 0 
L 581 3500 
L 1159 3500 
L 1159 2956 
Q 1341 3275 1631 3429 
Q 1922 3584 2338 3584 
Q 2397 3584 2469 3576 
Q 2541 3569 2628 3553 
L 2631 2963 
z
" transform="scale(0.015625)"/>
      <path id="DejaVuSans-44" d="M 2194 1759 
Q 1497 1759 1228 1600 
Q 959 1441 959 1056 
Q 959 750 1161 570 
Q 1363 391 1709 391 
Q 2188 391 2477 730 
Q 2766 1069 2766 1631 
L 2766 1759 
L 2194 1759 
z
M 3341 1997 
L 3341 0 
L 2766 0 
L 2766 531 
Q 2569 213 2275 61 
Q 1981 -91 1556 -91 
Q 1019 -91 701 211 
Q 384 513 384 1019 
Q 384 1609 779 1909 
Q 1175 2209 1959 2209 
L 2766 2209 
L 2766 2266 
Q 2766 2663 2505 2880 
Q 2244 3097 1772 3097 
Q 1472 3097 1187 3025 
Q 903 2953 641 2809 
L 641 3341 
Q 956 3463 1253 3523 
Q 1550 3584 1831 3584 
Q 2591 3584 2966 3190 
Q 3341 2797 3341 1997 
z
" transform="scale(0.015625)"/>
      <path id="DejaVuSans-4f" d="M 603 4863 
L 1178 4863 
L 1178 0 
L 603 0 
L 603 4863 
z
" transform="scale(0.015625)"/>
      <path id="DejaVuSans-45" d="M 3116 1747 
Q 3116 2381 2855 2742 
Q 2594 3103 2138 3103 
Q 1681 3103 1420 2742 
Q 1159 2381 1159 1747 
Q 1159 1113 1420 752 
Q 1681 391 2138 391 
Q 2594 391 2855 752 
Q 3116 1113 3116 1747 
z
M 1159 2969 
Q 1341 3281 1617 3432 
Q 1894 3584 2278 3584 
Q 2916 3584 3314 3078 
Q 3713 2572 3713 1747 
Q 3713 922 3314 415 
Q 2916 -91 2278 -91 
Q 1894 -91 1617 61 
Q 1341 213 1159 525 
L 1159 0 
L 581 0 
L 581 4863 
L 1159 4863 
L 1159 2969 
z
" transform="scale(0.015625)"/>
      <path id="DejaVuSans-47" d="M 2906 2969 
L 2906 4863 
L 3481 4863 
L 3481 0 
L 2906 0 
L 2906 525 
Q 2725 213 2448 61 
Q 2172 -91 1784 -91 
Q 1150 -91 751 415 
Q 353 922 353 1747 
Q 353 2572 751 3078 
Q 1150 3584 1784 3584 
Q 2172 3584 2448 3432 
Q 2725 3281 2906 2969 
z
M 947 1747 
Q 947 1113 1208 752 
Q 1469 391 1925 391 
Q 2381 391 2643 752 
Q 2906 1113 2906 1747 
Q 2906 2381 2643 2742 
Q 2381 3103 1925 3103 
Q 1469 3103 1208 2742 
Q 947 2381 947 1747 
z
" transform="scale(0.015625)"/>
     </defs>
     <use xlink:href="#DejaVuSans-49"/>
     <use xlink:href="#DejaVuSans-52" transform="translate(35.203125 0)"/>
     <use xlink:href="#DejaVuSans-46" transform="translate(96.390625 0)"/>
     <use xlink:href="#DejaVuSans-58" transform="translate(151.375 0)"/>
     <use xlink:href="#DejaVuSans-56" transform="translate(214.75 0)"/>
     <use xlink:href="#DejaVuSans-3" transform="translate(266.84375 0)"/>
     <use xlink:href="#DejaVuSans-b" transform="translate(298.625 0)"/>
     <use xlink:href="#DejaVuSans-46" transform="translate(337.640625 0)"/>
     <use xlink:href="#DejaVuSans-48" transform="translate(392.625 0)"/>
     <use xlink:href="#DejaVuSans-51" transform="translate(454.15625 0)"/>
     <use xlink:href="#DejaVuSans-57" transform="translate(517.53125 0)"/>
     <use xlink:href="#DejaVuSans-55" transform="translate(556.734375 0)"/>
     <use xlink:href="#DejaVuSans-44" transform="translate(597.84375 0)"/>
     <use xlink:href="#DejaVuSans-4f" transform="translate(659.125 0)"/>
     <use xlink:href="#DejaVuSans-3" transform="translate(686.90625 0)"/>
     <use xlink:href="#DejaVuSans-45" transform="translate(718.6875 0)"/>
     <use xlink:href="#DejaVuSans-52" transform="translate(782.171875 0)"/>
     <use xlink:href="#DejaVuSans-47" transform="translate(843.359375 0)"/>
     <use xlink:href="#DejaVuSans-5c" transform="translate(906.84375 0)"/>
     <use xlink:href="#DejaVuSans-c" transform="translate(966.03125 0)"/>
    </g>
   </g>
   <g id="PathCollection_1">
    <defs>
     <path id="m3e966d2c81" d="M 0 3.872983 
C 1.027127 3.872983 2.012324 3.464901 2.738613 2.738613 
C 3.464901 2.012324 3.872983 1.027127 3.872983 0 
C 3.872983 -1.027127 3.464901 -2.012324 2.738613 -2.738613 
C 2.012324 -3.464901 1.027127 -3.872983 0 -3.872983 
C -1.027127 -3.872983 -2.012324 -3.464901 -2.738613 -2.738613 
C -3.464901 -2.012324 -3.872983 -1.027127 -3.872983 0 
C -3.872983 1.027127 -3.464901 2.012324 -2.738613 2.738613 
C -2.012324 3.464901 -1.027127 3.872983 0 3.872983 
z
" style="stroke: #1f2933"/>
    </defs>
    <g clip-path="url(#pc054032549)">
     <use xlink:href="#m3e966d2c81" x="198.443203" y="128.677656" style="fill: #1f2933; stroke: #1f2933"/>
    </g>
   </g>
   <g id="PathCollection_2">
    <defs>
     <path id="m193bbbf4b5" d="M 0 3 
C 0.795609 3 1.55874 2.683901 2.12132 2.12132 
C 2.683901 1.55874 3 0.795609 3 0 
C 3 -0.795609 2.683901 -1.55874 2.12132 -2.12132 
C 1.55874 -2.683901 0.795609 -3 0 -3 
C -0.795609 -3 -1.55874 -2.683901 -2.12132 -2.12132 
C -2.683901 -1.55874 -3 -0.795609 -3 0 
C -3 0.795609 -2.683901 1.55874 -2.12132 2.12132 
C -1.55874 2.683901 -0.795609 3 0 3 
z
" style="stroke: #2f6f4f"/>
    </defs>
    <g clip-path="url(#pc054032549)">
     <use xlink:href="#m193bbbf4b5" x="198.443203" y="128.677656" style="fill: #2f6f4f; stroke: #2f6f4f"/>
    </g>
   </g>
   <g id="legend_1">
    <g id="line2d_14">
     <path d="M 10.6 28.931328 
L 19.1 28.931328 
L 27.6 28.931328 
" style="fill: none; stroke: #2f6f4f; stroke-width: 2.4; stroke-linecap: square"/>
    </g>
    <g id="text_16">
     <!-- e = 0.4: ellipse, perihelion 9.60×10⁶ m, aphelion 22.40×10⁶ m -->
     <g transform="translate(34.4 31.906328) scale(0.085 -0.085)">
      <defs>
       <path id="DejaVuSans-20" d="M 678 2906 
L 4684 2906 
L 4684 2381 
L 678 2381 
L 678 2906 
z
M 678 1631 
L 4684 1631 
L 4684 1100 
L 678 1100 
L 678 1631 
z
" transform="scale(0.015625)"/>
       <path id="DejaVuSans-11" d="M 684 794 
L 1344 794 
L 1344 0 
L 684 0 
L 684 794 
z
" transform="scale(0.015625)"/>
       <path id="DejaVuSans-17" d="M 2419 4116 
L 825 1625 
L 2419 1625 
L 2419 4116 
z
M 2253 4666 
L 3047 4666 
L 3047 1625 
L 3713 1625 
L 3713 1100 
L 3047 1100 
L 3047 0 
L 2419 0 
L 2419 1100 
L 313 1100 
L 313 1709 
L 2253 4666 
z
" transform="scale(0.015625)"/>
       <path id="DejaVuSans-1d" d="M 750 794 
L 1409 794 
L 1409 0 
L 750 0 
L 750 794 
z
M 750 3309 
L 1409 3309 
L 1409 2516 
L 750 2516 
L 750 3309 
z
" transform="scale(0.015625)"/>
       <path id="DejaVuSans-4c" d="M 603 3500 
L 1178 3500 
L 1178 0 
L 603 0 
L 603 3500 
z
M 603 4863 
L 1178 4863 
L 1178 4134 
L 603 4134 
L 603 4863 
z
" transform="scale(0.015625)"/>
       <path id="DejaVuSans-53" d="M 1159 525 
L 1159 -1331 
L 581 -1331 
L 581 3500 
L 1159 3500 
L 1159 2969 
Q 1341 3281 1617 3432 
Q 1894 3584 2278 3584 
Q 2916 3584 3314 3078 
Q 3713 2572 3713 1747 
Q 3713 922 3314 415 
Q 2916 -91 2278 -91 
Q 1894 -91 1617 61 
Q 1341 213 1159 525 
z
M 3116 1747 
Q 3116 2381 2855 2742 
Q 2594 3103 2138 3103 
Q 1681 3103 1420 2742 
Q 1159 2381 1159 1747 
Q 1159 1113 1420 752 
Q 1681 391 2138 391 
Q 2594 391 2855 752 
Q 3116 1113 3116 1747 
z
" transform="scale(0.015625)"/>
       <path id="DejaVuSans-f" d="M 750 794 
L 1409 794 
L 1409 256 
L 897 -744 
L 494 -744 
L 750 256 
L 750 794 
z
" transform="scale(0.015625)"/>
       <path id="DejaVuSans-4b" d="M 3513 2113 
L 3513 0 
L 2938 0 
L 2938 2094 
Q 2938 2591 2744 2837 
Q 2550 3084 2163 3084 
Q 1697 3084 1428 2787 
Q 1159 2491 1159 1978 
L 1159 0 
L 581 0 
L 581 4863 
L 1159 4863 
L 1159 2956 
Q 1366 3272 1645 3428 
Q 1925 3584 2291 3584 
Q 2894 3584 3203 3211 
Q 3513 2838 3513 2113 
z
" transform="scale(0.015625)"/>
       <path id="DejaVuSans-1c" d="M 703 97 
L 703 672 
Q 941 559 1184 500 
Q 1428 441 1663 441 
Q 2288 441 2617 861 
Q 2947 1281 2994 2138 
Q 2813 1869 2534 1725 
Q 2256 1581 1919 1581 
Q 1219 1581 811 2004 
Q 403 2428 403 3163 
Q 403 3881 828 4315 
Q 1253 4750 1959 4750 
Q 2769 4750 3195 4129 
Q 3622 3509 3622 2328 
Q 3622 1225 3098 567 
Q 2575 -91 1691 -91 
Q 1453 -91 1209 -44 
Q 966 3 703 97 
z
M 1959 2075 
Q 2384 2075 2632 2365 
Q 2881 2656 2881 3163 
Q 2881 3666 2632 3958 
Q 2384 4250 1959 4250 
Q 1534 4250 1286 3958 
Q 1038 3666 1038 3163 
Q 1038 2656 1286 2365 
Q 1534 2075 1959 2075 
z
" transform="scale(0.015625)"/>
       <path id="DejaVuSans-19" d="M 2113 2584 
Q 1688 2584 1439 2293 
Q 1191 2003 1191 1497 
Q 1191 994 1439 701 
Q 1688 409 2113 409 
Q 2538 409 2786 701 
Q 3034 994 3034 1497 
Q 3034 2003 2786 2293 
Q 2538 2584 2113 2584 
z
M 3366 4563 
L 3366 3988 
Q 3128 4100 2886 4159 
Q 2644 4219 2406 4219 
Q 1781 4219 1451 3797 
Q 1122 3375 1075 2522 
Q 1259 2794 1537 2939 
Q 1816 3084 2150 3084 
Q 2853 3084 3261 2657 
Q 3669 2231 3669 1497 
Q 3669 778 3244 343 
Q 2819 -91 2113 -91 
Q 1303 -91 875 529 
Q 447 1150 447 2328 
Q 447 3434 972 4092 
Q 1497 4750 2381 4750 
Q 2619 4750 2861 4703 
Q 3103 4656 3366 4563 
z
" transform="scale(0.015625)"/>
       <path id="DejaVuSans-99" d="M 4488 3438 
L 3059 2003 
L 4488 575 
L 4116 197 
L 2681 1631 
L 1247 197 
L 878 575 
L 2303 2003 
L 878 3438 
L 1247 3816 
L 2681 2381 
L 4116 3816 
L 4488 3438 
z
" transform="scale(0.015625)"/>
       <path id="DejaVuSans-b51" d="M 1359 3541 
Q 1084 3541 925 3378 
Q 766 3213 766 2928 
Q 766 2647 925 2484 
Q 1084 2319 1359 2319 
Q 1631 2319 1791 2484 
Q 1950 2647 1950 2928 
Q 1950 3213 1791 3378 
Q 1631 3541 1359 3541 
z
M 2166 4647 
L 2166 4325 
Q 2013 4388 1856 4419 
Q 1700 4453 1547 4453 
Q 1147 4453 934 4219 
Q 722 3981 691 3503 
Q 809 3656 988 3738 
Q 1169 3819 1381 3819 
Q 1834 3819 2097 3581 
Q 2359 3341 2359 2928 
Q 2359 2531 2084 2284 
Q 1813 2041 1359 2041 
Q 838 2041 563 2387 
Q 288 2734 288 3397 
Q 288 4016 625 4381 
Q 963 4750 1531 4750 
Q 1684 4750 1841 4725 
Q 1997 4697 2166 4647 
z
" transform="scale(0.015625)"/>
      </defs>
      <use xlink:href="#DejaVuSans-48"/>
      <use xlink:href="#DejaVuSans-3" transform="translate(61.53125 0)"/>
      <use xlink:href="#DejaVuSans-20" transform="translate(93.3125 0)"/>
      <use xlink:href="#DejaVuSans-3" transform="translate(177.109375 0)"/>
      <use xlink:href="#DejaVuSans-13" transform="translate(208.890625 0)"/>
      <use xlink:href="#DejaVuSans-11" transform="translate(272.515625 0)"/>
      <use xlink:href="#DejaVuSans-17" transform="translate(304.296875 0)"/>
      <use xlink:href="#DejaVuSans-1d" transform="translate(367.921875 0)"/>
      <use xlink:href="#DejaVuSans-3" transform="translate(401.609375 0)"/>
      <use xlink:href="#DejaVuSans-48" transform="translate(433.390625 0)"/>
      <use xlink:href="#DejaVuSans-4f" transform="translate(494.921875 0)"/>
      <use xlink:href="#DejaVuSans-4f" transform="translate(522.703125 0)"/>
      <use xlink:href="#DejaVuSans-4c" transform="translate(550.484375 0)"/>
      <use xlink:href="#DejaVuSans-53" transform="translate(578.265625 0)"/>
      <use xlink:href="#DejaVuSans-56" transform="translate(641.75 0)"/>
      <use xlink:href="#DejaVuSans-48" transform="translate(693.84375 0)"/>
      <use xlink:href="#DejaVuSans-f" transform="translate(755.375 0)"/>
      <use xlink:href="#DejaVuSans-3" transform="translate(787.15625 0)"/>
      <use xlink:href="#DejaVuSans-53" transform="translate(818.9375 0)"/>
      <use xlink:href="#DejaVuSans-48" transform="translate(882.421875 0)"/>
      <use xlink:href="#DejaVuSans-55" transform="translate(943.953125 0)"/>
      <use xlink:href="#DejaVuSans-4c" transform="translate(985.0625 0)"/>
      <use xlink:href="#DejaVuSans-4b" transform="translate(1012.84375 0)"/>
      <use xlink:href="#DejaVuSans-48" transform="translate(1076.21875 0)"/>
      <use xlink:href="#DejaVuSans-4f" transform="translate(1137.75 0)"/>
      <use xlink:href="#DejaVuSans-4c" transform="translate(1165.53125 0)"/>
      <use xlink:href="#DejaVuSans-52" transform="translate(1193.3125 0)"/>
      <use xlink:href="#DejaVuSans-51" transform="translate(1254.5 0)"/>
      <use xlink:href="#DejaVuSans-3" transform="translate(1317.875 0)"/>
      <use xlink:href="#DejaVuSans-1c" transform="translate(1349.65625 0)"/>
      <use xlink:href="#DejaVuSans-11" transform="translate(1413.28125 0)"/>
      <use xlink:href="#DejaVuSans-19" transform="translate(1445.0625 0)"/>
      <use xlink:href="#DejaVuSans-13" transform="translate(1508.6875 0)"/>
      <use xlink:href="#DejaVuSans-99" transform="translate(1572.3125 0)"/>
      <use xlink:href="#DejaVuSans-14" transform="translate(1656.109375 0)"/>
      <use xlink:href="#DejaVuSans-13" transform="translate(1719.734375 0)"/>
      <use xlink:href="#DejaVuSans-b51" transform="translate(1783.359375 0)"/>
      <use xlink:href="#DejaVuSans-3" transform="translate(1823.453125 0)"/>
      <use xlink:href="#DejaVuSans-50" transform="translate(1855.234375 0)"/>
      <use xlink:href="#DejaVuSans-f" transform="translate(1952.640625 0)"/>
      <use xlink:href="#DejaVuSans-3" transform="translate(1984.421875 0)"/>
      <use xlink:href="#DejaVuSans-44" transform="translate(2016.203125 0)"/>
      <use xlink:href="#DejaVuSans-53" transform="translate(2077.484375 0)"/>
      <use xlink:href="#DejaVuSans-4b" transform="translate(2140.96875 0)"/>
      <use xlink:href="#DejaVuSans-48" transform="translate(2204.34375 0)"/>
      <use xlink:href="#DejaVuSans-4f" transform="translate(2265.875 0)"/>
      <use xlink:href="#DejaVuSans-4c" transform="translate(2293.65625 0)"/>
      <use xlink:href="#DejaVuSans-52" transform="translate(2321.4375 0)"/>
      <use xlink:href="#DejaVuSans-51" transform="translate(2382.625 0)"/>
      <use xlink:href="#DejaVuSans-3" transform="translate(2446 0)"/>
      <use xlink:href="#DejaVuSans-15" transform="translate(2477.78125 0)"/>
      <use xlink:href="#DejaVuSans-15" transform="translate(2541.40625 0)"/>
      <use xlink:href="#DejaVuSans-11" transform="translate(2605.03125 0)"/>
      <use xlink:href="#DejaVuSans-17" transform="translate(2636.8125 0)"/>
      <use xlink:href="#DejaVuSans-13" transform="translate(2700.4375 0)"/>
      <use xlink:href="#DejaVuSans-99" transform="translate(2764.0625 0)"/>
      <use xlink:href="#DejaVuSans-14" transform="translate(2847.859375 0)"/>
      <use xlink:href="#DejaVuSans-13" transform="translate(2911.484375 0)"/>
      <use xlink:href="#DejaVuSans-b51" transform="translate(2975.109375 0)"/>
      <use xlink:href="#DejaVuSans-3" transform="translate(3015.203125 0)"/>
      <use xlink:href="#DejaVuSans-50" transform="translate(3046.984375 0)"/>
     </g>
    </g>
   </g>
  </g>
 </g>
 <defs>
  <clipPath id="pc054032549">
   <rect x="87.563203" y="17.797656" width="221.76" height="221.76"/>
  </clipPath>
 </defs>
</svg>
