<?xml version="1.0" encoding="utf-8" standalone="no"?>
<!DOCTYPE svg PUBLIC "-//W3C//DTD SVG 1.1//EN"
  "http://www.w3.org/Graphics/SVG/1.1/DTD/svg11.dtd">
<svg xmlns:xlink="http://www.w3.org/1999/xlink" width="427.85625pt" height="265.160781pt" viewBox="0 0 427.85625 265.160781" xmlns="http://www.w3.org/2000/svg" version="1.1">
 <metadata>
  <rdf:RDF xmlns:dc="http://purl.org/dc/elements/1.1/" xmlns:cc="http://creativecommons.org/ns#" xmlns:rdf="http://www.w3.org/1999/02/22-rdf-syntax-ns#">
   <cc:Work>
    <dc:type rdf:resource="http://purl.org/dc/dcmitype/StillImage"/>
    <dc:date>2026-06-26T19:42:15.904509</dc:date>
    <dc:format>image/svg+xml</dc:format>
    <dc:creator>
     <cc:Agent>
      <dc:title>Matplotlib v3.11.0, https://matplotlib.org/</dc:title>
     </cc:Agent>
    </dc:creator>
   </cc:Work>
  </rdf:RDF>
 </metadata>
 <defs>
  <style type="text/css">*{stroke-linejoin: round; stroke-linecap: butt}</style>
 </defs>
 <g id="figure_1">
  <g id="patch_1">
   <path d="M -0 265.160781 
L 427.85625 265.160781 
L 427.85625 0 
L -0 0 
z
" style="fill: #fbfaf7"/>
  </g>
  <g id="axes_1">
   <g id="patch_2">
    <path d="M 43.47 228.96 
L 411.75 228.96 
L 411.75 7.2 
L 43.47 7.2 
z
" style="fill: #fbfaf7"/>
   </g>
   <g id="FillBetweenPolyCollection_1">
    <defs>
     <path id="mdb51615db5" d="M 43.47 -224.132985 
L 43.47 -36.200781 
L 45.010921 -36.200781 
L 46.551841 -36.200781 
L 48.092762 -36.200781 
L 49.633682 -36.200781 
L 51.174603 -36.200781 
L 52.715523 -36.200781 
L 54.256444 -36.200781 
L 55.797364 -36.200781 
L 57.338285 -36.200781 
L 58.879205 -36.200781 
L 60.420126 -36.200781 
L 61.961046 -36.200781 
L 63.501967 -36.200781 
L 65.042887 -36.200781 
L 66.583808 -36.200781 
L 68.124728 -36.200781 
L 69.665649 -36.200781 
L 71.206569 -36.200781 
L 72.74749 -36.200781 
L 74.28841 -36.200781 
L 75.829331 -36.200781 
L 77.370251 -36.200781 
L 78.911172 -36.200781 
L 80.452092 -36.200781 
L 81.993013 -36.200781 
L 83.533933 -36.200781 
L 85.074854 -36.200781 
L 86.615774 -36.200781 
L 88.156695 -36.200781 
L 89.697615 -36.200781 
L 91.238536 -36.200781 
L 92.779456 -36.200781 
L 94.320377 -36.200781 
L 95.861297 -36.200781 
L 97.402218 -36.200781 
L 98.943138 -36.200781 
L 100.484059 -36.200781 
L 102.024979 -36.200781 
L 103.5659 -36.200781 
L 105.10682 -36.200781 
L 106.647741 -36.200781 
L 108.188661 -36.200781 
L 109.729582 -36.200781 
L 111.270502 -36.200781 
L 112.811423 -36.200781 
L 114.352343 -36.200781 
L 115.893264 -36.200781 
L 117.434184 -36.200781 
L 118.975105 -36.200781 
L 120.516025 -36.200781 
L 122.056946 -36.200781 
L 123.597866 -36.200781 
L 125.138787 -36.200781 
L 126.679707 -36.200781 
L 128.220628 -36.200781 
L 129.761548 -36.200781 
L 131.302469 -36.200781 
L 132.843389 -36.200781 
L 134.38431 -36.200781 
L 135.92523 -36.200781 
L 137.466151 -36.200781 
L 139.007071 -36.200781 
L 140.547992 -36.200781 
L 142.088912 -36.200781 
L 143.629833 -36.200781 
L 145.170753 -36.200781 
L 146.711674 -36.200781 
L 148.252594 -36.200781 
L 149.793515 -36.200781 
L 151.334435 -36.200781 
L 152.875356 -36.200781 
L 154.416276 -36.200781 
L 155.957197 -36.200781 
L 157.498117 -36.200781 
L 159.039038 -36.200781 
L 160.579958 -36.200781 
L 162.120879 -36.200781 
L 163.661799 -36.200781 
L 165.20272 -36.200781 
L 166.74364 -36.200781 
L 168.284561 -36.200781 
L 169.825481 -36.200781 
L 171.366402 -36.200781 
L 172.907322 -36.200781 
L 174.448243 -36.200781 
L 175.989163 -36.200781 
L 177.530084 -36.200781 
L 179.071004 -36.200781 
L 180.611925 -36.200781 
L 182.152845 -36.200781 
L 183.693766 -36.200781 
L 185.234686 -36.200781 
L 186.775607 -36.200781 
L 188.316527 -36.200781 
L 189.857448 -36.200781 
L 191.398368 -36.200781 
L 192.939289 -36.200781 
L 194.480209 -36.200781 
L 196.02113 -36.200781 
L 197.56205 -36.200781 
L 199.102971 -36.200781 
L 200.643891 -36.200781 
L 202.184812 -36.200781 
L 203.725732 -36.200781 
L 205.266653 -36.200781 
L 206.807573 -36.200781 
L 208.348494 -36.200781 
L 209.889414 -36.200781 
L 211.430335 -36.200781 
L 212.971255 -36.200781 
L 214.512176 -36.200781 
L 216.053096 -36.200781 
L 217.594017 -36.200781 
L 219.134937 -36.200781 
L 220.675858 -36.200781 
L 222.216778 -36.200781 
L 223.757699 -36.200781 
L 225.298619 -36.200781 
L 226.83954 -36.200781 
L 228.38046 -36.200781 
L 229.921381 -36.200781 
L 231.462301 -36.200781 
L 233.003222 -36.200781 
L 234.544142 -36.200781 
L 236.085063 -36.200781 
L 237.625983 -36.200781 
L 239.166904 -36.200781 
L 240.707824 -36.200781 
L 242.248745 -36.200781 
L 243.789665 -36.200781 
L 245.330586 -36.200781 
L 246.871506 -36.200781 
L 248.412427 -36.200781 
L 249.953347 -36.200781 
L 251.494268 -36.200781 
L 253.035188 -36.200781 
L 254.576109 -36.200781 
L 256.117029 -36.200781 
L 257.65795 -36.200781 
L 259.19887 -36.200781 
L 260.739791 -36.200781 
L 262.280711 -36.200781 
L 263.821632 -36.200781 
L 265.362552 -36.200781 
L 266.903473 -36.200781 
L 268.444393 -36.200781 
L 269.985314 -36.200781 
L 271.526234 -36.200781 
L 273.067155 -36.200781 
L 274.608075 -36.200781 
L 276.148996 -36.200781 
L 277.689916 -36.200781 
L 279.230837 -36.200781 
L 280.771757 -36.200781 
L 282.312678 -36.200781 
L 283.853598 -36.200781 
L 285.394519 -36.200781 
L 286.935439 -36.200781 
L 288.47636 -36.200781 
L 290.01728 -36.200781 
L 291.558201 -36.200781 
L 293.099121 -36.200781 
L 294.640042 -36.200781 
L 296.180962 -36.200781 
L 297.721883 -36.200781 
L 299.262803 -36.200781 
L 300.803724 -36.200781 
L 302.344644 -36.200781 
L 303.885565 -36.200781 
L 305.426485 -36.200781 
L 306.967406 -36.200781 
L 308.508326 -36.200781 
L 310.049247 -36.200781 
L 311.590167 -36.200781 
L 313.131088 -36.200781 
L 314.672008 -36.200781 
L 316.212929 -36.200781 
L 317.753849 -36.200781 
L 319.29477 -36.200781 
L 320.83569 -36.200781 
L 322.376611 -36.200781 
L 323.917531 -36.200781 
L 325.458452 -36.200781 
L 326.999372 -36.200781 
L 328.540293 -36.200781 
L 330.081213 -36.200781 
L 331.622134 -36.200781 
L 333.163054 -36.200781 
L 334.703975 -36.200781 
L 336.244895 -36.200781 
L 337.785816 -36.200781 
L 339.326736 -36.200781 
L 340.867657 -36.200781 
L 342.408577 -36.200781 
L 343.949498 -36.200781 
L 345.490418 -36.200781 
L 347.031339 -36.200781 
L 348.572259 -36.200781 
L 350.11318 -36.200781 
L 351.6541 -36.200781 
L 353.195021 -36.200781 
L 354.735941 -36.200781 
L 356.276862 -36.200781 
L 357.817782 -36.200781 
L 359.358703 -36.200781 
L 360.899623 -36.200781 
L 362.440544 -36.200781 
L 363.981464 -36.200781 
L 365.522385 -36.200781 
L 367.063305 -36.200781 
L 368.604226 -36.200781 
L 370.145146 -36.200781 
L 371.686067 -36.200781 
L 373.226987 -36.200781 
L 374.767908 -36.200781 
L 376.308828 -36.200781 
L 377.849749 -36.200781 
L 379.390669 -36.200781 
L 380.93159 -36.200781 
L 382.47251 -36.200781 
L 384.013431 -36.200781 
L 385.554351 -36.200781 
L 387.095272 -36.200781 
L 388.636192 -36.200781 
L 390.177113 -36.200781 
L 391.718033 -36.200781 
L 393.258954 -36.200781 
L 394.799874 -36.200781 
L 396.340795 -36.200781 
L 397.881715 -36.200781 
L 399.422636 -36.200781 
L 400.963556 -36.200781 
L 402.504477 -36.200781 
L 404.045397 -36.200781 
L 405.586318 -36.200781 
L 407.127238 -36.200781 
L 408.668159 -36.200781 
L 410.209079 -36.200781 
L 411.75 -36.200781 
L 411.75 -36.200781 
L 411.75 -36.200781 
L 410.209079 -36.987108 
L 408.668159 -37.773436 
L 407.127238 -38.559763 
L 405.586318 -39.34609 
L 404.045397 -40.132417 
L 402.504477 -40.918745 
L 400.963556 -41.705072 
L 399.422636 -42.491399 
L 397.881715 -43.277726 
L 396.340795 -44.064053 
L 394.799874 -44.850381 
L 393.258954 -45.636708 
L 391.718033 -46.423035 
L 390.177113 -47.209362 
L 388.636192 -47.995689 
L 387.095272 -48.782017 
L 385.554351 -49.568344 
L 384.013431 -50.354671 
L 382.47251 -51.140998 
L 380.93159 -51.927325 
L 379.390669 -52.713653 
L 377.849749 -53.49998 
L 376.308828 -54.286307 
L 374.767908 -55.072634 
L 373.226987 -55.858962 
L 371.686067 -56.645289 
L 370.145146 -57.431616 
L 368.604226 -58.217943 
L 367.063305 -59.00427 
L 365.522385 -59.790598 
L 363.981464 -60.576925 
L 362.440544 -61.363252 
L 360.899623 -62.149579 
L 359.358703 -62.935906 
L 357.817782 -63.722234 
L 356.276862 -64.508561 
L 354.735941 -65.294888 
L 353.195021 -66.081215 
L 351.6541 -66.867542 
L 350.11318 -67.65387 
L 348.572259 -68.440197 
L 347.031339 -69.226524 
L 345.490418 -70.012851 
L 343.949498 -70.799179 
L 342.408577 -71.585506 
L 340.867657 -72.371833 
L 339.326736 -73.15816 
L 337.785816 -73.944487 
L 336.244895 -74.730815 
L 334.703975 -75.517142 
L 333.163054 -76.303469 
L 331.622134 -77.089796 
L 330.081213 -77.876123 
L 328.540293 -78.662451 
L 326.999372 -79.448778 
L 325.458452 -80.235105 
L 323.917531 -81.021432 
L 322.376611 -81.807759 
L 320.83569 -82.594087 
L 319.29477 -83.380414 
L 317.753849 -84.166741 
L 316.212929 -84.953068 
L 314.672008 -85.739396 
L 313.131088 -86.525723 
L 311.590167 -87.31205 
L 310.049247 -88.098377 
L 308.508326 -88.884704 
L 306.967406 -89.671032 
L 305.426485 -90.457359 
L 303.885565 -91.243686 
L 302.344644 -92.030013 
L 300.803724 -92.81634 
L 299.262803 -93.602668 
L 297.721883 -94.388995 
L 296.180962 -95.175322 
L 294.640042 -95.961649 
L 293.099121 -96.747976 
L 291.558201 -97.534304 
L 290.01728 -98.320631 
L 288.47636 -99.106958 
L 286.935439 -99.893285 
L 285.394519 -100.679613 
L 283.853598 -101.46594 
L 282.312678 -102.252267 
L 280.771757 -103.038594 
L 279.230837 -103.824921 
L 277.689916 -104.611249 
L 276.148996 -105.397576 
L 274.608075 -106.183903 
L 273.067155 -106.97023 
L 271.526234 -107.756557 
L 269.985314 -108.542885 
L 268.444393 -109.329212 
L 266.903473 -110.115539 
L 265.362552 -110.901866 
L 263.821632 -111.688193 
L 262.280711 -112.474521 
L 260.739791 -113.260848 
L 259.19887 -114.047175 
L 257.65795 -114.833502 
L 256.117029 -115.61983 
L 254.576109 -116.406157 
L 253.035188 -117.192484 
L 251.494268 -117.978811 
L 249.953347 -118.765138 
L 248.412427 -119.551466 
L 246.871506 -120.337793 
L 245.330586 -121.12412 
L 243.789665 -121.910447 
L 242.248745 -122.696774 
L 240.707824 -123.483102 
L 239.166904 -124.269429 
L 237.625983 -125.055756 
L 236.085063 -125.842083 
L 234.544142 -126.62841 
L 233.003222 -127.414738 
L 231.462301 -128.201065 
L 229.921381 -128.987392 
L 228.38046 -129.773719 
L 226.83954 -130.560047 
L 225.298619 -131.346374 
L 223.757699 -132.132701 
L 222.216778 -132.919028 
L 220.675858 -133.705355 
L 219.134937 -134.491683 
L 217.594017 -135.27801 
L 216.053096 -136.064337 
L 214.512176 -136.850664 
L 212.971255 -137.636991 
L 211.430335 -138.423319 
L 209.889414 -139.209646 
L 208.348494 -139.995973 
L 206.807573 -140.7823 
L 205.266653 -141.568628 
L 203.725732 -142.354955 
L 202.184812 -143.141282 
L 200.643891 -143.927609 
L 199.102971 -144.713936 
L 197.56205 -145.500264 
L 196.02113 -146.286591 
L 194.480209 -147.072918 
L 192.939289 -147.859245 
L 191.398368 -148.645572 
L 189.857448 -149.4319 
L 188.316527 -150.218227 
L 186.775607 -151.004554 
L 185.234686 -151.790881 
L 183.693766 -152.577208 
L 182.152845 -153.363536 
L 180.611925 -154.149863 
L 179.071004 -154.93619 
L 177.530084 -155.722517 
L 175.989163 -156.508845 
L 174.448243 -157.295172 
L 172.907322 -158.081499 
L 171.366402 -158.867826 
L 169.825481 -159.654153 
L 168.284561 -160.440481 
L 166.74364 -161.226808 
L 165.20272 -162.013135 
L 163.661799 -162.799462 
L 162.120879 -163.585789 
L 160.579958 -164.372117 
L 159.039038 -165.158444 
L 157.498117 -165.944771 
L 155.957197 -166.731098 
L 154.416276 -167.517425 
L 152.875356 -168.303753 
L 151.334435 -169.09008 
L 149.793515 -169.876407 
L 148.252594 -170.662734 
L 146.711674 -171.449062 
L 145.170753 -172.235389 
L 143.629833 -173.021716 
L 142.088912 -173.808043 
L 140.547992 -174.59437 
L 139.007071 -175.380698 
L 137.466151 -176.167025 
L 135.92523 -176.953352 
L 134.38431 -177.739679 
L 132.843389 -178.526006 
L 131.302469 -179.312334 
L 129.761548 -180.098661 
L 128.220628 -180.884988 
L 126.679707 -181.671315 
L 125.138787 -182.457642 
L 123.597866 -183.24397 
L 122.056946 -184.030297 
L 120.516025 -184.816624 
L 118.975105 -185.602951 
L 117.434184 -186.389279 
L 115.893264 -187.175606 
L 114.352343 -187.961933 
L 112.811423 -188.74826 
L 111.270502 -189.534587 
L 109.729582 -190.320915 
L 108.188661 -191.107242 
L 106.647741 -191.893569 
L 105.10682 -192.679896 
L 103.5659 -193.466223 
L 102.024979 -194.252551 
L 100.484059 -195.038878 
L 98.943138 -195.825205 
L 97.402218 -196.611532 
L 95.861297 -197.397859 
L 94.320377 -198.184187 
L 92.779456 -198.970514 
L 91.238536 -199.756841 
L 89.697615 -200.543168 
L 88.156695 -201.329496 
L 86.615774 -202.115823 
L 85.074854 -202.90215 
L 83.533933 -203.688477 
L 81.993013 -204.474804 
L 80.452092 -205.261132 
L 78.911172 -206.047459 
L 77.370251 -206.833786 
L 75.829331 -207.620113 
L 74.28841 -208.40644 
L 72.74749 -209.192768 
L 71.206569 -209.979095 
L 69.665649 -210.765422 
L 68.124728 -211.551749 
L 66.583808 -212.338076 
L 65.042887 -213.124404 
L 63.501967 -213.910731 
L 61.961046 -214.697058 
L 60.420126 -215.483385 
L 58.879205 -216.269713 
L 57.338285 -217.05604 
L 55.797364 -217.842367 
L 54.256444 -218.628694 
L 52.715523 -219.415021 
L 51.174603 -220.201349 
L 49.633682 -220.987676 
L 48.092762 -221.774003 
L 46.551841 -222.56033 
L 45.010921 -223.346657 
L 43.47 -224.132985 
z
"/>
    </defs>
    <g clip-path="url(#pcf6b9a15e4)">
     <use xlink:href="#mdb51615db5" x="0" y="265.160781" style="fill: #2f6f4f; fill-opacity: 0.16"/>
    </g>
   </g>
   <g id="matplotlib.axis_1">
    <g id="xtick_1">
     <g id="line2d_1">
      <defs>
       <path id="me965f43b25" d="M 0 0 
L 0 3.5 
" style="stroke: #8a929b; stroke-width: 0.8"/>
      </defs>
      <g>
       <use xlink:href="#me965f43b25" x="43.47" y="228.96" style="fill: #8a929b; stroke: #8a929b; stroke-width: 0.8"/>
      </g>
     </g>
     <g id="text_1">
      <!-- 0.0 -->
      <g style="fill: #8a929b" transform="translate(37.10875 242.038125) scale(0.08 -0.08)">
       <defs>
        <path id="DejaVuSans-13" d="M 2034 4250 
Q 1547 4250 1301 3770 
Q 1056 3291 1056 2328 
Q 1056 1369 1301 889 
Q 1547 409 2034 409 
Q 2525 409 2770 889 
Q 3016 1369 3016 2328 
Q 3016 3291 2770 3770 
Q 2525 4250 2034 4250 
z
M 2034 4750 
Q 2819 4750 3233 4129 
Q 3647 3509 3647 2328 
Q 3647 1150 3233 529 
Q 2819 -91 2034 -91 
Q 1250 -91 836 529 
Q 422 1150 422 2328 
Q 422 3509 836 4129 
Q 1250 4750 2034 4750 
z
" transform="scale(0.015625)"/>
        <path id="DejaVuSans-11" d="M 684 794 
L 1344 794 
L 1344 0 
L 684 0 
L 684 794 
z
" transform="scale(0.015625)"/>
       </defs>
       <use xlink:href="#DejaVuSans-13"/>
       <use xlink:href="#DejaVuSans-11" transform="translate(63.625 0)"/>
       <use xlink:href="#DejaVuSans-13" transform="translate(95.40625 0)"/>
      </g>
     </g>
    </g>
    <g id="xtick_2">
     <g id="line2d_2">
      <g>
       <use xlink:href="#me965f43b25" x="89.505" y="228.96" style="fill: #8a929b; stroke: #8a929b; stroke-width: 0.8"/>
      </g>
     </g>
     <g id="text_2">
      <!-- 2.5 -->
      <g style="fill: #8a929b" transform="translate(83.14375 242.038125) scale(0.08 -0.08)">
       <defs>
        <path id="DejaVuSans-15" d="M 1228 531 
L 3431 531 
L 3431 0 
L 469 0 
L 469 531 
Q 828 903 1448 1529 
Q 2069 2156 2228 2338 
Q 2531 2678 2651 2914 
Q 2772 3150 2772 3378 
Q 2772 3750 2511 3984 
Q 2250 4219 1831 4219 
Q 1534 4219 1204 4116 
Q 875 4013 500 3803 
L 500 4441 
Q 881 4594 1212 4672 
Q 1544 4750 1819 4750 
Q 2544 4750 2975 4387 
Q 3406 4025 3406 3419 
Q 3406 3131 3298 2873 
Q 3191 2616 2906 2266 
Q 2828 2175 2409 1742 
Q 1991 1309 1228 531 
z
" transform="scale(0.015625)"/>
        <path id="DejaVuSans-18" d="M 691 4666 
L 3169 4666 
L 3169 4134 
L 1269 4134 
L 1269 2991 
Q 1406 3038 1543 3061 
Q 1681 3084 1819 3084 
Q 2600 3084 3056 2656 
Q 3513 2228 3513 1497 
Q 3513 744 3044 326 
Q 2575 -91 1722 -91 
Q 1428 -91 1123 -41 
Q 819 9 494 109 
L 494 744 
Q 775 591 1075 516 
Q 1375 441 1709 441 
Q 2250 441 2565 725 
Q 2881 1009 2881 1497 
Q 2881 1984 2565 2268 
Q 2250 2553 1709 2553 
Q 1456 2553 1204 2497 
Q 953 2441 691 2322 
L 691 4666 
z
" transform="scale(0.015625)"/>
       </defs>
       <use xlink:href="#DejaVuSans-15"/>
       <use xlink:href="#DejaVuSans-11" transform="translate(63.625 0)"/>
       <use xlink:href="#DejaVuSans-18" transform="translate(95.40625 0)"/>
      </g>
     </g>
    </g>
    <g id="xtick_3">
     <g id="line2d_3">
      <g>
       <use xlink:href="#me965f43b25" x="135.54" y="228.96" style="fill: #8a929b; stroke: #8a929b; stroke-width: 0.8"/>
      </g>
     </g>
     <g id="text_3">
      <!-- 5.0 -->
      <g style="fill: #8a929b" transform="translate(129.17875 242.038125) scale(0.08 -0.08)">
       <use xlink:href="#DejaVuSans-18"/>
       <use xlink:href="#DejaVuSans-11" transform="translate(63.625 0)"/>
       <use xlink:href="#DejaVuSans-13" transform="translate(95.40625 0)"/>
      </g>
     </g>
    </g>
    <g id="xtick_4">
     <g id="line2d_4">
      <g>
       <use xlink:href="#me965f43b25" x="181.575" y="228.96" style="fill: #8a929b; stroke: #8a929b; stroke-width: 0.8"/>
      </g>
     </g>
     <g id="text_4">
      <!-- 7.5 -->
      <g style="fill: #8a929b" transform="translate(175.21375 242.038125) scale(0.08 -0.08)">
       <defs>
        <path id="DejaVuSans-1a" d="M 525 4666 
L 3525 4666 
L 3525 4397 
L 1831 0 
L 1172 0 
L 2766 4134 
L 525 4134 
L 525 4666 
z
" transform="scale(0.015625)"/>
       </defs>
       <use xlink:href="#DejaVuSans-1a"/>
       <use xlink:href="#DejaVuSans-11" transform="translate(63.625 0)"/>
       <use xlink:href="#DejaVuSans-18" transform="translate(95.40625 0)"/>
      </g>
     </g>
    </g>
    <g id="xtick_5">
     <g id="line2d_5">
      <g>
       <use xlink:href="#me965f43b25" x="227.61" y="228.96" style="fill: #8a929b; stroke: #8a929b; stroke-width: 0.8"/>
      </g>
     </g>
     <g id="text_5">
      <!-- 10.0 -->
      <g style="fill: #8a929b" transform="translate(218.70375 242.038125) scale(0.08 -0.08)">
       <defs>
        <path id="DejaVuSans-14" d="M 794 531 
L 1825 531 
L 1825 4091 
L 703 3866 
L 703 4441 
L 1819 4666 
L 2450 4666 
L 2450 531 
L 3481 531 
L 3481 0 
L 794 0 
L 794 531 
z
" transform="scale(0.015625)"/>
       </defs>
       <use xlink:href="#DejaVuSans-14"/>
       <use xlink:href="#DejaVuSans-13" transform="translate(63.625 0)"/>
       <use xlink:href="#DejaVuSans-11" transform="translate(127.25 0)"/>
       <use xlink:href="#DejaVuSans-13" transform="translate(159.03125 0)"/>
      </g>
     </g>
    </g>
    <g id="xtick_6">
     <g id="line2d_6">
      <g>
       <use xlink:href="#me965f43b25" x="273.645" y="228.96" style="fill: #8a929b; stroke: #8a929b; stroke-width: 0.8"/>
      </g>
     </g>
     <g id="text_6">
      <!-- 12.5 -->
      <g style="fill: #8a929b" transform="translate(264.73875 242.038125) scale(0.08 -0.08)">
       <use xlink:href="#DejaVuSans-14"/>
       <use xlink:href="#DejaVuSans-15" transform="translate(63.625 0)"/>
       <use xlink:href="#DejaVuSans-11" transform="translate(127.25 0)"/>
       <use xlink:href="#DejaVuSans-18" transform="translate(159.03125 0)"/>
      </g>
     </g>
    </g>
    <g id="xtick_7">
     <g id="line2d_7">
      <g>
       <use xlink:href="#me965f43b25" x="319.68" y="228.96" style="fill: #8a929b; stroke: #8a929b; stroke-width: 0.8"/>
      </g>
     </g>
     <g id="text_7">
      <!-- 15.0 -->
      <g style="fill: #8a929b" transform="translate(310.77375 242.038125) scale(0.08 -0.08)">
       <use xlink:href="#DejaVuSans-14"/>
       <use xlink:href="#DejaVuSans-18" transform="translate(63.625 0)"/>
       <use xlink:href="#DejaVuSans-11" transform="translate(127.25 0)"/>
       <use xlink:href="#DejaVuSans-13" transform="translate(159.03125 0)"/>
      </g>
     </g>
    </g>
    <g id="xtick_8">
     <g id="line2d_8">
      <g>
       <use xlink:href="#me965f43b25" x="365.715" y="228.96" style="fill: #8a929b; stroke: #8a929b; stroke-width: 0.8"/>
      </g>
     </g>
     <g id="text_8">
      <!-- 17.5 -->
      <g style="fill: #8a929b" transform="translate(356.80875 242.038125) scale(0.08 -0.08)">
       <use xlink:href="#DejaVuSans-14"/>
       <use xlink:href="#DejaVuSans-1a" transform="translate(63.625 0)"/>
       <use xlink:href="#DejaVuSans-11" transform="translate(127.25 0)"/>
       <use xlink:href="#DejaVuSans-18" transform="translate(159.03125 0)"/>
      </g>
     </g>
    </g>
    <g id="xtick_9">
     <g id="line2d_9">
      <g>
       <use xlink:href="#me965f43b25" x="411.75" y="228.96" style="fill: #8a929b; stroke: #8a929b; stroke-width: 0.8"/>
      </g>
     </g>
     <g id="text_9">
      <!-- 20.0 -->
      <g style="fill: #8a929b" transform="translate(402.84375 242.038125) scale(0.08 -0.08)">
       <use xlink:href="#DejaVuSans-15"/>
       <use xlink:href="#DejaVuSans-13" transform="translate(63.625 0)"/>
       <use xlink:href="#DejaVuSans-11" transform="translate(127.25 0)"/>
       <use xlink:href="#DejaVuSans-13" transform="translate(159.03125 0)"/>
      </g>
     </g>
    </g>
    <g id="text_10">
     <!-- h  (m) -->
     <g style="fill: #1f2933" transform="translate(212.49125 255.558437) scale(0.1 -0.1)">
      <defs>
       <path id="DejaVuSans-4b" d="M 3513 2113 
L 3513 0 
L 2938 0 
L 2938 2094 
Q 2938 2591 2744 2837 
Q 2550 3084 2163 3084 
Q 1697 3084 1428 2787 
Q 1159 2491 1159 1978 
L 1159 0 
L 581 0 
L 581 4863 
L 1159 4863 
L 1159 2956 
Q 1366 3272 1645 3428 
Q 1925 3584 2291 3584 
Q 2894 3584 3203 3211 
Q 3513 2838 3513 2113 
z
" transform="scale(0.015625)"/>
       <path id="DejaVuSans-3" transform="scale(0.015625)"/>
       <path id="DejaVuSans-b" d="M 1984 4856 
Q 1566 4138 1362 3434 
Q 1159 2731 1159 2009 
Q 1159 1288 1364 580 
Q 1569 -128 1984 -844 
L 1484 -844 
Q 1016 -109 783 600 
Q 550 1309 550 2009 
Q 550 2706 781 3412 
Q 1013 4119 1484 4856 
L 1984 4856 
z
" transform="scale(0.015625)"/>
       <path id="DejaVuSans-50" d="M 3328 2828 
Q 3544 3216 3844 3400 
Q 4144 3584 4550 3584 
Q 5097 3584 5394 3201 
Q 5691 2819 5691 2113 
L 5691 0 
L 5113 0 
L 5113 2094 
Q 5113 2597 4934 2840 
Q 4756 3084 4391 3084 
Q 3944 3084 3684 2787 
Q 3425 2491 3425 1978 
L 3425 0 
L 2847 0 
L 2847 2094 
Q 2847 2600 2669 2842 
Q 2491 3084 2119 3084 
Q 1678 3084 1418 2786 
Q 1159 2488 1159 1978 
L 1159 0 
L 581 0 
L 581 3500 
L 1159 3500 
L 1159 2956 
Q 1356 3278 1631 3431 
Q 1906 3584 2284 3584 
Q 2666 3584 2933 3390 
Q 3200 3197 3328 2828 
z
" transform="scale(0.015625)"/>
       <path id="DejaVuSans-c" d="M 513 4856 
L 1013 4856 
Q 1481 4119 1714 3412 
Q 1947 2706 1947 2009 
Q 1947 1309 1714 600 
Q 1481 -109 1013 -844 
L 513 -844 
Q 928 -128 1133 580 
Q 1338 1288 1338 2009 
Q 1338 2731 1133 3434 
Q 928 4138 513 4856 
z
" transform="scale(0.015625)"/>
      </defs>
      <use xlink:href="#DejaVuSans-4b"/>
      <use xlink:href="#DejaVuSans-3" transform="translate(63.375 0)"/>
      <use xlink:href="#DejaVuSans-3" transform="translate(95.15625 0)"/>
      <use xlink:href="#DejaVuSans-b" transform="translate(126.9375 0)"/>
      <use xlink:href="#DejaVuSans-50" transform="translate(165.953125 0)"/>
      <use xlink:href="#DejaVuSans-c" transform="translate(263.359375 0)"/>
     </g>
    </g>
   </g>
   <g id="matplotlib.axis_2">
    <g id="ytick_1">
     <g id="line2d_10">
      <defs>
       <path id="m567fa0f3f8" d="M 0 0 
L -3.5 0 
" style="stroke: #8a929b; stroke-width: 0.8"/>
      </defs>
      <g>
       <use xlink:href="#m567fa0f3f8" x="43.47" y="228.96" style="fill: #8a929b; stroke: #8a929b; stroke-width: 0.8"/>
      </g>
     </g>
     <g id="text_11">
      <!-- 0 -->
      <g style="fill: #8a929b" transform="translate(31.38 231.999062) scale(0.08 -0.08)">
       <use xlink:href="#DejaVuSans-13"/>
      </g>
     </g>
    </g>
    <g id="ytick_2">
     <g id="line2d_11">
      <g>
       <use xlink:href="#m567fa0f3f8" x="43.47" y="181.976949" style="fill: #8a929b; stroke: #8a929b; stroke-width: 0.8"/>
      </g>
     </g>
     <g id="text_12">
      <!-- 100 -->
      <g style="fill: #8a929b" transform="translate(21.2 185.016012) scale(0.08 -0.08)">
       <use xlink:href="#DejaVuSans-14"/>
       <use xlink:href="#DejaVuSans-13" transform="translate(63.625 0)"/>
       <use xlink:href="#DejaVuSans-13" transform="translate(127.25 0)"/>
      </g>
     </g>
    </g>
    <g id="ytick_3">
     <g id="line2d_12">
      <g>
       <use xlink:href="#m567fa0f3f8" x="43.47" y="134.993898" style="fill: #8a929b; stroke: #8a929b; stroke-width: 0.8"/>
      </g>
     </g>
     <g id="text_13">
      <!-- 200 -->
      <g style="fill: #8a929b" transform="translate(21.2 138.032961) scale(0.08 -0.08)">
       <use xlink:href="#DejaVuSans-15"/>
       <use xlink:href="#DejaVuSans-13" transform="translate(63.625 0)"/>
       <use xlink:href="#DejaVuSans-13" transform="translate(127.25 0)"/>
      </g>
     </g>
    </g>
    <g id="ytick_4">
     <g id="line2d_13">
      <g>
       <use xlink:href="#m567fa0f3f8" x="43.47" y="88.010847" style="fill: #8a929b; stroke: #8a929b; stroke-width: 0.8"/>
      </g>
     </g>
     <g id="text_14">
      <!-- 300 -->
      <g style="fill: #8a929b" transform="translate(21.2 91.04991) scale(0.08 -0.08)">
       <defs>
        <path id="DejaVuSans-16" d="M 2597 2516 
Q 3050 2419 3304 2112 
Q 3559 1806 3559 1356 
Q 3559 666 3084 287 
Q 2609 -91 1734 -91 
Q 1441 -91 1130 -33 
Q 819 25 488 141 
L 488 750 
Q 750 597 1062 519 
Q 1375 441 1716 441 
Q 2309 441 2620 675 
Q 2931 909 2931 1356 
Q 2931 1769 2642 2001 
Q 2353 2234 1838 2234 
L 1294 2234 
L 1294 2753 
L 1863 2753 
Q 2328 2753 2575 2939 
Q 2822 3125 2822 3475 
Q 2822 3834 2567 4026 
Q 2313 4219 1838 4219 
Q 1578 4219 1281 4162 
Q 984 4106 628 3988 
L 628 4550 
Q 988 4650 1302 4700 
Q 1616 4750 1894 4750 
Q 2613 4750 3031 4423 
Q 3450 4097 3450 3541 
Q 3450 3153 3228 2886 
Q 3006 2619 2597 2516 
z
" transform="scale(0.015625)"/>
       </defs>
       <use xlink:href="#DejaVuSans-16"/>
       <use xlink:href="#DejaVuSans-13" transform="translate(63.625 0)"/>
       <use xlink:href="#DejaVuSans-13" transform="translate(127.25 0)"/>
      </g>
     </g>
    </g>
    <g id="ytick_5">
     <g id="line2d_14">
      <g>
       <use xlink:href="#m567fa0f3f8" x="43.47" y="41.027797" style="fill: #8a929b; stroke: #8a929b; stroke-width: 0.8"/>
      </g>
     </g>
     <g id="text_15">
      <!-- 400 -->
      <g style="fill: #8a929b" transform="translate(21.2 44.066859) scale(0.08 -0.08)">
       <defs>
        <path id="DejaVuSans-17" d="M 2419 4116 
L 825 1625 
L 2419 1625 
L 2419 4116 
z
M 2253 4666 
L 3047 4666 
L 3047 1625 
L 3713 1625 
L 3713 1100 
L 3047 1100 
L 3047 0 
L 2419 0 
L 2419 1100 
L 313 1100 
L 313 1709 
L 2253 4666 
z
" transform="scale(0.015625)"/>
       </defs>
       <use xlink:href="#DejaVuSans-17"/>
       <use xlink:href="#DejaVuSans-13" transform="translate(63.625 0)"/>
       <use xlink:href="#DejaVuSans-13" transform="translate(127.25 0)"/>
      </g>
     </g>
    </g>
    <g id="text_16">
     <!-- energy  (J) -->
     <g style="fill: #1f2933" transform="translate(14.797656 144.058125) rotate(-90) scale(0.1 -0.1)">
      <defs>
       <path id="DejaVuSans-48" d="M 3597 1894 
L 3597 1613 
L 953 1613 
Q 991 1019 1311 708 
Q 1631 397 2203 397 
Q 2534 397 2845 478 
Q 3156 559 3463 722 
L 3463 178 
Q 3153 47 2828 -22 
Q 2503 -91 2169 -91 
Q 1331 -91 842 396 
Q 353 884 353 1716 
Q 353 2575 817 3079 
Q 1281 3584 2069 3584 
Q 2775 3584 3186 3129 
Q 3597 2675 3597 1894 
z
M 3022 2063 
Q 3016 2534 2758 2815 
Q 2500 3097 2075 3097 
Q 1594 3097 1305 2825 
Q 1016 2553 972 2059 
L 3022 2063 
z
" transform="scale(0.015625)"/>
       <path id="DejaVuSans-51" d="M 3513 2113 
L 3513 0 
L 2938 0 
L 2938 2094 
Q 2938 2591 2744 2837 
Q 2550 3084 2163 3084 
Q 1697 3084 1428 2787 
Q 1159 2491 1159 1978 
L 1159 0 
L 581 0 
L 581 3500 
L 1159 3500 
L 1159 2956 
Q 1366 3272 1645 3428 
Q 1925 3584 2291 3584 
Q 2894 3584 3203 3211 
Q 3513 2838 3513 2113 
z
" transform="scale(0.015625)"/>
       <path id="DejaVuSans-55" d="M 2631 2963 
Q 2534 3019 2420 3045 
Q 2306 3072 2169 3072 
Q 1681 3072 1420 2755 
Q 1159 2438 1159 1844 
L 1159 0 
L 581 0 
L 581 3500 
L 1159 3500 
L 1159 2956 
Q 1341 3275 1631 3429 
Q 1922 3584 2338 3584 
Q 2397 3584 2469 3576 
Q 2541 3569 2628 3553 
L 2631 2963 
z
" transform="scale(0.015625)"/>
       <path id="DejaVuSans-4a" d="M 2906 1791 
Q 2906 2416 2648 2759 
Q 2391 3103 1925 3103 
Q 1463 3103 1205 2759 
Q 947 2416 947 1791 
Q 947 1169 1205 825 
Q 1463 481 1925 481 
Q 2391 481 2648 825 
Q 2906 1169 2906 1791 
z
M 3481 434 
Q 3481 -459 3084 -895 
Q 2688 -1331 1869 -1331 
Q 1566 -1331 1297 -1286 
Q 1028 -1241 775 -1147 
L 775 -588 
Q 1028 -725 1275 -790 
Q 1522 -856 1778 -856 
Q 2344 -856 2625 -561 
Q 2906 -266 2906 331 
L 2906 616 
Q 2728 306 2450 153 
Q 2172 0 1784 0 
Q 1141 0 747 490 
Q 353 981 353 1791 
Q 353 2603 747 3093 
Q 1141 3584 1784 3584 
Q 2172 3584 2450 3431 
Q 2728 3278 2906 2969 
L 2906 3500 
L 3481 3500 
L 3481 434 
z
" transform="scale(0.015625)"/>
       <path id="DejaVuSans-5c" d="M 2059 -325 
Q 1816 -950 1584 -1140 
Q 1353 -1331 966 -1331 
L 506 -1331 
L 506 -850 
L 844 -850 
Q 1081 -850 1212 -737 
Q 1344 -625 1503 -206 
L 1606 56 
L 191 3500 
L 800 3500 
L 1894 763 
L 2988 3500 
L 3597 3500 
L 2059 -325 
z
" transform="scale(0.015625)"/>
       <path id="DejaVuSans-2d" d="M 628 4666 
L 1259 4666 
L 1259 325 
Q 1259 -519 939 -900 
Q 619 -1281 -91 -1281 
L -331 -1281 
L -331 -750 
L -134 -750 
Q 284 -750 456 -515 
Q 628 -281 628 325 
L 628 4666 
z
" transform="scale(0.015625)"/>
      </defs>
      <use xlink:href="#DejaVuSans-48"/>
      <use xlink:href="#DejaVuSans-51" transform="translate(61.53125 0)"/>
      <use xlink:href="#DejaVuSans-48" transform="translate(124.90625 0)"/>
      <use xlink:href="#DejaVuSans-55" transform="translate(186.4375 0)"/>
      <use xlink:href="#DejaVuSans-4a" transform="translate(225.796875 0)"/>
      <use xlink:href="#DejaVuSans-5c" transform="translate(289.28125 0)"/>
      <use xlink:href="#DejaVuSans-3" transform="translate(348.46875 0)"/>
      <use xlink:href="#DejaVuSans-3" transform="translate(380.25 0)"/>
      <use xlink:href="#DejaVuSans-b" transform="translate(412.03125 0)"/>
      <use xlink:href="#DejaVuSans-2d" transform="translate(451.046875 0)"/>
      <use xlink:href="#DejaVuSans-c" transform="translate(480.546875 0)"/>
     </g>
    </g>
   </g>
   <g id="line2d_15">
    <path d="M 43.47 41.027797 
L 411.75 228.96 
L 411.75 228.96 
" clip-path="url(#pcf6b9a15e4)" style="fill: none; stroke: #2f6f4f; stroke-width: 2.2; stroke-linecap: square"/>
   </g>
   <g id="line2d_16">
    <path d="M 43.47 228.96 
L 411.75 41.027797 
L 411.75 41.027797 
" clip-path="url(#pcf6b9a15e4)" style="fill: none; stroke: #1f2933; stroke-width: 2.2; stroke-linecap: square"/>
   </g>
   <g id="line2d_17">
    <path d="M 43.47 41.027797 
L 411.75 41.027797 
L 411.75 41.027797 
" clip-path="url(#pcf6b9a15e4)" style="fill: none; stroke-dasharray: 6.66,2.88; stroke-dashoffset: 0; stroke: #8a929b; stroke-width: 1.8"/>
   </g>
   <g id="patch_3">
    <path d="M 43.47 228.96 
L 43.47 7.2 
" style="fill: none; stroke: #d8d4c8; stroke-width: 0.8; stroke-linejoin: miter; stroke-linecap: square"/>
   </g>
   <g id="patch_4">
    <path d="M 43.47 228.96 
L 411.75 228.96 
" style="fill: none; stroke: #d8d4c8; stroke-width: 0.8; stroke-linejoin: miter; stroke-linecap: square"/>
   </g>
   <g id="text_17">
    <g id="patch_5">
     <path d="M 145.979203 40.218844 
L 309.240797 40.218844 
Q 311.648797 40.218844 311.648797 37.810844 
L 311.648797 29.210173 
Q 311.648797 26.802173 309.240797 26.802173 
L 145.979203 26.802173 
Q 143.571203 26.802173 143.571203 29.210173 
L 143.571203 37.810844 
Q 143.571203 40.218844 145.979203 40.218844 
z
" style="fill: #fbfaf7; opacity: 0.92; stroke: #d8d4c8; stroke-width: 0.6; stroke-linejoin: miter"/>
    </g>
    <!-- Total stays flat — energy is conserved -->
    <g style="fill: #1f2933" transform="translate(145.979203 35.744829) scale(0.086 -0.086)">
     <defs>
      <path id="DejaVuSans-37" d="M -19 4666 
L 3928 4666 
L 3928 4134 
L 2272 4134 
L 2272 0 
L 1638 0 
L 1638 4134 
L -19 4134 
L -19 4666 
z
" transform="scale(0.015625)"/>
      <path id="DejaVuSans-52" d="M 1959 3097 
Q 1497 3097 1228 2736 
Q 959 2375 959 1747 
Q 959 1119 1226 758 
Q 1494 397 1959 397 
Q 2419 397 2687 759 
Q 2956 1122 2956 1747 
Q 2956 2369 2687 2733 
Q 2419 3097 1959 3097 
z
M 1959 3584 
Q 2709 3584 3137 3096 
Q 3566 2609 3566 1747 
Q 3566 888 3137 398 
Q 2709 -91 1959 -91 
Q 1206 -91 779 398 
Q 353 888 353 1747 
Q 353 2609 779 3096 
Q 1206 3584 1959 3584 
z
" transform="scale(0.015625)"/>
      <path id="DejaVuSans-57" d="M 1172 4494 
L 1172 3500 
L 2356 3500 
L 2356 3053 
L 1172 3053 
L 1172 1153 
Q 1172 725 1289 603 
Q 1406 481 1766 481 
L 2356 481 
L 2356 0 
L 1766 0 
Q 1100 0 847 248 
Q 594 497 594 1153 
L 594 3053 
L 172 3053 
L 172 3500 
L 594 3500 
L 594 4494 
L 1172 4494 
z
" transform="scale(0.015625)"/>
      <path id="DejaVuSans-44" d="M 2194 1759 
Q 1497 1759 1228 1600 
Q 959 1441 959 1056 
Q 959 750 1161 570 
Q 1363 391 1709 391 
Q 2188 391 2477 730 
Q 2766 1069 2766 1631 
L 2766 1759 
L 2194 1759 
z
M 3341 1997 
L 3341 0 
L 2766 0 
L 2766 531 
Q 2569 213 2275 61 
Q 1981 -91 1556 -91 
Q 1019 -91 701 211 
Q 384 513 384 1019 
Q 384 1609 779 1909 
Q 1175 2209 1959 2209 
L 2766 2209 
L 2766 2266 
Q 2766 2663 2505 2880 
Q 2244 3097 1772 3097 
Q 1472 3097 1187 3025 
Q 903 2953 641 2809 
L 641 3341 
Q 956 3463 1253 3523 
Q 1550 3584 1831 3584 
Q 2591 3584 2966 3190 
Q 3341 2797 3341 1997 
z
" transform="scale(0.015625)"/>
      <path id="DejaVuSans-4f" d="M 603 4863 
L 1178 4863 
L 1178 0 
L 603 0 
L 603 4863 
z
" transform="scale(0.015625)"/>
      <path id="DejaVuSans-56" d="M 2834 3397 
L 2834 2853 
Q 2591 2978 2328 3040 
Q 2066 3103 1784 3103 
Q 1356 3103 1142 2972 
Q 928 2841 928 2578 
Q 928 2378 1081 2264 
Q 1234 2150 1697 2047 
L 1894 2003 
Q 2506 1872 2764 1633 
Q 3022 1394 3022 966 
Q 3022 478 2636 193 
Q 2250 -91 1575 -91 
Q 1294 -91 989 -36 
Q 684 19 347 128 
L 347 722 
Q 666 556 975 473 
Q 1284 391 1588 391 
Q 1994 391 2212 530 
Q 2431 669 2431 922 
Q 2431 1156 2273 1281 
Q 2116 1406 1581 1522 
L 1381 1569 
Q 847 1681 609 1914 
Q 372 2147 372 2553 
Q 372 3047 722 3315 
Q 1072 3584 1716 3584 
Q 2034 3584 2315 3537 
Q 2597 3491 2834 3397 
z
" transform="scale(0.015625)"/>
      <path id="DejaVuSans-13b0" d="M 1831 4863 
L 3431 4863 
L 3431 0 
L 2853 0 
L 2853 4384 
L 1825 4384 
Q 1516 4384 1395 4259 
Q 1275 4134 1275 3809 
L 1275 3500 
L 2222 3500 
L 2222 3053 
L 1275 3053 
L 1275 0 
L 697 0 
L 697 3053 
L 147 3053 
L 147 3500 
L 697 3500 
L 697 3744 
Q 697 4328 969 4595 
Q 1241 4863 1831 4863 
z
" transform="scale(0.015625)"/>
      <path id="DejaVuSans-af6" d="M 313 1978 
L 6088 1978 
L 6088 1528 
L 313 1528 
L 313 1978 
z
" transform="scale(0.015625)"/>
      <path id="DejaVuSans-4c" d="M 603 3500 
L 1178 3500 
L 1178 0 
L 603 0 
L 603 3500 
z
M 603 4863 
L 1178 4863 
L 1178 4134 
L 603 4134 
L 603 4863 
z
" transform="scale(0.015625)"/>
      <path id="DejaVuSans-46" d="M 3122 3366 
L 3122 2828 
Q 2878 2963 2633 3030 
Q 2388 3097 2138 3097 
Q 1578 3097 1268 2742 
Q 959 2388 959 1747 
Q 959 1106 1268 751 
Q 1578 397 2138 397 
Q 2388 397 2633 464 
Q 2878 531 3122 666 
L 3122 134 
Q 2881 22 2623 -34 
Q 2366 -91 2075 -91 
Q 1284 -91 818 406 
Q 353 903 353 1747 
Q 353 2603 823 3093 
Q 1294 3584 2113 3584 
Q 2378 3584 2631 3529 
Q 2884 3475 3122 3366 
z
" transform="scale(0.015625)"/>
      <path id="DejaVuSans-59" d="M 191 3500 
L 800 3500 
L 1894 563 
L 2988 3500 
L 3597 3500 
L 2284 0 
L 1503 0 
L 191 3500 
z
" transform="scale(0.015625)"/>
      <path id="DejaVuSans-47" d="M 2906 2969 
L 2906 4863 
L 3481 4863 
L 3481 0 
L 2906 0 
L 2906 525 
Q 2725 213 2448 61 
Q 2172 -91 1784 -91 
Q 1150 -91 751 415 
Q 353 922 353 1747 
Q 353 2572 751 3078 
Q 1150 3584 1784 3584 
Q 2172 3584 2448 3432 
Q 2725 3281 2906 2969 
z
M 947 1747 
Q 947 1113 1208 752 
Q 1469 391 1925 391 
Q 2381 391 2643 752 
Q 2906 1113 2906 1747 
Q 2906 2381 2643 2742 
Q 2381 3103 1925 3103 
Q 1469 3103 1208 2742 
Q 947 2381 947 1747 
z
" transform="scale(0.015625)"/>
     </defs>
     <use xlink:href="#DejaVuSans-37"/>
     <use xlink:href="#DejaVuSans-52" transform="translate(44.09375 0)"/>
     <use xlink:href="#DejaVuSans-57" transform="translate(105.28125 0)"/>
     <use xlink:href="#DejaVuSans-44" transform="translate(144.484375 0)"/>
     <use xlink:href="#DejaVuSans-4f" transform="translate(205.765625 0)"/>
     <use xlink:href="#DejaVuSans-3" transform="translate(233.546875 0)"/>
     <use xlink:href="#DejaVuSans-56" transform="translate(265.328125 0)"/>
     <use xlink:href="#DejaVuSans-57" transform="translate(317.421875 0)"/>
     <use xlink:href="#DejaVuSans-44" transform="translate(356.625 0)"/>
     <use xlink:href="#DejaVuSans-5c" transform="translate(417.90625 0)"/>
     <use xlink:href="#DejaVuSans-56" transform="translate(477.09375 0)"/>
     <use xlink:href="#DejaVuSans-3" transform="translate(529.1875 0)"/>
     <use xlink:href="#DejaVuSans-13b0" transform="translate(560.96875 0)"/>
     <use xlink:href="#DejaVuSans-44" transform="translate(623.953125 0)"/>
     <use xlink:href="#DejaVuSans-57" transform="translate(685.234375 0)"/>
     <use xlink:href="#DejaVuSans-3" transform="translate(724.4375 0)"/>
     <use xlink:href="#DejaVuSans-af6" transform="translate(756.21875 0)"/>
     <use xlink:href="#DejaVuSans-3" transform="translate(856.21875 0)"/>
     <use xlink:href="#DejaVuSans-48" transform="translate(888 0)"/>
     <use xlink:href="#DejaVuSans-51" transform="translate(949.53125 0)"/>
     <use xlink:href="#DejaVuSans-48" transform="translate(1012.90625 0)"/>
     <use xlink:href="#DejaVuSans-55" transform="translate(1074.4375 0)"/>
     <use xlink:href="#DejaVuSans-4a" transform="translate(1113.796875 0)"/>
     <use xlink:href="#DejaVuSans-5c" transform="translate(1177.28125 0)"/>
     <use xlink:href="#DejaVuSans-3" transform="translate(1236.46875 0)"/>
     <use xlink:href="#DejaVuSans-4c" transform="translate(1268.25 0)"/>
     <use xlink:href="#DejaVuSans-56" transform="translate(1296.03125 0)"/>
     <use xlink:href="#DejaVuSans-3" transform="translate(1348.125 0)"/>
     <use xlink:href="#DejaVuSans-46" transform="translate(1379.90625 0)"/>
     <use xlink:href="#DejaVuSans-52" transform="translate(1434.890625 0)"/>
     <use xlink:href="#DejaVuSans-51" transform="translate(1496.078125 0)"/>
     <use xlink:href="#DejaVuSans-56" transform="translate(1559.453125 0)"/>
     <use xlink:href="#DejaVuSans-48" transform="translate(1611.546875 0)"/>
     <use xlink:href="#DejaVuSans-55" transform="translate(1673.078125 0)"/>
     <use xlink:href="#DejaVuSans-59" transform="translate(1714.1875 0)"/>
     <use xlink:href="#DejaVuSans-48" transform="translate(1773.375 0)"/>
     <use xlink:href="#DejaVuSans-47" transform="translate(1834.90625 0)"/>
    </g>
   </g>
   <g id="legend_1">
    <g id="line2d_18">
     <path d="M 359.844969 104.403648 
L 368.444969 104.403648 
L 377.044969 104.403648 
" style="fill: none; stroke: #2f6f4f; stroke-width: 2.2; stroke-linecap: square"/>
    </g>
    <g id="text_18">
     <!-- KE -->
     <g transform="translate(383.924969 107.413648) scale(0.086 -0.086)">
      <defs>
       <path id="DejaVuSans-2e" d="M 628 4666 
L 1259 4666 
L 1259 2694 
L 3353 4666 
L 4166 4666 
L 1850 2491 
L 4331 0 
L 3500 0 
L 1259 2247 
L 1259 0 
L 628 0 
L 628 4666 
z
" transform="scale(0.015625)"/>
       <path id="DejaVuSans-28" d="M 628 4666 
L 3578 4666 
L 3578 4134 
L 1259 4134 
L 1259 2753 
L 3481 2753 
L 3481 2222 
L 1259 2222 
L 1259 531 
L 3634 531 
L 3634 0 
L 628 0 
L 628 4666 
z
" transform="scale(0.015625)"/>
      </defs>
      <use xlink:href="#DejaVuSans-2e"/>
      <use xlink:href="#DejaVuSans-28" transform="translate(65.578125 0)"/>
     </g>
    </g>
    <g id="line2d_19">
     <path d="M 359.844969 117.30432 
L 368.444969 117.30432 
L 377.044969 117.30432 
" style="fill: none; stroke: #1f2933; stroke-width: 2.2; stroke-linecap: square"/>
    </g>
    <g id="text_19">
     <!-- PE -->
     <g transform="translate(383.924969 120.31432) scale(0.086 -0.086)">
      <defs>
       <path id="DejaVuSans-33" d="M 1259 4147 
L 1259 2394 
L 2053 2394 
Q 2494 2394 2734 2622 
Q 2975 2850 2975 3272 
Q 2975 3691 2734 3919 
Q 2494 4147 2053 4147 
L 1259 4147 
z
M 628 4666 
L 2053 4666 
Q 2838 4666 3239 4311 
Q 3641 3956 3641 3272 
Q 3641 2581 3239 2228 
Q 2838 1875 2053 1875 
L 1259 1875 
L 1259 0 
L 628 0 
L 628 4666 
z
" transform="scale(0.015625)"/>
      </defs>
      <use xlink:href="#DejaVuSans-33"/>
      <use xlink:href="#DejaVuSans-28" transform="translate(60.296875 0)"/>
     </g>
    </g>
    <g id="line2d_20">
     <path d="M 359.844969 130.204992 
L 368.444969 130.204992 
L 377.044969 130.204992 
" style="fill: none; stroke-dasharray: 6.66,2.88; stroke-dashoffset: 0; stroke: #8a929b; stroke-width: 1.8"/>
    </g>
    <g id="text_20">
     <!-- Total -->
     <g transform="translate(383.924969 133.214992) scale(0.086 -0.086)">
      <use xlink:href="#DejaVuSans-37"/>
      <use xlink:href="#DejaVuSans-52" transform="translate(44.09375 0)"/>
      <use xlink:href="#DejaVuSans-57" transform="translate(105.28125 0)"/>
      <use xlink:href="#DejaVuSans-44" transform="translate(144.484375 0)"/>
      <use xlink:href="#DejaVuSans-4f" transform="translate(205.765625 0)"/>
     </g>
    </g>
   </g>
  </g>
 </g>
 <defs>
  <clipPath id="pcf6b9a15e4">
   <rect x="43.47" y="7.2" width="368.28" height="221.76"/>
  </clipPath>
 </defs>
</svg>
