<?xml version="1.0" encoding="utf-8" standalone="no"?>
<!DOCTYPE svg PUBLIC "-//W3C//DTD SVG 1.1//EN"
  "http://www.w3.org/Graphics/SVG/1.1/DTD/svg11.dtd">
<svg xmlns:xlink="http://www.w3.org/1999/xlink" width="417.037031pt" height="331.688pt" viewBox="0 0 417.037031 331.688" xmlns="http://www.w3.org/2000/svg" version="1.1">
 <metadata>
  <rdf:RDF xmlns:dc="http://purl.org/dc/elements/1.1/" xmlns:cc="http://creativecommons.org/ns#" xmlns:rdf="http://www.w3.org/1999/02/22-rdf-syntax-ns#">
   <cc:Work>
    <dc:type rdf:resource="http://purl.org/dc/dcmitype/StillImage"/>
    <dc:date>2026-06-27T06:43:49.074476</dc:date>
    <dc:format>image/svg+xml</dc:format>
    <dc:creator>
     <cc:Agent>
      <dc:title>Matplotlib v3.11.0, https://matplotlib.org/</dc:title>
     </cc:Agent>
    </dc:creator>
   </cc:Work>
  </rdf:RDF>
 </metadata>
 <defs>
  <style type="text/css">*{stroke-linejoin: round; stroke-linecap: butt}</style>
 </defs>
 <g id="figure_1">
  <g id="patch_1">
   <path d="M 0 331.688 
L 417.037031 331.688 
L 417.037031 0 
L 0 0 
z
" style="fill: #fbfaf7"/>
  </g>
  <g id="axes_1">
   <g id="patch_2">
    <path d="M 52.717031 140.666667 
L 409.837031 140.666667 
L 409.837031 7.2 
L 52.717031 7.2 
z
" style="fill: #fbfaf7"/>
   </g>
   <g id="matplotlib.axis_1">
    <g id="xtick_1">
     <g id="line2d_1">
      <defs>
       <path id="m1904b054c1" d="M 0 0 
L 0 3.5 
" style="stroke: #8a929b; stroke-width: 0.8"/>
      </defs>
      <g>
       <use xlink:href="#m1904b054c1" x="52.717031" y="140.666667" style="fill: #8a929b; stroke: #8a929b; stroke-width: 0.8"/>
      </g>
     </g>
    </g>
    <g id="xtick_2">
     <g id="line2d_2">
      <g>
       <use xlink:href="#m1904b054c1" x="100.333031" y="140.666667" style="fill: #8a929b; stroke: #8a929b; stroke-width: 0.8"/>
      </g>
     </g>
    </g>
    <g id="xtick_3">
     <g id="line2d_3">
      <g>
       <use xlink:href="#m1904b054c1" x="147.949031" y="140.666667" style="fill: #8a929b; stroke: #8a929b; stroke-width: 0.8"/>
      </g>
     </g>
    </g>
    <g id="xtick_4">
     <g id="line2d_4">
      <g>
       <use xlink:href="#m1904b054c1" x="195.565031" y="140.666667" style="fill: #8a929b; stroke: #8a929b; stroke-width: 0.8"/>
      </g>
     </g>
    </g>
    <g id="xtick_5">
     <g id="line2d_5">
      <g>
       <use xlink:href="#m1904b054c1" x="243.181031" y="140.666667" style="fill: #8a929b; stroke: #8a929b; stroke-width: 0.8"/>
      </g>
     </g>
    </g>
    <g id="xtick_6">
     <g id="line2d_6">
      <g>
       <use xlink:href="#m1904b054c1" x="290.797031" y="140.666667" style="fill: #8a929b; stroke: #8a929b; stroke-width: 0.8"/>
      </g>
     </g>
    </g>
    <g id="xtick_7">
     <g id="line2d_7">
      <g>
       <use xlink:href="#m1904b054c1" x="338.413031" y="140.666667" style="fill: #8a929b; stroke: #8a929b; stroke-width: 0.8"/>
      </g>
     </g>
    </g>
    <g id="xtick_8">
     <g id="line2d_8">
      <g>
       <use xlink:href="#m1904b054c1" x="386.029031" y="140.666667" style="fill: #8a929b; stroke: #8a929b; stroke-width: 0.8"/>
      </g>
     </g>
    </g>
   </g>
   <g id="matplotlib.axis_2">
    <g id="ytick_1">
     <g id="line2d_9">
      <defs>
       <path id="m55ad15b320" d="M 0 0 
L -3.5 0 
" style="stroke: #8a929b; stroke-width: 0.8"/>
      </defs>
      <g>
       <use xlink:href="#m55ad15b320" x="52.717031" y="136.622566" style="fill: #8a929b; stroke: #8a929b; stroke-width: 0.8"/>
      </g>
     </g>
     <g id="text_1">
      <!-- −0.06 -->
      <g style="fill: #8a929b" transform="translate(21.200781 139.661629) scale(0.08 -0.08)">
       <defs>
        <path id="DejaVuSans-c9c" d="M 678 2272 
L 4684 2272 
L 4684 1741 
L 678 1741 
L 678 2272 
z
" transform="scale(0.015625)"/>
        <path id="DejaVuSans-13" d="M 2034 4250 
Q 1547 4250 1301 3770 
Q 1056 3291 1056 2328 
Q 1056 1369 1301 889 
Q 1547 409 2034 409 
Q 2525 409 2770 889 
Q 3016 1369 3016 2328 
Q 3016 3291 2770 3770 
Q 2525 4250 2034 4250 
z
M 2034 4750 
Q 2819 4750 3233 4129 
Q 3647 3509 3647 2328 
Q 3647 1150 3233 529 
Q 2819 -91 2034 -91 
Q 1250 -91 836 529 
Q 422 1150 422 2328 
Q 422 3509 836 4129 
Q 1250 4750 2034 4750 
z
" transform="scale(0.015625)"/>
        <path id="DejaVuSans-11" d="M 684 794 
L 1344 794 
L 1344 0 
L 684 0 
L 684 794 
z
" transform="scale(0.015625)"/>
        <path id="DejaVuSans-19" d="M 2113 2584 
Q 1688 2584 1439 2293 
Q 1191 2003 1191 1497 
Q 1191 994 1439 701 
Q 1688 409 2113 409 
Q 2538 409 2786 701 
Q 3034 994 3034 1497 
Q 3034 2003 2786 2293 
Q 2538 2584 2113 2584 
z
M 3366 4563 
L 3366 3988 
Q 3128 4100 2886 4159 
Q 2644 4219 2406 4219 
Q 1781 4219 1451 3797 
Q 1122 3375 1075 2522 
Q 1259 2794 1537 2939 
Q 1816 3084 2150 3084 
Q 2853 3084 3261 2657 
Q 3669 2231 3669 1497 
Q 3669 778 3244 343 
Q 2819 -91 2113 -91 
Q 1303 -91 875 529 
Q 447 1150 447 2328 
Q 447 3434 972 4092 
Q 1497 4750 2381 4750 
Q 2619 4750 2861 4703 
Q 3103 4656 3366 4563 
z
" transform="scale(0.015625)"/>
       </defs>
       <use xlink:href="#DejaVuSans-c9c"/>
       <use xlink:href="#DejaVuSans-13" transform="translate(83.796875 0)"/>
       <use xlink:href="#DejaVuSans-11" transform="translate(147.421875 0)"/>
       <use xlink:href="#DejaVuSans-13" transform="translate(179.203125 0)"/>
       <use xlink:href="#DejaVuSans-19" transform="translate(242.828125 0)"/>
      </g>
     </g>
    </g>
    <g id="ytick_2">
     <g id="line2d_10">
      <g>
       <use xlink:href="#m55ad15b320" x="52.717031" y="116.400281" style="fill: #8a929b; stroke: #8a929b; stroke-width: 0.8"/>
      </g>
     </g>
     <g id="text_2">
      <!-- −0.04 -->
      <g style="fill: #8a929b" transform="translate(21.200781 119.439344) scale(0.08 -0.08)">
       <defs>
        <path id="DejaVuSans-17" d="M 2419 4116 
L 825 1625 
L 2419 1625 
L 2419 4116 
z
M 2253 4666 
L 3047 4666 
L 3047 1625 
L 3713 1625 
L 3713 1100 
L 3047 1100 
L 3047 0 
L 2419 0 
L 2419 1100 
L 313 1100 
L 313 1709 
L 2253 4666 
z
" transform="scale(0.015625)"/>
       </defs>
       <use xlink:href="#DejaVuSans-c9c"/>
       <use xlink:href="#DejaVuSans-13" transform="translate(83.796875 0)"/>
       <use xlink:href="#DejaVuSans-11" transform="translate(147.421875 0)"/>
       <use xlink:href="#DejaVuSans-13" transform="translate(179.203125 0)"/>
       <use xlink:href="#DejaVuSans-17" transform="translate(242.828125 0)"/>
      </g>
     </g>
    </g>
    <g id="ytick_3">
     <g id="line2d_11">
      <g>
       <use xlink:href="#m55ad15b320" x="52.717031" y="96.177997" style="fill: #8a929b; stroke: #8a929b; stroke-width: 0.8"/>
      </g>
     </g>
     <g id="text_3">
      <!-- −0.02 -->
      <g style="fill: #8a929b" transform="translate(21.200781 99.217059) scale(0.08 -0.08)">
       <defs>
        <path id="DejaVuSans-15" d="M 1228 531 
L 3431 531 
L 3431 0 
L 469 0 
L 469 531 
Q 828 903 1448 1529 
Q 2069 2156 2228 2338 
Q 2531 2678 2651 2914 
Q 2772 3150 2772 3378 
Q 2772 3750 2511 3984 
Q 2250 4219 1831 4219 
Q 1534 4219 1204 4116 
Q 875 4013 500 3803 
L 500 4441 
Q 881 4594 1212 4672 
Q 1544 4750 1819 4750 
Q 2544 4750 2975 4387 
Q 3406 4025 3406 3419 
Q 3406 3131 3298 2873 
Q 3191 2616 2906 2266 
Q 2828 2175 2409 1742 
Q 1991 1309 1228 531 
z
" transform="scale(0.015625)"/>
       </defs>
       <use xlink:href="#DejaVuSans-c9c"/>
       <use xlink:href="#DejaVuSans-13" transform="translate(83.796875 0)"/>
       <use xlink:href="#DejaVuSans-11" transform="translate(147.421875 0)"/>
       <use xlink:href="#DejaVuSans-13" transform="translate(179.203125 0)"/>
       <use xlink:href="#DejaVuSans-15" transform="translate(242.828125 0)"/>
      </g>
     </g>
    </g>
    <g id="ytick_4">
     <g id="line2d_12">
      <g>
       <use xlink:href="#m55ad15b320" x="52.717031" y="75.955712" style="fill: #8a929b; stroke: #8a929b; stroke-width: 0.8"/>
      </g>
     </g>
     <g id="text_4">
      <!-- 0.00 -->
      <g style="fill: #8a929b" transform="translate(27.904531 78.994774) scale(0.08 -0.08)">
       <use xlink:href="#DejaVuSans-13"/>
       <use xlink:href="#DejaVuSans-11" transform="translate(63.625 0)"/>
       <use xlink:href="#DejaVuSans-13" transform="translate(95.40625 0)"/>
       <use xlink:href="#DejaVuSans-13" transform="translate(159.03125 0)"/>
      </g>
     </g>
    </g>
    <g id="ytick_5">
     <g id="line2d_13">
      <g>
       <use xlink:href="#m55ad15b320" x="52.717031" y="55.733427" style="fill: #8a929b; stroke: #8a929b; stroke-width: 0.8"/>
      </g>
     </g>
     <g id="text_5">
      <!-- 0.02 -->
      <g style="fill: #8a929b" transform="translate(27.904531 58.77249) scale(0.08 -0.08)">
       <use xlink:href="#DejaVuSans-13"/>
       <use xlink:href="#DejaVuSans-11" transform="translate(63.625 0)"/>
       <use xlink:href="#DejaVuSans-13" transform="translate(95.40625 0)"/>
       <use xlink:href="#DejaVuSans-15" transform="translate(159.03125 0)"/>
      </g>
     </g>
    </g>
    <g id="ytick_6">
     <g id="line2d_14">
      <g>
       <use xlink:href="#m55ad15b320" x="52.717031" y="35.511142" style="fill: #8a929b; stroke: #8a929b; stroke-width: 0.8"/>
      </g>
     </g>
     <g id="text_6">
      <!-- 0.04 -->
      <g style="fill: #8a929b" transform="translate(27.904531 38.550205) scale(0.08 -0.08)">
       <use xlink:href="#DejaVuSans-13"/>
       <use xlink:href="#DejaVuSans-11" transform="translate(63.625 0)"/>
       <use xlink:href="#DejaVuSans-13" transform="translate(95.40625 0)"/>
       <use xlink:href="#DejaVuSans-17" transform="translate(159.03125 0)"/>
      </g>
     </g>
    </g>
    <g id="ytick_7">
     <g id="line2d_15">
      <g>
       <use xlink:href="#m55ad15b320" x="52.717031" y="15.288858" style="fill: #8a929b; stroke: #8a929b; stroke-width: 0.8"/>
      </g>
     </g>
     <g id="text_7">
      <!-- 0.06 -->
      <g style="fill: #8a929b" transform="translate(27.904531 18.32792) scale(0.08 -0.08)">
       <use xlink:href="#DejaVuSans-13"/>
       <use xlink:href="#DejaVuSans-11" transform="translate(63.625 0)"/>
       <use xlink:href="#DejaVuSans-13" transform="translate(95.40625 0)"/>
       <use xlink:href="#DejaVuSans-19" transform="translate(159.03125 0)"/>
      </g>
     </g>
    </g>
    <g id="text_8">
     <!-- Φ  (Wb) -->
     <g style="fill: #1f2933" transform="translate(14.798438 93.066927) rotate(-90) scale(0.1 -0.1)">
      <defs>
       <path id="DejaVuSans-33a" d="M 2206 3644 
Q 1738 3578 1431 3306 
Q 1025 2947 1025 2328 
Q 1025 1713 1431 1353 
Q 1738 1081 2206 1016 
L 2206 3644 
z
M 2838 1016 
Q 3306 1081 3613 1353 
Q 4013 1713 4013 2328 
Q 4013 2947 3613 3306 
Q 3306 3578 2838 3644 
L 2838 1016 
z
M 2206 494 
Q 1444 563 950 981 
Q 359 1481 359 2328 
Q 359 3175 950 3678 
Q 1441 4100 2206 4169 
L 2206 4666 
L 2838 4666 
L 2838 4169 
Q 3600 4097 4091 3678 
Q 4678 3175 4678 2328 
Q 4678 1484 4091 981 
Q 3600 563 2838 491 
L 2838 0 
L 2206 0 
L 2206 494 
z
" transform="scale(0.015625)"/>
       <path id="DejaVuSans-3" transform="scale(0.015625)"/>
       <path id="DejaVuSans-b" d="M 1984 4856 
Q 1566 4138 1362 3434 
Q 1159 2731 1159 2009 
Q 1159 1288 1364 580 
Q 1569 -128 1984 -844 
L 1484 -844 
Q 1016 -109 783 600 
Q 550 1309 550 2009 
Q 550 2706 781 3412 
Q 1013 4119 1484 4856 
L 1984 4856 
z
" transform="scale(0.015625)"/>
       <path id="DejaVuSans-3a" d="M 213 4666 
L 850 4666 
L 1831 722 
L 2809 4666 
L 3519 4666 
L 4500 722 
L 5478 4666 
L 6119 4666 
L 4947 0 
L 4153 0 
L 3169 4050 
L 2175 0 
L 1381 0 
L 213 4666 
z
" transform="scale(0.015625)"/>
       <path id="DejaVuSans-45" d="M 3116 1747 
Q 3116 2381 2855 2742 
Q 2594 3103 2138 3103 
Q 1681 3103 1420 2742 
Q 1159 2381 1159 1747 
Q 1159 1113 1420 752 
Q 1681 391 2138 391 
Q 2594 391 2855 752 
Q 3116 1113 3116 1747 
z
M 1159 2969 
Q 1341 3281 1617 3432 
Q 1894 3584 2278 3584 
Q 2916 3584 3314 3078 
Q 3713 2572 3713 1747 
Q 3713 922 3314 415 
Q 2916 -91 2278 -91 
Q 1894 -91 1617 61 
Q 1341 213 1159 525 
L 1159 0 
L 581 0 
L 581 4863 
L 1159 4863 
L 1159 2969 
z
" transform="scale(0.015625)"/>
       <path id="DejaVuSans-c" d="M 513 4856 
L 1013 4856 
Q 1481 4119 1714 3412 
Q 1947 2706 1947 2009 
Q 1947 1309 1714 600 
Q 1481 -109 1013 -844 
L 513 -844 
Q 928 -128 1133 580 
Q 1338 1288 1338 2009 
Q 1338 2731 1133 3434 
Q 928 4138 513 4856 
z
" transform="scale(0.015625)"/>
      </defs>
      <use xlink:href="#DejaVuSans-33a"/>
      <use xlink:href="#DejaVuSans-3" transform="translate(78.71875 0)"/>
      <use xlink:href="#DejaVuSans-3" transform="translate(110.5 0)"/>
      <use xlink:href="#DejaVuSans-b" transform="translate(142.28125 0)"/>
      <use xlink:href="#DejaVuSans-3a" transform="translate(181.296875 0)"/>
      <use xlink:href="#DejaVuSans-45" transform="translate(280.171875 0)"/>
      <use xlink:href="#DejaVuSans-c" transform="translate(343.65625 0)"/>
     </g>
    </g>
   </g>
   <g id="line2d_16">
    <path d="M 52.717031 75.955712 
L 409.837031 75.955712 
" clip-path="url(#pf6d7045f0b)" style="fill: none; stroke: #d8d4c8; stroke-linecap: square"/>
   </g>
   <g id="line2d_17">
    <path d="M 52.717031 25.4 
L 54.211257 25.499537 
L 55.705483 25.797756 
L 57.199709 26.293483 
L 58.693935 26.984765 
L 60.188161 27.868881 
L 61.682387 28.942349 
L 63.176613 30.200942 
L 64.670839 31.639704 
L 66.165065 33.25297 
L 69.153517 36.976942 
L 72.141968 41.314257 
L 75.13042 46.196668 
L 78.118872 51.547348 
L 81.107324 57.282103 
L 85.590002 66.405672 
L 99.038035 94.463959 
L 102.026487 100.208201 
L 105.014939 105.570821 
L 108.003391 110.467438 
L 110.991843 114.821 
L 113.980295 118.563003 
L 115.474521 120.185867 
L 116.968747 121.634566 
L 118.462973 122.903394 
L 119.957199 123.987355 
L 121.451425 124.882182 
L 122.94565 125.584351 
L 124.439876 126.091096 
L 125.934102 126.400422 
L 127.428328 126.511111 
L 128.922554 126.422728 
L 130.41678 126.13562 
L 131.911006 125.650918 
L 133.405232 124.97053 
L 134.899458 124.097136 
L 136.393684 123.034175 
L 137.88791 121.785832 
L 139.382136 120.357024 
L 140.876362 118.753376 
L 143.864814 115.047483 
L 146.853266 110.726467 
L 149.841717 105.858321 
L 152.830169 100.519648 
L 155.818621 94.794452 
L 160.301299 85.680313 
L 173.749333 57.613055 
L 176.737784 51.859397 
L 179.726236 46.484903 
L 182.714688 41.574142 
L 185.70314 37.204388 
L 188.691592 33.444398 
L 190.185818 31.811956 
L 191.680044 30.35334 
L 193.17427 29.074292 
L 194.668496 27.97985 
L 196.162722 27.074324 
L 197.656948 26.361278 
L 199.151174 25.843521 
L 200.645399 25.523091 
L 202.139625 25.401251 
L 203.633851 25.47848 
L 205.128077 25.754473 
L 206.622303 26.228145 
L 208.116529 26.897629 
L 209.610755 27.760291 
L 211.104981 28.812732 
L 212.599207 30.050808 
L 214.093433 31.469645 
L 215.587659 33.063656 
L 218.576111 36.751424 
L 221.564563 41.056087 
L 224.553015 45.909906 
L 227.541466 51.236508 
L 230.529918 56.952074 
L 235.012596 66.056671 
L 248.46063 94.132551 
L 251.449081 99.895554 
L 254.437533 105.281856 
L 257.425985 110.2067 
L 260.414437 114.592593 
L 263.402889 118.370522 
L 264.897115 120.012522 
L 266.391341 121.481038 
L 267.885567 122.770289 
L 269.379793 123.875198 
L 270.874019 124.791413 
L 272.368245 125.515328 
L 273.862471 126.04409 
L 275.356697 126.375619 
L 276.850922 126.508609 
L 278.345148 126.442536 
L 279.839374 126.177661 
L 281.3336 125.715025 
L 282.827826 125.056452 
L 284.322052 124.204534 
L 285.816278 123.162626 
L 287.310504 121.934831 
L 288.80473 120.525983 
L 290.298956 118.94163 
L 293.287408 115.272031 
L 296.27586 110.983776 
L 299.264312 106.144342 
L 302.252763 100.829879 
L 305.241215 95.124013 
L 309.723893 86.029071 
L 323.171927 57.944916 
L 326.160379 52.172638 
L 329.14883 46.774596 
L 332.137282 41.835729 
L 335.125734 37.433751 
L 338.114186 33.63793 
L 339.608412 31.986393 
L 341.102638 30.507994 
L 342.596864 29.208556 
L 344.09109 28.093194 
L 345.585316 27.166302 
L 347.079542 26.431528 
L 348.573768 25.891766 
L 350.067994 25.549141 
L 351.56222 25.405004 
L 353.056445 25.45992 
L 354.550671 25.713675 
L 356.044897 26.165268 
L 357.539123 26.812921 
L 359.033349 27.654085 
L 360.527575 28.685447 
L 362.021801 29.902946 
L 363.516027 31.301788 
L 365.010253 32.876463 
L 367.998705 36.527847 
L 370.987157 40.799643 
L 373.975609 45.624631 
L 376.964061 50.92689 
L 379.952512 56.622986 
L 384.43519 65.70816 
L 399.37745 96.731888 
L 402.365902 102.338525 
L 405.354353 107.530019 
L 408.342805 112.22468 
L 409.837031 114.362275 
L 409.837031 114.362275 
" clip-path="url(#pf6d7045f0b)" style="fill: none; stroke: #1f2933; stroke-width: 2.2; stroke-linecap: square"/>
   </g>
   <g id="patch_3">
    <path d="M 52.717031 140.666667 
L 52.717031 7.2 
" style="fill: none; stroke: #d8d4c8; stroke-width: 0.8; stroke-linejoin: miter; stroke-linecap: square"/>
   </g>
   <g id="patch_4">
    <path d="M 52.717031 140.666667 
L 409.837031 140.666667 
" style="fill: none; stroke: #d8d4c8; stroke-width: 0.8; stroke-linejoin: miter; stroke-linecap: square"/>
   </g>
  </g>
  <g id="axes_2">
   <g id="patch_5">
    <path d="M 52.717031 295.488 
L 409.837031 295.488 
L 409.837031 162.021333 
L 52.717031 162.021333 
z
" style="fill: #fbfaf7"/>
   </g>
   <g id="matplotlib.axis_3">
    <g id="xtick_9">
     <g id="line2d_18">
      <g>
       <use xlink:href="#m1904b054c1" x="52.717031" y="295.488" style="fill: #8a929b; stroke: #8a929b; stroke-width: 0.8"/>
      </g>
     </g>
     <g id="text_9">
      <!-- 0.0 -->
      <g style="fill: #8a929b" transform="translate(46.355781 308.566125) scale(0.08 -0.08)">
       <use xlink:href="#DejaVuSans-13"/>
       <use xlink:href="#DejaVuSans-11" transform="translate(63.625 0)"/>
       <use xlink:href="#DejaVuSans-13" transform="translate(95.40625 0)"/>
      </g>
     </g>
    </g>
    <g id="xtick_10">
     <g id="line2d_19">
      <g>
       <use xlink:href="#m1904b054c1" x="100.333031" y="295.488" style="fill: #8a929b; stroke: #8a929b; stroke-width: 0.8"/>
      </g>
     </g>
     <g id="text_10">
      <!-- 0.2 -->
      <g style="fill: #8a929b" transform="translate(93.971781 308.566125) scale(0.08 -0.08)">
       <use xlink:href="#DejaVuSans-13"/>
       <use xlink:href="#DejaVuSans-11" transform="translate(63.625 0)"/>
       <use xlink:href="#DejaVuSans-15" transform="translate(95.40625 0)"/>
      </g>
     </g>
    </g>
    <g id="xtick_11">
     <g id="line2d_20">
      <g>
       <use xlink:href="#m1904b054c1" x="147.949031" y="295.488" style="fill: #8a929b; stroke: #8a929b; stroke-width: 0.8"/>
      </g>
     </g>
     <g id="text_11">
      <!-- 0.4 -->
      <g style="fill: #8a929b" transform="translate(141.587781 308.566125) scale(0.08 -0.08)">
       <use xlink:href="#DejaVuSans-13"/>
       <use xlink:href="#DejaVuSans-11" transform="translate(63.625 0)"/>
       <use xlink:href="#DejaVuSans-17" transform="translate(95.40625 0)"/>
      </g>
     </g>
    </g>
    <g id="xtick_12">
     <g id="line2d_21">
      <g>
       <use xlink:href="#m1904b054c1" x="195.565031" y="295.488" style="fill: #8a929b; stroke: #8a929b; stroke-width: 0.8"/>
      </g>
     </g>
     <g id="text_12">
      <!-- 0.6 -->
      <g style="fill: #8a929b" transform="translate(189.203781 308.566125) scale(0.08 -0.08)">
       <use xlink:href="#DejaVuSans-13"/>
       <use xlink:href="#DejaVuSans-11" transform="translate(63.625 0)"/>
       <use xlink:href="#DejaVuSans-19" transform="translate(95.40625 0)"/>
      </g>
     </g>
    </g>
    <g id="xtick_13">
     <g id="line2d_22">
      <g>
       <use xlink:href="#m1904b054c1" x="243.181031" y="295.488" style="fill: #8a929b; stroke: #8a929b; stroke-width: 0.8"/>
      </g>
     </g>
     <g id="text_13">
      <!-- 0.8 -->
      <g style="fill: #8a929b" transform="translate(236.819781 308.566125) scale(0.08 -0.08)">
       <defs>
        <path id="DejaVuSans-1b" d="M 2034 2216 
Q 1584 2216 1326 1975 
Q 1069 1734 1069 1313 
Q 1069 891 1326 650 
Q 1584 409 2034 409 
Q 2484 409 2743 651 
Q 3003 894 3003 1313 
Q 3003 1734 2745 1975 
Q 2488 2216 2034 2216 
z
M 1403 2484 
Q 997 2584 770 2862 
Q 544 3141 544 3541 
Q 544 4100 942 4425 
Q 1341 4750 2034 4750 
Q 2731 4750 3128 4425 
Q 3525 4100 3525 3541 
Q 3525 3141 3298 2862 
Q 3072 2584 2669 2484 
Q 3125 2378 3379 2068 
Q 3634 1759 3634 1313 
Q 3634 634 3220 271 
Q 2806 -91 2034 -91 
Q 1263 -91 848 271 
Q 434 634 434 1313 
Q 434 1759 690 2068 
Q 947 2378 1403 2484 
z
M 1172 3481 
Q 1172 3119 1398 2916 
Q 1625 2713 2034 2713 
Q 2441 2713 2670 2916 
Q 2900 3119 2900 3481 
Q 2900 3844 2670 4047 
Q 2441 4250 2034 4250 
Q 1625 4250 1398 4047 
Q 1172 3844 1172 3481 
z
" transform="scale(0.015625)"/>
       </defs>
       <use xlink:href="#DejaVuSans-13"/>
       <use xlink:href="#DejaVuSans-11" transform="translate(63.625 0)"/>
       <use xlink:href="#DejaVuSans-1b" transform="translate(95.40625 0)"/>
      </g>
     </g>
    </g>
    <g id="xtick_14">
     <g id="line2d_23">
      <g>
       <use xlink:href="#m1904b054c1" x="290.797031" y="295.488" style="fill: #8a929b; stroke: #8a929b; stroke-width: 0.8"/>
      </g>
     </g>
     <g id="text_14">
      <!-- 1.0 -->
      <g style="fill: #8a929b" transform="translate(284.435781 308.566125) scale(0.08 -0.08)">
       <defs>
        <path id="DejaVuSans-14" d="M 794 531 
L 1825 531 
L 1825 4091 
L 703 3866 
L 703 4441 
L 1819 4666 
L 2450 4666 
L 2450 531 
L 3481 531 
L 3481 0 
L 794 0 
L 794 531 
z
" transform="scale(0.015625)"/>
       </defs>
       <use xlink:href="#DejaVuSans-14"/>
       <use xlink:href="#DejaVuSans-11" transform="translate(63.625 0)"/>
       <use xlink:href="#DejaVuSans-13" transform="translate(95.40625 0)"/>
      </g>
     </g>
    </g>
    <g id="xtick_15">
     <g id="line2d_24">
      <g>
       <use xlink:href="#m1904b054c1" x="338.413031" y="295.488" style="fill: #8a929b; stroke: #8a929b; stroke-width: 0.8"/>
      </g>
     </g>
     <g id="text_15">
      <!-- 1.2 -->
      <g style="fill: #8a929b" transform="translate(332.051781 308.566125) scale(0.08 -0.08)">
       <use xlink:href="#DejaVuSans-14"/>
       <use xlink:href="#DejaVuSans-11" transform="translate(63.625 0)"/>
       <use xlink:href="#DejaVuSans-15" transform="translate(95.40625 0)"/>
      </g>
     </g>
    </g>
    <g id="xtick_16">
     <g id="line2d_25">
      <g>
       <use xlink:href="#m1904b054c1" x="386.029031" y="295.488" style="fill: #8a929b; stroke: #8a929b; stroke-width: 0.8"/>
      </g>
     </g>
     <g id="text_16">
      <!-- 1.4 -->
      <g style="fill: #8a929b" transform="translate(379.667781 308.566125) scale(0.08 -0.08)">
       <use xlink:href="#DejaVuSans-14"/>
       <use xlink:href="#DejaVuSans-11" transform="translate(63.625 0)"/>
       <use xlink:href="#DejaVuSans-17" transform="translate(95.40625 0)"/>
      </g>
     </g>
    </g>
    <g id="text_17">
     <!-- t  (s) -->
     <g style="fill: #1f2933" transform="translate(219.6325 322.085656) scale(0.1 -0.1)">
      <defs>
       <path id="DejaVuSans-57" d="M 1172 4494 
L 1172 3500 
L 2356 3500 
L 2356 3053 
L 1172 3053 
L 1172 1153 
Q 1172 725 1289 603 
Q 1406 481 1766 481 
L 2356 481 
L 2356 0 
L 1766 0 
Q 1100 0 847 248 
Q 594 497 594 1153 
L 594 3053 
L 172 3053 
L 172 3500 
L 594 3500 
L 594 4494 
L 1172 4494 
z
" transform="scale(0.015625)"/>
       <path id="DejaVuSans-56" d="M 2834 3397 
L 2834 2853 
Q 2591 2978 2328 3040 
Q 2066 3103 1784 3103 
Q 1356 3103 1142 2972 
Q 928 2841 928 2578 
Q 928 2378 1081 2264 
Q 1234 2150 1697 2047 
L 1894 2003 
Q 2506 1872 2764 1633 
Q 3022 1394 3022 966 
Q 3022 478 2636 193 
Q 2250 -91 1575 -91 
Q 1294 -91 989 -36 
Q 684 19 347 128 
L 347 722 
Q 666 556 975 473 
Q 1284 391 1588 391 
Q 1994 391 2212 530 
Q 2431 669 2431 922 
Q 2431 1156 2273 1281 
Q 2116 1406 1581 1522 
L 1381 1569 
Q 847 1681 609 1914 
Q 372 2147 372 2553 
Q 372 3047 722 3315 
Q 1072 3584 1716 3584 
Q 2034 3584 2315 3537 
Q 2597 3491 2834 3397 
z
" transform="scale(0.015625)"/>
      </defs>
      <use xlink:href="#DejaVuSans-57"/>
      <use xlink:href="#DejaVuSans-3" transform="translate(39.203125 0)"/>
      <use xlink:href="#DejaVuSans-3" transform="translate(70.984375 0)"/>
      <use xlink:href="#DejaVuSans-b" transform="translate(102.765625 0)"/>
      <use xlink:href="#DejaVuSans-56" transform="translate(141.78125 0)"/>
      <use xlink:href="#DejaVuSans-c" transform="translate(193.875 0)"/>
     </g>
    </g>
   </g>
   <g id="matplotlib.axis_4">
    <g id="ytick_8">
     <g id="line2d_26">
      <g>
       <use xlink:href="#m55ad15b320" x="52.717031" y="291.444337" style="fill: #8a929b; stroke: #8a929b; stroke-width: 0.8"/>
      </g>
     </g>
     <g id="text_18">
      <!-- −0.6 -->
      <g style="fill: #8a929b" transform="translate(26.290781 294.4834) scale(0.08 -0.08)">
       <use xlink:href="#DejaVuSans-c9c"/>
       <use xlink:href="#DejaVuSans-13" transform="translate(83.796875 0)"/>
       <use xlink:href="#DejaVuSans-11" transform="translate(147.421875 0)"/>
       <use xlink:href="#DejaVuSans-19" transform="translate(179.203125 0)"/>
      </g>
     </g>
    </g>
    <g id="ytick_9">
     <g id="line2d_27">
      <g>
       <use xlink:href="#m55ad15b320" x="52.717031" y="271.221959" style="fill: #8a929b; stroke: #8a929b; stroke-width: 0.8"/>
      </g>
     </g>
     <g id="text_19">
      <!-- −0.4 -->
      <g style="fill: #8a929b" transform="translate(26.290781 274.261021) scale(0.08 -0.08)">
       <use xlink:href="#DejaVuSans-c9c"/>
       <use xlink:href="#DejaVuSans-13" transform="translate(83.796875 0)"/>
       <use xlink:href="#DejaVuSans-11" transform="translate(147.421875 0)"/>
       <use xlink:href="#DejaVuSans-17" transform="translate(179.203125 0)"/>
      </g>
     </g>
    </g>
    <g id="ytick_10">
     <g id="line2d_28">
      <g>
       <use xlink:href="#m55ad15b320" x="52.717031" y="250.99958" style="fill: #8a929b; stroke: #8a929b; stroke-width: 0.8"/>
      </g>
     </g>
     <g id="text_20">
      <!-- −0.2 -->
      <g style="fill: #8a929b" transform="translate(26.290781 254.038643) scale(0.08 -0.08)">
       <use xlink:href="#DejaVuSans-c9c"/>
       <use xlink:href="#DejaVuSans-13" transform="translate(83.796875 0)"/>
       <use xlink:href="#DejaVuSans-11" transform="translate(147.421875 0)"/>
       <use xlink:href="#DejaVuSans-15" transform="translate(179.203125 0)"/>
      </g>
     </g>
    </g>
    <g id="ytick_11">
     <g id="line2d_29">
      <g>
       <use xlink:href="#m55ad15b320" x="52.717031" y="230.777202" style="fill: #8a929b; stroke: #8a929b; stroke-width: 0.8"/>
      </g>
     </g>
     <g id="text_21">
      <!-- 0.0 -->
      <g style="fill: #8a929b" transform="translate(32.994531 233.816264) scale(0.08 -0.08)">
       <use xlink:href="#DejaVuSans-13"/>
       <use xlink:href="#DejaVuSans-11" transform="translate(63.625 0)"/>
       <use xlink:href="#DejaVuSans-13" transform="translate(95.40625 0)"/>
      </g>
     </g>
    </g>
    <g id="ytick_12">
     <g id="line2d_30">
      <g>
       <use xlink:href="#m55ad15b320" x="52.717031" y="210.554823" style="fill: #8a929b; stroke: #8a929b; stroke-width: 0.8"/>
      </g>
     </g>
     <g id="text_22">
      <!-- 0.2 -->
      <g style="fill: #8a929b" transform="translate(32.994531 213.593886) scale(0.08 -0.08)">
       <use xlink:href="#DejaVuSans-13"/>
       <use xlink:href="#DejaVuSans-11" transform="translate(63.625 0)"/>
       <use xlink:href="#DejaVuSans-15" transform="translate(95.40625 0)"/>
      </g>
     </g>
    </g>
    <g id="ytick_13">
     <g id="line2d_31">
      <g>
       <use xlink:href="#m55ad15b320" x="52.717031" y="190.332444" style="fill: #8a929b; stroke: #8a929b; stroke-width: 0.8"/>
      </g>
     </g>
     <g id="text_23">
      <!-- 0.4 -->
      <g style="fill: #8a929b" transform="translate(32.994531 193.371507) scale(0.08 -0.08)">
       <use xlink:href="#DejaVuSans-13"/>
       <use xlink:href="#DejaVuSans-11" transform="translate(63.625 0)"/>
       <use xlink:href="#DejaVuSans-17" transform="translate(95.40625 0)"/>
      </g>
     </g>
    </g>
    <g id="ytick_14">
     <g id="line2d_32">
      <g>
       <use xlink:href="#m55ad15b320" x="52.717031" y="170.110066" style="fill: #8a929b; stroke: #8a929b; stroke-width: 0.8"/>
      </g>
     </g>
     <g id="text_24">
      <!-- 0.6 -->
      <g style="fill: #8a929b" transform="translate(32.994531 173.149128) scale(0.08 -0.08)">
       <use xlink:href="#DejaVuSans-13"/>
       <use xlink:href="#DejaVuSans-11" transform="translate(63.625 0)"/>
       <use xlink:href="#DejaVuSans-19" transform="translate(95.40625 0)"/>
      </g>
     </g>
    </g>
    <g id="text_25">
     <!-- EMF  (V) -->
     <g style="fill: #1f2933" transform="translate(19.888438 249.603885) rotate(-90) scale(0.1 -0.1)">
      <defs>
       <path id="DejaVuSans-28" d="M 628 4666 
L 3578 4666 
L 3578 4134 
L 1259 4134 
L 1259 2753 
L 3481 2753 
L 3481 2222 
L 1259 2222 
L 1259 531 
L 3634 531 
L 3634 0 
L 628 0 
L 628 4666 
z
" transform="scale(0.015625)"/>
       <path id="DejaVuSans-30" d="M 628 4666 
L 1569 4666 
L 2759 1491 
L 3956 4666 
L 4897 4666 
L 4897 0 
L 4281 0 
L 4281 4097 
L 3078 897 
L 2444 897 
L 1241 4097 
L 1241 0 
L 628 0 
L 628 4666 
z
" transform="scale(0.015625)"/>
       <path id="DejaVuSans-29" d="M 628 4666 
L 3309 4666 
L 3309 4134 
L 1259 4134 
L 1259 2759 
L 3109 2759 
L 3109 2228 
L 1259 2228 
L 1259 0 
L 628 0 
L 628 4666 
z
" transform="scale(0.015625)"/>
       <path id="DejaVuSans-39" d="M 1831 0 
L 50 4666 
L 709 4666 
L 2188 738 
L 3669 4666 
L 4325 4666 
L 2547 0 
L 1831 0 
z
" transform="scale(0.015625)"/>
      </defs>
      <use xlink:href="#DejaVuSans-28"/>
      <use xlink:href="#DejaVuSans-30" transform="translate(63.1875 0)"/>
      <use xlink:href="#DejaVuSans-29" transform="translate(149.46875 0)"/>
      <use xlink:href="#DejaVuSans-3" transform="translate(206.984375 0)"/>
      <use xlink:href="#DejaVuSans-3" transform="translate(238.765625 0)"/>
      <use xlink:href="#DejaVuSans-b" transform="translate(270.546875 0)"/>
      <use xlink:href="#DejaVuSans-39" transform="translate(309.5625 0)"/>
      <use xlink:href="#DejaVuSans-c" transform="translate(377.96875 0)"/>
     </g>
    </g>
   </g>
   <g id="line2d_33">
    <path d="M 52.717031 230.777202 
L 409.837031 230.777202 
" clip-path="url(#p64fc44d0bf)" style="fill: none; stroke: #d8d4c8; stroke-linecap: square"/>
   </g>
   <g id="line2d_34">
    <path d="M 52.717031 230.777202 
L 60.188161 215.171468 
L 64.670839 206.446625 
L 67.659291 201.089941 
L 70.647743 196.200398 
L 73.636194 191.854932 
L 76.624646 188.121921 
L 78.118872 186.503846 
L 79.613098 185.060107 
L 81.107324 183.796388 
L 82.60155 182.717667 
L 84.095776 181.82819 
L 85.590002 181.13146 
L 87.084228 180.630222 
L 88.578454 180.326447 
L 90.07268 180.221333 
L 91.566906 180.315294 
L 93.061132 180.607959 
L 94.555358 181.098177 
L 96.049584 181.784016 
L 97.543809 182.662776 
L 99.038035 183.730997 
L 100.532261 184.984473 
L 102.026487 186.418267 
L 103.520713 188.026735 
L 106.509165 191.74169 
L 109.497617 196.070882 
L 112.486069 200.946191 
L 115.474521 206.2909 
L 118.462973 212.020911 
L 122.94565 221.139822 
L 136.393684 249.202768 
L 139.382136 254.951753 
L 142.370588 260.320344 
L 145.35904 265.224062 
L 148.347492 269.585748 
L 151.335943 273.336767 
L 152.830169 274.96443 
L 154.324395 276.418097 
L 155.818621 277.692043 
L 157.312847 278.781251 
L 158.807073 279.681433 
L 160.301299 280.389045 
L 161.795525 280.901299 
L 163.289751 281.216179 
L 164.783977 281.332444 
L 166.278203 281.249638 
L 167.772429 280.968085 
L 169.266655 280.488896 
L 170.760881 279.813955 
L 172.255107 278.945922 
L 173.749333 277.888215 
L 175.243558 276.644997 
L 176.737784 275.221166 
L 178.23201 273.622327 
L 181.220462 269.925473 
L 184.208914 265.612607 
L 187.197366 260.751595 
L 190.185818 255.418924 
L 193.17427 249.698508 
L 197.656948 240.589083 
L 211.104981 212.517341 
L 214.093433 206.758975 
L 217.081885 201.378543 
L 220.070337 196.46071 
L 223.058789 192.082859 
L 226.04724 188.313877 
L 227.541466 186.676646 
L 229.035692 185.21307 
L 230.529918 183.928913 
L 232.024144 182.829231 
L 233.51837 181.918355 
L 235.012596 181.19987 
L 236.506822 180.676607 
L 238.001048 180.350626 
L 239.495274 180.22321 
L 240.9895 180.294861 
L 242.483726 180.565297 
L 243.977952 181.033454 
L 245.472178 181.697487 
L 246.966404 182.554781 
L 248.46063 183.601962 
L 249.954856 184.834906 
L 251.449081 186.248757 
L 252.943307 187.837949 
L 255.931759 191.516655 
L 258.920211 195.813141 
L 261.908663 200.659798 
L 264.897115 205.980363 
L 267.885567 211.691114 
L 272.368245 220.79094 
L 285.816278 248.871131 
L 288.80473 254.638807 
L 291.793182 260.031012 
L 294.781634 264.962899 
L 297.770086 269.356861 
L 300.758538 273.143759 
L 302.252763 274.790538 
L 303.746989 276.264005 
L 305.241215 277.558358 
L 306.735441 278.6685 
L 308.229667 279.590059 
L 309.723893 280.319408 
L 311.218119 280.853674 
L 312.712345 281.190753 
L 314.206571 281.329317 
L 315.700797 281.268822 
L 317.195023 281.009505 
L 318.689249 280.552388 
L 320.183475 279.899271 
L 321.677701 279.052725 
L 323.171927 278.016083 
L 324.666153 276.793429 
L 326.160379 275.389575 
L 327.654604 273.810051 
L 330.643056 270.149537 
L 333.631508 265.869485 
L 336.61996 261.037244 
L 339.608412 255.728851 
L 342.596864 250.027834 
L 347.079542 240.93772 
L 362.021801 209.919905 
L 365.010253 204.318463 
L 367.998705 199.133359 
L 370.987157 194.446181 
L 373.975609 190.330685 
L 376.964061 186.851628 
L 378.458286 185.368289 
L 379.952512 184.063756 
L 381.446738 182.943168 
L 382.940964 182.010937 
L 384.43519 181.270733 
L 385.929416 180.725472 
L 387.423642 180.3773 
L 388.917868 180.227588 
L 390.412094 180.276926 
L 391.90632 180.52512 
L 393.400546 180.971192 
L 394.894772 181.613386 
L 396.388998 182.449173 
L 397.883224 183.475262 
L 399.37745 184.687612 
L 400.871676 186.08145 
L 402.365902 187.651288 
L 405.354353 191.293564 
L 408.342805 195.55713 
L 409.837031 197.901284 
L 409.837031 197.901284 
" clip-path="url(#p64fc44d0bf)" style="fill: none; stroke: #2f6f4f; stroke-width: 2.2; stroke-linecap: square"/>
   </g>
   <g id="patch_6">
    <path d="M 52.717031 295.488 
L 52.717031 162.021333 
" style="fill: none; stroke: #d8d4c8; stroke-width: 0.8; stroke-linejoin: miter; stroke-linecap: square"/>
   </g>
   <g id="patch_7">
    <path d="M 52.717031 295.488 
L 409.837031 295.488 
" style="fill: none; stroke: #d8d4c8; stroke-width: 0.8; stroke-linejoin: miter; stroke-linecap: square"/>
   </g>
  </g>
 </g>
 <defs>
  <clipPath id="pf6d7045f0b">
   <rect x="52.717031" y="7.2" width="357.12" height="133.466667"/>
  </clipPath>
  <clipPath id="p64fc44d0bf">
   <rect x="52.717031" y="162.021333" width="357.12" height="133.466667"/>
  </clipPath>
 </defs>
</svg>
