<?xml version="1.0" encoding="utf-8" standalone="no"?>
<!DOCTYPE svg PUBLIC "-//W3C//DTD SVG 1.1//EN"
  "http://www.w3.org/Graphics/SVG/1.1/DTD/svg11.dtd">
<svg xmlns:xlink="http://www.w3.org/1999/xlink" width="420.065054pt" height="433.48pt" viewBox="0 0 420.065054 433.48" xmlns="http://www.w3.org/2000/svg" version="1.1">
 <metadata>
  <rdf:RDF xmlns:dc="http://purl.org/dc/elements/1.1/" xmlns:cc="http://creativecommons.org/ns#" xmlns:rdf="http://www.w3.org/1999/02/22-rdf-syntax-ns#">
   <cc:Work>
    <dc:type rdf:resource="http://purl.org/dc/dcmitype/StillImage"/>
    <dc:date>2026-06-26T11:40:51.269199</dc:date>
    <dc:format>image/svg+xml</dc:format>
    <dc:creator>
     <cc:Agent>
      <dc:title>Matplotlib v3.11.0, https://matplotlib.org/</dc:title>
     </cc:Agent>
    </dc:creator>
   </cc:Work>
  </rdf:RDF>
 </metadata>
 <defs>
  <style type="text/css">*{stroke-linejoin: round; stroke-linecap: butt}</style>
 </defs>
 <g id="figure_1">
  <g id="patch_1">
   <path d="M 0 433.48 
L 420.065054 433.48 
L 420.065054 0 
L 0 0 
z
" style="fill: #ffffff"/>
  </g>
  <g id="axes_1">
   <g id="patch_2">
    <path d="M 65.207813 126.977778 
L 411.167813 126.977778 
L 411.167813 7.2 
L 65.207813 7.2 
z
" style="fill: #ffffff"/>
   </g>
   <g id="matplotlib.axis_1">
    <g id="xtick_1">
     <g id="line2d_1">
      <defs>
       <path id="m8f8f00dba5" d="M 0 0 
L 0 3.5 
" style="stroke: #000000; stroke-width: 0.8"/>
      </defs>
      <g>
       <use xlink:href="#m8f8f00dba5" x="65.207813" y="126.977778" style="stroke: #000000; stroke-width: 0.8"/>
      </g>
     </g>
    </g>
    <g id="xtick_2">
     <g id="line2d_2">
      <g>
       <use xlink:href="#m8f8f00dba5" x="107.671022" y="126.977778" style="stroke: #000000; stroke-width: 0.8"/>
      </g>
     </g>
    </g>
    <g id="xtick_3">
     <g id="line2d_3">
      <g>
       <use xlink:href="#m8f8f00dba5" x="150.134232" y="126.977778" style="stroke: #000000; stroke-width: 0.8"/>
      </g>
     </g>
    </g>
    <g id="xtick_4">
     <g id="line2d_4">
      <g>
       <use xlink:href="#m8f8f00dba5" x="192.597442" y="126.977778" style="stroke: #000000; stroke-width: 0.8"/>
      </g>
     </g>
    </g>
    <g id="xtick_5">
     <g id="line2d_5">
      <g>
       <use xlink:href="#m8f8f00dba5" x="235.060652" y="126.977778" style="stroke: #000000; stroke-width: 0.8"/>
      </g>
     </g>
    </g>
    <g id="xtick_6">
     <g id="line2d_6">
      <g>
       <use xlink:href="#m8f8f00dba5" x="277.523862" y="126.977778" style="stroke: #000000; stroke-width: 0.8"/>
      </g>
     </g>
    </g>
    <g id="xtick_7">
     <g id="line2d_7">
      <g>
       <use xlink:href="#m8f8f00dba5" x="319.987072" y="126.977778" style="stroke: #000000; stroke-width: 0.8"/>
      </g>
     </g>
    </g>
    <g id="xtick_8">
     <g id="line2d_8">
      <g>
       <use xlink:href="#m8f8f00dba5" x="362.450281" y="126.977778" style="stroke: #000000; stroke-width: 0.8"/>
      </g>
     </g>
    </g>
    <g id="xtick_9">
     <g id="line2d_9">
      <g>
       <use xlink:href="#m8f8f00dba5" x="404.913491" y="126.977778" style="stroke: #000000; stroke-width: 0.8"/>
      </g>
     </g>
    </g>
   </g>
   <g id="matplotlib.axis_2">
    <g id="ytick_1">
     <g id="line2d_10">
      <defs>
       <path id="mf8372e7b8a" d="M 0 0 
L -3.5 0 
" style="stroke: #000000; stroke-width: 0.8"/>
      </defs>
      <g>
       <use xlink:href="#mf8372e7b8a" x="65.207813" y="121.533348" style="stroke: #000000; stroke-width: 0.8"/>
      </g>
     </g>
     <g id="text_1">
      <!-- 0 -->
      <g transform="translate(51.845313 125.332176) scale(0.1 -0.1)">
       <defs>
        <path id="DejaVuSans-13" d="M 2034 4250 
Q 1547 4250 1301 3770 
Q 1056 3291 1056 2328 
Q 1056 1369 1301 889 
Q 1547 409 2034 409 
Q 2525 409 2770 889 
Q 3016 1369 3016 2328 
Q 3016 3291 2770 3770 
Q 2525 4250 2034 4250 
z
M 2034 4750 
Q 2819 4750 3233 4129 
Q 3647 3509 3647 2328 
Q 3647 1150 3233 529 
Q 2819 -91 2034 -91 
Q 1250 -91 836 529 
Q 422 1150 422 2328 
Q 422 3509 836 4129 
Q 1250 4750 2034 4750 
z
" transform="scale(0.015625)"/>
       </defs>
       <use xlink:href="#DejaVuSans-13"/>
      </g>
     </g>
    </g>
    <g id="ytick_2">
     <g id="line2d_11">
      <g>
       <use xlink:href="#mf8372e7b8a" x="65.207813" y="96.210347" style="stroke: #000000; stroke-width: 0.8"/>
      </g>
     </g>
     <g id="text_2">
      <!-- 5 -->
      <g transform="translate(51.845313 100.009175) scale(0.1 -0.1)">
       <defs>
        <path id="DejaVuSans-18" d="M 691 4666 
L 3169 4666 
L 3169 4134 
L 1269 4134 
L 1269 2991 
Q 1406 3038 1543 3061 
Q 1681 3084 1819 3084 
Q 2600 3084 3056 2656 
Q 3513 2228 3513 1497 
Q 3513 744 3044 326 
Q 2575 -91 1722 -91 
Q 1428 -91 1123 -41 
Q 819 9 494 109 
L 494 744 
Q 775 591 1075 516 
Q 1375 441 1709 441 
Q 2250 441 2565 725 
Q 2881 1009 2881 1497 
Q 2881 1984 2565 2268 
Q 2250 2553 1709 2553 
Q 1456 2553 1204 2497 
Q 953 2441 691 2322 
L 691 4666 
z
" transform="scale(0.015625)"/>
       </defs>
       <use xlink:href="#DejaVuSans-18"/>
      </g>
     </g>
    </g>
    <g id="ytick_3">
     <g id="line2d_12">
      <g>
       <use xlink:href="#mf8372e7b8a" x="65.207813" y="70.887346" style="stroke: #000000; stroke-width: 0.8"/>
      </g>
     </g>
     <g id="text_3">
      <!-- 10 -->
      <g transform="translate(45.482813 74.686174) scale(0.1 -0.1)">
       <defs>
        <path id="DejaVuSans-14" d="M 794 531 
L 1825 531 
L 1825 4091 
L 703 3866 
L 703 4441 
L 1819 4666 
L 2450 4666 
L 2450 531 
L 3481 531 
L 3481 0 
L 794 0 
L 794 531 
z
" transform="scale(0.015625)"/>
       </defs>
       <use xlink:href="#DejaVuSans-14"/>
       <use xlink:href="#DejaVuSans-13" transform="translate(63.625 0)"/>
      </g>
     </g>
    </g>
    <g id="ytick_4">
     <g id="line2d_13">
      <g>
       <use xlink:href="#mf8372e7b8a" x="65.207813" y="45.564345" style="stroke: #000000; stroke-width: 0.8"/>
      </g>
     </g>
     <g id="text_4">
      <!-- 15 -->
      <g transform="translate(45.482813 49.363174) scale(0.1 -0.1)">
       <use xlink:href="#DejaVuSans-14"/>
       <use xlink:href="#DejaVuSans-18" transform="translate(63.625 0)"/>
      </g>
     </g>
    </g>
    <g id="ytick_5">
     <g id="line2d_14">
      <g>
       <use xlink:href="#mf8372e7b8a" x="65.207813" y="20.241345" style="stroke: #000000; stroke-width: 0.8"/>
      </g>
     </g>
     <g id="text_5">
      <!-- 20 -->
      <g transform="translate(45.482813 24.040173) scale(0.1 -0.1)">
       <defs>
        <path id="DejaVuSans-15" d="M 1228 531 
L 3431 531 
L 3431 0 
L 469 0 
L 469 531 
Q 828 903 1448 1529 
Q 2069 2156 2228 2338 
Q 2531 2678 2651 2914 
Q 2772 3150 2772 3378 
Q 2772 3750 2511 3984 
Q 2250 4219 1831 4219 
Q 1534 4219 1204 4116 
Q 875 4013 500 3803 
L 500 4441 
Q 881 4594 1212 4672 
Q 1544 4750 1819 4750 
Q 2544 4750 2975 4387 
Q 3406 4025 3406 3419 
Q 3406 3131 3298 2873 
Q 3191 2616 2906 2266 
Q 2828 2175 2409 1742 
Q 1991 1309 1228 531 
z
" transform="scale(0.015625)"/>
       </defs>
       <use xlink:href="#DejaVuSans-15"/>
       <use xlink:href="#DejaVuSans-13" transform="translate(63.625 0)"/>
      </g>
     </g>
    </g>
    <g id="text_6">
     <!-- x  (m) -->
     <g transform="translate(39.080469 81.998264) rotate(-90) scale(0.1 -0.1)">
      <defs>
       <path id="DejaVuSans-5b" d="M 3513 3500 
L 2247 1797 
L 3578 0 
L 2900 0 
L 1881 1375 
L 863 0 
L 184 0 
L 1544 1831 
L 300 3500 
L 978 3500 
L 1906 2253 
L 2834 3500 
L 3513 3500 
z
" transform="scale(0.015625)"/>
       <path id="DejaVuSans-3" transform="scale(0.015625)"/>
       <path id="DejaVuSans-b" d="M 1984 4856 
Q 1566 4138 1362 3434 
Q 1159 2731 1159 2009 
Q 1159 1288 1364 580 
Q 1569 -128 1984 -844 
L 1484 -844 
Q 1016 -109 783 600 
Q 550 1309 550 2009 
Q 550 2706 781 3412 
Q 1013 4119 1484 4856 
L 1984 4856 
z
" transform="scale(0.015625)"/>
       <path id="DejaVuSans-50" d="M 3328 2828 
Q 3544 3216 3844 3400 
Q 4144 3584 4550 3584 
Q 5097 3584 5394 3201 
Q 5691 2819 5691 2113 
L 5691 0 
L 5113 0 
L 5113 2094 
Q 5113 2597 4934 2840 
Q 4756 3084 4391 3084 
Q 3944 3084 3684 2787 
Q 3425 2491 3425 1978 
L 3425 0 
L 2847 0 
L 2847 2094 
Q 2847 2600 2669 2842 
Q 2491 3084 2119 3084 
Q 1678 3084 1418 2786 
Q 1159 2488 1159 1978 
L 1159 0 
L 581 0 
L 581 3500 
L 1159 3500 
L 1159 2956 
Q 1356 3278 1631 3431 
Q 1906 3584 2284 3584 
Q 2666 3584 2933 3390 
Q 3200 3197 3328 2828 
z
" transform="scale(0.015625)"/>
       <path id="DejaVuSans-c" d="M 513 4856 
L 1013 4856 
Q 1481 4119 1714 3412 
Q 1947 2706 1947 2009 
Q 1947 1309 1714 600 
Q 1481 -109 1013 -844 
L 513 -844 
Q 928 -128 1133 580 
Q 1338 1288 1338 2009 
Q 1338 2731 1133 3434 
Q 928 4138 513 4856 
z
" transform="scale(0.015625)"/>
      </defs>
      <use xlink:href="#DejaVuSans-5b"/>
      <use xlink:href="#DejaVuSans-3" transform="translate(59.1875 0)"/>
      <use xlink:href="#DejaVuSans-3" transform="translate(90.96875 0)"/>
      <use xlink:href="#DejaVuSans-b" transform="translate(122.75 0)"/>
      <use xlink:href="#DejaVuSans-50" transform="translate(161.765625 0)"/>
      <use xlink:href="#DejaVuSans-c" transform="translate(259.171875 0)"/>
     </g>
    </g>
   </g>
   <g id="line2d_15">
    <path d="M 65.207813 113.936447 
L 72.445469 105.48799 
L 79.683126 97.40737 
L 86.920783 89.694587 
L 94.15844 82.349641 
L 101.396097 75.372532 
L 108.633754 68.763261 
L 115.871411 62.521826 
L 121.661536 57.793521 
L 127.451662 53.300632 
L 133.241787 49.043158 
L 139.031913 45.0211 
L 144.822038 41.234458 
L 150.612164 37.683232 
L 156.402289 34.367421 
L 162.192415 31.287026 
L 167.982541 28.442047 
L 173.772666 25.832484 
L 179.562792 23.458336 
L 185.352917 21.319604 
L 191.143043 19.416288 
L 196.933168 17.748388 
L 202.723294 16.315903 
L 208.513419 15.118834 
L 214.303545 14.157181 
L 220.09367 13.430943 
L 225.883796 12.940121 
L 231.673921 12.684715 
L 237.464047 12.664725 
L 243.254172 12.88015 
L 249.044298 13.330992 
L 254.834423 14.017249 
L 260.624549 14.938921 
L 266.414674 16.09601 
L 272.2048 17.488514 
L 277.994925 19.116434 
L 283.785051 20.979769 
L 289.575177 23.07852 
L 295.365302 25.412687 
L 301.155428 27.98227 
L 306.945553 30.787269 
L 312.735679 33.827683 
L 318.525804 37.103513 
L 324.31593 40.614759 
L 330.106055 44.36142 
L 335.896181 48.343498 
L 341.686306 52.56099 
L 347.476432 57.013899 
L 353.266557 61.702224 
L 359.056683 66.625964 
L 366.29434 73.111692 
L 373.531997 79.965258 
L 380.769654 87.186661 
L 388.00731 94.775901 
L 395.244967 102.732978 
L 402.482624 111.057892 
L 409.720281 119.750643 
L 411.167813 121.533333 
L 411.167813 121.533333 
" clip-path="url(#p9602da07c1)" style="fill: none; stroke: #1f2933; stroke-width: 2; stroke-linecap: square"/>
   </g>
   <g id="line2d_16">
    <path d="M 65.207813 121.533348 
L 411.167813 121.533348 
" clip-path="url(#p9602da07c1)" style="fill: none; stroke: #c9d6cf; stroke-linecap: square"/>
   </g>
   <g id="line2d_17">
    <path d="M 235.060652 126.977778 
L 235.060652 7.2 
" clip-path="url(#p9602da07c1)" style="fill: none; stroke-dasharray: 3.7,1.6; stroke-dashoffset: 0; stroke: #c9d6cf"/>
   </g>
   <g id="patch_3">
    <path d="M 65.207813 126.977778 
L 65.207813 7.2 
" style="fill: none; stroke: #000000; stroke-width: 0.8; stroke-linejoin: miter; stroke-linecap: square"/>
   </g>
   <g id="patch_4">
    <path d="M 65.207813 126.977778 
L 411.167813 126.977778 
" style="fill: none; stroke: #000000; stroke-width: 0.8; stroke-linejoin: miter; stroke-linecap: square"/>
   </g>
   <g id="text_7">
    <!-- apex: x = 21.5 m at t = 2 s -->
    <g style="fill: #2f6f4f" transform="translate(243.060652 16.644444) scale(0.08 -0.08)">
     <defs>
      <path id="DejaVuSans-44" d="M 2194 1759 
Q 1497 1759 1228 1600 
Q 959 1441 959 1056 
Q 959 750 1161 570 
Q 1363 391 1709 391 
Q 2188 391 2477 730 
Q 2766 1069 2766 1631 
L 2766 1759 
L 2194 1759 
z
M 3341 1997 
L 3341 0 
L 2766 0 
L 2766 531 
Q 2569 213 2275 61 
Q 1981 -91 1556 -91 
Q 1019 -91 701 211 
Q 384 513 384 1019 
Q 384 1609 779 1909 
Q 1175 2209 1959 2209 
L 2766 2209 
L 2766 2266 
Q 2766 2663 2505 2880 
Q 2244 3097 1772 3097 
Q 1472 3097 1187 3025 
Q 903 2953 641 2809 
L 641 3341 
Q 956 3463 1253 3523 
Q 1550 3584 1831 3584 
Q 2591 3584 2966 3190 
Q 3341 2797 3341 1997 
z
" transform="scale(0.015625)"/>
      <path id="DejaVuSans-53" d="M 1159 525 
L 1159 -1331 
L 581 -1331 
L 581 3500 
L 1159 3500 
L 1159 2969 
Q 1341 3281 1617 3432 
Q 1894 3584 2278 3584 
Q 2916 3584 3314 3078 
Q 3713 2572 3713 1747 
Q 3713 922 3314 415 
Q 2916 -91 2278 -91 
Q 1894 -91 1617 61 
Q 1341 213 1159 525 
z
M 3116 1747 
Q 3116 2381 2855 2742 
Q 2594 3103 2138 3103 
Q 1681 3103 1420 2742 
Q 1159 2381 1159 1747 
Q 1159 1113 1420 752 
Q 1681 391 2138 391 
Q 2594 391 2855 752 
Q 3116 1113 3116 1747 
z
" transform="scale(0.015625)"/>
      <path id="DejaVuSans-48" d="M 3597 1894 
L 3597 1613 
L 953 1613 
Q 991 1019 1311 708 
Q 1631 397 2203 397 
Q 2534 397 2845 478 
Q 3156 559 3463 722 
L 3463 178 
Q 3153 47 2828 -22 
Q 2503 -91 2169 -91 
Q 1331 -91 842 396 
Q 353 884 353 1716 
Q 353 2575 817 3079 
Q 1281 3584 2069 3584 
Q 2775 3584 3186 3129 
Q 3597 2675 3597 1894 
z
M 3022 2063 
Q 3016 2534 2758 2815 
Q 2500 3097 2075 3097 
Q 1594 3097 1305 2825 
Q 1016 2553 972 2059 
L 3022 2063 
z
" transform="scale(0.015625)"/>
      <path id="DejaVuSans-1d" d="M 750 794 
L 1409 794 
L 1409 0 
L 750 0 
L 750 794 
z
M 750 3309 
L 1409 3309 
L 1409 2516 
L 750 2516 
L 750 3309 
z
" transform="scale(0.015625)"/>
      <path id="DejaVuSans-20" d="M 678 2906 
L 4684 2906 
L 4684 2381 
L 678 2381 
L 678 2906 
z
M 678 1631 
L 4684 1631 
L 4684 1100 
L 678 1100 
L 678 1631 
z
" transform="scale(0.015625)"/>
      <path id="DejaVuSans-11" d="M 684 794 
L 1344 794 
L 1344 0 
L 684 0 
L 684 794 
z
" transform="scale(0.015625)"/>
      <path id="DejaVuSans-57" d="M 1172 4494 
L 1172 3500 
L 2356 3500 
L 2356 3053 
L 1172 3053 
L 1172 1153 
Q 1172 725 1289 603 
Q 1406 481 1766 481 
L 2356 481 
L 2356 0 
L 1766 0 
Q 1100 0 847 248 
Q 594 497 594 1153 
L 594 3053 
L 172 3053 
L 172 3500 
L 594 3500 
L 594 4494 
L 1172 4494 
z
" transform="scale(0.015625)"/>
      <path id="DejaVuSans-56" d="M 2834 3397 
L 2834 2853 
Q 2591 2978 2328 3040 
Q 2066 3103 1784 3103 
Q 1356 3103 1142 2972 
Q 928 2841 928 2578 
Q 928 2378 1081 2264 
Q 1234 2150 1697 2047 
L 1894 2003 
Q 2506 1872 2764 1633 
Q 3022 1394 3022 966 
Q 3022 478 2636 193 
Q 2250 -91 1575 -91 
Q 1294 -91 989 -36 
Q 684 19 347 128 
L 347 722 
Q 666 556 975 473 
Q 1284 391 1588 391 
Q 1994 391 2212 530 
Q 2431 669 2431 922 
Q 2431 1156 2273 1281 
Q 2116 1406 1581 1522 
L 1381 1569 
Q 847 1681 609 1914 
Q 372 2147 372 2553 
Q 372 3047 722 3315 
Q 1072 3584 1716 3584 
Q 2034 3584 2315 3537 
Q 2597 3491 2834 3397 
z
" transform="scale(0.015625)"/>
     </defs>
     <use xlink:href="#DejaVuSans-44"/>
     <use xlink:href="#DejaVuSans-53" transform="translate(61.28125 0)"/>
     <use xlink:href="#DejaVuSans-48" transform="translate(124.765625 0)"/>
     <use xlink:href="#DejaVuSans-5b" transform="translate(184.546875 0)"/>
     <use xlink:href="#DejaVuSans-1d" transform="translate(243.734375 0)"/>
     <use xlink:href="#DejaVuSans-3" transform="translate(277.421875 0)"/>
     <use xlink:href="#DejaVuSans-5b" transform="translate(309.203125 0)"/>
     <use xlink:href="#DejaVuSans-3" transform="translate(368.390625 0)"/>
     <use xlink:href="#DejaVuSans-20" transform="translate(400.171875 0)"/>
     <use xlink:href="#DejaVuSans-3" transform="translate(483.96875 0)"/>
     <use xlink:href="#DejaVuSans-15" transform="translate(515.75 0)"/>
     <use xlink:href="#DejaVuSans-14" transform="translate(579.375 0)"/>
     <use xlink:href="#DejaVuSans-11" transform="translate(643 0)"/>
     <use xlink:href="#DejaVuSans-18" transform="translate(674.78125 0)"/>
     <use xlink:href="#DejaVuSans-3" transform="translate(738.40625 0)"/>
     <use xlink:href="#DejaVuSans-50" transform="translate(770.1875 0)"/>
     <use xlink:href="#DejaVuSans-3" transform="translate(867.59375 0)"/>
     <use xlink:href="#DejaVuSans-44" transform="translate(899.375 0)"/>
     <use xlink:href="#DejaVuSans-57" transform="translate(960.65625 0)"/>
     <use xlink:href="#DejaVuSans-3" transform="translate(999.859375 0)"/>
     <use xlink:href="#DejaVuSans-57" transform="translate(1031.640625 0)"/>
     <use xlink:href="#DejaVuSans-3" transform="translate(1070.84375 0)"/>
     <use xlink:href="#DejaVuSans-20" transform="translate(1102.625 0)"/>
     <use xlink:href="#DejaVuSans-3" transform="translate(1186.421875 0)"/>
     <use xlink:href="#DejaVuSans-15" transform="translate(1218.203125 0)"/>
     <use xlink:href="#DejaVuSans-3" transform="translate(1281.828125 0)"/>
     <use xlink:href="#DejaVuSans-56" transform="translate(1313.609375 0)"/>
    </g>
   </g>
   <g id="PathCollection_1">
    <defs>
     <path id="m98a013d67c" d="M 0 3 
C 0.795609 3 1.55874 2.683901 2.12132 2.12132 
C 2.683901 1.55874 3 0.795609 3 0 
C 3 -0.795609 2.683901 -1.55874 2.12132 -2.12132 
C 1.55874 -2.683901 0.795609 -3 0 -3 
C -0.795609 -3 -1.55874 -2.683901 -2.12132 -2.12132 
C -2.683901 -1.55874 -3 -0.795609 -3 0 
C -3 0.795609 -2.683901 1.55874 -2.12132 2.12132 
C -1.55874 2.683901 -0.795609 3 0 3 
z
" style="stroke: #2f6f4f"/>
    </defs>
    <g clip-path="url(#p9602da07c1)">
     <use xlink:href="#m98a013d67c" x="235.060652" y="12.644444" style="fill: #2f6f4f; stroke: #2f6f4f"/>
    </g>
   </g>
  </g>
  <g id="axes_2">
   <g id="patch_5">
    <path d="M 65.207813 261.128889 
L 411.167813 261.128889 
L 411.167813 141.351111 
L 65.207813 141.351111 
z
" style="fill: #ffffff"/>
   </g>
   <g id="FillBetweenPolyCollection_1">
    <defs>
     <path id="m76973e61db" d="M 65.207813 -233.224256 
L 65.207813 -286.684444 
L 66.655344 -286.228842 
L 68.102875 -285.77324 
L 69.550407 -285.317638 
L 70.997938 -284.862036 
L 72.445469 -284.406434 
L 73.893001 -283.950832 
L 75.340532 -283.49523 
L 76.788064 -283.039628 
L 78.235595 -282.584026 
L 79.683126 -282.128424 
L 81.130658 -281.672822 
L 82.578189 -281.21722 
L 84.02572 -280.761618 
L 85.473252 -280.306016 
L 86.920783 -279.850414 
L 88.368315 -279.394812 
L 89.815846 -278.93921 
L 91.263377 -278.483608 
L 92.710909 -278.028006 
L 94.15844 -277.572404 
L 95.605971 -277.116801 
L 97.053503 -276.661199 
L 98.501034 -276.205597 
L 99.948566 -275.749995 
L 101.396097 -275.294393 
L 102.843628 -274.838791 
L 104.29116 -274.383189 
L 105.738691 -273.927587 
L 107.186223 -273.471985 
L 108.633754 -273.016383 
L 110.081285 -272.560781 
L 111.528817 -272.105179 
L 112.976348 -271.649577 
L 114.423879 -271.193975 
L 115.871411 -270.738373 
L 117.318942 -270.282771 
L 118.766474 -269.827169 
L 120.214005 -269.371567 
L 121.661536 -268.915965 
L 123.109068 -268.460363 
L 124.556599 -268.004761 
L 126.00413 -267.549159 
L 127.451662 -267.093556 
L 128.899193 -266.637954 
L 130.346725 -266.182352 
L 131.794256 -265.72675 
L 133.241787 -265.271148 
L 134.689319 -264.815546 
L 136.13685 -264.359944 
L 137.584382 -263.904342 
L 139.031913 -263.44874 
L 140.479444 -262.993138 
L 141.926976 -262.537536 
L 143.374507 -262.081934 
L 144.822038 -261.626332 
L 146.26957 -261.17073 
L 147.717101 -260.715128 
L 149.164633 -260.259526 
L 150.612164 -259.803924 
L 152.059695 -259.348322 
L 153.507227 -258.89272 
L 154.954758 -258.437118 
L 156.402289 -257.981516 
L 157.849821 -257.525914 
L 159.297352 -257.070311 
L 160.744884 -256.614709 
L 162.192415 -256.159107 
L 163.639946 -255.703505 
L 165.087478 -255.247903 
L 166.535009 -254.792301 
L 167.982541 -254.336699 
L 169.430072 -253.881097 
L 170.877603 -253.425495 
L 172.325135 -252.969893 
L 173.772666 -252.514291 
L 175.220197 -252.058689 
L 176.667729 -251.603087 
L 178.11526 -251.147485 
L 179.562792 -250.691883 
L 181.010323 -250.236281 
L 182.457854 -249.780679 
L 183.905386 -249.325077 
L 185.352917 -248.869475 
L 186.800448 -248.413873 
L 188.24798 -247.958271 
L 189.695511 -247.502669 
L 191.143043 -247.047066 
L 192.590574 -246.591464 
L 194.038105 -246.135862 
L 195.485637 -245.68026 
L 196.933168 -245.224658 
L 198.3807 -244.769056 
L 199.828231 -244.313454 
L 201.275762 -243.857852 
L 202.723294 -243.40225 
L 204.170825 -242.946648 
L 205.618356 -242.491046 
L 207.065888 -242.035444 
L 208.513419 -241.579842 
L 209.960951 -241.12424 
L 211.408482 -240.668638 
L 212.856013 -240.213036 
L 214.303545 -239.757434 
L 215.751076 -239.301832 
L 217.198607 -238.84623 
L 218.646139 -238.390628 
L 220.09367 -237.935026 
L 221.541202 -237.479424 
L 222.988733 -237.023821 
L 224.436264 -236.568219 
L 225.883796 -236.112617 
L 227.331327 -235.657015 
L 228.778859 -235.201413 
L 230.22639 -234.745811 
L 231.673921 -234.290209 
L 233.121453 -233.834607 
L 234.568984 -233.379005 
L 234.568984 -233.224256 
L 234.568984 -233.224256 
L 233.121453 -233.224256 
L 231.673921 -233.224256 
L 230.22639 -233.224256 
L 228.778859 -233.224256 
L 227.331327 -233.224256 
L 225.883796 -233.224256 
L 224.436264 -233.224256 
L 222.988733 -233.224256 
L 221.541202 -233.224256 
L 220.09367 -233.224256 
L 218.646139 -233.224256 
L 217.198607 -233.224256 
L 215.751076 -233.224256 
L 214.303545 -233.224256 
L 212.856013 -233.224256 
L 211.408482 -233.224256 
L 209.960951 -233.224256 
L 208.513419 -233.224256 
L 207.065888 -233.224256 
L 205.618356 -233.224256 
L 204.170825 -233.224256 
L 202.723294 -233.224256 
L 201.275762 -233.224256 
L 199.828231 -233.224256 
L 198.3807 -233.224256 
L 196.933168 -233.224256 
L 195.485637 -233.224256 
L 194.038105 -233.224256 
L 192.590574 -233.224256 
L 191.143043 -233.224256 
L 189.695511 -233.224256 
L 188.24798 -233.224256 
L 186.800448 -233.224256 
L 185.352917 -233.224256 
L 183.905386 -233.224256 
L 182.457854 -233.224256 
L 181.010323 -233.224256 
L 179.562792 -233.224256 
L 178.11526 -233.224256 
L 176.667729 -233.224256 
L 175.220197 -233.224256 
L 173.772666 -233.224256 
L 172.325135 -233.224256 
L 170.877603 -233.224256 
L 169.430072 -233.224256 
L 167.982541 -233.224256 
L 166.535009 -233.224256 
L 165.087478 -233.224256 
L 163.639946 -233.224256 
L 162.192415 -233.224256 
L 160.744884 -233.224256 
L 159.297352 -233.224256 
L 157.849821 -233.224256 
L 156.402289 -233.224256 
L 154.954758 -233.224256 
L 153.507227 -233.224256 
L 152.059695 -233.224256 
L 150.612164 -233.224256 
L 149.164633 -233.224256 
L 147.717101 -233.224256 
L 146.26957 -233.224256 
L 144.822038 -233.224256 
L 143.374507 -233.224256 
L 141.926976 -233.224256 
L 140.479444 -233.224256 
L 139.031913 -233.224256 
L 137.584382 -233.224256 
L 136.13685 -233.224256 
L 134.689319 -233.224256 
L 133.241787 -233.224256 
L 131.794256 -233.224256 
L 130.346725 -233.224256 
L 128.899193 -233.224256 
L 127.451662 -233.224256 
L 126.00413 -233.224256 
L 124.556599 -233.224256 
L 123.109068 -233.224256 
L 121.661536 -233.224256 
L 120.214005 -233.224256 
L 118.766474 -233.224256 
L 117.318942 -233.224256 
L 115.871411 -233.224256 
L 114.423879 -233.224256 
L 112.976348 -233.224256 
L 111.528817 -233.224256 
L 110.081285 -233.224256 
L 108.633754 -233.224256 
L 107.186223 -233.224256 
L 105.738691 -233.224256 
L 104.29116 -233.224256 
L 102.843628 -233.224256 
L 101.396097 -233.224256 
L 99.948566 -233.224256 
L 98.501034 -233.224256 
L 97.053503 -233.224256 
L 95.605971 -233.224256 
L 94.15844 -233.224256 
L 92.710909 -233.224256 
L 91.263377 -233.224256 
L 89.815846 -233.224256 
L 88.368315 -233.224256 
L 86.920783 -233.224256 
L 85.473252 -233.224256 
L 84.02572 -233.224256 
L 82.578189 -233.224256 
L 81.130658 -233.224256 
L 79.683126 -233.224256 
L 78.235595 -233.224256 
L 76.788064 -233.224256 
L 75.340532 -233.224256 
L 73.893001 -233.224256 
L 72.445469 -233.224256 
L 70.997938 -233.224256 
L 69.550407 -233.224256 
L 68.102875 -233.224256 
L 66.655344 -233.224256 
L 65.207813 -233.224256 
z
" style="stroke: #2f6f4f; stroke-opacity: 0.15"/>
    </defs>
    <g clip-path="url(#p61843c5fc5)">
     <use xlink:href="#m76973e61db" x="0" y="433.48" style="fill: #2f6f4f; fill-opacity: 0.15; stroke: #2f6f4f; stroke-opacity: 0.15"/>
    </g>
   </g>
   <g id="matplotlib.axis_3">
    <g id="xtick_10">
     <g id="line2d_18">
      <g>
       <use xlink:href="#m8f8f00dba5" x="65.207813" y="261.128889" style="stroke: #000000; stroke-width: 0.8"/>
      </g>
     </g>
    </g>
    <g id="xtick_11">
     <g id="line2d_19">
      <g>
       <use xlink:href="#m8f8f00dba5" x="107.671022" y="261.128889" style="stroke: #000000; stroke-width: 0.8"/>
      </g>
     </g>
    </g>
    <g id="xtick_12">
     <g id="line2d_20">
      <g>
       <use xlink:href="#m8f8f00dba5" x="150.134232" y="261.128889" style="stroke: #000000; stroke-width: 0.8"/>
      </g>
     </g>
    </g>
    <g id="xtick_13">
     <g id="line2d_21">
      <g>
       <use xlink:href="#m8f8f00dba5" x="192.597442" y="261.128889" style="stroke: #000000; stroke-width: 0.8"/>
      </g>
     </g>
    </g>
    <g id="xtick_14">
     <g id="line2d_22">
      <g>
       <use xlink:href="#m8f8f00dba5" x="235.060652" y="261.128889" style="stroke: #000000; stroke-width: 0.8"/>
      </g>
     </g>
    </g>
    <g id="xtick_15">
     <g id="line2d_23">
      <g>
       <use xlink:href="#m8f8f00dba5" x="277.523862" y="261.128889" style="stroke: #000000; stroke-width: 0.8"/>
      </g>
     </g>
    </g>
    <g id="xtick_16">
     <g id="line2d_24">
      <g>
       <use xlink:href="#m8f8f00dba5" x="319.987072" y="261.128889" style="stroke: #000000; stroke-width: 0.8"/>
      </g>
     </g>
    </g>
    <g id="xtick_17">
     <g id="line2d_25">
      <g>
       <use xlink:href="#m8f8f00dba5" x="362.450281" y="261.128889" style="stroke: #000000; stroke-width: 0.8"/>
      </g>
     </g>
    </g>
    <g id="xtick_18">
     <g id="line2d_26">
      <g>
       <use xlink:href="#m8f8f00dba5" x="404.913491" y="261.128889" style="stroke: #000000; stroke-width: 0.8"/>
      </g>
     </g>
    </g>
   </g>
   <g id="matplotlib.axis_4">
    <g id="ytick_6">
     <g id="line2d_27">
      <g>
       <use xlink:href="#mf8372e7b8a" x="65.207813" y="253.715933" style="stroke: #000000; stroke-width: 0.8"/>
      </g>
     </g>
     <g id="text_8">
      <!-- −20 -->
      <g transform="translate(37.103125 257.514761) scale(0.1 -0.1)">
       <defs>
        <path id="DejaVuSans-c9c" d="M 678 2272 
L 4684 2272 
L 4684 1741 
L 678 1741 
L 678 2272 
z
" transform="scale(0.015625)"/>
       </defs>
       <use xlink:href="#DejaVuSans-c9c"/>
       <use xlink:href="#DejaVuSans-15" transform="translate(83.796875 0)"/>
       <use xlink:href="#DejaVuSans-13" transform="translate(147.421875 0)"/>
      </g>
     </g>
    </g>
    <g id="ytick_7">
     <g id="line2d_28">
      <g>
       <use xlink:href="#mf8372e7b8a" x="65.207813" y="226.985839" style="stroke: #000000; stroke-width: 0.8"/>
      </g>
     </g>
     <g id="text_9">
      <!-- −10 -->
      <g transform="translate(37.103125 230.784667) scale(0.1 -0.1)">
       <use xlink:href="#DejaVuSans-c9c"/>
       <use xlink:href="#DejaVuSans-14" transform="translate(83.796875 0)"/>
       <use xlink:href="#DejaVuSans-13" transform="translate(147.421875 0)"/>
      </g>
     </g>
    </g>
    <g id="ytick_8">
     <g id="line2d_29">
      <g>
       <use xlink:href="#mf8372e7b8a" x="65.207813" y="200.255744" style="stroke: #000000; stroke-width: 0.8"/>
      </g>
     </g>
     <g id="text_10">
      <!-- 0 -->
      <g transform="translate(51.845313 204.054573) scale(0.1 -0.1)">
       <use xlink:href="#DejaVuSans-13"/>
      </g>
     </g>
    </g>
    <g id="ytick_9">
     <g id="line2d_30">
      <g>
       <use xlink:href="#mf8372e7b8a" x="65.207813" y="173.52565" style="stroke: #000000; stroke-width: 0.8"/>
      </g>
     </g>
     <g id="text_11">
      <!-- 10 -->
      <g transform="translate(45.482813 177.324478) scale(0.1 -0.1)">
       <use xlink:href="#DejaVuSans-14"/>
       <use xlink:href="#DejaVuSans-13" transform="translate(63.625 0)"/>
      </g>
     </g>
    </g>
    <g id="ytick_10">
     <g id="line2d_31">
      <g>
       <use xlink:href="#mf8372e7b8a" x="65.207813" y="146.795556" style="stroke: #000000; stroke-width: 0.8"/>
      </g>
     </g>
     <g id="text_12">
      <!-- 20 -->
      <g transform="translate(45.482813 150.594384) scale(0.1 -0.1)">
       <use xlink:href="#DejaVuSans-15"/>
       <use xlink:href="#DejaVuSans-13" transform="translate(63.625 0)"/>
      </g>
     </g>
    </g>
    <g id="text_13">
     <!-- v  (m/s) -->
     <g transform="translate(30.700781 220.438437) rotate(-90) scale(0.1 -0.1)">
      <defs>
       <path id="DejaVuSans-59" d="M 191 3500 
L 800 3500 
L 1894 563 
L 2988 3500 
L 3597 3500 
L 2284 0 
L 1503 0 
L 191 3500 
z
" transform="scale(0.015625)"/>
       <path id="DejaVuSans-12" d="M 1625 4666 
L 2156 4666 
L 531 -594 
L 0 -594 
L 1625 4666 
z
" transform="scale(0.015625)"/>
      </defs>
      <use xlink:href="#DejaVuSans-59"/>
      <use xlink:href="#DejaVuSans-3" transform="translate(59.1875 0)"/>
      <use xlink:href="#DejaVuSans-3" transform="translate(90.96875 0)"/>
      <use xlink:href="#DejaVuSans-b" transform="translate(122.75 0)"/>
      <use xlink:href="#DejaVuSans-50" transform="translate(161.765625 0)"/>
      <use xlink:href="#DejaVuSans-12" transform="translate(259.171875 0)"/>
      <use xlink:href="#DejaVuSans-56" transform="translate(292.859375 0)"/>
      <use xlink:href="#DejaVuSans-c" transform="translate(344.953125 0)"/>
     </g>
    </g>
   </g>
   <g id="line2d_32">
    <path d="M 65.207813 146.795556 
L 411.167813 255.684444 
L 411.167813 255.684444 
" clip-path="url(#p61843c5fc5)" style="fill: none; stroke: #1f2933; stroke-width: 2; stroke-linecap: square"/>
   </g>
   <g id="line2d_33">
    <path d="M 65.207813 200.255744 
L 411.167813 200.255744 
" clip-path="url(#p61843c5fc5)" style="fill: none; stroke: #c9d6cf; stroke-linecap: square"/>
   </g>
   <g id="line2d_34">
    <path d="M 235.060652 261.128889 
L 235.060652 141.351111 
" clip-path="url(#p61843c5fc5)" style="fill: none; stroke-dasharray: 3.7,1.6; stroke-dashoffset: 0; stroke: #c9d6cf"/>
   </g>
   <g id="patch_6">
    <path d="M 65.207813 261.128889 
L 65.207813 141.351111 
" style="fill: none; stroke: #000000; stroke-width: 0.8; stroke-linejoin: miter; stroke-linecap: square"/>
   </g>
   <g id="patch_7">
    <path d="M 65.207813 261.128889 
L 411.167813 261.128889 
" style="fill: none; stroke: #000000; stroke-width: 0.8; stroke-linejoin: miter; stroke-linecap: square"/>
   </g>
   <g id="text_14">
    <!-- area under v = change in x -->
    <g style="fill: #2f6f4f" transform="translate(95.417357 173.52565) scale(0.08 -0.08)">
     <defs>
      <path id="DejaVuSans-55" d="M 2631 2963 
Q 2534 3019 2420 3045 
Q 2306 3072 2169 3072 
Q 1681 3072 1420 2755 
Q 1159 2438 1159 1844 
L 1159 0 
L 581 0 
L 581 3500 
L 1159 3500 
L 1159 2956 
Q 1341 3275 1631 3429 
Q 1922 3584 2338 3584 
Q 2397 3584 2469 3576 
Q 2541 3569 2628 3553 
L 2631 2963 
z
" transform="scale(0.015625)"/>
      <path id="DejaVuSans-58" d="M 544 1381 
L 544 3500 
L 1119 3500 
L 1119 1403 
Q 1119 906 1312 657 
Q 1506 409 1894 409 
Q 2359 409 2629 706 
Q 2900 1003 2900 1516 
L 2900 3500 
L 3475 3500 
L 3475 0 
L 2900 0 
L 2900 538 
Q 2691 219 2414 64 
Q 2138 -91 1772 -91 
Q 1169 -91 856 284 
Q 544 659 544 1381 
z
M 1991 3584 
L 1991 3584 
z
" transform="scale(0.015625)"/>
      <path id="DejaVuSans-51" d="M 3513 2113 
L 3513 0 
L 2938 0 
L 2938 2094 
Q 2938 2591 2744 2837 
Q 2550 3084 2163 3084 
Q 1697 3084 1428 2787 
Q 1159 2491 1159 1978 
L 1159 0 
L 581 0 
L 581 3500 
L 1159 3500 
L 1159 2956 
Q 1366 3272 1645 3428 
Q 1925 3584 2291 3584 
Q 2894 3584 3203 3211 
Q 3513 2838 3513 2113 
z
" transform="scale(0.015625)"/>
      <path id="DejaVuSans-47" d="M 2906 2969 
L 2906 4863 
L 3481 4863 
L 3481 0 
L 2906 0 
L 2906 525 
Q 2725 213 2448 61 
Q 2172 -91 1784 -91 
Q 1150 -91 751 415 
Q 353 922 353 1747 
Q 353 2572 751 3078 
Q 1150 3584 1784 3584 
Q 2172 3584 2448 3432 
Q 2725 3281 2906 2969 
z
M 947 1747 
Q 947 1113 1208 752 
Q 1469 391 1925 391 
Q 2381 391 2643 752 
Q 2906 1113 2906 1747 
Q 2906 2381 2643 2742 
Q 2381 3103 1925 3103 
Q 1469 3103 1208 2742 
Q 947 2381 947 1747 
z
" transform="scale(0.015625)"/>
      <path id="DejaVuSans-46" d="M 3122 3366 
L 3122 2828 
Q 2878 2963 2633 3030 
Q 2388 3097 2138 3097 
Q 1578 3097 1268 2742 
Q 959 2388 959 1747 
Q 959 1106 1268 751 
Q 1578 397 2138 397 
Q 2388 397 2633 464 
Q 2878 531 3122 666 
L 3122 134 
Q 2881 22 2623 -34 
Q 2366 -91 2075 -91 
Q 1284 -91 818 406 
Q 353 903 353 1747 
Q 353 2603 823 3093 
Q 1294 3584 2113 3584 
Q 2378 3584 2631 3529 
Q 2884 3475 3122 3366 
z
" transform="scale(0.015625)"/>
      <path id="DejaVuSans-4b" d="M 3513 2113 
L 3513 0 
L 2938 0 
L 2938 2094 
Q 2938 2591 2744 2837 
Q 2550 3084 2163 3084 
Q 1697 3084 1428 2787 
Q 1159 2491 1159 1978 
L 1159 0 
L 581 0 
L 581 4863 
L 1159 4863 
L 1159 2956 
Q 1366 3272 1645 3428 
Q 1925 3584 2291 3584 
Q 2894 3584 3203 3211 
Q 3513 2838 3513 2113 
z
" transform="scale(0.015625)"/>
      <path id="DejaVuSans-4a" d="M 2906 1791 
Q 2906 2416 2648 2759 
Q 2391 3103 1925 3103 
Q 1463 3103 1205 2759 
Q 947 2416 947 1791 
Q 947 1169 1205 825 
Q 1463 481 1925 481 
Q 2391 481 2648 825 
Q 2906 1169 2906 1791 
z
M 3481 434 
Q 3481 -459 3084 -895 
Q 2688 -1331 1869 -1331 
Q 1566 -1331 1297 -1286 
Q 1028 -1241 775 -1147 
L 775 -588 
Q 1028 -725 1275 -790 
Q 1522 -856 1778 -856 
Q 2344 -856 2625 -561 
Q 2906 -266 2906 331 
L 2906 616 
Q 2728 306 2450 153 
Q 2172 0 1784 0 
Q 1141 0 747 490 
Q 353 981 353 1791 
Q 353 2603 747 3093 
Q 1141 3584 1784 3584 
Q 2172 3584 2450 3431 
Q 2728 3278 2906 2969 
L 2906 3500 
L 3481 3500 
L 3481 434 
z
" transform="scale(0.015625)"/>
      <path id="DejaVuSans-4c" d="M 603 3500 
L 1178 3500 
L 1178 0 
L 603 0 
L 603 3500 
z
M 603 4863 
L 1178 4863 
L 1178 4134 
L 603 4134 
L 603 4863 
z
" transform="scale(0.015625)"/>
     </defs>
     <use xlink:href="#DejaVuSans-44"/>
     <use xlink:href="#DejaVuSans-55" transform="translate(61.28125 0)"/>
     <use xlink:href="#DejaVuSans-48" transform="translate(100.1875 0)"/>
     <use xlink:href="#DejaVuSans-44" transform="translate(161.71875 0)"/>
     <use xlink:href="#DejaVuSans-3" transform="translate(223 0)"/>
     <use xlink:href="#DejaVuSans-58" transform="translate(254.78125 0)"/>
     <use xlink:href="#DejaVuSans-51" transform="translate(318.15625 0)"/>
     <use xlink:href="#DejaVuSans-47" transform="translate(381.53125 0)"/>
     <use xlink:href="#DejaVuSans-48" transform="translate(445.015625 0)"/>
     <use xlink:href="#DejaVuSans-55" transform="translate(506.546875 0)"/>
     <use xlink:href="#DejaVuSans-3" transform="translate(547.65625 0)"/>
     <use xlink:href="#DejaVuSans-59" transform="translate(579.4375 0)"/>
     <use xlink:href="#DejaVuSans-3" transform="translate(638.625 0)"/>
     <use xlink:href="#DejaVuSans-20" transform="translate(670.40625 0)"/>
     <use xlink:href="#DejaVuSans-3" transform="translate(754.203125 0)"/>
     <use xlink:href="#DejaVuSans-46" transform="translate(785.984375 0)"/>
     <use xlink:href="#DejaVuSans-4b" transform="translate(840.96875 0)"/>
     <use xlink:href="#DejaVuSans-44" transform="translate(904.34375 0)"/>
     <use xlink:href="#DejaVuSans-51" transform="translate(965.625 0)"/>
     <use xlink:href="#DejaVuSans-4a" transform="translate(1029 0)"/>
     <use xlink:href="#DejaVuSans-48" transform="translate(1092.484375 0)"/>
     <use xlink:href="#DejaVuSans-3" transform="translate(1154.015625 0)"/>
     <use xlink:href="#DejaVuSans-4c" transform="translate(1185.796875 0)"/>
     <use xlink:href="#DejaVuSans-51" transform="translate(1213.578125 0)"/>
     <use xlink:href="#DejaVuSans-3" transform="translate(1276.953125 0)"/>
     <use xlink:href="#DejaVuSans-5b" transform="translate(1308.734375 0)"/>
    </g>
   </g>
   <g id="text_15">
    <!-- v = 0 here, but the line never bends: -->
    <g style="fill: #2f6f4f" transform="translate(243.060652 180.653557) scale(0.08 -0.08)">
     <defs>
      <path id="DejaVuSans-f" d="M 750 794 
L 1409 794 
L 1409 256 
L 897 -744 
L 494 -744 
L 750 256 
L 750 794 
z
" transform="scale(0.015625)"/>
      <path id="DejaVuSans-45" d="M 3116 1747 
Q 3116 2381 2855 2742 
Q 2594 3103 2138 3103 
Q 1681 3103 1420 2742 
Q 1159 2381 1159 1747 
Q 1159 1113 1420 752 
Q 1681 391 2138 391 
Q 2594 391 2855 752 
Q 3116 1113 3116 1747 
z
M 1159 2969 
Q 1341 3281 1617 3432 
Q 1894 3584 2278 3584 
Q 2916 3584 3314 3078 
Q 3713 2572 3713 1747 
Q 3713 922 3314 415 
Q 2916 -91 2278 -91 
Q 1894 -91 1617 61 
Q 1341 213 1159 525 
L 1159 0 
L 581 0 
L 581 4863 
L 1159 4863 
L 1159 2969 
z
" transform="scale(0.015625)"/>
      <path id="DejaVuSans-4f" d="M 603 4863 
L 1178 4863 
L 1178 0 
L 603 0 
L 603 4863 
z
" transform="scale(0.015625)"/>
     </defs>
     <use xlink:href="#DejaVuSans-59"/>
     <use xlink:href="#DejaVuSans-3" transform="translate(59.1875 0)"/>
     <use xlink:href="#DejaVuSans-20" transform="translate(90.96875 0)"/>
     <use xlink:href="#DejaVuSans-3" transform="translate(174.765625 0)"/>
     <use xlink:href="#DejaVuSans-13" transform="translate(206.546875 0)"/>
     <use xlink:href="#DejaVuSans-3" transform="translate(270.171875 0)"/>
     <use xlink:href="#DejaVuSans-4b" transform="translate(301.953125 0)"/>
     <use xlink:href="#DejaVuSans-48" transform="translate(365.328125 0)"/>
     <use xlink:href="#DejaVuSans-55" transform="translate(426.859375 0)"/>
     <use xlink:href="#DejaVuSans-48" transform="translate(465.765625 0)"/>
     <use xlink:href="#DejaVuSans-f" transform="translate(527.296875 0)"/>
     <use xlink:href="#DejaVuSans-3" transform="translate(559.078125 0)"/>
     <use xlink:href="#DejaVuSans-45" transform="translate(590.859375 0)"/>
     <use xlink:href="#DejaVuSans-58" transform="translate(654.34375 0)"/>
     <use xlink:href="#DejaVuSans-57" transform="translate(717.71875 0)"/>
     <use xlink:href="#DejaVuSans-3" transform="translate(756.921875 0)"/>
     <use xlink:href="#DejaVuSans-57" transform="translate(788.703125 0)"/>
     <use xlink:href="#DejaVuSans-4b" transform="translate(827.90625 0)"/>
     <use xlink:href="#DejaVuSans-48" transform="translate(891.28125 0)"/>
     <use xlink:href="#DejaVuSans-3" transform="translate(952.8125 0)"/>
     <use xlink:href="#DejaVuSans-4f" transform="translate(984.59375 0)"/>
     <use xlink:href="#DejaVuSans-4c" transform="translate(1012.375 0)"/>
     <use xlink:href="#DejaVuSans-51" transform="translate(1040.15625 0)"/>
     <use xlink:href="#DejaVuSans-48" transform="translate(1103.53125 0)"/>
     <use xlink:href="#DejaVuSans-3" transform="translate(1165.0625 0)"/>
     <use xlink:href="#DejaVuSans-51" transform="translate(1196.84375 0)"/>
     <use xlink:href="#DejaVuSans-48" transform="translate(1260.21875 0)"/>
     <use xlink:href="#DejaVuSans-59" transform="translate(1321.75 0)"/>
     <use xlink:href="#DejaVuSans-48" transform="translate(1380.9375 0)"/>
     <use xlink:href="#DejaVuSans-55" transform="translate(1442.46875 0)"/>
     <use xlink:href="#DejaVuSans-3" transform="translate(1483.578125 0)"/>
     <use xlink:href="#DejaVuSans-45" transform="translate(1515.359375 0)"/>
     <use xlink:href="#DejaVuSans-48" transform="translate(1578.84375 0)"/>
     <use xlink:href="#DejaVuSans-51" transform="translate(1640.375 0)"/>
     <use xlink:href="#DejaVuSans-47" transform="translate(1703.75 0)"/>
     <use xlink:href="#DejaVuSans-56" transform="translate(1767.234375 0)"/>
     <use xlink:href="#DejaVuSans-1d" transform="translate(1819.328125 0)"/>
    </g>
    <!-- its slope (= a) is unchanged -->
    <g style="fill: #2f6f4f" transform="translate(243.060652 190.255744) scale(0.08 -0.08)">
     <defs>
      <path id="DejaVuSans-52" d="M 1959 3097 
Q 1497 3097 1228 2736 
Q 959 2375 959 1747 
Q 959 1119 1226 758 
Q 1494 397 1959 397 
Q 2419 397 2687 759 
Q 2956 1122 2956 1747 
Q 2956 2369 2687 2733 
Q 2419 3097 1959 3097 
z
M 1959 3584 
Q 2709 3584 3137 3096 
Q 3566 2609 3566 1747 
Q 3566 888 3137 398 
Q 2709 -91 1959 -91 
Q 1206 -91 779 398 
Q 353 888 353 1747 
Q 353 2609 779 3096 
Q 1206 3584 1959 3584 
z
" transform="scale(0.015625)"/>
     </defs>
     <use xlink:href="#DejaVuSans-4c"/>
     <use xlink:href="#DejaVuSans-57" transform="translate(27.78125 0)"/>
     <use xlink:href="#DejaVuSans-56" transform="translate(66.984375 0)"/>
     <use xlink:href="#DejaVuSans-3" transform="translate(119.078125 0)"/>
     <use xlink:href="#DejaVuSans-56" transform="translate(150.859375 0)"/>
     <use xlink:href="#DejaVuSans-4f" transform="translate(202.953125 0)"/>
     <use xlink:href="#DejaVuSans-52" transform="translate(230.734375 0)"/>
     <use xlink:href="#DejaVuSans-53" transform="translate(291.921875 0)"/>
     <use xlink:href="#DejaVuSans-48" transform="translate(355.40625 0)"/>
     <use xlink:href="#DejaVuSans-3" transform="translate(416.9375 0)"/>
     <use xlink:href="#DejaVuSans-b" transform="translate(448.71875 0)"/>
     <use xlink:href="#DejaVuSans-20" transform="translate(487.734375 0)"/>
     <use xlink:href="#DejaVuSans-3" transform="translate(571.53125 0)"/>
     <use xlink:href="#DejaVuSans-44" transform="translate(603.3125 0)"/>
     <use xlink:href="#DejaVuSans-c" transform="translate(664.59375 0)"/>
     <use xlink:href="#DejaVuSans-3" transform="translate(703.609375 0)"/>
     <use xlink:href="#DejaVuSans-4c" transform="translate(735.390625 0)"/>
     <use xlink:href="#DejaVuSans-56" transform="translate(763.171875 0)"/>
     <use xlink:href="#DejaVuSans-3" transform="translate(815.265625 0)"/>
     <use xlink:href="#DejaVuSans-58" transform="translate(847.046875 0)"/>
     <use xlink:href="#DejaVuSans-51" transform="translate(910.421875 0)"/>
     <use xlink:href="#DejaVuSans-46" transform="translate(973.796875 0)"/>
     <use xlink:href="#DejaVuSans-4b" transform="translate(1028.78125 0)"/>
     <use xlink:href="#DejaVuSans-44" transform="translate(1092.15625 0)"/>
     <use xlink:href="#DejaVuSans-51" transform="translate(1153.4375 0)"/>
     <use xlink:href="#DejaVuSans-4a" transform="translate(1216.8125 0)"/>
     <use xlink:href="#DejaVuSans-48" transform="translate(1280.296875 0)"/>
     <use xlink:href="#DejaVuSans-47" transform="translate(1341.828125 0)"/>
    </g>
   </g>
   <g id="PathCollection_2">
    <g clip-path="url(#p61843c5fc5)">
     <use xlink:href="#m98a013d67c" x="235.060652" y="200.255744" style="fill: #2f6f4f; stroke: #2f6f4f"/>
    </g>
   </g>
  </g>
  <g id="axes_3">
   <g id="patch_8">
    <path d="M 65.207813 395.28 
L 411.167813 395.28 
L 411.167813 275.502222 
L 65.207813 275.502222 
z
" style="fill: #ffffff"/>
   </g>
   <g id="matplotlib.axis_5">
    <g id="xtick_19">
     <g id="line2d_35">
      <g>
       <use xlink:href="#m8f8f00dba5" x="65.207813" y="395.28" style="stroke: #000000; stroke-width: 0.8"/>
      </g>
     </g>
     <g id="text_16">
      <!-- 0.0 -->
      <g transform="translate(57.25625 409.877656) scale(0.1 -0.1)">
       <use xlink:href="#DejaVuSans-13"/>
       <use xlink:href="#DejaVuSans-11" transform="translate(63.625 0)"/>
       <use xlink:href="#DejaVuSans-13" transform="translate(95.40625 0)"/>
      </g>
     </g>
    </g>
    <g id="xtick_20">
     <g id="line2d_36">
      <g>
       <use xlink:href="#m8f8f00dba5" x="107.671022" y="395.28" style="stroke: #000000; stroke-width: 0.8"/>
      </g>
     </g>
     <g id="text_17">
      <!-- 0.5 -->
      <g transform="translate(99.71946 409.877656) scale(0.1 -0.1)">
       <use xlink:href="#DejaVuSans-13"/>
       <use xlink:href="#DejaVuSans-11" transform="translate(63.625 0)"/>
       <use xlink:href="#DejaVuSans-18" transform="translate(95.40625 0)"/>
      </g>
     </g>
    </g>
    <g id="xtick_21">
     <g id="line2d_37">
      <g>
       <use xlink:href="#m8f8f00dba5" x="150.134232" y="395.28" style="stroke: #000000; stroke-width: 0.8"/>
      </g>
     </g>
     <g id="text_18">
      <!-- 1.0 -->
      <g transform="translate(142.18267 409.877656) scale(0.1 -0.1)">
       <use xlink:href="#DejaVuSans-14"/>
       <use xlink:href="#DejaVuSans-11" transform="translate(63.625 0)"/>
       <use xlink:href="#DejaVuSans-13" transform="translate(95.40625 0)"/>
      </g>
     </g>
    </g>
    <g id="xtick_22">
     <g id="line2d_38">
      <g>
       <use xlink:href="#m8f8f00dba5" x="192.597442" y="395.28" style="stroke: #000000; stroke-width: 0.8"/>
      </g>
     </g>
     <g id="text_19">
      <!-- 1.5 -->
      <g transform="translate(184.64588 409.877656) scale(0.1 -0.1)">
       <use xlink:href="#DejaVuSans-14"/>
       <use xlink:href="#DejaVuSans-11" transform="translate(63.625 0)"/>
       <use xlink:href="#DejaVuSans-18" transform="translate(95.40625 0)"/>
      </g>
     </g>
    </g>
    <g id="xtick_23">
     <g id="line2d_39">
      <g>
       <use xlink:href="#m8f8f00dba5" x="235.060652" y="395.28" style="stroke: #000000; stroke-width: 0.8"/>
      </g>
     </g>
     <g id="text_20">
      <!-- 2.0 -->
      <g transform="translate(227.109089 409.877656) scale(0.1 -0.1)">
       <use xlink:href="#DejaVuSans-15"/>
       <use xlink:href="#DejaVuSans-11" transform="translate(63.625 0)"/>
       <use xlink:href="#DejaVuSans-13" transform="translate(95.40625 0)"/>
      </g>
     </g>
    </g>
    <g id="xtick_24">
     <g id="line2d_40">
      <g>
       <use xlink:href="#m8f8f00dba5" x="277.523862" y="395.28" style="stroke: #000000; stroke-width: 0.8"/>
      </g>
     </g>
     <g id="text_21">
      <!-- 2.5 -->
      <g transform="translate(269.572299 409.877656) scale(0.1 -0.1)">
       <use xlink:href="#DejaVuSans-15"/>
       <use xlink:href="#DejaVuSans-11" transform="translate(63.625 0)"/>
       <use xlink:href="#DejaVuSans-18" transform="translate(95.40625 0)"/>
      </g>
     </g>
    </g>
    <g id="xtick_25">
     <g id="line2d_41">
      <g>
       <use xlink:href="#m8f8f00dba5" x="319.987072" y="395.28" style="stroke: #000000; stroke-width: 0.8"/>
      </g>
     </g>
     <g id="text_22">
      <!-- 3.0 -->
      <g transform="translate(312.035509 409.877656) scale(0.1 -0.1)">
       <defs>
        <path id="DejaVuSans-16" d="M 2597 2516 
Q 3050 2419 3304 2112 
Q 3559 1806 3559 1356 
Q 3559 666 3084 287 
Q 2609 -91 1734 -91 
Q 1441 -91 1130 -33 
Q 819 25 488 141 
L 488 750 
Q 750 597 1062 519 
Q 1375 441 1716 441 
Q 2309 441 2620 675 
Q 2931 909 2931 1356 
Q 2931 1769 2642 2001 
Q 2353 2234 1838 2234 
L 1294 2234 
L 1294 2753 
L 1863 2753 
Q 2328 2753 2575 2939 
Q 2822 3125 2822 3475 
Q 2822 3834 2567 4026 
Q 2313 4219 1838 4219 
Q 1578 4219 1281 4162 
Q 984 4106 628 3988 
L 628 4550 
Q 988 4650 1302 4700 
Q 1616 4750 1894 4750 
Q 2613 4750 3031 4423 
Q 3450 4097 3450 3541 
Q 3450 3153 3228 2886 
Q 3006 2619 2597 2516 
z
" transform="scale(0.015625)"/>
       </defs>
       <use xlink:href="#DejaVuSans-16"/>
       <use xlink:href="#DejaVuSans-11" transform="translate(63.625 0)"/>
       <use xlink:href="#DejaVuSans-13" transform="translate(95.40625 0)"/>
      </g>
     </g>
    </g>
    <g id="xtick_26">
     <g id="line2d_42">
      <g>
       <use xlink:href="#m8f8f00dba5" x="362.450281" y="395.28" style="stroke: #000000; stroke-width: 0.8"/>
      </g>
     </g>
     <g id="text_23">
      <!-- 3.5 -->
      <g transform="translate(354.498719 409.877656) scale(0.1 -0.1)">
       <use xlink:href="#DejaVuSans-16"/>
       <use xlink:href="#DejaVuSans-11" transform="translate(63.625 0)"/>
       <use xlink:href="#DejaVuSans-18" transform="translate(95.40625 0)"/>
      </g>
     </g>
    </g>
    <g id="xtick_27">
     <g id="line2d_43">
      <g>
       <use xlink:href="#m8f8f00dba5" x="404.913491" y="395.28" style="stroke: #000000; stroke-width: 0.8"/>
      </g>
     </g>
     <g id="text_24">
      <!-- 4.0 -->
      <g transform="translate(396.961929 409.877656) scale(0.1 -0.1)">
       <defs>
        <path id="DejaVuSans-17" d="M 2419 4116 
L 825 1625 
L 2419 1625 
L 2419 4116 
z
M 2253 4666 
L 3047 4666 
L 3047 1625 
L 3713 1625 
L 3713 1100 
L 3047 1100 
L 3047 0 
L 2419 0 
L 2419 1100 
L 313 1100 
L 313 1709 
L 2253 4666 
z
" transform="scale(0.015625)"/>
       </defs>
       <use xlink:href="#DejaVuSans-17"/>
       <use xlink:href="#DejaVuSans-11" transform="translate(63.625 0)"/>
       <use xlink:href="#DejaVuSans-13" transform="translate(95.40625 0)"/>
      </g>
     </g>
    </g>
    <g id="text_25">
     <!-- t  (s) -->
     <g transform="translate(226.543281 423.877656) scale(0.1 -0.1)">
      <use xlink:href="#DejaVuSans-57"/>
      <use xlink:href="#DejaVuSans-3" transform="translate(39.203125 0)"/>
      <use xlink:href="#DejaVuSans-3" transform="translate(70.984375 0)"/>
      <use xlink:href="#DejaVuSans-b" transform="translate(102.765625 0)"/>
      <use xlink:href="#DejaVuSans-56" transform="translate(141.78125 0)"/>
      <use xlink:href="#DejaVuSans-c" transform="translate(193.875 0)"/>
     </g>
    </g>
   </g>
   <g id="matplotlib.axis_6">
    <g id="ytick_11">
     <g id="line2d_44">
      <g>
       <use xlink:href="#mf8372e7b8a" x="65.207813" y="389.835556" style="stroke: #000000; stroke-width: 0.8"/>
      </g>
     </g>
     <g id="text_26">
      <!-- −10.50 -->
      <g transform="translate(21.2 393.634384) scale(0.1 -0.1)">
       <use xlink:href="#DejaVuSans-c9c"/>
       <use xlink:href="#DejaVuSans-14" transform="translate(83.796875 0)"/>
       <use xlink:href="#DejaVuSans-13" transform="translate(147.421875 0)"/>
       <use xlink:href="#DejaVuSans-11" transform="translate(211.046875 0)"/>
       <use xlink:href="#DejaVuSans-18" transform="translate(242.828125 0)"/>
       <use xlink:href="#DejaVuSans-13" transform="translate(306.453125 0)"/>
      </g>
     </g>
    </g>
    <g id="ytick_12">
     <g id="line2d_45">
      <g>
       <use xlink:href="#mf8372e7b8a" x="65.207813" y="362.613333" style="stroke: #000000; stroke-width: 0.8"/>
      </g>
     </g>
     <g id="text_27">
      <!-- −10.25 -->
      <g transform="translate(21.2 366.412161) scale(0.1 -0.1)">
       <use xlink:href="#DejaVuSans-c9c"/>
       <use xlink:href="#DejaVuSans-14" transform="translate(83.796875 0)"/>
       <use xlink:href="#DejaVuSans-13" transform="translate(147.421875 0)"/>
       <use xlink:href="#DejaVuSans-11" transform="translate(211.046875 0)"/>
       <use xlink:href="#DejaVuSans-15" transform="translate(242.828125 0)"/>
       <use xlink:href="#DejaVuSans-18" transform="translate(306.453125 0)"/>
      </g>
     </g>
    </g>
    <g id="ytick_13">
     <g id="line2d_46">
      <g>
       <use xlink:href="#mf8372e7b8a" x="65.207813" y="335.391111" style="stroke: #000000; stroke-width: 0.8"/>
      </g>
     </g>
     <g id="text_28">
      <!-- −10.00 -->
      <g transform="translate(21.2 339.189939) scale(0.1 -0.1)">
       <use xlink:href="#DejaVuSans-c9c"/>
       <use xlink:href="#DejaVuSans-14" transform="translate(83.796875 0)"/>
       <use xlink:href="#DejaVuSans-13" transform="translate(147.421875 0)"/>
       <use xlink:href="#DejaVuSans-11" transform="translate(211.046875 0)"/>
       <use xlink:href="#DejaVuSans-13" transform="translate(242.828125 0)"/>
       <use xlink:href="#DejaVuSans-13" transform="translate(306.453125 0)"/>
      </g>
     </g>
    </g>
    <g id="ytick_14">
     <g id="line2d_47">
      <g>
       <use xlink:href="#mf8372e7b8a" x="65.207813" y="308.168889" style="stroke: #000000; stroke-width: 0.8"/>
      </g>
     </g>
     <g id="text_29">
      <!-- −9.75 -->
      <g transform="translate(27.5625 311.967717) scale(0.1 -0.1)">
       <defs>
        <path id="DejaVuSans-1c" d="M 703 97 
L 703 672 
Q 941 559 1184 500 
Q 1428 441 1663 441 
Q 2288 441 2617 861 
Q 2947 1281 2994 2138 
Q 2813 1869 2534 1725 
Q 2256 1581 1919 1581 
Q 1219 1581 811 2004 
Q 403 2428 403 3163 
Q 403 3881 828 4315 
Q 1253 4750 1959 4750 
Q 2769 4750 3195 4129 
Q 3622 3509 3622 2328 
Q 3622 1225 3098 567 
Q 2575 -91 1691 -91 
Q 1453 -91 1209 -44 
Q 966 3 703 97 
z
M 1959 2075 
Q 2384 2075 2632 2365 
Q 2881 2656 2881 3163 
Q 2881 3666 2632 3958 
Q 2384 4250 1959 4250 
Q 1534 4250 1286 3958 
Q 1038 3666 1038 3163 
Q 1038 2656 1286 2365 
Q 1534 2075 1959 2075 
z
" transform="scale(0.015625)"/>
        <path id="DejaVuSans-1a" d="M 525 4666 
L 3525 4666 
L 3525 4397 
L 1831 0 
L 1172 0 
L 2766 4134 
L 525 4134 
L 525 4666 
z
" transform="scale(0.015625)"/>
       </defs>
       <use xlink:href="#DejaVuSans-c9c"/>
       <use xlink:href="#DejaVuSans-1c" transform="translate(83.796875 0)"/>
       <use xlink:href="#DejaVuSans-11" transform="translate(147.421875 0)"/>
       <use xlink:href="#DejaVuSans-1a" transform="translate(179.203125 0)"/>
       <use xlink:href="#DejaVuSans-18" transform="translate(242.828125 0)"/>
      </g>
     </g>
    </g>
    <g id="ytick_15">
     <g id="line2d_48">
      <g>
       <use xlink:href="#mf8372e7b8a" x="65.207813" y="280.946667" style="stroke: #000000; stroke-width: 0.8"/>
      </g>
     </g>
     <g id="text_30">
      <!-- −9.50 -->
      <g transform="translate(27.5625 284.745495) scale(0.1 -0.1)">
       <use xlink:href="#DejaVuSans-c9c"/>
       <use xlink:href="#DejaVuSans-1c" transform="translate(83.796875 0)"/>
       <use xlink:href="#DejaVuSans-11" transform="translate(147.421875 0)"/>
       <use xlink:href="#DejaVuSans-18" transform="translate(179.203125 0)"/>
       <use xlink:href="#DejaVuSans-13" transform="translate(242.828125 0)"/>
      </g>
     </g>
    </g>
    <g id="text_31">
     <!-- a  (m/s²) -->
     <g transform="translate(14.797656 356.698924) rotate(-90) scale(0.1 -0.1)">
      <defs>
       <path id="DejaVuSans-74" d="M 838 2444 
L 2163 2444 
L 2163 2088 
L 294 2088 
L 294 2431 
Q 400 2528 597 2703 
Q 1672 3656 1672 3950 
Q 1672 4156 1509 4282 
Q 1347 4409 1081 4409 
Q 919 4409 728 4354 
Q 538 4300 313 4191 
L 313 4575 
Q 553 4663 761 4706 
Q 969 4750 1147 4750 
Q 1600 4750 1872 4544 
Q 2144 4338 2144 4000 
Q 2144 3566 1109 2678 
Q 934 2528 838 2444 
z
" transform="scale(0.015625)"/>
      </defs>
      <use xlink:href="#DejaVuSans-44"/>
      <use xlink:href="#DejaVuSans-3" transform="translate(61.28125 0)"/>
      <use xlink:href="#DejaVuSans-3" transform="translate(93.0625 0)"/>
      <use xlink:href="#DejaVuSans-b" transform="translate(124.84375 0)"/>
      <use xlink:href="#DejaVuSans-50" transform="translate(163.859375 0)"/>
      <use xlink:href="#DejaVuSans-12" transform="translate(261.265625 0)"/>
      <use xlink:href="#DejaVuSans-56" transform="translate(294.953125 0)"/>
      <use xlink:href="#DejaVuSans-74" transform="translate(347.046875 0)"/>
      <use xlink:href="#DejaVuSans-c" transform="translate(387.140625 0)"/>
     </g>
    </g>
   </g>
   <g id="line2d_49">
    <path d="M 65.207813 335.391111 
L 411.167813 335.391111 
L 411.167813 335.391111 
" clip-path="url(#p05ecdc315b)" style="fill: none; stroke: #1f2933; stroke-width: 2; stroke-linecap: square"/>
   </g>
   <g id="line2d_50">
    <path d="M 235.060652 395.28 
L 235.060652 275.502222 
" clip-path="url(#p05ecdc315b)" style="fill: none; stroke-dasharray: 3.7,1.6; stroke-dashoffset: 0; stroke: #c9d6cf"/>
   </g>
   <g id="patch_9">
    <path d="M 65.207813 395.28 
L 65.207813 275.502222 
" style="fill: none; stroke: #000000; stroke-width: 0.8; stroke-linejoin: miter; stroke-linecap: square"/>
   </g>
   <g id="patch_10">
    <path d="M 65.207813 395.28 
L 411.167813 395.28 
" style="fill: none; stroke: #000000; stroke-width: 0.8; stroke-linejoin: miter; stroke-linecap: square"/>
   </g>
   <g id="text_32">
    <!-- a = -10 m/s²  (constant, never zero) -->
    <g style="fill: #2f6f4f" transform="translate(148.909188 327.391111) scale(0.08 -0.08)">
     <defs>
      <path id="DejaVuSans-10" d="M 313 2009 
L 1997 2009 
L 1997 1497 
L 313 1497 
L 313 2009 
z
" transform="scale(0.015625)"/>
      <path id="DejaVuSans-5d" d="M 353 3500 
L 3084 3500 
L 3084 2975 
L 922 459 
L 3084 459 
L 3084 0 
L 275 0 
L 275 525 
L 2438 3041 
L 353 3041 
L 353 3500 
z
" transform="scale(0.015625)"/>
     </defs>
     <use xlink:href="#DejaVuSans-44"/>
     <use xlink:href="#DejaVuSans-3" transform="translate(61.28125 0)"/>
     <use xlink:href="#DejaVuSans-20" transform="translate(93.0625 0)"/>
     <use xlink:href="#DejaVuSans-3" transform="translate(176.859375 0)"/>
     <use xlink:href="#DejaVuSans-10" transform="translate(208.640625 0)"/>
     <use xlink:href="#DejaVuSans-14" transform="translate(244.71875 0)"/>
     <use xlink:href="#DejaVuSans-13" transform="translate(308.34375 0)"/>
     <use xlink:href="#DejaVuSans-3" transform="translate(371.96875 0)"/>
     <use xlink:href="#DejaVuSans-50" transform="translate(403.75 0)"/>
     <use xlink:href="#DejaVuSans-12" transform="translate(501.15625 0)"/>
     <use xlink:href="#DejaVuSans-56" transform="translate(534.84375 0)"/>
     <use xlink:href="#DejaVuSans-74" transform="translate(586.9375 0)"/>
     <use xlink:href="#DejaVuSans-3" transform="translate(627.03125 0)"/>
     <use xlink:href="#DejaVuSans-3" transform="translate(658.8125 0)"/>
     <use xlink:href="#DejaVuSans-b" transform="translate(690.59375 0)"/>
     <use xlink:href="#DejaVuSans-46" transform="translate(729.609375 0)"/>
     <use xlink:href="#DejaVuSans-52" transform="translate(784.59375 0)"/>
     <use xlink:href="#DejaVuSans-51" transform="translate(845.78125 0)"/>
     <use xlink:href="#DejaVuSans-56" transform="translate(909.15625 0)"/>
     <use xlink:href="#DejaVuSans-57" transform="translate(961.25 0)"/>
     <use xlink:href="#DejaVuSans-44" transform="translate(1000.453125 0)"/>
     <use xlink:href="#DejaVuSans-51" transform="translate(1061.734375 0)"/>
     <use xlink:href="#DejaVuSans-57" transform="translate(1125.109375 0)"/>
     <use xlink:href="#DejaVuSans-f" transform="translate(1164.3125 0)"/>
     <use xlink:href="#DejaVuSans-3" transform="translate(1196.09375 0)"/>
     <use xlink:href="#DejaVuSans-51" transform="translate(1227.875 0)"/>
     <use xlink:href="#DejaVuSans-48" transform="translate(1291.25 0)"/>
     <use xlink:href="#DejaVuSans-59" transform="translate(1352.78125 0)"/>
     <use xlink:href="#DejaVuSans-48" transform="translate(1411.96875 0)"/>
     <use xlink:href="#DejaVuSans-55" transform="translate(1473.5 0)"/>
     <use xlink:href="#DejaVuSans-3" transform="translate(1514.609375 0)"/>
     <use xlink:href="#DejaVuSans-5d" transform="translate(1546.390625 0)"/>
     <use xlink:href="#DejaVuSans-48" transform="translate(1598.875 0)"/>
     <use xlink:href="#DejaVuSans-55" transform="translate(1660.40625 0)"/>
     <use xlink:href="#DejaVuSans-52" transform="translate(1699.3125 0)"/>
     <use xlink:href="#DejaVuSans-c" transform="translate(1760.5 0)"/>
    </g>
   </g>
  </g>
 </g>
 <defs>
  <clipPath id="p9602da07c1">
   <rect x="65.207813" y="7.2" width="345.96" height="119.777778"/>
  </clipPath>
  <clipPath id="p61843c5fc5">
   <rect x="65.207813" y="141.351111" width="345.96" height="119.777778"/>
  </clipPath>
  <clipPath id="p05ecdc315b">
   <rect x="65.207813" y="275.502222" width="345.96" height="119.777778"/>
  </clipPath>
 </defs>
</svg>
