<?xml version="1.0" encoding="utf-8" standalone="no"?>
<!DOCTYPE svg PUBLIC "-//W3C//DTD SVG 1.1//EN"
  "http://www.w3.org/Graphics/SVG/1.1/DTD/svg11.dtd">
<svg xmlns:xlink="http://www.w3.org/1999/xlink" width="409.40375pt" height="475.832pt" viewBox="0 0 409.40375 475.832" xmlns="http://www.w3.org/2000/svg" version="1.1">
 <metadata>
  <rdf:RDF xmlns:dc="http://purl.org/dc/elements/1.1/" xmlns:cc="http://creativecommons.org/ns#" xmlns:rdf="http://www.w3.org/1999/02/22-rdf-syntax-ns#">
   <cc:Work>
    <dc:type rdf:resource="http://purl.org/dc/dcmitype/StillImage"/>
    <dc:date>2026-06-26T12:06:18.650006</dc:date>
    <dc:format>image/svg+xml</dc:format>
    <dc:creator>
     <cc:Agent>
      <dc:title>Matplotlib v3.11.0, https://matplotlib.org/</dc:title>
     </cc:Agent>
    </dc:creator>
   </cc:Work>
  </rdf:RDF>
 </metadata>
 <defs>
  <style type="text/css">*{stroke-linejoin: round; stroke-linecap: butt}</style>
 </defs>
 <g id="figure_1">
  <g id="patch_1">
   <path d="M 0 475.832 
L 409.40375 475.832 
L 409.40375 0 
L 0 0 
z
" style="fill: #fbfaf7"/>
  </g>
  <g id="axes_1">
   <g id="patch_2">
    <path d="M 45.08375 137.450602 
L 402.20375 137.450602 
L 402.20375 7.2 
L 45.08375 7.2 
z
" style="fill: #fbfaf7"/>
   </g>
   <g id="matplotlib.axis_1">
    <g id="xtick_1">
     <g id="line2d_1">
      <defs>
       <path id="mbf0ed24d37" d="M 0 0 
L 0 3.5 
" style="stroke: #8a929b; stroke-width: 0.8"/>
      </defs>
      <g>
       <use xlink:href="#mbf0ed24d37" x="45.08375" y="137.450602" style="fill: #8a929b; stroke: #8a929b; stroke-width: 0.8"/>
      </g>
     </g>
    </g>
    <g id="xtick_2">
     <g id="line2d_2">
      <g>
       <use xlink:href="#mbf0ed24d37" x="88.916741" y="137.450602" style="fill: #8a929b; stroke: #8a929b; stroke-width: 0.8"/>
      </g>
     </g>
    </g>
    <g id="xtick_3">
     <g id="line2d_3">
      <g>
       <use xlink:href="#mbf0ed24d37" x="132.749732" y="137.450602" style="fill: #8a929b; stroke: #8a929b; stroke-width: 0.8"/>
      </g>
     </g>
    </g>
    <g id="xtick_4">
     <g id="line2d_4">
      <g>
       <use xlink:href="#mbf0ed24d37" x="176.582722" y="137.450602" style="fill: #8a929b; stroke: #8a929b; stroke-width: 0.8"/>
      </g>
     </g>
    </g>
    <g id="xtick_5">
     <g id="line2d_5">
      <g>
       <use xlink:href="#mbf0ed24d37" x="220.415713" y="137.450602" style="fill: #8a929b; stroke: #8a929b; stroke-width: 0.8"/>
      </g>
     </g>
    </g>
    <g id="xtick_6">
     <g id="line2d_6">
      <g>
       <use xlink:href="#mbf0ed24d37" x="264.248704" y="137.450602" style="fill: #8a929b; stroke: #8a929b; stroke-width: 0.8"/>
      </g>
     </g>
    </g>
    <g id="xtick_7">
     <g id="line2d_7">
      <g>
       <use xlink:href="#mbf0ed24d37" x="308.081695" y="137.450602" style="fill: #8a929b; stroke: #8a929b; stroke-width: 0.8"/>
      </g>
     </g>
    </g>
    <g id="xtick_8">
     <g id="line2d_8">
      <g>
       <use xlink:href="#mbf0ed24d37" x="351.914686" y="137.450602" style="fill: #8a929b; stroke: #8a929b; stroke-width: 0.8"/>
      </g>
     </g>
    </g>
    <g id="xtick_9">
     <g id="line2d_9">
      <g>
       <use xlink:href="#mbf0ed24d37" x="395.747676" y="137.450602" style="fill: #8a929b; stroke: #8a929b; stroke-width: 0.8"/>
      </g>
     </g>
    </g>
   </g>
   <g id="matplotlib.axis_2">
    <g id="ytick_1">
     <g id="line2d_10">
      <defs>
       <path id="me8ee10e535" d="M 0 0 
L -3.5 0 
" style="stroke: #8a929b; stroke-width: 0.8"/>
      </defs>
      <g>
       <use xlink:href="#me8ee10e535" x="45.08375" y="124.639068" style="fill: #8a929b; stroke: #8a929b; stroke-width: 0.8"/>
      </g>
     </g>
     <g id="text_1">
      <!-- 0 -->
      <g style="fill: #8a929b" transform="translate(32.99375 127.67813) scale(0.08 -0.08)">
       <defs>
        <path id="DejaVuSans-13" d="M 2034 4250 
Q 1547 4250 1301 3770 
Q 1056 3291 1056 2328 
Q 1056 1369 1301 889 
Q 1547 409 2034 409 
Q 2525 409 2770 889 
Q 3016 1369 3016 2328 
Q 3016 3291 2770 3770 
Q 2525 4250 2034 4250 
z
M 2034 4750 
Q 2819 4750 3233 4129 
Q 3647 3509 3647 2328 
Q 3647 1150 3233 529 
Q 2819 -91 2034 -91 
Q 1250 -91 836 529 
Q 422 1150 422 2328 
Q 422 3509 836 4129 
Q 1250 4750 2034 4750 
z
" transform="scale(0.015625)"/>
       </defs>
       <use xlink:href="#DejaVuSans-13"/>
      </g>
     </g>
    </g>
    <g id="ytick_2">
     <g id="line2d_11">
      <g>
       <use xlink:href="#me8ee10e535" x="45.08375" y="99.810512" style="fill: #8a929b; stroke: #8a929b; stroke-width: 0.8"/>
      </g>
     </g>
     <g id="text_2">
      <!-- 5 -->
      <g style="fill: #8a929b" transform="translate(32.99375 102.849575) scale(0.08 -0.08)">
       <defs>
        <path id="DejaVuSans-18" d="M 691 4666 
L 3169 4666 
L 3169 4134 
L 1269 4134 
L 1269 2991 
Q 1406 3038 1543 3061 
Q 1681 3084 1819 3084 
Q 2600 3084 3056 2656 
Q 3513 2228 3513 1497 
Q 3513 744 3044 326 
Q 2575 -91 1722 -91 
Q 1428 -91 1123 -41 
Q 819 9 494 109 
L 494 744 
Q 775 591 1075 516 
Q 1375 441 1709 441 
Q 2250 441 2565 725 
Q 2881 1009 2881 1497 
Q 2881 1984 2565 2268 
Q 2250 2553 1709 2553 
Q 1456 2553 1204 2497 
Q 953 2441 691 2322 
L 691 4666 
z
" transform="scale(0.015625)"/>
       </defs>
       <use xlink:href="#DejaVuSans-18"/>
      </g>
     </g>
    </g>
    <g id="ytick_3">
     <g id="line2d_12">
      <g>
       <use xlink:href="#me8ee10e535" x="45.08375" y="74.981957" style="fill: #8a929b; stroke: #8a929b; stroke-width: 0.8"/>
      </g>
     </g>
     <g id="text_3">
      <!-- 10 -->
      <g style="fill: #8a929b" transform="translate(27.90375 78.021019) scale(0.08 -0.08)">
       <defs>
        <path id="DejaVuSans-14" d="M 794 531 
L 1825 531 
L 1825 4091 
L 703 3866 
L 703 4441 
L 1819 4666 
L 2450 4666 
L 2450 531 
L 3481 531 
L 3481 0 
L 794 0 
L 794 531 
z
" transform="scale(0.015625)"/>
       </defs>
       <use xlink:href="#DejaVuSans-14"/>
       <use xlink:href="#DejaVuSans-13" transform="translate(63.625 0)"/>
      </g>
     </g>
    </g>
    <g id="ytick_4">
     <g id="line2d_13">
      <g>
       <use xlink:href="#me8ee10e535" x="45.08375" y="50.153401" style="fill: #8a929b; stroke: #8a929b; stroke-width: 0.8"/>
      </g>
     </g>
     <g id="text_4">
      <!-- 15 -->
      <g style="fill: #8a929b" transform="translate(27.90375 53.192464) scale(0.08 -0.08)">
       <use xlink:href="#DejaVuSans-14"/>
       <use xlink:href="#DejaVuSans-18" transform="translate(63.625 0)"/>
      </g>
     </g>
    </g>
    <g id="ytick_5">
     <g id="line2d_14">
      <g>
       <use xlink:href="#me8ee10e535" x="45.08375" y="25.324846" style="fill: #8a929b; stroke: #8a929b; stroke-width: 0.8"/>
      </g>
     </g>
     <g id="text_5">
      <!-- 20 -->
      <g style="fill: #8a929b" transform="translate(27.90375 28.363908) scale(0.08 -0.08)">
       <defs>
        <path id="DejaVuSans-15" d="M 1228 531 
L 3431 531 
L 3431 0 
L 469 0 
L 469 531 
Q 828 903 1448 1529 
Q 2069 2156 2228 2338 
Q 2531 2678 2651 2914 
Q 2772 3150 2772 3378 
Q 2772 3750 2511 3984 
Q 2250 4219 1831 4219 
Q 1534 4219 1204 4116 
Q 875 4013 500 3803 
L 500 4441 
Q 881 4594 1212 4672 
Q 1544 4750 1819 4750 
Q 2544 4750 2975 4387 
Q 3406 4025 3406 3419 
Q 3406 3131 3298 2873 
Q 3191 2616 2906 2266 
Q 2828 2175 2409 1742 
Q 1991 1309 1228 531 
z
" transform="scale(0.015625)"/>
       </defs>
       <use xlink:href="#DejaVuSans-15"/>
       <use xlink:href="#DejaVuSans-13" transform="translate(63.625 0)"/>
      </g>
     </g>
    </g>
    <g id="text_6">
     <!-- x  (m) -->
     <g style="fill: #1f2933" transform="translate(21.501406 87.234676) rotate(-90) scale(0.1 -0.1)">
      <defs>
       <path id="DejaVuSans-5b" d="M 3513 3500 
L 2247 1797 
L 3578 0 
L 2900 0 
L 1881 1375 
L 863 0 
L 184 0 
L 1544 1831 
L 300 3500 
L 978 3500 
L 1906 2253 
L 2834 3500 
L 3513 3500 
z
" transform="scale(0.015625)"/>
       <path id="DejaVuSans-3" transform="scale(0.015625)"/>
       <path id="DejaVuSans-b" d="M 1984 4856 
Q 1566 4138 1362 3434 
Q 1159 2731 1159 2009 
Q 1159 1288 1364 580 
Q 1569 -128 1984 -844 
L 1484 -844 
Q 1016 -109 783 600 
Q 550 1309 550 2009 
Q 550 2706 781 3412 
Q 1013 4119 1484 4856 
L 1984 4856 
z
" transform="scale(0.015625)"/>
       <path id="DejaVuSans-50" d="M 3328 2828 
Q 3544 3216 3844 3400 
Q 4144 3584 4550 3584 
Q 5097 3584 5394 3201 
Q 5691 2819 5691 2113 
L 5691 0 
L 5113 0 
L 5113 2094 
Q 5113 2597 4934 2840 
Q 4756 3084 4391 3084 
Q 3944 3084 3684 2787 
Q 3425 2491 3425 1978 
L 3425 0 
L 2847 0 
L 2847 2094 
Q 2847 2600 2669 2842 
Q 2491 3084 2119 3084 
Q 1678 3084 1418 2786 
Q 1159 2488 1159 1978 
L 1159 0 
L 581 0 
L 581 3500 
L 1159 3500 
L 1159 2956 
Q 1356 3278 1631 3431 
Q 1906 3584 2284 3584 
Q 2666 3584 2933 3390 
Q 3200 3197 3328 2828 
z
" transform="scale(0.015625)"/>
       <path id="DejaVuSans-c" d="M 513 4856 
L 1013 4856 
Q 1481 4119 1714 3412 
Q 1947 2706 1947 2009 
Q 1947 1309 1714 600 
Q 1481 -109 1013 -844 
L 513 -844 
Q 928 -128 1133 580 
Q 1338 1288 1338 2009 
Q 1338 2731 1133 3434 
Q 928 4138 513 4856 
z
" transform="scale(0.015625)"/>
      </defs>
      <use xlink:href="#DejaVuSans-5b"/>
      <use xlink:href="#DejaVuSans-3" transform="translate(59.1875 0)"/>
      <use xlink:href="#DejaVuSans-3" transform="translate(90.96875 0)"/>
      <use xlink:href="#DejaVuSans-b" transform="translate(122.75 0)"/>
      <use xlink:href="#DejaVuSans-50" transform="translate(161.765625 0)"/>
      <use xlink:href="#DejaVuSans-c" transform="translate(259.171875 0)"/>
     </g>
    </g>
   </g>
   <g id="line2d_15">
    <path d="M 220.415713 137.450602 
L 220.415713 7.2 
" clip-path="url(#p8e179117ed)" style="fill: none; stroke-dasharray: 3.7,1.6; stroke-dashoffset: 0; stroke: #8a929b; stroke-opacity: 0.7"/>
   </g>
   <g id="line2d_16">
    <path d="M 45.08375 124.639068 
L 402.20375 124.639068 
" clip-path="url(#p8e179117ed)" style="fill: none; stroke: #d8d4c8; stroke-linecap: square"/>
   </g>
   <g id="line2d_17">
    <path d="M 45.08375 117.190501 
L 52.55488 108.907005 
L 60.026009 100.984163 
L 67.497139 93.421976 
L 74.968269 86.220444 
L 82.439399 79.379567 
L 89.910528 72.899345 
L 97.381658 66.779778 
L 103.358562 62.143795 
L 109.335465 57.738632 
L 115.312369 53.564288 
L 121.289273 49.620763 
L 127.266177 45.908057 
L 133.243081 42.42617 
L 139.219984 39.175103 
L 145.196888 36.154854 
L 151.173792 33.365425 
L 157.150696 30.806815 
L 163.127599 28.479024 
L 169.104503 26.382051 
L 175.081407 24.515899 
L 181.058311 22.880565 
L 187.035214 21.47605 
L 193.012118 20.302355 
L 198.989022 19.359478 
L 204.965926 18.647421 
L 210.942829 18.166183 
L 216.919733 17.915763 
L 222.896637 17.896163 
L 228.873541 18.107383 
L 234.850445 18.549421 
L 240.827348 19.222278 
L 246.804252 20.125955 
L 252.781156 21.26045 
L 258.75806 22.625765 
L 264.734963 24.221899 
L 270.711867 26.048852 
L 276.688771 28.106624 
L 282.665675 30.395215 
L 288.642578 32.914625 
L 294.619482 35.664855 
L 300.596386 38.645903 
L 306.57329 41.857771 
L 312.550194 45.300458 
L 318.527097 48.973964 
L 324.504001 52.878289 
L 330.480905 57.013433 
L 336.457809 61.379396 
L 342.434712 65.976179 
L 348.411616 70.80378 
L 355.882746 77.162871 
L 363.353876 83.882617 
L 370.825005 90.963018 
L 378.296135 98.404074 
L 385.767265 106.205785 
L 393.238394 114.368151 
L 400.709524 122.891171 
L 402.20375 124.639054 
L 402.20375 124.639054 
" clip-path="url(#p8e179117ed)" style="fill: none; stroke: #1f2933; stroke-width: 2.2; stroke-linecap: square"/>
   </g>
   <g id="patch_3">
    <path d="M 45.08375 137.450602 
L 45.08375 7.2 
" style="fill: none; stroke: #d8d4c8; stroke-width: 0.8; stroke-linejoin: miter; stroke-linecap: square"/>
   </g>
   <g id="patch_4">
    <path d="M 45.08375 137.450602 
L 402.20375 137.450602 
" style="fill: none; stroke: #d8d4c8; stroke-width: 0.8; stroke-linejoin: miter; stroke-linecap: square"/>
   </g>
   <g id="text_7">
    <g id="patch_5">
     <path d="M 171.151573 42.756279 
L 269.679854 42.756279 
Q 272.059854 42.756279 272.059854 40.376279 
L 272.059854 31.876279 
Q 272.059854 29.496279 269.679854 29.496279 
L 171.151573 29.496279 
Q 168.771573 29.496279 168.771573 31.876279 
L 168.771573 40.376279 
Q 168.771573 42.756279 171.151573 42.756279 
z
" style="fill: #fbfaf7; opacity: 0.92; stroke: #d8d4c8; stroke-width: 0.6; stroke-linejoin: miter"/>
    </g>
    <!-- apex: 21.5 m at t = 2 s -->
    <g style="fill: #2f6f4f" transform="translate(171.151573 38.334287) scale(0.085 -0.085)">
     <defs>
      <path id="DejaVuSans-44" d="M 2194 1759 
Q 1497 1759 1228 1600 
Q 959 1441 959 1056 
Q 959 750 1161 570 
Q 1363 391 1709 391 
Q 2188 391 2477 730 
Q 2766 1069 2766 1631 
L 2766 1759 
L 2194 1759 
z
M 3341 1997 
L 3341 0 
L 2766 0 
L 2766 531 
Q 2569 213 2275 61 
Q 1981 -91 1556 -91 
Q 1019 -91 701 211 
Q 384 513 384 1019 
Q 384 1609 779 1909 
Q 1175 2209 1959 2209 
L 2766 2209 
L 2766 2266 
Q 2766 2663 2505 2880 
Q 2244 3097 1772 3097 
Q 1472 3097 1187 3025 
Q 903 2953 641 2809 
L 641 3341 
Q 956 3463 1253 3523 
Q 1550 3584 1831 3584 
Q 2591 3584 2966 3190 
Q 3341 2797 3341 1997 
z
" transform="scale(0.015625)"/>
      <path id="DejaVuSans-53" d="M 1159 525 
L 1159 -1331 
L 581 -1331 
L 581 3500 
L 1159 3500 
L 1159 2969 
Q 1341 3281 1617 3432 
Q 1894 3584 2278 3584 
Q 2916 3584 3314 3078 
Q 3713 2572 3713 1747 
Q 3713 922 3314 415 
Q 2916 -91 2278 -91 
Q 1894 -91 1617 61 
Q 1341 213 1159 525 
z
M 3116 1747 
Q 3116 2381 2855 2742 
Q 2594 3103 2138 3103 
Q 1681 3103 1420 2742 
Q 1159 2381 1159 1747 
Q 1159 1113 1420 752 
Q 1681 391 2138 391 
Q 2594 391 2855 752 
Q 3116 1113 3116 1747 
z
" transform="scale(0.015625)"/>
      <path id="DejaVuSans-48" d="M 3597 1894 
L 3597 1613 
L 953 1613 
Q 991 1019 1311 708 
Q 1631 397 2203 397 
Q 2534 397 2845 478 
Q 3156 559 3463 722 
L 3463 178 
Q 3153 47 2828 -22 
Q 2503 -91 2169 -91 
Q 1331 -91 842 396 
Q 353 884 353 1716 
Q 353 2575 817 3079 
Q 1281 3584 2069 3584 
Q 2775 3584 3186 3129 
Q 3597 2675 3597 1894 
z
M 3022 2063 
Q 3016 2534 2758 2815 
Q 2500 3097 2075 3097 
Q 1594 3097 1305 2825 
Q 1016 2553 972 2059 
L 3022 2063 
z
" transform="scale(0.015625)"/>
      <path id="DejaVuSans-1d" d="M 750 794 
L 1409 794 
L 1409 0 
L 750 0 
L 750 794 
z
M 750 3309 
L 1409 3309 
L 1409 2516 
L 750 2516 
L 750 3309 
z
" transform="scale(0.015625)"/>
      <path id="DejaVuSans-11" d="M 684 794 
L 1344 794 
L 1344 0 
L 684 0 
L 684 794 
z
" transform="scale(0.015625)"/>
      <path id="DejaVuSans-57" d="M 1172 4494 
L 1172 3500 
L 2356 3500 
L 2356 3053 
L 1172 3053 
L 1172 1153 
Q 1172 725 1289 603 
Q 1406 481 1766 481 
L 2356 481 
L 2356 0 
L 1766 0 
Q 1100 0 847 248 
Q 594 497 594 1153 
L 594 3053 
L 172 3053 
L 172 3500 
L 594 3500 
L 594 4494 
L 1172 4494 
z
" transform="scale(0.015625)"/>
      <path id="DejaVuSans-20" d="M 678 2906 
L 4684 2906 
L 4684 2381 
L 678 2381 
L 678 2906 
z
M 678 1631 
L 4684 1631 
L 4684 1100 
L 678 1100 
L 678 1631 
z
" transform="scale(0.015625)"/>
      <path id="DejaVuSans-56" d="M 2834 3397 
L 2834 2853 
Q 2591 2978 2328 3040 
Q 2066 3103 1784 3103 
Q 1356 3103 1142 2972 
Q 928 2841 928 2578 
Q 928 2378 1081 2264 
Q 1234 2150 1697 2047 
L 1894 2003 
Q 2506 1872 2764 1633 
Q 3022 1394 3022 966 
Q 3022 478 2636 193 
Q 2250 -91 1575 -91 
Q 1294 -91 989 -36 
Q 684 19 347 128 
L 347 722 
Q 666 556 975 473 
Q 1284 391 1588 391 
Q 1994 391 2212 530 
Q 2431 669 2431 922 
Q 2431 1156 2273 1281 
Q 2116 1406 1581 1522 
L 1381 1569 
Q 847 1681 609 1914 
Q 372 2147 372 2553 
Q 372 3047 722 3315 
Q 1072 3584 1716 3584 
Q 2034 3584 2315 3537 
Q 2597 3491 2834 3397 
z
" transform="scale(0.015625)"/>
     </defs>
     <use xlink:href="#DejaVuSans-44"/>
     <use xlink:href="#DejaVuSans-53" transform="translate(61.28125 0)"/>
     <use xlink:href="#DejaVuSans-48" transform="translate(124.765625 0)"/>
     <use xlink:href="#DejaVuSans-5b" transform="translate(184.546875 0)"/>
     <use xlink:href="#DejaVuSans-1d" transform="translate(243.734375 0)"/>
     <use xlink:href="#DejaVuSans-3" transform="translate(277.421875 0)"/>
     <use xlink:href="#DejaVuSans-15" transform="translate(309.203125 0)"/>
     <use xlink:href="#DejaVuSans-14" transform="translate(372.828125 0)"/>
     <use xlink:href="#DejaVuSans-11" transform="translate(436.453125 0)"/>
     <use xlink:href="#DejaVuSans-18" transform="translate(468.234375 0)"/>
     <use xlink:href="#DejaVuSans-3" transform="translate(531.859375 0)"/>
     <use xlink:href="#DejaVuSans-50" transform="translate(563.640625 0)"/>
     <use xlink:href="#DejaVuSans-3" transform="translate(661.046875 0)"/>
     <use xlink:href="#DejaVuSans-44" transform="translate(692.828125 0)"/>
     <use xlink:href="#DejaVuSans-57" transform="translate(754.109375 0)"/>
     <use xlink:href="#DejaVuSans-3" transform="translate(793.3125 0)"/>
     <use xlink:href="#DejaVuSans-57" transform="translate(825.09375 0)"/>
     <use xlink:href="#DejaVuSans-3" transform="translate(864.296875 0)"/>
     <use xlink:href="#DejaVuSans-20" transform="translate(896.078125 0)"/>
     <use xlink:href="#DejaVuSans-3" transform="translate(979.875 0)"/>
     <use xlink:href="#DejaVuSans-15" transform="translate(1011.65625 0)"/>
     <use xlink:href="#DejaVuSans-3" transform="translate(1075.28125 0)"/>
     <use xlink:href="#DejaVuSans-56" transform="translate(1107.0625 0)"/>
    </g>
   </g>
   <g id="PathCollection_1">
    <defs>
     <path id="mf4040a92d3" d="M 0 3 
C 0.795609 3 1.55874 2.683901 2.12132 2.12132 
C 2.683901 1.55874 3 0.795609 3 0 
C 3 -0.795609 2.683901 -1.55874 2.12132 -2.12132 
C 1.55874 -2.683901 0.795609 -3 0 -3 
C -0.795609 -3 -1.55874 -2.683901 -2.12132 -2.12132 
C -2.683901 -1.55874 -3 -0.795609 -3 0 
C -3 0.795609 -2.683901 1.55874 -2.12132 2.12132 
C -1.55874 2.683901 -0.795609 3 0 3 
z
" style="stroke: #2f6f4f"/>
    </defs>
    <g clip-path="url(#p8e179117ed)">
     <use xlink:href="#mf4040a92d3" x="220.415713" y="17.876279" style="fill: #2f6f4f; stroke: #2f6f4f"/>
    </g>
   </g>
  </g>
  <g id="axes_2">
   <g id="patch_6">
    <path d="M 45.08375 288.541301 
L 402.20375 288.541301 
L 402.20375 158.290699 
L 45.08375 158.290699 
z
" style="fill: #fbfaf7"/>
   </g>
   <g id="FillBetweenPolyCollection_1">
    <defs>
     <path id="mbdadee91d5" d="M 45.08375 -249.450795 
L 45.08375 -296.471351 
L 46.577976 -296.070629 
L 48.072202 -295.669907 
L 49.566428 -295.269186 
L 51.060654 -294.868464 
L 52.55488 -294.467742 
L 54.049106 -294.06702 
L 55.543332 -293.666298 
L 57.037558 -293.265577 
L 58.531783 -292.864855 
L 60.026009 -292.464133 
L 61.520235 -292.063411 
L 63.014461 -291.66269 
L 64.508687 -291.261968 
L 66.002913 -290.861246 
L 67.497139 -290.460524 
L 68.991365 -290.059803 
L 70.485591 -289.659081 
L 71.979817 -289.258359 
L 73.474043 -288.857637 
L 74.968269 -288.456916 
L 76.462495 -288.056194 
L 77.956721 -287.655472 
L 79.450947 -287.25475 
L 80.945173 -286.854028 
L 82.439399 -286.453307 
L 83.933624 -286.052585 
L 85.42785 -285.651863 
L 86.922076 -285.251141 
L 88.416302 -284.85042 
L 89.910528 -284.449698 
L 91.404754 -284.048976 
L 92.89898 -283.648254 
L 94.393206 -283.247533 
L 95.887432 -282.846811 
L 97.381658 -282.446089 
L 98.875884 -282.045367 
L 100.37011 -281.644646 
L 101.864336 -281.243924 
L 103.358562 -280.843202 
L 104.852788 -280.44248 
L 106.347014 -280.041758 
L 107.84124 -279.641037 
L 109.335465 -279.240315 
L 110.829691 -278.839593 
L 112.323917 -278.438871 
L 113.818143 -278.03815 
L 115.312369 -277.637428 
L 116.806595 -277.236706 
L 118.300821 -276.835984 
L 119.795047 -276.435263 
L 121.289273 -276.034541 
L 122.783499 -275.633819 
L 124.277725 -275.233097 
L 125.771951 -274.832376 
L 127.266177 -274.431654 
L 128.760403 -274.030932 
L 130.254629 -273.63021 
L 131.748855 -273.229488 
L 133.243081 -272.828767 
L 134.737306 -272.428045 
L 136.231532 -272.027323 
L 137.725758 -271.626601 
L 139.219984 -271.22588 
L 140.71421 -270.825158 
L 142.208436 -270.424436 
L 143.702662 -270.023714 
L 145.196888 -269.622993 
L 146.691114 -269.222271 
L 148.18534 -268.821549 
L 149.679566 -268.420827 
L 151.173792 -268.020106 
L 152.668018 -267.619384 
L 154.162244 -267.218662 
L 155.65647 -266.81794 
L 157.150696 -266.417218 
L 158.644922 -266.016497 
L 160.139147 -265.615775 
L 161.633373 -265.215053 
L 163.127599 -264.814331 
L 164.621825 -264.41361 
L 166.116051 -264.012888 
L 167.610277 -263.612166 
L 169.104503 -263.211444 
L 170.598729 -262.810723 
L 172.092955 -262.410001 
L 173.587181 -262.009279 
L 175.081407 -261.608557 
L 176.575633 -261.207836 
L 178.069859 -260.807114 
L 179.564085 -260.406392 
L 181.058311 -260.00567 
L 182.552537 -259.604948 
L 184.046763 -259.204227 
L 185.540988 -258.803505 
L 187.035214 -258.402783 
L 188.52944 -258.002061 
L 190.023666 -257.60134 
L 191.517892 -257.200618 
L 193.012118 -256.799896 
L 194.506344 -256.399174 
L 196.00057 -255.998453 
L 197.494796 -255.597731 
L 198.989022 -255.197009 
L 200.483248 -254.796287 
L 201.977474 -254.395566 
L 203.4717 -253.994844 
L 204.965926 -253.594122 
L 206.460152 -253.1934 
L 207.954378 -252.792678 
L 209.448604 -252.391957 
L 210.942829 -251.991235 
L 212.437055 -251.590513 
L 213.931281 -251.189791 
L 215.425507 -250.78907 
L 216.919733 -250.388348 
L 218.413959 -249.987626 
L 219.908185 -249.586904 
L 219.908185 -249.450795 
L 219.908185 -249.450795 
L 218.413959 -249.450795 
L 216.919733 -249.450795 
L 215.425507 -249.450795 
L 213.931281 -249.450795 
L 212.437055 -249.450795 
L 210.942829 -249.450795 
L 209.448604 -249.450795 
L 207.954378 -249.450795 
L 206.460152 -249.450795 
L 204.965926 -249.450795 
L 203.4717 -249.450795 
L 201.977474 -249.450795 
L 200.483248 -249.450795 
L 198.989022 -249.450795 
L 197.494796 -249.450795 
L 196.00057 -249.450795 
L 194.506344 -249.450795 
L 193.012118 -249.450795 
L 191.517892 -249.450795 
L 190.023666 -249.450795 
L 188.52944 -249.450795 
L 187.035214 -249.450795 
L 185.540988 -249.450795 
L 184.046763 -249.450795 
L 182.552537 -249.450795 
L 181.058311 -249.450795 
L 179.564085 -249.450795 
L 178.069859 -249.450795 
L 176.575633 -249.450795 
L 175.081407 -249.450795 
L 173.587181 -249.450795 
L 172.092955 -249.450795 
L 170.598729 -249.450795 
L 169.104503 -249.450795 
L 167.610277 -249.450795 
L 166.116051 -249.450795 
L 164.621825 -249.450795 
L 163.127599 -249.450795 
L 161.633373 -249.450795 
L 160.139147 -249.450795 
L 158.644922 -249.450795 
L 157.150696 -249.450795 
L 155.65647 -249.450795 
L 154.162244 -249.450795 
L 152.668018 -249.450795 
L 151.173792 -249.450795 
L 149.679566 -249.450795 
L 148.18534 -249.450795 
L 146.691114 -249.450795 
L 145.196888 -249.450795 
L 143.702662 -249.450795 
L 142.208436 -249.450795 
L 140.71421 -249.450795 
L 139.219984 -249.450795 
L 137.725758 -249.450795 
L 136.231532 -249.450795 
L 134.737306 -249.450795 
L 133.243081 -249.450795 
L 131.748855 -249.450795 
L 130.254629 -249.450795 
L 128.760403 -249.450795 
L 127.266177 -249.450795 
L 125.771951 -249.450795 
L 124.277725 -249.450795 
L 122.783499 -249.450795 
L 121.289273 -249.450795 
L 119.795047 -249.450795 
L 118.300821 -249.450795 
L 116.806595 -249.450795 
L 115.312369 -249.450795 
L 113.818143 -249.450795 
L 112.323917 -249.450795 
L 110.829691 -249.450795 
L 109.335465 -249.450795 
L 107.84124 -249.450795 
L 106.347014 -249.450795 
L 104.852788 -249.450795 
L 103.358562 -249.450795 
L 101.864336 -249.450795 
L 100.37011 -249.450795 
L 98.875884 -249.450795 
L 97.381658 -249.450795 
L 95.887432 -249.450795 
L 94.393206 -249.450795 
L 92.89898 -249.450795 
L 91.404754 -249.450795 
L 89.910528 -249.450795 
L 88.416302 -249.450795 
L 86.922076 -249.450795 
L 85.42785 -249.450795 
L 83.933624 -249.450795 
L 82.439399 -249.450795 
L 80.945173 -249.450795 
L 79.450947 -249.450795 
L 77.956721 -249.450795 
L 76.462495 -249.450795 
L 74.968269 -249.450795 
L 73.474043 -249.450795 
L 71.979817 -249.450795 
L 70.485591 -249.450795 
L 68.991365 -249.450795 
L 67.497139 -249.450795 
L 66.002913 -249.450795 
L 64.508687 -249.450795 
L 63.014461 -249.450795 
L 61.520235 -249.450795 
L 60.026009 -249.450795 
L 58.531783 -249.450795 
L 57.037558 -249.450795 
L 55.543332 -249.450795 
L 54.049106 -249.450795 
L 52.55488 -249.450795 
L 51.060654 -249.450795 
L 49.566428 -249.450795 
L 48.072202 -249.450795 
L 46.577976 -249.450795 
L 45.08375 -249.450795 
z
"/>
    </defs>
    <g clip-path="url(#p09e612e069)">
     <use xlink:href="#mbdadee91d5" x="0" y="475.832" style="fill: #2f6f4f; fill-opacity: 0.16"/>
    </g>
   </g>
   <g id="matplotlib.axis_3">
    <g id="xtick_10">
     <g id="line2d_18">
      <g>
       <use xlink:href="#mbf0ed24d37" x="45.08375" y="288.541301" style="fill: #8a929b; stroke: #8a929b; stroke-width: 0.8"/>
      </g>
     </g>
    </g>
    <g id="xtick_11">
     <g id="line2d_19">
      <g>
       <use xlink:href="#mbf0ed24d37" x="88.916741" y="288.541301" style="fill: #8a929b; stroke: #8a929b; stroke-width: 0.8"/>
      </g>
     </g>
    </g>
    <g id="xtick_12">
     <g id="line2d_20">
      <g>
       <use xlink:href="#mbf0ed24d37" x="132.749732" y="288.541301" style="fill: #8a929b; stroke: #8a929b; stroke-width: 0.8"/>
      </g>
     </g>
    </g>
    <g id="xtick_13">
     <g id="line2d_21">
      <g>
       <use xlink:href="#mbf0ed24d37" x="176.582722" y="288.541301" style="fill: #8a929b; stroke: #8a929b; stroke-width: 0.8"/>
      </g>
     </g>
    </g>
    <g id="xtick_14">
     <g id="line2d_22">
      <g>
       <use xlink:href="#mbf0ed24d37" x="220.415713" y="288.541301" style="fill: #8a929b; stroke: #8a929b; stroke-width: 0.8"/>
      </g>
     </g>
    </g>
    <g id="xtick_15">
     <g id="line2d_23">
      <g>
       <use xlink:href="#mbf0ed24d37" x="264.248704" y="288.541301" style="fill: #8a929b; stroke: #8a929b; stroke-width: 0.8"/>
      </g>
     </g>
    </g>
    <g id="xtick_16">
     <g id="line2d_24">
      <g>
       <use xlink:href="#mbf0ed24d37" x="308.081695" y="288.541301" style="fill: #8a929b; stroke: #8a929b; stroke-width: 0.8"/>
      </g>
     </g>
    </g>
    <g id="xtick_17">
     <g id="line2d_25">
      <g>
       <use xlink:href="#mbf0ed24d37" x="351.914686" y="288.541301" style="fill: #8a929b; stroke: #8a929b; stroke-width: 0.8"/>
      </g>
     </g>
    </g>
    <g id="xtick_18">
     <g id="line2d_26">
      <g>
       <use xlink:href="#mbf0ed24d37" x="395.747676" y="288.541301" style="fill: #8a929b; stroke: #8a929b; stroke-width: 0.8"/>
      </g>
     </g>
    </g>
   </g>
   <g id="matplotlib.axis_4">
    <g id="ytick_6">
     <g id="line2d_27">
      <g>
       <use xlink:href="#me8ee10e535" x="45.08375" y="273.40176" style="fill: #8a929b; stroke: #8a929b; stroke-width: 0.8"/>
      </g>
     </g>
     <g id="text_8">
      <!-- −20 -->
      <g style="fill: #8a929b" transform="translate(21.2 276.440823) scale(0.08 -0.08)">
       <defs>
        <path id="DejaVuSans-c9c" d="M 678 2272 
L 4684 2272 
L 4684 1741 
L 678 1741 
L 678 2272 
z
" transform="scale(0.015625)"/>
       </defs>
       <use xlink:href="#DejaVuSans-c9c"/>
       <use xlink:href="#DejaVuSans-15" transform="translate(83.796875 0)"/>
       <use xlink:href="#DejaVuSans-13" transform="translate(147.421875 0)"/>
      </g>
     </g>
    </g>
    <g id="ytick_7">
     <g id="line2d_28">
      <g>
       <use xlink:href="#me8ee10e535" x="45.08375" y="249.891482" style="fill: #8a929b; stroke: #8a929b; stroke-width: 0.8"/>
      </g>
     </g>
     <g id="text_9">
      <!-- −10 -->
      <g style="fill: #8a929b" transform="translate(21.2 252.930545) scale(0.08 -0.08)">
       <use xlink:href="#DejaVuSans-c9c"/>
       <use xlink:href="#DejaVuSans-14" transform="translate(83.796875 0)"/>
       <use xlink:href="#DejaVuSans-13" transform="translate(147.421875 0)"/>
      </g>
     </g>
    </g>
    <g id="ytick_8">
     <g id="line2d_29">
      <g>
       <use xlink:href="#me8ee10e535" x="45.08375" y="226.381205" style="fill: #8a929b; stroke: #8a929b; stroke-width: 0.8"/>
      </g>
     </g>
     <g id="text_10">
      <!-- 0 -->
      <g style="fill: #8a929b" transform="translate(32.99375 229.420267) scale(0.08 -0.08)">
       <use xlink:href="#DejaVuSans-13"/>
      </g>
     </g>
    </g>
    <g id="ytick_9">
     <g id="line2d_30">
      <g>
       <use xlink:href="#me8ee10e535" x="45.08375" y="202.870927" style="fill: #8a929b; stroke: #8a929b; stroke-width: 0.8"/>
      </g>
     </g>
     <g id="text_11">
      <!-- 10 -->
      <g style="fill: #8a929b" transform="translate(27.90375 205.909989) scale(0.08 -0.08)">
       <use xlink:href="#DejaVuSans-14"/>
       <use xlink:href="#DejaVuSans-13" transform="translate(63.625 0)"/>
      </g>
     </g>
    </g>
    <g id="ytick_10">
     <g id="line2d_31">
      <g>
       <use xlink:href="#me8ee10e535" x="45.08375" y="179.360649" style="fill: #8a929b; stroke: #8a929b; stroke-width: 0.8"/>
      </g>
     </g>
     <g id="text_12">
      <!-- 20 -->
      <g style="fill: #8a929b" transform="translate(27.90375 182.399712) scale(0.08 -0.08)">
       <use xlink:href="#DejaVuSans-15"/>
       <use xlink:href="#DejaVuSans-13" transform="translate(63.625 0)"/>
      </g>
     </g>
    </g>
    <g id="text_13">
     <!-- v  (m/s) -->
     <g style="fill: #1f2933" transform="translate(14.797656 242.614437) rotate(-90) scale(0.1 -0.1)">
      <defs>
       <path id="DejaVuSans-59" d="M 191 3500 
L 800 3500 
L 1894 563 
L 2988 3500 
L 3597 3500 
L 2284 0 
L 1503 0 
L 191 3500 
z
" transform="scale(0.015625)"/>
       <path id="DejaVuSans-12" d="M 1625 4666 
L 2156 4666 
L 531 -594 
L 0 -594 
L 1625 4666 
z
" transform="scale(0.015625)"/>
      </defs>
      <use xlink:href="#DejaVuSans-59"/>
      <use xlink:href="#DejaVuSans-3" transform="translate(59.1875 0)"/>
      <use xlink:href="#DejaVuSans-3" transform="translate(90.96875 0)"/>
      <use xlink:href="#DejaVuSans-b" transform="translate(122.75 0)"/>
      <use xlink:href="#DejaVuSans-50" transform="translate(161.765625 0)"/>
      <use xlink:href="#DejaVuSans-12" transform="translate(259.171875 0)"/>
      <use xlink:href="#DejaVuSans-56" transform="translate(292.859375 0)"/>
      <use xlink:href="#DejaVuSans-c" transform="translate(344.953125 0)"/>
     </g>
    </g>
   </g>
   <g id="line2d_32">
    <path d="M 220.415713 288.541301 
L 220.415713 158.290699 
" clip-path="url(#p09e612e069)" style="fill: none; stroke-dasharray: 3.7,1.6; stroke-dashoffset: 0; stroke: #8a929b; stroke-opacity: 0.7"/>
   </g>
   <g id="line2d_33">
    <path d="M 45.08375 226.381205 
L 402.20375 226.381205 
" clip-path="url(#p09e612e069)" style="fill: none; stroke: #d8d4c8; stroke-linecap: square"/>
   </g>
   <g id="line2d_34">
    <path d="M 45.08375 179.360649 
L 402.20375 275.133151 
L 402.20375 275.133151 
" clip-path="url(#p09e612e069)" style="fill: none; stroke: #2f6f4f; stroke-width: 2.2; stroke-linecap: square"/>
   </g>
   <g id="patch_7">
    <path d="M 45.08375 288.541301 
L 45.08375 158.290699 
" style="fill: none; stroke: #d8d4c8; stroke-width: 0.8; stroke-linejoin: miter; stroke-linecap: square"/>
   </g>
   <g id="patch_8">
    <path d="M 45.08375 288.541301 
L 402.20375 288.541301 
" style="fill: none; stroke: #d8d4c8; stroke-width: 0.8; stroke-linejoin: miter; stroke-linecap: square"/>
   </g>
   <g id="text_14">
    <g id="patch_9">
     <path d="M 72.138339 230.700103 
L 123.228339 230.700103 
Q 125.468339 230.700103 125.468339 228.460103 
L 125.468339 209.255728 
Q 125.468339 207.015728 123.228339 207.015728 
L 72.138339 207.015728 
Q 69.898339 207.015728 69.898339 209.255728 
L 69.898339 228.460103 
Q 69.898339 230.700103 72.138339 230.700103 
z
" style="fill: #fbfaf7; opacity: 0.92; stroke: #d8d4c8; stroke-width: 0.6; stroke-linejoin: miter"/>
    </g>
    <!-- area under v -->
    <g style="fill: #2f6f4f" transform="translate(72.138339 216.13526) scale(0.08 -0.08)">
     <defs>
      <path id="DejaVuSans-55" d="M 2631 2963 
Q 2534 3019 2420 3045 
Q 2306 3072 2169 3072 
Q 1681 3072 1420 2755 
Q 1159 2438 1159 1844 
L 1159 0 
L 581 0 
L 581 3500 
L 1159 3500 
L 1159 2956 
Q 1341 3275 1631 3429 
Q 1922 3584 2338 3584 
Q 2397 3584 2469 3576 
Q 2541 3569 2628 3553 
L 2631 2963 
z
" transform="scale(0.015625)"/>
      <path id="DejaVuSans-58" d="M 544 1381 
L 544 3500 
L 1119 3500 
L 1119 1403 
Q 1119 906 1312 657 
Q 1506 409 1894 409 
Q 2359 409 2629 706 
Q 2900 1003 2900 1516 
L 2900 3500 
L 3475 3500 
L 3475 0 
L 2900 0 
L 2900 538 
Q 2691 219 2414 64 
Q 2138 -91 1772 -91 
Q 1169 -91 856 284 
Q 544 659 544 1381 
z
M 1991 3584 
L 1991 3584 
z
" transform="scale(0.015625)"/>
      <path id="DejaVuSans-51" d="M 3513 2113 
L 3513 0 
L 2938 0 
L 2938 2094 
Q 2938 2591 2744 2837 
Q 2550 3084 2163 3084 
Q 1697 3084 1428 2787 
Q 1159 2491 1159 1978 
L 1159 0 
L 581 0 
L 581 3500 
L 1159 3500 
L 1159 2956 
Q 1366 3272 1645 3428 
Q 1925 3584 2291 3584 
Q 2894 3584 3203 3211 
Q 3513 2838 3513 2113 
z
" transform="scale(0.015625)"/>
      <path id="DejaVuSans-47" d="M 2906 2969 
L 2906 4863 
L 3481 4863 
L 3481 0 
L 2906 0 
L 2906 525 
Q 2725 213 2448 61 
Q 2172 -91 1784 -91 
Q 1150 -91 751 415 
Q 353 922 353 1747 
Q 353 2572 751 3078 
Q 1150 3584 1784 3584 
Q 2172 3584 2448 3432 
Q 2725 3281 2906 2969 
z
M 947 1747 
Q 947 1113 1208 752 
Q 1469 391 1925 391 
Q 2381 391 2643 752 
Q 2906 1113 2906 1747 
Q 2906 2381 2643 2742 
Q 2381 3103 1925 3103 
Q 1469 3103 1208 2742 
Q 947 2381 947 1747 
z
" transform="scale(0.015625)"/>
     </defs>
     <use xlink:href="#DejaVuSans-44"/>
     <use xlink:href="#DejaVuSans-55" transform="translate(61.28125 0)"/>
     <use xlink:href="#DejaVuSans-48" transform="translate(100.1875 0)"/>
     <use xlink:href="#DejaVuSans-44" transform="translate(161.71875 0)"/>
     <use xlink:href="#DejaVuSans-3" transform="translate(223 0)"/>
     <use xlink:href="#DejaVuSans-58" transform="translate(254.78125 0)"/>
     <use xlink:href="#DejaVuSans-51" transform="translate(318.15625 0)"/>
     <use xlink:href="#DejaVuSans-47" transform="translate(381.53125 0)"/>
     <use xlink:href="#DejaVuSans-48" transform="translate(445.015625 0)"/>
     <use xlink:href="#DejaVuSans-55" transform="translate(506.546875 0)"/>
     <use xlink:href="#DejaVuSans-3" transform="translate(547.65625 0)"/>
     <use xlink:href="#DejaVuSans-59" transform="translate(579.4375 0)"/>
    </g>
    <!-- = rise in x -->
    <g style="fill: #2f6f4f" transform="translate(77.203339 225.737447) scale(0.08 -0.08)">
     <defs>
      <path id="DejaVuSans-4c" d="M 603 3500 
L 1178 3500 
L 1178 0 
L 603 0 
L 603 3500 
z
M 603 4863 
L 1178 4863 
L 1178 4134 
L 603 4134 
L 603 4863 
z
" transform="scale(0.015625)"/>
     </defs>
     <use xlink:href="#DejaVuSans-20"/>
     <use xlink:href="#DejaVuSans-3" transform="translate(83.796875 0)"/>
     <use xlink:href="#DejaVuSans-55" transform="translate(115.578125 0)"/>
     <use xlink:href="#DejaVuSans-4c" transform="translate(156.6875 0)"/>
     <use xlink:href="#DejaVuSans-56" transform="translate(184.46875 0)"/>
     <use xlink:href="#DejaVuSans-48" transform="translate(236.5625 0)"/>
     <use xlink:href="#DejaVuSans-3" transform="translate(298.09375 0)"/>
     <use xlink:href="#DejaVuSans-4c" transform="translate(329.875 0)"/>
     <use xlink:href="#DejaVuSans-51" transform="translate(357.65625 0)"/>
     <use xlink:href="#DejaVuSans-3" transform="translate(421.03125 0)"/>
     <use xlink:href="#DejaVuSans-5b" transform="translate(452.8125 0)"/>
    </g>
   </g>
   <g id="text_15">
    <g id="patch_10">
     <path d="M 232.415713 212.621205 
L 337.184463 212.621205 
Q 339.424463 212.621205 339.424463 210.381205 
L 339.424463 191.17683 
Q 339.424463 188.93683 337.184463 188.93683 
L 232.415713 188.93683 
Q 230.175713 188.93683 230.175713 191.17683 
L 230.175713 210.381205 
Q 230.175713 212.621205 232.415713 212.621205 
z
" style="fill: #fbfaf7; opacity: 0.92; stroke: #d8d4c8; stroke-width: 0.6; stroke-linejoin: miter"/>
    </g>
    <!-- v = 0 here — but the line -->
    <g style="fill: #1f2933" transform="translate(232.415713 198.056361) scale(0.08 -0.08)">
     <defs>
      <path id="DejaVuSans-4b" d="M 3513 2113 
L 3513 0 
L 2938 0 
L 2938 2094 
Q 2938 2591 2744 2837 
Q 2550 3084 2163 3084 
Q 1697 3084 1428 2787 
Q 1159 2491 1159 1978 
L 1159 0 
L 581 0 
L 581 4863 
L 1159 4863 
L 1159 2956 
Q 1366 3272 1645 3428 
Q 1925 3584 2291 3584 
Q 2894 3584 3203 3211 
Q 3513 2838 3513 2113 
z
" transform="scale(0.015625)"/>
      <path id="DejaVuSans-af6" d="M 313 1978 
L 6088 1978 
L 6088 1528 
L 313 1528 
L 313 1978 
z
" transform="scale(0.015625)"/>
      <path id="DejaVuSans-45" d="M 3116 1747 
Q 3116 2381 2855 2742 
Q 2594 3103 2138 3103 
Q 1681 3103 1420 2742 
Q 1159 2381 1159 1747 
Q 1159 1113 1420 752 
Q 1681 391 2138 391 
Q 2594 391 2855 752 
Q 3116 1113 3116 1747 
z
M 1159 2969 
Q 1341 3281 1617 3432 
Q 1894 3584 2278 3584 
Q 2916 3584 3314 3078 
Q 3713 2572 3713 1747 
Q 3713 922 3314 415 
Q 2916 -91 2278 -91 
Q 1894 -91 1617 61 
Q 1341 213 1159 525 
L 1159 0 
L 581 0 
L 581 4863 
L 1159 4863 
L 1159 2969 
z
" transform="scale(0.015625)"/>
      <path id="DejaVuSans-4f" d="M 603 4863 
L 1178 4863 
L 1178 0 
L 603 0 
L 603 4863 
z
" transform="scale(0.015625)"/>
     </defs>
     <use xlink:href="#DejaVuSans-59"/>
     <use xlink:href="#DejaVuSans-3" transform="translate(59.1875 0)"/>
     <use xlink:href="#DejaVuSans-20" transform="translate(90.96875 0)"/>
     <use xlink:href="#DejaVuSans-3" transform="translate(174.765625 0)"/>
     <use xlink:href="#DejaVuSans-13" transform="translate(206.546875 0)"/>
     <use xlink:href="#DejaVuSans-3" transform="translate(270.171875 0)"/>
     <use xlink:href="#DejaVuSans-4b" transform="translate(301.953125 0)"/>
     <use xlink:href="#DejaVuSans-48" transform="translate(365.328125 0)"/>
     <use xlink:href="#DejaVuSans-55" transform="translate(426.859375 0)"/>
     <use xlink:href="#DejaVuSans-48" transform="translate(465.765625 0)"/>
     <use xlink:href="#DejaVuSans-3" transform="translate(527.296875 0)"/>
     <use xlink:href="#DejaVuSans-af6" transform="translate(559.078125 0)"/>
     <use xlink:href="#DejaVuSans-3" transform="translate(659.078125 0)"/>
     <use xlink:href="#DejaVuSans-45" transform="translate(690.859375 0)"/>
     <use xlink:href="#DejaVuSans-58" transform="translate(754.34375 0)"/>
     <use xlink:href="#DejaVuSans-57" transform="translate(817.71875 0)"/>
     <use xlink:href="#DejaVuSans-3" transform="translate(856.921875 0)"/>
     <use xlink:href="#DejaVuSans-57" transform="translate(888.703125 0)"/>
     <use xlink:href="#DejaVuSans-4b" transform="translate(927.90625 0)"/>
     <use xlink:href="#DejaVuSans-48" transform="translate(991.28125 0)"/>
     <use xlink:href="#DejaVuSans-3" transform="translate(1052.8125 0)"/>
     <use xlink:href="#DejaVuSans-4f" transform="translate(1084.59375 0)"/>
     <use xlink:href="#DejaVuSans-4c" transform="translate(1112.375 0)"/>
     <use xlink:href="#DejaVuSans-51" transform="translate(1140.15625 0)"/>
     <use xlink:href="#DejaVuSans-48" transform="translate(1203.53125 0)"/>
    </g>
    <!-- never bends: its slope is a -->
    <g style="fill: #1f2933" transform="translate(232.415713 207.658548) scale(0.08 -0.08)">
     <defs>
      <path id="DejaVuSans-52" d="M 1959 3097 
Q 1497 3097 1228 2736 
Q 959 2375 959 1747 
Q 959 1119 1226 758 
Q 1494 397 1959 397 
Q 2419 397 2687 759 
Q 2956 1122 2956 1747 
Q 2956 2369 2687 2733 
Q 2419 3097 1959 3097 
z
M 1959 3584 
Q 2709 3584 3137 3096 
Q 3566 2609 3566 1747 
Q 3566 888 3137 398 
Q 2709 -91 1959 -91 
Q 1206 -91 779 398 
Q 353 888 353 1747 
Q 353 2609 779 3096 
Q 1206 3584 1959 3584 
z
" transform="scale(0.015625)"/>
     </defs>
     <use xlink:href="#DejaVuSans-51"/>
     <use xlink:href="#DejaVuSans-48" transform="translate(63.375 0)"/>
     <use xlink:href="#DejaVuSans-59" transform="translate(124.90625 0)"/>
     <use xlink:href="#DejaVuSans-48" transform="translate(184.09375 0)"/>
     <use xlink:href="#DejaVuSans-55" transform="translate(245.625 0)"/>
     <use xlink:href="#DejaVuSans-3" transform="translate(286.734375 0)"/>
     <use xlink:href="#DejaVuSans-45" transform="translate(318.515625 0)"/>
     <use xlink:href="#DejaVuSans-48" transform="translate(382 0)"/>
     <use xlink:href="#DejaVuSans-51" transform="translate(443.53125 0)"/>
     <use xlink:href="#DejaVuSans-47" transform="translate(506.90625 0)"/>
     <use xlink:href="#DejaVuSans-56" transform="translate(570.390625 0)"/>
     <use xlink:href="#DejaVuSans-1d" transform="translate(622.484375 0)"/>
     <use xlink:href="#DejaVuSans-3" transform="translate(656.171875 0)"/>
     <use xlink:href="#DejaVuSans-4c" transform="translate(687.953125 0)"/>
     <use xlink:href="#DejaVuSans-57" transform="translate(715.734375 0)"/>
     <use xlink:href="#DejaVuSans-56" transform="translate(754.9375 0)"/>
     <use xlink:href="#DejaVuSans-3" transform="translate(807.03125 0)"/>
     <use xlink:href="#DejaVuSans-56" transform="translate(838.8125 0)"/>
     <use xlink:href="#DejaVuSans-4f" transform="translate(890.90625 0)"/>
     <use xlink:href="#DejaVuSans-52" transform="translate(918.6875 0)"/>
     <use xlink:href="#DejaVuSans-53" transform="translate(979.875 0)"/>
     <use xlink:href="#DejaVuSans-48" transform="translate(1043.359375 0)"/>
     <use xlink:href="#DejaVuSans-3" transform="translate(1104.890625 0)"/>
     <use xlink:href="#DejaVuSans-4c" transform="translate(1136.671875 0)"/>
     <use xlink:href="#DejaVuSans-56" transform="translate(1164.453125 0)"/>
     <use xlink:href="#DejaVuSans-3" transform="translate(1216.546875 0)"/>
     <use xlink:href="#DejaVuSans-44" transform="translate(1248.328125 0)"/>
    </g>
   </g>
   <g id="PathCollection_2">
    <g clip-path="url(#p09e612e069)">
     <use xlink:href="#mf4040a92d3" x="220.415713" y="226.381205" style="fill: #2f6f4f; stroke: #2f6f4f"/>
    </g>
   </g>
  </g>
  <g id="axes_3">
   <g id="patch_11">
    <path d="M 45.08375 439.632 
L 402.20375 439.632 
L 402.20375 309.381398 
L 45.08375 309.381398 
z
" style="fill: #fbfaf7"/>
   </g>
   <g id="matplotlib.axis_5">
    <g id="xtick_19">
     <g id="line2d_35">
      <g>
       <use xlink:href="#mbf0ed24d37" x="45.08375" y="439.632" style="fill: #8a929b; stroke: #8a929b; stroke-width: 0.8"/>
      </g>
     </g>
     <g id="text_16">
      <!-- 0.0 -->
      <g style="fill: #8a929b" transform="translate(38.7225 452.710125) scale(0.08 -0.08)">
       <use xlink:href="#DejaVuSans-13"/>
       <use xlink:href="#DejaVuSans-11" transform="translate(63.625 0)"/>
       <use xlink:href="#DejaVuSans-13" transform="translate(95.40625 0)"/>
      </g>
     </g>
    </g>
    <g id="xtick_20">
     <g id="line2d_36">
      <g>
       <use xlink:href="#mbf0ed24d37" x="88.916741" y="439.632" style="fill: #8a929b; stroke: #8a929b; stroke-width: 0.8"/>
      </g>
     </g>
     <g id="text_17">
      <!-- 0.5 -->
      <g style="fill: #8a929b" transform="translate(82.555491 452.710125) scale(0.08 -0.08)">
       <use xlink:href="#DejaVuSans-13"/>
       <use xlink:href="#DejaVuSans-11" transform="translate(63.625 0)"/>
       <use xlink:href="#DejaVuSans-18" transform="translate(95.40625 0)"/>
      </g>
     </g>
    </g>
    <g id="xtick_21">
     <g id="line2d_37">
      <g>
       <use xlink:href="#mbf0ed24d37" x="132.749732" y="439.632" style="fill: #8a929b; stroke: #8a929b; stroke-width: 0.8"/>
      </g>
     </g>
     <g id="text_18">
      <!-- 1.0 -->
      <g style="fill: #8a929b" transform="translate(126.388482 452.710125) scale(0.08 -0.08)">
       <use xlink:href="#DejaVuSans-14"/>
       <use xlink:href="#DejaVuSans-11" transform="translate(63.625 0)"/>
       <use xlink:href="#DejaVuSans-13" transform="translate(95.40625 0)"/>
      </g>
     </g>
    </g>
    <g id="xtick_22">
     <g id="line2d_38">
      <g>
       <use xlink:href="#mbf0ed24d37" x="176.582722" y="439.632" style="fill: #8a929b; stroke: #8a929b; stroke-width: 0.8"/>
      </g>
     </g>
     <g id="text_19">
      <!-- 1.5 -->
      <g style="fill: #8a929b" transform="translate(170.221472 452.710125) scale(0.08 -0.08)">
       <use xlink:href="#DejaVuSans-14"/>
       <use xlink:href="#DejaVuSans-11" transform="translate(63.625 0)"/>
       <use xlink:href="#DejaVuSans-18" transform="translate(95.40625 0)"/>
      </g>
     </g>
    </g>
    <g id="xtick_23">
     <g id="line2d_39">
      <g>
       <use xlink:href="#mbf0ed24d37" x="220.415713" y="439.632" style="fill: #8a929b; stroke: #8a929b; stroke-width: 0.8"/>
      </g>
     </g>
     <g id="text_20">
      <!-- 2.0 -->
      <g style="fill: #8a929b" transform="translate(214.054463 452.710125) scale(0.08 -0.08)">
       <use xlink:href="#DejaVuSans-15"/>
       <use xlink:href="#DejaVuSans-11" transform="translate(63.625 0)"/>
       <use xlink:href="#DejaVuSans-13" transform="translate(95.40625 0)"/>
      </g>
     </g>
    </g>
    <g id="xtick_24">
     <g id="line2d_40">
      <g>
       <use xlink:href="#mbf0ed24d37" x="264.248704" y="439.632" style="fill: #8a929b; stroke: #8a929b; stroke-width: 0.8"/>
      </g>
     </g>
     <g id="text_21">
      <!-- 2.5 -->
      <g style="fill: #8a929b" transform="translate(257.887454 452.710125) scale(0.08 -0.08)">
       <use xlink:href="#DejaVuSans-15"/>
       <use xlink:href="#DejaVuSans-11" transform="translate(63.625 0)"/>
       <use xlink:href="#DejaVuSans-18" transform="translate(95.40625 0)"/>
      </g>
     </g>
    </g>
    <g id="xtick_25">
     <g id="line2d_41">
      <g>
       <use xlink:href="#mbf0ed24d37" x="308.081695" y="439.632" style="fill: #8a929b; stroke: #8a929b; stroke-width: 0.8"/>
      </g>
     </g>
     <g id="text_22">
      <!-- 3.0 -->
      <g style="fill: #8a929b" transform="translate(301.720445 452.710125) scale(0.08 -0.08)">
       <defs>
        <path id="DejaVuSans-16" d="M 2597 2516 
Q 3050 2419 3304 2112 
Q 3559 1806 3559 1356 
Q 3559 666 3084 287 
Q 2609 -91 1734 -91 
Q 1441 -91 1130 -33 
Q 819 25 488 141 
L 488 750 
Q 750 597 1062 519 
Q 1375 441 1716 441 
Q 2309 441 2620 675 
Q 2931 909 2931 1356 
Q 2931 1769 2642 2001 
Q 2353 2234 1838 2234 
L 1294 2234 
L 1294 2753 
L 1863 2753 
Q 2328 2753 2575 2939 
Q 2822 3125 2822 3475 
Q 2822 3834 2567 4026 
Q 2313 4219 1838 4219 
Q 1578 4219 1281 4162 
Q 984 4106 628 3988 
L 628 4550 
Q 988 4650 1302 4700 
Q 1616 4750 1894 4750 
Q 2613 4750 3031 4423 
Q 3450 4097 3450 3541 
Q 3450 3153 3228 2886 
Q 3006 2619 2597 2516 
z
" transform="scale(0.015625)"/>
       </defs>
       <use xlink:href="#DejaVuSans-16"/>
       <use xlink:href="#DejaVuSans-11" transform="translate(63.625 0)"/>
       <use xlink:href="#DejaVuSans-13" transform="translate(95.40625 0)"/>
      </g>
     </g>
    </g>
    <g id="xtick_26">
     <g id="line2d_42">
      <g>
       <use xlink:href="#mbf0ed24d37" x="351.914686" y="439.632" style="fill: #8a929b; stroke: #8a929b; stroke-width: 0.8"/>
      </g>
     </g>
     <g id="text_23">
      <!-- 3.5 -->
      <g style="fill: #8a929b" transform="translate(345.553436 452.710125) scale(0.08 -0.08)">
       <use xlink:href="#DejaVuSans-16"/>
       <use xlink:href="#DejaVuSans-11" transform="translate(63.625 0)"/>
       <use xlink:href="#DejaVuSans-18" transform="translate(95.40625 0)"/>
      </g>
     </g>
    </g>
    <g id="xtick_27">
     <g id="line2d_43">
      <g>
       <use xlink:href="#mbf0ed24d37" x="395.747676" y="439.632" style="fill: #8a929b; stroke: #8a929b; stroke-width: 0.8"/>
      </g>
     </g>
     <g id="text_24">
      <!-- 4.0 -->
      <g style="fill: #8a929b" transform="translate(389.386426 452.710125) scale(0.08 -0.08)">
       <defs>
        <path id="DejaVuSans-17" d="M 2419 4116 
L 825 1625 
L 2419 1625 
L 2419 4116 
z
M 2253 4666 
L 3047 4666 
L 3047 1625 
L 3713 1625 
L 3713 1100 
L 3047 1100 
L 3047 0 
L 2419 0 
L 2419 1100 
L 313 1100 
L 313 1709 
L 2253 4666 
z
" transform="scale(0.015625)"/>
       </defs>
       <use xlink:href="#DejaVuSans-17"/>
       <use xlink:href="#DejaVuSans-11" transform="translate(63.625 0)"/>
       <use xlink:href="#DejaVuSans-13" transform="translate(95.40625 0)"/>
      </g>
     </g>
    </g>
    <g id="text_25">
     <!-- t  (s) -->
     <g style="fill: #1f2933" transform="translate(211.999219 466.229656) scale(0.1 -0.1)">
      <use xlink:href="#DejaVuSans-57"/>
      <use xlink:href="#DejaVuSans-3" transform="translate(39.203125 0)"/>
      <use xlink:href="#DejaVuSans-3" transform="translate(70.984375 0)"/>
      <use xlink:href="#DejaVuSans-b" transform="translate(102.765625 0)"/>
      <use xlink:href="#DejaVuSans-56" transform="translate(141.78125 0)"/>
      <use xlink:href="#DejaVuSans-c" transform="translate(193.875 0)"/>
     </g>
    </g>
   </g>
   <g id="matplotlib.axis_6">
    <g id="ytick_11">
     <g id="line2d_44">
      <g>
       <use xlink:href="#me8ee10e535" x="45.08375" y="435.290313" style="fill: #8a929b; stroke: #8a929b; stroke-width: 0.8"/>
      </g>
     </g>
     <g id="text_26">
      <!-- −12 -->
      <g style="fill: #8a929b" transform="translate(21.2 438.329376) scale(0.08 -0.08)">
       <use xlink:href="#DejaVuSans-c9c"/>
       <use xlink:href="#DejaVuSans-14" transform="translate(83.796875 0)"/>
       <use xlink:href="#DejaVuSans-15" transform="translate(147.421875 0)"/>
      </g>
     </g>
    </g>
    <g id="ytick_12">
     <g id="line2d_45">
      <g>
       <use xlink:href="#me8ee10e535" x="45.08375" y="417.923566" style="fill: #8a929b; stroke: #8a929b; stroke-width: 0.8"/>
      </g>
     </g>
     <g id="text_27">
      <!-- −10 -->
      <g style="fill: #8a929b" transform="translate(21.2 420.962629) scale(0.08 -0.08)">
       <use xlink:href="#DejaVuSans-c9c"/>
       <use xlink:href="#DejaVuSans-14" transform="translate(83.796875 0)"/>
       <use xlink:href="#DejaVuSans-13" transform="translate(147.421875 0)"/>
      </g>
     </g>
    </g>
    <g id="ytick_13">
     <g id="line2d_46">
      <g>
       <use xlink:href="#me8ee10e535" x="45.08375" y="400.556819" style="fill: #8a929b; stroke: #8a929b; stroke-width: 0.8"/>
      </g>
     </g>
     <g id="text_28">
      <!-- −8 -->
      <g style="fill: #8a929b" transform="translate(26.29 403.595882) scale(0.08 -0.08)">
       <defs>
        <path id="DejaVuSans-1b" d="M 2034 2216 
Q 1584 2216 1326 1975 
Q 1069 1734 1069 1313 
Q 1069 891 1326 650 
Q 1584 409 2034 409 
Q 2484 409 2743 651 
Q 3003 894 3003 1313 
Q 3003 1734 2745 1975 
Q 2488 2216 2034 2216 
z
M 1403 2484 
Q 997 2584 770 2862 
Q 544 3141 544 3541 
Q 544 4100 942 4425 
Q 1341 4750 2034 4750 
Q 2731 4750 3128 4425 
Q 3525 4100 3525 3541 
Q 3525 3141 3298 2862 
Q 3072 2584 2669 2484 
Q 3125 2378 3379 2068 
Q 3634 1759 3634 1313 
Q 3634 634 3220 271 
Q 2806 -91 2034 -91 
Q 1263 -91 848 271 
Q 434 634 434 1313 
Q 434 1759 690 2068 
Q 947 2378 1403 2484 
z
M 1172 3481 
Q 1172 3119 1398 2916 
Q 1625 2713 2034 2713 
Q 2441 2713 2670 2916 
Q 2900 3119 2900 3481 
Q 2900 3844 2670 4047 
Q 2441 4250 2034 4250 
Q 1625 4250 1398 4047 
Q 1172 3844 1172 3481 
z
" transform="scale(0.015625)"/>
       </defs>
       <use xlink:href="#DejaVuSans-c9c"/>
       <use xlink:href="#DejaVuSans-1b" transform="translate(83.796875 0)"/>
      </g>
     </g>
    </g>
    <g id="ytick_14">
     <g id="line2d_47">
      <g>
       <use xlink:href="#me8ee10e535" x="45.08375" y="383.190072" style="fill: #8a929b; stroke: #8a929b; stroke-width: 0.8"/>
      </g>
     </g>
     <g id="text_29">
      <!-- −6 -->
      <g style="fill: #8a929b" transform="translate(26.29 386.229135) scale(0.08 -0.08)">
       <defs>
        <path id="DejaVuSans-19" d="M 2113 2584 
Q 1688 2584 1439 2293 
Q 1191 2003 1191 1497 
Q 1191 994 1439 701 
Q 1688 409 2113 409 
Q 2538 409 2786 701 
Q 3034 994 3034 1497 
Q 3034 2003 2786 2293 
Q 2538 2584 2113 2584 
z
M 3366 4563 
L 3366 3988 
Q 3128 4100 2886 4159 
Q 2644 4219 2406 4219 
Q 1781 4219 1451 3797 
Q 1122 3375 1075 2522 
Q 1259 2794 1537 2939 
Q 1816 3084 2150 3084 
Q 2853 3084 3261 2657 
Q 3669 2231 3669 1497 
Q 3669 778 3244 343 
Q 2819 -91 2113 -91 
Q 1303 -91 875 529 
Q 447 1150 447 2328 
Q 447 3434 972 4092 
Q 1497 4750 2381 4750 
Q 2619 4750 2861 4703 
Q 3103 4656 3366 4563 
z
" transform="scale(0.015625)"/>
       </defs>
       <use xlink:href="#DejaVuSans-c9c"/>
       <use xlink:href="#DejaVuSans-19" transform="translate(83.796875 0)"/>
      </g>
     </g>
    </g>
    <g id="ytick_15">
     <g id="line2d_48">
      <g>
       <use xlink:href="#me8ee10e535" x="45.08375" y="365.823325" style="fill: #8a929b; stroke: #8a929b; stroke-width: 0.8"/>
      </g>
     </g>
     <g id="text_30">
      <!-- −4 -->
      <g style="fill: #8a929b" transform="translate(26.29 368.862388) scale(0.08 -0.08)">
       <use xlink:href="#DejaVuSans-c9c"/>
       <use xlink:href="#DejaVuSans-17" transform="translate(83.796875 0)"/>
      </g>
     </g>
    </g>
    <g id="ytick_16">
     <g id="line2d_49">
      <g>
       <use xlink:href="#me8ee10e535" x="45.08375" y="348.456578" style="fill: #8a929b; stroke: #8a929b; stroke-width: 0.8"/>
      </g>
     </g>
     <g id="text_31">
      <!-- −2 -->
      <g style="fill: #8a929b" transform="translate(26.29 351.495641) scale(0.08 -0.08)">
       <use xlink:href="#DejaVuSans-c9c"/>
       <use xlink:href="#DejaVuSans-15" transform="translate(83.796875 0)"/>
      </g>
     </g>
    </g>
    <g id="ytick_17">
     <g id="line2d_50">
      <g>
       <use xlink:href="#me8ee10e535" x="45.08375" y="331.089831" style="fill: #8a929b; stroke: #8a929b; stroke-width: 0.8"/>
      </g>
     </g>
     <g id="text_32">
      <!-- 0 -->
      <g style="fill: #8a929b" transform="translate(32.99375 334.128894) scale(0.08 -0.08)">
       <use xlink:href="#DejaVuSans-13"/>
      </g>
     </g>
    </g>
    <g id="ytick_18">
     <g id="line2d_51">
      <g>
       <use xlink:href="#me8ee10e535" x="45.08375" y="313.723084" style="fill: #8a929b; stroke: #8a929b; stroke-width: 0.8"/>
      </g>
     </g>
     <g id="text_33">
      <!-- 2 -->
      <g style="fill: #8a929b" transform="translate(32.99375 316.762147) scale(0.08 -0.08)">
       <use xlink:href="#DejaVuSans-15"/>
      </g>
     </g>
    </g>
    <g id="text_34">
     <!-- a  (m/s²) -->
     <g style="fill: #1f2933" transform="translate(14.797656 395.814511) rotate(-90) scale(0.1 -0.1)">
      <defs>
       <path id="DejaVuSans-74" d="M 838 2444 
L 2163 2444 
L 2163 2088 
L 294 2088 
L 294 2431 
Q 400 2528 597 2703 
Q 1672 3656 1672 3950 
Q 1672 4156 1509 4282 
Q 1347 4409 1081 4409 
Q 919 4409 728 4354 
Q 538 4300 313 4191 
L 313 4575 
Q 553 4663 761 4706 
Q 969 4750 1147 4750 
Q 1600 4750 1872 4544 
Q 2144 4338 2144 4000 
Q 2144 3566 1109 2678 
Q 934 2528 838 2444 
z
" transform="scale(0.015625)"/>
      </defs>
      <use xlink:href="#DejaVuSans-44"/>
      <use xlink:href="#DejaVuSans-3" transform="translate(61.28125 0)"/>
      <use xlink:href="#DejaVuSans-3" transform="translate(93.0625 0)"/>
      <use xlink:href="#DejaVuSans-b" transform="translate(124.84375 0)"/>
      <use xlink:href="#DejaVuSans-50" transform="translate(163.859375 0)"/>
      <use xlink:href="#DejaVuSans-12" transform="translate(261.265625 0)"/>
      <use xlink:href="#DejaVuSans-56" transform="translate(294.953125 0)"/>
      <use xlink:href="#DejaVuSans-74" transform="translate(347.046875 0)"/>
      <use xlink:href="#DejaVuSans-c" transform="translate(387.140625 0)"/>
     </g>
    </g>
   </g>
   <g id="line2d_52">
    <path d="M 220.415713 439.632 
L 220.415713 309.381398 
" clip-path="url(#pfac39dd8d4)" style="fill: none; stroke-dasharray: 3.7,1.6; stroke-dashoffset: 0; stroke: #8a929b; stroke-opacity: 0.7"/>
   </g>
   <g id="line2d_53">
    <path d="M 45.08375 331.089831 
L 402.20375 331.089831 
" clip-path="url(#pfac39dd8d4)" style="fill: none; stroke: #d8d4c8; stroke-linecap: square"/>
   </g>
   <g id="line2d_54">
    <path d="M 45.08375 417.923566 
L 402.20375 417.923566 
L 402.20375 417.923566 
" clip-path="url(#pfac39dd8d4)" style="fill: none; stroke: #1f2933; stroke-width: 2.2; stroke-linecap: square"/>
   </g>
   <g id="patch_12">
    <path d="M 45.08375 439.632 
L 45.08375 309.381398 
" style="fill: none; stroke: #d8d4c8; stroke-width: 0.8; stroke-linejoin: miter; stroke-linecap: square"/>
   </g>
   <g id="patch_13">
    <path d="M 45.08375 439.632 
L 402.20375 439.632 
" style="fill: none; stroke: #d8d4c8; stroke-width: 0.8; stroke-linejoin: miter; stroke-linecap: square"/>
   </g>
   <g id="text_35">
    <g id="patch_14">
     <path d="M 135.533281 408.303566 
L 311.754219 408.303566 
Q 314.134219 408.303566 314.134219 405.923566 
L 314.134219 397.422902 
Q 314.134219 395.042902 311.754219 395.042902 
L 135.533281 395.042902 
Q 133.153281 395.042902 133.153281 397.422902 
L 133.153281 405.923566 
Q 133.153281 408.303566 135.533281 408.303566 
z
" style="fill: #fbfaf7; opacity: 0.92; stroke: #d8d4c8; stroke-width: 0.6; stroke-linejoin: miter"/>
    </g>
    <!-- a = -10 m/s²  — constant, and never zero -->
    <g style="fill: #1f2933" transform="translate(135.533281 403.881574) scale(0.085 -0.085)">
     <defs>
      <path id="DejaVuSans-10" d="M 313 2009 
L 1997 2009 
L 1997 1497 
L 313 1497 
L 313 2009 
z
" transform="scale(0.015625)"/>
      <path id="DejaVuSans-46" d="M 3122 3366 
L 3122 2828 
Q 2878 2963 2633 3030 
Q 2388 3097 2138 3097 
Q 1578 3097 1268 2742 
Q 959 2388 959 1747 
Q 959 1106 1268 751 
Q 1578 397 2138 397 
Q 2388 397 2633 464 
Q 2878 531 3122 666 
L 3122 134 
Q 2881 22 2623 -34 
Q 2366 -91 2075 -91 
Q 1284 -91 818 406 
Q 353 903 353 1747 
Q 353 2603 823 3093 
Q 1294 3584 2113 3584 
Q 2378 3584 2631 3529 
Q 2884 3475 3122 3366 
z
" transform="scale(0.015625)"/>
      <path id="DejaVuSans-f" d="M 750 794 
L 1409 794 
L 1409 256 
L 897 -744 
L 494 -744 
L 750 256 
L 750 794 
z
" transform="scale(0.015625)"/>
      <path id="DejaVuSans-5d" d="M 353 3500 
L 3084 3500 
L 3084 2975 
L 922 459 
L 3084 459 
L 3084 0 
L 275 0 
L 275 525 
L 2438 3041 
L 353 3041 
L 353 3500 
z
" transform="scale(0.015625)"/>
     </defs>
     <use xlink:href="#DejaVuSans-44"/>
     <use xlink:href="#DejaVuSans-3" transform="translate(61.28125 0)"/>
     <use xlink:href="#DejaVuSans-20" transform="translate(93.0625 0)"/>
     <use xlink:href="#DejaVuSans-3" transform="translate(176.859375 0)"/>
     <use xlink:href="#DejaVuSans-10" transform="translate(208.640625 0)"/>
     <use xlink:href="#DejaVuSans-14" transform="translate(244.71875 0)"/>
     <use xlink:href="#DejaVuSans-13" transform="translate(308.34375 0)"/>
     <use xlink:href="#DejaVuSans-3" transform="translate(371.96875 0)"/>
     <use xlink:href="#DejaVuSans-50" transform="translate(403.75 0)"/>
     <use xlink:href="#DejaVuSans-12" transform="translate(501.15625 0)"/>
     <use xlink:href="#DejaVuSans-56" transform="translate(534.84375 0)"/>
     <use xlink:href="#DejaVuSans-74" transform="translate(586.9375 0)"/>
     <use xlink:href="#DejaVuSans-3" transform="translate(627.03125 0)"/>
     <use xlink:href="#DejaVuSans-3" transform="translate(658.8125 0)"/>
     <use xlink:href="#DejaVuSans-af6" transform="translate(690.59375 0)"/>
     <use xlink:href="#DejaVuSans-3" transform="translate(790.59375 0)"/>
     <use xlink:href="#DejaVuSans-46" transform="translate(822.375 0)"/>
     <use xlink:href="#DejaVuSans-52" transform="translate(877.359375 0)"/>
     <use xlink:href="#DejaVuSans-51" transform="translate(938.546875 0)"/>
     <use xlink:href="#DejaVuSans-56" transform="translate(1001.921875 0)"/>
     <use xlink:href="#DejaVuSans-57" transform="translate(1054.015625 0)"/>
     <use xlink:href="#DejaVuSans-44" transform="translate(1093.21875 0)"/>
     <use xlink:href="#DejaVuSans-51" transform="translate(1154.5 0)"/>
     <use xlink:href="#DejaVuSans-57" transform="translate(1217.875 0)"/>
     <use xlink:href="#DejaVuSans-f" transform="translate(1257.078125 0)"/>
     <use xlink:href="#DejaVuSans-3" transform="translate(1288.859375 0)"/>
     <use xlink:href="#DejaVuSans-44" transform="translate(1320.640625 0)"/>
     <use xlink:href="#DejaVuSans-51" transform="translate(1381.921875 0)"/>
     <use xlink:href="#DejaVuSans-47" transform="translate(1445.296875 0)"/>
     <use xlink:href="#DejaVuSans-3" transform="translate(1508.78125 0)"/>
     <use xlink:href="#DejaVuSans-51" transform="translate(1540.5625 0)"/>
     <use xlink:href="#DejaVuSans-48" transform="translate(1603.9375 0)"/>
     <use xlink:href="#DejaVuSans-59" transform="translate(1665.46875 0)"/>
     <use xlink:href="#DejaVuSans-48" transform="translate(1724.65625 0)"/>
     <use xlink:href="#DejaVuSans-55" transform="translate(1786.1875 0)"/>
     <use xlink:href="#DejaVuSans-3" transform="translate(1827.296875 0)"/>
     <use xlink:href="#DejaVuSans-5d" transform="translate(1859.078125 0)"/>
     <use xlink:href="#DejaVuSans-48" transform="translate(1911.5625 0)"/>
     <use xlink:href="#DejaVuSans-55" transform="translate(1973.09375 0)"/>
     <use xlink:href="#DejaVuSans-52" transform="translate(2012 0)"/>
    </g>
   </g>
   <g id="text_36">
    <!-- zero is up here -->
    <g style="fill: #8a929b" transform="translate(54.22615 338.788659) scale(0.075 -0.075)">
     <use xlink:href="#DejaVuSans-5d"/>
     <use xlink:href="#DejaVuSans-48" transform="translate(52.484375 0)"/>
     <use xlink:href="#DejaVuSans-55" transform="translate(114.015625 0)"/>
     <use xlink:href="#DejaVuSans-52" transform="translate(152.921875 0)"/>
     <use xlink:href="#DejaVuSans-3" transform="translate(214.109375 0)"/>
     <use xlink:href="#DejaVuSans-4c" transform="translate(245.890625 0)"/>
     <use xlink:href="#DejaVuSans-56" transform="translate(273.671875 0)"/>
     <use xlink:href="#DejaVuSans-3" transform="translate(325.765625 0)"/>
     <use xlink:href="#DejaVuSans-58" transform="translate(357.546875 0)"/>
     <use xlink:href="#DejaVuSans-53" transform="translate(420.921875 0)"/>
     <use xlink:href="#DejaVuSans-3" transform="translate(484.40625 0)"/>
     <use xlink:href="#DejaVuSans-4b" transform="translate(516.1875 0)"/>
     <use xlink:href="#DejaVuSans-48" transform="translate(579.5625 0)"/>
     <use xlink:href="#DejaVuSans-55" transform="translate(641.09375 0)"/>
     <use xlink:href="#DejaVuSans-48" transform="translate(680 0)"/>
    </g>
   </g>
  </g>
 </g>
 <defs>
  <clipPath id="p8e179117ed">
   <rect x="45.08375" y="7.2" width="357.12" height="130.250602"/>
  </clipPath>
  <clipPath id="p09e612e069">
   <rect x="45.08375" y="158.290699" width="357.12" height="130.250602"/>
  </clipPath>
  <clipPath id="pfac39dd8d4">
   <rect x="45.08375" y="309.381398" width="357.12" height="130.250602"/>
  </clipPath>
 </defs>
</svg>
