<?xml version="1.0" encoding="utf-8" standalone="no"?>
<!DOCTYPE svg PUBLIC "-//W3C//DTD SVG 1.1//EN"
  "http://www.w3.org/Graphics/SVG/1.1/DTD/svg11.dtd">
<svg xmlns:xlink="http://www.w3.org/1999/xlink" width="409.06125pt" height="353.864pt" viewBox="0 0 409.06125 353.864" xmlns="http://www.w3.org/2000/svg" version="1.1">
 <metadata>
  <rdf:RDF xmlns:dc="http://purl.org/dc/elements/1.1/" xmlns:cc="http://creativecommons.org/ns#" xmlns:rdf="http://www.w3.org/1999/02/22-rdf-syntax-ns#">
   <cc:Work>
    <dc:type rdf:resource="http://purl.org/dc/dcmitype/StillImage"/>
    <dc:date>2026-06-26T16:05:33.828288</dc:date>
    <dc:format>image/svg+xml</dc:format>
    <dc:creator>
     <cc:Agent>
      <dc:title>Matplotlib v3.11.0, https://matplotlib.org/</dc:title>
     </cc:Agent>
    </dc:creator>
   </cc:Work>
  </rdf:RDF>
 </metadata>
 <defs>
  <style type="text/css">*{stroke-linejoin: round; stroke-linecap: butt}</style>
 </defs>
 <g id="figure_1">
  <g id="patch_1">
   <path d="M 0 353.864 
L 409.06125 353.864 
L 409.06125 0 
L 0 0 
z
" style="fill: #fbfaf7"/>
  </g>
  <g id="axes_1">
   <g id="patch_2">
    <path d="M 38.38 152.276636 
L 395.5 152.276636 
L 395.5 7.2 
L 38.38 7.2 
z
" style="fill: #fbfaf7"/>
   </g>
   <g id="FillBetweenPolyCollection_1">
    <defs>
     <path id="m4101c77f50" d="M 38.38 -212.747106 
L 38.38 -324.344518 
L 39.874226 -319.598644 
L 41.368452 -315.149197 
L 42.862678 -310.971993 
L 44.356904 -307.045268 
L 45.85113 -303.349388 
L 47.345356 -299.866608 
L 48.839582 -296.580854 
L 50.333808 -293.477539 
L 51.828033 -290.543404 
L 53.322259 -287.766371 
L 54.816485 -285.135421 
L 56.310711 -282.640485 
L 57.804937 -280.272347 
L 59.299163 -278.022557 
L 60.793389 -275.883359 
L 62.287615 -273.847622 
L 63.781841 -271.90878 
L 65.276067 -270.06078 
L 66.770293 -268.298034 
L 68.264519 -266.615377 
L 69.758745 -265.008031 
L 71.252971 -263.471567 
L 72.747197 -262.001878 
L 74.241423 -260.59515 
L 75.735649 -259.247838 
L 77.229874 -257.956641 
L 78.7241 -256.718486 
L 80.218326 -255.530508 
L 81.712552 -254.39003 
L 83.206778 -253.294555 
L 84.701004 -252.241745 
L 86.19523 -251.229413 
L 87.689456 -250.255511 
L 89.183682 -249.318117 
L 90.677908 -248.415429 
L 92.172134 -247.545755 
L 93.66636 -246.707505 
L 95.160586 -245.899182 
L 96.654812 -245.119379 
L 98.149038 -244.366769 
L 99.643264 -243.640103 
L 101.13749 -242.938203 
L 102.631715 -242.259954 
L 104.125941 -241.604307 
L 105.620167 -240.970268 
L 107.114393 -240.356898 
L 108.608619 -239.763308 
L 110.102845 -239.188658 
L 111.597071 -238.632148 
L 113.091297 -238.093025 
L 114.585523 -237.570571 
L 116.079749 -237.064106 
L 117.573975 -236.572984 
L 119.068201 -236.096592 
L 120.562427 -235.634347 
L 122.056653 -235.185693 
L 123.550879 -234.750103 
L 125.045105 -234.327075 
L 126.539331 -233.916131 
L 128.033556 -233.516814 
L 129.527782 -233.12869 
L 131.022008 -232.751345 
L 132.516234 -232.384382 
L 134.01046 -232.027426 
L 135.504686 -231.680114 
L 136.998912 -231.342103 
L 138.493138 -231.013064 
L 139.987364 -230.692682 
L 141.48159 -230.380655 
L 142.975816 -230.076697 
L 144.470042 -229.78053 
L 145.964268 -229.491891 
L 147.458494 -229.210528 
L 148.95272 -228.936197 
L 150.446946 -228.668666 
L 151.941172 -228.407712 
L 153.435397 -228.153121 
L 154.929623 -227.904689 
L 156.423849 -227.662218 
L 157.918075 -227.425518 
L 159.412301 -227.194409 
L 160.906527 -226.968716 
L 162.400753 -226.74827 
L 163.894979 -226.53291 
L 165.389205 -226.322481 
L 166.883431 -226.116833 
L 168.377657 -225.915824 
L 169.871883 -225.719313 
L 171.366109 -225.527169 
L 172.860335 -225.339262 
L 174.354561 -225.15547 
L 175.848787 -224.975672 
L 177.343013 -224.799753 
L 178.837238 -224.627604 
L 180.331464 -224.459117 
L 181.82569 -224.294189 
L 183.319916 -224.13272 
L 184.814142 -223.974615 
L 186.308368 -223.81978 
L 187.802594 -223.668126 
L 189.29682 -223.519566 
L 190.791046 -223.374018 
L 192.285272 -223.231399 
L 193.779498 -223.091632 
L 195.273724 -222.954642 
L 196.76795 -222.820354 
L 198.262176 -222.6887 
L 199.756402 -222.55961 
L 201.250628 -222.433017 
L 202.744854 -222.308859 
L 204.239079 -222.187073 
L 205.733305 -222.067599 
L 207.227531 -221.950379 
L 208.721757 -221.835356 
L 210.215983 -221.722477 
L 211.710209 -221.611687 
L 213.204435 -221.502936 
L 214.698661 -221.396174 
L 216.192887 -221.291353 
L 217.687113 -221.188426 
L 219.181339 -221.087347 
L 220.675565 -220.988074 
L 222.169791 -220.890562 
L 223.664017 -220.794771 
L 225.158243 -220.70066 
L 226.652469 -220.608191 
L 228.146695 -220.517324 
L 229.640921 -220.428024 
L 231.135146 -220.340255 
L 232.629372 -220.253982 
L 234.123598 -220.16917 
L 235.617824 -220.085788 
L 237.11205 -220.003803 
L 238.606276 -219.923185 
L 240.100502 -219.843902 
L 241.594728 -219.765926 
L 243.088954 -219.689228 
L 244.58318 -219.613781 
L 246.077406 -219.539556 
L 247.571632 -219.466529 
L 249.065858 -219.394673 
L 250.560084 -219.323964 
L 252.05431 -219.254377 
L 253.548536 -219.185888 
L 255.042762 -219.118475 
L 256.536987 -219.052116 
L 258.031213 -218.986787 
L 259.525439 -218.922469 
L 261.019665 -218.85914 
L 262.513891 -218.79678 
L 264.008117 -218.73537 
L 265.502343 -218.67489 
L 266.996569 -218.615322 
L 268.490795 -218.556647 
L 269.985021 -218.498848 
L 271.479247 -218.441907 
L 272.973473 -218.385808 
L 274.467699 -218.330533 
L 275.961925 -218.276067 
L 277.456151 -218.222395 
L 278.950377 -218.1695 
L 280.444603 -218.117367 
L 281.938828 -218.065984 
L 283.433054 -218.015334 
L 284.92728 -217.965404 
L 286.421506 -217.91618 
L 287.915732 -217.86765 
L 289.409958 -217.8198 
L 290.904184 -217.772618 
L 292.39841 -217.726091 
L 293.892636 -217.680207 
L 295.386862 -217.634954 
L 296.881088 -217.590321 
L 298.375314 -217.546297 
L 299.86954 -217.50287 
L 301.363766 -217.46003 
L 302.857992 -217.417767 
L 304.352218 -217.376069 
L 305.846444 -217.334927 
L 307.340669 -217.294331 
L 308.834895 -217.254272 
L 310.329121 -217.21474 
L 311.823347 -217.175726 
L 313.317573 -217.13722 
L 314.811799 -217.099214 
L 316.306025 -217.0617 
L 317.800251 -217.024669 
L 319.294477 -216.988113 
L 320.788703 -216.952023 
L 322.282929 -216.916392 
L 323.777155 -216.881211 
L 325.271381 -216.846475 
L 326.765607 -216.812174 
L 328.259833 -216.778302 
L 329.754059 -216.744851 
L 331.248285 -216.711816 
L 332.74251 -216.679188 
L 334.236736 -216.646961 
L 335.730962 -216.615128 
L 337.225188 -216.583684 
L 338.719414 -216.552622 
L 340.21364 -216.521935 
L 341.707866 -216.491618 
L 343.202092 -216.461665 
L 344.696318 -216.43207 
L 346.190544 -216.402827 
L 347.68477 -216.373931 
L 349.178996 -216.345376 
L 350.673222 -216.317157 
L 352.167448 -216.289269 
L 353.661674 -216.261706 
L 355.1559 -216.234464 
L 356.650126 -216.207537 
L 358.144351 -216.180921 
L 359.638577 -216.15461 
L 361.132803 -216.128601 
L 362.627029 -216.102889 
L 364.121255 -216.077469 
L 365.615481 -216.052336 
L 367.109707 -216.027487 
L 368.603933 -216.002917 
L 370.098159 -215.978623 
L 371.592385 -215.954599 
L 373.086611 -215.930842 
L 374.580837 -215.907348 
L 376.075063 -215.884113 
L 377.569289 -215.861133 
L 379.063515 -215.838405 
L 380.557741 -215.815925 
L 382.051967 -215.793689 
L 383.546192 -215.771694 
L 385.040418 -215.749936 
L 386.534644 -215.728412 
L 388.02887 -215.707119 
L 389.523096 -215.686053 
L 391.017322 -215.665212 
L 392.511548 -215.644591 
L 394.005774 -215.624188 
L 395.5 -215.603999 
L 395.5 -212.747106 
L 395.5 -212.747106 
L 394.005774 -212.747106 
L 392.511548 -212.747106 
L 391.017322 -212.747106 
L 389.523096 -212.747106 
L 388.02887 -212.747106 
L 386.534644 -212.747106 
L 385.040418 -212.747106 
L 383.546192 -212.747106 
L 382.051967 -212.747106 
L 380.557741 -212.747106 
L 379.063515 -212.747106 
L 377.569289 -212.747106 
L 376.075063 -212.747106 
L 374.580837 -212.747106 
L 373.086611 -212.747106 
L 371.592385 -212.747106 
L 370.098159 -212.747106 
L 368.603933 -212.747106 
L 367.109707 -212.747106 
L 365.615481 -212.747106 
L 364.121255 -212.747106 
L 362.627029 -212.747106 
L 361.132803 -212.747106 
L 359.638577 -212.747106 
L 358.144351 -212.747106 
L 356.650126 -212.747106 
L 355.1559 -212.747106 
L 353.661674 -212.747106 
L 352.167448 -212.747106 
L 350.673222 -212.747106 
L 349.178996 -212.747106 
L 347.68477 -212.747106 
L 346.190544 -212.747106 
L 344.696318 -212.747106 
L 343.202092 -212.747106 
L 341.707866 -212.747106 
L 340.21364 -212.747106 
L 338.719414 -212.747106 
L 337.225188 -212.747106 
L 335.730962 -212.747106 
L 334.236736 -212.747106 
L 332.74251 -212.747106 
L 331.248285 -212.747106 
L 329.754059 -212.747106 
L 328.259833 -212.747106 
L 326.765607 -212.747106 
L 325.271381 -212.747106 
L 323.777155 -212.747106 
L 322.282929 -212.747106 
L 320.788703 -212.747106 
L 319.294477 -212.747106 
L 317.800251 -212.747106 
L 316.306025 -212.747106 
L 314.811799 -212.747106 
L 313.317573 -212.747106 
L 311.823347 -212.747106 
L 310.329121 -212.747106 
L 308.834895 -212.747106 
L 307.340669 -212.747106 
L 305.846444 -212.747106 
L 304.352218 -212.747106 
L 302.857992 -212.747106 
L 301.363766 -212.747106 
L 299.86954 -212.747106 
L 298.375314 -212.747106 
L 296.881088 -212.747106 
L 295.386862 -212.747106 
L 293.892636 -212.747106 
L 292.39841 -212.747106 
L 290.904184 -212.747106 
L 289.409958 -212.747106 
L 287.915732 -212.747106 
L 286.421506 -212.747106 
L 284.92728 -212.747106 
L 283.433054 -212.747106 
L 281.938828 -212.747106 
L 280.444603 -212.747106 
L 278.950377 -212.747106 
L 277.456151 -212.747106 
L 275.961925 -212.747106 
L 274.467699 -212.747106 
L 272.973473 -212.747106 
L 271.479247 -212.747106 
L 269.985021 -212.747106 
L 268.490795 -212.747106 
L 266.996569 -212.747106 
L 265.502343 -212.747106 
L 264.008117 -212.747106 
L 262.513891 -212.747106 
L 261.019665 -212.747106 
L 259.525439 -212.747106 
L 258.031213 -212.747106 
L 256.536987 -212.747106 
L 255.042762 -212.747106 
L 253.548536 -212.747106 
L 252.05431 -212.747106 
L 250.560084 -212.747106 
L 249.065858 -212.747106 
L 247.571632 -212.747106 
L 246.077406 -212.747106 
L 244.58318 -212.747106 
L 243.088954 -212.747106 
L 241.594728 -212.747106 
L 240.100502 -212.747106 
L 238.606276 -212.747106 
L 237.11205 -212.747106 
L 235.617824 -212.747106 
L 234.123598 -212.747106 
L 232.629372 -212.747106 
L 231.135146 -212.747106 
L 229.640921 -212.747106 
L 228.146695 -212.747106 
L 226.652469 -212.747106 
L 225.158243 -212.747106 
L 223.664017 -212.747106 
L 222.169791 -212.747106 
L 220.675565 -212.747106 
L 219.181339 -212.747106 
L 217.687113 -212.747106 
L 216.192887 -212.747106 
L 214.698661 -212.747106 
L 213.204435 -212.747106 
L 211.710209 -212.747106 
L 210.215983 -212.747106 
L 208.721757 -212.747106 
L 207.227531 -212.747106 
L 205.733305 -212.747106 
L 204.239079 -212.747106 
L 202.744854 -212.747106 
L 201.250628 -212.747106 
L 199.756402 -212.747106 
L 198.262176 -212.747106 
L 196.76795 -212.747106 
L 195.273724 -212.747106 
L 193.779498 -212.747106 
L 192.285272 -212.747106 
L 190.791046 -212.747106 
L 189.29682 -212.747106 
L 187.802594 -212.747106 
L 186.308368 -212.747106 
L 184.814142 -212.747106 
L 183.319916 -212.747106 
L 181.82569 -212.747106 
L 180.331464 -212.747106 
L 178.837238 -212.747106 
L 177.343013 -212.747106 
L 175.848787 -212.747106 
L 174.354561 -212.747106 
L 172.860335 -212.747106 
L 171.366109 -212.747106 
L 169.871883 -212.747106 
L 168.377657 -212.747106 
L 166.883431 -212.747106 
L 165.389205 -212.747106 
L 163.894979 -212.747106 
L 162.400753 -212.747106 
L 160.906527 -212.747106 
L 159.412301 -212.747106 
L 157.918075 -212.747106 
L 156.423849 -212.747106 
L 154.929623 -212.747106 
L 153.435397 -212.747106 
L 151.941172 -212.747106 
L 150.446946 -212.747106 
L 148.95272 -212.747106 
L 147.458494 -212.747106 
L 145.964268 -212.747106 
L 144.470042 -212.747106 
L 142.975816 -212.747106 
L 141.48159 -212.747106 
L 139.987364 -212.747106 
L 138.493138 -212.747106 
L 136.998912 -212.747106 
L 135.504686 -212.747106 
L 134.01046 -212.747106 
L 132.516234 -212.747106 
L 131.022008 -212.747106 
L 129.527782 -212.747106 
L 128.033556 -212.747106 
L 126.539331 -212.747106 
L 125.045105 -212.747106 
L 123.550879 -212.747106 
L 122.056653 -212.747106 
L 120.562427 -212.747106 
L 119.068201 -212.747106 
L 117.573975 -212.747106 
L 116.079749 -212.747106 
L 114.585523 -212.747106 
L 113.091297 -212.747106 
L 111.597071 -212.747106 
L 110.102845 -212.747106 
L 108.608619 -212.747106 
L 107.114393 -212.747106 
L 105.620167 -212.747106 
L 104.125941 -212.747106 
L 102.631715 -212.747106 
L 101.13749 -212.747106 
L 99.643264 -212.747106 
L 98.149038 -212.747106 
L 96.654812 -212.747106 
L 95.160586 -212.747106 
L 93.66636 -212.747106 
L 92.172134 -212.747106 
L 90.677908 -212.747106 
L 89.183682 -212.747106 
L 87.689456 -212.747106 
L 86.19523 -212.747106 
L 84.701004 -212.747106 
L 83.206778 -212.747106 
L 81.712552 -212.747106 
L 80.218326 -212.747106 
L 78.7241 -212.747106 
L 77.229874 -212.747106 
L 75.735649 -212.747106 
L 74.241423 -212.747106 
L 72.747197 -212.747106 
L 71.252971 -212.747106 
L 69.758745 -212.747106 
L 68.264519 -212.747106 
L 66.770293 -212.747106 
L 65.276067 -212.747106 
L 63.781841 -212.747106 
L 62.287615 -212.747106 
L 60.793389 -212.747106 
L 59.299163 -212.747106 
L 57.804937 -212.747106 
L 56.310711 -212.747106 
L 54.816485 -212.747106 
L 53.322259 -212.747106 
L 51.828033 -212.747106 
L 50.333808 -212.747106 
L 48.839582 -212.747106 
L 47.345356 -212.747106 
L 45.85113 -212.747106 
L 44.356904 -212.747106 
L 42.862678 -212.747106 
L 41.368452 -212.747106 
L 39.874226 -212.747106 
L 38.38 -212.747106 
z
"/>
    </defs>
    <g clip-path="url(#pa7a14eef54)">
     <use xlink:href="#m4101c77f50" x="0" y="353.864" style="fill: #2f6f4f; fill-opacity: 0.16"/>
    </g>
   </g>
   <g id="matplotlib.axis_1">
    <g id="xtick_1">
     <g id="line2d_1">
      <defs>
       <path id="m842a6870a9" d="M 0 0 
L 0 3.5 
" style="stroke: #8a929b; stroke-width: 0.8"/>
      </defs>
      <g>
       <use xlink:href="#m842a6870a9" x="76.642857" y="152.276636" style="fill: #8a929b; stroke: #8a929b; stroke-width: 0.8"/>
      </g>
     </g>
    </g>
    <g id="xtick_2">
     <g id="line2d_2">
      <g>
       <use xlink:href="#m842a6870a9" x="129.785714" y="152.276636" style="fill: #8a929b; stroke: #8a929b; stroke-width: 0.8"/>
      </g>
     </g>
    </g>
    <g id="xtick_3">
     <g id="line2d_3">
      <g>
       <use xlink:href="#m842a6870a9" x="182.928571" y="152.276636" style="fill: #8a929b; stroke: #8a929b; stroke-width: 0.8"/>
      </g>
     </g>
    </g>
    <g id="xtick_4">
     <g id="line2d_4">
      <g>
       <use xlink:href="#m842a6870a9" x="236.071429" y="152.276636" style="fill: #8a929b; stroke: #8a929b; stroke-width: 0.8"/>
      </g>
     </g>
    </g>
    <g id="xtick_5">
     <g id="line2d_5">
      <g>
       <use xlink:href="#m842a6870a9" x="289.214286" y="152.276636" style="fill: #8a929b; stroke: #8a929b; stroke-width: 0.8"/>
      </g>
     </g>
    </g>
    <g id="xtick_6">
     <g id="line2d_6">
      <g>
       <use xlink:href="#m842a6870a9" x="342.357143" y="152.276636" style="fill: #8a929b; stroke: #8a929b; stroke-width: 0.8"/>
      </g>
     </g>
    </g>
    <g id="xtick_7">
     <g id="line2d_7">
      <g>
       <use xlink:href="#m842a6870a9" x="395.5" y="152.276636" style="fill: #8a929b; stroke: #8a929b; stroke-width: 0.8"/>
      </g>
     </g>
    </g>
   </g>
   <g id="matplotlib.axis_2">
    <g id="ytick_1">
     <g id="line2d_8">
      <defs>
       <path id="mbc104aa925" d="M 0 0 
L -3.5 0 
" style="stroke: #8a929b; stroke-width: 0.8"/>
      </defs>
      <g>
       <use xlink:href="#mbc104aa925" x="38.38" y="141.116894" style="fill: #8a929b; stroke: #8a929b; stroke-width: 0.8"/>
      </g>
     </g>
     <g id="text_1">
      <!-- 0 -->
      <g style="fill: #8a929b" transform="translate(26.29 144.155957) scale(0.08 -0.08)">
       <defs>
        <path id="DejaVuSans-13" d="M 2034 4250 
Q 1547 4250 1301 3770 
Q 1056 3291 1056 2328 
Q 1056 1369 1301 889 
Q 1547 409 2034 409 
Q 2525 409 2770 889 
Q 3016 1369 3016 2328 
Q 3016 3291 2770 3770 
Q 2525 4250 2034 4250 
z
M 2034 4750 
Q 2819 4750 3233 4129 
Q 3647 3509 3647 2328 
Q 3647 1150 3233 529 
Q 2819 -91 2034 -91 
Q 1250 -91 836 529 
Q 422 1150 422 2328 
Q 422 3509 836 4129 
Q 1250 4750 2034 4750 
z
" transform="scale(0.015625)"/>
       </defs>
       <use xlink:href="#DejaVuSans-13"/>
      </g>
     </g>
    </g>
    <g id="ytick_2">
     <g id="line2d_9">
      <g>
       <use xlink:href="#mbc104aa925" x="38.38" y="118.261744" style="fill: #8a929b; stroke: #8a929b; stroke-width: 0.8"/>
      </g>
     </g>
     <g id="text_2">
      <!-- 2 -->
      <g style="fill: #8a929b" transform="translate(26.29 121.300807) scale(0.08 -0.08)">
       <defs>
        <path id="DejaVuSans-15" d="M 1228 531 
L 3431 531 
L 3431 0 
L 469 0 
L 469 531 
Q 828 903 1448 1529 
Q 2069 2156 2228 2338 
Q 2531 2678 2651 2914 
Q 2772 3150 2772 3378 
Q 2772 3750 2511 3984 
Q 2250 4219 1831 4219 
Q 1534 4219 1204 4116 
Q 875 4013 500 3803 
L 500 4441 
Q 881 4594 1212 4672 
Q 1544 4750 1819 4750 
Q 2544 4750 2975 4387 
Q 3406 4025 3406 3419 
Q 3406 3131 3298 2873 
Q 3191 2616 2906 2266 
Q 2828 2175 2409 1742 
Q 1991 1309 1228 531 
z
" transform="scale(0.015625)"/>
       </defs>
       <use xlink:href="#DejaVuSans-15"/>
      </g>
     </g>
    </g>
    <g id="ytick_3">
     <g id="line2d_10">
      <g>
       <use xlink:href="#mbc104aa925" x="38.38" y="95.406594" style="fill: #8a929b; stroke: #8a929b; stroke-width: 0.8"/>
      </g>
     </g>
     <g id="text_3">
      <!-- 4 -->
      <g style="fill: #8a929b" transform="translate(26.29 98.445657) scale(0.08 -0.08)">
       <defs>
        <path id="DejaVuSans-17" d="M 2419 4116 
L 825 1625 
L 2419 1625 
L 2419 4116 
z
M 2253 4666 
L 3047 4666 
L 3047 1625 
L 3713 1625 
L 3713 1100 
L 3047 1100 
L 3047 0 
L 2419 0 
L 2419 1100 
L 313 1100 
L 313 1709 
L 2253 4666 
z
" transform="scale(0.015625)"/>
       </defs>
       <use xlink:href="#DejaVuSans-17"/>
      </g>
     </g>
    </g>
    <g id="ytick_4">
     <g id="line2d_11">
      <g>
       <use xlink:href="#mbc104aa925" x="38.38" y="72.551444" style="fill: #8a929b; stroke: #8a929b; stroke-width: 0.8"/>
      </g>
     </g>
     <g id="text_4">
      <!-- 6 -->
      <g style="fill: #8a929b" transform="translate(26.29 75.590507) scale(0.08 -0.08)">
       <defs>
        <path id="DejaVuSans-19" d="M 2113 2584 
Q 1688 2584 1439 2293 
Q 1191 2003 1191 1497 
Q 1191 994 1439 701 
Q 1688 409 2113 409 
Q 2538 409 2786 701 
Q 3034 994 3034 1497 
Q 3034 2003 2786 2293 
Q 2538 2584 2113 2584 
z
M 3366 4563 
L 3366 3988 
Q 3128 4100 2886 4159 
Q 2644 4219 2406 4219 
Q 1781 4219 1451 3797 
Q 1122 3375 1075 2522 
Q 1259 2794 1537 2939 
Q 1816 3084 2150 3084 
Q 2853 3084 3261 2657 
Q 3669 2231 3669 1497 
Q 3669 778 3244 343 
Q 2819 -91 2113 -91 
Q 1303 -91 875 529 
Q 447 1150 447 2328 
Q 447 3434 972 4092 
Q 1497 4750 2381 4750 
Q 2619 4750 2861 4703 
Q 3103 4656 3366 4563 
z
" transform="scale(0.015625)"/>
       </defs>
       <use xlink:href="#DejaVuSans-19"/>
      </g>
     </g>
    </g>
    <g id="ytick_5">
     <g id="line2d_12">
      <g>
       <use xlink:href="#mbc104aa925" x="38.38" y="49.696294" style="fill: #8a929b; stroke: #8a929b; stroke-width: 0.8"/>
      </g>
     </g>
     <g id="text_5">
      <!-- 8 -->
      <g style="fill: #8a929b" transform="translate(26.29 52.735357) scale(0.08 -0.08)">
       <defs>
        <path id="DejaVuSans-1b" d="M 2034 2216 
Q 1584 2216 1326 1975 
Q 1069 1734 1069 1313 
Q 1069 891 1326 650 
Q 1584 409 2034 409 
Q 2484 409 2743 651 
Q 3003 894 3003 1313 
Q 3003 1734 2745 1975 
Q 2488 2216 2034 2216 
z
M 1403 2484 
Q 997 2584 770 2862 
Q 544 3141 544 3541 
Q 544 4100 942 4425 
Q 1341 4750 2034 4750 
Q 2731 4750 3128 4425 
Q 3525 4100 3525 3541 
Q 3525 3141 3298 2862 
Q 3072 2584 2669 2484 
Q 3125 2378 3379 2068 
Q 3634 1759 3634 1313 
Q 3634 634 3220 271 
Q 2806 -91 2034 -91 
Q 1263 -91 848 271 
Q 434 634 434 1313 
Q 434 1759 690 2068 
Q 947 2378 1403 2484 
z
M 1172 3481 
Q 1172 3119 1398 2916 
Q 1625 2713 2034 2713 
Q 2441 2713 2670 2916 
Q 2900 3119 2900 3481 
Q 2900 3844 2670 4047 
Q 2441 4250 2034 4250 
Q 1625 4250 1398 4047 
Q 1172 3844 1172 3481 
z
" transform="scale(0.015625)"/>
       </defs>
       <use xlink:href="#DejaVuSans-1b"/>
      </g>
     </g>
    </g>
    <g id="ytick_6">
     <g id="line2d_13">
      <g>
       <use xlink:href="#mbc104aa925" x="38.38" y="26.841145" style="fill: #8a929b; stroke: #8a929b; stroke-width: 0.8"/>
      </g>
     </g>
     <g id="text_6">
      <!-- 10 -->
      <g style="fill: #8a929b" transform="translate(21.2 29.880207) scale(0.08 -0.08)">
       <defs>
        <path id="DejaVuSans-14" d="M 794 531 
L 1825 531 
L 1825 4091 
L 703 3866 
L 703 4441 
L 1819 4666 
L 2450 4666 
L 2450 531 
L 3481 531 
L 3481 0 
L 794 0 
L 794 531 
z
" transform="scale(0.015625)"/>
       </defs>
       <use xlink:href="#DejaVuSans-14"/>
       <use xlink:href="#DejaVuSans-13" transform="translate(63.625 0)"/>
      </g>
     </g>
    </g>
    <g id="text_7">
     <!-- F  (N) -->
     <g style="fill: #1f2933" transform="translate(14.797656 93.434412) rotate(-90) scale(0.1 -0.1)">
      <defs>
       <path id="DejaVuSans-29" d="M 628 4666 
L 3309 4666 
L 3309 4134 
L 1259 4134 
L 1259 2759 
L 3109 2759 
L 3109 2228 
L 1259 2228 
L 1259 0 
L 628 0 
L 628 4666 
z
" transform="scale(0.015625)"/>
       <path id="DejaVuSans-3" transform="scale(0.015625)"/>
       <path id="DejaVuSans-b" d="M 1984 4856 
Q 1566 4138 1362 3434 
Q 1159 2731 1159 2009 
Q 1159 1288 1364 580 
Q 1569 -128 1984 -844 
L 1484 -844 
Q 1016 -109 783 600 
Q 550 1309 550 2009 
Q 550 2706 781 3412 
Q 1013 4119 1484 4856 
L 1984 4856 
z
" transform="scale(0.015625)"/>
       <path id="DejaVuSans-31" d="M 628 4666 
L 1478 4666 
L 3547 763 
L 3547 4666 
L 4159 4666 
L 4159 0 
L 3309 0 
L 1241 3903 
L 1241 0 
L 628 0 
L 628 4666 
z
" transform="scale(0.015625)"/>
       <path id="DejaVuSans-c" d="M 513 4856 
L 1013 4856 
Q 1481 4119 1714 3412 
Q 1947 2706 1947 2009 
Q 1947 1309 1714 600 
Q 1481 -109 1013 -844 
L 513 -844 
Q 928 -128 1133 580 
Q 1338 1288 1338 2009 
Q 1338 2731 1133 3434 
Q 928 4138 513 4856 
z
" transform="scale(0.015625)"/>
      </defs>
      <use xlink:href="#DejaVuSans-29"/>
      <use xlink:href="#DejaVuSans-3" transform="translate(57.515625 0)"/>
      <use xlink:href="#DejaVuSans-3" transform="translate(89.296875 0)"/>
      <use xlink:href="#DejaVuSans-b" transform="translate(121.078125 0)"/>
      <use xlink:href="#DejaVuSans-31" transform="translate(160.09375 0)"/>
      <use xlink:href="#DejaVuSans-c" transform="translate(234.90625 0)"/>
     </g>
    </g>
   </g>
   <g id="line2d_14">
    <path d="M 38.38 141.116894 
L 395.5 141.116894 
" clip-path="url(#pa7a14eef54)" style="fill: none; stroke: #d8d4c8; stroke-linecap: square"/>
   </g>
   <g id="line2d_15">
    <path d="M 38.38 29.519482 
L 41.368452 38.714803 
L 44.356904 46.818732 
L 47.345356 53.997392 
L 50.333808 60.386461 
L 53.322259 66.097629 
L 56.310711 71.223515 
L 59.299163 75.841443 
L 62.287615 80.016378 
L 65.276067 83.80322 
L 68.264519 87.248623 
L 71.252971 90.392433 
L 74.241423 93.26885 
L 77.229874 95.907359 
L 80.218326 98.333492 
L 84.701004 101.622255 
L 89.183682 104.545883 
L 93.66636 107.156495 
L 98.149038 109.497231 
L 102.631715 111.604046 
L 107.114393 113.507102 
L 113.091297 115.770975 
L 119.068201 117.767408 
L 125.045105 119.536925 
L 132.516234 121.479618 
L 139.987364 123.171318 
L 147.458494 124.653472 
L 156.423849 126.201782 
L 166.883431 127.747167 
L 177.343013 129.064247 
L 189.29682 130.344434 
L 202.744854 131.555141 
L 217.687113 132.675574 
L 235.617824 133.778212 
L 255.042762 134.745525 
L 277.456151 135.641605 
L 304.352218 136.487931 
L 335.730962 137.248872 
L 374.580837 137.956652 
L 395.5 138.260001 
L 395.5 138.260001 
" clip-path="url(#pa7a14eef54)" style="fill: none; stroke: #1f2933; stroke-width: 2.2; stroke-linecap: square"/>
   </g>
   <g id="patch_3">
    <path d="M 38.38 152.276636 
L 38.38 7.2 
" style="fill: none; stroke: #d8d4c8; stroke-width: 0.8; stroke-linejoin: miter; stroke-linecap: square"/>
   </g>
   <g id="patch_4">
    <path d="M 38.38 152.276636 
L 395.5 152.276636 
" style="fill: none; stroke: #d8d4c8; stroke-width: 0.8; stroke-linejoin: miter; stroke-linecap: square"/>
   </g>
   <g id="text_8">
    <g id="patch_5">
     <path d="M 143.394547 144.003583 
L 290.485453 144.003583 
Q 292.893453 144.003583 292.893453 141.595583 
L 292.893453 132.994911 
Q 292.893453 130.586911 290.485453 130.586911 
L 143.394547 130.586911 
Q 140.986547 130.586911 140.986547 132.994911 
L 140.986547 141.595583 
Q 140.986547 144.003583 143.394547 144.003583 
z
" style="fill: #fbfaf7; opacity: 0.92; stroke: #d8d4c8; stroke-width: 0.6; stroke-linejoin: miter"/>
    </g>
    <!-- shaded area  =  ∫ F dx  =  work W -->
    <g style="fill: #1f2933" transform="translate(143.394547 139.529567) scale(0.086 -0.086)">
     <defs>
      <path id="DejaVuSans-56" d="M 2834 3397 
L 2834 2853 
Q 2591 2978 2328 3040 
Q 2066 3103 1784 3103 
Q 1356 3103 1142 2972 
Q 928 2841 928 2578 
Q 928 2378 1081 2264 
Q 1234 2150 1697 2047 
L 1894 2003 
Q 2506 1872 2764 1633 
Q 3022 1394 3022 966 
Q 3022 478 2636 193 
Q 2250 -91 1575 -91 
Q 1294 -91 989 -36 
Q 684 19 347 128 
L 347 722 
Q 666 556 975 473 
Q 1284 391 1588 391 
Q 1994 391 2212 530 
Q 2431 669 2431 922 
Q 2431 1156 2273 1281 
Q 2116 1406 1581 1522 
L 1381 1569 
Q 847 1681 609 1914 
Q 372 2147 372 2553 
Q 372 3047 722 3315 
Q 1072 3584 1716 3584 
Q 2034 3584 2315 3537 
Q 2597 3491 2834 3397 
z
" transform="scale(0.015625)"/>
      <path id="DejaVuSans-4b" d="M 3513 2113 
L 3513 0 
L 2938 0 
L 2938 2094 
Q 2938 2591 2744 2837 
Q 2550 3084 2163 3084 
Q 1697 3084 1428 2787 
Q 1159 2491 1159 1978 
L 1159 0 
L 581 0 
L 581 4863 
L 1159 4863 
L 1159 2956 
Q 1366 3272 1645 3428 
Q 1925 3584 2291 3584 
Q 2894 3584 3203 3211 
Q 3513 2838 3513 2113 
z
" transform="scale(0.015625)"/>
      <path id="DejaVuSans-44" d="M 2194 1759 
Q 1497 1759 1228 1600 
Q 959 1441 959 1056 
Q 959 750 1161 570 
Q 1363 391 1709 391 
Q 2188 391 2477 730 
Q 2766 1069 2766 1631 
L 2766 1759 
L 2194 1759 
z
M 3341 1997 
L 3341 0 
L 2766 0 
L 2766 531 
Q 2569 213 2275 61 
Q 1981 -91 1556 -91 
Q 1019 -91 701 211 
Q 384 513 384 1019 
Q 384 1609 779 1909 
Q 1175 2209 1959 2209 
L 2766 2209 
L 2766 2266 
Q 2766 2663 2505 2880 
Q 2244 3097 1772 3097 
Q 1472 3097 1187 3025 
Q 903 2953 641 2809 
L 641 3341 
Q 956 3463 1253 3523 
Q 1550 3584 1831 3584 
Q 2591 3584 2966 3190 
Q 3341 2797 3341 1997 
z
" transform="scale(0.015625)"/>
      <path id="DejaVuSans-47" d="M 2906 2969 
L 2906 4863 
L 3481 4863 
L 3481 0 
L 2906 0 
L 2906 525 
Q 2725 213 2448 61 
Q 2172 -91 1784 -91 
Q 1150 -91 751 415 
Q 353 922 353 1747 
Q 353 2572 751 3078 
Q 1150 3584 1784 3584 
Q 2172 3584 2448 3432 
Q 2725 3281 2906 2969 
z
M 947 1747 
Q 947 1113 1208 752 
Q 1469 391 1925 391 
Q 2381 391 2643 752 
Q 2906 1113 2906 1747 
Q 2906 2381 2643 2742 
Q 2381 3103 1925 3103 
Q 1469 3103 1208 2742 
Q 947 2381 947 1747 
z
" transform="scale(0.015625)"/>
      <path id="DejaVuSans-48" d="M 3597 1894 
L 3597 1613 
L 953 1613 
Q 991 1019 1311 708 
Q 1631 397 2203 397 
Q 2534 397 2845 478 
Q 3156 559 3463 722 
L 3463 178 
Q 3153 47 2828 -22 
Q 2503 -91 2169 -91 
Q 1331 -91 842 396 
Q 353 884 353 1716 
Q 353 2575 817 3079 
Q 1281 3584 2069 3584 
Q 2775 3584 3186 3129 
Q 3597 2675 3597 1894 
z
M 3022 2063 
Q 3016 2534 2758 2815 
Q 2500 3097 2075 3097 
Q 1594 3097 1305 2825 
Q 1016 2553 972 2059 
L 3022 2063 
z
" transform="scale(0.015625)"/>
      <path id="DejaVuSans-55" d="M 2631 2963 
Q 2534 3019 2420 3045 
Q 2306 3072 2169 3072 
Q 1681 3072 1420 2755 
Q 1159 2438 1159 1844 
L 1159 0 
L 581 0 
L 581 3500 
L 1159 3500 
L 1159 2956 
Q 1341 3275 1631 3429 
Q 1922 3584 2338 3584 
Q 2397 3584 2469 3576 
Q 2541 3569 2628 3553 
L 2631 2963 
z
" transform="scale(0.015625)"/>
      <path id="DejaVuSans-20" d="M 678 2906 
L 4684 2906 
L 4684 2381 
L 678 2381 
L 678 2906 
z
M 678 1631 
L 4684 1631 
L 4684 1100 
L 678 1100 
L 678 1631 
z
" transform="scale(0.015625)"/>
      <path id="DejaVuSans-cb5" d="M 1509 3906 
Q 1534 4428 1787 4636 
Q 2041 4844 2277 4844 
Q 2513 4844 2709 4648 
Q 2906 4453 2969 4016 
L 2506 3969 
Q 2453 4375 2275 4375 
Q 2053 4375 2028 3828 
L 1825 -422 
Q 1800 -944 1547 -1151 
Q 1294 -1359 1058 -1359 
Q 822 -1359 625 -1164 
Q 428 -969 366 -531 
L 828 -484 
Q 881 -891 1059 -891 
Q 1281 -891 1306 -344 
L 1509 3906 
z
" transform="scale(0.015625)"/>
      <path id="DejaVuSans-5b" d="M 3513 3500 
L 2247 1797 
L 3578 0 
L 2900 0 
L 1881 1375 
L 863 0 
L 184 0 
L 1544 1831 
L 300 3500 
L 978 3500 
L 1906 2253 
L 2834 3500 
L 3513 3500 
z
" transform="scale(0.015625)"/>
      <path id="DejaVuSans-5a" d="M 269 3500 
L 844 3500 
L 1563 769 
L 2278 3500 
L 2956 3500 
L 3675 769 
L 4391 3500 
L 4966 3500 
L 4050 0 
L 3372 0 
L 2619 2869 
L 1863 0 
L 1184 0 
L 269 3500 
z
" transform="scale(0.015625)"/>
      <path id="DejaVuSans-52" d="M 1959 3097 
Q 1497 3097 1228 2736 
Q 959 2375 959 1747 
Q 959 1119 1226 758 
Q 1494 397 1959 397 
Q 2419 397 2687 759 
Q 2956 1122 2956 1747 
Q 2956 2369 2687 2733 
Q 2419 3097 1959 3097 
z
M 1959 3584 
Q 2709 3584 3137 3096 
Q 3566 2609 3566 1747 
Q 3566 888 3137 398 
Q 2709 -91 1959 -91 
Q 1206 -91 779 398 
Q 353 888 353 1747 
Q 353 2609 779 3096 
Q 1206 3584 1959 3584 
z
" transform="scale(0.015625)"/>
      <path id="DejaVuSans-4e" d="M 581 4863 
L 1159 4863 
L 1159 1991 
L 2875 3500 
L 3609 3500 
L 1753 1863 
L 3688 0 
L 2938 0 
L 1159 1709 
L 1159 0 
L 581 0 
L 581 4863 
z
" transform="scale(0.015625)"/>
      <path id="DejaVuSans-3a" d="M 213 4666 
L 850 4666 
L 1831 722 
L 2809 4666 
L 3519 4666 
L 4500 722 
L 5478 4666 
L 6119 4666 
L 4947 0 
L 4153 0 
L 3169 4050 
L 2175 0 
L 1381 0 
L 213 4666 
z
" transform="scale(0.015625)"/>
     </defs>
     <use xlink:href="#DejaVuSans-56"/>
     <use xlink:href="#DejaVuSans-4b" transform="translate(52.09375 0)"/>
     <use xlink:href="#DejaVuSans-44" transform="translate(115.46875 0)"/>
     <use xlink:href="#DejaVuSans-47" transform="translate(176.75 0)"/>
     <use xlink:href="#DejaVuSans-48" transform="translate(240.234375 0)"/>
     <use xlink:href="#DejaVuSans-47" transform="translate(301.765625 0)"/>
     <use xlink:href="#DejaVuSans-3" transform="translate(365.25 0)"/>
     <use xlink:href="#DejaVuSans-44" transform="translate(397.03125 0)"/>
     <use xlink:href="#DejaVuSans-55" transform="translate(458.3125 0)"/>
     <use xlink:href="#DejaVuSans-48" transform="translate(497.21875 0)"/>
     <use xlink:href="#DejaVuSans-44" transform="translate(558.75 0)"/>
     <use xlink:href="#DejaVuSans-3" transform="translate(620.03125 0)"/>
     <use xlink:href="#DejaVuSans-3" transform="translate(651.8125 0)"/>
     <use xlink:href="#DejaVuSans-20" transform="translate(683.59375 0)"/>
     <use xlink:href="#DejaVuSans-3" transform="translate(767.390625 0)"/>
     <use xlink:href="#DejaVuSans-3" transform="translate(799.171875 0)"/>
     <use xlink:href="#DejaVuSans-cb5" transform="translate(830.953125 0)"/>
     <use xlink:href="#DejaVuSans-3" transform="translate(883.046875 0)"/>
     <use xlink:href="#DejaVuSans-29" transform="translate(914.828125 0)"/>
     <use xlink:href="#DejaVuSans-3" transform="translate(972.34375 0)"/>
     <use xlink:href="#DejaVuSans-47" transform="translate(1004.125 0)"/>
     <use xlink:href="#DejaVuSans-5b" transform="translate(1067.609375 0)"/>
     <use xlink:href="#DejaVuSans-3" transform="translate(1126.796875 0)"/>
     <use xlink:href="#DejaVuSans-3" transform="translate(1158.578125 0)"/>
     <use xlink:href="#DejaVuSans-20" transform="translate(1190.359375 0)"/>
     <use xlink:href="#DejaVuSans-3" transform="translate(1274.15625 0)"/>
     <use xlink:href="#DejaVuSans-3" transform="translate(1305.9375 0)"/>
     <use xlink:href="#DejaVuSans-5a" transform="translate(1337.71875 0)"/>
     <use xlink:href="#DejaVuSans-52" transform="translate(1419.5 0)"/>
     <use xlink:href="#DejaVuSans-55" transform="translate(1480.6875 0)"/>
     <use xlink:href="#DejaVuSans-4e" transform="translate(1521.796875 0)"/>
     <use xlink:href="#DejaVuSans-3" transform="translate(1579.703125 0)"/>
     <use xlink:href="#DejaVuSans-3a" transform="translate(1611.484375 0)"/>
    </g>
   </g>
  </g>
  <g id="axes_2">
   <g id="patch_6">
    <path d="M 38.38 317.664 
L 395.5 317.664 
L 395.5 172.587364 
L 38.38 172.587364 
z
" style="fill: #fbfaf7"/>
   </g>
   <g id="matplotlib.axis_3">
    <g id="xtick_8">
     <g id="line2d_16">
      <g>
       <use xlink:href="#m842a6870a9" x="76.642857" y="317.664" style="fill: #8a929b; stroke: #8a929b; stroke-width: 0.8"/>
      </g>
     </g>
     <g id="text_9">
      <!-- 1.0 -->
      <g style="fill: #8a929b" transform="translate(70.281607 330.742125) scale(0.08 -0.08)">
       <defs>
        <path id="DejaVuSans-11" d="M 684 794 
L 1344 794 
L 1344 0 
L 684 0 
L 684 794 
z
" transform="scale(0.015625)"/>
       </defs>
       <use xlink:href="#DejaVuSans-14"/>
       <use xlink:href="#DejaVuSans-11" transform="translate(63.625 0)"/>
       <use xlink:href="#DejaVuSans-13" transform="translate(95.40625 0)"/>
      </g>
     </g>
    </g>
    <g id="xtick_9">
     <g id="line2d_17">
      <g>
       <use xlink:href="#m842a6870a9" x="129.785714" y="317.664" style="fill: #8a929b; stroke: #8a929b; stroke-width: 0.8"/>
      </g>
     </g>
     <g id="text_10">
      <!-- 1.5 -->
      <g style="fill: #8a929b" transform="translate(123.424464 330.742125) scale(0.08 -0.08)">
       <defs>
        <path id="DejaVuSans-18" d="M 691 4666 
L 3169 4666 
L 3169 4134 
L 1269 4134 
L 1269 2991 
Q 1406 3038 1543 3061 
Q 1681 3084 1819 3084 
Q 2600 3084 3056 2656 
Q 3513 2228 3513 1497 
Q 3513 744 3044 326 
Q 2575 -91 1722 -91 
Q 1428 -91 1123 -41 
Q 819 9 494 109 
L 494 744 
Q 775 591 1075 516 
Q 1375 441 1709 441 
Q 2250 441 2565 725 
Q 2881 1009 2881 1497 
Q 2881 1984 2565 2268 
Q 2250 2553 1709 2553 
Q 1456 2553 1204 2497 
Q 953 2441 691 2322 
L 691 4666 
z
" transform="scale(0.015625)"/>
       </defs>
       <use xlink:href="#DejaVuSans-14"/>
       <use xlink:href="#DejaVuSans-11" transform="translate(63.625 0)"/>
       <use xlink:href="#DejaVuSans-18" transform="translate(95.40625 0)"/>
      </g>
     </g>
    </g>
    <g id="xtick_10">
     <g id="line2d_18">
      <g>
       <use xlink:href="#m842a6870a9" x="182.928571" y="317.664" style="fill: #8a929b; stroke: #8a929b; stroke-width: 0.8"/>
      </g>
     </g>
     <g id="text_11">
      <!-- 2.0 -->
      <g style="fill: #8a929b" transform="translate(176.567321 330.742125) scale(0.08 -0.08)">
       <use xlink:href="#DejaVuSans-15"/>
       <use xlink:href="#DejaVuSans-11" transform="translate(63.625 0)"/>
       <use xlink:href="#DejaVuSans-13" transform="translate(95.40625 0)"/>
      </g>
     </g>
    </g>
    <g id="xtick_11">
     <g id="line2d_19">
      <g>
       <use xlink:href="#m842a6870a9" x="236.071429" y="317.664" style="fill: #8a929b; stroke: #8a929b; stroke-width: 0.8"/>
      </g>
     </g>
     <g id="text_12">
      <!-- 2.5 -->
      <g style="fill: #8a929b" transform="translate(229.710179 330.742125) scale(0.08 -0.08)">
       <use xlink:href="#DejaVuSans-15"/>
       <use xlink:href="#DejaVuSans-11" transform="translate(63.625 0)"/>
       <use xlink:href="#DejaVuSans-18" transform="translate(95.40625 0)"/>
      </g>
     </g>
    </g>
    <g id="xtick_12">
     <g id="line2d_20">
      <g>
       <use xlink:href="#m842a6870a9" x="289.214286" y="317.664" style="fill: #8a929b; stroke: #8a929b; stroke-width: 0.8"/>
      </g>
     </g>
     <g id="text_13">
      <!-- 3.0 -->
      <g style="fill: #8a929b" transform="translate(282.853036 330.742125) scale(0.08 -0.08)">
       <defs>
        <path id="DejaVuSans-16" d="M 2597 2516 
Q 3050 2419 3304 2112 
Q 3559 1806 3559 1356 
Q 3559 666 3084 287 
Q 2609 -91 1734 -91 
Q 1441 -91 1130 -33 
Q 819 25 488 141 
L 488 750 
Q 750 597 1062 519 
Q 1375 441 1716 441 
Q 2309 441 2620 675 
Q 2931 909 2931 1356 
Q 2931 1769 2642 2001 
Q 2353 2234 1838 2234 
L 1294 2234 
L 1294 2753 
L 1863 2753 
Q 2328 2753 2575 2939 
Q 2822 3125 2822 3475 
Q 2822 3834 2567 4026 
Q 2313 4219 1838 4219 
Q 1578 4219 1281 4162 
Q 984 4106 628 3988 
L 628 4550 
Q 988 4650 1302 4700 
Q 1616 4750 1894 4750 
Q 2613 4750 3031 4423 
Q 3450 4097 3450 3541 
Q 3450 3153 3228 2886 
Q 3006 2619 2597 2516 
z
" transform="scale(0.015625)"/>
       </defs>
       <use xlink:href="#DejaVuSans-16"/>
       <use xlink:href="#DejaVuSans-11" transform="translate(63.625 0)"/>
       <use xlink:href="#DejaVuSans-13" transform="translate(95.40625 0)"/>
      </g>
     </g>
    </g>
    <g id="xtick_13">
     <g id="line2d_21">
      <g>
       <use xlink:href="#m842a6870a9" x="342.357143" y="317.664" style="fill: #8a929b; stroke: #8a929b; stroke-width: 0.8"/>
      </g>
     </g>
     <g id="text_14">
      <!-- 3.5 -->
      <g style="fill: #8a929b" transform="translate(335.995893 330.742125) scale(0.08 -0.08)">
       <use xlink:href="#DejaVuSans-16"/>
       <use xlink:href="#DejaVuSans-11" transform="translate(63.625 0)"/>
       <use xlink:href="#DejaVuSans-18" transform="translate(95.40625 0)"/>
      </g>
     </g>
    </g>
    <g id="xtick_14">
     <g id="line2d_22">
      <g>
       <use xlink:href="#m842a6870a9" x="395.5" y="317.664" style="fill: #8a929b; stroke: #8a929b; stroke-width: 0.8"/>
      </g>
     </g>
     <g id="text_15">
      <!-- 4.0 -->
      <g style="fill: #8a929b" transform="translate(389.13875 330.742125) scale(0.08 -0.08)">
       <use xlink:href="#DejaVuSans-17"/>
       <use xlink:href="#DejaVuSans-11" transform="translate(63.625 0)"/>
       <use xlink:href="#DejaVuSans-13" transform="translate(95.40625 0)"/>
      </g>
     </g>
    </g>
    <g id="text_16">
     <!-- r  (m) -->
     <g style="fill: #1f2933" transform="translate(202.934531 344.261656) scale(0.1 -0.1)">
      <defs>
       <path id="DejaVuSans-50" d="M 3328 2828 
Q 3544 3216 3844 3400 
Q 4144 3584 4550 3584 
Q 5097 3584 5394 3201 
Q 5691 2819 5691 2113 
L 5691 0 
L 5113 0 
L 5113 2094 
Q 5113 2597 4934 2840 
Q 4756 3084 4391 3084 
Q 3944 3084 3684 2787 
Q 3425 2491 3425 1978 
L 3425 0 
L 2847 0 
L 2847 2094 
Q 2847 2600 2669 2842 
Q 2491 3084 2119 3084 
Q 1678 3084 1418 2786 
Q 1159 2488 1159 1978 
L 1159 0 
L 581 0 
L 581 3500 
L 1159 3500 
L 1159 2956 
Q 1356 3278 1631 3431 
Q 1906 3584 2284 3584 
Q 2666 3584 2933 3390 
Q 3200 3197 3328 2828 
z
" transform="scale(0.015625)"/>
      </defs>
      <use xlink:href="#DejaVuSans-55"/>
      <use xlink:href="#DejaVuSans-3" transform="translate(41.109375 0)"/>
      <use xlink:href="#DejaVuSans-3" transform="translate(72.890625 0)"/>
      <use xlink:href="#DejaVuSans-b" transform="translate(104.671875 0)"/>
      <use xlink:href="#DejaVuSans-50" transform="translate(143.6875 0)"/>
      <use xlink:href="#DejaVuSans-c" transform="translate(241.09375 0)"/>
     </g>
    </g>
    <g id="text_17">
     <!-- 1e7 -->
     <g style="fill: #8a929b" transform="translate(376.621875 343.261656) scale(0.1 -0.1)">
      <defs>
       <path id="DejaVuSans-1a" d="M 525 4666 
L 3525 4666 
L 3525 4397 
L 1831 0 
L 1172 0 
L 2766 4134 
L 525 4134 
L 525 4666 
z
" transform="scale(0.015625)"/>
      </defs>
      <use xlink:href="#DejaVuSans-14"/>
      <use xlink:href="#DejaVuSans-48" transform="translate(63.625 0)"/>
      <use xlink:href="#DejaVuSans-1a" transform="translate(125.15625 0)"/>
     </g>
    </g>
   </g>
   <g id="matplotlib.axis_4">
    <g id="ytick_7">
     <g id="line2d_23">
      <g>
       <use xlink:href="#mbc104aa925" x="38.38" y="306.504259" style="fill: #8a929b; stroke: #8a929b; stroke-width: 0.8"/>
      </g>
     </g>
     <g id="text_18">
      <!-- 0 -->
      <g style="fill: #8a929b" transform="translate(26.29 309.543321) scale(0.08 -0.08)">
       <use xlink:href="#DejaVuSans-13"/>
      </g>
     </g>
    </g>
    <g id="ytick_8">
     <g id="line2d_24">
      <g>
       <use xlink:href="#mbc104aa925" x="38.38" y="285.247609" style="fill: #8a929b; stroke: #8a929b; stroke-width: 0.8"/>
      </g>
     </g>
     <g id="text_19">
      <!-- 1 -->
      <g style="fill: #8a929b" transform="translate(26.29 288.286671) scale(0.08 -0.08)">
       <use xlink:href="#DejaVuSans-14"/>
      </g>
     </g>
    </g>
    <g id="ytick_9">
     <g id="line2d_25">
      <g>
       <use xlink:href="#mbc104aa925" x="38.38" y="263.990959" style="fill: #8a929b; stroke: #8a929b; stroke-width: 0.8"/>
      </g>
     </g>
     <g id="text_20">
      <!-- 2 -->
      <g style="fill: #8a929b" transform="translate(26.29 267.030022) scale(0.08 -0.08)">
       <use xlink:href="#DejaVuSans-15"/>
      </g>
     </g>
    </g>
    <g id="ytick_10">
     <g id="line2d_26">
      <g>
       <use xlink:href="#mbc104aa925" x="38.38" y="242.734309" style="fill: #8a929b; stroke: #8a929b; stroke-width: 0.8"/>
      </g>
     </g>
     <g id="text_21">
      <!-- 3 -->
      <g style="fill: #8a929b" transform="translate(26.29 245.773372) scale(0.08 -0.08)">
       <use xlink:href="#DejaVuSans-16"/>
      </g>
     </g>
    </g>
    <g id="ytick_11">
     <g id="line2d_27">
      <g>
       <use xlink:href="#mbc104aa925" x="38.38" y="221.477659" style="fill: #8a929b; stroke: #8a929b; stroke-width: 0.8"/>
      </g>
     </g>
     <g id="text_22">
      <!-- 4 -->
      <g style="fill: #8a929b" transform="translate(26.29 224.516722) scale(0.08 -0.08)">
       <use xlink:href="#DejaVuSans-17"/>
      </g>
     </g>
    </g>
    <g id="ytick_12">
     <g id="line2d_28">
      <g>
       <use xlink:href="#mbc104aa925" x="38.38" y="200.221009" style="fill: #8a929b; stroke: #8a929b; stroke-width: 0.8"/>
      </g>
     </g>
     <g id="text_23">
      <!-- 5 -->
      <g style="fill: #8a929b" transform="translate(26.29 203.260072) scale(0.08 -0.08)">
       <use xlink:href="#DejaVuSans-18"/>
      </g>
     </g>
    </g>
    <g id="ytick_13">
     <g id="line2d_29">
      <g>
       <use xlink:href="#mbc104aa925" x="38.38" y="178.964359" style="fill: #8a929b; stroke: #8a929b; stroke-width: 0.8"/>
      </g>
     </g>
     <g id="text_24">
      <!-- 6 -->
      <g style="fill: #8a929b" transform="translate(26.29 182.003422) scale(0.08 -0.08)">
       <use xlink:href="#DejaVuSans-19"/>
      </g>
     </g>
    </g>
    <g id="text_25">
     <!-- ΔU  (J) -->
     <g style="fill: #1f2933" transform="translate(19.887656 260.760057) rotate(-90) scale(0.1 -0.1)">
      <defs>
       <path id="DejaVuSans-329" d="M 2188 4044 
L 906 525 
L 3472 525 
L 2188 4044 
z
M 50 0 
L 1831 4666 
L 2547 4666 
L 4325 0 
L 50 0 
z
" transform="scale(0.015625)"/>
       <path id="DejaVuSans-38" d="M 556 4666 
L 1191 4666 
L 1191 1831 
Q 1191 1081 1462 751 
Q 1734 422 2344 422 
Q 2950 422 3222 751 
Q 3494 1081 3494 1831 
L 3494 4666 
L 4128 4666 
L 4128 1753 
Q 4128 841 3676 375 
Q 3225 -91 2344 -91 
Q 1459 -91 1007 375 
Q 556 841 556 1753 
L 556 4666 
z
" transform="scale(0.015625)"/>
       <path id="DejaVuSans-2d" d="M 628 4666 
L 1259 4666 
L 1259 325 
Q 1259 -519 939 -900 
Q 619 -1281 -91 -1281 
L -331 -1281 
L -331 -750 
L -134 -750 
Q 284 -750 456 -515 
Q 628 -281 628 325 
L 628 4666 
z
" transform="scale(0.015625)"/>
      </defs>
      <use xlink:href="#DejaVuSans-329"/>
      <use xlink:href="#DejaVuSans-38" transform="translate(68.40625 0)"/>
      <use xlink:href="#DejaVuSans-3" transform="translate(141.59375 0)"/>
      <use xlink:href="#DejaVuSans-3" transform="translate(173.375 0)"/>
      <use xlink:href="#DejaVuSans-b" transform="translate(205.15625 0)"/>
      <use xlink:href="#DejaVuSans-2d" transform="translate(244.171875 0)"/>
      <use xlink:href="#DejaVuSans-c" transform="translate(273.671875 0)"/>
     </g>
    </g>
    <g id="text_26">
     <!-- 1e7 -->
     <g style="fill: #8a929b" transform="translate(38.38 169.587364) scale(0.1 -0.1)">
      <use xlink:href="#DejaVuSans-14"/>
      <use xlink:href="#DejaVuSans-48" transform="translate(63.625 0)"/>
      <use xlink:href="#DejaVuSans-1a" transform="translate(125.15625 0)"/>
     </g>
    </g>
   </g>
   <g id="line2d_30">
    <path d="M 38.38 306.504259 
L 395.5 306.504259 
" clip-path="url(#pccd0039d3d)" style="fill: none; stroke: #d8d4c8; stroke-linecap: square"/>
   </g>
   <g id="line2d_31">
    <path d="M 38.38 306.504259 
L 41.368452 300.913206 
L 44.356904 295.773738 
L 47.345356 291.033268 
L 50.333808 286.647068 
L 53.322259 282.576855 
L 56.310711 278.78967 
L 59.299163 275.256983 
L 63.781841 270.381715 
L 68.264519 265.952874 
L 72.747197 261.911825 
L 77.229874 258.209773 
L 81.712552 254.805777 
L 86.19523 251.665236 
L 90.677908 248.758703 
L 95.160586 246.060963 
L 101.13749 242.751657 
L 107.114393 239.731614 
L 113.091297 236.964496 
L 119.068201 234.419806 
L 126.539331 231.512832 
L 134.01046 228.871277 
L 141.48159 226.460377 
L 150.446946 223.831344 
L 159.412301 221.451658 
L 168.377657 219.287453 
L 178.837238 216.997802 
L 189.29682 214.926922 
L 201.250628 212.789945 
L 214.698661 210.635777 
L 228.146695 208.706361 
L 243.088954 206.785726 
L 259.525439 204.902284 
L 277.456151 203.077556 
L 296.881088 201.32692 
L 317.800251 199.660536 
L 341.707866 197.985986 
L 367.109707 196.427902 
L 395.5 194.906847 
L 395.5 194.906847 
" clip-path="url(#pccd0039d3d)" style="fill: none; stroke: #2f6f4f; stroke-width: 2.2; stroke-linecap: square"/>
   </g>
   <g id="patch_7">
    <path d="M 38.38 317.664 
L 38.38 172.587364 
" style="fill: none; stroke: #d8d4c8; stroke-width: 0.8; stroke-linejoin: miter; stroke-linecap: square"/>
   </g>
   <g id="patch_8">
    <path d="M 38.38 317.664 
L 395.5 317.664 
" style="fill: none; stroke: #d8d4c8; stroke-width: 0.8; stroke-linejoin: miter; stroke-linecap: square"/>
   </g>
   <g id="text_27">
    <g id="patch_9">
     <path d="M 267.7944 217.881915 
L 347.822775 217.881915 
Q 350.230775 217.881915 350.230775 215.473915 
L 350.230775 206.873243 
Q 350.230775 204.465243 347.822775 204.465243 
L 267.7944 204.465243 
Q 265.3864 204.465243 265.3864 206.873243 
L 265.3864 215.473915 
Q 265.3864 217.881915 267.7944 217.881915 
z
" style="fill: #fbfaf7; opacity: 0.92; stroke: #d8d4c8; stroke-width: 0.6; stroke-linejoin: miter"/>
    </g>
    <!-- slope of W  =  F(x) -->
    <g style="fill: #1f2933" transform="translate(267.7944 213.407899) scale(0.086 -0.086)">
     <defs>
      <path id="DejaVuSans-4f" d="M 603 4863 
L 1178 4863 
L 1178 0 
L 603 0 
L 603 4863 
z
" transform="scale(0.015625)"/>
      <path id="DejaVuSans-53" d="M 1159 525 
L 1159 -1331 
L 581 -1331 
L 581 3500 
L 1159 3500 
L 1159 2969 
Q 1341 3281 1617 3432 
Q 1894 3584 2278 3584 
Q 2916 3584 3314 3078 
Q 3713 2572 3713 1747 
Q 3713 922 3314 415 
Q 2916 -91 2278 -91 
Q 1894 -91 1617 61 
Q 1341 213 1159 525 
z
M 3116 1747 
Q 3116 2381 2855 2742 
Q 2594 3103 2138 3103 
Q 1681 3103 1420 2742 
Q 1159 2381 1159 1747 
Q 1159 1113 1420 752 
Q 1681 391 2138 391 
Q 2594 391 2855 752 
Q 3116 1113 3116 1747 
z
" transform="scale(0.015625)"/>
      <path id="DejaVuSans-49" d="M 2375 4863 
L 2375 4384 
L 1825 4384 
Q 1516 4384 1395 4259 
Q 1275 4134 1275 3809 
L 1275 3500 
L 2222 3500 
L 2222 3053 
L 1275 3053 
L 1275 0 
L 697 0 
L 697 3053 
L 147 3053 
L 147 3500 
L 697 3500 
L 697 3744 
Q 697 4328 969 4595 
Q 1241 4863 1831 4863 
L 2375 4863 
z
" transform="scale(0.015625)"/>
     </defs>
     <use xlink:href="#DejaVuSans-56"/>
     <use xlink:href="#DejaVuSans-4f" transform="translate(52.09375 0)"/>
     <use xlink:href="#DejaVuSans-52" transform="translate(79.875 0)"/>
     <use xlink:href="#DejaVuSans-53" transform="translate(141.0625 0)"/>
     <use xlink:href="#DejaVuSans-48" transform="translate(204.546875 0)"/>
     <use xlink:href="#DejaVuSans-3" transform="translate(266.078125 0)"/>
     <use xlink:href="#DejaVuSans-52" transform="translate(297.859375 0)"/>
     <use xlink:href="#DejaVuSans-49" transform="translate(359.046875 0)"/>
     <use xlink:href="#DejaVuSans-3" transform="translate(394.25 0)"/>
     <use xlink:href="#DejaVuSans-3a" transform="translate(426.03125 0)"/>
     <use xlink:href="#DejaVuSans-3" transform="translate(524.90625 0)"/>
     <use xlink:href="#DejaVuSans-3" transform="translate(556.6875 0)"/>
     <use xlink:href="#DejaVuSans-20" transform="translate(588.46875 0)"/>
     <use xlink:href="#DejaVuSans-3" transform="translate(672.265625 0)"/>
     <use xlink:href="#DejaVuSans-3" transform="translate(704.046875 0)"/>
     <use xlink:href="#DejaVuSans-29" transform="translate(735.828125 0)"/>
     <use xlink:href="#DejaVuSans-b" transform="translate(793.34375 0)"/>
     <use xlink:href="#DejaVuSans-5b" transform="translate(832.359375 0)"/>
     <use xlink:href="#DejaVuSans-c" transform="translate(891.546875 0)"/>
    </g>
   </g>
  </g>
 </g>
 <defs>
  <clipPath id="pa7a14eef54">
   <rect x="38.38" y="7.2" width="357.12" height="145.076636"/>
  </clipPath>
  <clipPath id="pccd0039d3d">
   <rect x="38.38" y="172.587364" width="357.12" height="145.076636"/>
  </clipPath>
 </defs>
</svg>
