<?xml version="1.0" encoding="utf-8" standalone="no"?>
<!DOCTYPE svg PUBLIC "-//W3C//DTD SVG 1.1//EN"
  "http://www.w3.org/Graphics/SVG/1.1/DTD/svg11.dtd">
<svg xmlns:xlink="http://www.w3.org/1999/xlink" width="423.060781pt" height="353.864781pt" viewBox="0 0 423.060781 353.864781" xmlns="http://www.w3.org/2000/svg" version="1.1">
 <metadata>
  <rdf:RDF xmlns:dc="http://purl.org/dc/elements/1.1/" xmlns:cc="http://creativecommons.org/ns#" xmlns:rdf="http://www.w3.org/1999/02/22-rdf-syntax-ns#">
   <cc:Work>
    <dc:type rdf:resource="http://purl.org/dc/dcmitype/StillImage"/>
    <dc:date>2026-06-26T19:42:16.148854</dc:date>
    <dc:format>image/svg+xml</dc:format>
    <dc:creator>
     <cc:Agent>
      <dc:title>Matplotlib v3.11.0, https://matplotlib.org/</dc:title>
     </cc:Agent>
    </dc:creator>
   </cc:Work>
  </rdf:RDF>
 </metadata>
 <defs>
  <style type="text/css">*{stroke-linejoin: round; stroke-linecap: butt}</style>
 </defs>
 <g id="figure_1">
  <g id="patch_1">
   <path d="M 0 353.864781 
L 423.060781 353.864781 
L 423.060781 0 
L 0 0 
z
" style="fill: #fbfaf7"/>
  </g>
  <g id="axes_1">
   <g id="patch_2">
    <path d="M 58.740781 152.276636 
L 415.860781 152.276636 
L 415.860781 7.2 
L 58.740781 7.2 
z
" style="fill: #fbfaf7"/>
   </g>
   <g id="FillBetweenPolyCollection_1">
    <defs>
     <path id="m39818cbf3d" d="M 58.740781 -212.747887 
L 58.740781 -212.747887 
L 60.235007 -213.214822 
L 61.729233 -213.681756 
L 63.223459 -214.148691 
L 64.717685 -214.615626 
L 66.211911 -215.082561 
L 67.706137 -215.549496 
L 69.200363 -216.01643 
L 70.694589 -216.483365 
L 72.188815 -216.9503 
L 73.683041 -217.417235 
L 75.177267 -217.884169 
L 76.671493 -218.351104 
L 78.165718 -218.818039 
L 79.659944 -219.284974 
L 81.15417 -219.751909 
L 82.648396 -220.218843 
L 84.142622 -220.685778 
L 85.636848 -221.152713 
L 87.131074 -221.619648 
L 88.6253 -222.086582 
L 90.119526 -222.553517 
L 91.613752 -223.020452 
L 93.107978 -223.487387 
L 94.602204 -223.954322 
L 96.09643 -224.421256 
L 97.590656 -224.888191 
L 99.084882 -225.355126 
L 100.579108 -225.822061 
L 102.073334 -226.288995 
L 103.567559 -226.75593 
L 105.061785 -227.222865 
L 106.556011 -227.6898 
L 108.050237 -228.156735 
L 109.544463 -228.623669 
L 111.038689 -229.090604 
L 112.532915 -229.557539 
L 114.027141 -230.024474 
L 115.521367 -230.491408 
L 117.015593 -230.958343 
L 118.509819 -231.425278 
L 120.004045 -231.892213 
L 121.498271 -232.359148 
L 122.992497 -232.826082 
L 124.486723 -233.293017 
L 125.980949 -233.759952 
L 127.475175 -234.226887 
L 128.9694 -234.693821 
L 130.463626 -235.160756 
L 131.957852 -235.627691 
L 133.452078 -236.094626 
L 134.946304 -236.561561 
L 136.44053 -237.028495 
L 137.934756 -237.49543 
L 139.428982 -237.962365 
L 140.923208 -238.4293 
L 142.417434 -238.896234 
L 143.91166 -239.363169 
L 145.405886 -239.830104 
L 146.900112 -240.297039 
L 148.394338 -240.763974 
L 149.888564 -241.230908 
L 151.38279 -241.697843 
L 152.877016 -242.164778 
L 154.371242 -242.631713 
L 155.865467 -243.098647 
L 157.359693 -243.565582 
L 158.853919 -244.032517 
L 160.348145 -244.499452 
L 161.842371 -244.966387 
L 163.336597 -245.433321 
L 164.830823 -245.900256 
L 166.325049 -246.367191 
L 167.819275 -246.834126 
L 169.313501 -247.30106 
L 170.807727 -247.767995 
L 172.301953 -248.23493 
L 173.796179 -248.701865 
L 175.290405 -249.1688 
L 176.784631 -249.635734 
L 178.278857 -250.102669 
L 179.773083 -250.569604 
L 181.267308 -251.036539 
L 182.761534 -251.503474 
L 184.25576 -251.970408 
L 185.749986 -252.437343 
L 187.244212 -252.904278 
L 188.738438 -253.371213 
L 190.232664 -253.838147 
L 191.72689 -254.305082 
L 193.221116 -254.772017 
L 194.715342 -255.238952 
L 196.209568 -255.705887 
L 197.703794 -256.172821 
L 199.19802 -256.639756 
L 200.692246 -257.106691 
L 202.186472 -257.573626 
L 203.680698 -258.04056 
L 205.174924 -258.507495 
L 206.669149 -258.97443 
L 208.163375 -259.441365 
L 209.657601 -259.9083 
L 211.151827 -260.375234 
L 212.646053 -260.842169 
L 214.140279 -261.309104 
L 215.634505 -261.776039 
L 217.128731 -262.242973 
L 218.622957 -262.709908 
L 220.117183 -263.176843 
L 221.611409 -263.643778 
L 223.105635 -264.110713 
L 224.599861 -264.577647 
L 226.094087 -265.044582 
L 227.588313 -265.511517 
L 229.082539 -265.978452 
L 230.576765 -266.445386 
L 232.07099 -266.912321 
L 233.565216 -267.379256 
L 235.059442 -267.846191 
L 236.553668 -268.313126 
L 238.047894 -268.78006 
L 239.54212 -269.246995 
L 241.036346 -269.71393 
L 242.530572 -270.180865 
L 244.024798 -270.647799 
L 245.519024 -271.114734 
L 247.01325 -271.581669 
L 248.507476 -272.048604 
L 250.001702 -272.515539 
L 251.495928 -272.982473 
L 252.990154 -273.449408 
L 254.48438 -273.916343 
L 255.978606 -274.383278 
L 257.472831 -274.850212 
L 258.967057 -275.317147 
L 260.461283 -275.784082 
L 261.955509 -276.251017 
L 263.449735 -276.717952 
L 264.943961 -277.184886 
L 266.438187 -277.651821 
L 267.932413 -278.118756 
L 269.426639 -278.585691 
L 270.920865 -279.052625 
L 272.415091 -279.51956 
L 273.909317 -279.986495 
L 275.403543 -280.45343 
L 276.897769 -280.920365 
L 278.391995 -281.387299 
L 279.886221 -281.854234 
L 281.380447 -282.321169 
L 282.874672 -282.788104 
L 284.368898 -283.255038 
L 285.863124 -283.721973 
L 287.35735 -284.188908 
L 288.851576 -284.655843 
L 290.345802 -285.122778 
L 291.840028 -285.589712 
L 293.334254 -286.056647 
L 294.82848 -286.523582 
L 296.322706 -286.990517 
L 297.816932 -287.457451 
L 299.311158 -287.924386 
L 300.805384 -288.391321 
L 302.29961 -288.858256 
L 303.793836 -289.325191 
L 305.288062 -289.792125 
L 306.782288 -290.25906 
L 308.276513 -290.725995 
L 309.770739 -291.19293 
L 311.264965 -291.659864 
L 312.759191 -292.126799 
L 314.253417 -292.593734 
L 315.747643 -293.060669 
L 317.241869 -293.527604 
L 318.736095 -293.994538 
L 320.230321 -294.461473 
L 321.724547 -294.928408 
L 323.218773 -295.395343 
L 324.712999 -295.862277 
L 326.207225 -296.329212 
L 327.701451 -296.796147 
L 329.195677 -297.263082 
L 330.689903 -297.730017 
L 332.184129 -298.196951 
L 333.678354 -298.663886 
L 335.17258 -299.130821 
L 336.666806 -299.597756 
L 338.161032 -300.06469 
L 339.655258 -300.531625 
L 341.149484 -300.99856 
L 342.64371 -301.465495 
L 344.137936 -301.93243 
L 345.632162 -302.399364 
L 347.126388 -302.866299 
L 348.620614 -303.333234 
L 350.11484 -303.800169 
L 351.609066 -304.267103 
L 353.103292 -304.734038 
L 354.597518 -305.200973 
L 356.091744 -305.667908 
L 357.58597 -306.134843 
L 359.080195 -306.601777 
L 360.574421 -307.068712 
L 362.068647 -307.535647 
L 363.562873 -308.002582 
L 365.057099 -308.469516 
L 366.551325 -308.936451 
L 368.045551 -309.403386 
L 369.539777 -309.870321 
L 371.034003 -310.337256 
L 372.528229 -310.80419 
L 374.022455 -311.271125 
L 375.516681 -311.73806 
L 377.010907 -312.204995 
L 378.505133 -312.671929 
L 379.999359 -313.138864 
L 381.493585 -313.605799 
L 382.987811 -314.072734 
L 384.482036 -314.539669 
L 385.976262 -315.006603 
L 387.470488 -315.473538 
L 388.964714 -315.940473 
L 390.45894 -316.407408 
L 391.953166 -316.874342 
L 393.447392 -317.341277 
L 394.941618 -317.808212 
L 396.435844 -318.275147 
L 397.93007 -318.742082 
L 399.424296 -319.209016 
L 400.918522 -319.675951 
L 402.412748 -320.142886 
L 403.906974 -320.609821 
L 405.4012 -321.076755 
L 406.895426 -321.54369 
L 408.389652 -322.010625 
L 409.883877 -322.47756 
L 411.378103 -322.944495 
L 412.872329 -323.411429 
L 414.366555 -323.878364 
L 415.860781 -324.345299 
L 415.860781 -212.747887 
L 415.860781 -212.747887 
L 414.366555 -212.747887 
L 412.872329 -212.747887 
L 411.378103 -212.747887 
L 409.883877 -212.747887 
L 408.389652 -212.747887 
L 406.895426 -212.747887 
L 405.4012 -212.747887 
L 403.906974 -212.747887 
L 402.412748 -212.747887 
L 400.918522 -212.747887 
L 399.424296 -212.747887 
L 397.93007 -212.747887 
L 396.435844 -212.747887 
L 394.941618 -212.747887 
L 393.447392 -212.747887 
L 391.953166 -212.747887 
L 390.45894 -212.747887 
L 388.964714 -212.747887 
L 387.470488 -212.747887 
L 385.976262 -212.747887 
L 384.482036 -212.747887 
L 382.987811 -212.747887 
L 381.493585 -212.747887 
L 379.999359 -212.747887 
L 378.505133 -212.747887 
L 377.010907 -212.747887 
L 375.516681 -212.747887 
L 374.022455 -212.747887 
L 372.528229 -212.747887 
L 371.034003 -212.747887 
L 369.539777 -212.747887 
L 368.045551 -212.747887 
L 366.551325 -212.747887 
L 365.057099 -212.747887 
L 363.562873 -212.747887 
L 362.068647 -212.747887 
L 360.574421 -212.747887 
L 359.080195 -212.747887 
L 357.58597 -212.747887 
L 356.091744 -212.747887 
L 354.597518 -212.747887 
L 353.103292 -212.747887 
L 351.609066 -212.747887 
L 350.11484 -212.747887 
L 348.620614 -212.747887 
L 347.126388 -212.747887 
L 345.632162 -212.747887 
L 344.137936 -212.747887 
L 342.64371 -212.747887 
L 341.149484 -212.747887 
L 339.655258 -212.747887 
L 338.161032 -212.747887 
L 336.666806 -212.747887 
L 335.17258 -212.747887 
L 333.678354 -212.747887 
L 332.184129 -212.747887 
L 330.689903 -212.747887 
L 329.195677 -212.747887 
L 327.701451 -212.747887 
L 326.207225 -212.747887 
L 324.712999 -212.747887 
L 323.218773 -212.747887 
L 321.724547 -212.747887 
L 320.230321 -212.747887 
L 318.736095 -212.747887 
L 317.241869 -212.747887 
L 315.747643 -212.747887 
L 314.253417 -212.747887 
L 312.759191 -212.747887 
L 311.264965 -212.747887 
L 309.770739 -212.747887 
L 308.276513 -212.747887 
L 306.782288 -212.747887 
L 305.288062 -212.747887 
L 303.793836 -212.747887 
L 302.29961 -212.747887 
L 300.805384 -212.747887 
L 299.311158 -212.747887 
L 297.816932 -212.747887 
L 296.322706 -212.747887 
L 294.82848 -212.747887 
L 293.334254 -212.747887 
L 291.840028 -212.747887 
L 290.345802 -212.747887 
L 288.851576 -212.747887 
L 287.35735 -212.747887 
L 285.863124 -212.747887 
L 284.368898 -212.747887 
L 282.874672 -212.747887 
L 281.380447 -212.747887 
L 279.886221 -212.747887 
L 278.391995 -212.747887 
L 276.897769 -212.747887 
L 275.403543 -212.747887 
L 273.909317 -212.747887 
L 272.415091 -212.747887 
L 270.920865 -212.747887 
L 269.426639 -212.747887 
L 267.932413 -212.747887 
L 266.438187 -212.747887 
L 264.943961 -212.747887 
L 263.449735 -212.747887 
L 261.955509 -212.747887 
L 260.461283 -212.747887 
L 258.967057 -212.747887 
L 257.472831 -212.747887 
L 255.978606 -212.747887 
L 254.48438 -212.747887 
L 252.990154 -212.747887 
L 251.495928 -212.747887 
L 250.001702 -212.747887 
L 248.507476 -212.747887 
L 247.01325 -212.747887 
L 245.519024 -212.747887 
L 244.024798 -212.747887 
L 242.530572 -212.747887 
L 241.036346 -212.747887 
L 239.54212 -212.747887 
L 238.047894 -212.747887 
L 236.553668 -212.747887 
L 235.059442 -212.747887 
L 233.565216 -212.747887 
L 232.07099 -212.747887 
L 230.576765 -212.747887 
L 229.082539 -212.747887 
L 227.588313 -212.747887 
L 226.094087 -212.747887 
L 224.599861 -212.747887 
L 223.105635 -212.747887 
L 221.611409 -212.747887 
L 220.117183 -212.747887 
L 218.622957 -212.747887 
L 217.128731 -212.747887 
L 215.634505 -212.747887 
L 214.140279 -212.747887 
L 212.646053 -212.747887 
L 211.151827 -212.747887 
L 209.657601 -212.747887 
L 208.163375 -212.747887 
L 206.669149 -212.747887 
L 205.174924 -212.747887 
L 203.680698 -212.747887 
L 202.186472 -212.747887 
L 200.692246 -212.747887 
L 199.19802 -212.747887 
L 197.703794 -212.747887 
L 196.209568 -212.747887 
L 194.715342 -212.747887 
L 193.221116 -212.747887 
L 191.72689 -212.747887 
L 190.232664 -212.747887 
L 188.738438 -212.747887 
L 187.244212 -212.747887 
L 185.749986 -212.747887 
L 184.25576 -212.747887 
L 182.761534 -212.747887 
L 181.267308 -212.747887 
L 179.773083 -212.747887 
L 178.278857 -212.747887 
L 176.784631 -212.747887 
L 175.290405 -212.747887 
L 173.796179 -212.747887 
L 172.301953 -212.747887 
L 170.807727 -212.747887 
L 169.313501 -212.747887 
L 167.819275 -212.747887 
L 166.325049 -212.747887 
L 164.830823 -212.747887 
L 163.336597 -212.747887 
L 161.842371 -212.747887 
L 160.348145 -212.747887 
L 158.853919 -212.747887 
L 157.359693 -212.747887 
L 155.865467 -212.747887 
L 154.371242 -212.747887 
L 152.877016 -212.747887 
L 151.38279 -212.747887 
L 149.888564 -212.747887 
L 148.394338 -212.747887 
L 146.900112 -212.747887 
L 145.405886 -212.747887 
L 143.91166 -212.747887 
L 142.417434 -212.747887 
L 140.923208 -212.747887 
L 139.428982 -212.747887 
L 137.934756 -212.747887 
L 136.44053 -212.747887 
L 134.946304 -212.747887 
L 133.452078 -212.747887 
L 131.957852 -212.747887 
L 130.463626 -212.747887 
L 128.9694 -212.747887 
L 127.475175 -212.747887 
L 125.980949 -212.747887 
L 124.486723 -212.747887 
L 122.992497 -212.747887 
L 121.498271 -212.747887 
L 120.004045 -212.747887 
L 118.509819 -212.747887 
L 117.015593 -212.747887 
L 115.521367 -212.747887 
L 114.027141 -212.747887 
L 112.532915 -212.747887 
L 111.038689 -212.747887 
L 109.544463 -212.747887 
L 108.050237 -212.747887 
L 106.556011 -212.747887 
L 105.061785 -212.747887 
L 103.567559 -212.747887 
L 102.073334 -212.747887 
L 100.579108 -212.747887 
L 99.084882 -212.747887 
L 97.590656 -212.747887 
L 96.09643 -212.747887 
L 94.602204 -212.747887 
L 93.107978 -212.747887 
L 91.613752 -212.747887 
L 90.119526 -212.747887 
L 88.6253 -212.747887 
L 87.131074 -212.747887 
L 85.636848 -212.747887 
L 84.142622 -212.747887 
L 82.648396 -212.747887 
L 81.15417 -212.747887 
L 79.659944 -212.747887 
L 78.165718 -212.747887 
L 76.671493 -212.747887 
L 75.177267 -212.747887 
L 73.683041 -212.747887 
L 72.188815 -212.747887 
L 70.694589 -212.747887 
L 69.200363 -212.747887 
L 67.706137 -212.747887 
L 66.211911 -212.747887 
L 64.717685 -212.747887 
L 63.223459 -212.747887 
L 61.729233 -212.747887 
L 60.235007 -212.747887 
L 58.740781 -212.747887 
z
"/>
    </defs>
    <g clip-path="url(#pb24366c99b)">
     <use xlink:href="#m39818cbf3d" x="0" y="353.864781" style="fill: #2f6f4f; fill-opacity: 0.16"/>
    </g>
   </g>
   <g id="matplotlib.axis_1">
    <g id="xtick_1">
     <g id="line2d_1">
      <defs>
       <path id="mf0688ad2a0" d="M 0 0 
L 0 3.5 
" style="stroke: #8a929b; stroke-width: 0.8"/>
      </defs>
      <g>
       <use xlink:href="#mf0688ad2a0" x="58.740781" y="152.276636" style="fill: #8a929b; stroke: #8a929b; stroke-width: 0.8"/>
      </g>
     </g>
    </g>
    <g id="xtick_2">
     <g id="line2d_2">
      <g>
       <use xlink:href="#mf0688ad2a0" x="133.140781" y="152.276636" style="fill: #8a929b; stroke: #8a929b; stroke-width: 0.8"/>
      </g>
     </g>
    </g>
    <g id="xtick_3">
     <g id="line2d_3">
      <g>
       <use xlink:href="#mf0688ad2a0" x="207.540781" y="152.276636" style="fill: #8a929b; stroke: #8a929b; stroke-width: 0.8"/>
      </g>
     </g>
    </g>
    <g id="xtick_4">
     <g id="line2d_4">
      <g>
       <use xlink:href="#mf0688ad2a0" x="281.940781" y="152.276636" style="fill: #8a929b; stroke: #8a929b; stroke-width: 0.8"/>
      </g>
     </g>
    </g>
    <g id="xtick_5">
     <g id="line2d_5">
      <g>
       <use xlink:href="#mf0688ad2a0" x="356.340781" y="152.276636" style="fill: #8a929b; stroke: #8a929b; stroke-width: 0.8"/>
      </g>
     </g>
    </g>
   </g>
   <g id="matplotlib.axis_2">
    <g id="ytick_1">
     <g id="line2d_6">
      <defs>
       <path id="m83a7372402" d="M 0 0 
L -3.5 0 
" style="stroke: #8a929b; stroke-width: 0.8"/>
      </defs>
      <g>
       <use xlink:href="#m83a7372402" x="58.740781" y="141.116894" style="fill: #8a929b; stroke: #8a929b; stroke-width: 0.8"/>
      </g>
     </g>
     <g id="text_1">
      <!-- 0 -->
      <g style="fill: #8a929b" transform="translate(46.650781 144.155957) scale(0.08 -0.08)">
       <defs>
        <path id="DejaVuSans-13" d="M 2034 4250 
Q 1547 4250 1301 3770 
Q 1056 3291 1056 2328 
Q 1056 1369 1301 889 
Q 1547 409 2034 409 
Q 2525 409 2770 889 
Q 3016 1369 3016 2328 
Q 3016 3291 2770 3770 
Q 2525 4250 2034 4250 
z
M 2034 4750 
Q 2819 4750 3233 4129 
Q 3647 3509 3647 2328 
Q 3647 1150 3233 529 
Q 2819 -91 2034 -91 
Q 1250 -91 836 529 
Q 422 1150 422 2328 
Q 422 3509 836 4129 
Q 1250 4750 2034 4750 
z
" transform="scale(0.015625)"/>
       </defs>
       <use xlink:href="#DejaVuSans-13"/>
      </g>
     </g>
    </g>
    <g id="ytick_2">
     <g id="line2d_7">
      <g>
       <use xlink:href="#m83a7372402" x="58.740781" y="117.867434" style="fill: #8a929b; stroke: #8a929b; stroke-width: 0.8"/>
      </g>
     </g>
     <g id="text_2">
      <!-- 50000 -->
      <g style="fill: #8a929b" transform="translate(26.290781 120.906496) scale(0.08 -0.08)">
       <defs>
        <path id="DejaVuSans-18" d="M 691 4666 
L 3169 4666 
L 3169 4134 
L 1269 4134 
L 1269 2991 
Q 1406 3038 1543 3061 
Q 1681 3084 1819 3084 
Q 2600 3084 3056 2656 
Q 3513 2228 3513 1497 
Q 3513 744 3044 326 
Q 2575 -91 1722 -91 
Q 1428 -91 1123 -41 
Q 819 9 494 109 
L 494 744 
Q 775 591 1075 516 
Q 1375 441 1709 441 
Q 2250 441 2565 725 
Q 2881 1009 2881 1497 
Q 2881 1984 2565 2268 
Q 2250 2553 1709 2553 
Q 1456 2553 1204 2497 
Q 953 2441 691 2322 
L 691 4666 
z
" transform="scale(0.015625)"/>
       </defs>
       <use xlink:href="#DejaVuSans-18"/>
       <use xlink:href="#DejaVuSans-13" transform="translate(63.625 0)"/>
       <use xlink:href="#DejaVuSans-13" transform="translate(127.25 0)"/>
       <use xlink:href="#DejaVuSans-13" transform="translate(190.875 0)"/>
       <use xlink:href="#DejaVuSans-13" transform="translate(254.5 0)"/>
      </g>
     </g>
    </g>
    <g id="ytick_3">
     <g id="line2d_8">
      <g>
       <use xlink:href="#m83a7372402" x="58.740781" y="94.617973" style="fill: #8a929b; stroke: #8a929b; stroke-width: 0.8"/>
      </g>
     </g>
     <g id="text_3">
      <!-- 100000 -->
      <g style="fill: #8a929b" transform="translate(21.200781 97.657035) scale(0.08 -0.08)">
       <defs>
        <path id="DejaVuSans-14" d="M 794 531 
L 1825 531 
L 1825 4091 
L 703 3866 
L 703 4441 
L 1819 4666 
L 2450 4666 
L 2450 531 
L 3481 531 
L 3481 0 
L 794 0 
L 794 531 
z
" transform="scale(0.015625)"/>
       </defs>
       <use xlink:href="#DejaVuSans-14"/>
       <use xlink:href="#DejaVuSans-13" transform="translate(63.625 0)"/>
       <use xlink:href="#DejaVuSans-13" transform="translate(127.25 0)"/>
       <use xlink:href="#DejaVuSans-13" transform="translate(190.875 0)"/>
       <use xlink:href="#DejaVuSans-13" transform="translate(254.5 0)"/>
       <use xlink:href="#DejaVuSans-13" transform="translate(318.125 0)"/>
      </g>
     </g>
    </g>
    <g id="ytick_4">
     <g id="line2d_9">
      <g>
       <use xlink:href="#m83a7372402" x="58.740781" y="71.368512" style="fill: #8a929b; stroke: #8a929b; stroke-width: 0.8"/>
      </g>
     </g>
     <g id="text_4">
      <!-- 150000 -->
      <g style="fill: #8a929b" transform="translate(21.200781 74.407574) scale(0.08 -0.08)">
       <use xlink:href="#DejaVuSans-14"/>
       <use xlink:href="#DejaVuSans-18" transform="translate(63.625 0)"/>
       <use xlink:href="#DejaVuSans-13" transform="translate(127.25 0)"/>
       <use xlink:href="#DejaVuSans-13" transform="translate(190.875 0)"/>
       <use xlink:href="#DejaVuSans-13" transform="translate(254.5 0)"/>
       <use xlink:href="#DejaVuSans-13" transform="translate(318.125 0)"/>
      </g>
     </g>
    </g>
    <g id="ytick_5">
     <g id="line2d_10">
      <g>
       <use xlink:href="#m83a7372402" x="58.740781" y="48.119051" style="fill: #8a929b; stroke: #8a929b; stroke-width: 0.8"/>
      </g>
     </g>
     <g id="text_5">
      <!-- 200000 -->
      <g style="fill: #8a929b" transform="translate(21.200781 51.158114) scale(0.08 -0.08)">
       <defs>
        <path id="DejaVuSans-15" d="M 1228 531 
L 3431 531 
L 3431 0 
L 469 0 
L 469 531 
Q 828 903 1448 1529 
Q 2069 2156 2228 2338 
Q 2531 2678 2651 2914 
Q 2772 3150 2772 3378 
Q 2772 3750 2511 3984 
Q 2250 4219 1831 4219 
Q 1534 4219 1204 4116 
Q 875 4013 500 3803 
L 500 4441 
Q 881 4594 1212 4672 
Q 1544 4750 1819 4750 
Q 2544 4750 2975 4387 
Q 3406 4025 3406 3419 
Q 3406 3131 3298 2873 
Q 3191 2616 2906 2266 
Q 2828 2175 2409 1742 
Q 1991 1309 1228 531 
z
" transform="scale(0.015625)"/>
       </defs>
       <use xlink:href="#DejaVuSans-15"/>
       <use xlink:href="#DejaVuSans-13" transform="translate(63.625 0)"/>
       <use xlink:href="#DejaVuSans-13" transform="translate(127.25 0)"/>
       <use xlink:href="#DejaVuSans-13" transform="translate(190.875 0)"/>
       <use xlink:href="#DejaVuSans-13" transform="translate(254.5 0)"/>
       <use xlink:href="#DejaVuSans-13" transform="translate(318.125 0)"/>
      </g>
     </g>
    </g>
    <g id="ytick_6">
     <g id="line2d_11">
      <g>
       <use xlink:href="#m83a7372402" x="58.740781" y="24.86959" style="fill: #8a929b; stroke: #8a929b; stroke-width: 0.8"/>
      </g>
     </g>
     <g id="text_6">
      <!-- 250000 -->
      <g style="fill: #8a929b" transform="translate(21.200781 27.908653) scale(0.08 -0.08)">
       <use xlink:href="#DejaVuSans-15"/>
       <use xlink:href="#DejaVuSans-18" transform="translate(63.625 0)"/>
       <use xlink:href="#DejaVuSans-13" transform="translate(127.25 0)"/>
       <use xlink:href="#DejaVuSans-13" transform="translate(190.875 0)"/>
       <use xlink:href="#DejaVuSans-13" transform="translate(254.5 0)"/>
       <use xlink:href="#DejaVuSans-13" transform="translate(318.125 0)"/>
      </g>
     </g>
    </g>
    <g id="text_7">
     <!-- dF/dh  (N/m) -->
     <g style="fill: #1f2933" transform="translate(14.798438 111.190662) rotate(-90) scale(0.1 -0.1)">
      <defs>
       <path id="DejaVuSans-47" d="M 2906 2969 
L 2906 4863 
L 3481 4863 
L 3481 0 
L 2906 0 
L 2906 525 
Q 2725 213 2448 61 
Q 2172 -91 1784 -91 
Q 1150 -91 751 415 
Q 353 922 353 1747 
Q 353 2572 751 3078 
Q 1150 3584 1784 3584 
Q 2172 3584 2448 3432 
Q 2725 3281 2906 2969 
z
M 947 1747 
Q 947 1113 1208 752 
Q 1469 391 1925 391 
Q 2381 391 2643 752 
Q 2906 1113 2906 1747 
Q 2906 2381 2643 2742 
Q 2381 3103 1925 3103 
Q 1469 3103 1208 2742 
Q 947 2381 947 1747 
z
" transform="scale(0.015625)"/>
       <path id="DejaVuSans-29" d="M 628 4666 
L 3309 4666 
L 3309 4134 
L 1259 4134 
L 1259 2759 
L 3109 2759 
L 3109 2228 
L 1259 2228 
L 1259 0 
L 628 0 
L 628 4666 
z
" transform="scale(0.015625)"/>
       <path id="DejaVuSans-12" d="M 1625 4666 
L 2156 4666 
L 531 -594 
L 0 -594 
L 1625 4666 
z
" transform="scale(0.015625)"/>
       <path id="DejaVuSans-4b" d="M 3513 2113 
L 3513 0 
L 2938 0 
L 2938 2094 
Q 2938 2591 2744 2837 
Q 2550 3084 2163 3084 
Q 1697 3084 1428 2787 
Q 1159 2491 1159 1978 
L 1159 0 
L 581 0 
L 581 4863 
L 1159 4863 
L 1159 2956 
Q 1366 3272 1645 3428 
Q 1925 3584 2291 3584 
Q 2894 3584 3203 3211 
Q 3513 2838 3513 2113 
z
" transform="scale(0.015625)"/>
       <path id="DejaVuSans-3" transform="scale(0.015625)"/>
       <path id="DejaVuSans-b" d="M 1984 4856 
Q 1566 4138 1362 3434 
Q 1159 2731 1159 2009 
Q 1159 1288 1364 580 
Q 1569 -128 1984 -844 
L 1484 -844 
Q 1016 -109 783 600 
Q 550 1309 550 2009 
Q 550 2706 781 3412 
Q 1013 4119 1484 4856 
L 1984 4856 
z
" transform="scale(0.015625)"/>
       <path id="DejaVuSans-31" d="M 628 4666 
L 1478 4666 
L 3547 763 
L 3547 4666 
L 4159 4666 
L 4159 0 
L 3309 0 
L 1241 3903 
L 1241 0 
L 628 0 
L 628 4666 
z
" transform="scale(0.015625)"/>
       <path id="DejaVuSans-50" d="M 3328 2828 
Q 3544 3216 3844 3400 
Q 4144 3584 4550 3584 
Q 5097 3584 5394 3201 
Q 5691 2819 5691 2113 
L 5691 0 
L 5113 0 
L 5113 2094 
Q 5113 2597 4934 2840 
Q 4756 3084 4391 3084 
Q 3944 3084 3684 2787 
Q 3425 2491 3425 1978 
L 3425 0 
L 2847 0 
L 2847 2094 
Q 2847 2600 2669 2842 
Q 2491 3084 2119 3084 
Q 1678 3084 1418 2786 
Q 1159 2488 1159 1978 
L 1159 0 
L 581 0 
L 581 3500 
L 1159 3500 
L 1159 2956 
Q 1356 3278 1631 3431 
Q 1906 3584 2284 3584 
Q 2666 3584 2933 3390 
Q 3200 3197 3328 2828 
z
" transform="scale(0.015625)"/>
       <path id="DejaVuSans-c" d="M 513 4856 
L 1013 4856 
Q 1481 4119 1714 3412 
Q 1947 2706 1947 2009 
Q 1947 1309 1714 600 
Q 1481 -109 1013 -844 
L 513 -844 
Q 928 -128 1133 580 
Q 1338 1288 1338 2009 
Q 1338 2731 1133 3434 
Q 928 4138 513 4856 
z
" transform="scale(0.015625)"/>
      </defs>
      <use xlink:href="#DejaVuSans-47"/>
      <use xlink:href="#DejaVuSans-29" transform="translate(63.484375 0)"/>
      <use xlink:href="#DejaVuSans-12" transform="translate(121 0)"/>
      <use xlink:href="#DejaVuSans-47" transform="translate(154.6875 0)"/>
      <use xlink:href="#DejaVuSans-4b" transform="translate(218.171875 0)"/>
      <use xlink:href="#DejaVuSans-3" transform="translate(281.546875 0)"/>
      <use xlink:href="#DejaVuSans-3" transform="translate(313.328125 0)"/>
      <use xlink:href="#DejaVuSans-b" transform="translate(345.109375 0)"/>
      <use xlink:href="#DejaVuSans-31" transform="translate(384.125 0)"/>
      <use xlink:href="#DejaVuSans-12" transform="translate(458.9375 0)"/>
      <use xlink:href="#DejaVuSans-50" transform="translate(492.625 0)"/>
      <use xlink:href="#DejaVuSans-c" transform="translate(590.03125 0)"/>
     </g>
    </g>
   </g>
   <g id="line2d_12">
    <path d="M 58.740781 141.116894 
L 415.860781 141.116894 
" clip-path="url(#pb24366c99b)" style="fill: none; stroke: #d8d4c8; stroke-linecap: square"/>
   </g>
   <g id="line2d_13">
    <path d="M 58.740781 141.116894 
L 415.860781 29.519482 
L 415.860781 29.519482 
" clip-path="url(#pb24366c99b)" style="fill: none; stroke: #1f2933; stroke-width: 2.2; stroke-linecap: square"/>
   </g>
   <g id="patch_3">
    <path d="M 58.740781 152.276636 
L 58.740781 7.2 
" style="fill: none; stroke: #d8d4c8; stroke-width: 0.8; stroke-linejoin: miter; stroke-linecap: square"/>
   </g>
   <g id="patch_4">
    <path d="M 58.740781 152.276636 
L 415.860781 152.276636 
" style="fill: none; stroke: #d8d4c8; stroke-width: 0.8; stroke-linejoin: miter; stroke-linecap: square"/>
   </g>
   <g id="text_8">
    <g id="patch_5">
     <path d="M 163.755328 122.715813 
L 310.846234 122.715813 
Q 313.254234 122.715813 313.254234 120.307813 
L 313.254234 111.707141 
Q 313.254234 109.299141 310.846234 109.299141 
L 163.755328 109.299141 
Q 161.347328 109.299141 161.347328 111.707141 
L 161.347328 120.307813 
Q 161.347328 122.715813 163.755328 122.715813 
z
" style="fill: #fbfaf7; opacity: 0.92; stroke: #d8d4c8; stroke-width: 0.6; stroke-linejoin: miter"/>
    </g>
    <!-- shaded area  =  ∫ F dx  =  work W -->
    <g style="fill: #1f2933" transform="translate(163.755328 118.241797) scale(0.086 -0.086)">
     <defs>
      <path id="DejaVuSans-56" d="M 2834 3397 
L 2834 2853 
Q 2591 2978 2328 3040 
Q 2066 3103 1784 3103 
Q 1356 3103 1142 2972 
Q 928 2841 928 2578 
Q 928 2378 1081 2264 
Q 1234 2150 1697 2047 
L 1894 2003 
Q 2506 1872 2764 1633 
Q 3022 1394 3022 966 
Q 3022 478 2636 193 
Q 2250 -91 1575 -91 
Q 1294 -91 989 -36 
Q 684 19 347 128 
L 347 722 
Q 666 556 975 473 
Q 1284 391 1588 391 
Q 1994 391 2212 530 
Q 2431 669 2431 922 
Q 2431 1156 2273 1281 
Q 2116 1406 1581 1522 
L 1381 1569 
Q 847 1681 609 1914 
Q 372 2147 372 2553 
Q 372 3047 722 3315 
Q 1072 3584 1716 3584 
Q 2034 3584 2315 3537 
Q 2597 3491 2834 3397 
z
" transform="scale(0.015625)"/>
      <path id="DejaVuSans-44" d="M 2194 1759 
Q 1497 1759 1228 1600 
Q 959 1441 959 1056 
Q 959 750 1161 570 
Q 1363 391 1709 391 
Q 2188 391 2477 730 
Q 2766 1069 2766 1631 
L 2766 1759 
L 2194 1759 
z
M 3341 1997 
L 3341 0 
L 2766 0 
L 2766 531 
Q 2569 213 2275 61 
Q 1981 -91 1556 -91 
Q 1019 -91 701 211 
Q 384 513 384 1019 
Q 384 1609 779 1909 
Q 1175 2209 1959 2209 
L 2766 2209 
L 2766 2266 
Q 2766 2663 2505 2880 
Q 2244 3097 1772 3097 
Q 1472 3097 1187 3025 
Q 903 2953 641 2809 
L 641 3341 
Q 956 3463 1253 3523 
Q 1550 3584 1831 3584 
Q 2591 3584 2966 3190 
Q 3341 2797 3341 1997 
z
" transform="scale(0.015625)"/>
      <path id="DejaVuSans-48" d="M 3597 1894 
L 3597 1613 
L 953 1613 
Q 991 1019 1311 708 
Q 1631 397 2203 397 
Q 2534 397 2845 478 
Q 3156 559 3463 722 
L 3463 178 
Q 3153 47 2828 -22 
Q 2503 -91 2169 -91 
Q 1331 -91 842 396 
Q 353 884 353 1716 
Q 353 2575 817 3079 
Q 1281 3584 2069 3584 
Q 2775 3584 3186 3129 
Q 3597 2675 3597 1894 
z
M 3022 2063 
Q 3016 2534 2758 2815 
Q 2500 3097 2075 3097 
Q 1594 3097 1305 2825 
Q 1016 2553 972 2059 
L 3022 2063 
z
" transform="scale(0.015625)"/>
      <path id="DejaVuSans-55" d="M 2631 2963 
Q 2534 3019 2420 3045 
Q 2306 3072 2169 3072 
Q 1681 3072 1420 2755 
Q 1159 2438 1159 1844 
L 1159 0 
L 581 0 
L 581 3500 
L 1159 3500 
L 1159 2956 
Q 1341 3275 1631 3429 
Q 1922 3584 2338 3584 
Q 2397 3584 2469 3576 
Q 2541 3569 2628 3553 
L 2631 2963 
z
" transform="scale(0.015625)"/>
      <path id="DejaVuSans-20" d="M 678 2906 
L 4684 2906 
L 4684 2381 
L 678 2381 
L 678 2906 
z
M 678 1631 
L 4684 1631 
L 4684 1100 
L 678 1100 
L 678 1631 
z
" transform="scale(0.015625)"/>
      <path id="DejaVuSans-cb5" d="M 1509 3906 
Q 1534 4428 1787 4636 
Q 2041 4844 2277 4844 
Q 2513 4844 2709 4648 
Q 2906 4453 2969 4016 
L 2506 3969 
Q 2453 4375 2275 4375 
Q 2053 4375 2028 3828 
L 1825 -422 
Q 1800 -944 1547 -1151 
Q 1294 -1359 1058 -1359 
Q 822 -1359 625 -1164 
Q 428 -969 366 -531 
L 828 -484 
Q 881 -891 1059 -891 
Q 1281 -891 1306 -344 
L 1509 3906 
z
" transform="scale(0.015625)"/>
      <path id="DejaVuSans-5b" d="M 3513 3500 
L 2247 1797 
L 3578 0 
L 2900 0 
L 1881 1375 
L 863 0 
L 184 0 
L 1544 1831 
L 300 3500 
L 978 3500 
L 1906 2253 
L 2834 3500 
L 3513 3500 
z
" transform="scale(0.015625)"/>
      <path id="DejaVuSans-5a" d="M 269 3500 
L 844 3500 
L 1563 769 
L 2278 3500 
L 2956 3500 
L 3675 769 
L 4391 3500 
L 4966 3500 
L 4050 0 
L 3372 0 
L 2619 2869 
L 1863 0 
L 1184 0 
L 269 3500 
z
" transform="scale(0.015625)"/>
      <path id="DejaVuSans-52" d="M 1959 3097 
Q 1497 3097 1228 2736 
Q 959 2375 959 1747 
Q 959 1119 1226 758 
Q 1494 397 1959 397 
Q 2419 397 2687 759 
Q 2956 1122 2956 1747 
Q 2956 2369 2687 2733 
Q 2419 3097 1959 3097 
z
M 1959 3584 
Q 2709 3584 3137 3096 
Q 3566 2609 3566 1747 
Q 3566 888 3137 398 
Q 2709 -91 1959 -91 
Q 1206 -91 779 398 
Q 353 888 353 1747 
Q 353 2609 779 3096 
Q 1206 3584 1959 3584 
z
" transform="scale(0.015625)"/>
      <path id="DejaVuSans-4e" d="M 581 4863 
L 1159 4863 
L 1159 1991 
L 2875 3500 
L 3609 3500 
L 1753 1863 
L 3688 0 
L 2938 0 
L 1159 1709 
L 1159 0 
L 581 0 
L 581 4863 
z
" transform="scale(0.015625)"/>
      <path id="DejaVuSans-3a" d="M 213 4666 
L 850 4666 
L 1831 722 
L 2809 4666 
L 3519 4666 
L 4500 722 
L 5478 4666 
L 6119 4666 
L 4947 0 
L 4153 0 
L 3169 4050 
L 2175 0 
L 1381 0 
L 213 4666 
z
" transform="scale(0.015625)"/>
     </defs>
     <use xlink:href="#DejaVuSans-56"/>
     <use xlink:href="#DejaVuSans-4b" transform="translate(52.09375 0)"/>
     <use xlink:href="#DejaVuSans-44" transform="translate(115.46875 0)"/>
     <use xlink:href="#DejaVuSans-47" transform="translate(176.75 0)"/>
     <use xlink:href="#DejaVuSans-48" transform="translate(240.234375 0)"/>
     <use xlink:href="#DejaVuSans-47" transform="translate(301.765625 0)"/>
     <use xlink:href="#DejaVuSans-3" transform="translate(365.25 0)"/>
     <use xlink:href="#DejaVuSans-44" transform="translate(397.03125 0)"/>
     <use xlink:href="#DejaVuSans-55" transform="translate(458.3125 0)"/>
     <use xlink:href="#DejaVuSans-48" transform="translate(497.21875 0)"/>
     <use xlink:href="#DejaVuSans-44" transform="translate(558.75 0)"/>
     <use xlink:href="#DejaVuSans-3" transform="translate(620.03125 0)"/>
     <use xlink:href="#DejaVuSans-3" transform="translate(651.8125 0)"/>
     <use xlink:href="#DejaVuSans-20" transform="translate(683.59375 0)"/>
     <use xlink:href="#DejaVuSans-3" transform="translate(767.390625 0)"/>
     <use xlink:href="#DejaVuSans-3" transform="translate(799.171875 0)"/>
     <use xlink:href="#DejaVuSans-cb5" transform="translate(830.953125 0)"/>
     <use xlink:href="#DejaVuSans-3" transform="translate(883.046875 0)"/>
     <use xlink:href="#DejaVuSans-29" transform="translate(914.828125 0)"/>
     <use xlink:href="#DejaVuSans-3" transform="translate(972.34375 0)"/>
     <use xlink:href="#DejaVuSans-47" transform="translate(1004.125 0)"/>
     <use xlink:href="#DejaVuSans-5b" transform="translate(1067.609375 0)"/>
     <use xlink:href="#DejaVuSans-3" transform="translate(1126.796875 0)"/>
     <use xlink:href="#DejaVuSans-3" transform="translate(1158.578125 0)"/>
     <use xlink:href="#DejaVuSans-20" transform="translate(1190.359375 0)"/>
     <use xlink:href="#DejaVuSans-3" transform="translate(1274.15625 0)"/>
     <use xlink:href="#DejaVuSans-3" transform="translate(1305.9375 0)"/>
     <use xlink:href="#DejaVuSans-5a" transform="translate(1337.71875 0)"/>
     <use xlink:href="#DejaVuSans-52" transform="translate(1419.5 0)"/>
     <use xlink:href="#DejaVuSans-55" transform="translate(1480.6875 0)"/>
     <use xlink:href="#DejaVuSans-4e" transform="translate(1521.796875 0)"/>
     <use xlink:href="#DejaVuSans-3" transform="translate(1579.703125 0)"/>
     <use xlink:href="#DejaVuSans-3a" transform="translate(1611.484375 0)"/>
    </g>
   </g>
  </g>
  <g id="axes_2">
   <g id="patch_6">
    <path d="M 58.740781 317.664 
L 415.860781 317.664 
L 415.860781 172.587364 
L 58.740781 172.587364 
z
" style="fill: #fbfaf7"/>
   </g>
   <g id="matplotlib.axis_3">
    <g id="xtick_6">
     <g id="line2d_14">
      <g>
       <use xlink:href="#mf0688ad2a0" x="58.740781" y="317.664" style="fill: #8a929b; stroke: #8a929b; stroke-width: 0.8"/>
      </g>
     </g>
     <g id="text_9">
      <!-- 0 -->
      <g style="fill: #8a929b" transform="translate(56.195781 330.742125) scale(0.08 -0.08)">
       <use xlink:href="#DejaVuSans-13"/>
      </g>
     </g>
    </g>
    <g id="xtick_7">
     <g id="line2d_15">
      <g>
       <use xlink:href="#mf0688ad2a0" x="133.140781" y="317.664" style="fill: #8a929b; stroke: #8a929b; stroke-width: 0.8"/>
      </g>
     </g>
     <g id="text_10">
      <!-- 1 -->
      <g style="fill: #8a929b" transform="translate(130.595781 330.742125) scale(0.08 -0.08)">
       <use xlink:href="#DejaVuSans-14"/>
      </g>
     </g>
    </g>
    <g id="xtick_8">
     <g id="line2d_16">
      <g>
       <use xlink:href="#mf0688ad2a0" x="207.540781" y="317.664" style="fill: #8a929b; stroke: #8a929b; stroke-width: 0.8"/>
      </g>
     </g>
     <g id="text_11">
      <!-- 2 -->
      <g style="fill: #8a929b" transform="translate(204.995781 330.742125) scale(0.08 -0.08)">
       <use xlink:href="#DejaVuSans-15"/>
      </g>
     </g>
    </g>
    <g id="xtick_9">
     <g id="line2d_17">
      <g>
       <use xlink:href="#mf0688ad2a0" x="281.940781" y="317.664" style="fill: #8a929b; stroke: #8a929b; stroke-width: 0.8"/>
      </g>
     </g>
     <g id="text_12">
      <!-- 3 -->
      <g style="fill: #8a929b" transform="translate(279.395781 330.742125) scale(0.08 -0.08)">
       <defs>
        <path id="DejaVuSans-16" d="M 2597 2516 
Q 3050 2419 3304 2112 
Q 3559 1806 3559 1356 
Q 3559 666 3084 287 
Q 2609 -91 1734 -91 
Q 1441 -91 1130 -33 
Q 819 25 488 141 
L 488 750 
Q 750 597 1062 519 
Q 1375 441 1716 441 
Q 2309 441 2620 675 
Q 2931 909 2931 1356 
Q 2931 1769 2642 2001 
Q 2353 2234 1838 2234 
L 1294 2234 
L 1294 2753 
L 1863 2753 
Q 2328 2753 2575 2939 
Q 2822 3125 2822 3475 
Q 2822 3834 2567 4026 
Q 2313 4219 1838 4219 
Q 1578 4219 1281 4162 
Q 984 4106 628 3988 
L 628 4550 
Q 988 4650 1302 4700 
Q 1616 4750 1894 4750 
Q 2613 4750 3031 4423 
Q 3450 4097 3450 3541 
Q 3450 3153 3228 2886 
Q 3006 2619 2597 2516 
z
" transform="scale(0.015625)"/>
       </defs>
       <use xlink:href="#DejaVuSans-16"/>
      </g>
     </g>
    </g>
    <g id="xtick_10">
     <g id="line2d_18">
      <g>
       <use xlink:href="#mf0688ad2a0" x="356.340781" y="317.664" style="fill: #8a929b; stroke: #8a929b; stroke-width: 0.8"/>
      </g>
     </g>
     <g id="text_13">
      <!-- 4 -->
      <g style="fill: #8a929b" transform="translate(353.795781 330.742125) scale(0.08 -0.08)">
       <defs>
        <path id="DejaVuSans-17" d="M 2419 4116 
L 825 1625 
L 2419 1625 
L 2419 4116 
z
M 2253 4666 
L 3047 4666 
L 3047 1625 
L 3713 1625 
L 3713 1100 
L 3047 1100 
L 3047 0 
L 2419 0 
L 2419 1100 
L 313 1100 
L 313 1709 
L 2253 4666 
z
" transform="scale(0.015625)"/>
       </defs>
       <use xlink:href="#DejaVuSans-17"/>
      </g>
     </g>
    </g>
    <g id="text_14">
     <!-- h  (m) -->
     <g style="fill: #1f2933" transform="translate(222.182031 344.262437) scale(0.1 -0.1)">
      <use xlink:href="#DejaVuSans-4b"/>
      <use xlink:href="#DejaVuSans-3" transform="translate(63.375 0)"/>
      <use xlink:href="#DejaVuSans-3" transform="translate(95.15625 0)"/>
      <use xlink:href="#DejaVuSans-b" transform="translate(126.9375 0)"/>
      <use xlink:href="#DejaVuSans-50" transform="translate(165.953125 0)"/>
      <use xlink:href="#DejaVuSans-c" transform="translate(263.359375 0)"/>
     </g>
    </g>
   </g>
   <g id="matplotlib.axis_4">
    <g id="ytick_7">
     <g id="line2d_19">
      <g>
       <use xlink:href="#m83a7372402" x="58.740781" y="306.504259" style="fill: #8a929b; stroke: #8a929b; stroke-width: 0.8"/>
      </g>
     </g>
     <g id="text_15">
      <!-- 0 -->
      <g style="fill: #8a929b" transform="translate(46.650781 309.543321) scale(0.08 -0.08)">
       <use xlink:href="#DejaVuSans-13"/>
      </g>
     </g>
    </g>
    <g id="ytick_8">
     <g id="line2d_20">
      <g>
       <use xlink:href="#m83a7372402" x="58.740781" y="287.129708" style="fill: #8a929b; stroke: #8a929b; stroke-width: 0.8"/>
      </g>
     </g>
     <g id="text_16">
      <!-- 100000 -->
      <g style="fill: #8a929b" transform="translate(21.200781 290.168771) scale(0.08 -0.08)">
       <use xlink:href="#DejaVuSans-14"/>
       <use xlink:href="#DejaVuSans-13" transform="translate(63.625 0)"/>
       <use xlink:href="#DejaVuSans-13" transform="translate(127.25 0)"/>
       <use xlink:href="#DejaVuSans-13" transform="translate(190.875 0)"/>
       <use xlink:href="#DejaVuSans-13" transform="translate(254.5 0)"/>
       <use xlink:href="#DejaVuSans-13" transform="translate(318.125 0)"/>
      </g>
     </g>
    </g>
    <g id="ytick_9">
     <g id="line2d_21">
      <g>
       <use xlink:href="#m83a7372402" x="58.740781" y="267.755157" style="fill: #8a929b; stroke: #8a929b; stroke-width: 0.8"/>
      </g>
     </g>
     <g id="text_17">
      <!-- 200000 -->
      <g style="fill: #8a929b" transform="translate(21.200781 270.79422) scale(0.08 -0.08)">
       <use xlink:href="#DejaVuSans-15"/>
       <use xlink:href="#DejaVuSans-13" transform="translate(63.625 0)"/>
       <use xlink:href="#DejaVuSans-13" transform="translate(127.25 0)"/>
       <use xlink:href="#DejaVuSans-13" transform="translate(190.875 0)"/>
       <use xlink:href="#DejaVuSans-13" transform="translate(254.5 0)"/>
       <use xlink:href="#DejaVuSans-13" transform="translate(318.125 0)"/>
      </g>
     </g>
    </g>
    <g id="ytick_10">
     <g id="line2d_22">
      <g>
       <use xlink:href="#m83a7372402" x="58.740781" y="248.380607" style="fill: #8a929b; stroke: #8a929b; stroke-width: 0.8"/>
      </g>
     </g>
     <g id="text_18">
      <!-- 300000 -->
      <g style="fill: #8a929b" transform="translate(21.200781 251.419669) scale(0.08 -0.08)">
       <use xlink:href="#DejaVuSans-16"/>
       <use xlink:href="#DejaVuSans-13" transform="translate(63.625 0)"/>
       <use xlink:href="#DejaVuSans-13" transform="translate(127.25 0)"/>
       <use xlink:href="#DejaVuSans-13" transform="translate(190.875 0)"/>
       <use xlink:href="#DejaVuSans-13" transform="translate(254.5 0)"/>
       <use xlink:href="#DejaVuSans-13" transform="translate(318.125 0)"/>
      </g>
     </g>
    </g>
    <g id="ytick_11">
     <g id="line2d_23">
      <g>
       <use xlink:href="#m83a7372402" x="58.740781" y="229.006056" style="fill: #8a929b; stroke: #8a929b; stroke-width: 0.8"/>
      </g>
     </g>
     <g id="text_19">
      <!-- 400000 -->
      <g style="fill: #8a929b" transform="translate(21.200781 232.045119) scale(0.08 -0.08)">
       <use xlink:href="#DejaVuSans-17"/>
       <use xlink:href="#DejaVuSans-13" transform="translate(63.625 0)"/>
       <use xlink:href="#DejaVuSans-13" transform="translate(127.25 0)"/>
       <use xlink:href="#DejaVuSans-13" transform="translate(190.875 0)"/>
       <use xlink:href="#DejaVuSans-13" transform="translate(254.5 0)"/>
       <use xlink:href="#DejaVuSans-13" transform="translate(318.125 0)"/>
      </g>
     </g>
    </g>
    <g id="ytick_12">
     <g id="line2d_24">
      <g>
       <use xlink:href="#m83a7372402" x="58.740781" y="209.631505" style="fill: #8a929b; stroke: #8a929b; stroke-width: 0.8"/>
      </g>
     </g>
     <g id="text_20">
      <!-- 500000 -->
      <g style="fill: #8a929b" transform="translate(21.200781 212.670568) scale(0.08 -0.08)">
       <use xlink:href="#DejaVuSans-18"/>
       <use xlink:href="#DejaVuSans-13" transform="translate(63.625 0)"/>
       <use xlink:href="#DejaVuSans-13" transform="translate(127.25 0)"/>
       <use xlink:href="#DejaVuSans-13" transform="translate(190.875 0)"/>
       <use xlink:href="#DejaVuSans-13" transform="translate(254.5 0)"/>
       <use xlink:href="#DejaVuSans-13" transform="translate(318.125 0)"/>
      </g>
     </g>
    </g>
    <g id="ytick_13">
     <g id="line2d_25">
      <g>
       <use xlink:href="#m83a7372402" x="58.740781" y="190.256955" style="fill: #8a929b; stroke: #8a929b; stroke-width: 0.8"/>
      </g>
     </g>
     <g id="text_21">
      <!-- 600000 -->
      <g style="fill: #8a929b" transform="translate(21.200781 193.296017) scale(0.08 -0.08)">
       <defs>
        <path id="DejaVuSans-19" d="M 2113 2584 
Q 1688 2584 1439 2293 
Q 1191 2003 1191 1497 
Q 1191 994 1439 701 
Q 1688 409 2113 409 
Q 2538 409 2786 701 
Q 3034 994 3034 1497 
Q 3034 2003 2786 2293 
Q 2538 2584 2113 2584 
z
M 3366 4563 
L 3366 3988 
Q 3128 4100 2886 4159 
Q 2644 4219 2406 4219 
Q 1781 4219 1451 3797 
Q 1122 3375 1075 2522 
Q 1259 2794 1537 2939 
Q 1816 3084 2150 3084 
Q 2853 3084 3261 2657 
Q 3669 2231 3669 1497 
Q 3669 778 3244 343 
Q 2819 -91 2113 -91 
Q 1303 -91 875 529 
Q 447 1150 447 2328 
Q 447 3434 972 4092 
Q 1497 4750 2381 4750 
Q 2619 4750 2861 4703 
Q 3103 4656 3366 4563 
z
" transform="scale(0.015625)"/>
       </defs>
       <use xlink:href="#DejaVuSans-19"/>
       <use xlink:href="#DejaVuSans-13" transform="translate(63.625 0)"/>
       <use xlink:href="#DejaVuSans-13" transform="translate(127.25 0)"/>
       <use xlink:href="#DejaVuSans-13" transform="translate(190.875 0)"/>
       <use xlink:href="#DejaVuSans-13" transform="translate(254.5 0)"/>
       <use xlink:href="#DejaVuSans-13" transform="translate(318.125 0)"/>
      </g>
     </g>
    </g>
    <g id="text_22">
     <!-- F  (N) -->
     <g style="fill: #1f2933" transform="translate(14.798438 258.821776) rotate(-90) scale(0.1 -0.1)">
      <use xlink:href="#DejaVuSans-29"/>
      <use xlink:href="#DejaVuSans-3" transform="translate(57.515625 0)"/>
      <use xlink:href="#DejaVuSans-3" transform="translate(89.296875 0)"/>
      <use xlink:href="#DejaVuSans-b" transform="translate(121.078125 0)"/>
      <use xlink:href="#DejaVuSans-31" transform="translate(160.09375 0)"/>
      <use xlink:href="#DejaVuSans-c" transform="translate(234.90625 0)"/>
     </g>
    </g>
   </g>
   <g id="line2d_26">
    <path d="M 58.740781 306.504259 
L 415.860781 306.504259 
" clip-path="url(#pca8346a711)" style="fill: none; stroke: #d8d4c8; stroke-linecap: square"/>
   </g>
   <g id="line2d_27">
    <path d="M 58.740781 306.504259 
L 70.694589 306.379222 
L 82.648396 306.004111 
L 94.602204 305.378926 
L 106.556011 304.503668 
L 118.509819 303.378336 
L 130.463626 302.002929 
L 142.417434 300.377449 
L 154.371242 298.501895 
L 166.325049 296.376268 
L 178.278857 294.000566 
L 190.232664 291.374791 
L 202.186472 288.498941 
L 214.140279 285.373018 
L 226.094087 281.997021 
L 238.047894 278.37095 
L 250.001702 274.494805 
L 261.955509 270.368587 
L 273.909317 265.992294 
L 285.863124 261.365928 
L 297.816932 256.489488 
L 309.770739 251.362974 
L 321.724547 245.986386 
L 333.678354 240.359724 
L 345.632162 234.482988 
L 357.58597 228.356179 
L 369.539777 221.979295 
L 381.493585 215.352338 
L 393.447392 208.475307 
L 405.4012 201.348202 
L 415.860781 194.906847 
L 415.860781 194.906847 
" clip-path="url(#pca8346a711)" style="fill: none; stroke: #2f6f4f; stroke-width: 2.2; stroke-linecap: square"/>
   </g>
   <g id="patch_7">
    <path d="M 58.740781 317.664 
L 58.740781 172.587364 
" style="fill: none; stroke: #d8d4c8; stroke-width: 0.8; stroke-linejoin: miter; stroke-linecap: square"/>
   </g>
   <g id="patch_8">
    <path d="M 58.740781 317.664 
L 415.860781 317.664 
" style="fill: none; stroke: #d8d4c8; stroke-width: 0.8; stroke-linejoin: miter; stroke-linecap: square"/>
   </g>
   <g id="text_23">
    <g id="patch_9">
     <path d="M 288.155181 276.614886 
L 368.183556 276.614886 
Q 370.591556 276.614886 370.591556 274.206886 
L 370.591556 265.606214 
Q 370.591556 263.198214 368.183556 263.198214 
L 288.155181 263.198214 
Q 285.747181 263.198214 285.747181 265.606214 
L 285.747181 274.206886 
Q 285.747181 276.614886 288.155181 276.614886 
z
" style="fill: #fbfaf7; opacity: 0.92; stroke: #d8d4c8; stroke-width: 0.6; stroke-linejoin: miter"/>
    </g>
    <!-- slope of W  =  F(x) -->
    <g style="fill: #1f2933" transform="translate(288.155181 272.14087) scale(0.086 -0.086)">
     <defs>
      <path id="DejaVuSans-4f" d="M 603 4863 
L 1178 4863 
L 1178 0 
L 603 0 
L 603 4863 
z
" transform="scale(0.015625)"/>
      <path id="DejaVuSans-53" d="M 1159 525 
L 1159 -1331 
L 581 -1331 
L 581 3500 
L 1159 3500 
L 1159 2969 
Q 1341 3281 1617 3432 
Q 1894 3584 2278 3584 
Q 2916 3584 3314 3078 
Q 3713 2572 3713 1747 
Q 3713 922 3314 415 
Q 2916 -91 2278 -91 
Q 1894 -91 1617 61 
Q 1341 213 1159 525 
z
M 3116 1747 
Q 3116 2381 2855 2742 
Q 2594 3103 2138 3103 
Q 1681 3103 1420 2742 
Q 1159 2381 1159 1747 
Q 1159 1113 1420 752 
Q 1681 391 2138 391 
Q 2594 391 2855 752 
Q 3116 1113 3116 1747 
z
" transform="scale(0.015625)"/>
      <path id="DejaVuSans-49" d="M 2375 4863 
L 2375 4384 
L 1825 4384 
Q 1516 4384 1395 4259 
Q 1275 4134 1275 3809 
L 1275 3500 
L 2222 3500 
L 2222 3053 
L 1275 3053 
L 1275 0 
L 697 0 
L 697 3053 
L 147 3053 
L 147 3500 
L 697 3500 
L 697 3744 
Q 697 4328 969 4595 
Q 1241 4863 1831 4863 
L 2375 4863 
z
" transform="scale(0.015625)"/>
     </defs>
     <use xlink:href="#DejaVuSans-56"/>
     <use xlink:href="#DejaVuSans-4f" transform="translate(52.09375 0)"/>
     <use xlink:href="#DejaVuSans-52" transform="translate(79.875 0)"/>
     <use xlink:href="#DejaVuSans-53" transform="translate(141.0625 0)"/>
     <use xlink:href="#DejaVuSans-48" transform="translate(204.546875 0)"/>
     <use xlink:href="#DejaVuSans-3" transform="translate(266.078125 0)"/>
     <use xlink:href="#DejaVuSans-52" transform="translate(297.859375 0)"/>
     <use xlink:href="#DejaVuSans-49" transform="translate(359.046875 0)"/>
     <use xlink:href="#DejaVuSans-3" transform="translate(394.25 0)"/>
     <use xlink:href="#DejaVuSans-3a" transform="translate(426.03125 0)"/>
     <use xlink:href="#DejaVuSans-3" transform="translate(524.90625 0)"/>
     <use xlink:href="#DejaVuSans-3" transform="translate(556.6875 0)"/>
     <use xlink:href="#DejaVuSans-20" transform="translate(588.46875 0)"/>
     <use xlink:href="#DejaVuSans-3" transform="translate(672.265625 0)"/>
     <use xlink:href="#DejaVuSans-3" transform="translate(704.046875 0)"/>
     <use xlink:href="#DejaVuSans-29" transform="translate(735.828125 0)"/>
     <use xlink:href="#DejaVuSans-b" transform="translate(793.34375 0)"/>
     <use xlink:href="#DejaVuSans-5b" transform="translate(832.359375 0)"/>
     <use xlink:href="#DejaVuSans-c" transform="translate(891.546875 0)"/>
    </g>
   </g>
  </g>
 </g>
 <defs>
  <clipPath id="pb24366c99b">
   <rect x="58.740781" y="7.2" width="357.12" height="145.076636"/>
  </clipPath>
  <clipPath id="pca8346a711">
   <rect x="58.740781" y="172.587364" width="357.12" height="145.076636"/>
  </clipPath>
 </defs>
</svg>
