<?xml version="1.0" encoding="utf-8" standalone="no"?>
<!DOCTYPE svg PUBLIC "-//W3C//DTD SVG 1.1//EN"
  "http://www.w3.org/Graphics/SVG/1.1/DTD/svg11.dtd">
<svg xmlns:xlink="http://www.w3.org/1999/xlink" width="421.78625pt" height="353.864pt" viewBox="0 0 421.78625 353.864" xmlns="http://www.w3.org/2000/svg" version="1.1">
 <metadata>
  <rdf:RDF xmlns:dc="http://purl.org/dc/elements/1.1/" xmlns:cc="http://creativecommons.org/ns#" xmlns:rdf="http://www.w3.org/1999/02/22-rdf-syntax-ns#">
   <cc:Work>
    <dc:type rdf:resource="http://purl.org/dc/dcmitype/StillImage"/>
    <dc:date>2026-06-26T15:38:18.044815</dc:date>
    <dc:format>image/svg+xml</dc:format>
    <dc:creator>
     <cc:Agent>
      <dc:title>Matplotlib v3.11.0, https://matplotlib.org/</dc:title>
     </cc:Agent>
    </dc:creator>
   </cc:Work>
  </rdf:RDF>
 </metadata>
 <defs>
  <style type="text/css">*{stroke-linejoin: round; stroke-linecap: butt}</style>
 </defs>
 <g id="figure_1">
  <g id="patch_1">
   <path d="M 0 353.864 
L 421.78625 353.864 
L 421.78625 0 
L 0 0 
z
" style="fill: #fbfaf7"/>
  </g>
  <g id="axes_1">
   <g id="patch_2">
    <path d="M 43.47 152.276636 
L 400.59 152.276636 
L 400.59 7.2 
L 43.47 7.2 
z
" style="fill: #fbfaf7"/>
   </g>
   <g id="FillBetweenPolyCollection_1">
    <defs>
     <path id="m221325c413" d="M 43.47 -212.747106 
L 43.47 -212.747106 
L 44.964226 -214.214014 
L 46.458452 -215.680669 
L 47.952678 -217.146817 
L 49.446904 -218.612205 
L 50.94113 -220.076579 
L 52.435356 -221.539687 
L 53.929582 -223.001276 
L 55.423808 -224.461093 
L 56.918033 -225.918886 
L 58.412259 -227.374403 
L 59.906485 -228.827393 
L 61.400711 -230.277605 
L 62.894937 -231.724788 
L 64.389163 -233.168691 
L 65.883389 -234.609066 
L 67.377615 -236.045664 
L 68.871841 -237.478236 
L 70.366067 -238.906536 
L 71.860293 -240.330315 
L 73.354519 -241.749328 
L 74.848745 -243.163331 
L 76.342971 -244.572078 
L 77.837197 -245.975326 
L 79.331423 -247.372833 
L 80.825649 -248.764357 
L 82.319874 -250.149658 
L 83.8141 -251.528497 
L 85.308326 -252.900635 
L 86.802552 -254.265835 
L 88.296778 -255.623862 
L 89.791004 -256.97448 
L 91.28523 -258.317456 
L 92.779456 -259.652559 
L 94.273682 -260.979558 
L 95.767908 -262.298222 
L 97.262134 -263.608326 
L 98.75636 -264.909641 
L 100.250586 -266.201943 
L 101.744812 -267.48501 
L 103.239038 -268.758619 
L 104.733264 -270.02255 
L 106.22749 -271.276585 
L 107.721715 -272.520507 
L 109.215941 -273.754101 
L 110.710167 -274.977155 
L 112.204393 -276.189456 
L 113.698619 -277.390796 
L 115.192845 -278.580966 
L 116.687071 -279.759761 
L 118.181297 -280.926978 
L 119.675523 -282.082415 
L 121.169749 -283.225872 
L 122.663975 -284.357151 
L 124.158201 -285.476058 
L 125.652427 -286.582398 
L 127.146653 -287.675981 
L 128.640879 -288.756617 
L 130.135105 -289.824121 
L 131.629331 -290.878307 
L 133.123556 -291.918993 
L 134.617782 -292.946 
L 136.112008 -293.95915 
L 137.606234 -294.958268 
L 139.10046 -295.943181 
L 140.594686 -296.91372 
L 142.088912 -297.869716 
L 143.583138 -298.811005 
L 145.077364 -299.737423 
L 146.57159 -300.648811 
L 148.065816 -301.545011 
L 149.560042 -302.425869 
L 151.054268 -303.291231 
L 152.548494 -304.14095 
L 154.04272 -304.974877 
L 155.536946 -305.792869 
L 157.031172 -306.594784 
L 158.525397 -307.380484 
L 160.019623 -308.149833 
L 161.513849 -308.902699 
L 163.008075 -309.63895 
L 164.502301 -310.35846 
L 165.996527 -311.061105 
L 167.490753 -311.746763 
L 168.984979 -312.415316 
L 170.479205 -313.066648 
L 171.973431 -313.700646 
L 173.467657 -314.317202 
L 174.961883 -314.916208 
L 176.456109 -315.497561 
L 177.950335 -316.06116 
L 179.444561 -316.606909 
L 180.938787 -317.134713 
L 182.433013 -317.644481 
L 183.927238 -318.136124 
L 185.421464 -318.609558 
L 186.91569 -319.064701 
L 188.409916 -319.501474 
L 189.904142 -319.919802 
L 191.398368 -320.319613 
L 192.892594 -320.700836 
L 194.38682 -321.063408 
L 195.881046 -321.407264 
L 197.375272 -321.732346 
L 198.869498 -322.038597 
L 200.363724 -322.325965 
L 201.85795 -322.5944 
L 203.352176 -322.843855 
L 204.846402 -323.074287 
L 206.340628 -323.285656 
L 207.834854 -323.477927 
L 209.329079 -323.651065 
L 210.823305 -323.805042 
L 212.317531 -323.939829 
L 213.811757 -324.055404 
L 215.305983 -324.151748 
L 216.800209 -324.228842 
L 218.294435 -324.286675 
L 219.788661 -324.325236 
L 221.282887 -324.344518 
L 222.777113 -324.344518 
L 224.271339 -324.325236 
L 225.765565 -324.286675 
L 227.259791 -324.228842 
L 228.754017 -324.151748 
L 230.248243 -324.055404 
L 231.742469 -323.939829 
L 233.236695 -323.805042 
L 234.730921 -323.651065 
L 236.225146 -323.477927 
L 237.719372 -323.285656 
L 239.213598 -323.074287 
L 240.707824 -322.843855 
L 242.20205 -322.5944 
L 243.696276 -322.325965 
L 245.190502 -322.038597 
L 246.684728 -321.732346 
L 248.178954 -321.407264 
L 249.67318 -321.063408 
L 251.167406 -320.700836 
L 252.661632 -320.319613 
L 254.155858 -319.919802 
L 255.650084 -319.501474 
L 257.14431 -319.064701 
L 258.638536 -318.609558 
L 260.132762 -318.136124 
L 261.626987 -317.644481 
L 263.121213 -317.134713 
L 264.615439 -316.606909 
L 266.109665 -316.06116 
L 267.603891 -315.497561 
L 269.098117 -314.916208 
L 270.592343 -314.317202 
L 272.086569 -313.700646 
L 273.580795 -313.066648 
L 275.075021 -312.415316 
L 276.569247 -311.746763 
L 278.063473 -311.061105 
L 279.557699 -310.35846 
L 281.051925 -309.63895 
L 282.546151 -308.902699 
L 284.040377 -308.149833 
L 285.534603 -307.380484 
L 287.028828 -306.594784 
L 288.523054 -305.792869 
L 290.01728 -304.974877 
L 291.511506 -304.14095 
L 293.005732 -303.291231 
L 294.499958 -302.425869 
L 295.994184 -301.545011 
L 297.48841 -300.648811 
L 298.982636 -299.737423 
L 300.476862 -298.811005 
L 301.971088 -297.869716 
L 303.465314 -296.91372 
L 304.95954 -295.943181 
L 306.453766 -294.958268 
L 307.947992 -293.95915 
L 309.442218 -292.946 
L 310.936444 -291.918993 
L 312.430669 -290.878307 
L 313.924895 -289.824121 
L 315.419121 -288.756617 
L 316.913347 -287.675981 
L 318.407573 -286.582398 
L 319.901799 -285.476058 
L 321.396025 -284.357151 
L 322.890251 -283.225872 
L 324.384477 -282.082415 
L 325.878703 -280.926978 
L 327.372929 -279.759761 
L 328.867155 -278.580966 
L 330.361381 -277.390796 
L 331.855607 -276.189456 
L 333.349833 -274.977155 
L 334.844059 -273.754101 
L 336.338285 -272.520507 
L 337.83251 -271.276585 
L 339.326736 -270.02255 
L 340.820962 -268.758619 
L 342.315188 -267.48501 
L 343.809414 -266.201943 
L 345.30364 -264.909641 
L 346.797866 -263.608326 
L 348.292092 -262.298222 
L 349.786318 -260.979558 
L 351.280544 -259.652559 
L 352.77477 -258.317456 
L 354.268996 -256.97448 
L 355.763222 -255.623862 
L 357.257448 -254.265835 
L 358.751674 -252.900635 
L 360.2459 -251.528497 
L 361.740126 -250.149658 
L 363.234351 -248.764357 
L 364.728577 -247.372833 
L 366.222803 -245.975326 
L 367.717029 -244.572078 
L 369.211255 -243.163331 
L 370.705481 -241.749328 
L 372.199707 -240.330315 
L 373.693933 -238.906536 
L 375.188159 -237.478236 
L 376.682385 -236.045664 
L 378.176611 -234.609066 
L 379.670837 -233.168691 
L 381.165063 -231.724788 
L 382.659289 -230.277605 
L 384.153515 -228.827393 
L 385.647741 -227.374403 
L 387.141967 -225.918886 
L 388.636192 -224.461093 
L 390.130418 -223.001276 
L 391.624644 -221.539687 
L 393.11887 -220.076579 
L 394.613096 -218.612205 
L 396.107322 -217.146817 
L 397.601548 -215.680669 
L 399.095774 -214.214014 
L 400.59 -212.747106 
L 400.59 -212.747106 
L 400.59 -212.747106 
L 399.095774 -212.747106 
L 397.601548 -212.747106 
L 396.107322 -212.747106 
L 394.613096 -212.747106 
L 393.11887 -212.747106 
L 391.624644 -212.747106 
L 390.130418 -212.747106 
L 388.636192 -212.747106 
L 387.141967 -212.747106 
L 385.647741 -212.747106 
L 384.153515 -212.747106 
L 382.659289 -212.747106 
L 381.165063 -212.747106 
L 379.670837 -212.747106 
L 378.176611 -212.747106 
L 376.682385 -212.747106 
L 375.188159 -212.747106 
L 373.693933 -212.747106 
L 372.199707 -212.747106 
L 370.705481 -212.747106 
L 369.211255 -212.747106 
L 367.717029 -212.747106 
L 366.222803 -212.747106 
L 364.728577 -212.747106 
L 363.234351 -212.747106 
L 361.740126 -212.747106 
L 360.2459 -212.747106 
L 358.751674 -212.747106 
L 357.257448 -212.747106 
L 355.763222 -212.747106 
L 354.268996 -212.747106 
L 352.77477 -212.747106 
L 351.280544 -212.747106 
L 349.786318 -212.747106 
L 348.292092 -212.747106 
L 346.797866 -212.747106 
L 345.30364 -212.747106 
L 343.809414 -212.747106 
L 342.315188 -212.747106 
L 340.820962 -212.747106 
L 339.326736 -212.747106 
L 337.83251 -212.747106 
L 336.338285 -212.747106 
L 334.844059 -212.747106 
L 333.349833 -212.747106 
L 331.855607 -212.747106 
L 330.361381 -212.747106 
L 328.867155 -212.747106 
L 327.372929 -212.747106 
L 325.878703 -212.747106 
L 324.384477 -212.747106 
L 322.890251 -212.747106 
L 321.396025 -212.747106 
L 319.901799 -212.747106 
L 318.407573 -212.747106 
L 316.913347 -212.747106 
L 315.419121 -212.747106 
L 313.924895 -212.747106 
L 312.430669 -212.747106 
L 310.936444 -212.747106 
L 309.442218 -212.747106 
L 307.947992 -212.747106 
L 306.453766 -212.747106 
L 304.95954 -212.747106 
L 303.465314 -212.747106 
L 301.971088 -212.747106 
L 300.476862 -212.747106 
L 298.982636 -212.747106 
L 297.48841 -212.747106 
L 295.994184 -212.747106 
L 294.499958 -212.747106 
L 293.005732 -212.747106 
L 291.511506 -212.747106 
L 290.01728 -212.747106 
L 288.523054 -212.747106 
L 287.028828 -212.747106 
L 285.534603 -212.747106 
L 284.040377 -212.747106 
L 282.546151 -212.747106 
L 281.051925 -212.747106 
L 279.557699 -212.747106 
L 278.063473 -212.747106 
L 276.569247 -212.747106 
L 275.075021 -212.747106 
L 273.580795 -212.747106 
L 272.086569 -212.747106 
L 270.592343 -212.747106 
L 269.098117 -212.747106 
L 267.603891 -212.747106 
L 266.109665 -212.747106 
L 264.615439 -212.747106 
L 263.121213 -212.747106 
L 261.626987 -212.747106 
L 260.132762 -212.747106 
L 258.638536 -212.747106 
L 257.14431 -212.747106 
L 255.650084 -212.747106 
L 254.155858 -212.747106 
L 252.661632 -212.747106 
L 251.167406 -212.747106 
L 249.67318 -212.747106 
L 248.178954 -212.747106 
L 246.684728 -212.747106 
L 245.190502 -212.747106 
L 243.696276 -212.747106 
L 242.20205 -212.747106 
L 240.707824 -212.747106 
L 239.213598 -212.747106 
L 237.719372 -212.747106 
L 236.225146 -212.747106 
L 234.730921 -212.747106 
L 233.236695 -212.747106 
L 231.742469 -212.747106 
L 230.248243 -212.747106 
L 228.754017 -212.747106 
L 227.259791 -212.747106 
L 225.765565 -212.747106 
L 224.271339 -212.747106 
L 222.777113 -212.747106 
L 221.282887 -212.747106 
L 219.788661 -212.747106 
L 218.294435 -212.747106 
L 216.800209 -212.747106 
L 215.305983 -212.747106 
L 213.811757 -212.747106 
L 212.317531 -212.747106 
L 210.823305 -212.747106 
L 209.329079 -212.747106 
L 207.834854 -212.747106 
L 206.340628 -212.747106 
L 204.846402 -212.747106 
L 203.352176 -212.747106 
L 201.85795 -212.747106 
L 200.363724 -212.747106 
L 198.869498 -212.747106 
L 197.375272 -212.747106 
L 195.881046 -212.747106 
L 194.38682 -212.747106 
L 192.892594 -212.747106 
L 191.398368 -212.747106 
L 189.904142 -212.747106 
L 188.409916 -212.747106 
L 186.91569 -212.747106 
L 185.421464 -212.747106 
L 183.927238 -212.747106 
L 182.433013 -212.747106 
L 180.938787 -212.747106 
L 179.444561 -212.747106 
L 177.950335 -212.747106 
L 176.456109 -212.747106 
L 174.961883 -212.747106 
L 173.467657 -212.747106 
L 171.973431 -212.747106 
L 170.479205 -212.747106 
L 168.984979 -212.747106 
L 167.490753 -212.747106 
L 165.996527 -212.747106 
L 164.502301 -212.747106 
L 163.008075 -212.747106 
L 161.513849 -212.747106 
L 160.019623 -212.747106 
L 158.525397 -212.747106 
L 157.031172 -212.747106 
L 155.536946 -212.747106 
L 154.04272 -212.747106 
L 152.548494 -212.747106 
L 151.054268 -212.747106 
L 149.560042 -212.747106 
L 148.065816 -212.747106 
L 146.57159 -212.747106 
L 145.077364 -212.747106 
L 143.583138 -212.747106 
L 142.088912 -212.747106 
L 140.594686 -212.747106 
L 139.10046 -212.747106 
L 137.606234 -212.747106 
L 136.112008 -212.747106 
L 134.617782 -212.747106 
L 133.123556 -212.747106 
L 131.629331 -212.747106 
L 130.135105 -212.747106 
L 128.640879 -212.747106 
L 127.146653 -212.747106 
L 125.652427 -212.747106 
L 124.158201 -212.747106 
L 122.663975 -212.747106 
L 121.169749 -212.747106 
L 119.675523 -212.747106 
L 118.181297 -212.747106 
L 116.687071 -212.747106 
L 115.192845 -212.747106 
L 113.698619 -212.747106 
L 112.204393 -212.747106 
L 110.710167 -212.747106 
L 109.215941 -212.747106 
L 107.721715 -212.747106 
L 106.22749 -212.747106 
L 104.733264 -212.747106 
L 103.239038 -212.747106 
L 101.744812 -212.747106 
L 100.250586 -212.747106 
L 98.75636 -212.747106 
L 97.262134 -212.747106 
L 95.767908 -212.747106 
L 94.273682 -212.747106 
L 92.779456 -212.747106 
L 91.28523 -212.747106 
L 89.791004 -212.747106 
L 88.296778 -212.747106 
L 86.802552 -212.747106 
L 85.308326 -212.747106 
L 83.8141 -212.747106 
L 82.319874 -212.747106 
L 80.825649 -212.747106 
L 79.331423 -212.747106 
L 77.837197 -212.747106 
L 76.342971 -212.747106 
L 74.848745 -212.747106 
L 73.354519 -212.747106 
L 71.860293 -212.747106 
L 70.366067 -212.747106 
L 68.871841 -212.747106 
L 67.377615 -212.747106 
L 65.883389 -212.747106 
L 64.389163 -212.747106 
L 62.894937 -212.747106 
L 61.400711 -212.747106 
L 59.906485 -212.747106 
L 58.412259 -212.747106 
L 56.918033 -212.747106 
L 55.423808 -212.747106 
L 53.929582 -212.747106 
L 52.435356 -212.747106 
L 50.94113 -212.747106 
L 49.446904 -212.747106 
L 47.952678 -212.747106 
L 46.458452 -212.747106 
L 44.964226 -212.747106 
L 43.47 -212.747106 
z
"/>
    </defs>
    <g clip-path="url(#p4477c94d7c)">
     <use xlink:href="#m221325c413" x="0" y="353.864" style="fill: #2f6f4f; fill-opacity: 0.16"/>
    </g>
   </g>
   <g id="matplotlib.axis_1">
    <g id="xtick_1">
     <g id="line2d_1">
      <defs>
       <path id="mc6f41aeaa9" d="M 0 0 
L 0 3.5 
" style="stroke: #8a929b; stroke-width: 0.8"/>
      </defs>
      <g>
       <use xlink:href="#mc6f41aeaa9" x="43.47" y="152.276636" style="fill: #8a929b; stroke: #8a929b; stroke-width: 0.8"/>
      </g>
     </g>
    </g>
    <g id="xtick_2">
     <g id="line2d_2">
      <g>
       <use xlink:href="#mc6f41aeaa9" x="88.11" y="152.276636" style="fill: #8a929b; stroke: #8a929b; stroke-width: 0.8"/>
      </g>
     </g>
    </g>
    <g id="xtick_3">
     <g id="line2d_3">
      <g>
       <use xlink:href="#mc6f41aeaa9" x="132.75" y="152.276636" style="fill: #8a929b; stroke: #8a929b; stroke-width: 0.8"/>
      </g>
     </g>
    </g>
    <g id="xtick_4">
     <g id="line2d_4">
      <g>
       <use xlink:href="#mc6f41aeaa9" x="177.39" y="152.276636" style="fill: #8a929b; stroke: #8a929b; stroke-width: 0.8"/>
      </g>
     </g>
    </g>
    <g id="xtick_5">
     <g id="line2d_5">
      <g>
       <use xlink:href="#mc6f41aeaa9" x="222.03" y="152.276636" style="fill: #8a929b; stroke: #8a929b; stroke-width: 0.8"/>
      </g>
     </g>
    </g>
    <g id="xtick_6">
     <g id="line2d_6">
      <g>
       <use xlink:href="#mc6f41aeaa9" x="266.67" y="152.276636" style="fill: #8a929b; stroke: #8a929b; stroke-width: 0.8"/>
      </g>
     </g>
    </g>
    <g id="xtick_7">
     <g id="line2d_7">
      <g>
       <use xlink:href="#mc6f41aeaa9" x="311.31" y="152.276636" style="fill: #8a929b; stroke: #8a929b; stroke-width: 0.8"/>
      </g>
     </g>
    </g>
    <g id="xtick_8">
     <g id="line2d_8">
      <g>
       <use xlink:href="#mc6f41aeaa9" x="355.95" y="152.276636" style="fill: #8a929b; stroke: #8a929b; stroke-width: 0.8"/>
      </g>
     </g>
    </g>
    <g id="xtick_9">
     <g id="line2d_9">
      <g>
       <use xlink:href="#mc6f41aeaa9" x="400.59" y="152.276636" style="fill: #8a929b; stroke: #8a929b; stroke-width: 0.8"/>
      </g>
     </g>
    </g>
   </g>
   <g id="matplotlib.axis_2">
    <g id="ytick_1">
     <g id="line2d_10">
      <defs>
       <path id="mcee02c1ccf" d="M 0 0 
L -3.5 0 
" style="stroke: #8a929b; stroke-width: 0.8"/>
      </defs>
      <g>
       <use xlink:href="#mcee02c1ccf" x="43.47" y="141.116894" style="fill: #8a929b; stroke: #8a929b; stroke-width: 0.8"/>
      </g>
     </g>
     <g id="text_1">
      <!-- 0 -->
      <g style="fill: #8a929b" transform="translate(31.38 144.155957) scale(0.08 -0.08)">
       <defs>
        <path id="DejaVuSans-13" d="M 2034 4250 
Q 1547 4250 1301 3770 
Q 1056 3291 1056 2328 
Q 1056 1369 1301 889 
Q 1547 409 2034 409 
Q 2525 409 2770 889 
Q 3016 1369 3016 2328 
Q 3016 3291 2770 3770 
Q 2525 4250 2034 4250 
z
M 2034 4750 
Q 2819 4750 3233 4129 
Q 3647 3509 3647 2328 
Q 3647 1150 3233 529 
Q 2819 -91 2034 -91 
Q 1250 -91 836 529 
Q 422 1150 422 2328 
Q 422 3509 836 4129 
Q 1250 4750 2034 4750 
z
" transform="scale(0.015625)"/>
       </defs>
       <use xlink:href="#DejaVuSans-13"/>
      </g>
     </g>
    </g>
    <g id="ytick_2">
     <g id="line2d_11">
      <g>
       <use xlink:href="#mcee02c1ccf" x="43.47" y="113.216939" style="fill: #8a929b; stroke: #8a929b; stroke-width: 0.8"/>
      </g>
     </g>
     <g id="text_2">
      <!-- 50 -->
      <g style="fill: #8a929b" transform="translate(26.29 116.256001) scale(0.08 -0.08)">
       <defs>
        <path id="DejaVuSans-18" d="M 691 4666 
L 3169 4666 
L 3169 4134 
L 1269 4134 
L 1269 2991 
Q 1406 3038 1543 3061 
Q 1681 3084 1819 3084 
Q 2600 3084 3056 2656 
Q 3513 2228 3513 1497 
Q 3513 744 3044 326 
Q 2575 -91 1722 -91 
Q 1428 -91 1123 -41 
Q 819 9 494 109 
L 494 744 
Q 775 591 1075 516 
Q 1375 441 1709 441 
Q 2250 441 2565 725 
Q 2881 1009 2881 1497 
Q 2881 1984 2565 2268 
Q 2250 2553 1709 2553 
Q 1456 2553 1204 2497 
Q 953 2441 691 2322 
L 691 4666 
z
" transform="scale(0.015625)"/>
       </defs>
       <use xlink:href="#DejaVuSans-18"/>
       <use xlink:href="#DejaVuSans-13" transform="translate(63.625 0)"/>
      </g>
     </g>
    </g>
    <g id="ytick_3">
     <g id="line2d_12">
      <g>
       <use xlink:href="#mcee02c1ccf" x="43.47" y="85.316983" style="fill: #8a929b; stroke: #8a929b; stroke-width: 0.8"/>
      </g>
     </g>
     <g id="text_3">
      <!-- 100 -->
      <g style="fill: #8a929b" transform="translate(21.2 88.356046) scale(0.08 -0.08)">
       <defs>
        <path id="DejaVuSans-14" d="M 794 531 
L 1825 531 
L 1825 4091 
L 703 3866 
L 703 4441 
L 1819 4666 
L 2450 4666 
L 2450 531 
L 3481 531 
L 3481 0 
L 794 0 
L 794 531 
z
" transform="scale(0.015625)"/>
       </defs>
       <use xlink:href="#DejaVuSans-14"/>
       <use xlink:href="#DejaVuSans-13" transform="translate(63.625 0)"/>
       <use xlink:href="#DejaVuSans-13" transform="translate(127.25 0)"/>
      </g>
     </g>
    </g>
    <g id="ytick_4">
     <g id="line2d_13">
      <g>
       <use xlink:href="#mcee02c1ccf" x="43.47" y="57.417028" style="fill: #8a929b; stroke: #8a929b; stroke-width: 0.8"/>
      </g>
     </g>
     <g id="text_4">
      <!-- 150 -->
      <g style="fill: #8a929b" transform="translate(21.2 60.45609) scale(0.08 -0.08)">
       <use xlink:href="#DejaVuSans-14"/>
       <use xlink:href="#DejaVuSans-18" transform="translate(63.625 0)"/>
       <use xlink:href="#DejaVuSans-13" transform="translate(127.25 0)"/>
      </g>
     </g>
    </g>
    <g id="ytick_5">
     <g id="line2d_14">
      <g>
       <use xlink:href="#mcee02c1ccf" x="43.47" y="29.517072" style="fill: #8a929b; stroke: #8a929b; stroke-width: 0.8"/>
      </g>
     </g>
     <g id="text_5">
      <!-- 200 -->
      <g style="fill: #8a929b" transform="translate(21.2 32.556135) scale(0.08 -0.08)">
       <defs>
        <path id="DejaVuSans-15" d="M 1228 531 
L 3431 531 
L 3431 0 
L 469 0 
L 469 531 
Q 828 903 1448 1529 
Q 2069 2156 2228 2338 
Q 2531 2678 2651 2914 
Q 2772 3150 2772 3378 
Q 2772 3750 2511 3984 
Q 2250 4219 1831 4219 
Q 1534 4219 1204 4116 
Q 875 4013 500 3803 
L 500 4441 
Q 881 4594 1212 4672 
Q 1544 4750 1819 4750 
Q 2544 4750 2975 4387 
Q 3406 4025 3406 3419 
Q 3406 3131 3298 2873 
Q 3191 2616 2906 2266 
Q 2828 2175 2409 1742 
Q 1991 1309 1228 531 
z
" transform="scale(0.015625)"/>
       </defs>
       <use xlink:href="#DejaVuSans-15"/>
       <use xlink:href="#DejaVuSans-13" transform="translate(63.625 0)"/>
       <use xlink:href="#DejaVuSans-13" transform="translate(127.25 0)"/>
      </g>
     </g>
    </g>
    <g id="text_6">
     <!-- F  (N) -->
     <g style="fill: #1f2933" transform="translate(14.797656 93.434412) rotate(-90) scale(0.1 -0.1)">
      <defs>
       <path id="DejaVuSans-29" d="M 628 4666 
L 3309 4666 
L 3309 4134 
L 1259 4134 
L 1259 2759 
L 3109 2759 
L 3109 2228 
L 1259 2228 
L 1259 0 
L 628 0 
L 628 4666 
z
" transform="scale(0.015625)"/>
       <path id="DejaVuSans-3" transform="scale(0.015625)"/>
       <path id="DejaVuSans-b" d="M 1984 4856 
Q 1566 4138 1362 3434 
Q 1159 2731 1159 2009 
Q 1159 1288 1364 580 
Q 1569 -128 1984 -844 
L 1484 -844 
Q 1016 -109 783 600 
Q 550 1309 550 2009 
Q 550 2706 781 3412 
Q 1013 4119 1484 4856 
L 1984 4856 
z
" transform="scale(0.015625)"/>
       <path id="DejaVuSans-31" d="M 628 4666 
L 1478 4666 
L 3547 763 
L 3547 4666 
L 4159 4666 
L 4159 0 
L 3309 0 
L 1241 3903 
L 1241 0 
L 628 0 
L 628 4666 
z
" transform="scale(0.015625)"/>
       <path id="DejaVuSans-c" d="M 513 4856 
L 1013 4856 
Q 1481 4119 1714 3412 
Q 1947 2706 1947 2009 
Q 1947 1309 1714 600 
Q 1481 -109 1013 -844 
L 513 -844 
Q 928 -128 1133 580 
Q 1338 1288 1338 2009 
Q 1338 2731 1133 3434 
Q 928 4138 513 4856 
z
" transform="scale(0.015625)"/>
      </defs>
      <use xlink:href="#DejaVuSans-29"/>
      <use xlink:href="#DejaVuSans-3" transform="translate(57.515625 0)"/>
      <use xlink:href="#DejaVuSans-3" transform="translate(89.296875 0)"/>
      <use xlink:href="#DejaVuSans-b" transform="translate(121.078125 0)"/>
      <use xlink:href="#DejaVuSans-31" transform="translate(160.09375 0)"/>
      <use xlink:href="#DejaVuSans-c" transform="translate(234.90625 0)"/>
     </g>
    </g>
   </g>
   <g id="line2d_15">
    <path d="M 43.47 141.116894 
L 400.59 141.116894 
" clip-path="url(#p4477c94d7c)" style="fill: none; stroke: #d8d4c8; stroke-linecap: square"/>
   </g>
   <g id="line2d_16">
    <path d="M 43.47 141.116894 
L 65.883389 119.254934 
L 77.837197 107.888674 
L 88.296778 98.240138 
L 97.262134 90.255674 
L 106.22749 82.587415 
L 113.698619 76.473204 
L 121.169749 70.638128 
L 128.640879 65.107383 
L 136.112008 59.90485 
L 142.088912 55.994284 
L 148.065816 52.318989 
L 154.04272 48.889123 
L 160.019623 45.714167 
L 165.996527 42.802895 
L 171.973431 40.163354 
L 177.950335 37.80284 
L 183.927238 35.727876 
L 189.904142 33.944198 
L 195.881046 32.456736 
L 201.85795 31.2696 
L 206.340628 30.578344 
L 210.823305 30.058958 
L 215.305983 29.712252 
L 219.788661 29.538764 
L 224.271339 29.538764 
L 228.754017 29.712252 
L 233.236695 30.058958 
L 237.719372 30.578344 
L 242.20205 31.2696 
L 246.684728 32.131654 
L 252.661632 33.544387 
L 258.638536 35.254442 
L 264.615439 37.257091 
L 270.592343 39.546798 
L 276.569247 42.117237 
L 282.546151 44.961301 
L 288.523054 48.071131 
L 294.499958 51.438131 
L 300.476862 55.052995 
L 306.453766 58.905732 
L 312.430669 62.985693 
L 319.901799 68.387942 
L 327.372929 74.104239 
L 334.844059 80.109899 
L 342.315188 86.37899 
L 351.280544 94.211441 
L 360.2459 102.335503 
L 370.705481 112.114672 
L 384.153515 125.036607 
L 400.59 141.116894 
L 400.59 141.116894 
" clip-path="url(#p4477c94d7c)" style="fill: none; stroke: #1f2933; stroke-width: 2.2; stroke-linecap: square"/>
   </g>
   <g id="patch_3">
    <path d="M 43.47 152.276636 
L 43.47 7.2 
" style="fill: none; stroke: #d8d4c8; stroke-width: 0.8; stroke-linejoin: miter; stroke-linecap: square"/>
   </g>
   <g id="patch_4">
    <path d="M 43.47 152.276636 
L 400.59 152.276636 
" style="fill: none; stroke: #d8d4c8; stroke-width: 0.8; stroke-linejoin: miter; stroke-linecap: square"/>
   </g>
   <g id="text_7">
    <g id="patch_5">
     <path d="M 148.484547 97.60531 
L 295.575453 97.60531 
Q 297.983453 97.60531 297.983453 95.19731 
L 297.983453 86.596638 
Q 297.983453 84.188638 295.575453 84.188638 
L 148.484547 84.188638 
Q 146.076547 84.188638 146.076547 86.596638 
L 146.076547 95.19731 
Q 146.076547 97.60531 148.484547 97.60531 
z
" style="fill: #fbfaf7; opacity: 0.92; stroke: #d8d4c8; stroke-width: 0.6; stroke-linejoin: miter"/>
    </g>
    <!-- shaded area  =  ∫ F dx  =  work W -->
    <g style="fill: #1f2933" transform="translate(148.484547 93.131295) scale(0.086 -0.086)">
     <defs>
      <path id="DejaVuSans-56" d="M 2834 3397 
L 2834 2853 
Q 2591 2978 2328 3040 
Q 2066 3103 1784 3103 
Q 1356 3103 1142 2972 
Q 928 2841 928 2578 
Q 928 2378 1081 2264 
Q 1234 2150 1697 2047 
L 1894 2003 
Q 2506 1872 2764 1633 
Q 3022 1394 3022 966 
Q 3022 478 2636 193 
Q 2250 -91 1575 -91 
Q 1294 -91 989 -36 
Q 684 19 347 128 
L 347 722 
Q 666 556 975 473 
Q 1284 391 1588 391 
Q 1994 391 2212 530 
Q 2431 669 2431 922 
Q 2431 1156 2273 1281 
Q 2116 1406 1581 1522 
L 1381 1569 
Q 847 1681 609 1914 
Q 372 2147 372 2553 
Q 372 3047 722 3315 
Q 1072 3584 1716 3584 
Q 2034 3584 2315 3537 
Q 2597 3491 2834 3397 
z
" transform="scale(0.015625)"/>
      <path id="DejaVuSans-4b" d="M 3513 2113 
L 3513 0 
L 2938 0 
L 2938 2094 
Q 2938 2591 2744 2837 
Q 2550 3084 2163 3084 
Q 1697 3084 1428 2787 
Q 1159 2491 1159 1978 
L 1159 0 
L 581 0 
L 581 4863 
L 1159 4863 
L 1159 2956 
Q 1366 3272 1645 3428 
Q 1925 3584 2291 3584 
Q 2894 3584 3203 3211 
Q 3513 2838 3513 2113 
z
" transform="scale(0.015625)"/>
      <path id="DejaVuSans-44" d="M 2194 1759 
Q 1497 1759 1228 1600 
Q 959 1441 959 1056 
Q 959 750 1161 570 
Q 1363 391 1709 391 
Q 2188 391 2477 730 
Q 2766 1069 2766 1631 
L 2766 1759 
L 2194 1759 
z
M 3341 1997 
L 3341 0 
L 2766 0 
L 2766 531 
Q 2569 213 2275 61 
Q 1981 -91 1556 -91 
Q 1019 -91 701 211 
Q 384 513 384 1019 
Q 384 1609 779 1909 
Q 1175 2209 1959 2209 
L 2766 2209 
L 2766 2266 
Q 2766 2663 2505 2880 
Q 2244 3097 1772 3097 
Q 1472 3097 1187 3025 
Q 903 2953 641 2809 
L 641 3341 
Q 956 3463 1253 3523 
Q 1550 3584 1831 3584 
Q 2591 3584 2966 3190 
Q 3341 2797 3341 1997 
z
" transform="scale(0.015625)"/>
      <path id="DejaVuSans-47" d="M 2906 2969 
L 2906 4863 
L 3481 4863 
L 3481 0 
L 2906 0 
L 2906 525 
Q 2725 213 2448 61 
Q 2172 -91 1784 -91 
Q 1150 -91 751 415 
Q 353 922 353 1747 
Q 353 2572 751 3078 
Q 1150 3584 1784 3584 
Q 2172 3584 2448 3432 
Q 2725 3281 2906 2969 
z
M 947 1747 
Q 947 1113 1208 752 
Q 1469 391 1925 391 
Q 2381 391 2643 752 
Q 2906 1113 2906 1747 
Q 2906 2381 2643 2742 
Q 2381 3103 1925 3103 
Q 1469 3103 1208 2742 
Q 947 2381 947 1747 
z
" transform="scale(0.015625)"/>
      <path id="DejaVuSans-48" d="M 3597 1894 
L 3597 1613 
L 953 1613 
Q 991 1019 1311 708 
Q 1631 397 2203 397 
Q 2534 397 2845 478 
Q 3156 559 3463 722 
L 3463 178 
Q 3153 47 2828 -22 
Q 2503 -91 2169 -91 
Q 1331 -91 842 396 
Q 353 884 353 1716 
Q 353 2575 817 3079 
Q 1281 3584 2069 3584 
Q 2775 3584 3186 3129 
Q 3597 2675 3597 1894 
z
M 3022 2063 
Q 3016 2534 2758 2815 
Q 2500 3097 2075 3097 
Q 1594 3097 1305 2825 
Q 1016 2553 972 2059 
L 3022 2063 
z
" transform="scale(0.015625)"/>
      <path id="DejaVuSans-55" d="M 2631 2963 
Q 2534 3019 2420 3045 
Q 2306 3072 2169 3072 
Q 1681 3072 1420 2755 
Q 1159 2438 1159 1844 
L 1159 0 
L 581 0 
L 581 3500 
L 1159 3500 
L 1159 2956 
Q 1341 3275 1631 3429 
Q 1922 3584 2338 3584 
Q 2397 3584 2469 3576 
Q 2541 3569 2628 3553 
L 2631 2963 
z
" transform="scale(0.015625)"/>
      <path id="DejaVuSans-20" d="M 678 2906 
L 4684 2906 
L 4684 2381 
L 678 2381 
L 678 2906 
z
M 678 1631 
L 4684 1631 
L 4684 1100 
L 678 1100 
L 678 1631 
z
" transform="scale(0.015625)"/>
      <path id="DejaVuSans-cb5" d="M 1509 3906 
Q 1534 4428 1787 4636 
Q 2041 4844 2277 4844 
Q 2513 4844 2709 4648 
Q 2906 4453 2969 4016 
L 2506 3969 
Q 2453 4375 2275 4375 
Q 2053 4375 2028 3828 
L 1825 -422 
Q 1800 -944 1547 -1151 
Q 1294 -1359 1058 -1359 
Q 822 -1359 625 -1164 
Q 428 -969 366 -531 
L 828 -484 
Q 881 -891 1059 -891 
Q 1281 -891 1306 -344 
L 1509 3906 
z
" transform="scale(0.015625)"/>
      <path id="DejaVuSans-5b" d="M 3513 3500 
L 2247 1797 
L 3578 0 
L 2900 0 
L 1881 1375 
L 863 0 
L 184 0 
L 1544 1831 
L 300 3500 
L 978 3500 
L 1906 2253 
L 2834 3500 
L 3513 3500 
z
" transform="scale(0.015625)"/>
      <path id="DejaVuSans-5a" d="M 269 3500 
L 844 3500 
L 1563 769 
L 2278 3500 
L 2956 3500 
L 3675 769 
L 4391 3500 
L 4966 3500 
L 4050 0 
L 3372 0 
L 2619 2869 
L 1863 0 
L 1184 0 
L 269 3500 
z
" transform="scale(0.015625)"/>
      <path id="DejaVuSans-52" d="M 1959 3097 
Q 1497 3097 1228 2736 
Q 959 2375 959 1747 
Q 959 1119 1226 758 
Q 1494 397 1959 397 
Q 2419 397 2687 759 
Q 2956 1122 2956 1747 
Q 2956 2369 2687 2733 
Q 2419 3097 1959 3097 
z
M 1959 3584 
Q 2709 3584 3137 3096 
Q 3566 2609 3566 1747 
Q 3566 888 3137 398 
Q 2709 -91 1959 -91 
Q 1206 -91 779 398 
Q 353 888 353 1747 
Q 353 2609 779 3096 
Q 1206 3584 1959 3584 
z
" transform="scale(0.015625)"/>
      <path id="DejaVuSans-4e" d="M 581 4863 
L 1159 4863 
L 1159 1991 
L 2875 3500 
L 3609 3500 
L 1753 1863 
L 3688 0 
L 2938 0 
L 1159 1709 
L 1159 0 
L 581 0 
L 581 4863 
z
" transform="scale(0.015625)"/>
      <path id="DejaVuSans-3a" d="M 213 4666 
L 850 4666 
L 1831 722 
L 2809 4666 
L 3519 4666 
L 4500 722 
L 5478 4666 
L 6119 4666 
L 4947 0 
L 4153 0 
L 3169 4050 
L 2175 0 
L 1381 0 
L 213 4666 
z
" transform="scale(0.015625)"/>
     </defs>
     <use xlink:href="#DejaVuSans-56"/>
     <use xlink:href="#DejaVuSans-4b" transform="translate(52.09375 0)"/>
     <use xlink:href="#DejaVuSans-44" transform="translate(115.46875 0)"/>
     <use xlink:href="#DejaVuSans-47" transform="translate(176.75 0)"/>
     <use xlink:href="#DejaVuSans-48" transform="translate(240.234375 0)"/>
     <use xlink:href="#DejaVuSans-47" transform="translate(301.765625 0)"/>
     <use xlink:href="#DejaVuSans-3" transform="translate(365.25 0)"/>
     <use xlink:href="#DejaVuSans-44" transform="translate(397.03125 0)"/>
     <use xlink:href="#DejaVuSans-55" transform="translate(458.3125 0)"/>
     <use xlink:href="#DejaVuSans-48" transform="translate(497.21875 0)"/>
     <use xlink:href="#DejaVuSans-44" transform="translate(558.75 0)"/>
     <use xlink:href="#DejaVuSans-3" transform="translate(620.03125 0)"/>
     <use xlink:href="#DejaVuSans-3" transform="translate(651.8125 0)"/>
     <use xlink:href="#DejaVuSans-20" transform="translate(683.59375 0)"/>
     <use xlink:href="#DejaVuSans-3" transform="translate(767.390625 0)"/>
     <use xlink:href="#DejaVuSans-3" transform="translate(799.171875 0)"/>
     <use xlink:href="#DejaVuSans-cb5" transform="translate(830.953125 0)"/>
     <use xlink:href="#DejaVuSans-3" transform="translate(883.046875 0)"/>
     <use xlink:href="#DejaVuSans-29" transform="translate(914.828125 0)"/>
     <use xlink:href="#DejaVuSans-3" transform="translate(972.34375 0)"/>
     <use xlink:href="#DejaVuSans-47" transform="translate(1004.125 0)"/>
     <use xlink:href="#DejaVuSans-5b" transform="translate(1067.609375 0)"/>
     <use xlink:href="#DejaVuSans-3" transform="translate(1126.796875 0)"/>
     <use xlink:href="#DejaVuSans-3" transform="translate(1158.578125 0)"/>
     <use xlink:href="#DejaVuSans-20" transform="translate(1190.359375 0)"/>
     <use xlink:href="#DejaVuSans-3" transform="translate(1274.15625 0)"/>
     <use xlink:href="#DejaVuSans-3" transform="translate(1305.9375 0)"/>
     <use xlink:href="#DejaVuSans-5a" transform="translate(1337.71875 0)"/>
     <use xlink:href="#DejaVuSans-52" transform="translate(1419.5 0)"/>
     <use xlink:href="#DejaVuSans-55" transform="translate(1480.6875 0)"/>
     <use xlink:href="#DejaVuSans-4e" transform="translate(1521.796875 0)"/>
     <use xlink:href="#DejaVuSans-3" transform="translate(1579.703125 0)"/>
     <use xlink:href="#DejaVuSans-3a" transform="translate(1611.484375 0)"/>
    </g>
   </g>
  </g>
  <g id="axes_2">
   <g id="patch_6">
    <path d="M 43.47 317.664 
L 400.59 317.664 
L 400.59 172.587364 
L 43.47 172.587364 
z
" style="fill: #fbfaf7"/>
   </g>
   <g id="matplotlib.axis_3">
    <g id="xtick_10">
     <g id="line2d_17">
      <g>
       <use xlink:href="#mc6f41aeaa9" x="43.47" y="317.664" style="fill: #8a929b; stroke: #8a929b; stroke-width: 0.8"/>
      </g>
     </g>
     <g id="text_8">
      <!-- 0.0000 -->
      <g style="fill: #8a929b" transform="translate(29.47375 330.742125) scale(0.08 -0.08)">
       <defs>
        <path id="DejaVuSans-11" d="M 684 794 
L 1344 794 
L 1344 0 
L 684 0 
L 684 794 
z
" transform="scale(0.015625)"/>
       </defs>
       <use xlink:href="#DejaVuSans-13"/>
       <use xlink:href="#DejaVuSans-11" transform="translate(63.625 0)"/>
       <use xlink:href="#DejaVuSans-13" transform="translate(95.40625 0)"/>
       <use xlink:href="#DejaVuSans-13" transform="translate(159.03125 0)"/>
       <use xlink:href="#DejaVuSans-13" transform="translate(222.65625 0)"/>
       <use xlink:href="#DejaVuSans-13" transform="translate(286.28125 0)"/>
      </g>
     </g>
    </g>
    <g id="xtick_11">
     <g id="line2d_18">
      <g>
       <use xlink:href="#mc6f41aeaa9" x="88.11" y="317.664" style="fill: #8a929b; stroke: #8a929b; stroke-width: 0.8"/>
      </g>
     </g>
     <g id="text_9">
      <!-- 0.0025 -->
      <g style="fill: #8a929b" transform="translate(74.11375 330.742125) scale(0.08 -0.08)">
       <use xlink:href="#DejaVuSans-13"/>
       <use xlink:href="#DejaVuSans-11" transform="translate(63.625 0)"/>
       <use xlink:href="#DejaVuSans-13" transform="translate(95.40625 0)"/>
       <use xlink:href="#DejaVuSans-13" transform="translate(159.03125 0)"/>
       <use xlink:href="#DejaVuSans-15" transform="translate(222.65625 0)"/>
       <use xlink:href="#DejaVuSans-18" transform="translate(286.28125 0)"/>
      </g>
     </g>
    </g>
    <g id="xtick_12">
     <g id="line2d_19">
      <g>
       <use xlink:href="#mc6f41aeaa9" x="132.75" y="317.664" style="fill: #8a929b; stroke: #8a929b; stroke-width: 0.8"/>
      </g>
     </g>
     <g id="text_10">
      <!-- 0.0050 -->
      <g style="fill: #8a929b" transform="translate(118.75375 330.742125) scale(0.08 -0.08)">
       <use xlink:href="#DejaVuSans-13"/>
       <use xlink:href="#DejaVuSans-11" transform="translate(63.625 0)"/>
       <use xlink:href="#DejaVuSans-13" transform="translate(95.40625 0)"/>
       <use xlink:href="#DejaVuSans-13" transform="translate(159.03125 0)"/>
       <use xlink:href="#DejaVuSans-18" transform="translate(222.65625 0)"/>
       <use xlink:href="#DejaVuSans-13" transform="translate(286.28125 0)"/>
      </g>
     </g>
    </g>
    <g id="xtick_13">
     <g id="line2d_20">
      <g>
       <use xlink:href="#mc6f41aeaa9" x="177.39" y="317.664" style="fill: #8a929b; stroke: #8a929b; stroke-width: 0.8"/>
      </g>
     </g>
     <g id="text_11">
      <!-- 0.0075 -->
      <g style="fill: #8a929b" transform="translate(163.39375 330.742125) scale(0.08 -0.08)">
       <defs>
        <path id="DejaVuSans-1a" d="M 525 4666 
L 3525 4666 
L 3525 4397 
L 1831 0 
L 1172 0 
L 2766 4134 
L 525 4134 
L 525 4666 
z
" transform="scale(0.015625)"/>
       </defs>
       <use xlink:href="#DejaVuSans-13"/>
       <use xlink:href="#DejaVuSans-11" transform="translate(63.625 0)"/>
       <use xlink:href="#DejaVuSans-13" transform="translate(95.40625 0)"/>
       <use xlink:href="#DejaVuSans-13" transform="translate(159.03125 0)"/>
       <use xlink:href="#DejaVuSans-1a" transform="translate(222.65625 0)"/>
       <use xlink:href="#DejaVuSans-18" transform="translate(286.28125 0)"/>
      </g>
     </g>
    </g>
    <g id="xtick_14">
     <g id="line2d_21">
      <g>
       <use xlink:href="#mc6f41aeaa9" x="222.03" y="317.664" style="fill: #8a929b; stroke: #8a929b; stroke-width: 0.8"/>
      </g>
     </g>
     <g id="text_12">
      <!-- 0.0100 -->
      <g style="fill: #8a929b" transform="translate(208.03375 330.742125) scale(0.08 -0.08)">
       <use xlink:href="#DejaVuSans-13"/>
       <use xlink:href="#DejaVuSans-11" transform="translate(63.625 0)"/>
       <use xlink:href="#DejaVuSans-13" transform="translate(95.40625 0)"/>
       <use xlink:href="#DejaVuSans-14" transform="translate(159.03125 0)"/>
       <use xlink:href="#DejaVuSans-13" transform="translate(222.65625 0)"/>
       <use xlink:href="#DejaVuSans-13" transform="translate(286.28125 0)"/>
      </g>
     </g>
    </g>
    <g id="xtick_15">
     <g id="line2d_22">
      <g>
       <use xlink:href="#mc6f41aeaa9" x="266.67" y="317.664" style="fill: #8a929b; stroke: #8a929b; stroke-width: 0.8"/>
      </g>
     </g>
     <g id="text_13">
      <!-- 0.0125 -->
      <g style="fill: #8a929b" transform="translate(252.67375 330.742125) scale(0.08 -0.08)">
       <use xlink:href="#DejaVuSans-13"/>
       <use xlink:href="#DejaVuSans-11" transform="translate(63.625 0)"/>
       <use xlink:href="#DejaVuSans-13" transform="translate(95.40625 0)"/>
       <use xlink:href="#DejaVuSans-14" transform="translate(159.03125 0)"/>
       <use xlink:href="#DejaVuSans-15" transform="translate(222.65625 0)"/>
       <use xlink:href="#DejaVuSans-18" transform="translate(286.28125 0)"/>
      </g>
     </g>
    </g>
    <g id="xtick_16">
     <g id="line2d_23">
      <g>
       <use xlink:href="#mc6f41aeaa9" x="311.31" y="317.664" style="fill: #8a929b; stroke: #8a929b; stroke-width: 0.8"/>
      </g>
     </g>
     <g id="text_14">
      <!-- 0.0150 -->
      <g style="fill: #8a929b" transform="translate(297.31375 330.742125) scale(0.08 -0.08)">
       <use xlink:href="#DejaVuSans-13"/>
       <use xlink:href="#DejaVuSans-11" transform="translate(63.625 0)"/>
       <use xlink:href="#DejaVuSans-13" transform="translate(95.40625 0)"/>
       <use xlink:href="#DejaVuSans-14" transform="translate(159.03125 0)"/>
       <use xlink:href="#DejaVuSans-18" transform="translate(222.65625 0)"/>
       <use xlink:href="#DejaVuSans-13" transform="translate(286.28125 0)"/>
      </g>
     </g>
    </g>
    <g id="xtick_17">
     <g id="line2d_24">
      <g>
       <use xlink:href="#mc6f41aeaa9" x="355.95" y="317.664" style="fill: #8a929b; stroke: #8a929b; stroke-width: 0.8"/>
      </g>
     </g>
     <g id="text_15">
      <!-- 0.0175 -->
      <g style="fill: #8a929b" transform="translate(341.95375 330.742125) scale(0.08 -0.08)">
       <use xlink:href="#DejaVuSans-13"/>
       <use xlink:href="#DejaVuSans-11" transform="translate(63.625 0)"/>
       <use xlink:href="#DejaVuSans-13" transform="translate(95.40625 0)"/>
       <use xlink:href="#DejaVuSans-14" transform="translate(159.03125 0)"/>
       <use xlink:href="#DejaVuSans-1a" transform="translate(222.65625 0)"/>
       <use xlink:href="#DejaVuSans-18" transform="translate(286.28125 0)"/>
      </g>
     </g>
    </g>
    <g id="xtick_18">
     <g id="line2d_25">
      <g>
       <use xlink:href="#mc6f41aeaa9" x="400.59" y="317.664" style="fill: #8a929b; stroke: #8a929b; stroke-width: 0.8"/>
      </g>
     </g>
     <g id="text_16">
      <!-- 0.0200 -->
      <g style="fill: #8a929b" transform="translate(386.59375 330.742125) scale(0.08 -0.08)">
       <use xlink:href="#DejaVuSans-13"/>
       <use xlink:href="#DejaVuSans-11" transform="translate(63.625 0)"/>
       <use xlink:href="#DejaVuSans-13" transform="translate(95.40625 0)"/>
       <use xlink:href="#DejaVuSans-15" transform="translate(159.03125 0)"/>
       <use xlink:href="#DejaVuSans-13" transform="translate(222.65625 0)"/>
       <use xlink:href="#DejaVuSans-13" transform="translate(286.28125 0)"/>
      </g>
     </g>
    </g>
    <g id="text_17">
     <!-- t  (s) -->
     <g style="fill: #1f2933" transform="translate(210.385469 344.261656) scale(0.1 -0.1)">
      <defs>
       <path id="DejaVuSans-57" d="M 1172 4494 
L 1172 3500 
L 2356 3500 
L 2356 3053 
L 1172 3053 
L 1172 1153 
Q 1172 725 1289 603 
Q 1406 481 1766 481 
L 2356 481 
L 2356 0 
L 1766 0 
Q 1100 0 847 248 
Q 594 497 594 1153 
L 594 3053 
L 172 3053 
L 172 3500 
L 594 3500 
L 594 4494 
L 1172 4494 
z
" transform="scale(0.015625)"/>
      </defs>
      <use xlink:href="#DejaVuSans-57"/>
      <use xlink:href="#DejaVuSans-3" transform="translate(39.203125 0)"/>
      <use xlink:href="#DejaVuSans-3" transform="translate(70.984375 0)"/>
      <use xlink:href="#DejaVuSans-b" transform="translate(102.765625 0)"/>
      <use xlink:href="#DejaVuSans-56" transform="translate(141.78125 0)"/>
      <use xlink:href="#DejaVuSans-c" transform="translate(193.875 0)"/>
     </g>
    </g>
   </g>
   <g id="matplotlib.axis_4">
    <g id="ytick_6">
     <g id="line2d_26">
      <g>
       <use xlink:href="#mcee02c1ccf" x="43.47" y="306.504259" style="fill: #8a929b; stroke: #8a929b; stroke-width: 0.8"/>
      </g>
     </g>
     <g id="text_18">
      <!-- 0.0 -->
      <g style="fill: #8a929b" transform="translate(23.7475 309.543321) scale(0.08 -0.08)">
       <use xlink:href="#DejaVuSans-13"/>
       <use xlink:href="#DejaVuSans-11" transform="translate(63.625 0)"/>
       <use xlink:href="#DejaVuSans-13" transform="translate(95.40625 0)"/>
      </g>
     </g>
    </g>
    <g id="ytick_7">
     <g id="line2d_27">
      <g>
       <use xlink:href="#mcee02c1ccf" x="43.47" y="284.592158" style="fill: #8a929b; stroke: #8a929b; stroke-width: 0.8"/>
      </g>
     </g>
     <g id="text_19">
      <!-- 0.5 -->
      <g style="fill: #8a929b" transform="translate(23.7475 287.631221) scale(0.08 -0.08)">
       <use xlink:href="#DejaVuSans-13"/>
       <use xlink:href="#DejaVuSans-11" transform="translate(63.625 0)"/>
       <use xlink:href="#DejaVuSans-18" transform="translate(95.40625 0)"/>
      </g>
     </g>
    </g>
    <g id="ytick_8">
     <g id="line2d_28">
      <g>
       <use xlink:href="#mcee02c1ccf" x="43.47" y="262.680058" style="fill: #8a929b; stroke: #8a929b; stroke-width: 0.8"/>
      </g>
     </g>
     <g id="text_20">
      <!-- 1.0 -->
      <g style="fill: #8a929b" transform="translate(23.7475 265.71912) scale(0.08 -0.08)">
       <use xlink:href="#DejaVuSans-14"/>
       <use xlink:href="#DejaVuSans-11" transform="translate(63.625 0)"/>
       <use xlink:href="#DejaVuSans-13" transform="translate(95.40625 0)"/>
      </g>
     </g>
    </g>
    <g id="ytick_9">
     <g id="line2d_29">
      <g>
       <use xlink:href="#mcee02c1ccf" x="43.47" y="240.767957" style="fill: #8a929b; stroke: #8a929b; stroke-width: 0.8"/>
      </g>
     </g>
     <g id="text_21">
      <!-- 1.5 -->
      <g style="fill: #8a929b" transform="translate(23.7475 243.80702) scale(0.08 -0.08)">
       <use xlink:href="#DejaVuSans-14"/>
       <use xlink:href="#DejaVuSans-11" transform="translate(63.625 0)"/>
       <use xlink:href="#DejaVuSans-18" transform="translate(95.40625 0)"/>
      </g>
     </g>
    </g>
    <g id="ytick_10">
     <g id="line2d_30">
      <g>
       <use xlink:href="#mcee02c1ccf" x="43.47" y="218.855856" style="fill: #8a929b; stroke: #8a929b; stroke-width: 0.8"/>
      </g>
     </g>
     <g id="text_22">
      <!-- 2.0 -->
      <g style="fill: #8a929b" transform="translate(23.7475 221.894919) scale(0.08 -0.08)">
       <use xlink:href="#DejaVuSans-15"/>
       <use xlink:href="#DejaVuSans-11" transform="translate(63.625 0)"/>
       <use xlink:href="#DejaVuSans-13" transform="translate(95.40625 0)"/>
      </g>
     </g>
    </g>
    <g id="ytick_11">
     <g id="line2d_31">
      <g>
       <use xlink:href="#mcee02c1ccf" x="43.47" y="196.943756" style="fill: #8a929b; stroke: #8a929b; stroke-width: 0.8"/>
      </g>
     </g>
     <g id="text_23">
      <!-- 2.5 -->
      <g style="fill: #8a929b" transform="translate(23.7475 199.982818) scale(0.08 -0.08)">
       <use xlink:href="#DejaVuSans-15"/>
       <use xlink:href="#DejaVuSans-11" transform="translate(63.625 0)"/>
       <use xlink:href="#DejaVuSans-18" transform="translate(95.40625 0)"/>
      </g>
     </g>
    </g>
    <g id="ytick_12">
     <g id="line2d_32">
      <g>
       <use xlink:href="#mcee02c1ccf" x="43.47" y="175.031655" style="fill: #8a929b; stroke: #8a929b; stroke-width: 0.8"/>
      </g>
     </g>
     <g id="text_24">
      <!-- 3.0 -->
      <g style="fill: #8a929b" transform="translate(23.7475 178.070718) scale(0.08 -0.08)">
       <defs>
        <path id="DejaVuSans-16" d="M 2597 2516 
Q 3050 2419 3304 2112 
Q 3559 1806 3559 1356 
Q 3559 666 3084 287 
Q 2609 -91 1734 -91 
Q 1441 -91 1130 -33 
Q 819 25 488 141 
L 488 750 
Q 750 597 1062 519 
Q 1375 441 1716 441 
Q 2309 441 2620 675 
Q 2931 909 2931 1356 
Q 2931 1769 2642 2001 
Q 2353 2234 1838 2234 
L 1294 2234 
L 1294 2753 
L 1863 2753 
Q 2328 2753 2575 2939 
Q 2822 3125 2822 3475 
Q 2822 3834 2567 4026 
Q 2313 4219 1838 4219 
Q 1578 4219 1281 4162 
Q 984 4106 628 3988 
L 628 4550 
Q 988 4650 1302 4700 
Q 1616 4750 1894 4750 
Q 2613 4750 3031 4423 
Q 3450 4097 3450 3541 
Q 3450 3153 3228 2886 
Q 3006 2619 2597 2516 
z
" transform="scale(0.015625)"/>
       </defs>
       <use xlink:href="#DejaVuSans-16"/>
       <use xlink:href="#DejaVuSans-11" transform="translate(63.625 0)"/>
       <use xlink:href="#DejaVuSans-13" transform="translate(95.40625 0)"/>
      </g>
     </g>
    </g>
    <g id="text_25">
     <!-- J  (N·s) -->
     <g style="fill: #1f2933" transform="translate(17.345156 261.614745) rotate(-90) scale(0.1 -0.1)">
      <defs>
       <path id="DejaVuSans-2d" d="M 628 4666 
L 1259 4666 
L 1259 325 
Q 1259 -519 939 -900 
Q 619 -1281 -91 -1281 
L -331 -1281 
L -331 -750 
L -134 -750 
Q 284 -750 456 -515 
Q 628 -281 628 325 
L 628 4666 
z
" transform="scale(0.015625)"/>
       <path id="DejaVuSans-79" d="M 684 2619 
L 1344 2619 
L 1344 1825 
L 684 1825 
L 684 2619 
z
" transform="scale(0.015625)"/>
      </defs>
      <use xlink:href="#DejaVuSans-2d"/>
      <use xlink:href="#DejaVuSans-3" transform="translate(29.5 0)"/>
      <use xlink:href="#DejaVuSans-3" transform="translate(61.28125 0)"/>
      <use xlink:href="#DejaVuSans-b" transform="translate(93.0625 0)"/>
      <use xlink:href="#DejaVuSans-31" transform="translate(132.078125 0)"/>
      <use xlink:href="#DejaVuSans-79" transform="translate(206.890625 0)"/>
      <use xlink:href="#DejaVuSans-56" transform="translate(238.671875 0)"/>
      <use xlink:href="#DejaVuSans-c" transform="translate(290.765625 0)"/>
     </g>
    </g>
   </g>
   <g id="line2d_33">
    <path d="M 43.47 306.504259 
L 400.59 306.504259 
" clip-path="url(#p21fa375ff1)" style="fill: none; stroke: #d8d4c8; stroke-linecap: square"/>
   </g>
   <g id="line2d_34">
    <path d="M 43.47 306.504259 
L 50.94113 306.383788 
L 58.412259 306.022896 
L 65.883389 305.423141 
L 73.354519 304.587112 
L 80.825649 303.518421 
L 88.296778 302.22168 
L 95.767908 300.702491 
L 103.239038 298.967412 
L 110.710167 297.023936 
L 118.181297 294.880456 
L 127.146653 292.057362 
L 136.112008 288.977184 
L 145.077364 285.659072 
L 154.04272 282.123653 
L 164.502301 277.753738 
L 174.961883 273.154984 
L 186.91569 267.66904 
L 201.85795 260.55537 
L 225.765565 248.872234 
L 248.178954 237.982913 
L 263.121213 230.971823 
L 275.075021 225.602469 
L 285.534603 221.129833 
L 295.994184 216.907421 
L 304.95954 213.514511 
L 313.924895 210.352818 
L 322.890251 207.441999 
L 331.855607 204.800149 
L 339.326736 202.815973 
L 346.797866 201.038586 
L 354.268996 199.475664 
L 361.740126 198.133954 
L 369.211255 197.019252 
L 376.682385 196.13637 
L 384.153515 195.48912 
L 391.624644 195.080297 
L 399.095774 194.911667 
L 400.59 194.906847 
L 400.59 194.906847 
" clip-path="url(#p21fa375ff1)" style="fill: none; stroke: #2f6f4f; stroke-width: 2.2; stroke-linecap: square"/>
   </g>
   <g id="patch_7">
    <path d="M 43.47 317.664 
L 43.47 172.587364 
" style="fill: none; stroke: #d8d4c8; stroke-width: 0.8; stroke-linejoin: miter; stroke-linecap: square"/>
   </g>
   <g id="patch_8">
    <path d="M 43.47 317.664 
L 400.59 317.664 
" style="fill: none; stroke: #d8d4c8; stroke-width: 0.8; stroke-linejoin: miter; stroke-linecap: square"/>
   </g>
   <g id="text_26">
    <g id="patch_9">
     <path d="M 272.8844 243.173351 
L 352.912775 243.173351 
Q 355.320775 243.173351 355.320775 240.765351 
L 355.320775 232.164679 
Q 355.320775 229.756679 352.912775 229.756679 
L 272.8844 229.756679 
Q 270.4764 229.756679 270.4764 232.164679 
L 270.4764 240.765351 
Q 270.4764 243.173351 272.8844 243.173351 
z
" style="fill: #fbfaf7; opacity: 0.92; stroke: #d8d4c8; stroke-width: 0.6; stroke-linejoin: miter"/>
    </g>
    <!-- slope of W  =  F(x) -->
    <g style="fill: #1f2933" transform="translate(272.8844 238.699335) scale(0.086 -0.086)">
     <defs>
      <path id="DejaVuSans-4f" d="M 603 4863 
L 1178 4863 
L 1178 0 
L 603 0 
L 603 4863 
z
" transform="scale(0.015625)"/>
      <path id="DejaVuSans-53" d="M 1159 525 
L 1159 -1331 
L 581 -1331 
L 581 3500 
L 1159 3500 
L 1159 2969 
Q 1341 3281 1617 3432 
Q 1894 3584 2278 3584 
Q 2916 3584 3314 3078 
Q 3713 2572 3713 1747 
Q 3713 922 3314 415 
Q 2916 -91 2278 -91 
Q 1894 -91 1617 61 
Q 1341 213 1159 525 
z
M 3116 1747 
Q 3116 2381 2855 2742 
Q 2594 3103 2138 3103 
Q 1681 3103 1420 2742 
Q 1159 2381 1159 1747 
Q 1159 1113 1420 752 
Q 1681 391 2138 391 
Q 2594 391 2855 752 
Q 3116 1113 3116 1747 
z
" transform="scale(0.015625)"/>
      <path id="DejaVuSans-49" d="M 2375 4863 
L 2375 4384 
L 1825 4384 
Q 1516 4384 1395 4259 
Q 1275 4134 1275 3809 
L 1275 3500 
L 2222 3500 
L 2222 3053 
L 1275 3053 
L 1275 0 
L 697 0 
L 697 3053 
L 147 3053 
L 147 3500 
L 697 3500 
L 697 3744 
Q 697 4328 969 4595 
Q 1241 4863 1831 4863 
L 2375 4863 
z
" transform="scale(0.015625)"/>
     </defs>
     <use xlink:href="#DejaVuSans-56"/>
     <use xlink:href="#DejaVuSans-4f" transform="translate(52.09375 0)"/>
     <use xlink:href="#DejaVuSans-52" transform="translate(79.875 0)"/>
     <use xlink:href="#DejaVuSans-53" transform="translate(141.0625 0)"/>
     <use xlink:href="#DejaVuSans-48" transform="translate(204.546875 0)"/>
     <use xlink:href="#DejaVuSans-3" transform="translate(266.078125 0)"/>
     <use xlink:href="#DejaVuSans-52" transform="translate(297.859375 0)"/>
     <use xlink:href="#DejaVuSans-49" transform="translate(359.046875 0)"/>
     <use xlink:href="#DejaVuSans-3" transform="translate(394.25 0)"/>
     <use xlink:href="#DejaVuSans-3a" transform="translate(426.03125 0)"/>
     <use xlink:href="#DejaVuSans-3" transform="translate(524.90625 0)"/>
     <use xlink:href="#DejaVuSans-3" transform="translate(556.6875 0)"/>
     <use xlink:href="#DejaVuSans-20" transform="translate(588.46875 0)"/>
     <use xlink:href="#DejaVuSans-3" transform="translate(672.265625 0)"/>
     <use xlink:href="#DejaVuSans-3" transform="translate(704.046875 0)"/>
     <use xlink:href="#DejaVuSans-29" transform="translate(735.828125 0)"/>
     <use xlink:href="#DejaVuSans-b" transform="translate(793.34375 0)"/>
     <use xlink:href="#DejaVuSans-5b" transform="translate(832.359375 0)"/>
     <use xlink:href="#DejaVuSans-c" transform="translate(891.546875 0)"/>
    </g>
   </g>
  </g>
 </g>
 <defs>
  <clipPath id="p4477c94d7c">
   <rect x="43.47" y="7.2" width="357.12" height="145.076636"/>
  </clipPath>
  <clipPath id="p21fa375ff1">
   <rect x="43.47" y="172.587364" width="357.12" height="145.076636"/>
  </clipPath>
 </defs>
</svg>
