<?xml version="1.0" encoding="utf-8" standalone="no"?>
<!DOCTYPE svg PUBLIC "-//W3C//DTD SVG 1.1//EN"
  "http://www.w3.org/Graphics/SVG/1.1/DTD/svg11.dtd">
<svg xmlns:xlink="http://www.w3.org/1999/xlink" width="423.06pt" height="353.864pt" viewBox="0 0 423.06 353.864" xmlns="http://www.w3.org/2000/svg" version="1.1">
 <metadata>
  <rdf:RDF xmlns:dc="http://purl.org/dc/elements/1.1/" xmlns:cc="http://creativecommons.org/ns#" xmlns:rdf="http://www.w3.org/1999/02/22-rdf-syntax-ns#">
   <cc:Work>
    <dc:type rdf:resource="http://purl.org/dc/dcmitype/StillImage"/>
    <dc:date>2026-06-26T15:38:26.459976</dc:date>
    <dc:format>image/svg+xml</dc:format>
    <dc:creator>
     <cc:Agent>
      <dc:title>Matplotlib v3.11.0, https://matplotlib.org/</dc:title>
     </cc:Agent>
    </dc:creator>
   </cc:Work>
  </rdf:RDF>
 </metadata>
 <defs>
  <style type="text/css">*{stroke-linejoin: round; stroke-linecap: butt}</style>
 </defs>
 <g id="figure_1">
  <g id="patch_1">
   <path d="M 0 353.864 
L 423.06 353.864 
L 423.06 0 
L 0 0 
z
" style="fill: #fbfaf7"/>
  </g>
  <g id="axes_1">
   <g id="patch_2">
    <path d="M 58.74 152.276636 
L 415.86 152.276636 
L 415.86 7.2 
L 58.74 7.2 
z
" style="fill: #fbfaf7"/>
   </g>
   <g id="FillBetweenPolyCollection_1">
    <defs>
     <path id="m417f0df03e" d="M 58.74 -212.747106 
L 58.74 -324.344518 
L 60.234226 -323.253326 
L 61.728452 -322.183268 
L 63.222678 -321.133734 
L 64.716904 -320.104139 
L 66.21113 -319.093922 
L 67.705356 -318.102539 
L 69.199582 -317.129469 
L 70.693808 -316.174209 
L 72.188033 -315.236275 
L 73.682259 -314.3152 
L 75.176485 -313.410532 
L 76.670711 -312.521838 
L 78.164937 -311.648698 
L 79.659163 -310.790708 
L 81.153389 -309.947475 
L 82.647615 -309.118624 
L 84.141841 -308.303789 
L 85.636067 -307.502617 
L 87.130293 -306.714769 
L 88.624519 -305.939913 
L 90.118745 -305.177732 
L 91.612971 -304.427916 
L 93.107197 -303.690168 
L 94.601423 -302.964199 
L 96.095649 -302.249728 
L 97.589874 -301.546485 
L 99.0841 -300.854206 
L 100.578326 -300.172638 
L 102.072552 -299.501534 
L 103.566778 -298.840655 
L 105.061004 -298.189768 
L 106.55523 -297.548649 
L 108.049456 -296.91708 
L 109.543682 -296.294849 
L 111.037908 -295.681749 
L 112.532134 -295.077583 
L 114.02636 -294.482155 
L 115.520586 -293.895279 
L 117.014812 -293.316769 
L 118.509038 -292.74645 
L 120.003264 -292.184148 
L 121.49749 -291.629696 
L 122.991715 -291.08293 
L 124.485941 -290.543691 
L 125.980167 -290.011826 
L 127.474393 -289.487184 
L 128.968619 -288.969618 
L 130.462845 -288.458987 
L 131.957071 -287.955152 
L 133.451297 -287.457978 
L 134.945523 -286.967335 
L 136.439749 -286.483093 
L 137.933975 -286.00513 
L 139.428201 -285.533323 
L 140.922427 -285.067554 
L 142.416653 -284.607709 
L 143.910879 -284.153674 
L 145.405105 -283.705341 
L 146.899331 -283.262602 
L 148.393556 -282.825354 
L 149.887782 -282.393496 
L 151.382008 -281.966927 
L 152.876234 -281.545551 
L 154.37046 -281.129275 
L 155.864686 -280.718006 
L 157.358912 -280.311655 
L 158.853138 -279.910133 
L 160.347364 -279.513355 
L 161.84159 -279.121238 
L 163.335816 -278.7337 
L 164.830042 -278.350661 
L 166.324268 -277.972043 
L 167.818494 -277.597771 
L 169.31272 -277.227769 
L 170.806946 -276.861965 
L 172.301172 -276.500288 
L 173.795397 -276.142669 
L 175.289623 -275.78904 
L 176.783849 -275.439334 
L 178.278075 -275.093486 
L 179.772301 -274.751433 
L 181.266527 -274.413113 
L 182.760753 -274.078465 
L 184.254979 -273.747429 
L 185.749205 -273.419948 
L 187.243431 -273.095964 
L 188.737657 -272.775422 
L 190.231883 -272.458267 
L 191.726109 -272.144445 
L 193.220335 -271.833906 
L 194.714561 -271.526596 
L 196.208787 -271.222466 
L 197.703013 -270.921468 
L 199.197238 -270.623552 
L 200.691464 -270.328672 
L 202.18569 -270.036781 
L 203.679916 -269.747835 
L 205.174142 -269.461789 
L 206.668368 -269.1786 
L 208.162594 -268.898225 
L 209.65682 -268.620621 
L 211.151046 -268.34575 
L 212.645272 -268.073569 
L 214.139498 -267.80404 
L 215.633724 -267.537125 
L 217.12795 -267.272785 
L 218.622176 -267.010984 
L 220.116402 -266.751685 
L 221.610628 -266.494852 
L 223.104854 -266.24045 
L 224.599079 -265.988445 
L 226.093305 -265.738804 
L 227.587531 -265.491492 
L 229.081757 -265.246479 
L 230.575983 -265.003731 
L 232.070209 -264.763217 
L 233.564435 -264.524908 
L 235.058661 -264.288772 
L 236.552887 -264.05478 
L 238.047113 -263.822903 
L 239.541339 -263.593113 
L 241.035565 -263.365381 
L 242.529791 -263.139679 
L 244.024017 -262.915982 
L 245.518243 -262.694262 
L 247.012469 -262.474493 
L 248.506695 -262.25665 
L 250.000921 -262.040706 
L 251.495146 -261.826639 
L 252.989372 -261.614422 
L 254.483598 -261.404033 
L 255.977824 -261.195448 
L 257.47205 -260.988644 
L 258.966276 -260.783597 
L 260.460502 -260.580286 
L 261.954728 -260.378689 
L 263.448954 -260.178784 
L 264.94318 -259.98055 
L 266.437406 -259.783966 
L 267.931632 -259.589012 
L 269.425858 -259.395667 
L 270.920084 -259.203912 
L 272.41431 -259.013726 
L 273.908536 -258.825092 
L 275.402762 -258.637989 
L 276.896987 -258.4524 
L 278.391213 -258.268306 
L 279.885439 -258.085688 
L 281.379665 -257.904531 
L 282.873891 -257.724815 
L 284.368117 -257.546524 
L 285.862343 -257.36964 
L 287.356569 -257.194148 
L 288.850795 -257.020032 
L 290.345021 -256.847273 
L 291.839247 -256.675858 
L 293.333473 -256.505771 
L 294.827699 -256.336995 
L 296.321925 -256.169516 
L 297.816151 -256.00332 
L 299.310377 -255.83839 
L 300.804603 -255.674714 
L 302.298828 -255.512276 
L 303.793054 -255.351063 
L 305.28728 -255.191061 
L 306.781506 -255.032256 
L 308.275732 -254.874635 
L 309.769958 -254.718185 
L 311.264184 -254.562892 
L 312.75841 -254.408745 
L 314.252636 -254.25573 
L 315.746862 -254.103834 
L 317.241088 -253.953047 
L 318.735314 -253.803354 
L 320.22954 -253.654746 
L 321.723766 -253.507209 
L 323.217992 -253.360733 
L 324.712218 -253.215306 
L 326.206444 -253.070917 
L 327.700669 -252.927554 
L 329.194895 -252.785207 
L 330.689121 -252.643865 
L 332.183347 -252.503517 
L 333.677573 -252.364154 
L 335.171799 -252.225764 
L 336.666025 -252.088337 
L 338.160251 -251.951864 
L 339.654477 -251.816335 
L 341.148703 -251.681739 
L 342.642929 -251.548068 
L 344.137155 -251.415311 
L 345.631381 -251.28346 
L 347.125607 -251.152505 
L 348.619833 -251.022436 
L 350.114059 -250.893246 
L 351.608285 -250.764925 
L 353.10251 -250.637465 
L 354.596736 -250.510856 
L 356.090962 -250.38509 
L 357.585188 -250.26016 
L 359.079414 -250.136056 
L 360.57364 -250.01277 
L 362.067866 -249.890295 
L 363.562092 -249.768622 
L 365.056318 -249.647744 
L 366.550544 -249.527653 
L 368.04477 -249.40834 
L 369.538996 -249.2898 
L 371.033222 -249.172023 
L 372.527448 -249.055003 
L 374.021674 -248.938733 
L 375.5159 -248.823205 
L 377.010126 -248.708412 
L 378.504351 -248.594347 
L 379.998577 -248.481004 
L 381.492803 -248.368375 
L 382.987029 -248.256454 
L 384.481255 -248.145234 
L 385.975481 -248.034708 
L 387.469707 -247.924871 
L 388.963933 -247.815715 
L 390.458159 -247.707234 
L 391.952385 -247.599423 
L 393.446611 -247.492275 
L 394.940837 -247.385783 
L 396.435063 -247.279942 
L 397.929289 -247.174746 
L 399.423515 -247.070189 
L 400.917741 -246.966265 
L 402.411967 -246.862968 
L 403.906192 -246.760294 
L 405.400418 -246.658235 
L 406.894644 -246.556787 
L 408.38887 -246.455944 
L 409.883096 -246.355701 
L 411.377322 -246.256053 
L 412.871548 -246.156993 
L 414.365774 -246.058518 
L 415.86 -245.960621 
L 415.86 -212.747106 
L 415.86 -212.747106 
L 414.365774 -212.747106 
L 412.871548 -212.747106 
L 411.377322 -212.747106 
L 409.883096 -212.747106 
L 408.38887 -212.747106 
L 406.894644 -212.747106 
L 405.400418 -212.747106 
L 403.906192 -212.747106 
L 402.411967 -212.747106 
L 400.917741 -212.747106 
L 399.423515 -212.747106 
L 397.929289 -212.747106 
L 396.435063 -212.747106 
L 394.940837 -212.747106 
L 393.446611 -212.747106 
L 391.952385 -212.747106 
L 390.458159 -212.747106 
L 388.963933 -212.747106 
L 387.469707 -212.747106 
L 385.975481 -212.747106 
L 384.481255 -212.747106 
L 382.987029 -212.747106 
L 381.492803 -212.747106 
L 379.998577 -212.747106 
L 378.504351 -212.747106 
L 377.010126 -212.747106 
L 375.5159 -212.747106 
L 374.021674 -212.747106 
L 372.527448 -212.747106 
L 371.033222 -212.747106 
L 369.538996 -212.747106 
L 368.04477 -212.747106 
L 366.550544 -212.747106 
L 365.056318 -212.747106 
L 363.562092 -212.747106 
L 362.067866 -212.747106 
L 360.57364 -212.747106 
L 359.079414 -212.747106 
L 357.585188 -212.747106 
L 356.090962 -212.747106 
L 354.596736 -212.747106 
L 353.10251 -212.747106 
L 351.608285 -212.747106 
L 350.114059 -212.747106 
L 348.619833 -212.747106 
L 347.125607 -212.747106 
L 345.631381 -212.747106 
L 344.137155 -212.747106 
L 342.642929 -212.747106 
L 341.148703 -212.747106 
L 339.654477 -212.747106 
L 338.160251 -212.747106 
L 336.666025 -212.747106 
L 335.171799 -212.747106 
L 333.677573 -212.747106 
L 332.183347 -212.747106 
L 330.689121 -212.747106 
L 329.194895 -212.747106 
L 327.700669 -212.747106 
L 326.206444 -212.747106 
L 324.712218 -212.747106 
L 323.217992 -212.747106 
L 321.723766 -212.747106 
L 320.22954 -212.747106 
L 318.735314 -212.747106 
L 317.241088 -212.747106 
L 315.746862 -212.747106 
L 314.252636 -212.747106 
L 312.75841 -212.747106 
L 311.264184 -212.747106 
L 309.769958 -212.747106 
L 308.275732 -212.747106 
L 306.781506 -212.747106 
L 305.28728 -212.747106 
L 303.793054 -212.747106 
L 302.298828 -212.747106 
L 300.804603 -212.747106 
L 299.310377 -212.747106 
L 297.816151 -212.747106 
L 296.321925 -212.747106 
L 294.827699 -212.747106 
L 293.333473 -212.747106 
L 291.839247 -212.747106 
L 290.345021 -212.747106 
L 288.850795 -212.747106 
L 287.356569 -212.747106 
L 285.862343 -212.747106 
L 284.368117 -212.747106 
L 282.873891 -212.747106 
L 281.379665 -212.747106 
L 279.885439 -212.747106 
L 278.391213 -212.747106 
L 276.896987 -212.747106 
L 275.402762 -212.747106 
L 273.908536 -212.747106 
L 272.41431 -212.747106 
L 270.920084 -212.747106 
L 269.425858 -212.747106 
L 267.931632 -212.747106 
L 266.437406 -212.747106 
L 264.94318 -212.747106 
L 263.448954 -212.747106 
L 261.954728 -212.747106 
L 260.460502 -212.747106 
L 258.966276 -212.747106 
L 257.47205 -212.747106 
L 255.977824 -212.747106 
L 254.483598 -212.747106 
L 252.989372 -212.747106 
L 251.495146 -212.747106 
L 250.000921 -212.747106 
L 248.506695 -212.747106 
L 247.012469 -212.747106 
L 245.518243 -212.747106 
L 244.024017 -212.747106 
L 242.529791 -212.747106 
L 241.035565 -212.747106 
L 239.541339 -212.747106 
L 238.047113 -212.747106 
L 236.552887 -212.747106 
L 235.058661 -212.747106 
L 233.564435 -212.747106 
L 232.070209 -212.747106 
L 230.575983 -212.747106 
L 229.081757 -212.747106 
L 227.587531 -212.747106 
L 226.093305 -212.747106 
L 224.599079 -212.747106 
L 223.104854 -212.747106 
L 221.610628 -212.747106 
L 220.116402 -212.747106 
L 218.622176 -212.747106 
L 217.12795 -212.747106 
L 215.633724 -212.747106 
L 214.139498 -212.747106 
L 212.645272 -212.747106 
L 211.151046 -212.747106 
L 209.65682 -212.747106 
L 208.162594 -212.747106 
L 206.668368 -212.747106 
L 205.174142 -212.747106 
L 203.679916 -212.747106 
L 202.18569 -212.747106 
L 200.691464 -212.747106 
L 199.197238 -212.747106 
L 197.703013 -212.747106 
L 196.208787 -212.747106 
L 194.714561 -212.747106 
L 193.220335 -212.747106 
L 191.726109 -212.747106 
L 190.231883 -212.747106 
L 188.737657 -212.747106 
L 187.243431 -212.747106 
L 185.749205 -212.747106 
L 184.254979 -212.747106 
L 182.760753 -212.747106 
L 181.266527 -212.747106 
L 179.772301 -212.747106 
L 178.278075 -212.747106 
L 176.783849 -212.747106 
L 175.289623 -212.747106 
L 173.795397 -212.747106 
L 172.301172 -212.747106 
L 170.806946 -212.747106 
L 169.31272 -212.747106 
L 167.818494 -212.747106 
L 166.324268 -212.747106 
L 164.830042 -212.747106 
L 163.335816 -212.747106 
L 161.84159 -212.747106 
L 160.347364 -212.747106 
L 158.853138 -212.747106 
L 157.358912 -212.747106 
L 155.864686 -212.747106 
L 154.37046 -212.747106 
L 152.876234 -212.747106 
L 151.382008 -212.747106 
L 149.887782 -212.747106 
L 148.393556 -212.747106 
L 146.899331 -212.747106 
L 145.405105 -212.747106 
L 143.910879 -212.747106 
L 142.416653 -212.747106 
L 140.922427 -212.747106 
L 139.428201 -212.747106 
L 137.933975 -212.747106 
L 136.439749 -212.747106 
L 134.945523 -212.747106 
L 133.451297 -212.747106 
L 131.957071 -212.747106 
L 130.462845 -212.747106 
L 128.968619 -212.747106 
L 127.474393 -212.747106 
L 125.980167 -212.747106 
L 124.485941 -212.747106 
L 122.991715 -212.747106 
L 121.49749 -212.747106 
L 120.003264 -212.747106 
L 118.509038 -212.747106 
L 117.014812 -212.747106 
L 115.520586 -212.747106 
L 114.02636 -212.747106 
L 112.532134 -212.747106 
L 111.037908 -212.747106 
L 109.543682 -212.747106 
L 108.049456 -212.747106 
L 106.55523 -212.747106 
L 105.061004 -212.747106 
L 103.566778 -212.747106 
L 102.072552 -212.747106 
L 100.578326 -212.747106 
L 99.0841 -212.747106 
L 97.589874 -212.747106 
L 96.095649 -212.747106 
L 94.601423 -212.747106 
L 93.107197 -212.747106 
L 91.612971 -212.747106 
L 90.118745 -212.747106 
L 88.624519 -212.747106 
L 87.130293 -212.747106 
L 85.636067 -212.747106 
L 84.141841 -212.747106 
L 82.647615 -212.747106 
L 81.153389 -212.747106 
L 79.659163 -212.747106 
L 78.164937 -212.747106 
L 76.670711 -212.747106 
L 75.176485 -212.747106 
L 73.682259 -212.747106 
L 72.188033 -212.747106 
L 70.693808 -212.747106 
L 69.199582 -212.747106 
L 67.705356 -212.747106 
L 66.21113 -212.747106 
L 64.716904 -212.747106 
L 63.222678 -212.747106 
L 61.728452 -212.747106 
L 60.234226 -212.747106 
L 58.74 -212.747106 
z
"/>
    </defs>
    <g clip-path="url(#p6e96c16fda)">
     <use xlink:href="#m417f0df03e" x="0" y="353.864" style="fill: #2f6f4f; fill-opacity: 0.16"/>
    </g>
   </g>
   <g id="matplotlib.axis_1">
    <g id="xtick_1">
     <g id="line2d_1">
      <defs>
       <path id="m49067098a3" d="M 0 0 
L 0 3.5 
" style="stroke: #8a929b; stroke-width: 0.8"/>
      </defs>
      <g>
       <use xlink:href="#m49067098a3" x="89.004407" y="152.276636" style="fill: #8a929b; stroke: #8a929b; stroke-width: 0.8"/>
      </g>
     </g>
    </g>
    <g id="xtick_2">
     <g id="line2d_2">
      <g>
       <use xlink:href="#m49067098a3" x="149.53322" y="152.276636" style="fill: #8a929b; stroke: #8a929b; stroke-width: 0.8"/>
      </g>
     </g>
    </g>
    <g id="xtick_3">
     <g id="line2d_3">
      <g>
       <use xlink:href="#m49067098a3" x="210.062034" y="152.276636" style="fill: #8a929b; stroke: #8a929b; stroke-width: 0.8"/>
      </g>
     </g>
    </g>
    <g id="xtick_4">
     <g id="line2d_4">
      <g>
       <use xlink:href="#m49067098a3" x="270.590847" y="152.276636" style="fill: #8a929b; stroke: #8a929b; stroke-width: 0.8"/>
      </g>
     </g>
    </g>
    <g id="xtick_5">
     <g id="line2d_5">
      <g>
       <use xlink:href="#m49067098a3" x="331.119661" y="152.276636" style="fill: #8a929b; stroke: #8a929b; stroke-width: 0.8"/>
      </g>
     </g>
    </g>
    <g id="xtick_6">
     <g id="line2d_6">
      <g>
       <use xlink:href="#m49067098a3" x="391.648475" y="152.276636" style="fill: #8a929b; stroke: #8a929b; stroke-width: 0.8"/>
      </g>
     </g>
    </g>
   </g>
   <g id="matplotlib.axis_2">
    <g id="ytick_1">
     <g id="line2d_7">
      <defs>
       <path id="mdb06c445c3" d="M 0 0 
L -3.5 0 
" style="stroke: #8a929b; stroke-width: 0.8"/>
      </defs>
      <g>
       <use xlink:href="#mdb06c445c3" x="58.74" y="141.116894" style="fill: #8a929b; stroke: #8a929b; stroke-width: 0.8"/>
      </g>
     </g>
     <g id="text_1">
      <!-- 0 -->
      <g style="fill: #8a929b" transform="translate(46.65 144.155957) scale(0.08 -0.08)">
       <defs>
        <path id="DejaVuSans-13" d="M 2034 4250 
Q 1547 4250 1301 3770 
Q 1056 3291 1056 2328 
Q 1056 1369 1301 889 
Q 1547 409 2034 409 
Q 2525 409 2770 889 
Q 3016 1369 3016 2328 
Q 3016 3291 2770 3770 
Q 2525 4250 2034 4250 
z
M 2034 4750 
Q 2819 4750 3233 4129 
Q 3647 3509 3647 2328 
Q 3647 1150 3233 529 
Q 2819 -91 2034 -91 
Q 1250 -91 836 529 
Q 422 1150 422 2328 
Q 422 3509 836 4129 
Q 1250 4750 2034 4750 
z
" transform="scale(0.015625)"/>
       </defs>
       <use xlink:href="#DejaVuSans-13"/>
      </g>
     </g>
    </g>
    <g id="ytick_2">
     <g id="line2d_8">
      <g>
       <use xlink:href="#mdb06c445c3" x="58.74" y="118.746856" style="fill: #8a929b; stroke: #8a929b; stroke-width: 0.8"/>
      </g>
     </g>
     <g id="text_2">
      <!-- 20000 -->
      <g style="fill: #8a929b" transform="translate(26.29 121.785918) scale(0.08 -0.08)">
       <defs>
        <path id="DejaVuSans-15" d="M 1228 531 
L 3431 531 
L 3431 0 
L 469 0 
L 469 531 
Q 828 903 1448 1529 
Q 2069 2156 2228 2338 
Q 2531 2678 2651 2914 
Q 2772 3150 2772 3378 
Q 2772 3750 2511 3984 
Q 2250 4219 1831 4219 
Q 1534 4219 1204 4116 
Q 875 4013 500 3803 
L 500 4441 
Q 881 4594 1212 4672 
Q 1544 4750 1819 4750 
Q 2544 4750 2975 4387 
Q 3406 4025 3406 3419 
Q 3406 3131 3298 2873 
Q 3191 2616 2906 2266 
Q 2828 2175 2409 1742 
Q 1991 1309 1228 531 
z
" transform="scale(0.015625)"/>
       </defs>
       <use xlink:href="#DejaVuSans-15"/>
       <use xlink:href="#DejaVuSans-13" transform="translate(63.625 0)"/>
       <use xlink:href="#DejaVuSans-13" transform="translate(127.25 0)"/>
       <use xlink:href="#DejaVuSans-13" transform="translate(190.875 0)"/>
       <use xlink:href="#DejaVuSans-13" transform="translate(254.5 0)"/>
      </g>
     </g>
    </g>
    <g id="ytick_3">
     <g id="line2d_9">
      <g>
       <use xlink:href="#mdb06c445c3" x="58.74" y="96.376817" style="fill: #8a929b; stroke: #8a929b; stroke-width: 0.8"/>
      </g>
     </g>
     <g id="text_3">
      <!-- 40000 -->
      <g style="fill: #8a929b" transform="translate(26.29 99.415879) scale(0.08 -0.08)">
       <defs>
        <path id="DejaVuSans-17" d="M 2419 4116 
L 825 1625 
L 2419 1625 
L 2419 4116 
z
M 2253 4666 
L 3047 4666 
L 3047 1625 
L 3713 1625 
L 3713 1100 
L 3047 1100 
L 3047 0 
L 2419 0 
L 2419 1100 
L 313 1100 
L 313 1709 
L 2253 4666 
z
" transform="scale(0.015625)"/>
       </defs>
       <use xlink:href="#DejaVuSans-17"/>
       <use xlink:href="#DejaVuSans-13" transform="translate(63.625 0)"/>
       <use xlink:href="#DejaVuSans-13" transform="translate(127.25 0)"/>
       <use xlink:href="#DejaVuSans-13" transform="translate(190.875 0)"/>
       <use xlink:href="#DejaVuSans-13" transform="translate(254.5 0)"/>
      </g>
     </g>
    </g>
    <g id="ytick_4">
     <g id="line2d_10">
      <g>
       <use xlink:href="#mdb06c445c3" x="58.74" y="74.006778" style="fill: #8a929b; stroke: #8a929b; stroke-width: 0.8"/>
      </g>
     </g>
     <g id="text_4">
      <!-- 60000 -->
      <g style="fill: #8a929b" transform="translate(26.29 77.045841) scale(0.08 -0.08)">
       <defs>
        <path id="DejaVuSans-19" d="M 2113 2584 
Q 1688 2584 1439 2293 
Q 1191 2003 1191 1497 
Q 1191 994 1439 701 
Q 1688 409 2113 409 
Q 2538 409 2786 701 
Q 3034 994 3034 1497 
Q 3034 2003 2786 2293 
Q 2538 2584 2113 2584 
z
M 3366 4563 
L 3366 3988 
Q 3128 4100 2886 4159 
Q 2644 4219 2406 4219 
Q 1781 4219 1451 3797 
Q 1122 3375 1075 2522 
Q 1259 2794 1537 2939 
Q 1816 3084 2150 3084 
Q 2853 3084 3261 2657 
Q 3669 2231 3669 1497 
Q 3669 778 3244 343 
Q 2819 -91 2113 -91 
Q 1303 -91 875 529 
Q 447 1150 447 2328 
Q 447 3434 972 4092 
Q 1497 4750 2381 4750 
Q 2619 4750 2861 4703 
Q 3103 4656 3366 4563 
z
" transform="scale(0.015625)"/>
       </defs>
       <use xlink:href="#DejaVuSans-19"/>
       <use xlink:href="#DejaVuSans-13" transform="translate(63.625 0)"/>
       <use xlink:href="#DejaVuSans-13" transform="translate(127.25 0)"/>
       <use xlink:href="#DejaVuSans-13" transform="translate(190.875 0)"/>
       <use xlink:href="#DejaVuSans-13" transform="translate(254.5 0)"/>
      </g>
     </g>
    </g>
    <g id="ytick_5">
     <g id="line2d_11">
      <g>
       <use xlink:href="#mdb06c445c3" x="58.74" y="51.63674" style="fill: #8a929b; stroke: #8a929b; stroke-width: 0.8"/>
      </g>
     </g>
     <g id="text_5">
      <!-- 80000 -->
      <g style="fill: #8a929b" transform="translate(26.29 54.675802) scale(0.08 -0.08)">
       <defs>
        <path id="DejaVuSans-1b" d="M 2034 2216 
Q 1584 2216 1326 1975 
Q 1069 1734 1069 1313 
Q 1069 891 1326 650 
Q 1584 409 2034 409 
Q 2484 409 2743 651 
Q 3003 894 3003 1313 
Q 3003 1734 2745 1975 
Q 2488 2216 2034 2216 
z
M 1403 2484 
Q 997 2584 770 2862 
Q 544 3141 544 3541 
Q 544 4100 942 4425 
Q 1341 4750 2034 4750 
Q 2731 4750 3128 4425 
Q 3525 4100 3525 3541 
Q 3525 3141 3298 2862 
Q 3072 2584 2669 2484 
Q 3125 2378 3379 2068 
Q 3634 1759 3634 1313 
Q 3634 634 3220 271 
Q 2806 -91 2034 -91 
Q 1263 -91 848 271 
Q 434 634 434 1313 
Q 434 1759 690 2068 
Q 947 2378 1403 2484 
z
M 1172 3481 
Q 1172 3119 1398 2916 
Q 1625 2713 2034 2713 
Q 2441 2713 2670 2916 
Q 2900 3119 2900 3481 
Q 2900 3844 2670 4047 
Q 2441 4250 2034 4250 
Q 1625 4250 1398 4047 
Q 1172 3844 1172 3481 
z
" transform="scale(0.015625)"/>
       </defs>
       <use xlink:href="#DejaVuSans-1b"/>
       <use xlink:href="#DejaVuSans-13" transform="translate(63.625 0)"/>
       <use xlink:href="#DejaVuSans-13" transform="translate(127.25 0)"/>
       <use xlink:href="#DejaVuSans-13" transform="translate(190.875 0)"/>
       <use xlink:href="#DejaVuSans-13" transform="translate(254.5 0)"/>
      </g>
     </g>
    </g>
    <g id="ytick_6">
     <g id="line2d_12">
      <g>
       <use xlink:href="#mdb06c445c3" x="58.74" y="29.266701" style="fill: #8a929b; stroke: #8a929b; stroke-width: 0.8"/>
      </g>
     </g>
     <g id="text_6">
      <!-- 100000 -->
      <g style="fill: #8a929b" transform="translate(21.2 32.305763) scale(0.08 -0.08)">
       <defs>
        <path id="DejaVuSans-14" d="M 794 531 
L 1825 531 
L 1825 4091 
L 703 3866 
L 703 4441 
L 1819 4666 
L 2450 4666 
L 2450 531 
L 3481 531 
L 3481 0 
L 794 0 
L 794 531 
z
" transform="scale(0.015625)"/>
       </defs>
       <use xlink:href="#DejaVuSans-14"/>
       <use xlink:href="#DejaVuSans-13" transform="translate(63.625 0)"/>
       <use xlink:href="#DejaVuSans-13" transform="translate(127.25 0)"/>
       <use xlink:href="#DejaVuSans-13" transform="translate(190.875 0)"/>
       <use xlink:href="#DejaVuSans-13" transform="translate(254.5 0)"/>
       <use xlink:href="#DejaVuSans-13" transform="translate(318.125 0)"/>
      </g>
     </g>
    </g>
    <g id="text_7">
     <!-- P  (Pa) -->
     <g style="fill: #1f2933" transform="translate(14.797656 95.687537) rotate(-90) scale(0.1 -0.1)">
      <defs>
       <path id="DejaVuSans-33" d="M 1259 4147 
L 1259 2394 
L 2053 2394 
Q 2494 2394 2734 2622 
Q 2975 2850 2975 3272 
Q 2975 3691 2734 3919 
Q 2494 4147 2053 4147 
L 1259 4147 
z
M 628 4666 
L 2053 4666 
Q 2838 4666 3239 4311 
Q 3641 3956 3641 3272 
Q 3641 2581 3239 2228 
Q 2838 1875 2053 1875 
L 1259 1875 
L 1259 0 
L 628 0 
L 628 4666 
z
" transform="scale(0.015625)"/>
       <path id="DejaVuSans-3" transform="scale(0.015625)"/>
       <path id="DejaVuSans-b" d="M 1984 4856 
Q 1566 4138 1362 3434 
Q 1159 2731 1159 2009 
Q 1159 1288 1364 580 
Q 1569 -128 1984 -844 
L 1484 -844 
Q 1016 -109 783 600 
Q 550 1309 550 2009 
Q 550 2706 781 3412 
Q 1013 4119 1484 4856 
L 1984 4856 
z
" transform="scale(0.015625)"/>
       <path id="DejaVuSans-44" d="M 2194 1759 
Q 1497 1759 1228 1600 
Q 959 1441 959 1056 
Q 959 750 1161 570 
Q 1363 391 1709 391 
Q 2188 391 2477 730 
Q 2766 1069 2766 1631 
L 2766 1759 
L 2194 1759 
z
M 3341 1997 
L 3341 0 
L 2766 0 
L 2766 531 
Q 2569 213 2275 61 
Q 1981 -91 1556 -91 
Q 1019 -91 701 211 
Q 384 513 384 1019 
Q 384 1609 779 1909 
Q 1175 2209 1959 2209 
L 2766 2209 
L 2766 2266 
Q 2766 2663 2505 2880 
Q 2244 3097 1772 3097 
Q 1472 3097 1187 3025 
Q 903 2953 641 2809 
L 641 3341 
Q 956 3463 1253 3523 
Q 1550 3584 1831 3584 
Q 2591 3584 2966 3190 
Q 3341 2797 3341 1997 
z
" transform="scale(0.015625)"/>
       <path id="DejaVuSans-c" d="M 513 4856 
L 1013 4856 
Q 1481 4119 1714 3412 
Q 1947 2706 1947 2009 
Q 1947 1309 1714 600 
Q 1481 -109 1013 -844 
L 513 -844 
Q 928 -128 1133 580 
Q 1338 1288 1338 2009 
Q 1338 2731 1133 3434 
Q 928 4138 513 4856 
z
" transform="scale(0.015625)"/>
      </defs>
      <use xlink:href="#DejaVuSans-33"/>
      <use xlink:href="#DejaVuSans-3" transform="translate(60.296875 0)"/>
      <use xlink:href="#DejaVuSans-3" transform="translate(92.078125 0)"/>
      <use xlink:href="#DejaVuSans-b" transform="translate(123.859375 0)"/>
      <use xlink:href="#DejaVuSans-33" transform="translate(162.875 0)"/>
      <use xlink:href="#DejaVuSans-44" transform="translate(218.6875 0)"/>
      <use xlink:href="#DejaVuSans-c" transform="translate(279.96875 0)"/>
     </g>
    </g>
   </g>
   <g id="line2d_13">
    <path d="M 58.74 141.116894 
L 415.86 141.116894 
" clip-path="url(#p6e96c16fda)" style="fill: none; stroke: #d8d4c8; stroke-linecap: square"/>
   </g>
   <g id="line2d_14">
    <path d="M 58.74 29.519482 
L 64.716904 33.759861 
L 70.693808 37.689791 
L 76.670711 41.342162 
L 82.647615 44.745376 
L 88.624519 47.924087 
L 96.095649 51.614272 
L 103.566778 55.023345 
L 111.037908 58.182251 
L 118.509038 61.11755 
L 127.474393 64.376816 
L 136.439749 67.380907 
L 145.405105 70.158659 
L 155.864686 73.145994 
L 166.324268 75.891957 
L 176.783849 78.424666 
L 188.737657 81.088578 
L 200.691464 83.535328 
L 214.139498 86.05996 
L 229.081757 88.617521 
L 244.024017 90.948018 
L 260.460502 93.283714 
L 278.391213 95.595694 
L 297.816151 97.86068 
L 318.735314 100.060646 
L 341.148703 102.182261 
L 365.056318 104.216256 
L 390.458159 106.156766 
L 415.86 107.903379 
L 415.86 107.903379 
" clip-path="url(#p6e96c16fda)" style="fill: none; stroke: #1f2933; stroke-width: 2.2; stroke-linecap: square"/>
   </g>
   <g id="patch_3">
    <path d="M 58.74 152.276636 
L 58.74 7.2 
" style="fill: none; stroke: #d8d4c8; stroke-width: 0.8; stroke-linejoin: miter; stroke-linecap: square"/>
   </g>
   <g id="patch_4">
    <path d="M 58.74 152.276636 
L 415.86 152.276636 
" style="fill: none; stroke: #d8d4c8; stroke-width: 0.8; stroke-linejoin: miter; stroke-linecap: square"/>
   </g>
   <g id="text_8">
    <g id="patch_5">
     <path d="M 163.754547 124.789067 
L 310.845453 124.789067 
Q 313.253453 124.789067 313.253453 122.381067 
L 313.253453 113.780395 
Q 313.253453 111.372395 310.845453 111.372395 
L 163.754547 111.372395 
Q 161.346547 111.372395 161.346547 113.780395 
L 161.346547 122.381067 
Q 161.346547 124.789067 163.754547 124.789067 
z
" style="fill: #fbfaf7; opacity: 0.92; stroke: #d8d4c8; stroke-width: 0.6; stroke-linejoin: miter"/>
    </g>
    <!-- shaded area  =  ∫ F dx  =  work W -->
    <g style="fill: #1f2933" transform="translate(163.754547 120.315052) scale(0.086 -0.086)">
     <defs>
      <path id="DejaVuSans-56" d="M 2834 3397 
L 2834 2853 
Q 2591 2978 2328 3040 
Q 2066 3103 1784 3103 
Q 1356 3103 1142 2972 
Q 928 2841 928 2578 
Q 928 2378 1081 2264 
Q 1234 2150 1697 2047 
L 1894 2003 
Q 2506 1872 2764 1633 
Q 3022 1394 3022 966 
Q 3022 478 2636 193 
Q 2250 -91 1575 -91 
Q 1294 -91 989 -36 
Q 684 19 347 128 
L 347 722 
Q 666 556 975 473 
Q 1284 391 1588 391 
Q 1994 391 2212 530 
Q 2431 669 2431 922 
Q 2431 1156 2273 1281 
Q 2116 1406 1581 1522 
L 1381 1569 
Q 847 1681 609 1914 
Q 372 2147 372 2553 
Q 372 3047 722 3315 
Q 1072 3584 1716 3584 
Q 2034 3584 2315 3537 
Q 2597 3491 2834 3397 
z
" transform="scale(0.015625)"/>
      <path id="DejaVuSans-4b" d="M 3513 2113 
L 3513 0 
L 2938 0 
L 2938 2094 
Q 2938 2591 2744 2837 
Q 2550 3084 2163 3084 
Q 1697 3084 1428 2787 
Q 1159 2491 1159 1978 
L 1159 0 
L 581 0 
L 581 4863 
L 1159 4863 
L 1159 2956 
Q 1366 3272 1645 3428 
Q 1925 3584 2291 3584 
Q 2894 3584 3203 3211 
Q 3513 2838 3513 2113 
z
" transform="scale(0.015625)"/>
      <path id="DejaVuSans-47" d="M 2906 2969 
L 2906 4863 
L 3481 4863 
L 3481 0 
L 2906 0 
L 2906 525 
Q 2725 213 2448 61 
Q 2172 -91 1784 -91 
Q 1150 -91 751 415 
Q 353 922 353 1747 
Q 353 2572 751 3078 
Q 1150 3584 1784 3584 
Q 2172 3584 2448 3432 
Q 2725 3281 2906 2969 
z
M 947 1747 
Q 947 1113 1208 752 
Q 1469 391 1925 391 
Q 2381 391 2643 752 
Q 2906 1113 2906 1747 
Q 2906 2381 2643 2742 
Q 2381 3103 1925 3103 
Q 1469 3103 1208 2742 
Q 947 2381 947 1747 
z
" transform="scale(0.015625)"/>
      <path id="DejaVuSans-48" d="M 3597 1894 
L 3597 1613 
L 953 1613 
Q 991 1019 1311 708 
Q 1631 397 2203 397 
Q 2534 397 2845 478 
Q 3156 559 3463 722 
L 3463 178 
Q 3153 47 2828 -22 
Q 2503 -91 2169 -91 
Q 1331 -91 842 396 
Q 353 884 353 1716 
Q 353 2575 817 3079 
Q 1281 3584 2069 3584 
Q 2775 3584 3186 3129 
Q 3597 2675 3597 1894 
z
M 3022 2063 
Q 3016 2534 2758 2815 
Q 2500 3097 2075 3097 
Q 1594 3097 1305 2825 
Q 1016 2553 972 2059 
L 3022 2063 
z
" transform="scale(0.015625)"/>
      <path id="DejaVuSans-55" d="M 2631 2963 
Q 2534 3019 2420 3045 
Q 2306 3072 2169 3072 
Q 1681 3072 1420 2755 
Q 1159 2438 1159 1844 
L 1159 0 
L 581 0 
L 581 3500 
L 1159 3500 
L 1159 2956 
Q 1341 3275 1631 3429 
Q 1922 3584 2338 3584 
Q 2397 3584 2469 3576 
Q 2541 3569 2628 3553 
L 2631 2963 
z
" transform="scale(0.015625)"/>
      <path id="DejaVuSans-20" d="M 678 2906 
L 4684 2906 
L 4684 2381 
L 678 2381 
L 678 2906 
z
M 678 1631 
L 4684 1631 
L 4684 1100 
L 678 1100 
L 678 1631 
z
" transform="scale(0.015625)"/>
      <path id="DejaVuSans-cb5" d="M 1509 3906 
Q 1534 4428 1787 4636 
Q 2041 4844 2277 4844 
Q 2513 4844 2709 4648 
Q 2906 4453 2969 4016 
L 2506 3969 
Q 2453 4375 2275 4375 
Q 2053 4375 2028 3828 
L 1825 -422 
Q 1800 -944 1547 -1151 
Q 1294 -1359 1058 -1359 
Q 822 -1359 625 -1164 
Q 428 -969 366 -531 
L 828 -484 
Q 881 -891 1059 -891 
Q 1281 -891 1306 -344 
L 1509 3906 
z
" transform="scale(0.015625)"/>
      <path id="DejaVuSans-29" d="M 628 4666 
L 3309 4666 
L 3309 4134 
L 1259 4134 
L 1259 2759 
L 3109 2759 
L 3109 2228 
L 1259 2228 
L 1259 0 
L 628 0 
L 628 4666 
z
" transform="scale(0.015625)"/>
      <path id="DejaVuSans-5b" d="M 3513 3500 
L 2247 1797 
L 3578 0 
L 2900 0 
L 1881 1375 
L 863 0 
L 184 0 
L 1544 1831 
L 300 3500 
L 978 3500 
L 1906 2253 
L 2834 3500 
L 3513 3500 
z
" transform="scale(0.015625)"/>
      <path id="DejaVuSans-5a" d="M 269 3500 
L 844 3500 
L 1563 769 
L 2278 3500 
L 2956 3500 
L 3675 769 
L 4391 3500 
L 4966 3500 
L 4050 0 
L 3372 0 
L 2619 2869 
L 1863 0 
L 1184 0 
L 269 3500 
z
" transform="scale(0.015625)"/>
      <path id="DejaVuSans-52" d="M 1959 3097 
Q 1497 3097 1228 2736 
Q 959 2375 959 1747 
Q 959 1119 1226 758 
Q 1494 397 1959 397 
Q 2419 397 2687 759 
Q 2956 1122 2956 1747 
Q 2956 2369 2687 2733 
Q 2419 3097 1959 3097 
z
M 1959 3584 
Q 2709 3584 3137 3096 
Q 3566 2609 3566 1747 
Q 3566 888 3137 398 
Q 2709 -91 1959 -91 
Q 1206 -91 779 398 
Q 353 888 353 1747 
Q 353 2609 779 3096 
Q 1206 3584 1959 3584 
z
" transform="scale(0.015625)"/>
      <path id="DejaVuSans-4e" d="M 581 4863 
L 1159 4863 
L 1159 1991 
L 2875 3500 
L 3609 3500 
L 1753 1863 
L 3688 0 
L 2938 0 
L 1159 1709 
L 1159 0 
L 581 0 
L 581 4863 
z
" transform="scale(0.015625)"/>
      <path id="DejaVuSans-3a" d="M 213 4666 
L 850 4666 
L 1831 722 
L 2809 4666 
L 3519 4666 
L 4500 722 
L 5478 4666 
L 6119 4666 
L 4947 0 
L 4153 0 
L 3169 4050 
L 2175 0 
L 1381 0 
L 213 4666 
z
" transform="scale(0.015625)"/>
     </defs>
     <use xlink:href="#DejaVuSans-56"/>
     <use xlink:href="#DejaVuSans-4b" transform="translate(52.09375 0)"/>
     <use xlink:href="#DejaVuSans-44" transform="translate(115.46875 0)"/>
     <use xlink:href="#DejaVuSans-47" transform="translate(176.75 0)"/>
     <use xlink:href="#DejaVuSans-48" transform="translate(240.234375 0)"/>
     <use xlink:href="#DejaVuSans-47" transform="translate(301.765625 0)"/>
     <use xlink:href="#DejaVuSans-3" transform="translate(365.25 0)"/>
     <use xlink:href="#DejaVuSans-44" transform="translate(397.03125 0)"/>
     <use xlink:href="#DejaVuSans-55" transform="translate(458.3125 0)"/>
     <use xlink:href="#DejaVuSans-48" transform="translate(497.21875 0)"/>
     <use xlink:href="#DejaVuSans-44" transform="translate(558.75 0)"/>
     <use xlink:href="#DejaVuSans-3" transform="translate(620.03125 0)"/>
     <use xlink:href="#DejaVuSans-3" transform="translate(651.8125 0)"/>
     <use xlink:href="#DejaVuSans-20" transform="translate(683.59375 0)"/>
     <use xlink:href="#DejaVuSans-3" transform="translate(767.390625 0)"/>
     <use xlink:href="#DejaVuSans-3" transform="translate(799.171875 0)"/>
     <use xlink:href="#DejaVuSans-cb5" transform="translate(830.953125 0)"/>
     <use xlink:href="#DejaVuSans-3" transform="translate(883.046875 0)"/>
     <use xlink:href="#DejaVuSans-29" transform="translate(914.828125 0)"/>
     <use xlink:href="#DejaVuSans-3" transform="translate(972.34375 0)"/>
     <use xlink:href="#DejaVuSans-47" transform="translate(1004.125 0)"/>
     <use xlink:href="#DejaVuSans-5b" transform="translate(1067.609375 0)"/>
     <use xlink:href="#DejaVuSans-3" transform="translate(1126.796875 0)"/>
     <use xlink:href="#DejaVuSans-3" transform="translate(1158.578125 0)"/>
     <use xlink:href="#DejaVuSans-20" transform="translate(1190.359375 0)"/>
     <use xlink:href="#DejaVuSans-3" transform="translate(1274.15625 0)"/>
     <use xlink:href="#DejaVuSans-3" transform="translate(1305.9375 0)"/>
     <use xlink:href="#DejaVuSans-5a" transform="translate(1337.71875 0)"/>
     <use xlink:href="#DejaVuSans-52" transform="translate(1419.5 0)"/>
     <use xlink:href="#DejaVuSans-55" transform="translate(1480.6875 0)"/>
     <use xlink:href="#DejaVuSans-4e" transform="translate(1521.796875 0)"/>
     <use xlink:href="#DejaVuSans-3" transform="translate(1579.703125 0)"/>
     <use xlink:href="#DejaVuSans-3a" transform="translate(1611.484375 0)"/>
    </g>
   </g>
  </g>
  <g id="axes_2">
   <g id="patch_6">
    <path d="M 58.74 317.664 
L 415.86 317.664 
L 415.86 172.587364 
L 58.74 172.587364 
z
" style="fill: #fbfaf7"/>
   </g>
   <g id="matplotlib.axis_3">
    <g id="xtick_7">
     <g id="line2d_15">
      <g>
       <use xlink:href="#m49067098a3" x="89.004407" y="317.664" style="fill: #8a929b; stroke: #8a929b; stroke-width: 0.8"/>
      </g>
     </g>
     <g id="text_9">
      <!-- 0.03 -->
      <g style="fill: #8a929b" transform="translate(80.098157 330.742125) scale(0.08 -0.08)">
       <defs>
        <path id="DejaVuSans-11" d="M 684 794 
L 1344 794 
L 1344 0 
L 684 0 
L 684 794 
z
" transform="scale(0.015625)"/>
        <path id="DejaVuSans-16" d="M 2597 2516 
Q 3050 2419 3304 2112 
Q 3559 1806 3559 1356 
Q 3559 666 3084 287 
Q 2609 -91 1734 -91 
Q 1441 -91 1130 -33 
Q 819 25 488 141 
L 488 750 
Q 750 597 1062 519 
Q 1375 441 1716 441 
Q 2309 441 2620 675 
Q 2931 909 2931 1356 
Q 2931 1769 2642 2001 
Q 2353 2234 1838 2234 
L 1294 2234 
L 1294 2753 
L 1863 2753 
Q 2328 2753 2575 2939 
Q 2822 3125 2822 3475 
Q 2822 3834 2567 4026 
Q 2313 4219 1838 4219 
Q 1578 4219 1281 4162 
Q 984 4106 628 3988 
L 628 4550 
Q 988 4650 1302 4700 
Q 1616 4750 1894 4750 
Q 2613 4750 3031 4423 
Q 3450 4097 3450 3541 
Q 3450 3153 3228 2886 
Q 3006 2619 2597 2516 
z
" transform="scale(0.015625)"/>
       </defs>
       <use xlink:href="#DejaVuSans-13"/>
       <use xlink:href="#DejaVuSans-11" transform="translate(63.625 0)"/>
       <use xlink:href="#DejaVuSans-13" transform="translate(95.40625 0)"/>
       <use xlink:href="#DejaVuSans-16" transform="translate(159.03125 0)"/>
      </g>
     </g>
    </g>
    <g id="xtick_8">
     <g id="line2d_16">
      <g>
       <use xlink:href="#m49067098a3" x="149.53322" y="317.664" style="fill: #8a929b; stroke: #8a929b; stroke-width: 0.8"/>
      </g>
     </g>
     <g id="text_10">
      <!-- 0.04 -->
      <g style="fill: #8a929b" transform="translate(140.62697 330.742125) scale(0.08 -0.08)">
       <use xlink:href="#DejaVuSans-13"/>
       <use xlink:href="#DejaVuSans-11" transform="translate(63.625 0)"/>
       <use xlink:href="#DejaVuSans-13" transform="translate(95.40625 0)"/>
       <use xlink:href="#DejaVuSans-17" transform="translate(159.03125 0)"/>
      </g>
     </g>
    </g>
    <g id="xtick_9">
     <g id="line2d_17">
      <g>
       <use xlink:href="#m49067098a3" x="210.062034" y="317.664" style="fill: #8a929b; stroke: #8a929b; stroke-width: 0.8"/>
      </g>
     </g>
     <g id="text_11">
      <!-- 0.05 -->
      <g style="fill: #8a929b" transform="translate(201.155784 330.742125) scale(0.08 -0.08)">
       <defs>
        <path id="DejaVuSans-18" d="M 691 4666 
L 3169 4666 
L 3169 4134 
L 1269 4134 
L 1269 2991 
Q 1406 3038 1543 3061 
Q 1681 3084 1819 3084 
Q 2600 3084 3056 2656 
Q 3513 2228 3513 1497 
Q 3513 744 3044 326 
Q 2575 -91 1722 -91 
Q 1428 -91 1123 -41 
Q 819 9 494 109 
L 494 744 
Q 775 591 1075 516 
Q 1375 441 1709 441 
Q 2250 441 2565 725 
Q 2881 1009 2881 1497 
Q 2881 1984 2565 2268 
Q 2250 2553 1709 2553 
Q 1456 2553 1204 2497 
Q 953 2441 691 2322 
L 691 4666 
z
" transform="scale(0.015625)"/>
       </defs>
       <use xlink:href="#DejaVuSans-13"/>
       <use xlink:href="#DejaVuSans-11" transform="translate(63.625 0)"/>
       <use xlink:href="#DejaVuSans-13" transform="translate(95.40625 0)"/>
       <use xlink:href="#DejaVuSans-18" transform="translate(159.03125 0)"/>
      </g>
     </g>
    </g>
    <g id="xtick_10">
     <g id="line2d_18">
      <g>
       <use xlink:href="#m49067098a3" x="270.590847" y="317.664" style="fill: #8a929b; stroke: #8a929b; stroke-width: 0.8"/>
      </g>
     </g>
     <g id="text_12">
      <!-- 0.06 -->
      <g style="fill: #8a929b" transform="translate(261.684597 330.742125) scale(0.08 -0.08)">
       <use xlink:href="#DejaVuSans-13"/>
       <use xlink:href="#DejaVuSans-11" transform="translate(63.625 0)"/>
       <use xlink:href="#DejaVuSans-13" transform="translate(95.40625 0)"/>
       <use xlink:href="#DejaVuSans-19" transform="translate(159.03125 0)"/>
      </g>
     </g>
    </g>
    <g id="xtick_11">
     <g id="line2d_19">
      <g>
       <use xlink:href="#m49067098a3" x="331.119661" y="317.664" style="fill: #8a929b; stroke: #8a929b; stroke-width: 0.8"/>
      </g>
     </g>
     <g id="text_13">
      <!-- 0.07 -->
      <g style="fill: #8a929b" transform="translate(322.213411 330.742125) scale(0.08 -0.08)">
       <defs>
        <path id="DejaVuSans-1a" d="M 525 4666 
L 3525 4666 
L 3525 4397 
L 1831 0 
L 1172 0 
L 2766 4134 
L 525 4134 
L 525 4666 
z
" transform="scale(0.015625)"/>
       </defs>
       <use xlink:href="#DejaVuSans-13"/>
       <use xlink:href="#DejaVuSans-11" transform="translate(63.625 0)"/>
       <use xlink:href="#DejaVuSans-13" transform="translate(95.40625 0)"/>
       <use xlink:href="#DejaVuSans-1a" transform="translate(159.03125 0)"/>
      </g>
     </g>
    </g>
    <g id="xtick_12">
     <g id="line2d_20">
      <g>
       <use xlink:href="#m49067098a3" x="391.648475" y="317.664" style="fill: #8a929b; stroke: #8a929b; stroke-width: 0.8"/>
      </g>
     </g>
     <g id="text_14">
      <!-- 0.08 -->
      <g style="fill: #8a929b" transform="translate(382.742225 330.742125) scale(0.08 -0.08)">
       <use xlink:href="#DejaVuSans-13"/>
       <use xlink:href="#DejaVuSans-11" transform="translate(63.625 0)"/>
       <use xlink:href="#DejaVuSans-13" transform="translate(95.40625 0)"/>
       <use xlink:href="#DejaVuSans-1b" transform="translate(159.03125 0)"/>
      </g>
     </g>
    </g>
    <g id="text_15">
     <!-- V  (m³) -->
     <g style="fill: #1f2933" transform="translate(219.925 344.261656) scale(0.1 -0.1)">
      <defs>
       <path id="DejaVuSans-39" d="M 1831 0 
L 50 4666 
L 709 4666 
L 2188 738 
L 3669 4666 
L 4325 4666 
L 2547 0 
L 1831 0 
z
" transform="scale(0.015625)"/>
       <path id="DejaVuSans-50" d="M 3328 2828 
Q 3544 3216 3844 3400 
Q 4144 3584 4550 3584 
Q 5097 3584 5394 3201 
Q 5691 2819 5691 2113 
L 5691 0 
L 5113 0 
L 5113 2094 
Q 5113 2597 4934 2840 
Q 4756 3084 4391 3084 
Q 3944 3084 3684 2787 
Q 3425 2491 3425 1978 
L 3425 0 
L 2847 0 
L 2847 2094 
Q 2847 2600 2669 2842 
Q 2491 3084 2119 3084 
Q 1678 3084 1418 2786 
Q 1159 2488 1159 1978 
L 1159 0 
L 581 0 
L 581 3500 
L 1159 3500 
L 1159 2956 
Q 1356 3278 1631 3431 
Q 1906 3584 2284 3584 
Q 2666 3584 2933 3390 
Q 3200 3197 3328 2828 
z
" transform="scale(0.015625)"/>
       <path id="DejaVuSans-75" d="M 1638 3500 
Q 1925 3444 2083 3273 
Q 2241 3103 2241 2847 
Q 2241 2459 1944 2250 
Q 1647 2041 1094 2041 
Q 916 2041 720 2073 
Q 525 2106 306 2169 
L 306 2547 
Q 469 2463 655 2422 
Q 841 2381 1050 2381 
Q 1391 2381 1578 2504 
Q 1766 2628 1766 2847 
Q 1766 3078 1592 3197 
Q 1419 3316 1081 3316 
L 813 3316 
L 813 3653 
L 1106 3653 
Q 1400 3653 1551 3751 
Q 1703 3850 1703 4038 
Q 1703 4219 1547 4314 
Q 1391 4409 1094 4409 
Q 969 4409 809 4381 
Q 650 4353 397 4281 
L 397 4641 
Q 625 4694 825 4722 
Q 1025 4750 1197 4750 
Q 1647 4750 1911 4565 
Q 2175 4381 2175 4072 
Q 2175 3856 2034 3706 
Q 1894 3556 1638 3500 
z
" transform="scale(0.015625)"/>
      </defs>
      <use xlink:href="#DejaVuSans-39"/>
      <use xlink:href="#DejaVuSans-3" transform="translate(68.40625 0)"/>
      <use xlink:href="#DejaVuSans-3" transform="translate(100.1875 0)"/>
      <use xlink:href="#DejaVuSans-b" transform="translate(131.96875 0)"/>
      <use xlink:href="#DejaVuSans-50" transform="translate(170.984375 0)"/>
      <use xlink:href="#DejaVuSans-75" transform="translate(268.390625 0)"/>
      <use xlink:href="#DejaVuSans-c" transform="translate(308.484375 0)"/>
     </g>
    </g>
   </g>
   <g id="matplotlib.axis_4">
    <g id="ytick_7">
     <g id="line2d_21">
      <g>
       <use xlink:href="#mdb06c445c3" x="58.74" y="306.504259" style="fill: #8a929b; stroke: #8a929b; stroke-width: 0.8"/>
      </g>
     </g>
     <g id="text_16">
      <!-- 0 -->
      <g style="fill: #8a929b" transform="translate(46.65 309.543321) scale(0.08 -0.08)">
       <use xlink:href="#DejaVuSans-13"/>
      </g>
     </g>
    </g>
    <g id="ytick_8">
     <g id="line2d_22">
      <g>
       <use xlink:href="#mdb06c445c3" x="58.74" y="288.046232" style="fill: #8a929b; stroke: #8a929b; stroke-width: 0.8"/>
      </g>
     </g>
     <g id="text_17">
      <!-- 500 -->
      <g style="fill: #8a929b" transform="translate(36.47 291.085295) scale(0.08 -0.08)">
       <use xlink:href="#DejaVuSans-18"/>
       <use xlink:href="#DejaVuSans-13" transform="translate(63.625 0)"/>
       <use xlink:href="#DejaVuSans-13" transform="translate(127.25 0)"/>
      </g>
     </g>
    </g>
    <g id="ytick_9">
     <g id="line2d_23">
      <g>
       <use xlink:href="#mdb06c445c3" x="58.74" y="269.588206" style="fill: #8a929b; stroke: #8a929b; stroke-width: 0.8"/>
      </g>
     </g>
     <g id="text_18">
      <!-- 1000 -->
      <g style="fill: #8a929b" transform="translate(31.38 272.627268) scale(0.08 -0.08)">
       <use xlink:href="#DejaVuSans-14"/>
       <use xlink:href="#DejaVuSans-13" transform="translate(63.625 0)"/>
       <use xlink:href="#DejaVuSans-13" transform="translate(127.25 0)"/>
       <use xlink:href="#DejaVuSans-13" transform="translate(190.875 0)"/>
      </g>
     </g>
    </g>
    <g id="ytick_10">
     <g id="line2d_24">
      <g>
       <use xlink:href="#mdb06c445c3" x="58.74" y="251.130179" style="fill: #8a929b; stroke: #8a929b; stroke-width: 0.8"/>
      </g>
     </g>
     <g id="text_19">
      <!-- 1500 -->
      <g style="fill: #8a929b" transform="translate(31.38 254.169242) scale(0.08 -0.08)">
       <use xlink:href="#DejaVuSans-14"/>
       <use xlink:href="#DejaVuSans-18" transform="translate(63.625 0)"/>
       <use xlink:href="#DejaVuSans-13" transform="translate(127.25 0)"/>
       <use xlink:href="#DejaVuSans-13" transform="translate(190.875 0)"/>
      </g>
     </g>
    </g>
    <g id="ytick_11">
     <g id="line2d_25">
      <g>
       <use xlink:href="#mdb06c445c3" x="58.74" y="232.672153" style="fill: #8a929b; stroke: #8a929b; stroke-width: 0.8"/>
      </g>
     </g>
     <g id="text_20">
      <!-- 2000 -->
      <g style="fill: #8a929b" transform="translate(31.38 235.711215) scale(0.08 -0.08)">
       <use xlink:href="#DejaVuSans-15"/>
       <use xlink:href="#DejaVuSans-13" transform="translate(63.625 0)"/>
       <use xlink:href="#DejaVuSans-13" transform="translate(127.25 0)"/>
       <use xlink:href="#DejaVuSans-13" transform="translate(190.875 0)"/>
      </g>
     </g>
    </g>
    <g id="ytick_12">
     <g id="line2d_26">
      <g>
       <use xlink:href="#mdb06c445c3" x="58.74" y="214.214126" style="fill: #8a929b; stroke: #8a929b; stroke-width: 0.8"/>
      </g>
     </g>
     <g id="text_21">
      <!-- 2500 -->
      <g style="fill: #8a929b" transform="translate(31.38 217.253189) scale(0.08 -0.08)">
       <use xlink:href="#DejaVuSans-15"/>
       <use xlink:href="#DejaVuSans-18" transform="translate(63.625 0)"/>
       <use xlink:href="#DejaVuSans-13" transform="translate(127.25 0)"/>
       <use xlink:href="#DejaVuSans-13" transform="translate(190.875 0)"/>
      </g>
     </g>
    </g>
    <g id="ytick_13">
     <g id="line2d_27">
      <g>
       <use xlink:href="#mdb06c445c3" x="58.74" y="195.7561" style="fill: #8a929b; stroke: #8a929b; stroke-width: 0.8"/>
      </g>
     </g>
     <g id="text_22">
      <!-- 3000 -->
      <g style="fill: #8a929b" transform="translate(31.38 198.795162) scale(0.08 -0.08)">
       <use xlink:href="#DejaVuSans-16"/>
       <use xlink:href="#DejaVuSans-13" transform="translate(63.625 0)"/>
       <use xlink:href="#DejaVuSans-13" transform="translate(127.25 0)"/>
       <use xlink:href="#DejaVuSans-13" transform="translate(190.875 0)"/>
      </g>
     </g>
    </g>
    <g id="ytick_14">
     <g id="line2d_28">
      <g>
       <use xlink:href="#mdb06c445c3" x="58.74" y="177.298073" style="fill: #8a929b; stroke: #8a929b; stroke-width: 0.8"/>
      </g>
     </g>
     <g id="text_23">
      <!-- 3500 -->
      <g style="fill: #8a929b" transform="translate(31.38 180.337135) scale(0.08 -0.08)">
       <use xlink:href="#DejaVuSans-16"/>
       <use xlink:href="#DejaVuSans-18" transform="translate(63.625 0)"/>
       <use xlink:href="#DejaVuSans-13" transform="translate(127.25 0)"/>
       <use xlink:href="#DejaVuSans-13" transform="translate(190.875 0)"/>
      </g>
     </g>
    </g>
    <g id="text_24">
     <!-- W  (J) -->
     <g style="fill: #1f2933" transform="translate(24.977656 258.62412) rotate(-90) scale(0.1 -0.1)">
      <defs>
       <path id="DejaVuSans-2d" d="M 628 4666 
L 1259 4666 
L 1259 325 
Q 1259 -519 939 -900 
Q 619 -1281 -91 -1281 
L -331 -1281 
L -331 -750 
L -134 -750 
Q 284 -750 456 -515 
Q 628 -281 628 325 
L 628 4666 
z
" transform="scale(0.015625)"/>
      </defs>
      <use xlink:href="#DejaVuSans-3a"/>
      <use xlink:href="#DejaVuSans-3" transform="translate(98.875 0)"/>
      <use xlink:href="#DejaVuSans-3" transform="translate(130.65625 0)"/>
      <use xlink:href="#DejaVuSans-b" transform="translate(162.4375 0)"/>
      <use xlink:href="#DejaVuSans-2d" transform="translate(201.453125 0)"/>
      <use xlink:href="#DejaVuSans-c" transform="translate(230.953125 0)"/>
     </g>
    </g>
   </g>
   <g id="line2d_29">
    <path d="M 58.74 306.504259 
L 415.86 306.504259 
" clip-path="url(#pcf5afe6c47)" style="fill: none; stroke: #d8d4c8; stroke-linecap: square"/>
   </g>
   <g id="line2d_30">
    <path d="M 58.74 306.504259 
L 67.705356 301.204215 
L 76.670711 296.1927 
L 85.636067 291.439914 
L 94.601423 286.92045 
L 105.061004 281.913665 
L 115.520586 277.165134 
L 125.980167 272.649516 
L 137.933975 267.746204 
L 149.887782 263.090844 
L 161.84159 258.659561 
L 175.289623 253.91669 
L 188.737657 249.406191 
L 203.679916 244.640757 
L 218.622176 240.109858 
L 235.058661 235.370581 
L 251.495146 230.863334 
L 269.425858 226.185589 
L 287.356569 221.73403 
L 306.781506 217.142617 
L 327.700669 212.441351 
L 348.619833 207.968496 
L 371.033222 203.405624 
L 394.940837 198.775562 
L 415.86 194.906847 
L 415.86 194.906847 
" clip-path="url(#pcf5afe6c47)" style="fill: none; stroke: #2f6f4f; stroke-width: 2.2; stroke-linecap: square"/>
   </g>
   <g id="patch_7">
    <path d="M 58.74 317.664 
L 58.74 172.587364 
" style="fill: none; stroke: #d8d4c8; stroke-width: 0.8; stroke-linejoin: miter; stroke-linecap: square"/>
   </g>
   <g id="patch_8">
    <path d="M 58.74 317.664 
L 415.86 317.664 
" style="fill: none; stroke: #d8d4c8; stroke-width: 0.8; stroke-linejoin: miter; stroke-linecap: square"/>
   </g>
   <g id="text_25">
    <g id="patch_9">
     <path d="M 288.1544 236.504969 
L 368.182775 236.504969 
Q 370.590775 236.504969 370.590775 234.096969 
L 370.590775 225.496297 
Q 370.590775 223.088297 368.182775 223.088297 
L 288.1544 223.088297 
Q 285.7464 223.088297 285.7464 225.496297 
L 285.7464 234.096969 
Q 285.7464 236.504969 288.1544 236.504969 
z
" style="fill: #fbfaf7; opacity: 0.92; stroke: #d8d4c8; stroke-width: 0.6; stroke-linejoin: miter"/>
    </g>
    <!-- slope of W  =  F(x) -->
    <g style="fill: #1f2933" transform="translate(288.1544 232.030953) scale(0.086 -0.086)">
     <defs>
      <path id="DejaVuSans-4f" d="M 603 4863 
L 1178 4863 
L 1178 0 
L 603 0 
L 603 4863 
z
" transform="scale(0.015625)"/>
      <path id="DejaVuSans-53" d="M 1159 525 
L 1159 -1331 
L 581 -1331 
L 581 3500 
L 1159 3500 
L 1159 2969 
Q 1341 3281 1617 3432 
Q 1894 3584 2278 3584 
Q 2916 3584 3314 3078 
Q 3713 2572 3713 1747 
Q 3713 922 3314 415 
Q 2916 -91 2278 -91 
Q 1894 -91 1617 61 
Q 1341 213 1159 525 
z
M 3116 1747 
Q 3116 2381 2855 2742 
Q 2594 3103 2138 3103 
Q 1681 3103 1420 2742 
Q 1159 2381 1159 1747 
Q 1159 1113 1420 752 
Q 1681 391 2138 391 
Q 2594 391 2855 752 
Q 3116 1113 3116 1747 
z
" transform="scale(0.015625)"/>
      <path id="DejaVuSans-49" d="M 2375 4863 
L 2375 4384 
L 1825 4384 
Q 1516 4384 1395 4259 
Q 1275 4134 1275 3809 
L 1275 3500 
L 2222 3500 
L 2222 3053 
L 1275 3053 
L 1275 0 
L 697 0 
L 697 3053 
L 147 3053 
L 147 3500 
L 697 3500 
L 697 3744 
Q 697 4328 969 4595 
Q 1241 4863 1831 4863 
L 2375 4863 
z
" transform="scale(0.015625)"/>
     </defs>
     <use xlink:href="#DejaVuSans-56"/>
     <use xlink:href="#DejaVuSans-4f" transform="translate(52.09375 0)"/>
     <use xlink:href="#DejaVuSans-52" transform="translate(79.875 0)"/>
     <use xlink:href="#DejaVuSans-53" transform="translate(141.0625 0)"/>
     <use xlink:href="#DejaVuSans-48" transform="translate(204.546875 0)"/>
     <use xlink:href="#DejaVuSans-3" transform="translate(266.078125 0)"/>
     <use xlink:href="#DejaVuSans-52" transform="translate(297.859375 0)"/>
     <use xlink:href="#DejaVuSans-49" transform="translate(359.046875 0)"/>
     <use xlink:href="#DejaVuSans-3" transform="translate(394.25 0)"/>
     <use xlink:href="#DejaVuSans-3a" transform="translate(426.03125 0)"/>
     <use xlink:href="#DejaVuSans-3" transform="translate(524.90625 0)"/>
     <use xlink:href="#DejaVuSans-3" transform="translate(556.6875 0)"/>
     <use xlink:href="#DejaVuSans-20" transform="translate(588.46875 0)"/>
     <use xlink:href="#DejaVuSans-3" transform="translate(672.265625 0)"/>
     <use xlink:href="#DejaVuSans-3" transform="translate(704.046875 0)"/>
     <use xlink:href="#DejaVuSans-29" transform="translate(735.828125 0)"/>
     <use xlink:href="#DejaVuSans-b" transform="translate(793.34375 0)"/>
     <use xlink:href="#DejaVuSans-5b" transform="translate(832.359375 0)"/>
     <use xlink:href="#DejaVuSans-c" transform="translate(891.546875 0)"/>
    </g>
   </g>
  </g>
 </g>
 <defs>
  <clipPath id="p6e96c16fda">
   <rect x="58.74" y="7.2" width="357.12" height="145.076636"/>
  </clipPath>
  <clipPath id="pcf5afe6c47">
   <rect x="58.74" y="172.587364" width="357.12" height="145.076636"/>
  </clipPath>
 </defs>
</svg>
