<?xml version="1.0" encoding="utf-8" standalone="no"?>
<!DOCTYPE svg PUBLIC "-//W3C//DTD SVG 1.1//EN"
  "http://www.w3.org/Graphics/SVG/1.1/DTD/svg11.dtd">
<svg xmlns:xlink="http://www.w3.org/1999/xlink" width="422.12625pt" height="331.688pt" viewBox="0 0 422.12625 331.688" xmlns="http://www.w3.org/2000/svg" version="1.1">
 <metadata>
  <rdf:RDF xmlns:dc="http://purl.org/dc/elements/1.1/" xmlns:cc="http://creativecommons.org/ns#" xmlns:rdf="http://www.w3.org/1999/02/22-rdf-syntax-ns#">
   <cc:Work>
    <dc:type rdf:resource="http://purl.org/dc/dcmitype/StillImage"/>
    <dc:date>2026-06-27T06:43:49.289681</dc:date>
    <dc:format>image/svg+xml</dc:format>
    <dc:creator>
     <cc:Agent>
      <dc:title>Matplotlib v3.11.0, https://matplotlib.org/</dc:title>
     </cc:Agent>
    </dc:creator>
   </cc:Work>
  </rdf:RDF>
 </metadata>
 <defs>
  <style type="text/css">*{stroke-linejoin: round; stroke-linecap: butt}</style>
 </defs>
 <g id="figure_1">
  <g id="patch_1">
   <path d="M 0 331.688 
L 422.12625 331.688 
L 422.12625 0 
L 0 0 
z
" style="fill: #fbfaf7"/>
  </g>
  <g id="axes_1">
   <g id="patch_2">
    <path d="M 57.80625 140.666667 
L 414.92625 140.666667 
L 414.92625 7.2 
L 57.80625 7.2 
z
" style="fill: #fbfaf7"/>
   </g>
   <g id="matplotlib.axis_1">
    <g id="xtick_1">
     <g id="line2d_1">
      <defs>
       <path id="m4a1cc3402f" d="M 0 0 
L 0 3.5 
" style="stroke: #8a929b; stroke-width: 0.8"/>
      </defs>
      <g>
       <use xlink:href="#m4a1cc3402f" x="57.80625" y="140.666667" style="fill: #8a929b; stroke: #8a929b; stroke-width: 0.8"/>
      </g>
     </g>
    </g>
    <g id="xtick_2">
     <g id="line2d_2">
      <g>
       <use xlink:href="#m4a1cc3402f" x="105.42225" y="140.666667" style="fill: #8a929b; stroke: #8a929b; stroke-width: 0.8"/>
      </g>
     </g>
    </g>
    <g id="xtick_3">
     <g id="line2d_3">
      <g>
       <use xlink:href="#m4a1cc3402f" x="153.03825" y="140.666667" style="fill: #8a929b; stroke: #8a929b; stroke-width: 0.8"/>
      </g>
     </g>
    </g>
    <g id="xtick_4">
     <g id="line2d_4">
      <g>
       <use xlink:href="#m4a1cc3402f" x="200.65425" y="140.666667" style="fill: #8a929b; stroke: #8a929b; stroke-width: 0.8"/>
      </g>
     </g>
    </g>
    <g id="xtick_5">
     <g id="line2d_5">
      <g>
       <use xlink:href="#m4a1cc3402f" x="248.27025" y="140.666667" style="fill: #8a929b; stroke: #8a929b; stroke-width: 0.8"/>
      </g>
     </g>
    </g>
    <g id="xtick_6">
     <g id="line2d_6">
      <g>
       <use xlink:href="#m4a1cc3402f" x="295.88625" y="140.666667" style="fill: #8a929b; stroke: #8a929b; stroke-width: 0.8"/>
      </g>
     </g>
    </g>
    <g id="xtick_7">
     <g id="line2d_7">
      <g>
       <use xlink:href="#m4a1cc3402f" x="343.50225" y="140.666667" style="fill: #8a929b; stroke: #8a929b; stroke-width: 0.8"/>
      </g>
     </g>
    </g>
    <g id="xtick_8">
     <g id="line2d_8">
      <g>
       <use xlink:href="#m4a1cc3402f" x="391.11825" y="140.666667" style="fill: #8a929b; stroke: #8a929b; stroke-width: 0.8"/>
      </g>
     </g>
    </g>
   </g>
   <g id="matplotlib.axis_2">
    <g id="ytick_1">
     <g id="line2d_9">
      <defs>
       <path id="m9d1ab80aa5" d="M 0 0 
L -3.5 0 
" style="stroke: #8a929b; stroke-width: 0.8"/>
      </defs>
      <g>
       <use xlink:href="#m9d1ab80aa5" x="57.80625" y="126.511424" style="fill: #8a929b; stroke: #8a929b; stroke-width: 0.8"/>
      </g>
     </g>
     <g id="text_1">
      <!-- −0.010 -->
      <g style="fill: #8a929b" transform="translate(21.2 129.550486) scale(0.08 -0.08)">
       <defs>
        <path id="DejaVuSans-c9c" d="M 678 2272 
L 4684 2272 
L 4684 1741 
L 678 1741 
L 678 2272 
z
" transform="scale(0.015625)"/>
        <path id="DejaVuSans-13" d="M 2034 4250 
Q 1547 4250 1301 3770 
Q 1056 3291 1056 2328 
Q 1056 1369 1301 889 
Q 1547 409 2034 409 
Q 2525 409 2770 889 
Q 3016 1369 3016 2328 
Q 3016 3291 2770 3770 
Q 2525 4250 2034 4250 
z
M 2034 4750 
Q 2819 4750 3233 4129 
Q 3647 3509 3647 2328 
Q 3647 1150 3233 529 
Q 2819 -91 2034 -91 
Q 1250 -91 836 529 
Q 422 1150 422 2328 
Q 422 3509 836 4129 
Q 1250 4750 2034 4750 
z
" transform="scale(0.015625)"/>
        <path id="DejaVuSans-11" d="M 684 794 
L 1344 794 
L 1344 0 
L 684 0 
L 684 794 
z
" transform="scale(0.015625)"/>
        <path id="DejaVuSans-14" d="M 794 531 
L 1825 531 
L 1825 4091 
L 703 3866 
L 703 4441 
L 1819 4666 
L 2450 4666 
L 2450 531 
L 3481 531 
L 3481 0 
L 794 0 
L 794 531 
z
" transform="scale(0.015625)"/>
       </defs>
       <use xlink:href="#DejaVuSans-c9c"/>
       <use xlink:href="#DejaVuSans-13" transform="translate(83.796875 0)"/>
       <use xlink:href="#DejaVuSans-11" transform="translate(147.421875 0)"/>
       <use xlink:href="#DejaVuSans-13" transform="translate(179.203125 0)"/>
       <use xlink:href="#DejaVuSans-14" transform="translate(242.828125 0)"/>
       <use xlink:href="#DejaVuSans-13" transform="translate(306.453125 0)"/>
      </g>
     </g>
    </g>
    <g id="ytick_2">
     <g id="line2d_10">
      <g>
       <use xlink:href="#m9d1ab80aa5" x="57.80625" y="101.233568" style="fill: #8a929b; stroke: #8a929b; stroke-width: 0.8"/>
      </g>
     </g>
     <g id="text_2">
      <!-- −0.005 -->
      <g style="fill: #8a929b" transform="translate(21.2 104.27263) scale(0.08 -0.08)">
       <defs>
        <path id="DejaVuSans-18" d="M 691 4666 
L 3169 4666 
L 3169 4134 
L 1269 4134 
L 1269 2991 
Q 1406 3038 1543 3061 
Q 1681 3084 1819 3084 
Q 2600 3084 3056 2656 
Q 3513 2228 3513 1497 
Q 3513 744 3044 326 
Q 2575 -91 1722 -91 
Q 1428 -91 1123 -41 
Q 819 9 494 109 
L 494 744 
Q 775 591 1075 516 
Q 1375 441 1709 441 
Q 2250 441 2565 725 
Q 2881 1009 2881 1497 
Q 2881 1984 2565 2268 
Q 2250 2553 1709 2553 
Q 1456 2553 1204 2497 
Q 953 2441 691 2322 
L 691 4666 
z
" transform="scale(0.015625)"/>
       </defs>
       <use xlink:href="#DejaVuSans-c9c"/>
       <use xlink:href="#DejaVuSans-13" transform="translate(83.796875 0)"/>
       <use xlink:href="#DejaVuSans-11" transform="translate(147.421875 0)"/>
       <use xlink:href="#DejaVuSans-13" transform="translate(179.203125 0)"/>
       <use xlink:href="#DejaVuSans-13" transform="translate(242.828125 0)"/>
       <use xlink:href="#DejaVuSans-18" transform="translate(306.453125 0)"/>
      </g>
     </g>
    </g>
    <g id="ytick_3">
     <g id="line2d_11">
      <g>
       <use xlink:href="#m9d1ab80aa5" x="57.80625" y="75.955712" style="fill: #8a929b; stroke: #8a929b; stroke-width: 0.8"/>
      </g>
     </g>
     <g id="text_3">
      <!-- 0.000 -->
      <g style="fill: #8a929b" transform="translate(27.90375 78.994774) scale(0.08 -0.08)">
       <use xlink:href="#DejaVuSans-13"/>
       <use xlink:href="#DejaVuSans-11" transform="translate(63.625 0)"/>
       <use xlink:href="#DejaVuSans-13" transform="translate(95.40625 0)"/>
       <use xlink:href="#DejaVuSans-13" transform="translate(159.03125 0)"/>
       <use xlink:href="#DejaVuSans-13" transform="translate(222.65625 0)"/>
      </g>
     </g>
    </g>
    <g id="ytick_4">
     <g id="line2d_12">
      <g>
       <use xlink:href="#m9d1ab80aa5" x="57.80625" y="50.677856" style="fill: #8a929b; stroke: #8a929b; stroke-width: 0.8"/>
      </g>
     </g>
     <g id="text_4">
      <!-- 0.005 -->
      <g style="fill: #8a929b" transform="translate(27.90375 53.716918) scale(0.08 -0.08)">
       <use xlink:href="#DejaVuSans-13"/>
       <use xlink:href="#DejaVuSans-11" transform="translate(63.625 0)"/>
       <use xlink:href="#DejaVuSans-13" transform="translate(95.40625 0)"/>
       <use xlink:href="#DejaVuSans-13" transform="translate(159.03125 0)"/>
       <use xlink:href="#DejaVuSans-18" transform="translate(222.65625 0)"/>
      </g>
     </g>
    </g>
    <g id="ytick_5">
     <g id="line2d_13">
      <g>
       <use xlink:href="#m9d1ab80aa5" x="57.80625" y="25.4" style="fill: #8a929b; stroke: #8a929b; stroke-width: 0.8"/>
      </g>
     </g>
     <g id="text_5">
      <!-- 0.010 -->
      <g style="fill: #8a929b" transform="translate(27.90375 28.439062) scale(0.08 -0.08)">
       <use xlink:href="#DejaVuSans-13"/>
       <use xlink:href="#DejaVuSans-11" transform="translate(63.625 0)"/>
       <use xlink:href="#DejaVuSans-13" transform="translate(95.40625 0)"/>
       <use xlink:href="#DejaVuSans-14" transform="translate(159.03125 0)"/>
       <use xlink:href="#DejaVuSans-13" transform="translate(222.65625 0)"/>
      </g>
     </g>
    </g>
    <g id="text_6">
     <!-- Q  (C) -->
     <g style="fill: #1f2933" transform="translate(14.797656 88.440365) rotate(-90) scale(0.1 -0.1)">
      <defs>
       <path id="DejaVuSans-34" d="M 2522 4238 
Q 1834 4238 1429 3725 
Q 1025 3213 1025 2328 
Q 1025 1447 1429 934 
Q 1834 422 2522 422 
Q 3209 422 3611 934 
Q 4013 1447 4013 2328 
Q 4013 3213 3611 3725 
Q 3209 4238 2522 4238 
z
M 3406 84 
L 4238 -825 
L 3475 -825 
L 2784 -78 
Q 2681 -84 2626 -87 
Q 2572 -91 2522 -91 
Q 1538 -91 948 567 
Q 359 1225 359 2328 
Q 359 3434 948 4092 
Q 1538 4750 2522 4750 
Q 3503 4750 4090 4092 
Q 4678 3434 4678 2328 
Q 4678 1516 4351 937 
Q 4025 359 3406 84 
z
" transform="scale(0.015625)"/>
       <path id="DejaVuSans-3" transform="scale(0.015625)"/>
       <path id="DejaVuSans-b" d="M 1984 4856 
Q 1566 4138 1362 3434 
Q 1159 2731 1159 2009 
Q 1159 1288 1364 580 
Q 1569 -128 1984 -844 
L 1484 -844 
Q 1016 -109 783 600 
Q 550 1309 550 2009 
Q 550 2706 781 3412 
Q 1013 4119 1484 4856 
L 1984 4856 
z
" transform="scale(0.015625)"/>
       <path id="DejaVuSans-26" d="M 4122 4306 
L 4122 3641 
Q 3803 3938 3442 4084 
Q 3081 4231 2675 4231 
Q 1875 4231 1450 3742 
Q 1025 3253 1025 2328 
Q 1025 1406 1450 917 
Q 1875 428 2675 428 
Q 3081 428 3442 575 
Q 3803 722 4122 1019 
L 4122 359 
Q 3791 134 3420 21 
Q 3050 -91 2638 -91 
Q 1578 -91 968 557 
Q 359 1206 359 2328 
Q 359 3453 968 4101 
Q 1578 4750 2638 4750 
Q 3056 4750 3426 4639 
Q 3797 4528 4122 4306 
z
" transform="scale(0.015625)"/>
       <path id="DejaVuSans-c" d="M 513 4856 
L 1013 4856 
Q 1481 4119 1714 3412 
Q 1947 2706 1947 2009 
Q 1947 1309 1714 600 
Q 1481 -109 1013 -844 
L 513 -844 
Q 928 -128 1133 580 
Q 1338 1288 1338 2009 
Q 1338 2731 1133 3434 
Q 928 4138 513 4856 
z
" transform="scale(0.015625)"/>
      </defs>
      <use xlink:href="#DejaVuSans-34"/>
      <use xlink:href="#DejaVuSans-3" transform="translate(78.71875 0)"/>
      <use xlink:href="#DejaVuSans-3" transform="translate(110.5 0)"/>
      <use xlink:href="#DejaVuSans-b" transform="translate(142.28125 0)"/>
      <use xlink:href="#DejaVuSans-26" transform="translate(181.296875 0)"/>
      <use xlink:href="#DejaVuSans-c" transform="translate(251.125 0)"/>
     </g>
    </g>
   </g>
   <g id="line2d_14">
    <path d="M 57.80625 75.955712 
L 414.92625 75.955712 
" clip-path="url(#p2efa11eb4e)" style="fill: none; stroke: #d8d4c8; stroke-linecap: square"/>
   </g>
   <g id="line2d_15">
    <path d="M 57.80625 25.4 
L 59.300476 25.499537 
L 60.794702 25.797756 
L 62.288928 26.293483 
L 63.783154 26.984765 
L 65.27738 27.868881 
L 66.771606 28.942349 
L 68.265832 30.200942 
L 69.760058 31.639704 
L 71.254283 33.25297 
L 74.242735 36.976942 
L 77.231187 41.314257 
L 80.219639 46.196668 
L 83.208091 51.547348 
L 86.196543 57.282103 
L 90.679221 66.405672 
L 104.127254 94.463959 
L 107.115706 100.208201 
L 110.104158 105.570821 
L 113.09261 110.467438 
L 116.081062 114.821 
L 119.069514 118.563003 
L 120.56374 120.185867 
L 122.057965 121.634566 
L 123.552191 122.903394 
L 125.046417 123.987355 
L 126.540643 124.882182 
L 128.034869 125.584351 
L 129.529095 126.091096 
L 131.023321 126.400422 
L 132.517547 126.511111 
L 134.011773 126.422728 
L 135.505999 126.13562 
L 137.000225 125.650918 
L 138.494451 124.97053 
L 139.988677 124.097136 
L 141.482903 123.034175 
L 142.977129 121.785832 
L 144.471355 120.357024 
L 145.965581 118.753376 
L 148.954032 115.047483 
L 151.942484 110.726467 
L 154.930936 105.858321 
L 157.919388 100.519648 
L 160.90784 94.794452 
L 165.390518 85.680313 
L 178.838551 57.613055 
L 181.827003 51.859397 
L 184.815455 46.484903 
L 187.803907 41.574142 
L 190.792359 37.204388 
L 193.780811 33.444398 
L 195.275037 31.811956 
L 196.769263 30.35334 
L 198.263488 29.074292 
L 199.757714 27.97985 
L 201.25194 27.074324 
L 202.746166 26.361278 
L 204.240392 25.843521 
L 205.734618 25.523091 
L 207.228844 25.401251 
L 208.72307 25.47848 
L 210.217296 25.754473 
L 211.711522 26.228145 
L 213.205748 26.897629 
L 214.699974 27.760291 
L 216.1942 28.812732 
L 217.688426 30.050808 
L 219.182652 31.469645 
L 220.676878 33.063656 
L 223.665329 36.751424 
L 226.653781 41.056087 
L 229.642233 45.909906 
L 232.630685 51.236508 
L 235.619137 56.952074 
L 240.101815 66.056671 
L 253.549848 94.132551 
L 256.5383 99.895554 
L 259.526752 105.281856 
L 262.515204 110.2067 
L 265.503656 114.592593 
L 268.492108 118.370522 
L 269.986334 120.012522 
L 271.48056 121.481038 
L 272.974786 122.770289 
L 274.469012 123.875198 
L 275.963237 124.791413 
L 277.457463 125.515328 
L 278.951689 126.04409 
L 280.445915 126.375619 
L 281.940141 126.508609 
L 283.434367 126.442536 
L 284.928593 126.177661 
L 286.422819 125.715025 
L 287.917045 125.056452 
L 289.411271 124.204534 
L 290.905497 123.162626 
L 292.399723 121.934831 
L 293.893949 120.525983 
L 295.388175 118.94163 
L 298.376627 115.272031 
L 301.365078 110.983776 
L 304.35353 106.144342 
L 307.341982 100.829879 
L 310.330434 95.124013 
L 314.813112 86.029071 
L 328.261145 57.944916 
L 331.249597 52.172638 
L 334.238049 46.774596 
L 337.226501 41.835729 
L 340.214953 37.433751 
L 343.203405 33.63793 
L 344.697631 31.986393 
L 346.191857 30.507994 
L 347.686083 29.208556 
L 349.180309 28.093194 
L 350.674535 27.166302 
L 352.16876 26.431528 
L 353.662986 25.891766 
L 355.157212 25.549141 
L 356.651438 25.405004 
L 358.145664 25.45992 
L 359.63989 25.713675 
L 361.134116 26.165268 
L 362.628342 26.812921 
L 364.122568 27.654085 
L 365.616794 28.685447 
L 367.11102 29.902946 
L 368.605246 31.301788 
L 370.099472 32.876463 
L 373.087924 36.527847 
L 376.076376 40.799643 
L 379.064827 45.624631 
L 382.053279 50.92689 
L 385.041731 56.622986 
L 389.524409 65.70816 
L 404.466668 96.731888 
L 407.45512 102.338525 
L 410.443572 107.530019 
L 413.432024 112.22468 
L 414.92625 114.362275 
L 414.92625 114.362275 
" clip-path="url(#p2efa11eb4e)" style="fill: none; stroke: #1f2933; stroke-width: 2.2; stroke-linecap: square"/>
   </g>
   <g id="patch_3">
    <path d="M 57.80625 140.666667 
L 57.80625 7.2 
" style="fill: none; stroke: #d8d4c8; stroke-width: 0.8; stroke-linejoin: miter; stroke-linecap: square"/>
   </g>
   <g id="patch_4">
    <path d="M 57.80625 140.666667 
L 414.92625 140.666667 
" style="fill: none; stroke: #d8d4c8; stroke-width: 0.8; stroke-linejoin: miter; stroke-linecap: square"/>
   </g>
  </g>
  <g id="axes_2">
   <g id="patch_5">
    <path d="M 57.80625 295.488 
L 414.92625 295.488 
L 414.92625 162.021333 
L 57.80625 162.021333 
z
" style="fill: #fbfaf7"/>
   </g>
   <g id="matplotlib.axis_3">
    <g id="xtick_9">
     <g id="line2d_16">
      <g>
       <use xlink:href="#m4a1cc3402f" x="57.80625" y="295.488" style="fill: #8a929b; stroke: #8a929b; stroke-width: 0.8"/>
      </g>
     </g>
     <g id="text_7">
      <!-- 0.000 -->
      <g style="fill: #8a929b" transform="translate(46.355 308.566125) scale(0.08 -0.08)">
       <use xlink:href="#DejaVuSans-13"/>
       <use xlink:href="#DejaVuSans-11" transform="translate(63.625 0)"/>
       <use xlink:href="#DejaVuSans-13" transform="translate(95.40625 0)"/>
       <use xlink:href="#DejaVuSans-13" transform="translate(159.03125 0)"/>
       <use xlink:href="#DejaVuSans-13" transform="translate(222.65625 0)"/>
      </g>
     </g>
    </g>
    <g id="xtick_10">
     <g id="line2d_17">
      <g>
       <use xlink:href="#m4a1cc3402f" x="105.42225" y="295.488" style="fill: #8a929b; stroke: #8a929b; stroke-width: 0.8"/>
      </g>
     </g>
     <g id="text_8">
      <!-- 0.002 -->
      <g style="fill: #8a929b" transform="translate(93.971 308.566125) scale(0.08 -0.08)">
       <defs>
        <path id="DejaVuSans-15" d="M 1228 531 
L 3431 531 
L 3431 0 
L 469 0 
L 469 531 
Q 828 903 1448 1529 
Q 2069 2156 2228 2338 
Q 2531 2678 2651 2914 
Q 2772 3150 2772 3378 
Q 2772 3750 2511 3984 
Q 2250 4219 1831 4219 
Q 1534 4219 1204 4116 
Q 875 4013 500 3803 
L 500 4441 
Q 881 4594 1212 4672 
Q 1544 4750 1819 4750 
Q 2544 4750 2975 4387 
Q 3406 4025 3406 3419 
Q 3406 3131 3298 2873 
Q 3191 2616 2906 2266 
Q 2828 2175 2409 1742 
Q 1991 1309 1228 531 
z
" transform="scale(0.015625)"/>
       </defs>
       <use xlink:href="#DejaVuSans-13"/>
       <use xlink:href="#DejaVuSans-11" transform="translate(63.625 0)"/>
       <use xlink:href="#DejaVuSans-13" transform="translate(95.40625 0)"/>
       <use xlink:href="#DejaVuSans-13" transform="translate(159.03125 0)"/>
       <use xlink:href="#DejaVuSans-15" transform="translate(222.65625 0)"/>
      </g>
     </g>
    </g>
    <g id="xtick_11">
     <g id="line2d_18">
      <g>
       <use xlink:href="#m4a1cc3402f" x="153.03825" y="295.488" style="fill: #8a929b; stroke: #8a929b; stroke-width: 0.8"/>
      </g>
     </g>
     <g id="text_9">
      <!-- 0.004 -->
      <g style="fill: #8a929b" transform="translate(141.587 308.566125) scale(0.08 -0.08)">
       <defs>
        <path id="DejaVuSans-17" d="M 2419 4116 
L 825 1625 
L 2419 1625 
L 2419 4116 
z
M 2253 4666 
L 3047 4666 
L 3047 1625 
L 3713 1625 
L 3713 1100 
L 3047 1100 
L 3047 0 
L 2419 0 
L 2419 1100 
L 313 1100 
L 313 1709 
L 2253 4666 
z
" transform="scale(0.015625)"/>
       </defs>
       <use xlink:href="#DejaVuSans-13"/>
       <use xlink:href="#DejaVuSans-11" transform="translate(63.625 0)"/>
       <use xlink:href="#DejaVuSans-13" transform="translate(95.40625 0)"/>
       <use xlink:href="#DejaVuSans-13" transform="translate(159.03125 0)"/>
       <use xlink:href="#DejaVuSans-17" transform="translate(222.65625 0)"/>
      </g>
     </g>
    </g>
    <g id="xtick_12">
     <g id="line2d_19">
      <g>
       <use xlink:href="#m4a1cc3402f" x="200.65425" y="295.488" style="fill: #8a929b; stroke: #8a929b; stroke-width: 0.8"/>
      </g>
     </g>
     <g id="text_10">
      <!-- 0.006 -->
      <g style="fill: #8a929b" transform="translate(189.203 308.566125) scale(0.08 -0.08)">
       <defs>
        <path id="DejaVuSans-19" d="M 2113 2584 
Q 1688 2584 1439 2293 
Q 1191 2003 1191 1497 
Q 1191 994 1439 701 
Q 1688 409 2113 409 
Q 2538 409 2786 701 
Q 3034 994 3034 1497 
Q 3034 2003 2786 2293 
Q 2538 2584 2113 2584 
z
M 3366 4563 
L 3366 3988 
Q 3128 4100 2886 4159 
Q 2644 4219 2406 4219 
Q 1781 4219 1451 3797 
Q 1122 3375 1075 2522 
Q 1259 2794 1537 2939 
Q 1816 3084 2150 3084 
Q 2853 3084 3261 2657 
Q 3669 2231 3669 1497 
Q 3669 778 3244 343 
Q 2819 -91 2113 -91 
Q 1303 -91 875 529 
Q 447 1150 447 2328 
Q 447 3434 972 4092 
Q 1497 4750 2381 4750 
Q 2619 4750 2861 4703 
Q 3103 4656 3366 4563 
z
" transform="scale(0.015625)"/>
       </defs>
       <use xlink:href="#DejaVuSans-13"/>
       <use xlink:href="#DejaVuSans-11" transform="translate(63.625 0)"/>
       <use xlink:href="#DejaVuSans-13" transform="translate(95.40625 0)"/>
       <use xlink:href="#DejaVuSans-13" transform="translate(159.03125 0)"/>
       <use xlink:href="#DejaVuSans-19" transform="translate(222.65625 0)"/>
      </g>
     </g>
    </g>
    <g id="xtick_13">
     <g id="line2d_20">
      <g>
       <use xlink:href="#m4a1cc3402f" x="248.27025" y="295.488" style="fill: #8a929b; stroke: #8a929b; stroke-width: 0.8"/>
      </g>
     </g>
     <g id="text_11">
      <!-- 0.008 -->
      <g style="fill: #8a929b" transform="translate(236.819 308.566125) scale(0.08 -0.08)">
       <defs>
        <path id="DejaVuSans-1b" d="M 2034 2216 
Q 1584 2216 1326 1975 
Q 1069 1734 1069 1313 
Q 1069 891 1326 650 
Q 1584 409 2034 409 
Q 2484 409 2743 651 
Q 3003 894 3003 1313 
Q 3003 1734 2745 1975 
Q 2488 2216 2034 2216 
z
M 1403 2484 
Q 997 2584 770 2862 
Q 544 3141 544 3541 
Q 544 4100 942 4425 
Q 1341 4750 2034 4750 
Q 2731 4750 3128 4425 
Q 3525 4100 3525 3541 
Q 3525 3141 3298 2862 
Q 3072 2584 2669 2484 
Q 3125 2378 3379 2068 
Q 3634 1759 3634 1313 
Q 3634 634 3220 271 
Q 2806 -91 2034 -91 
Q 1263 -91 848 271 
Q 434 634 434 1313 
Q 434 1759 690 2068 
Q 947 2378 1403 2484 
z
M 1172 3481 
Q 1172 3119 1398 2916 
Q 1625 2713 2034 2713 
Q 2441 2713 2670 2916 
Q 2900 3119 2900 3481 
Q 2900 3844 2670 4047 
Q 2441 4250 2034 4250 
Q 1625 4250 1398 4047 
Q 1172 3844 1172 3481 
z
" transform="scale(0.015625)"/>
       </defs>
       <use xlink:href="#DejaVuSans-13"/>
       <use xlink:href="#DejaVuSans-11" transform="translate(63.625 0)"/>
       <use xlink:href="#DejaVuSans-13" transform="translate(95.40625 0)"/>
       <use xlink:href="#DejaVuSans-13" transform="translate(159.03125 0)"/>
       <use xlink:href="#DejaVuSans-1b" transform="translate(222.65625 0)"/>
      </g>
     </g>
    </g>
    <g id="xtick_14">
     <g id="line2d_21">
      <g>
       <use xlink:href="#m4a1cc3402f" x="295.88625" y="295.488" style="fill: #8a929b; stroke: #8a929b; stroke-width: 0.8"/>
      </g>
     </g>
     <g id="text_12">
      <!-- 0.010 -->
      <g style="fill: #8a929b" transform="translate(284.435 308.566125) scale(0.08 -0.08)">
       <use xlink:href="#DejaVuSans-13"/>
       <use xlink:href="#DejaVuSans-11" transform="translate(63.625 0)"/>
       <use xlink:href="#DejaVuSans-13" transform="translate(95.40625 0)"/>
       <use xlink:href="#DejaVuSans-14" transform="translate(159.03125 0)"/>
       <use xlink:href="#DejaVuSans-13" transform="translate(222.65625 0)"/>
      </g>
     </g>
    </g>
    <g id="xtick_15">
     <g id="line2d_22">
      <g>
       <use xlink:href="#m4a1cc3402f" x="343.50225" y="295.488" style="fill: #8a929b; stroke: #8a929b; stroke-width: 0.8"/>
      </g>
     </g>
     <g id="text_13">
      <!-- 0.012 -->
      <g style="fill: #8a929b" transform="translate(332.051 308.566125) scale(0.08 -0.08)">
       <use xlink:href="#DejaVuSans-13"/>
       <use xlink:href="#DejaVuSans-11" transform="translate(63.625 0)"/>
       <use xlink:href="#DejaVuSans-13" transform="translate(95.40625 0)"/>
       <use xlink:href="#DejaVuSans-14" transform="translate(159.03125 0)"/>
       <use xlink:href="#DejaVuSans-15" transform="translate(222.65625 0)"/>
      </g>
     </g>
    </g>
    <g id="xtick_16">
     <g id="line2d_23">
      <g>
       <use xlink:href="#m4a1cc3402f" x="391.11825" y="295.488" style="fill: #8a929b; stroke: #8a929b; stroke-width: 0.8"/>
      </g>
     </g>
     <g id="text_14">
      <!-- 0.014 -->
      <g style="fill: #8a929b" transform="translate(379.667 308.566125) scale(0.08 -0.08)">
       <use xlink:href="#DejaVuSans-13"/>
       <use xlink:href="#DejaVuSans-11" transform="translate(63.625 0)"/>
       <use xlink:href="#DejaVuSans-13" transform="translate(95.40625 0)"/>
       <use xlink:href="#DejaVuSans-14" transform="translate(159.03125 0)"/>
       <use xlink:href="#DejaVuSans-17" transform="translate(222.65625 0)"/>
      </g>
     </g>
    </g>
    <g id="text_15">
     <!-- t  (s) -->
     <g style="fill: #1f2933" transform="translate(224.721719 322.085656) scale(0.1 -0.1)">
      <defs>
       <path id="DejaVuSans-57" d="M 1172 4494 
L 1172 3500 
L 2356 3500 
L 2356 3053 
L 1172 3053 
L 1172 1153 
Q 1172 725 1289 603 
Q 1406 481 1766 481 
L 2356 481 
L 2356 0 
L 1766 0 
Q 1100 0 847 248 
Q 594 497 594 1153 
L 594 3053 
L 172 3053 
L 172 3500 
L 594 3500 
L 594 4494 
L 1172 4494 
z
" transform="scale(0.015625)"/>
       <path id="DejaVuSans-56" d="M 2834 3397 
L 2834 2853 
Q 2591 2978 2328 3040 
Q 2066 3103 1784 3103 
Q 1356 3103 1142 2972 
Q 928 2841 928 2578 
Q 928 2378 1081 2264 
Q 1234 2150 1697 2047 
L 1894 2003 
Q 2506 1872 2764 1633 
Q 3022 1394 3022 966 
Q 3022 478 2636 193 
Q 2250 -91 1575 -91 
Q 1294 -91 989 -36 
Q 684 19 347 128 
L 347 722 
Q 666 556 975 473 
Q 1284 391 1588 391 
Q 1994 391 2212 530 
Q 2431 669 2431 922 
Q 2431 1156 2273 1281 
Q 2116 1406 1581 1522 
L 1381 1569 
Q 847 1681 609 1914 
Q 372 2147 372 2553 
Q 372 3047 722 3315 
Q 1072 3584 1716 3584 
Q 2034 3584 2315 3537 
Q 2597 3491 2834 3397 
z
" transform="scale(0.015625)"/>
      </defs>
      <use xlink:href="#DejaVuSans-57"/>
      <use xlink:href="#DejaVuSans-3" transform="translate(39.203125 0)"/>
      <use xlink:href="#DejaVuSans-3" transform="translate(70.984375 0)"/>
      <use xlink:href="#DejaVuSans-b" transform="translate(102.765625 0)"/>
      <use xlink:href="#DejaVuSans-56" transform="translate(141.78125 0)"/>
      <use xlink:href="#DejaVuSans-c" transform="translate(193.875 0)"/>
     </g>
    </g>
   </g>
   <g id="matplotlib.axis_4">
    <g id="ytick_6">
     <g id="line2d_24">
      <g>
       <use xlink:href="#m9d1ab80aa5" x="57.80625" y="281.332523" style="fill: #8a929b; stroke: #8a929b; stroke-width: 0.8"/>
      </g>
     </g>
     <g id="text_16">
      <!-- −10 -->
      <g style="fill: #8a929b" transform="translate(33.9225 284.371585) scale(0.08 -0.08)">
       <use xlink:href="#DejaVuSans-c9c"/>
       <use xlink:href="#DejaVuSans-14" transform="translate(83.796875 0)"/>
       <use xlink:href="#DejaVuSans-13" transform="translate(147.421875 0)"/>
      </g>
     </g>
    </g>
    <g id="ytick_7">
     <g id="line2d_25">
      <g>
       <use xlink:href="#m9d1ab80aa5" x="57.80625" y="256.054549" style="fill: #8a929b; stroke: #8a929b; stroke-width: 0.8"/>
      </g>
     </g>
     <g id="text_17">
      <!-- −5 -->
      <g style="fill: #8a929b" transform="translate(39.0125 259.093612) scale(0.08 -0.08)">
       <use xlink:href="#DejaVuSans-c9c"/>
       <use xlink:href="#DejaVuSans-18" transform="translate(83.796875 0)"/>
      </g>
     </g>
    </g>
    <g id="ytick_8">
     <g id="line2d_26">
      <g>
       <use xlink:href="#m9d1ab80aa5" x="57.80625" y="230.776576" style="fill: #8a929b; stroke: #8a929b; stroke-width: 0.8"/>
      </g>
     </g>
     <g id="text_18">
      <!-- 0 -->
      <g style="fill: #8a929b" transform="translate(45.71625 233.815639) scale(0.08 -0.08)">
       <use xlink:href="#DejaVuSans-13"/>
      </g>
     </g>
    </g>
    <g id="ytick_9">
     <g id="line2d_27">
      <g>
       <use xlink:href="#m9d1ab80aa5" x="57.80625" y="205.498603" style="fill: #8a929b; stroke: #8a929b; stroke-width: 0.8"/>
      </g>
     </g>
     <g id="text_19">
      <!-- 5 -->
      <g style="fill: #8a929b" transform="translate(45.71625 208.537665) scale(0.08 -0.08)">
       <use xlink:href="#DejaVuSans-18"/>
      </g>
     </g>
    </g>
    <g id="ytick_10">
     <g id="line2d_28">
      <g>
       <use xlink:href="#m9d1ab80aa5" x="57.80625" y="180.22063" style="fill: #8a929b; stroke: #8a929b; stroke-width: 0.8"/>
      </g>
     </g>
     <g id="text_20">
      <!-- 10 -->
      <g style="fill: #8a929b" transform="translate(40.62625 183.259692) scale(0.08 -0.08)">
       <use xlink:href="#DejaVuSans-14"/>
       <use xlink:href="#DejaVuSans-13" transform="translate(63.625 0)"/>
      </g>
     </g>
    </g>
    <g id="text_21">
     <!-- I  (A) -->
     <g style="fill: #1f2933" transform="translate(27.520156 240.729667) rotate(-90) scale(0.1 -0.1)">
      <defs>
       <path id="DejaVuSans-2c" d="M 628 4666 
L 1259 4666 
L 1259 0 
L 628 0 
L 628 4666 
z
" transform="scale(0.015625)"/>
       <path id="DejaVuSans-24" d="M 2188 4044 
L 1331 1722 
L 3047 1722 
L 2188 4044 
z
M 1831 4666 
L 2547 4666 
L 4325 0 
L 3669 0 
L 3244 1197 
L 1141 1197 
L 716 0 
L 50 0 
L 1831 4666 
z
" transform="scale(0.015625)"/>
      </defs>
      <use xlink:href="#DejaVuSans-2c"/>
      <use xlink:href="#DejaVuSans-3" transform="translate(29.5 0)"/>
      <use xlink:href="#DejaVuSans-3" transform="translate(61.28125 0)"/>
      <use xlink:href="#DejaVuSans-b" transform="translate(93.0625 0)"/>
      <use xlink:href="#DejaVuSans-24" transform="translate(132.078125 0)"/>
      <use xlink:href="#DejaVuSans-c" transform="translate(200.484375 0)"/>
     </g>
    </g>
   </g>
   <g id="line2d_29">
    <path d="M 57.80625 230.776576 
L 414.92625 230.776576 
" clip-path="url(#p9d982921a6)" style="fill: none; stroke: #d8d4c8; stroke-linecap: square"/>
   </g>
   <g id="line2d_30">
    <path d="M 57.80625 230.776576 
L 65.27738 246.38231 
L 69.760058 255.107153 
L 72.748509 260.463836 
L 75.736961 265.35338 
L 78.725413 269.698846 
L 81.713865 273.431856 
L 83.208091 275.049931 
L 84.702317 276.493671 
L 86.196543 277.757389 
L 87.690769 278.836111 
L 89.184995 279.725588 
L 90.679221 280.422317 
L 92.173447 280.923556 
L 93.667673 281.227331 
L 95.161899 281.332444 
L 96.656124 281.238484 
L 98.15035 280.945818 
L 99.644576 280.455601 
L 101.138802 279.769762 
L 102.633028 278.891001 
L 104.127254 277.82278 
L 105.62148 276.569305 
L 107.115706 275.13551 
L 108.609932 273.527043 
L 111.598384 269.812088 
L 114.586836 265.482896 
L 117.575288 260.607587 
L 120.56374 255.262877 
L 123.552191 249.532867 
L 128.034869 240.413956 
L 141.482903 212.35101 
L 144.471355 206.602025 
L 147.459806 201.233434 
L 150.448258 196.329715 
L 153.43671 191.96803 
L 156.425162 188.217011 
L 157.919388 186.589347 
L 159.413614 185.135681 
L 160.90784 183.861735 
L 162.402066 182.772527 
L 163.896292 181.872344 
L 165.390518 181.164733 
L 166.884744 180.652479 
L 168.37897 180.337599 
L 169.873196 180.221333 
L 171.367422 180.30414 
L 172.861647 180.585692 
L 174.355873 181.064882 
L 175.850099 181.739822 
L 177.344325 182.607855 
L 178.838551 183.665563 
L 180.332777 184.90878 
L 181.827003 186.332612 
L 183.321229 187.931451 
L 186.309681 191.628305 
L 189.298133 195.94117 
L 192.286585 200.802183 
L 195.275037 206.134854 
L 198.263488 211.85527 
L 202.746166 220.964695 
L 216.1942 249.036437 
L 219.182652 254.794803 
L 222.171104 260.175234 
L 225.159555 265.093067 
L 228.148007 269.470918 
L 231.136459 273.239901 
L 232.630685 274.877132 
L 234.124911 276.340707 
L 235.619137 277.624864 
L 237.113363 278.724547 
L 238.607589 279.635423 
L 240.101815 280.353908 
L 241.596041 280.877171 
L 243.090267 281.203152 
L 244.584493 281.330568 
L 246.078719 281.258917 
L 247.572945 280.988481 
L 249.067171 280.520324 
L 250.561396 279.856291 
L 252.055622 278.998996 
L 253.549848 277.951815 
L 255.044074 276.718872 
L 256.5383 275.305021 
L 258.032526 273.715829 
L 261.020978 270.037122 
L 264.00943 265.740637 
L 266.997882 260.89398 
L 269.986334 255.573415 
L 272.974786 249.862663 
L 277.457463 240.762838 
L 290.905497 212.682647 
L 293.893949 206.914971 
L 296.882401 201.522765 
L 299.870853 196.590879 
L 302.859304 192.196916 
L 305.847756 188.410018 
L 307.341982 186.76324 
L 308.836208 185.289773 
L 310.330434 183.99542 
L 311.82466 182.885278 
L 313.318886 181.963718 
L 314.813112 181.23437 
L 316.307338 180.700104 
L 317.801564 180.363025 
L 319.29579 180.224461 
L 320.790016 180.284956 
L 322.284242 180.544272 
L 323.778468 181.001389 
L 325.272694 181.654507 
L 326.766919 182.501053 
L 328.261145 183.537695 
L 329.755371 184.760349 
L 331.249597 186.164202 
L 332.743823 187.743726 
L 335.732275 191.404241 
L 338.720727 195.684293 
L 341.709179 200.516534 
L 344.697631 205.824927 
L 347.686083 211.525944 
L 352.16876 220.616058 
L 367.11102 251.633873 
L 370.099472 257.235315 
L 373.087924 262.420419 
L 376.076376 267.107597 
L 379.064827 271.223093 
L 382.053279 274.702149 
L 383.547505 276.185489 
L 385.041731 277.490021 
L 386.535957 278.610609 
L 388.030183 279.542841 
L 389.524409 280.283045 
L 391.018635 280.828306 
L 392.512861 281.176478 
L 394.007087 281.32619 
L 395.501313 281.276852 
L 396.995539 281.028658 
L 398.489765 280.582586 
L 399.983991 279.940392 
L 401.478217 279.104605 
L 402.972442 278.078516 
L 404.466668 276.866165 
L 405.960894 275.472327 
L 407.45512 273.90249 
L 410.443572 270.260214 
L 413.432024 265.996648 
L 414.92625 263.652493 
L 414.92625 263.652493 
" clip-path="url(#p9d982921a6)" style="fill: none; stroke: #2f6f4f; stroke-width: 2.2; stroke-linecap: square"/>
   </g>
   <g id="patch_6">
    <path d="M 57.80625 295.488 
L 57.80625 162.021333 
" style="fill: none; stroke: #d8d4c8; stroke-width: 0.8; stroke-linejoin: miter; stroke-linecap: square"/>
   </g>
   <g id="patch_7">
    <path d="M 57.80625 295.488 
L 414.92625 295.488 
" style="fill: none; stroke: #d8d4c8; stroke-width: 0.8; stroke-linejoin: miter; stroke-linecap: square"/>
   </g>
  </g>
 </g>
 <defs>
  <clipPath id="p2efa11eb4e">
   <rect x="57.80625" y="7.2" width="357.12" height="133.466667"/>
  </clipPath>
  <clipPath id="p9d982921a6">
   <rect x="57.80625" y="162.021333" width="357.12" height="133.466667"/>
  </clipPath>
 </defs>
</svg>
