<?xml version="1.0" encoding="utf-8" standalone="no"?>
<!DOCTYPE svg PUBLIC "-//W3C//DTD SVG 1.1//EN"
  "http://www.w3.org/Graphics/SVG/1.1/DTD/svg11.dtd">
<svg xmlns:xlink="http://www.w3.org/1999/xlink" width="431.967031pt" height="353.864pt" viewBox="0 0 431.967031 353.864" xmlns="http://www.w3.org/2000/svg" version="1.1">
 <metadata>
  <rdf:RDF xmlns:dc="http://purl.org/dc/elements/1.1/" xmlns:cc="http://creativecommons.org/ns#" xmlns:rdf="http://www.w3.org/1999/02/22-rdf-syntax-ns#">
   <cc:Work>
    <dc:type rdf:resource="http://purl.org/dc/dcmitype/StillImage"/>
    <dc:date>2026-06-27T05:45:53.007705</dc:date>
    <dc:format>image/svg+xml</dc:format>
    <dc:creator>
     <cc:Agent>
      <dc:title>Matplotlib v3.11.0, https://matplotlib.org/</dc:title>
     </cc:Agent>
    </dc:creator>
   </cc:Work>
  </rdf:RDF>
 </metadata>
 <defs>
  <style type="text/css">*{stroke-linejoin: round; stroke-linecap: butt}</style>
 </defs>
 <g id="figure_1">
  <g id="patch_1">
   <path d="M 0 353.864 
L 431.967031 353.864 
L 431.967031 0 
L 0 0 
z
" style="fill: #fbfaf7"/>
  </g>
  <g id="axes_1">
   <g id="patch_2">
    <path d="M 58.740781 152.276636 
L 415.860781 152.276636 
L 415.860781 7.2 
L 58.740781 7.2 
z
" style="fill: #fbfaf7"/>
   </g>
   <g id="FillBetweenPolyCollection_1">
    <defs>
     <path id="mdbbb6e9c73" d="M 58.740781 -212.747106 
L 58.740781 -324.344518 
L 60.235007 -321.59479 
L 61.729233 -318.945452 
L 63.223459 -316.391678 
L 64.717685 -313.928924 
L 66.211911 -311.552918 
L 67.706137 -309.259631 
L 69.200363 -307.045268 
L 70.694589 -304.906249 
L 72.188815 -302.839194 
L 73.683041 -300.84091 
L 75.177267 -298.908381 
L 76.671493 -297.038752 
L 78.165718 -295.229324 
L 79.659944 -293.477539 
L 81.15417 -291.780975 
L 82.648396 -290.137335 
L 84.142622 -288.544439 
L 85.636848 -287.000222 
L 87.131074 -285.502718 
L 88.6253 -284.050064 
L 90.119526 -282.640485 
L 91.613752 -281.272295 
L 93.107978 -279.94389 
L 94.602204 -278.653742 
L 96.09643 -277.400396 
L 97.590656 -276.182464 
L 99.084882 -274.998627 
L 100.579108 -273.847622 
L 102.073334 -272.728247 
L 103.567559 -271.639353 
L 105.061785 -270.579844 
L 106.556011 -269.548672 
L 108.050237 -268.544835 
L 109.544463 -267.567375 
L 111.038689 -266.615377 
L 112.532915 -265.687964 
L 114.027141 -264.784296 
L 115.521367 -263.903569 
L 117.015593 -263.045014 
L 118.509819 -262.207893 
L 120.004045 -261.391498 
L 121.498271 -260.59515 
L 122.992497 -259.818199 
L 124.486723 -259.060019 
L 125.980949 -258.320011 
L 127.475175 -257.597599 
L 128.9694 -256.892229 
L 130.463626 -256.203369 
L 131.957852 -255.530508 
L 133.452078 -254.873154 
L 134.946304 -254.230835 
L 136.44053 -253.603095 
L 137.934756 -252.989497 
L 139.428982 -252.389619 
L 140.923208 -251.803055 
L 142.417434 -251.229413 
L 143.91166 -250.668318 
L 145.405886 -250.119405 
L 146.900112 -249.582325 
L 148.394338 -249.05674 
L 149.888564 -248.542325 
L 151.38279 -248.038764 
L 152.877016 -247.545755 
L 154.371242 -247.063005 
L 155.865467 -246.590231 
L 157.359693 -246.127161 
L 158.853919 -245.67353 
L 160.348145 -245.229084 
L 161.842371 -244.793576 
L 163.336597 -244.366769 
L 164.830823 -243.948432 
L 166.325049 -243.538342 
L 167.819275 -243.136285 
L 169.313501 -242.742051 
L 170.807727 -242.355439 
L 172.301953 -241.976254 
L 173.796179 -241.604307 
L 175.290405 -241.239415 
L 176.784631 -240.8814 
L 178.278857 -240.53009 
L 179.773083 -240.18532 
L 181.267308 -239.846928 
L 182.761534 -239.514758 
L 184.25576 -239.188658 
L 185.749986 -238.86848 
L 187.244212 -238.554083 
L 188.738438 -238.245329 
L 190.232664 -237.942082 
L 191.72689 -237.644213 
L 193.221116 -237.351595 
L 194.715342 -237.064106 
L 196.209568 -236.781626 
L 197.703794 -236.50404 
L 199.19802 -236.231236 
L 200.692246 -235.963103 
L 202.186472 -235.699537 
L 203.680698 -235.440433 
L 205.174924 -235.185693 
L 206.669149 -234.935217 
L 208.163375 -234.688913 
L 209.657601 -234.446687 
L 211.151827 -234.20845 
L 212.646053 -233.974115 
L 214.140279 -233.743597 
L 215.634505 -233.516814 
L 217.128731 -233.293685 
L 218.622957 -233.074133 
L 220.117183 -232.858081 
L 221.611409 -232.645456 
L 223.105635 -232.436184 
L 224.599861 -232.230197 
L 226.094087 -232.027426 
L 227.588313 -231.827803 
L 229.082539 -231.631265 
L 230.576765 -231.437748 
L 232.07099 -231.247191 
L 233.565216 -231.059532 
L 235.059442 -230.874715 
L 236.553668 -230.692682 
L 238.047894 -230.513377 
L 239.54212 -230.336745 
L 241.036346 -230.162735 
L 242.530572 -229.991294 
L 244.024798 -229.822373 
L 245.519024 -229.655921 
L 247.01325 -229.491891 
L 248.507476 -229.330237 
L 250.001702 -229.170913 
L 251.495928 -229.013873 
L 252.990154 -228.859075 
L 254.48438 -228.706477 
L 255.978606 -228.556036 
L 257.472831 -228.407712 
L 258.967057 -228.261466 
L 260.461283 -228.117259 
L 261.955509 -227.975053 
L 263.449735 -227.834812 
L 264.943961 -227.696499 
L 266.438187 -227.560079 
L 267.932413 -227.425518 
L 269.426639 -227.292783 
L 270.920865 -227.16184 
L 272.415091 -227.032657 
L 273.909317 -226.905203 
L 275.403543 -226.779447 
L 276.897769 -226.655359 
L 278.391995 -226.53291 
L 279.886221 -226.41207 
L 281.380447 -226.292813 
L 282.874672 -226.17511 
L 284.368898 -226.058935 
L 285.863124 -225.944261 
L 287.35735 -225.831062 
L 288.851576 -225.719313 
L 290.345802 -225.60899 
L 291.840028 -225.500069 
L 293.334254 -225.392525 
L 294.82848 -225.286336 
L 296.322706 -225.181478 
L 297.816932 -225.077931 
L 299.311158 -224.975672 
L 300.805384 -224.874679 
L 302.29961 -224.774932 
L 303.793836 -224.676411 
L 305.288062 -224.579096 
L 306.782288 -224.482966 
L 308.276513 -224.388004 
L 309.770739 -224.294189 
L 311.264965 -224.201504 
L 312.759191 -224.10993 
L 314.253417 -224.01945 
L 315.747643 -223.930046 
L 317.241869 -223.841702 
L 318.736095 -223.754401 
L 320.230321 -223.668126 
L 321.724547 -223.582861 
L 323.218773 -223.498591 
L 324.712999 -223.4153 
L 326.207225 -223.332974 
L 327.701451 -223.251597 
L 329.195677 -223.171154 
L 330.689903 -223.091632 
L 332.184129 -223.013017 
L 333.678354 -222.935294 
L 335.17258 -222.85845 
L 336.666806 -222.782473 
L 338.161032 -222.707349 
L 339.655258 -222.633065 
L 341.149484 -222.55961 
L 342.64371 -222.486969 
L 344.137936 -222.415133 
L 345.632162 -222.344088 
L 347.126388 -222.273824 
L 348.620614 -222.204328 
L 350.11484 -222.13559 
L 351.609066 -222.067599 
L 353.103292 -222.000344 
L 354.597518 -221.933814 
L 356.091744 -221.867999 
L 357.58597 -221.802889 
L 359.080195 -221.738473 
L 360.574421 -221.674742 
L 362.068647 -221.611687 
L 363.562873 -221.549297 
L 365.057099 -221.487564 
L 366.551325 -221.426477 
L 368.045551 -221.366029 
L 369.539777 -221.30621 
L 371.034003 -221.247012 
L 372.528229 -221.188426 
L 374.022455 -221.130443 
L 375.516681 -221.073056 
L 377.010907 -221.016256 
L 378.505133 -220.960035 
L 379.999359 -220.904386 
L 381.493585 -220.849301 
L 382.987811 -220.794771 
L 384.482036 -220.74079 
L 385.976262 -220.687351 
L 387.470488 -220.634445 
L 388.964714 -220.582067 
L 390.45894 -220.530208 
L 391.953166 -220.478863 
L 393.447392 -220.428024 
L 394.941618 -220.377685 
L 396.435844 -220.32784 
L 397.93007 -220.278481 
L 399.424296 -220.229602 
L 400.918522 -220.181198 
L 402.412748 -220.133262 
L 403.906974 -220.085788 
L 405.4012 -220.038771 
L 406.895426 -219.992203 
L 408.389652 -219.946081 
L 409.883877 -219.900397 
L 411.378103 -219.855147 
L 412.872329 -219.810325 
L 414.366555 -219.765926 
L 415.860781 -219.721944 
L 415.860781 -212.747106 
L 415.860781 -212.747106 
L 414.366555 -212.747106 
L 412.872329 -212.747106 
L 411.378103 -212.747106 
L 409.883877 -212.747106 
L 408.389652 -212.747106 
L 406.895426 -212.747106 
L 405.4012 -212.747106 
L 403.906974 -212.747106 
L 402.412748 -212.747106 
L 400.918522 -212.747106 
L 399.424296 -212.747106 
L 397.93007 -212.747106 
L 396.435844 -212.747106 
L 394.941618 -212.747106 
L 393.447392 -212.747106 
L 391.953166 -212.747106 
L 390.45894 -212.747106 
L 388.964714 -212.747106 
L 387.470488 -212.747106 
L 385.976262 -212.747106 
L 384.482036 -212.747106 
L 382.987811 -212.747106 
L 381.493585 -212.747106 
L 379.999359 -212.747106 
L 378.505133 -212.747106 
L 377.010907 -212.747106 
L 375.516681 -212.747106 
L 374.022455 -212.747106 
L 372.528229 -212.747106 
L 371.034003 -212.747106 
L 369.539777 -212.747106 
L 368.045551 -212.747106 
L 366.551325 -212.747106 
L 365.057099 -212.747106 
L 363.562873 -212.747106 
L 362.068647 -212.747106 
L 360.574421 -212.747106 
L 359.080195 -212.747106 
L 357.58597 -212.747106 
L 356.091744 -212.747106 
L 354.597518 -212.747106 
L 353.103292 -212.747106 
L 351.609066 -212.747106 
L 350.11484 -212.747106 
L 348.620614 -212.747106 
L 347.126388 -212.747106 
L 345.632162 -212.747106 
L 344.137936 -212.747106 
L 342.64371 -212.747106 
L 341.149484 -212.747106 
L 339.655258 -212.747106 
L 338.161032 -212.747106 
L 336.666806 -212.747106 
L 335.17258 -212.747106 
L 333.678354 -212.747106 
L 332.184129 -212.747106 
L 330.689903 -212.747106 
L 329.195677 -212.747106 
L 327.701451 -212.747106 
L 326.207225 -212.747106 
L 324.712999 -212.747106 
L 323.218773 -212.747106 
L 321.724547 -212.747106 
L 320.230321 -212.747106 
L 318.736095 -212.747106 
L 317.241869 -212.747106 
L 315.747643 -212.747106 
L 314.253417 -212.747106 
L 312.759191 -212.747106 
L 311.264965 -212.747106 
L 309.770739 -212.747106 
L 308.276513 -212.747106 
L 306.782288 -212.747106 
L 305.288062 -212.747106 
L 303.793836 -212.747106 
L 302.29961 -212.747106 
L 300.805384 -212.747106 
L 299.311158 -212.747106 
L 297.816932 -212.747106 
L 296.322706 -212.747106 
L 294.82848 -212.747106 
L 293.334254 -212.747106 
L 291.840028 -212.747106 
L 290.345802 -212.747106 
L 288.851576 -212.747106 
L 287.35735 -212.747106 
L 285.863124 -212.747106 
L 284.368898 -212.747106 
L 282.874672 -212.747106 
L 281.380447 -212.747106 
L 279.886221 -212.747106 
L 278.391995 -212.747106 
L 276.897769 -212.747106 
L 275.403543 -212.747106 
L 273.909317 -212.747106 
L 272.415091 -212.747106 
L 270.920865 -212.747106 
L 269.426639 -212.747106 
L 267.932413 -212.747106 
L 266.438187 -212.747106 
L 264.943961 -212.747106 
L 263.449735 -212.747106 
L 261.955509 -212.747106 
L 260.461283 -212.747106 
L 258.967057 -212.747106 
L 257.472831 -212.747106 
L 255.978606 -212.747106 
L 254.48438 -212.747106 
L 252.990154 -212.747106 
L 251.495928 -212.747106 
L 250.001702 -212.747106 
L 248.507476 -212.747106 
L 247.01325 -212.747106 
L 245.519024 -212.747106 
L 244.024798 -212.747106 
L 242.530572 -212.747106 
L 241.036346 -212.747106 
L 239.54212 -212.747106 
L 238.047894 -212.747106 
L 236.553668 -212.747106 
L 235.059442 -212.747106 
L 233.565216 -212.747106 
L 232.07099 -212.747106 
L 230.576765 -212.747106 
L 229.082539 -212.747106 
L 227.588313 -212.747106 
L 226.094087 -212.747106 
L 224.599861 -212.747106 
L 223.105635 -212.747106 
L 221.611409 -212.747106 
L 220.117183 -212.747106 
L 218.622957 -212.747106 
L 217.128731 -212.747106 
L 215.634505 -212.747106 
L 214.140279 -212.747106 
L 212.646053 -212.747106 
L 211.151827 -212.747106 
L 209.657601 -212.747106 
L 208.163375 -212.747106 
L 206.669149 -212.747106 
L 205.174924 -212.747106 
L 203.680698 -212.747106 
L 202.186472 -212.747106 
L 200.692246 -212.747106 
L 199.19802 -212.747106 
L 197.703794 -212.747106 
L 196.209568 -212.747106 
L 194.715342 -212.747106 
L 193.221116 -212.747106 
L 191.72689 -212.747106 
L 190.232664 -212.747106 
L 188.738438 -212.747106 
L 187.244212 -212.747106 
L 185.749986 -212.747106 
L 184.25576 -212.747106 
L 182.761534 -212.747106 
L 181.267308 -212.747106 
L 179.773083 -212.747106 
L 178.278857 -212.747106 
L 176.784631 -212.747106 
L 175.290405 -212.747106 
L 173.796179 -212.747106 
L 172.301953 -212.747106 
L 170.807727 -212.747106 
L 169.313501 -212.747106 
L 167.819275 -212.747106 
L 166.325049 -212.747106 
L 164.830823 -212.747106 
L 163.336597 -212.747106 
L 161.842371 -212.747106 
L 160.348145 -212.747106 
L 158.853919 -212.747106 
L 157.359693 -212.747106 
L 155.865467 -212.747106 
L 154.371242 -212.747106 
L 152.877016 -212.747106 
L 151.38279 -212.747106 
L 149.888564 -212.747106 
L 148.394338 -212.747106 
L 146.900112 -212.747106 
L 145.405886 -212.747106 
L 143.91166 -212.747106 
L 142.417434 -212.747106 
L 140.923208 -212.747106 
L 139.428982 -212.747106 
L 137.934756 -212.747106 
L 136.44053 -212.747106 
L 134.946304 -212.747106 
L 133.452078 -212.747106 
L 131.957852 -212.747106 
L 130.463626 -212.747106 
L 128.9694 -212.747106 
L 127.475175 -212.747106 
L 125.980949 -212.747106 
L 124.486723 -212.747106 
L 122.992497 -212.747106 
L 121.498271 -212.747106 
L 120.004045 -212.747106 
L 118.509819 -212.747106 
L 117.015593 -212.747106 
L 115.521367 -212.747106 
L 114.027141 -212.747106 
L 112.532915 -212.747106 
L 111.038689 -212.747106 
L 109.544463 -212.747106 
L 108.050237 -212.747106 
L 106.556011 -212.747106 
L 105.061785 -212.747106 
L 103.567559 -212.747106 
L 102.073334 -212.747106 
L 100.579108 -212.747106 
L 99.084882 -212.747106 
L 97.590656 -212.747106 
L 96.09643 -212.747106 
L 94.602204 -212.747106 
L 93.107978 -212.747106 
L 91.613752 -212.747106 
L 90.119526 -212.747106 
L 88.6253 -212.747106 
L 87.131074 -212.747106 
L 85.636848 -212.747106 
L 84.142622 -212.747106 
L 82.648396 -212.747106 
L 81.15417 -212.747106 
L 79.659944 -212.747106 
L 78.165718 -212.747106 
L 76.671493 -212.747106 
L 75.177267 -212.747106 
L 73.683041 -212.747106 
L 72.188815 -212.747106 
L 70.694589 -212.747106 
L 69.200363 -212.747106 
L 67.706137 -212.747106 
L 66.211911 -212.747106 
L 64.717685 -212.747106 
L 63.223459 -212.747106 
L 61.729233 -212.747106 
L 60.235007 -212.747106 
L 58.740781 -212.747106 
z
"/>
    </defs>
    <g clip-path="url(#p4df5da2e22)">
     <use xlink:href="#mdbbb6e9c73" x="0" y="353.864" style="fill: #2f6f4f; fill-opacity: 0.16"/>
    </g>
   </g>
   <g id="matplotlib.axis_1">
    <g id="xtick_1">
     <g id="line2d_1">
      <defs>
       <path id="m7b99872ae7" d="M 0 0 
L 0 3.5 
" style="stroke: #8a929b; stroke-width: 0.8"/>
      </defs>
      <g>
       <use xlink:href="#m7b99872ae7" x="58.740781" y="152.276636" style="fill: #8a929b; stroke: #8a929b; stroke-width: 0.8"/>
      </g>
     </g>
    </g>
    <g id="xtick_2">
     <g id="line2d_2">
      <g>
       <use xlink:href="#m7b99872ae7" x="118.260781" y="152.276636" style="fill: #8a929b; stroke: #8a929b; stroke-width: 0.8"/>
      </g>
     </g>
    </g>
    <g id="xtick_3">
     <g id="line2d_3">
      <g>
       <use xlink:href="#m7b99872ae7" x="177.780781" y="152.276636" style="fill: #8a929b; stroke: #8a929b; stroke-width: 0.8"/>
      </g>
     </g>
    </g>
    <g id="xtick_4">
     <g id="line2d_4">
      <g>
       <use xlink:href="#m7b99872ae7" x="237.300781" y="152.276636" style="fill: #8a929b; stroke: #8a929b; stroke-width: 0.8"/>
      </g>
     </g>
    </g>
    <g id="xtick_5">
     <g id="line2d_5">
      <g>
       <use xlink:href="#m7b99872ae7" x="296.820781" y="152.276636" style="fill: #8a929b; stroke: #8a929b; stroke-width: 0.8"/>
      </g>
     </g>
    </g>
    <g id="xtick_6">
     <g id="line2d_6">
      <g>
       <use xlink:href="#m7b99872ae7" x="356.340781" y="152.276636" style="fill: #8a929b; stroke: #8a929b; stroke-width: 0.8"/>
      </g>
     </g>
    </g>
    <g id="xtick_7">
     <g id="line2d_7">
      <g>
       <use xlink:href="#m7b99872ae7" x="415.860781" y="152.276636" style="fill: #8a929b; stroke: #8a929b; stroke-width: 0.8"/>
      </g>
     </g>
    </g>
   </g>
   <g id="matplotlib.axis_2">
    <g id="ytick_1">
     <g id="line2d_8">
      <defs>
       <path id="m7f914b03d6" d="M 0 0 
L -3.5 0 
" style="stroke: #8a929b; stroke-width: 0.8"/>
      </defs>
      <g>
       <use xlink:href="#m7f914b03d6" x="58.740781" y="141.116894" style="fill: #8a929b; stroke: #8a929b; stroke-width: 0.8"/>
      </g>
     </g>
     <g id="text_1">
      <!-- 0 -->
      <g style="fill: #8a929b" transform="translate(46.650781 144.155957) scale(0.08 -0.08)">
       <defs>
        <path id="DejaVuSans-13" d="M 2034 4250 
Q 1547 4250 1301 3770 
Q 1056 3291 1056 2328 
Q 1056 1369 1301 889 
Q 1547 409 2034 409 
Q 2525 409 2770 889 
Q 3016 1369 3016 2328 
Q 3016 3291 2770 3770 
Q 2525 4250 2034 4250 
z
M 2034 4750 
Q 2819 4750 3233 4129 
Q 3647 3509 3647 2328 
Q 3647 1150 3233 529 
Q 2819 -91 2034 -91 
Q 1250 -91 836 529 
Q 422 1150 422 2328 
Q 422 3509 836 4129 
Q 1250 4750 2034 4750 
z
" transform="scale(0.015625)"/>
       </defs>
       <use xlink:href="#DejaVuSans-13"/>
      </g>
     </g>
    </g>
    <g id="ytick_2">
     <g id="line2d_9">
      <g>
       <use xlink:href="#m7f914b03d6" x="58.740781" y="116.289884" style="fill: #8a929b; stroke: #8a929b; stroke-width: 0.8"/>
      </g>
     </g>
     <g id="text_2">
      <!-- 20000 -->
      <g style="fill: #8a929b" transform="translate(26.290781 119.328946) scale(0.08 -0.08)">
       <defs>
        <path id="DejaVuSans-15" d="M 1228 531 
L 3431 531 
L 3431 0 
L 469 0 
L 469 531 
Q 828 903 1448 1529 
Q 2069 2156 2228 2338 
Q 2531 2678 2651 2914 
Q 2772 3150 2772 3378 
Q 2772 3750 2511 3984 
Q 2250 4219 1831 4219 
Q 1534 4219 1204 4116 
Q 875 4013 500 3803 
L 500 4441 
Q 881 4594 1212 4672 
Q 1544 4750 1819 4750 
Q 2544 4750 2975 4387 
Q 3406 4025 3406 3419 
Q 3406 3131 3298 2873 
Q 3191 2616 2906 2266 
Q 2828 2175 2409 1742 
Q 1991 1309 1228 531 
z
" transform="scale(0.015625)"/>
       </defs>
       <use xlink:href="#DejaVuSans-15"/>
       <use xlink:href="#DejaVuSans-13" transform="translate(63.625 0)"/>
       <use xlink:href="#DejaVuSans-13" transform="translate(127.25 0)"/>
       <use xlink:href="#DejaVuSans-13" transform="translate(190.875 0)"/>
       <use xlink:href="#DejaVuSans-13" transform="translate(254.5 0)"/>
      </g>
     </g>
    </g>
    <g id="ytick_3">
     <g id="line2d_10">
      <g>
       <use xlink:href="#m7f914b03d6" x="58.740781" y="91.462873" style="fill: #8a929b; stroke: #8a929b; stroke-width: 0.8"/>
      </g>
     </g>
     <g id="text_3">
      <!-- 40000 -->
      <g style="fill: #8a929b" transform="translate(26.290781 94.501936) scale(0.08 -0.08)">
       <defs>
        <path id="DejaVuSans-17" d="M 2419 4116 
L 825 1625 
L 2419 1625 
L 2419 4116 
z
M 2253 4666 
L 3047 4666 
L 3047 1625 
L 3713 1625 
L 3713 1100 
L 3047 1100 
L 3047 0 
L 2419 0 
L 2419 1100 
L 313 1100 
L 313 1709 
L 2253 4666 
z
" transform="scale(0.015625)"/>
       </defs>
       <use xlink:href="#DejaVuSans-17"/>
       <use xlink:href="#DejaVuSans-13" transform="translate(63.625 0)"/>
       <use xlink:href="#DejaVuSans-13" transform="translate(127.25 0)"/>
       <use xlink:href="#DejaVuSans-13" transform="translate(190.875 0)"/>
       <use xlink:href="#DejaVuSans-13" transform="translate(254.5 0)"/>
      </g>
     </g>
    </g>
    <g id="ytick_4">
     <g id="line2d_11">
      <g>
       <use xlink:href="#m7f914b03d6" x="58.740781" y="66.635863" style="fill: #8a929b; stroke: #8a929b; stroke-width: 0.8"/>
      </g>
     </g>
     <g id="text_4">
      <!-- 60000 -->
      <g style="fill: #8a929b" transform="translate(26.290781 69.674925) scale(0.08 -0.08)">
       <defs>
        <path id="DejaVuSans-19" d="M 2113 2584 
Q 1688 2584 1439 2293 
Q 1191 2003 1191 1497 
Q 1191 994 1439 701 
Q 1688 409 2113 409 
Q 2538 409 2786 701 
Q 3034 994 3034 1497 
Q 3034 2003 2786 2293 
Q 2538 2584 2113 2584 
z
M 3366 4563 
L 3366 3988 
Q 3128 4100 2886 4159 
Q 2644 4219 2406 4219 
Q 1781 4219 1451 3797 
Q 1122 3375 1075 2522 
Q 1259 2794 1537 2939 
Q 1816 3084 2150 3084 
Q 2853 3084 3261 2657 
Q 3669 2231 3669 1497 
Q 3669 778 3244 343 
Q 2819 -91 2113 -91 
Q 1303 -91 875 529 
Q 447 1150 447 2328 
Q 447 3434 972 4092 
Q 1497 4750 2381 4750 
Q 2619 4750 2861 4703 
Q 3103 4656 3366 4563 
z
" transform="scale(0.015625)"/>
       </defs>
       <use xlink:href="#DejaVuSans-19"/>
       <use xlink:href="#DejaVuSans-13" transform="translate(63.625 0)"/>
       <use xlink:href="#DejaVuSans-13" transform="translate(127.25 0)"/>
       <use xlink:href="#DejaVuSans-13" transform="translate(190.875 0)"/>
       <use xlink:href="#DejaVuSans-13" transform="translate(254.5 0)"/>
      </g>
     </g>
    </g>
    <g id="ytick_5">
     <g id="line2d_12">
      <g>
       <use xlink:href="#m7f914b03d6" x="58.740781" y="41.808853" style="fill: #8a929b; stroke: #8a929b; stroke-width: 0.8"/>
      </g>
     </g>
     <g id="text_5">
      <!-- 80000 -->
      <g style="fill: #8a929b" transform="translate(26.290781 44.847915) scale(0.08 -0.08)">
       <defs>
        <path id="DejaVuSans-1b" d="M 2034 2216 
Q 1584 2216 1326 1975 
Q 1069 1734 1069 1313 
Q 1069 891 1326 650 
Q 1584 409 2034 409 
Q 2484 409 2743 651 
Q 3003 894 3003 1313 
Q 3003 1734 2745 1975 
Q 2488 2216 2034 2216 
z
M 1403 2484 
Q 997 2584 770 2862 
Q 544 3141 544 3541 
Q 544 4100 942 4425 
Q 1341 4750 2034 4750 
Q 2731 4750 3128 4425 
Q 3525 4100 3525 3541 
Q 3525 3141 3298 2862 
Q 3072 2584 2669 2484 
Q 3125 2378 3379 2068 
Q 3634 1759 3634 1313 
Q 3634 634 3220 271 
Q 2806 -91 2034 -91 
Q 1263 -91 848 271 
Q 434 634 434 1313 
Q 434 1759 690 2068 
Q 947 2378 1403 2484 
z
M 1172 3481 
Q 1172 3119 1398 2916 
Q 1625 2713 2034 2713 
Q 2441 2713 2670 2916 
Q 2900 3119 2900 3481 
Q 2900 3844 2670 4047 
Q 2441 4250 2034 4250 
Q 1625 4250 1398 4047 
Q 1172 3844 1172 3481 
z
" transform="scale(0.015625)"/>
       </defs>
       <use xlink:href="#DejaVuSans-1b"/>
       <use xlink:href="#DejaVuSans-13" transform="translate(63.625 0)"/>
       <use xlink:href="#DejaVuSans-13" transform="translate(127.25 0)"/>
       <use xlink:href="#DejaVuSans-13" transform="translate(190.875 0)"/>
       <use xlink:href="#DejaVuSans-13" transform="translate(254.5 0)"/>
      </g>
     </g>
    </g>
    <g id="ytick_6">
     <g id="line2d_13">
      <g>
       <use xlink:href="#m7f914b03d6" x="58.740781" y="16.981842" style="fill: #8a929b; stroke: #8a929b; stroke-width: 0.8"/>
      </g>
     </g>
     <g id="text_6">
      <!-- 100000 -->
      <g style="fill: #8a929b" transform="translate(21.200781 20.020905) scale(0.08 -0.08)">
       <defs>
        <path id="DejaVuSans-14" d="M 794 531 
L 1825 531 
L 1825 4091 
L 703 3866 
L 703 4441 
L 1819 4666 
L 2450 4666 
L 2450 531 
L 3481 531 
L 3481 0 
L 794 0 
L 794 531 
z
" transform="scale(0.015625)"/>
       </defs>
       <use xlink:href="#DejaVuSans-14"/>
       <use xlink:href="#DejaVuSans-13" transform="translate(63.625 0)"/>
       <use xlink:href="#DejaVuSans-13" transform="translate(127.25 0)"/>
       <use xlink:href="#DejaVuSans-13" transform="translate(190.875 0)"/>
       <use xlink:href="#DejaVuSans-13" transform="translate(254.5 0)"/>
       <use xlink:href="#DejaVuSans-13" transform="translate(318.125 0)"/>
      </g>
     </g>
    </g>
    <g id="text_7">
     <!-- dE/dx  (N/C/m) -->
     <g style="fill: #1f2933" transform="translate(14.798438 116.440662) rotate(-90) scale(0.1 -0.1)">
      <defs>
       <path id="DejaVuSans-47" d="M 2906 2969 
L 2906 4863 
L 3481 4863 
L 3481 0 
L 2906 0 
L 2906 525 
Q 2725 213 2448 61 
Q 2172 -91 1784 -91 
Q 1150 -91 751 415 
Q 353 922 353 1747 
Q 353 2572 751 3078 
Q 1150 3584 1784 3584 
Q 2172 3584 2448 3432 
Q 2725 3281 2906 2969 
z
M 947 1747 
Q 947 1113 1208 752 
Q 1469 391 1925 391 
Q 2381 391 2643 752 
Q 2906 1113 2906 1747 
Q 2906 2381 2643 2742 
Q 2381 3103 1925 3103 
Q 1469 3103 1208 2742 
Q 947 2381 947 1747 
z
" transform="scale(0.015625)"/>
       <path id="DejaVuSans-28" d="M 628 4666 
L 3578 4666 
L 3578 4134 
L 1259 4134 
L 1259 2753 
L 3481 2753 
L 3481 2222 
L 1259 2222 
L 1259 531 
L 3634 531 
L 3634 0 
L 628 0 
L 628 4666 
z
" transform="scale(0.015625)"/>
       <path id="DejaVuSans-12" d="M 1625 4666 
L 2156 4666 
L 531 -594 
L 0 -594 
L 1625 4666 
z
" transform="scale(0.015625)"/>
       <path id="DejaVuSans-5b" d="M 3513 3500 
L 2247 1797 
L 3578 0 
L 2900 0 
L 1881 1375 
L 863 0 
L 184 0 
L 1544 1831 
L 300 3500 
L 978 3500 
L 1906 2253 
L 2834 3500 
L 3513 3500 
z
" transform="scale(0.015625)"/>
       <path id="DejaVuSans-3" transform="scale(0.015625)"/>
       <path id="DejaVuSans-b" d="M 1984 4856 
Q 1566 4138 1362 3434 
Q 1159 2731 1159 2009 
Q 1159 1288 1364 580 
Q 1569 -128 1984 -844 
L 1484 -844 
Q 1016 -109 783 600 
Q 550 1309 550 2009 
Q 550 2706 781 3412 
Q 1013 4119 1484 4856 
L 1984 4856 
z
" transform="scale(0.015625)"/>
       <path id="DejaVuSans-31" d="M 628 4666 
L 1478 4666 
L 3547 763 
L 3547 4666 
L 4159 4666 
L 4159 0 
L 3309 0 
L 1241 3903 
L 1241 0 
L 628 0 
L 628 4666 
z
" transform="scale(0.015625)"/>
       <path id="DejaVuSans-26" d="M 4122 4306 
L 4122 3641 
Q 3803 3938 3442 4084 
Q 3081 4231 2675 4231 
Q 1875 4231 1450 3742 
Q 1025 3253 1025 2328 
Q 1025 1406 1450 917 
Q 1875 428 2675 428 
Q 3081 428 3442 575 
Q 3803 722 4122 1019 
L 4122 359 
Q 3791 134 3420 21 
Q 3050 -91 2638 -91 
Q 1578 -91 968 557 
Q 359 1206 359 2328 
Q 359 3453 968 4101 
Q 1578 4750 2638 4750 
Q 3056 4750 3426 4639 
Q 3797 4528 4122 4306 
z
" transform="scale(0.015625)"/>
       <path id="DejaVuSans-50" d="M 3328 2828 
Q 3544 3216 3844 3400 
Q 4144 3584 4550 3584 
Q 5097 3584 5394 3201 
Q 5691 2819 5691 2113 
L 5691 0 
L 5113 0 
L 5113 2094 
Q 5113 2597 4934 2840 
Q 4756 3084 4391 3084 
Q 3944 3084 3684 2787 
Q 3425 2491 3425 1978 
L 3425 0 
L 2847 0 
L 2847 2094 
Q 2847 2600 2669 2842 
Q 2491 3084 2119 3084 
Q 1678 3084 1418 2786 
Q 1159 2488 1159 1978 
L 1159 0 
L 581 0 
L 581 3500 
L 1159 3500 
L 1159 2956 
Q 1356 3278 1631 3431 
Q 1906 3584 2284 3584 
Q 2666 3584 2933 3390 
Q 3200 3197 3328 2828 
z
" transform="scale(0.015625)"/>
       <path id="DejaVuSans-c" d="M 513 4856 
L 1013 4856 
Q 1481 4119 1714 3412 
Q 1947 2706 1947 2009 
Q 1947 1309 1714 600 
Q 1481 -109 1013 -844 
L 513 -844 
Q 928 -128 1133 580 
Q 1338 1288 1338 2009 
Q 1338 2731 1133 3434 
Q 928 4138 513 4856 
z
" transform="scale(0.015625)"/>
      </defs>
      <use xlink:href="#DejaVuSans-47"/>
      <use xlink:href="#DejaVuSans-28" transform="translate(63.484375 0)"/>
      <use xlink:href="#DejaVuSans-12" transform="translate(126.671875 0)"/>
      <use xlink:href="#DejaVuSans-47" transform="translate(160.359375 0)"/>
      <use xlink:href="#DejaVuSans-5b" transform="translate(223.84375 0)"/>
      <use xlink:href="#DejaVuSans-3" transform="translate(283.03125 0)"/>
      <use xlink:href="#DejaVuSans-3" transform="translate(314.8125 0)"/>
      <use xlink:href="#DejaVuSans-b" transform="translate(346.59375 0)"/>
      <use xlink:href="#DejaVuSans-31" transform="translate(385.609375 0)"/>
      <use xlink:href="#DejaVuSans-12" transform="translate(460.421875 0)"/>
      <use xlink:href="#DejaVuSans-26" transform="translate(494.109375 0)"/>
      <use xlink:href="#DejaVuSans-12" transform="translate(563.9375 0)"/>
      <use xlink:href="#DejaVuSans-50" transform="translate(597.625 0)"/>
      <use xlink:href="#DejaVuSans-c" transform="translate(695.03125 0)"/>
     </g>
    </g>
   </g>
   <g id="line2d_14">
    <path d="M 58.740781 141.116894 
L 415.860781 141.116894 
" clip-path="url(#p4df5da2e22)" style="fill: none; stroke: #d8d4c8; stroke-linecap: square"/>
   </g>
   <g id="line2d_15">
    <path d="M 58.740781 29.519482 
L 61.729233 34.918548 
L 64.717685 39.935076 
L 67.706137 44.604369 
L 70.694589 48.957751 
L 73.683041 53.02309 
L 76.671493 56.825248 
L 81.15417 62.083025 
L 85.636848 66.863778 
L 90.119526 71.223515 
L 94.602204 75.210258 
L 99.084882 78.865373 
L 103.567559 82.224647 
L 108.050237 85.319165 
L 112.532915 88.176036 
L 117.015593 90.818986 
L 122.992497 94.045801 
L 128.9694 96.971771 
L 134.946304 99.633165 
L 140.923208 102.060945 
L 146.900112 104.281675 
L 154.371242 106.800995 
L 161.842371 109.070424 
L 169.313501 111.121949 
L 178.278857 113.33391 
L 187.244212 115.309917 
L 197.703794 117.35996 
L 208.163375 119.175087 
L 220.117183 121.005919 
L 232.07099 122.616809 
L 245.519024 124.208079 
L 260.461283 125.746741 
L 276.897769 127.208641 
L 294.82848 128.577664 
L 314.253417 129.84455 
L 336.666806 131.081527 
L 362.068647 132.252313 
L 390.45894 133.333792 
L 415.860781 134.142056 
L 415.860781 134.142056 
" clip-path="url(#p4df5da2e22)" style="fill: none; stroke: #1f2933; stroke-width: 2.2; stroke-linecap: square"/>
   </g>
   <g id="patch_3">
    <path d="M 58.740781 152.276636 
L 58.740781 7.2 
" style="fill: none; stroke: #d8d4c8; stroke-width: 0.8; stroke-linejoin: miter; stroke-linecap: square"/>
   </g>
   <g id="patch_4">
    <path d="M 58.740781 152.276636 
L 415.860781 152.276636 
" style="fill: none; stroke: #d8d4c8; stroke-width: 0.8; stroke-linejoin: miter; stroke-linecap: square"/>
   </g>
   <g id="text_8">
    <g id="patch_5">
     <path d="M 163.755328 139.790217 
L 310.846234 139.790217 
Q 313.254234 139.790217 313.254234 137.382217 
L 313.254234 128.781545 
Q 313.254234 126.373545 310.846234 126.373545 
L 163.755328 126.373545 
Q 161.347328 126.373545 161.347328 128.781545 
L 161.347328 137.382217 
Q 161.347328 139.790217 163.755328 139.790217 
z
" style="fill: #fbfaf7; opacity: 0.92; stroke: #d8d4c8; stroke-width: 0.6; stroke-linejoin: miter"/>
    </g>
    <!-- shaded area  =  ∫ F dx  =  work W -->
    <g style="fill: #1f2933" transform="translate(163.755328 135.316201) scale(0.086 -0.086)">
     <defs>
      <path id="DejaVuSans-56" d="M 2834 3397 
L 2834 2853 
Q 2591 2978 2328 3040 
Q 2066 3103 1784 3103 
Q 1356 3103 1142 2972 
Q 928 2841 928 2578 
Q 928 2378 1081 2264 
Q 1234 2150 1697 2047 
L 1894 2003 
Q 2506 1872 2764 1633 
Q 3022 1394 3022 966 
Q 3022 478 2636 193 
Q 2250 -91 1575 -91 
Q 1294 -91 989 -36 
Q 684 19 347 128 
L 347 722 
Q 666 556 975 473 
Q 1284 391 1588 391 
Q 1994 391 2212 530 
Q 2431 669 2431 922 
Q 2431 1156 2273 1281 
Q 2116 1406 1581 1522 
L 1381 1569 
Q 847 1681 609 1914 
Q 372 2147 372 2553 
Q 372 3047 722 3315 
Q 1072 3584 1716 3584 
Q 2034 3584 2315 3537 
Q 2597 3491 2834 3397 
z
" transform="scale(0.015625)"/>
      <path id="DejaVuSans-4b" d="M 3513 2113 
L 3513 0 
L 2938 0 
L 2938 2094 
Q 2938 2591 2744 2837 
Q 2550 3084 2163 3084 
Q 1697 3084 1428 2787 
Q 1159 2491 1159 1978 
L 1159 0 
L 581 0 
L 581 4863 
L 1159 4863 
L 1159 2956 
Q 1366 3272 1645 3428 
Q 1925 3584 2291 3584 
Q 2894 3584 3203 3211 
Q 3513 2838 3513 2113 
z
" transform="scale(0.015625)"/>
      <path id="DejaVuSans-44" d="M 2194 1759 
Q 1497 1759 1228 1600 
Q 959 1441 959 1056 
Q 959 750 1161 570 
Q 1363 391 1709 391 
Q 2188 391 2477 730 
Q 2766 1069 2766 1631 
L 2766 1759 
L 2194 1759 
z
M 3341 1997 
L 3341 0 
L 2766 0 
L 2766 531 
Q 2569 213 2275 61 
Q 1981 -91 1556 -91 
Q 1019 -91 701 211 
Q 384 513 384 1019 
Q 384 1609 779 1909 
Q 1175 2209 1959 2209 
L 2766 2209 
L 2766 2266 
Q 2766 2663 2505 2880 
Q 2244 3097 1772 3097 
Q 1472 3097 1187 3025 
Q 903 2953 641 2809 
L 641 3341 
Q 956 3463 1253 3523 
Q 1550 3584 1831 3584 
Q 2591 3584 2966 3190 
Q 3341 2797 3341 1997 
z
" transform="scale(0.015625)"/>
      <path id="DejaVuSans-48" d="M 3597 1894 
L 3597 1613 
L 953 1613 
Q 991 1019 1311 708 
Q 1631 397 2203 397 
Q 2534 397 2845 478 
Q 3156 559 3463 722 
L 3463 178 
Q 3153 47 2828 -22 
Q 2503 -91 2169 -91 
Q 1331 -91 842 396 
Q 353 884 353 1716 
Q 353 2575 817 3079 
Q 1281 3584 2069 3584 
Q 2775 3584 3186 3129 
Q 3597 2675 3597 1894 
z
M 3022 2063 
Q 3016 2534 2758 2815 
Q 2500 3097 2075 3097 
Q 1594 3097 1305 2825 
Q 1016 2553 972 2059 
L 3022 2063 
z
" transform="scale(0.015625)"/>
      <path id="DejaVuSans-55" d="M 2631 2963 
Q 2534 3019 2420 3045 
Q 2306 3072 2169 3072 
Q 1681 3072 1420 2755 
Q 1159 2438 1159 1844 
L 1159 0 
L 581 0 
L 581 3500 
L 1159 3500 
L 1159 2956 
Q 1341 3275 1631 3429 
Q 1922 3584 2338 3584 
Q 2397 3584 2469 3576 
Q 2541 3569 2628 3553 
L 2631 2963 
z
" transform="scale(0.015625)"/>
      <path id="DejaVuSans-20" d="M 678 2906 
L 4684 2906 
L 4684 2381 
L 678 2381 
L 678 2906 
z
M 678 1631 
L 4684 1631 
L 4684 1100 
L 678 1100 
L 678 1631 
z
" transform="scale(0.015625)"/>
      <path id="DejaVuSans-cb5" d="M 1509 3906 
Q 1534 4428 1787 4636 
Q 2041 4844 2277 4844 
Q 2513 4844 2709 4648 
Q 2906 4453 2969 4016 
L 2506 3969 
Q 2453 4375 2275 4375 
Q 2053 4375 2028 3828 
L 1825 -422 
Q 1800 -944 1547 -1151 
Q 1294 -1359 1058 -1359 
Q 822 -1359 625 -1164 
Q 428 -969 366 -531 
L 828 -484 
Q 881 -891 1059 -891 
Q 1281 -891 1306 -344 
L 1509 3906 
z
" transform="scale(0.015625)"/>
      <path id="DejaVuSans-29" d="M 628 4666 
L 3309 4666 
L 3309 4134 
L 1259 4134 
L 1259 2759 
L 3109 2759 
L 3109 2228 
L 1259 2228 
L 1259 0 
L 628 0 
L 628 4666 
z
" transform="scale(0.015625)"/>
      <path id="DejaVuSans-5a" d="M 269 3500 
L 844 3500 
L 1563 769 
L 2278 3500 
L 2956 3500 
L 3675 769 
L 4391 3500 
L 4966 3500 
L 4050 0 
L 3372 0 
L 2619 2869 
L 1863 0 
L 1184 0 
L 269 3500 
z
" transform="scale(0.015625)"/>
      <path id="DejaVuSans-52" d="M 1959 3097 
Q 1497 3097 1228 2736 
Q 959 2375 959 1747 
Q 959 1119 1226 758 
Q 1494 397 1959 397 
Q 2419 397 2687 759 
Q 2956 1122 2956 1747 
Q 2956 2369 2687 2733 
Q 2419 3097 1959 3097 
z
M 1959 3584 
Q 2709 3584 3137 3096 
Q 3566 2609 3566 1747 
Q 3566 888 3137 398 
Q 2709 -91 1959 -91 
Q 1206 -91 779 398 
Q 353 888 353 1747 
Q 353 2609 779 3096 
Q 1206 3584 1959 3584 
z
" transform="scale(0.015625)"/>
      <path id="DejaVuSans-4e" d="M 581 4863 
L 1159 4863 
L 1159 1991 
L 2875 3500 
L 3609 3500 
L 1753 1863 
L 3688 0 
L 2938 0 
L 1159 1709 
L 1159 0 
L 581 0 
L 581 4863 
z
" transform="scale(0.015625)"/>
      <path id="DejaVuSans-3a" d="M 213 4666 
L 850 4666 
L 1831 722 
L 2809 4666 
L 3519 4666 
L 4500 722 
L 5478 4666 
L 6119 4666 
L 4947 0 
L 4153 0 
L 3169 4050 
L 2175 0 
L 1381 0 
L 213 4666 
z
" transform="scale(0.015625)"/>
     </defs>
     <use xlink:href="#DejaVuSans-56"/>
     <use xlink:href="#DejaVuSans-4b" transform="translate(52.09375 0)"/>
     <use xlink:href="#DejaVuSans-44" transform="translate(115.46875 0)"/>
     <use xlink:href="#DejaVuSans-47" transform="translate(176.75 0)"/>
     <use xlink:href="#DejaVuSans-48" transform="translate(240.234375 0)"/>
     <use xlink:href="#DejaVuSans-47" transform="translate(301.765625 0)"/>
     <use xlink:href="#DejaVuSans-3" transform="translate(365.25 0)"/>
     <use xlink:href="#DejaVuSans-44" transform="translate(397.03125 0)"/>
     <use xlink:href="#DejaVuSans-55" transform="translate(458.3125 0)"/>
     <use xlink:href="#DejaVuSans-48" transform="translate(497.21875 0)"/>
     <use xlink:href="#DejaVuSans-44" transform="translate(558.75 0)"/>
     <use xlink:href="#DejaVuSans-3" transform="translate(620.03125 0)"/>
     <use xlink:href="#DejaVuSans-3" transform="translate(651.8125 0)"/>
     <use xlink:href="#DejaVuSans-20" transform="translate(683.59375 0)"/>
     <use xlink:href="#DejaVuSans-3" transform="translate(767.390625 0)"/>
     <use xlink:href="#DejaVuSans-3" transform="translate(799.171875 0)"/>
     <use xlink:href="#DejaVuSans-cb5" transform="translate(830.953125 0)"/>
     <use xlink:href="#DejaVuSans-3" transform="translate(883.046875 0)"/>
     <use xlink:href="#DejaVuSans-29" transform="translate(914.828125 0)"/>
     <use xlink:href="#DejaVuSans-3" transform="translate(972.34375 0)"/>
     <use xlink:href="#DejaVuSans-47" transform="translate(1004.125 0)"/>
     <use xlink:href="#DejaVuSans-5b" transform="translate(1067.609375 0)"/>
     <use xlink:href="#DejaVuSans-3" transform="translate(1126.796875 0)"/>
     <use xlink:href="#DejaVuSans-3" transform="translate(1158.578125 0)"/>
     <use xlink:href="#DejaVuSans-20" transform="translate(1190.359375 0)"/>
     <use xlink:href="#DejaVuSans-3" transform="translate(1274.15625 0)"/>
     <use xlink:href="#DejaVuSans-3" transform="translate(1305.9375 0)"/>
     <use xlink:href="#DejaVuSans-5a" transform="translate(1337.71875 0)"/>
     <use xlink:href="#DejaVuSans-52" transform="translate(1419.5 0)"/>
     <use xlink:href="#DejaVuSans-55" transform="translate(1480.6875 0)"/>
     <use xlink:href="#DejaVuSans-4e" transform="translate(1521.796875 0)"/>
     <use xlink:href="#DejaVuSans-3" transform="translate(1579.703125 0)"/>
     <use xlink:href="#DejaVuSans-3a" transform="translate(1611.484375 0)"/>
    </g>
   </g>
  </g>
  <g id="axes_2">
   <g id="patch_6">
    <path d="M 58.740781 317.664 
L 415.860781 317.664 
L 415.860781 172.587364 
L 58.740781 172.587364 
z
" style="fill: #fbfaf7"/>
   </g>
   <g id="matplotlib.axis_3">
    <g id="xtick_8">
     <g id="line2d_16">
      <g>
       <use xlink:href="#m7b99872ae7" x="58.740781" y="317.664" style="fill: #8a929b; stroke: #8a929b; stroke-width: 0.8"/>
      </g>
     </g>
     <g id="text_9">
      <!-- 0.10 -->
      <g style="fill: #8a929b" transform="translate(49.834531 330.742125) scale(0.08 -0.08)">
       <defs>
        <path id="DejaVuSans-11" d="M 684 794 
L 1344 794 
L 1344 0 
L 684 0 
L 684 794 
z
" transform="scale(0.015625)"/>
       </defs>
       <use xlink:href="#DejaVuSans-13"/>
       <use xlink:href="#DejaVuSans-11" transform="translate(63.625 0)"/>
       <use xlink:href="#DejaVuSans-14" transform="translate(95.40625 0)"/>
       <use xlink:href="#DejaVuSans-13" transform="translate(159.03125 0)"/>
      </g>
     </g>
    </g>
    <g id="xtick_9">
     <g id="line2d_17">
      <g>
       <use xlink:href="#m7b99872ae7" x="118.260781" y="317.664" style="fill: #8a929b; stroke: #8a929b; stroke-width: 0.8"/>
      </g>
     </g>
     <g id="text_10">
      <!-- 0.15 -->
      <g style="fill: #8a929b" transform="translate(109.354531 330.742125) scale(0.08 -0.08)">
       <defs>
        <path id="DejaVuSans-18" d="M 691 4666 
L 3169 4666 
L 3169 4134 
L 1269 4134 
L 1269 2991 
Q 1406 3038 1543 3061 
Q 1681 3084 1819 3084 
Q 2600 3084 3056 2656 
Q 3513 2228 3513 1497 
Q 3513 744 3044 326 
Q 2575 -91 1722 -91 
Q 1428 -91 1123 -41 
Q 819 9 494 109 
L 494 744 
Q 775 591 1075 516 
Q 1375 441 1709 441 
Q 2250 441 2565 725 
Q 2881 1009 2881 1497 
Q 2881 1984 2565 2268 
Q 2250 2553 1709 2553 
Q 1456 2553 1204 2497 
Q 953 2441 691 2322 
L 691 4666 
z
" transform="scale(0.015625)"/>
       </defs>
       <use xlink:href="#DejaVuSans-13"/>
       <use xlink:href="#DejaVuSans-11" transform="translate(63.625 0)"/>
       <use xlink:href="#DejaVuSans-14" transform="translate(95.40625 0)"/>
       <use xlink:href="#DejaVuSans-18" transform="translate(159.03125 0)"/>
      </g>
     </g>
    </g>
    <g id="xtick_10">
     <g id="line2d_18">
      <g>
       <use xlink:href="#m7b99872ae7" x="177.780781" y="317.664" style="fill: #8a929b; stroke: #8a929b; stroke-width: 0.8"/>
      </g>
     </g>
     <g id="text_11">
      <!-- 0.20 -->
      <g style="fill: #8a929b" transform="translate(168.874531 330.742125) scale(0.08 -0.08)">
       <use xlink:href="#DejaVuSans-13"/>
       <use xlink:href="#DejaVuSans-11" transform="translate(63.625 0)"/>
       <use xlink:href="#DejaVuSans-15" transform="translate(95.40625 0)"/>
       <use xlink:href="#DejaVuSans-13" transform="translate(159.03125 0)"/>
      </g>
     </g>
    </g>
    <g id="xtick_11">
     <g id="line2d_19">
      <g>
       <use xlink:href="#m7b99872ae7" x="237.300781" y="317.664" style="fill: #8a929b; stroke: #8a929b; stroke-width: 0.8"/>
      </g>
     </g>
     <g id="text_12">
      <!-- 0.25 -->
      <g style="fill: #8a929b" transform="translate(228.394531 330.742125) scale(0.08 -0.08)">
       <use xlink:href="#DejaVuSans-13"/>
       <use xlink:href="#DejaVuSans-11" transform="translate(63.625 0)"/>
       <use xlink:href="#DejaVuSans-15" transform="translate(95.40625 0)"/>
       <use xlink:href="#DejaVuSans-18" transform="translate(159.03125 0)"/>
      </g>
     </g>
    </g>
    <g id="xtick_12">
     <g id="line2d_20">
      <g>
       <use xlink:href="#m7b99872ae7" x="296.820781" y="317.664" style="fill: #8a929b; stroke: #8a929b; stroke-width: 0.8"/>
      </g>
     </g>
     <g id="text_13">
      <!-- 0.30 -->
      <g style="fill: #8a929b" transform="translate(287.914531 330.742125) scale(0.08 -0.08)">
       <defs>
        <path id="DejaVuSans-16" d="M 2597 2516 
Q 3050 2419 3304 2112 
Q 3559 1806 3559 1356 
Q 3559 666 3084 287 
Q 2609 -91 1734 -91 
Q 1441 -91 1130 -33 
Q 819 25 488 141 
L 488 750 
Q 750 597 1062 519 
Q 1375 441 1716 441 
Q 2309 441 2620 675 
Q 2931 909 2931 1356 
Q 2931 1769 2642 2001 
Q 2353 2234 1838 2234 
L 1294 2234 
L 1294 2753 
L 1863 2753 
Q 2328 2753 2575 2939 
Q 2822 3125 2822 3475 
Q 2822 3834 2567 4026 
Q 2313 4219 1838 4219 
Q 1578 4219 1281 4162 
Q 984 4106 628 3988 
L 628 4550 
Q 988 4650 1302 4700 
Q 1616 4750 1894 4750 
Q 2613 4750 3031 4423 
Q 3450 4097 3450 3541 
Q 3450 3153 3228 2886 
Q 3006 2619 2597 2516 
z
" transform="scale(0.015625)"/>
       </defs>
       <use xlink:href="#DejaVuSans-13"/>
       <use xlink:href="#DejaVuSans-11" transform="translate(63.625 0)"/>
       <use xlink:href="#DejaVuSans-16" transform="translate(95.40625 0)"/>
       <use xlink:href="#DejaVuSans-13" transform="translate(159.03125 0)"/>
      </g>
     </g>
    </g>
    <g id="xtick_13">
     <g id="line2d_21">
      <g>
       <use xlink:href="#m7b99872ae7" x="356.340781" y="317.664" style="fill: #8a929b; stroke: #8a929b; stroke-width: 0.8"/>
      </g>
     </g>
     <g id="text_14">
      <!-- 0.35 -->
      <g style="fill: #8a929b" transform="translate(347.434531 330.742125) scale(0.08 -0.08)">
       <use xlink:href="#DejaVuSans-13"/>
       <use xlink:href="#DejaVuSans-11" transform="translate(63.625 0)"/>
       <use xlink:href="#DejaVuSans-16" transform="translate(95.40625 0)"/>
       <use xlink:href="#DejaVuSans-18" transform="translate(159.03125 0)"/>
      </g>
     </g>
    </g>
    <g id="xtick_14">
     <g id="line2d_22">
      <g>
       <use xlink:href="#m7b99872ae7" x="415.860781" y="317.664" style="fill: #8a929b; stroke: #8a929b; stroke-width: 0.8"/>
      </g>
     </g>
     <g id="text_15">
      <!-- 0.40 -->
      <g style="fill: #8a929b" transform="translate(406.954531 330.742125) scale(0.08 -0.08)">
       <use xlink:href="#DejaVuSans-13"/>
       <use xlink:href="#DejaVuSans-11" transform="translate(63.625 0)"/>
       <use xlink:href="#DejaVuSans-17" transform="translate(95.40625 0)"/>
       <use xlink:href="#DejaVuSans-13" transform="translate(159.03125 0)"/>
      </g>
     </g>
    </g>
    <g id="text_16">
     <!-- x  (m) -->
     <g style="fill: #1f2933" transform="translate(222.391406 344.261656) scale(0.1 -0.1)">
      <use xlink:href="#DejaVuSans-5b"/>
      <use xlink:href="#DejaVuSans-3" transform="translate(59.1875 0)"/>
      <use xlink:href="#DejaVuSans-3" transform="translate(90.96875 0)"/>
      <use xlink:href="#DejaVuSans-b" transform="translate(122.75 0)"/>
      <use xlink:href="#DejaVuSans-50" transform="translate(161.765625 0)"/>
      <use xlink:href="#DejaVuSans-c" transform="translate(259.171875 0)"/>
     </g>
    </g>
   </g>
   <g id="matplotlib.axis_4">
    <g id="ytick_7">
     <g id="line2d_23">
      <g>
       <use xlink:href="#m7f914b03d6" x="58.740781" y="306.504259" style="fill: #8a929b; stroke: #8a929b; stroke-width: 0.8"/>
      </g>
     </g>
     <g id="text_17">
      <!-- 0 -->
      <g style="fill: #8a929b" transform="translate(46.650781 309.543321) scale(0.08 -0.08)">
       <use xlink:href="#DejaVuSans-13"/>
      </g>
     </g>
    </g>
    <g id="ytick_8">
     <g id="line2d_24">
      <g>
       <use xlink:href="#m7f914b03d6" x="58.740781" y="289.952919" style="fill: #8a929b; stroke: #8a929b; stroke-width: 0.8"/>
      </g>
     </g>
     <g id="text_18">
      <!-- 1000 -->
      <g style="fill: #8a929b" transform="translate(31.380781 292.991981) scale(0.08 -0.08)">
       <use xlink:href="#DejaVuSans-14"/>
       <use xlink:href="#DejaVuSans-13" transform="translate(63.625 0)"/>
       <use xlink:href="#DejaVuSans-13" transform="translate(127.25 0)"/>
       <use xlink:href="#DejaVuSans-13" transform="translate(190.875 0)"/>
      </g>
     </g>
    </g>
    <g id="ytick_9">
     <g id="line2d_25">
      <g>
       <use xlink:href="#m7f914b03d6" x="58.740781" y="273.401578" style="fill: #8a929b; stroke: #8a929b; stroke-width: 0.8"/>
      </g>
     </g>
     <g id="text_19">
      <!-- 2000 -->
      <g style="fill: #8a929b" transform="translate(31.380781 276.440641) scale(0.08 -0.08)">
       <use xlink:href="#DejaVuSans-15"/>
       <use xlink:href="#DejaVuSans-13" transform="translate(63.625 0)"/>
       <use xlink:href="#DejaVuSans-13" transform="translate(127.25 0)"/>
       <use xlink:href="#DejaVuSans-13" transform="translate(190.875 0)"/>
      </g>
     </g>
    </g>
    <g id="ytick_10">
     <g id="line2d_26">
      <g>
       <use xlink:href="#m7f914b03d6" x="58.740781" y="256.850238" style="fill: #8a929b; stroke: #8a929b; stroke-width: 0.8"/>
      </g>
     </g>
     <g id="text_20">
      <!-- 3000 -->
      <g style="fill: #8a929b" transform="translate(31.380781 259.8893) scale(0.08 -0.08)">
       <use xlink:href="#DejaVuSans-16"/>
       <use xlink:href="#DejaVuSans-13" transform="translate(63.625 0)"/>
       <use xlink:href="#DejaVuSans-13" transform="translate(127.25 0)"/>
       <use xlink:href="#DejaVuSans-13" transform="translate(190.875 0)"/>
      </g>
     </g>
    </g>
    <g id="ytick_11">
     <g id="line2d_27">
      <g>
       <use xlink:href="#m7f914b03d6" x="58.740781" y="240.298898" style="fill: #8a929b; stroke: #8a929b; stroke-width: 0.8"/>
      </g>
     </g>
     <g id="text_21">
      <!-- 4000 -->
      <g style="fill: #8a929b" transform="translate(31.380781 243.33796) scale(0.08 -0.08)">
       <use xlink:href="#DejaVuSans-17"/>
       <use xlink:href="#DejaVuSans-13" transform="translate(63.625 0)"/>
       <use xlink:href="#DejaVuSans-13" transform="translate(127.25 0)"/>
       <use xlink:href="#DejaVuSans-13" transform="translate(190.875 0)"/>
      </g>
     </g>
    </g>
    <g id="ytick_12">
     <g id="line2d_28">
      <g>
       <use xlink:href="#m7f914b03d6" x="58.740781" y="223.747557" style="fill: #8a929b; stroke: #8a929b; stroke-width: 0.8"/>
      </g>
     </g>
     <g id="text_22">
      <!-- 5000 -->
      <g style="fill: #8a929b" transform="translate(31.380781 226.78662) scale(0.08 -0.08)">
       <use xlink:href="#DejaVuSans-18"/>
       <use xlink:href="#DejaVuSans-13" transform="translate(63.625 0)"/>
       <use xlink:href="#DejaVuSans-13" transform="translate(127.25 0)"/>
       <use xlink:href="#DejaVuSans-13" transform="translate(190.875 0)"/>
      </g>
     </g>
    </g>
    <g id="ytick_13">
     <g id="line2d_29">
      <g>
       <use xlink:href="#m7f914b03d6" x="58.740781" y="207.196217" style="fill: #8a929b; stroke: #8a929b; stroke-width: 0.8"/>
      </g>
     </g>
     <g id="text_23">
      <!-- 6000 -->
      <g style="fill: #8a929b" transform="translate(31.380781 210.23528) scale(0.08 -0.08)">
       <use xlink:href="#DejaVuSans-19"/>
       <use xlink:href="#DejaVuSans-13" transform="translate(63.625 0)"/>
       <use xlink:href="#DejaVuSans-13" transform="translate(127.25 0)"/>
       <use xlink:href="#DejaVuSans-13" transform="translate(190.875 0)"/>
      </g>
     </g>
    </g>
    <g id="ytick_14">
     <g id="line2d_30">
      <g>
       <use xlink:href="#m7f914b03d6" x="58.740781" y="190.644877" style="fill: #8a929b; stroke: #8a929b; stroke-width: 0.8"/>
      </g>
     </g>
     <g id="text_24">
      <!-- 7000 -->
      <g style="fill: #8a929b" transform="translate(31.380781 193.683939) scale(0.08 -0.08)">
       <defs>
        <path id="DejaVuSans-1a" d="M 525 4666 
L 3525 4666 
L 3525 4397 
L 1831 0 
L 1172 0 
L 2766 4134 
L 525 4134 
L 525 4666 
z
" transform="scale(0.015625)"/>
       </defs>
       <use xlink:href="#DejaVuSans-1a"/>
       <use xlink:href="#DejaVuSans-13" transform="translate(63.625 0)"/>
       <use xlink:href="#DejaVuSans-13" transform="translate(127.25 0)"/>
       <use xlink:href="#DejaVuSans-13" transform="translate(190.875 0)"/>
      </g>
     </g>
    </g>
    <g id="ytick_15">
     <g id="line2d_31">
      <g>
       <use xlink:href="#m7f914b03d6" x="58.740781" y="174.093536" style="fill: #8a929b; stroke: #8a929b; stroke-width: 0.8"/>
      </g>
     </g>
     <g id="text_25">
      <!-- 8000 -->
      <g style="fill: #8a929b" transform="translate(31.380781 177.132599) scale(0.08 -0.08)">
       <use xlink:href="#DejaVuSans-1b"/>
       <use xlink:href="#DejaVuSans-13" transform="translate(63.625 0)"/>
       <use xlink:href="#DejaVuSans-13" transform="translate(127.25 0)"/>
       <use xlink:href="#DejaVuSans-13" transform="translate(190.875 0)"/>
      </g>
     </g>
    </g>
    <g id="text_26">
     <!-- E  (N/C) -->
     <g style="fill: #1f2933" transform="translate(24.978438 264.281151) rotate(-90) scale(0.1 -0.1)">
      <use xlink:href="#DejaVuSans-28"/>
      <use xlink:href="#DejaVuSans-3" transform="translate(63.1875 0)"/>
      <use xlink:href="#DejaVuSans-3" transform="translate(94.96875 0)"/>
      <use xlink:href="#DejaVuSans-b" transform="translate(126.75 0)"/>
      <use xlink:href="#DejaVuSans-31" transform="translate(165.765625 0)"/>
      <use xlink:href="#DejaVuSans-12" transform="translate(240.578125 0)"/>
      <use xlink:href="#DejaVuSans-26" transform="translate(274.265625 0)"/>
      <use xlink:href="#DejaVuSans-c" transform="translate(344.09375 0)"/>
     </g>
    </g>
   </g>
   <g id="line2d_32">
    <path d="M 58.740781 306.504259 
L 415.860781 306.504259 
" clip-path="url(#pd357588343)" style="fill: none; stroke: #d8d4c8; stroke-linecap: square"/>
   </g>
   <g id="line2d_33">
    <path d="M 58.740781 306.504259 
L 63.223459 301.104384 
L 67.706137 296.082711 
L 72.188815 291.40085 
L 76.671493 287.025438 
L 81.15417 282.927341 
L 85.636848 279.081004 
L 90.119526 275.463919 
L 96.09643 270.963682 
L 102.073334 266.79475 
L 108.050237 262.921838 
L 114.027141 259.314496 
L 120.004045 255.946315 
L 125.980949 252.794274 
L 133.452078 249.127697 
L 140.923208 245.733391 
L 148.394338 242.582114 
L 155.865467 239.648666 
L 164.830823 236.385531 
L 173.796179 233.372338 
L 182.761534 230.581429 
L 193.221116 227.574852 
L 203.680698 224.806531 
L 215.634505 221.899723 
L 227.588313 219.23431 
L 241.036346 216.488495 
L 254.48438 213.977291 
L 269.426639 211.42731 
L 284.368898 209.098425 
L 300.805384 206.759262 
L 318.736095 204.43882 
L 338.161032 202.160679 
L 359.080195 199.94331 
L 381.493585 197.800579 
L 405.4012 195.742336 
L 415.860781 194.906847 
L 415.860781 194.906847 
" clip-path="url(#pd357588343)" style="fill: none; stroke: #2f6f4f; stroke-width: 2.2; stroke-linecap: square"/>
   </g>
   <g id="patch_7">
    <path d="M 58.740781 317.664 
L 58.740781 172.587364 
" style="fill: none; stroke: #d8d4c8; stroke-width: 0.8; stroke-linejoin: miter; stroke-linecap: square"/>
   </g>
   <g id="patch_8">
    <path d="M 58.740781 317.664 
L 415.860781 317.664 
" style="fill: none; stroke: #d8d4c8; stroke-width: 0.8; stroke-linejoin: miter; stroke-linecap: square"/>
   </g>
   <g id="text_27">
    <g id="patch_9">
     <path d="M 288.155181 222.743147 
L 368.183556 222.743147 
Q 370.591556 222.743147 370.591556 220.335147 
L 370.591556 211.734475 
Q 370.591556 209.326475 368.183556 209.326475 
L 288.155181 209.326475 
Q 285.747181 209.326475 285.747181 211.734475 
L 285.747181 220.335147 
Q 285.747181 222.743147 288.155181 222.743147 
z
" style="fill: #fbfaf7; opacity: 0.92; stroke: #d8d4c8; stroke-width: 0.6; stroke-linejoin: miter"/>
    </g>
    <!-- slope of W  =  F(x) -->
    <g style="fill: #1f2933" transform="translate(288.155181 218.269131) scale(0.086 -0.086)">
     <defs>
      <path id="DejaVuSans-4f" d="M 603 4863 
L 1178 4863 
L 1178 0 
L 603 0 
L 603 4863 
z
" transform="scale(0.015625)"/>
      <path id="DejaVuSans-53" d="M 1159 525 
L 1159 -1331 
L 581 -1331 
L 581 3500 
L 1159 3500 
L 1159 2969 
Q 1341 3281 1617 3432 
Q 1894 3584 2278 3584 
Q 2916 3584 3314 3078 
Q 3713 2572 3713 1747 
Q 3713 922 3314 415 
Q 2916 -91 2278 -91 
Q 1894 -91 1617 61 
Q 1341 213 1159 525 
z
M 3116 1747 
Q 3116 2381 2855 2742 
Q 2594 3103 2138 3103 
Q 1681 3103 1420 2742 
Q 1159 2381 1159 1747 
Q 1159 1113 1420 752 
Q 1681 391 2138 391 
Q 2594 391 2855 752 
Q 3116 1113 3116 1747 
z
" transform="scale(0.015625)"/>
      <path id="DejaVuSans-49" d="M 2375 4863 
L 2375 4384 
L 1825 4384 
Q 1516 4384 1395 4259 
Q 1275 4134 1275 3809 
L 1275 3500 
L 2222 3500 
L 2222 3053 
L 1275 3053 
L 1275 0 
L 697 0 
L 697 3053 
L 147 3053 
L 147 3500 
L 697 3500 
L 697 3744 
Q 697 4328 969 4595 
Q 1241 4863 1831 4863 
L 2375 4863 
z
" transform="scale(0.015625)"/>
     </defs>
     <use xlink:href="#DejaVuSans-56"/>
     <use xlink:href="#DejaVuSans-4f" transform="translate(52.09375 0)"/>
     <use xlink:href="#DejaVuSans-52" transform="translate(79.875 0)"/>
     <use xlink:href="#DejaVuSans-53" transform="translate(141.0625 0)"/>
     <use xlink:href="#DejaVuSans-48" transform="translate(204.546875 0)"/>
     <use xlink:href="#DejaVuSans-3" transform="translate(266.078125 0)"/>
     <use xlink:href="#DejaVuSans-52" transform="translate(297.859375 0)"/>
     <use xlink:href="#DejaVuSans-49" transform="translate(359.046875 0)"/>
     <use xlink:href="#DejaVuSans-3" transform="translate(394.25 0)"/>
     <use xlink:href="#DejaVuSans-3a" transform="translate(426.03125 0)"/>
     <use xlink:href="#DejaVuSans-3" transform="translate(524.90625 0)"/>
     <use xlink:href="#DejaVuSans-3" transform="translate(556.6875 0)"/>
     <use xlink:href="#DejaVuSans-20" transform="translate(588.46875 0)"/>
     <use xlink:href="#DejaVuSans-3" transform="translate(672.265625 0)"/>
     <use xlink:href="#DejaVuSans-3" transform="translate(704.046875 0)"/>
     <use xlink:href="#DejaVuSans-29" transform="translate(735.828125 0)"/>
     <use xlink:href="#DejaVuSans-b" transform="translate(793.34375 0)"/>
     <use xlink:href="#DejaVuSans-5b" transform="translate(832.359375 0)"/>
     <use xlink:href="#DejaVuSans-c" transform="translate(891.546875 0)"/>
    </g>
   </g>
  </g>
 </g>
 <defs>
  <clipPath id="p4df5da2e22">
   <rect x="58.740781" y="7.2" width="357.12" height="145.076636"/>
  </clipPath>
  <clipPath id="pd357588343">
   <rect x="58.740781" y="172.587364" width="357.12" height="145.076636"/>
  </clipPath>
 </defs>
</svg>
