<?xml version="1.0" encoding="utf-8" standalone="no"?>
<!DOCTYPE svg PUBLIC "-//W3C//DTD SVG 1.1//EN"
  "http://www.w3.org/Graphics/SVG/1.1/DTD/svg11.dtd">
<svg xmlns:xlink="http://www.w3.org/1999/xlink" width="411.664672pt" height="355.813875pt" viewBox="0 0 411.664672 355.813875" xmlns="http://www.w3.org/2000/svg" version="1.1">
 <metadata>
  <rdf:RDF xmlns:dc="http://purl.org/dc/elements/1.1/" xmlns:cc="http://creativecommons.org/ns#" xmlns:rdf="http://www.w3.org/1999/02/22-rdf-syntax-ns#">
   <cc:Work>
    <dc:type rdf:resource="http://purl.org/dc/dcmitype/StillImage"/>
    <dc:date>2026-06-26T17:09:47.525917</dc:date>
    <dc:format>image/svg+xml</dc:format>
    <dc:creator>
     <cc:Agent>
      <dc:title>Matplotlib v3.11.0, https://matplotlib.org/</dc:title>
     </cc:Agent>
    </dc:creator>
   </cc:Work>
  </rdf:RDF>
 </metadata>
 <defs>
  <style type="text/css">*{stroke-linejoin: round; stroke-linecap: butt}</style>
 </defs>
 <g id="figure_1">
  <g id="patch_1">
   <path d="M 0 355.813875 
L 411.664672 355.813875 
L 411.664672 0 
L 0 0 
z
" style="fill: #fbfaf7"/>
  </g>
  <g id="axes_1">
   <g id="patch_2">
    <path d="M 46.013281 154.226511 
L 403.133281 154.226511 
L 403.133281 9.149875 
L 46.013281 9.149875 
z
" style="fill: #fbfaf7"/>
   </g>
   <g id="FillBetweenPolyCollection_1">
    <defs>
     <path id="md647e3bf24" d="M 46.013281 -212.747106 
L 46.013281 -212.747106 
L 47.507507 -212.749059 
L 49.001733 -212.75492 
L 50.495959 -212.764689 
L 51.990185 -212.778365 
L 53.484411 -212.795948 
L 54.978637 -212.817439 
L 56.472863 -212.842837 
L 57.967089 -212.872143 
L 59.461315 -212.905356 
L 60.955541 -212.942476 
L 62.449767 -212.983504 
L 63.943993 -213.028439 
L 65.438218 -213.077281 
L 66.932444 -213.130031 
L 68.42667 -213.186689 
L 69.920896 -213.247253 
L 71.415122 -213.311726 
L 72.909348 -213.380105 
L 74.403574 -213.452392 
L 75.8978 -213.528586 
L 77.392026 -213.608688 
L 78.886252 -213.692697 
L 80.380478 -213.780614 
L 81.874704 -213.872438 
L 83.36893 -213.968169 
L 84.863156 -214.067808 
L 86.357382 -214.171354 
L 87.851608 -214.278808 
L 89.345834 -214.390169 
L 90.840059 -214.505437 
L 92.334285 -214.624613 
L 93.828511 -214.747697 
L 95.322737 -214.874687 
L 96.816963 -215.005585 
L 98.311189 -215.140391 
L 99.805415 -215.279103 
L 101.299641 -215.421724 
L 102.793867 -215.568251 
L 104.288093 -215.718686 
L 105.782319 -215.873029 
L 107.276545 -216.031279 
L 108.770771 -216.193436 
L 110.264997 -216.359501 
L 111.759223 -216.529473 
L 113.253449 -216.703352 
L 114.747675 -216.881139 
L 116.2419 -217.062833 
L 117.736126 -217.248435 
L 119.230352 -217.437944 
L 120.724578 -217.631361 
L 122.218804 -217.828685 
L 123.71303 -218.029916 
L 125.207256 -218.235055 
L 126.701482 -218.444101 
L 128.195708 -218.657054 
L 129.689934 -218.873915 
L 131.18416 -219.094683 
L 132.678386 -219.319359 
L 134.172612 -219.547942 
L 135.666838 -219.780433 
L 137.161064 -220.016831 
L 138.65529 -220.257136 
L 140.149516 -220.501349 
L 141.643742 -220.749469 
L 143.137967 -221.001497 
L 144.632193 -221.257432 
L 146.126419 -221.517274 
L 147.620645 -221.781024 
L 149.114871 -222.048681 
L 150.609097 -222.320245 
L 152.103323 -222.595717 
L 153.597549 -222.875097 
L 155.091775 -223.158384 
L 156.586001 -223.445578 
L 158.080227 -223.736679 
L 159.574453 -224.031688 
L 161.068679 -224.330605 
L 162.562905 -224.633429 
L 164.057131 -224.94016 
L 165.551357 -225.250798 
L 167.045583 -225.565345 
L 168.539808 -225.883798 
L 170.034034 -226.206159 
L 171.52826 -226.532427 
L 173.022486 -226.862603 
L 174.516712 -227.196686 
L 176.010938 -227.534676 
L 177.505164 -227.876574 
L 178.99939 -228.222379 
L 180.493616 -228.572092 
L 181.987842 -228.925712 
L 183.482068 -229.283239 
L 184.976294 -229.644674 
L 186.47052 -230.010017 
L 187.964746 -230.379266 
L 189.458972 -230.752423 
L 190.953198 -231.129488 
L 192.447424 -231.51046 
L 193.941649 -231.895339 
L 195.435875 -232.284126 
L 196.930101 -232.67682 
L 198.424327 -233.073421 
L 199.918553 -233.47393 
L 201.412779 -233.878347 
L 202.907005 -234.28667 
L 204.401231 -234.698901 
L 205.895457 -235.11504 
L 207.389683 -235.535086 
L 208.883909 -235.959039 
L 210.378135 -236.3869 
L 211.872361 -236.818668 
L 213.366587 -237.254344 
L 214.860813 -237.693927 
L 216.355039 -238.137417 
L 217.849265 -238.584815 
L 219.34349 -239.03612 
L 220.837716 -239.491332 
L 222.331942 -239.950452 
L 223.826168 -240.41348 
L 225.320394 -240.880414 
L 226.81462 -241.351257 
L 228.308846 -241.826006 
L 229.803072 -242.304663 
L 231.297298 -242.787228 
L 232.791524 -243.273699 
L 234.28575 -243.764079 
L 235.779976 -244.258365 
L 237.274202 -244.756559 
L 238.768428 -245.258661 
L 240.262654 -245.764669 
L 241.75688 -246.274586 
L 243.251106 -246.788409 
L 244.745331 -247.30614 
L 246.239557 -247.827779 
L 247.733783 -248.353325 
L 249.228009 -248.882778 
L 250.722235 -249.416139 
L 252.216461 -249.953407 
L 253.710687 -250.494582 
L 255.204913 -251.039665 
L 256.699139 -251.588655 
L 258.193365 -252.141553 
L 259.687591 -252.698358 
L 261.181817 -253.25907 
L 262.676043 -253.82369 
L 264.170269 -254.392218 
L 265.664495 -254.964652 
L 267.158721 -255.540994 
L 268.652947 -256.121244 
L 270.147172 -256.705401 
L 271.641398 -257.293465 
L 273.135624 -257.885437 
L 274.62985 -258.481316 
L 276.124076 -259.081102 
L 277.618302 -259.684796 
L 279.112528 -260.292398 
L 280.606754 -260.903906 
L 282.10098 -261.519322 
L 283.595206 -262.138646 
L 285.089432 -262.761877 
L 286.583658 -263.389015 
L 288.077884 -264.020061 
L 289.57211 -264.655014 
L 291.066336 -265.293875 
L 292.560562 -265.936643 
L 294.054788 -266.583318 
L 295.549013 -267.233901 
L 297.043239 -267.888391 
L 298.537465 -268.546788 
L 300.031691 -269.209093 
L 301.525917 -269.875306 
L 303.020143 -270.545426 
L 304.514369 -271.219453 
L 306.008595 -271.897387 
L 307.502821 -272.579229 
L 308.997047 -273.264979 
L 310.491273 -273.954636 
L 311.985499 -274.6482 
L 313.479725 -275.345671 
L 314.973951 -276.04705 
L 316.468177 -276.752337 
L 317.962403 -277.461531 
L 319.456629 -278.174632 
L 320.950854 -278.891641 
L 322.44508 -279.612557 
L 323.939306 -280.33738 
L 325.433532 -281.066111 
L 326.927758 -281.798749 
L 328.421984 -282.535295 
L 329.91621 -283.275748 
L 331.410436 -284.020108 
L 332.904662 -284.768376 
L 334.398888 -285.520551 
L 335.893114 -286.276634 
L 337.38734 -287.036624 
L 338.881566 -287.800522 
L 340.375792 -288.568327 
L 341.870018 -289.340039 
L 343.364244 -290.115659 
L 344.85847 -290.895186 
L 346.352695 -291.67862 
L 347.846921 -292.465962 
L 349.341147 -293.257211 
L 350.835373 -294.052368 
L 352.329599 -294.851432 
L 353.823825 -295.654404 
L 355.318051 -296.461283 
L 356.812277 -297.272069 
L 358.306503 -298.086763 
L 359.800729 -298.905364 
L 361.294955 -299.727872 
L 362.789181 -300.554288 
L 364.283407 -301.384612 
L 365.777633 -302.218842 
L 367.271859 -303.056981 
L 368.766085 -303.899026 
L 370.260311 -304.744979 
L 371.754536 -305.59484 
L 373.248762 -306.448607 
L 374.742988 -307.306282 
L 376.237214 -308.167865 
L 377.73144 -309.033355 
L 379.225666 -309.902752 
L 380.719892 -310.776057 
L 382.214118 -311.653269 
L 383.708344 -312.534389 
L 385.20257 -313.419416 
L 386.696796 -314.30835 
L 388.191022 -315.201192 
L 389.685248 -316.097941 
L 391.179474 -316.998598 
L 392.6737 -317.903162 
L 394.167926 -318.811634 
L 395.662152 -319.724012 
L 397.156377 -320.640299 
L 398.650603 -321.560492 
L 400.144829 -322.484593 
L 401.639055 -323.412602 
L 403.133281 -324.344518 
L 403.133281 -212.747106 
L 403.133281 -212.747106 
L 401.639055 -212.747106 
L 400.144829 -212.747106 
L 398.650603 -212.747106 
L 397.156377 -212.747106 
L 395.662152 -212.747106 
L 394.167926 -212.747106 
L 392.6737 -212.747106 
L 391.179474 -212.747106 
L 389.685248 -212.747106 
L 388.191022 -212.747106 
L 386.696796 -212.747106 
L 385.20257 -212.747106 
L 383.708344 -212.747106 
L 382.214118 -212.747106 
L 380.719892 -212.747106 
L 379.225666 -212.747106 
L 377.73144 -212.747106 
L 376.237214 -212.747106 
L 374.742988 -212.747106 
L 373.248762 -212.747106 
L 371.754536 -212.747106 
L 370.260311 -212.747106 
L 368.766085 -212.747106 
L 367.271859 -212.747106 
L 365.777633 -212.747106 
L 364.283407 -212.747106 
L 362.789181 -212.747106 
L 361.294955 -212.747106 
L 359.800729 -212.747106 
L 358.306503 -212.747106 
L 356.812277 -212.747106 
L 355.318051 -212.747106 
L 353.823825 -212.747106 
L 352.329599 -212.747106 
L 350.835373 -212.747106 
L 349.341147 -212.747106 
L 347.846921 -212.747106 
L 346.352695 -212.747106 
L 344.85847 -212.747106 
L 343.364244 -212.747106 
L 341.870018 -212.747106 
L 340.375792 -212.747106 
L 338.881566 -212.747106 
L 337.38734 -212.747106 
L 335.893114 -212.747106 
L 334.398888 -212.747106 
L 332.904662 -212.747106 
L 331.410436 -212.747106 
L 329.91621 -212.747106 
L 328.421984 -212.747106 
L 326.927758 -212.747106 
L 325.433532 -212.747106 
L 323.939306 -212.747106 
L 322.44508 -212.747106 
L 320.950854 -212.747106 
L 319.456629 -212.747106 
L 317.962403 -212.747106 
L 316.468177 -212.747106 
L 314.973951 -212.747106 
L 313.479725 -212.747106 
L 311.985499 -212.747106 
L 310.491273 -212.747106 
L 308.997047 -212.747106 
L 307.502821 -212.747106 
L 306.008595 -212.747106 
L 304.514369 -212.747106 
L 303.020143 -212.747106 
L 301.525917 -212.747106 
L 300.031691 -212.747106 
L 298.537465 -212.747106 
L 297.043239 -212.747106 
L 295.549013 -212.747106 
L 294.054788 -212.747106 
L 292.560562 -212.747106 
L 291.066336 -212.747106 
L 289.57211 -212.747106 
L 288.077884 -212.747106 
L 286.583658 -212.747106 
L 285.089432 -212.747106 
L 283.595206 -212.747106 
L 282.10098 -212.747106 
L 280.606754 -212.747106 
L 279.112528 -212.747106 
L 277.618302 -212.747106 
L 276.124076 -212.747106 
L 274.62985 -212.747106 
L 273.135624 -212.747106 
L 271.641398 -212.747106 
L 270.147172 -212.747106 
L 268.652947 -212.747106 
L 267.158721 -212.747106 
L 265.664495 -212.747106 
L 264.170269 -212.747106 
L 262.676043 -212.747106 
L 261.181817 -212.747106 
L 259.687591 -212.747106 
L 258.193365 -212.747106 
L 256.699139 -212.747106 
L 255.204913 -212.747106 
L 253.710687 -212.747106 
L 252.216461 -212.747106 
L 250.722235 -212.747106 
L 249.228009 -212.747106 
L 247.733783 -212.747106 
L 246.239557 -212.747106 
L 244.745331 -212.747106 
L 243.251106 -212.747106 
L 241.75688 -212.747106 
L 240.262654 -212.747106 
L 238.768428 -212.747106 
L 237.274202 -212.747106 
L 235.779976 -212.747106 
L 234.28575 -212.747106 
L 232.791524 -212.747106 
L 231.297298 -212.747106 
L 229.803072 -212.747106 
L 228.308846 -212.747106 
L 226.81462 -212.747106 
L 225.320394 -212.747106 
L 223.826168 -212.747106 
L 222.331942 -212.747106 
L 220.837716 -212.747106 
L 219.34349 -212.747106 
L 217.849265 -212.747106 
L 216.355039 -212.747106 
L 214.860813 -212.747106 
L 213.366587 -212.747106 
L 211.872361 -212.747106 
L 210.378135 -212.747106 
L 208.883909 -212.747106 
L 207.389683 -212.747106 
L 205.895457 -212.747106 
L 204.401231 -212.747106 
L 202.907005 -212.747106 
L 201.412779 -212.747106 
L 199.918553 -212.747106 
L 198.424327 -212.747106 
L 196.930101 -212.747106 
L 195.435875 -212.747106 
L 193.941649 -212.747106 
L 192.447424 -212.747106 
L 190.953198 -212.747106 
L 189.458972 -212.747106 
L 187.964746 -212.747106 
L 186.47052 -212.747106 
L 184.976294 -212.747106 
L 183.482068 -212.747106 
L 181.987842 -212.747106 
L 180.493616 -212.747106 
L 178.99939 -212.747106 
L 177.505164 -212.747106 
L 176.010938 -212.747106 
L 174.516712 -212.747106 
L 173.022486 -212.747106 
L 171.52826 -212.747106 
L 170.034034 -212.747106 
L 168.539808 -212.747106 
L 167.045583 -212.747106 
L 165.551357 -212.747106 
L 164.057131 -212.747106 
L 162.562905 -212.747106 
L 161.068679 -212.747106 
L 159.574453 -212.747106 
L 158.080227 -212.747106 
L 156.586001 -212.747106 
L 155.091775 -212.747106 
L 153.597549 -212.747106 
L 152.103323 -212.747106 
L 150.609097 -212.747106 
L 149.114871 -212.747106 
L 147.620645 -212.747106 
L 146.126419 -212.747106 
L 144.632193 -212.747106 
L 143.137967 -212.747106 
L 141.643742 -212.747106 
L 140.149516 -212.747106 
L 138.65529 -212.747106 
L 137.161064 -212.747106 
L 135.666838 -212.747106 
L 134.172612 -212.747106 
L 132.678386 -212.747106 
L 131.18416 -212.747106 
L 129.689934 -212.747106 
L 128.195708 -212.747106 
L 126.701482 -212.747106 
L 125.207256 -212.747106 
L 123.71303 -212.747106 
L 122.218804 -212.747106 
L 120.724578 -212.747106 
L 119.230352 -212.747106 
L 117.736126 -212.747106 
L 116.2419 -212.747106 
L 114.747675 -212.747106 
L 113.253449 -212.747106 
L 111.759223 -212.747106 
L 110.264997 -212.747106 
L 108.770771 -212.747106 
L 107.276545 -212.747106 
L 105.782319 -212.747106 
L 104.288093 -212.747106 
L 102.793867 -212.747106 
L 101.299641 -212.747106 
L 99.805415 -212.747106 
L 98.311189 -212.747106 
L 96.816963 -212.747106 
L 95.322737 -212.747106 
L 93.828511 -212.747106 
L 92.334285 -212.747106 
L 90.840059 -212.747106 
L 89.345834 -212.747106 
L 87.851608 -212.747106 
L 86.357382 -212.747106 
L 84.863156 -212.747106 
L 83.36893 -212.747106 
L 81.874704 -212.747106 
L 80.380478 -212.747106 
L 78.886252 -212.747106 
L 77.392026 -212.747106 
L 75.8978 -212.747106 
L 74.403574 -212.747106 
L 72.909348 -212.747106 
L 71.415122 -212.747106 
L 69.920896 -212.747106 
L 68.42667 -212.747106 
L 66.932444 -212.747106 
L 65.438218 -212.747106 
L 63.943993 -212.747106 
L 62.449767 -212.747106 
L 60.955541 -212.747106 
L 59.461315 -212.747106 
L 57.967089 -212.747106 
L 56.472863 -212.747106 
L 54.978637 -212.747106 
L 53.484411 -212.747106 
L 51.990185 -212.747106 
L 50.495959 -212.747106 
L 49.001733 -212.747106 
L 47.507507 -212.747106 
L 46.013281 -212.747106 
z
"/>
    </defs>
    <g clip-path="url(#pf8874fbd2f)">
     <use xlink:href="#md647e3bf24" x="0" y="355.813875" style="fill: #2f6f4f; fill-opacity: 0.16"/>
    </g>
   </g>
   <g id="matplotlib.axis_1">
    <g id="xtick_1">
     <g id="line2d_1">
      <defs>
       <path id="mbba2de1772" d="M 0 0 
L 0 3.5 
" style="stroke: #8a929b; stroke-width: 0.8"/>
      </defs>
      <g>
       <use xlink:href="#mbba2de1772" x="46.013281" y="154.226511" style="fill: #8a929b; stroke: #8a929b; stroke-width: 0.8"/>
      </g>
     </g>
    </g>
    <g id="xtick_2">
     <g id="line2d_2">
      <g>
       <use xlink:href="#mbba2de1772" x="96.311873" y="154.226511" style="fill: #8a929b; stroke: #8a929b; stroke-width: 0.8"/>
      </g>
     </g>
    </g>
    <g id="xtick_3">
     <g id="line2d_3">
      <g>
       <use xlink:href="#mbba2de1772" x="146.610464" y="154.226511" style="fill: #8a929b; stroke: #8a929b; stroke-width: 0.8"/>
      </g>
     </g>
    </g>
    <g id="xtick_4">
     <g id="line2d_4">
      <g>
       <use xlink:href="#mbba2de1772" x="196.909056" y="154.226511" style="fill: #8a929b; stroke: #8a929b; stroke-width: 0.8"/>
      </g>
     </g>
    </g>
    <g id="xtick_5">
     <g id="line2d_5">
      <g>
       <use xlink:href="#mbba2de1772" x="247.207647" y="154.226511" style="fill: #8a929b; stroke: #8a929b; stroke-width: 0.8"/>
      </g>
     </g>
    </g>
    <g id="xtick_6">
     <g id="line2d_6">
      <g>
       <use xlink:href="#mbba2de1772" x="297.506239" y="154.226511" style="fill: #8a929b; stroke: #8a929b; stroke-width: 0.8"/>
      </g>
     </g>
    </g>
    <g id="xtick_7">
     <g id="line2d_7">
      <g>
       <use xlink:href="#mbba2de1772" x="347.804831" y="154.226511" style="fill: #8a929b; stroke: #8a929b; stroke-width: 0.8"/>
      </g>
     </g>
    </g>
    <g id="xtick_8">
     <g id="line2d_8">
      <g>
       <use xlink:href="#mbba2de1772" x="398.103422" y="154.226511" style="fill: #8a929b; stroke: #8a929b; stroke-width: 0.8"/>
      </g>
     </g>
    </g>
   </g>
   <g id="matplotlib.axis_2">
    <g id="ytick_1">
     <g id="line2d_9">
      <defs>
       <path id="m85e9f12c37" d="M 0 0 
L -3.5 0 
" style="stroke: #8a929b; stroke-width: 0.8"/>
      </defs>
      <g>
       <use xlink:href="#m85e9f12c37" x="46.013281" y="143.06677" style="fill: #8a929b; stroke: #8a929b; stroke-width: 0.8"/>
      </g>
     </g>
     <g id="text_1">
      <!-- 0.0 -->
      <g style="fill: #8a929b" transform="translate(26.290781 146.105832) scale(0.08 -0.08)">
       <defs>
        <path id="DejaVuSans-13" d="M 2034 4250 
Q 1547 4250 1301 3770 
Q 1056 3291 1056 2328 
Q 1056 1369 1301 889 
Q 1547 409 2034 409 
Q 2525 409 2770 889 
Q 3016 1369 3016 2328 
Q 3016 3291 2770 3770 
Q 2525 4250 2034 4250 
z
M 2034 4750 
Q 2819 4750 3233 4129 
Q 3647 3509 3647 2328 
Q 3647 1150 3233 529 
Q 2819 -91 2034 -91 
Q 1250 -91 836 529 
Q 422 1150 422 2328 
Q 422 3509 836 4129 
Q 1250 4750 2034 4750 
z
" transform="scale(0.015625)"/>
        <path id="DejaVuSans-11" d="M 684 794 
L 1344 794 
L 1344 0 
L 684 0 
L 684 794 
z
" transform="scale(0.015625)"/>
       </defs>
       <use xlink:href="#DejaVuSans-13"/>
       <use xlink:href="#DejaVuSans-11" transform="translate(63.625 0)"/>
       <use xlink:href="#DejaVuSans-13" transform="translate(95.40625 0)"/>
      </g>
     </g>
    </g>
    <g id="ytick_2">
     <g id="line2d_10">
      <g>
       <use xlink:href="#m85e9f12c37" x="46.013281" y="126.463306" style="fill: #8a929b; stroke: #8a929b; stroke-width: 0.8"/>
      </g>
     </g>
     <g id="text_2">
      <!-- 0.5 -->
      <g style="fill: #8a929b" transform="translate(26.290781 129.502369) scale(0.08 -0.08)">
       <defs>
        <path id="DejaVuSans-18" d="M 691 4666 
L 3169 4666 
L 3169 4134 
L 1269 4134 
L 1269 2991 
Q 1406 3038 1543 3061 
Q 1681 3084 1819 3084 
Q 2600 3084 3056 2656 
Q 3513 2228 3513 1497 
Q 3513 744 3044 326 
Q 2575 -91 1722 -91 
Q 1428 -91 1123 -41 
Q 819 9 494 109 
L 494 744 
Q 775 591 1075 516 
Q 1375 441 1709 441 
Q 2250 441 2565 725 
Q 2881 1009 2881 1497 
Q 2881 1984 2565 2268 
Q 2250 2553 1709 2553 
Q 1456 2553 1204 2497 
Q 953 2441 691 2322 
L 691 4666 
z
" transform="scale(0.015625)"/>
       </defs>
       <use xlink:href="#DejaVuSans-13"/>
       <use xlink:href="#DejaVuSans-11" transform="translate(63.625 0)"/>
       <use xlink:href="#DejaVuSans-18" transform="translate(95.40625 0)"/>
      </g>
     </g>
    </g>
    <g id="ytick_3">
     <g id="line2d_11">
      <g>
       <use xlink:href="#m85e9f12c37" x="46.013281" y="109.859843" style="fill: #8a929b; stroke: #8a929b; stroke-width: 0.8"/>
      </g>
     </g>
     <g id="text_3">
      <!-- 1.0 -->
      <g style="fill: #8a929b" transform="translate(26.290781 112.898905) scale(0.08 -0.08)">
       <defs>
        <path id="DejaVuSans-14" d="M 794 531 
L 1825 531 
L 1825 4091 
L 703 3866 
L 703 4441 
L 1819 4666 
L 2450 4666 
L 2450 531 
L 3481 531 
L 3481 0 
L 794 0 
L 794 531 
z
" transform="scale(0.015625)"/>
       </defs>
       <use xlink:href="#DejaVuSans-14"/>
       <use xlink:href="#DejaVuSans-11" transform="translate(63.625 0)"/>
       <use xlink:href="#DejaVuSans-13" transform="translate(95.40625 0)"/>
      </g>
     </g>
    </g>
    <g id="ytick_4">
     <g id="line2d_12">
      <g>
       <use xlink:href="#m85e9f12c37" x="46.013281" y="93.256379" style="fill: #8a929b; stroke: #8a929b; stroke-width: 0.8"/>
      </g>
     </g>
     <g id="text_4">
      <!-- 1.5 -->
      <g style="fill: #8a929b" transform="translate(26.290781 96.295442) scale(0.08 -0.08)">
       <use xlink:href="#DejaVuSans-14"/>
       <use xlink:href="#DejaVuSans-11" transform="translate(63.625 0)"/>
       <use xlink:href="#DejaVuSans-18" transform="translate(95.40625 0)"/>
      </g>
     </g>
    </g>
    <g id="ytick_5">
     <g id="line2d_13">
      <g>
       <use xlink:href="#m85e9f12c37" x="46.013281" y="76.652916" style="fill: #8a929b; stroke: #8a929b; stroke-width: 0.8"/>
      </g>
     </g>
     <g id="text_5">
      <!-- 2.0 -->
      <g style="fill: #8a929b" transform="translate(26.290781 79.691979) scale(0.08 -0.08)">
       <defs>
        <path id="DejaVuSans-15" d="M 1228 531 
L 3431 531 
L 3431 0 
L 469 0 
L 469 531 
Q 828 903 1448 1529 
Q 2069 2156 2228 2338 
Q 2531 2678 2651 2914 
Q 2772 3150 2772 3378 
Q 2772 3750 2511 3984 
Q 2250 4219 1831 4219 
Q 1534 4219 1204 4116 
Q 875 4013 500 3803 
L 500 4441 
Q 881 4594 1212 4672 
Q 1544 4750 1819 4750 
Q 2544 4750 2975 4387 
Q 3406 4025 3406 3419 
Q 3406 3131 3298 2873 
Q 3191 2616 2906 2266 
Q 2828 2175 2409 1742 
Q 1991 1309 1228 531 
z
" transform="scale(0.015625)"/>
       </defs>
       <use xlink:href="#DejaVuSans-15"/>
       <use xlink:href="#DejaVuSans-11" transform="translate(63.625 0)"/>
       <use xlink:href="#DejaVuSans-13" transform="translate(95.40625 0)"/>
      </g>
     </g>
    </g>
    <g id="ytick_6">
     <g id="line2d_14">
      <g>
       <use xlink:href="#m85e9f12c37" x="46.013281" y="60.049453" style="fill: #8a929b; stroke: #8a929b; stroke-width: 0.8"/>
      </g>
     </g>
     <g id="text_6">
      <!-- 2.5 -->
      <g style="fill: #8a929b" transform="translate(26.290781 63.088515) scale(0.08 -0.08)">
       <use xlink:href="#DejaVuSans-15"/>
       <use xlink:href="#DejaVuSans-11" transform="translate(63.625 0)"/>
       <use xlink:href="#DejaVuSans-18" transform="translate(95.40625 0)"/>
      </g>
     </g>
    </g>
    <g id="ytick_7">
     <g id="line2d_15">
      <g>
       <use xlink:href="#m85e9f12c37" x="46.013281" y="43.445989" style="fill: #8a929b; stroke: #8a929b; stroke-width: 0.8"/>
      </g>
     </g>
     <g id="text_7">
      <!-- 3.0 -->
      <g style="fill: #8a929b" transform="translate(26.290781 46.485052) scale(0.08 -0.08)">
       <defs>
        <path id="DejaVuSans-16" d="M 2597 2516 
Q 3050 2419 3304 2112 
Q 3559 1806 3559 1356 
Q 3559 666 3084 287 
Q 2609 -91 1734 -91 
Q 1441 -91 1130 -33 
Q 819 25 488 141 
L 488 750 
Q 750 597 1062 519 
Q 1375 441 1716 441 
Q 2309 441 2620 675 
Q 2931 909 2931 1356 
Q 2931 1769 2642 2001 
Q 2353 2234 1838 2234 
L 1294 2234 
L 1294 2753 
L 1863 2753 
Q 2328 2753 2575 2939 
Q 2822 3125 2822 3475 
Q 2822 3834 2567 4026 
Q 2313 4219 1838 4219 
Q 1578 4219 1281 4162 
Q 984 4106 628 3988 
L 628 4550 
Q 988 4650 1302 4700 
Q 1616 4750 1894 4750 
Q 2613 4750 3031 4423 
Q 3450 4097 3450 3541 
Q 3450 3153 3228 2886 
Q 3006 2619 2597 2516 
z
" transform="scale(0.015625)"/>
       </defs>
       <use xlink:href="#DejaVuSans-16"/>
       <use xlink:href="#DejaVuSans-11" transform="translate(63.625 0)"/>
       <use xlink:href="#DejaVuSans-13" transform="translate(95.40625 0)"/>
      </g>
     </g>
    </g>
    <g id="ytick_8">
     <g id="line2d_16">
      <g>
       <use xlink:href="#m85e9f12c37" x="46.013281" y="26.842526" style="fill: #8a929b; stroke: #8a929b; stroke-width: 0.8"/>
      </g>
     </g>
     <g id="text_8">
      <!-- 3.5 -->
      <g style="fill: #8a929b" transform="translate(26.290781 29.881588) scale(0.08 -0.08)">
       <use xlink:href="#DejaVuSans-16"/>
       <use xlink:href="#DejaVuSans-11" transform="translate(63.625 0)"/>
       <use xlink:href="#DejaVuSans-18" transform="translate(95.40625 0)"/>
      </g>
     </g>
    </g>
    <g id="ytick_9">
     <g id="line2d_17">
      <g>
       <use xlink:href="#m85e9f12c37" x="46.013281" y="10.239062" style="fill: #8a929b; stroke: #8a929b; stroke-width: 0.8"/>
      </g>
     </g>
     <g id="text_9">
      <!-- 4.0 -->
      <g style="fill: #8a929b" transform="translate(26.290781 13.278125) scale(0.08 -0.08)">
       <defs>
        <path id="DejaVuSans-17" d="M 2419 4116 
L 825 1625 
L 2419 1625 
L 2419 4116 
z
M 2253 4666 
L 3047 4666 
L 3047 1625 
L 3713 1625 
L 3713 1100 
L 3047 1100 
L 3047 0 
L 2419 0 
L 2419 1100 
L 313 1100 
L 313 1709 
L 2253 4666 
z
" transform="scale(0.015625)"/>
       </defs>
       <use xlink:href="#DejaVuSans-17"/>
       <use xlink:href="#DejaVuSans-11" transform="translate(63.625 0)"/>
       <use xlink:href="#DejaVuSans-13" transform="translate(95.40625 0)"/>
      </g>
     </g>
    </g>
    <g id="text_10">
     <!-- dI/dr  (kg·m) -->
     <g style="fill: #1f2933" transform="translate(19.888438 112.860068) rotate(-90) scale(0.1 -0.1)">
      <defs>
       <path id="DejaVuSans-47" d="M 2906 2969 
L 2906 4863 
L 3481 4863 
L 3481 0 
L 2906 0 
L 2906 525 
Q 2725 213 2448 61 
Q 2172 -91 1784 -91 
Q 1150 -91 751 415 
Q 353 922 353 1747 
Q 353 2572 751 3078 
Q 1150 3584 1784 3584 
Q 2172 3584 2448 3432 
Q 2725 3281 2906 2969 
z
M 947 1747 
Q 947 1113 1208 752 
Q 1469 391 1925 391 
Q 2381 391 2643 752 
Q 2906 1113 2906 1747 
Q 2906 2381 2643 2742 
Q 2381 3103 1925 3103 
Q 1469 3103 1208 2742 
Q 947 2381 947 1747 
z
" transform="scale(0.015625)"/>
       <path id="DejaVuSans-2c" d="M 628 4666 
L 1259 4666 
L 1259 0 
L 628 0 
L 628 4666 
z
" transform="scale(0.015625)"/>
       <path id="DejaVuSans-12" d="M 1625 4666 
L 2156 4666 
L 531 -594 
L 0 -594 
L 1625 4666 
z
" transform="scale(0.015625)"/>
       <path id="DejaVuSans-55" d="M 2631 2963 
Q 2534 3019 2420 3045 
Q 2306 3072 2169 3072 
Q 1681 3072 1420 2755 
Q 1159 2438 1159 1844 
L 1159 0 
L 581 0 
L 581 3500 
L 1159 3500 
L 1159 2956 
Q 1341 3275 1631 3429 
Q 1922 3584 2338 3584 
Q 2397 3584 2469 3576 
Q 2541 3569 2628 3553 
L 2631 2963 
z
" transform="scale(0.015625)"/>
       <path id="DejaVuSans-3" transform="scale(0.015625)"/>
       <path id="DejaVuSans-b" d="M 1984 4856 
Q 1566 4138 1362 3434 
Q 1159 2731 1159 2009 
Q 1159 1288 1364 580 
Q 1569 -128 1984 -844 
L 1484 -844 
Q 1016 -109 783 600 
Q 550 1309 550 2009 
Q 550 2706 781 3412 
Q 1013 4119 1484 4856 
L 1984 4856 
z
" transform="scale(0.015625)"/>
       <path id="DejaVuSans-4e" d="M 581 4863 
L 1159 4863 
L 1159 1991 
L 2875 3500 
L 3609 3500 
L 1753 1863 
L 3688 0 
L 2938 0 
L 1159 1709 
L 1159 0 
L 581 0 
L 581 4863 
z
" transform="scale(0.015625)"/>
       <path id="DejaVuSans-4a" d="M 2906 1791 
Q 2906 2416 2648 2759 
Q 2391 3103 1925 3103 
Q 1463 3103 1205 2759 
Q 947 2416 947 1791 
Q 947 1169 1205 825 
Q 1463 481 1925 481 
Q 2391 481 2648 825 
Q 2906 1169 2906 1791 
z
M 3481 434 
Q 3481 -459 3084 -895 
Q 2688 -1331 1869 -1331 
Q 1566 -1331 1297 -1286 
Q 1028 -1241 775 -1147 
L 775 -588 
Q 1028 -725 1275 -790 
Q 1522 -856 1778 -856 
Q 2344 -856 2625 -561 
Q 2906 -266 2906 331 
L 2906 616 
Q 2728 306 2450 153 
Q 2172 0 1784 0 
Q 1141 0 747 490 
Q 353 981 353 1791 
Q 353 2603 747 3093 
Q 1141 3584 1784 3584 
Q 2172 3584 2450 3431 
Q 2728 3278 2906 2969 
L 2906 3500 
L 3481 3500 
L 3481 434 
z
" transform="scale(0.015625)"/>
       <path id="DejaVuSans-79" d="M 684 2619 
L 1344 2619 
L 1344 1825 
L 684 1825 
L 684 2619 
z
" transform="scale(0.015625)"/>
       <path id="DejaVuSans-50" d="M 3328 2828 
Q 3544 3216 3844 3400 
Q 4144 3584 4550 3584 
Q 5097 3584 5394 3201 
Q 5691 2819 5691 2113 
L 5691 0 
L 5113 0 
L 5113 2094 
Q 5113 2597 4934 2840 
Q 4756 3084 4391 3084 
Q 3944 3084 3684 2787 
Q 3425 2491 3425 1978 
L 3425 0 
L 2847 0 
L 2847 2094 
Q 2847 2600 2669 2842 
Q 2491 3084 2119 3084 
Q 1678 3084 1418 2786 
Q 1159 2488 1159 1978 
L 1159 0 
L 581 0 
L 581 3500 
L 1159 3500 
L 1159 2956 
Q 1356 3278 1631 3431 
Q 1906 3584 2284 3584 
Q 2666 3584 2933 3390 
Q 3200 3197 3328 2828 
z
" transform="scale(0.015625)"/>
       <path id="DejaVuSans-c" d="M 513 4856 
L 1013 4856 
Q 1481 4119 1714 3412 
Q 1947 2706 1947 2009 
Q 1947 1309 1714 600 
Q 1481 -109 1013 -844 
L 513 -844 
Q 928 -128 1133 580 
Q 1338 1288 1338 2009 
Q 1338 2731 1133 3434 
Q 928 4138 513 4856 
z
" transform="scale(0.015625)"/>
      </defs>
      <use xlink:href="#DejaVuSans-47"/>
      <use xlink:href="#DejaVuSans-2c" transform="translate(63.484375 0)"/>
      <use xlink:href="#DejaVuSans-12" transform="translate(92.984375 0)"/>
      <use xlink:href="#DejaVuSans-47" transform="translate(126.671875 0)"/>
      <use xlink:href="#DejaVuSans-55" transform="translate(190.15625 0)"/>
      <use xlink:href="#DejaVuSans-3" transform="translate(231.265625 0)"/>
      <use xlink:href="#DejaVuSans-3" transform="translate(263.046875 0)"/>
      <use xlink:href="#DejaVuSans-b" transform="translate(294.828125 0)"/>
      <use xlink:href="#DejaVuSans-4e" transform="translate(333.84375 0)"/>
      <use xlink:href="#DejaVuSans-4a" transform="translate(391.75 0)"/>
      <use xlink:href="#DejaVuSans-79" transform="translate(455.234375 0)"/>
      <use xlink:href="#DejaVuSans-50" transform="translate(487.015625 0)"/>
      <use xlink:href="#DejaVuSans-c" transform="translate(584.421875 0)"/>
     </g>
    </g>
   </g>
   <g id="line2d_18">
    <path d="M 46.013281 143.06677 
L 403.133281 143.06677 
" clip-path="url(#pf8874fbd2f)" style="fill: none; stroke: #d8d4c8; stroke-linecap: square"/>
   </g>
   <g id="line2d_19">
    <path d="M 46.013281 143.06677 
L 57.967089 142.941733 
L 69.920896 142.566622 
L 81.874704 141.941437 
L 93.828511 141.066179 
L 105.782319 139.940846 
L 117.736126 138.56544 
L 129.689934 136.93996 
L 141.643742 135.064406 
L 153.597549 132.938778 
L 165.551357 130.563077 
L 177.505164 127.937301 
L 189.458972 125.061452 
L 201.412779 121.935529 
L 213.366587 118.559532 
L 225.320394 114.933461 
L 237.274202 111.057316 
L 249.228009 106.931097 
L 261.181817 102.554805 
L 273.135624 97.928439 
L 285.089432 93.051998 
L 297.043239 87.925484 
L 308.997047 82.548896 
L 320.950854 76.922235 
L 332.904662 71.045499 
L 344.85847 64.91869 
L 356.812277 58.541806 
L 368.766085 51.914849 
L 380.719892 45.037818 
L 392.6737 37.910713 
L 403.133281 31.469358 
L 403.133281 31.469358 
" clip-path="url(#pf8874fbd2f)" style="fill: none; stroke: #1f2933; stroke-width: 2.2; stroke-linecap: square"/>
   </g>
   <g id="patch_3">
    <path d="M 46.013281 154.226511 
L 46.013281 9.149875 
" style="fill: none; stroke: #d8d4c8; stroke-width: 0.8; stroke-linejoin: miter; stroke-linecap: square"/>
   </g>
   <g id="patch_4">
    <path d="M 46.013281 154.226511 
L 403.133281 154.226511 
" style="fill: none; stroke: #d8d4c8; stroke-width: 0.8; stroke-linejoin: miter; stroke-linecap: square"/>
   </g>
   <g id="text_11">
    <g id="patch_5">
     <path d="M 151.027828 137.220397 
L 298.118734 137.220397 
Q 300.526734 137.220397 300.526734 134.812397 
L 300.526734 126.211725 
Q 300.526734 123.803725 298.118734 123.803725 
L 151.027828 123.803725 
Q 148.619828 123.803725 148.619828 126.211725 
L 148.619828 134.812397 
Q 148.619828 137.220397 151.027828 137.220397 
z
" style="fill: #fbfaf7; opacity: 0.92; stroke: #d8d4c8; stroke-width: 0.6; stroke-linejoin: miter"/>
    </g>
    <!-- shaded area  =  ∫ F dx  =  work W -->
    <g style="fill: #1f2933" transform="translate(151.027828 132.746381) scale(0.086 -0.086)">
     <defs>
      <path id="DejaVuSans-56" d="M 2834 3397 
L 2834 2853 
Q 2591 2978 2328 3040 
Q 2066 3103 1784 3103 
Q 1356 3103 1142 2972 
Q 928 2841 928 2578 
Q 928 2378 1081 2264 
Q 1234 2150 1697 2047 
L 1894 2003 
Q 2506 1872 2764 1633 
Q 3022 1394 3022 966 
Q 3022 478 2636 193 
Q 2250 -91 1575 -91 
Q 1294 -91 989 -36 
Q 684 19 347 128 
L 347 722 
Q 666 556 975 473 
Q 1284 391 1588 391 
Q 1994 391 2212 530 
Q 2431 669 2431 922 
Q 2431 1156 2273 1281 
Q 2116 1406 1581 1522 
L 1381 1569 
Q 847 1681 609 1914 
Q 372 2147 372 2553 
Q 372 3047 722 3315 
Q 1072 3584 1716 3584 
Q 2034 3584 2315 3537 
Q 2597 3491 2834 3397 
z
" transform="scale(0.015625)"/>
      <path id="DejaVuSans-4b" d="M 3513 2113 
L 3513 0 
L 2938 0 
L 2938 2094 
Q 2938 2591 2744 2837 
Q 2550 3084 2163 3084 
Q 1697 3084 1428 2787 
Q 1159 2491 1159 1978 
L 1159 0 
L 581 0 
L 581 4863 
L 1159 4863 
L 1159 2956 
Q 1366 3272 1645 3428 
Q 1925 3584 2291 3584 
Q 2894 3584 3203 3211 
Q 3513 2838 3513 2113 
z
" transform="scale(0.015625)"/>
      <path id="DejaVuSans-44" d="M 2194 1759 
Q 1497 1759 1228 1600 
Q 959 1441 959 1056 
Q 959 750 1161 570 
Q 1363 391 1709 391 
Q 2188 391 2477 730 
Q 2766 1069 2766 1631 
L 2766 1759 
L 2194 1759 
z
M 3341 1997 
L 3341 0 
L 2766 0 
L 2766 531 
Q 2569 213 2275 61 
Q 1981 -91 1556 -91 
Q 1019 -91 701 211 
Q 384 513 384 1019 
Q 384 1609 779 1909 
Q 1175 2209 1959 2209 
L 2766 2209 
L 2766 2266 
Q 2766 2663 2505 2880 
Q 2244 3097 1772 3097 
Q 1472 3097 1187 3025 
Q 903 2953 641 2809 
L 641 3341 
Q 956 3463 1253 3523 
Q 1550 3584 1831 3584 
Q 2591 3584 2966 3190 
Q 3341 2797 3341 1997 
z
" transform="scale(0.015625)"/>
      <path id="DejaVuSans-48" d="M 3597 1894 
L 3597 1613 
L 953 1613 
Q 991 1019 1311 708 
Q 1631 397 2203 397 
Q 2534 397 2845 478 
Q 3156 559 3463 722 
L 3463 178 
Q 3153 47 2828 -22 
Q 2503 -91 2169 -91 
Q 1331 -91 842 396 
Q 353 884 353 1716 
Q 353 2575 817 3079 
Q 1281 3584 2069 3584 
Q 2775 3584 3186 3129 
Q 3597 2675 3597 1894 
z
M 3022 2063 
Q 3016 2534 2758 2815 
Q 2500 3097 2075 3097 
Q 1594 3097 1305 2825 
Q 1016 2553 972 2059 
L 3022 2063 
z
" transform="scale(0.015625)"/>
      <path id="DejaVuSans-20" d="M 678 2906 
L 4684 2906 
L 4684 2381 
L 678 2381 
L 678 2906 
z
M 678 1631 
L 4684 1631 
L 4684 1100 
L 678 1100 
L 678 1631 
z
" transform="scale(0.015625)"/>
      <path id="DejaVuSans-cb5" d="M 1509 3906 
Q 1534 4428 1787 4636 
Q 2041 4844 2277 4844 
Q 2513 4844 2709 4648 
Q 2906 4453 2969 4016 
L 2506 3969 
Q 2453 4375 2275 4375 
Q 2053 4375 2028 3828 
L 1825 -422 
Q 1800 -944 1547 -1151 
Q 1294 -1359 1058 -1359 
Q 822 -1359 625 -1164 
Q 428 -969 366 -531 
L 828 -484 
Q 881 -891 1059 -891 
Q 1281 -891 1306 -344 
L 1509 3906 
z
" transform="scale(0.015625)"/>
      <path id="DejaVuSans-29" d="M 628 4666 
L 3309 4666 
L 3309 4134 
L 1259 4134 
L 1259 2759 
L 3109 2759 
L 3109 2228 
L 1259 2228 
L 1259 0 
L 628 0 
L 628 4666 
z
" transform="scale(0.015625)"/>
      <path id="DejaVuSans-5b" d="M 3513 3500 
L 2247 1797 
L 3578 0 
L 2900 0 
L 1881 1375 
L 863 0 
L 184 0 
L 1544 1831 
L 300 3500 
L 978 3500 
L 1906 2253 
L 2834 3500 
L 3513 3500 
z
" transform="scale(0.015625)"/>
      <path id="DejaVuSans-5a" d="M 269 3500 
L 844 3500 
L 1563 769 
L 2278 3500 
L 2956 3500 
L 3675 769 
L 4391 3500 
L 4966 3500 
L 4050 0 
L 3372 0 
L 2619 2869 
L 1863 0 
L 1184 0 
L 269 3500 
z
" transform="scale(0.015625)"/>
      <path id="DejaVuSans-52" d="M 1959 3097 
Q 1497 3097 1228 2736 
Q 959 2375 959 1747 
Q 959 1119 1226 758 
Q 1494 397 1959 397 
Q 2419 397 2687 759 
Q 2956 1122 2956 1747 
Q 2956 2369 2687 2733 
Q 2419 3097 1959 3097 
z
M 1959 3584 
Q 2709 3584 3137 3096 
Q 3566 2609 3566 1747 
Q 3566 888 3137 398 
Q 2709 -91 1959 -91 
Q 1206 -91 779 398 
Q 353 888 353 1747 
Q 353 2609 779 3096 
Q 1206 3584 1959 3584 
z
" transform="scale(0.015625)"/>
      <path id="DejaVuSans-3a" d="M 213 4666 
L 850 4666 
L 1831 722 
L 2809 4666 
L 3519 4666 
L 4500 722 
L 5478 4666 
L 6119 4666 
L 4947 0 
L 4153 0 
L 3169 4050 
L 2175 0 
L 1381 0 
L 213 4666 
z
" transform="scale(0.015625)"/>
     </defs>
     <use xlink:href="#DejaVuSans-56"/>
     <use xlink:href="#DejaVuSans-4b" transform="translate(52.09375 0)"/>
     <use xlink:href="#DejaVuSans-44" transform="translate(115.46875 0)"/>
     <use xlink:href="#DejaVuSans-47" transform="translate(176.75 0)"/>
     <use xlink:href="#DejaVuSans-48" transform="translate(240.234375 0)"/>
     <use xlink:href="#DejaVuSans-47" transform="translate(301.765625 0)"/>
     <use xlink:href="#DejaVuSans-3" transform="translate(365.25 0)"/>
     <use xlink:href="#DejaVuSans-44" transform="translate(397.03125 0)"/>
     <use xlink:href="#DejaVuSans-55" transform="translate(458.3125 0)"/>
     <use xlink:href="#DejaVuSans-48" transform="translate(497.21875 0)"/>
     <use xlink:href="#DejaVuSans-44" transform="translate(558.75 0)"/>
     <use xlink:href="#DejaVuSans-3" transform="translate(620.03125 0)"/>
     <use xlink:href="#DejaVuSans-3" transform="translate(651.8125 0)"/>
     <use xlink:href="#DejaVuSans-20" transform="translate(683.59375 0)"/>
     <use xlink:href="#DejaVuSans-3" transform="translate(767.390625 0)"/>
     <use xlink:href="#DejaVuSans-3" transform="translate(799.171875 0)"/>
     <use xlink:href="#DejaVuSans-cb5" transform="translate(830.953125 0)"/>
     <use xlink:href="#DejaVuSans-3" transform="translate(883.046875 0)"/>
     <use xlink:href="#DejaVuSans-29" transform="translate(914.828125 0)"/>
     <use xlink:href="#DejaVuSans-3" transform="translate(972.34375 0)"/>
     <use xlink:href="#DejaVuSans-47" transform="translate(1004.125 0)"/>
     <use xlink:href="#DejaVuSans-5b" transform="translate(1067.609375 0)"/>
     <use xlink:href="#DejaVuSans-3" transform="translate(1126.796875 0)"/>
     <use xlink:href="#DejaVuSans-3" transform="translate(1158.578125 0)"/>
     <use xlink:href="#DejaVuSans-20" transform="translate(1190.359375 0)"/>
     <use xlink:href="#DejaVuSans-3" transform="translate(1274.15625 0)"/>
     <use xlink:href="#DejaVuSans-3" transform="translate(1305.9375 0)"/>
     <use xlink:href="#DejaVuSans-5a" transform="translate(1337.71875 0)"/>
     <use xlink:href="#DejaVuSans-52" transform="translate(1419.5 0)"/>
     <use xlink:href="#DejaVuSans-55" transform="translate(1480.6875 0)"/>
     <use xlink:href="#DejaVuSans-4e" transform="translate(1521.796875 0)"/>
     <use xlink:href="#DejaVuSans-3" transform="translate(1579.703125 0)"/>
     <use xlink:href="#DejaVuSans-3a" transform="translate(1611.484375 0)"/>
    </g>
   </g>
  </g>
  <g id="axes_2">
   <g id="patch_6">
    <path d="M 46.013281 319.613875 
L 403.133281 319.613875 
L 403.133281 174.53724 
L 46.013281 174.53724 
z
" style="fill: #fbfaf7"/>
   </g>
   <g id="matplotlib.axis_3">
    <g id="xtick_9">
     <g id="line2d_20">
      <g>
       <use xlink:href="#mbba2de1772" x="46.013281" y="319.613875" style="fill: #8a929b; stroke: #8a929b; stroke-width: 0.8"/>
      </g>
     </g>
     <g id="text_12">
      <!-- 0.0 -->
      <g style="fill: #8a929b" transform="translate(39.652031 332.692) scale(0.08 -0.08)">
       <use xlink:href="#DejaVuSans-13"/>
       <use xlink:href="#DejaVuSans-11" transform="translate(63.625 0)"/>
       <use xlink:href="#DejaVuSans-13" transform="translate(95.40625 0)"/>
      </g>
     </g>
    </g>
    <g id="xtick_10">
     <g id="line2d_21">
      <g>
       <use xlink:href="#mbba2de1772" x="96.311873" y="319.613875" style="fill: #8a929b; stroke: #8a929b; stroke-width: 0.8"/>
      </g>
     </g>
     <g id="text_13">
      <!-- 0.2 -->
      <g style="fill: #8a929b" transform="translate(89.950623 332.692) scale(0.08 -0.08)">
       <use xlink:href="#DejaVuSans-13"/>
       <use xlink:href="#DejaVuSans-11" transform="translate(63.625 0)"/>
       <use xlink:href="#DejaVuSans-15" transform="translate(95.40625 0)"/>
      </g>
     </g>
    </g>
    <g id="xtick_11">
     <g id="line2d_22">
      <g>
       <use xlink:href="#mbba2de1772" x="146.610464" y="319.613875" style="fill: #8a929b; stroke: #8a929b; stroke-width: 0.8"/>
      </g>
     </g>
     <g id="text_14">
      <!-- 0.4 -->
      <g style="fill: #8a929b" transform="translate(140.249214 332.692) scale(0.08 -0.08)">
       <use xlink:href="#DejaVuSans-13"/>
       <use xlink:href="#DejaVuSans-11" transform="translate(63.625 0)"/>
       <use xlink:href="#DejaVuSans-17" transform="translate(95.40625 0)"/>
      </g>
     </g>
    </g>
    <g id="xtick_12">
     <g id="line2d_23">
      <g>
       <use xlink:href="#mbba2de1772" x="196.909056" y="319.613875" style="fill: #8a929b; stroke: #8a929b; stroke-width: 0.8"/>
      </g>
     </g>
     <g id="text_15">
      <!-- 0.6 -->
      <g style="fill: #8a929b" transform="translate(190.547806 332.692) scale(0.08 -0.08)">
       <defs>
        <path id="DejaVuSans-19" d="M 2113 2584 
Q 1688 2584 1439 2293 
Q 1191 2003 1191 1497 
Q 1191 994 1439 701 
Q 1688 409 2113 409 
Q 2538 409 2786 701 
Q 3034 994 3034 1497 
Q 3034 2003 2786 2293 
Q 2538 2584 2113 2584 
z
M 3366 4563 
L 3366 3988 
Q 3128 4100 2886 4159 
Q 2644 4219 2406 4219 
Q 1781 4219 1451 3797 
Q 1122 3375 1075 2522 
Q 1259 2794 1537 2939 
Q 1816 3084 2150 3084 
Q 2853 3084 3261 2657 
Q 3669 2231 3669 1497 
Q 3669 778 3244 343 
Q 2819 -91 2113 -91 
Q 1303 -91 875 529 
Q 447 1150 447 2328 
Q 447 3434 972 4092 
Q 1497 4750 2381 4750 
Q 2619 4750 2861 4703 
Q 3103 4656 3366 4563 
z
" transform="scale(0.015625)"/>
       </defs>
       <use xlink:href="#DejaVuSans-13"/>
       <use xlink:href="#DejaVuSans-11" transform="translate(63.625 0)"/>
       <use xlink:href="#DejaVuSans-19" transform="translate(95.40625 0)"/>
      </g>
     </g>
    </g>
    <g id="xtick_13">
     <g id="line2d_24">
      <g>
       <use xlink:href="#mbba2de1772" x="247.207647" y="319.613875" style="fill: #8a929b; stroke: #8a929b; stroke-width: 0.8"/>
      </g>
     </g>
     <g id="text_16">
      <!-- 0.8 -->
      <g style="fill: #8a929b" transform="translate(240.846397 332.692) scale(0.08 -0.08)">
       <defs>
        <path id="DejaVuSans-1b" d="M 2034 2216 
Q 1584 2216 1326 1975 
Q 1069 1734 1069 1313 
Q 1069 891 1326 650 
Q 1584 409 2034 409 
Q 2484 409 2743 651 
Q 3003 894 3003 1313 
Q 3003 1734 2745 1975 
Q 2488 2216 2034 2216 
z
M 1403 2484 
Q 997 2584 770 2862 
Q 544 3141 544 3541 
Q 544 4100 942 4425 
Q 1341 4750 2034 4750 
Q 2731 4750 3128 4425 
Q 3525 4100 3525 3541 
Q 3525 3141 3298 2862 
Q 3072 2584 2669 2484 
Q 3125 2378 3379 2068 
Q 3634 1759 3634 1313 
Q 3634 634 3220 271 
Q 2806 -91 2034 -91 
Q 1263 -91 848 271 
Q 434 634 434 1313 
Q 434 1759 690 2068 
Q 947 2378 1403 2484 
z
M 1172 3481 
Q 1172 3119 1398 2916 
Q 1625 2713 2034 2713 
Q 2441 2713 2670 2916 
Q 2900 3119 2900 3481 
Q 2900 3844 2670 4047 
Q 2441 4250 2034 4250 
Q 1625 4250 1398 4047 
Q 1172 3844 1172 3481 
z
" transform="scale(0.015625)"/>
       </defs>
       <use xlink:href="#DejaVuSans-13"/>
       <use xlink:href="#DejaVuSans-11" transform="translate(63.625 0)"/>
       <use xlink:href="#DejaVuSans-1b" transform="translate(95.40625 0)"/>
      </g>
     </g>
    </g>
    <g id="xtick_14">
     <g id="line2d_25">
      <g>
       <use xlink:href="#mbba2de1772" x="297.506239" y="319.613875" style="fill: #8a929b; stroke: #8a929b; stroke-width: 0.8"/>
      </g>
     </g>
     <g id="text_17">
      <!-- 1.0 -->
      <g style="fill: #8a929b" transform="translate(291.144989 332.692) scale(0.08 -0.08)">
       <use xlink:href="#DejaVuSans-14"/>
       <use xlink:href="#DejaVuSans-11" transform="translate(63.625 0)"/>
       <use xlink:href="#DejaVuSans-13" transform="translate(95.40625 0)"/>
      </g>
     </g>
    </g>
    <g id="xtick_15">
     <g id="line2d_26">
      <g>
       <use xlink:href="#mbba2de1772" x="347.804831" y="319.613875" style="fill: #8a929b; stroke: #8a929b; stroke-width: 0.8"/>
      </g>
     </g>
     <g id="text_18">
      <!-- 1.2 -->
      <g style="fill: #8a929b" transform="translate(341.443581 332.692) scale(0.08 -0.08)">
       <use xlink:href="#DejaVuSans-14"/>
       <use xlink:href="#DejaVuSans-11" transform="translate(63.625 0)"/>
       <use xlink:href="#DejaVuSans-15" transform="translate(95.40625 0)"/>
      </g>
     </g>
    </g>
    <g id="xtick_16">
     <g id="line2d_27">
      <g>
       <use xlink:href="#mbba2de1772" x="398.103422" y="319.613875" style="fill: #8a929b; stroke: #8a929b; stroke-width: 0.8"/>
      </g>
     </g>
     <g id="text_19">
      <!-- 1.4 -->
      <g style="fill: #8a929b" transform="translate(391.742172 332.692) scale(0.08 -0.08)">
       <use xlink:href="#DejaVuSans-14"/>
       <use xlink:href="#DejaVuSans-11" transform="translate(63.625 0)"/>
       <use xlink:href="#DejaVuSans-17" transform="translate(95.40625 0)"/>
      </g>
     </g>
    </g>
    <g id="text_20">
     <!-- r  (m) -->
     <g style="fill: #1f2933" transform="translate(210.567813 346.211532) scale(0.1 -0.1)">
      <use xlink:href="#DejaVuSans-55"/>
      <use xlink:href="#DejaVuSans-3" transform="translate(41.109375 0)"/>
      <use xlink:href="#DejaVuSans-3" transform="translate(72.890625 0)"/>
      <use xlink:href="#DejaVuSans-b" transform="translate(104.671875 0)"/>
      <use xlink:href="#DejaVuSans-50" transform="translate(143.6875 0)"/>
      <use xlink:href="#DejaVuSans-c" transform="translate(241.09375 0)"/>
     </g>
    </g>
   </g>
   <g id="matplotlib.axis_4">
    <g id="ytick_10">
     <g id="line2d_28">
      <g>
       <use xlink:href="#m85e9f12c37" x="46.013281" y="308.454134" style="fill: #8a929b; stroke: #8a929b; stroke-width: 0.8"/>
      </g>
     </g>
     <g id="text_21">
      <!-- 0.00 -->
      <g style="fill: #8a929b" transform="translate(21.200781 311.493197) scale(0.08 -0.08)">
       <use xlink:href="#DejaVuSans-13"/>
       <use xlink:href="#DejaVuSans-11" transform="translate(63.625 0)"/>
       <use xlink:href="#DejaVuSans-13" transform="translate(95.40625 0)"/>
       <use xlink:href="#DejaVuSans-13" transform="translate(159.03125 0)"/>
      </g>
     </g>
    </g>
    <g id="ytick_11">
     <g id="line2d_29">
      <g>
       <use xlink:href="#m85e9f12c37" x="46.013281" y="290.915264" style="fill: #8a929b; stroke: #8a929b; stroke-width: 0.8"/>
      </g>
     </g>
     <g id="text_22">
      <!-- 0.25 -->
      <g style="fill: #8a929b" transform="translate(21.200781 293.954327) scale(0.08 -0.08)">
       <use xlink:href="#DejaVuSans-13"/>
       <use xlink:href="#DejaVuSans-11" transform="translate(63.625 0)"/>
       <use xlink:href="#DejaVuSans-15" transform="translate(95.40625 0)"/>
       <use xlink:href="#DejaVuSans-18" transform="translate(159.03125 0)"/>
      </g>
     </g>
    </g>
    <g id="ytick_12">
     <g id="line2d_30">
      <g>
       <use xlink:href="#m85e9f12c37" x="46.013281" y="273.376395" style="fill: #8a929b; stroke: #8a929b; stroke-width: 0.8"/>
      </g>
     </g>
     <g id="text_23">
      <!-- 0.50 -->
      <g style="fill: #8a929b" transform="translate(21.200781 276.415457) scale(0.08 -0.08)">
       <use xlink:href="#DejaVuSans-13"/>
       <use xlink:href="#DejaVuSans-11" transform="translate(63.625 0)"/>
       <use xlink:href="#DejaVuSans-18" transform="translate(95.40625 0)"/>
       <use xlink:href="#DejaVuSans-13" transform="translate(159.03125 0)"/>
      </g>
     </g>
    </g>
    <g id="ytick_13">
     <g id="line2d_31">
      <g>
       <use xlink:href="#m85e9f12c37" x="46.013281" y="255.837525" style="fill: #8a929b; stroke: #8a929b; stroke-width: 0.8"/>
      </g>
     </g>
     <g id="text_24">
      <!-- 0.75 -->
      <g style="fill: #8a929b" transform="translate(21.200781 258.876587) scale(0.08 -0.08)">
       <defs>
        <path id="DejaVuSans-1a" d="M 525 4666 
L 3525 4666 
L 3525 4397 
L 1831 0 
L 1172 0 
L 2766 4134 
L 525 4134 
L 525 4666 
z
" transform="scale(0.015625)"/>
       </defs>
       <use xlink:href="#DejaVuSans-13"/>
       <use xlink:href="#DejaVuSans-11" transform="translate(63.625 0)"/>
       <use xlink:href="#DejaVuSans-1a" transform="translate(95.40625 0)"/>
       <use xlink:href="#DejaVuSans-18" transform="translate(159.03125 0)"/>
      </g>
     </g>
    </g>
    <g id="ytick_14">
     <g id="line2d_32">
      <g>
       <use xlink:href="#m85e9f12c37" x="46.013281" y="238.298655" style="fill: #8a929b; stroke: #8a929b; stroke-width: 0.8"/>
      </g>
     </g>
     <g id="text_25">
      <!-- 1.00 -->
      <g style="fill: #8a929b" transform="translate(21.200781 241.337717) scale(0.08 -0.08)">
       <use xlink:href="#DejaVuSans-14"/>
       <use xlink:href="#DejaVuSans-11" transform="translate(63.625 0)"/>
       <use xlink:href="#DejaVuSans-13" transform="translate(95.40625 0)"/>
       <use xlink:href="#DejaVuSans-13" transform="translate(159.03125 0)"/>
      </g>
     </g>
    </g>
    <g id="ytick_15">
     <g id="line2d_33">
      <g>
       <use xlink:href="#m85e9f12c37" x="46.013281" y="220.759785" style="fill: #8a929b; stroke: #8a929b; stroke-width: 0.8"/>
      </g>
     </g>
     <g id="text_26">
      <!-- 1.25 -->
      <g style="fill: #8a929b" transform="translate(21.200781 223.798848) scale(0.08 -0.08)">
       <use xlink:href="#DejaVuSans-14"/>
       <use xlink:href="#DejaVuSans-11" transform="translate(63.625 0)"/>
       <use xlink:href="#DejaVuSans-15" transform="translate(95.40625 0)"/>
       <use xlink:href="#DejaVuSans-18" transform="translate(159.03125 0)"/>
      </g>
     </g>
    </g>
    <g id="ytick_16">
     <g id="line2d_34">
      <g>
       <use xlink:href="#m85e9f12c37" x="46.013281" y="203.220915" style="fill: #8a929b; stroke: #8a929b; stroke-width: 0.8"/>
      </g>
     </g>
     <g id="text_27">
      <!-- 1.50 -->
      <g style="fill: #8a929b" transform="translate(21.200781 206.259978) scale(0.08 -0.08)">
       <use xlink:href="#DejaVuSans-14"/>
       <use xlink:href="#DejaVuSans-11" transform="translate(63.625 0)"/>
       <use xlink:href="#DejaVuSans-18" transform="translate(95.40625 0)"/>
       <use xlink:href="#DejaVuSans-13" transform="translate(159.03125 0)"/>
      </g>
     </g>
    </g>
    <g id="ytick_17">
     <g id="line2d_35">
      <g>
       <use xlink:href="#m85e9f12c37" x="46.013281" y="185.682046" style="fill: #8a929b; stroke: #8a929b; stroke-width: 0.8"/>
      </g>
     </g>
     <g id="text_28">
      <!-- 1.75 -->
      <g style="fill: #8a929b" transform="translate(21.200781 188.721108) scale(0.08 -0.08)">
       <use xlink:href="#DejaVuSans-14"/>
       <use xlink:href="#DejaVuSans-11" transform="translate(63.625 0)"/>
       <use xlink:href="#DejaVuSans-1a" transform="translate(95.40625 0)"/>
       <use xlink:href="#DejaVuSans-18" transform="translate(159.03125 0)"/>
      </g>
     </g>
    </g>
    <g id="text_29">
     <!-- I  (kg·m²) -->
     <g style="fill: #1f2933" transform="translate(14.798438 270.163839) rotate(-90) scale(0.1 -0.1)">
      <defs>
       <path id="DejaVuSans-74" d="M 838 2444 
L 2163 2444 
L 2163 2088 
L 294 2088 
L 294 2431 
Q 400 2528 597 2703 
Q 1672 3656 1672 3950 
Q 1672 4156 1509 4282 
Q 1347 4409 1081 4409 
Q 919 4409 728 4354 
Q 538 4300 313 4191 
L 313 4575 
Q 553 4663 761 4706 
Q 969 4750 1147 4750 
Q 1600 4750 1872 4544 
Q 2144 4338 2144 4000 
Q 2144 3566 1109 2678 
Q 934 2528 838 2444 
z
" transform="scale(0.015625)"/>
      </defs>
      <use xlink:href="#DejaVuSans-2c"/>
      <use xlink:href="#DejaVuSans-3" transform="translate(29.5 0)"/>
      <use xlink:href="#DejaVuSans-3" transform="translate(61.28125 0)"/>
      <use xlink:href="#DejaVuSans-b" transform="translate(93.0625 0)"/>
      <use xlink:href="#DejaVuSans-4e" transform="translate(132.078125 0)"/>
      <use xlink:href="#DejaVuSans-4a" transform="translate(189.984375 0)"/>
      <use xlink:href="#DejaVuSans-79" transform="translate(253.46875 0)"/>
      <use xlink:href="#DejaVuSans-50" transform="translate(285.25 0)"/>
      <use xlink:href="#DejaVuSans-74" transform="translate(382.65625 0)"/>
      <use xlink:href="#DejaVuSans-c" transform="translate(422.75 0)"/>
     </g>
    </g>
   </g>
   <g id="line2d_36">
    <path d="M 46.013281 308.454134 
L 403.133281 308.454134 
" clip-path="url(#p74ee3d1a81)" style="fill: none; stroke: #d8d4c8; stroke-linecap: square"/>
   </g>
   <g id="line2d_37">
    <path d="M 46.013281 308.454134 
L 80.380478 308.354675 
L 99.805415 308.072745 
L 116.2419 307.605435 
L 129.689934 307.018564 
L 143.137967 306.209216 
L 155.091775 305.27412 
L 167.045583 304.109877 
L 177.505164 302.883451 
L 187.964746 301.445535 
L 198.424327 299.779305 
L 208.883909 297.867939 
L 217.849265 296.021764 
L 226.81462 293.972535 
L 235.779976 291.709657 
L 244.745331 289.222537 
L 253.710687 286.500581 
L 262.676043 283.533194 
L 271.641398 280.309782 
L 280.606754 276.81975 
L 289.57211 273.052506 
L 297.043239 269.693733 
L 304.514369 266.128962 
L 311.985499 262.352064 
L 319.456629 258.356907 
L 326.927758 254.13736 
L 334.398888 249.687293 
L 341.870018 245.000574 
L 349.341147 240.071074 
L 356.812277 234.89266 
L 364.283407 229.459202 
L 371.754536 223.764569 
L 379.225666 217.802631 
L 386.696796 211.567256 
L 394.167926 205.052314 
L 401.639055 198.251674 
L 403.133281 196.856722 
L 403.133281 196.856722 
" clip-path="url(#p74ee3d1a81)" style="fill: none; stroke: #2f6f4f; stroke-width: 2.2; stroke-linecap: square"/>
   </g>
   <g id="patch_7">
    <path d="M 46.013281 319.613875 
L 46.013281 174.53724 
" style="fill: none; stroke: #d8d4c8; stroke-width: 0.8; stroke-linejoin: miter; stroke-linecap: square"/>
   </g>
   <g id="patch_8">
    <path d="M 46.013281 319.613875 
L 403.133281 319.613875 
" style="fill: none; stroke: #d8d4c8; stroke-width: 0.8; stroke-linejoin: miter; stroke-linecap: square"/>
   </g>
   <g id="text_30">
    <g id="patch_9">
     <path d="M 275.427681 294.866018 
L 355.456056 294.866018 
Q 357.864056 294.866018 357.864056 292.458018 
L 357.864056 283.857346 
Q 357.864056 281.449346 355.456056 281.449346 
L 275.427681 281.449346 
Q 273.019681 281.449346 273.019681 283.857346 
L 273.019681 292.458018 
Q 273.019681 294.866018 275.427681 294.866018 
z
" style="fill: #fbfaf7; opacity: 0.92; stroke: #d8d4c8; stroke-width: 0.6; stroke-linejoin: miter"/>
    </g>
    <!-- slope of W  =  F(x) -->
    <g style="fill: #1f2933" transform="translate(275.427681 290.392002) scale(0.086 -0.086)">
     <defs>
      <path id="DejaVuSans-4f" d="M 603 4863 
L 1178 4863 
L 1178 0 
L 603 0 
L 603 4863 
z
" transform="scale(0.015625)"/>
      <path id="DejaVuSans-53" d="M 1159 525 
L 1159 -1331 
L 581 -1331 
L 581 3500 
L 1159 3500 
L 1159 2969 
Q 1341 3281 1617 3432 
Q 1894 3584 2278 3584 
Q 2916 3584 3314 3078 
Q 3713 2572 3713 1747 
Q 3713 922 3314 415 
Q 2916 -91 2278 -91 
Q 1894 -91 1617 61 
Q 1341 213 1159 525 
z
M 3116 1747 
Q 3116 2381 2855 2742 
Q 2594 3103 2138 3103 
Q 1681 3103 1420 2742 
Q 1159 2381 1159 1747 
Q 1159 1113 1420 752 
Q 1681 391 2138 391 
Q 2594 391 2855 752 
Q 3116 1113 3116 1747 
z
" transform="scale(0.015625)"/>
      <path id="DejaVuSans-49" d="M 2375 4863 
L 2375 4384 
L 1825 4384 
Q 1516 4384 1395 4259 
Q 1275 4134 1275 3809 
L 1275 3500 
L 2222 3500 
L 2222 3053 
L 1275 3053 
L 1275 0 
L 697 0 
L 697 3053 
L 147 3053 
L 147 3500 
L 697 3500 
L 697 3744 
Q 697 4328 969 4595 
Q 1241 4863 1831 4863 
L 2375 4863 
z
" transform="scale(0.015625)"/>
     </defs>
     <use xlink:href="#DejaVuSans-56"/>
     <use xlink:href="#DejaVuSans-4f" transform="translate(52.09375 0)"/>
     <use xlink:href="#DejaVuSans-52" transform="translate(79.875 0)"/>
     <use xlink:href="#DejaVuSans-53" transform="translate(141.0625 0)"/>
     <use xlink:href="#DejaVuSans-48" transform="translate(204.546875 0)"/>
     <use xlink:href="#DejaVuSans-3" transform="translate(266.078125 0)"/>
     <use xlink:href="#DejaVuSans-52" transform="translate(297.859375 0)"/>
     <use xlink:href="#DejaVuSans-49" transform="translate(359.046875 0)"/>
     <use xlink:href="#DejaVuSans-3" transform="translate(394.25 0)"/>
     <use xlink:href="#DejaVuSans-3a" transform="translate(426.03125 0)"/>
     <use xlink:href="#DejaVuSans-3" transform="translate(524.90625 0)"/>
     <use xlink:href="#DejaVuSans-3" transform="translate(556.6875 0)"/>
     <use xlink:href="#DejaVuSans-20" transform="translate(588.46875 0)"/>
     <use xlink:href="#DejaVuSans-3" transform="translate(672.265625 0)"/>
     <use xlink:href="#DejaVuSans-3" transform="translate(704.046875 0)"/>
     <use xlink:href="#DejaVuSans-29" transform="translate(735.828125 0)"/>
     <use xlink:href="#DejaVuSans-b" transform="translate(793.34375 0)"/>
     <use xlink:href="#DejaVuSans-5b" transform="translate(832.359375 0)"/>
     <use xlink:href="#DejaVuSans-c" transform="translate(891.546875 0)"/>
    </g>
   </g>
  </g>
 </g>
 <defs>
  <clipPath id="pf8874fbd2f">
   <rect x="46.013281" y="9.149875" width="357.12" height="145.076636"/>
  </clipPath>
  <clipPath id="p74ee3d1a81">
   <rect x="46.013281" y="174.53724" width="357.12" height="145.076636"/>
  </clipPath>
 </defs>
</svg>
