<?xml version="1.0" encoding="utf-8" standalone="no"?>
<!DOCTYPE svg PUBLIC "-//W3C//DTD SVG 1.1//EN"
  "http://www.w3.org/Graphics/SVG/1.1/DTD/svg11.dtd">
<svg xmlns:xlink="http://www.w3.org/1999/xlink" width="421.4925pt" height="265.771899pt" viewBox="0 0 421.4925 265.771899" xmlns="http://www.w3.org/2000/svg" version="1.1">
 <metadata>
  <rdf:RDF xmlns:dc="http://purl.org/dc/elements/1.1/" xmlns:cc="http://creativecommons.org/ns#" xmlns:rdf="http://www.w3.org/1999/02/22-rdf-syntax-ns#">
   <cc:Work>
    <dc:type rdf:resource="http://purl.org/dc/dcmitype/StillImage"/>
    <dc:date>2026-06-26T15:38:18.780190</dc:date>
    <dc:format>image/svg+xml</dc:format>
    <dc:creator>
     <cc:Agent>
      <dc:title>Matplotlib v3.11.0, https://matplotlib.org/</dc:title>
     </cc:Agent>
    </dc:creator>
   </cc:Work>
  </rdf:RDF>
 </metadata>
 <defs>
  <style type="text/css">*{stroke-linejoin: round; stroke-linecap: butt}</style>
 </defs>
 <g id="figure_1">
  <g id="patch_1">
   <path d="M 0 265.771899 
L 421.4925 265.771899 
L 421.4925 0 
L 0 0 
z
" style="fill: #fbfaf7"/>
  </g>
  <g id="axes_1">
   <g id="patch_2">
    <path d="M 46.0125 229.571899 
L 414.2925 229.571899 
L 414.2925 7.811899 
L 46.0125 7.811899 
z
" style="fill: #fbfaf7"/>
   </g>
   <g id="matplotlib.axis_1">
    <g id="xtick_1">
     <g id="line2d_1">
      <defs>
       <path id="mb1e3fd2f76" d="M 0 0 
L 0 3.5 
" style="stroke: #8a929b; stroke-width: 0.8"/>
      </defs>
      <g>
       <use xlink:href="#mb1e3fd2f76" x="59.165357" y="229.571899" style="fill: #8a929b; stroke: #8a929b; stroke-width: 0.8"/>
      </g>
     </g>
     <g id="text_1">
      <!-- 0 -->
      <g style="fill: #8a929b" transform="translate(56.620357 242.650024) scale(0.08 -0.08)">
       <defs>
        <path id="DejaVuSans-13" d="M 2034 4250 
Q 1547 4250 1301 3770 
Q 1056 3291 1056 2328 
Q 1056 1369 1301 889 
Q 1547 409 2034 409 
Q 2525 409 2770 889 
Q 3016 1369 3016 2328 
Q 3016 3291 2770 3770 
Q 2525 4250 2034 4250 
z
M 2034 4750 
Q 2819 4750 3233 4129 
Q 3647 3509 3647 2328 
Q 3647 1150 3233 529 
Q 2819 -91 2034 -91 
Q 1250 -91 836 529 
Q 422 1150 422 2328 
Q 422 3509 836 4129 
Q 1250 4750 2034 4750 
z
" transform="scale(0.015625)"/>
       </defs>
       <use xlink:href="#DejaVuSans-13"/>
      </g>
     </g>
    </g>
    <g id="xtick_2">
     <g id="line2d_2">
      <g>
       <use xlink:href="#mb1e3fd2f76" x="118.842614" y="229.571899" style="fill: #8a929b; stroke: #8a929b; stroke-width: 0.8"/>
      </g>
     </g>
     <g id="text_2">
      <!-- 10 -->
      <g style="fill: #8a929b" transform="translate(113.752614 242.650024) scale(0.08 -0.08)">
       <defs>
        <path id="DejaVuSans-14" d="M 794 531 
L 1825 531 
L 1825 4091 
L 703 3866 
L 703 4441 
L 1819 4666 
L 2450 4666 
L 2450 531 
L 3481 531 
L 3481 0 
L 794 0 
L 794 531 
z
" transform="scale(0.015625)"/>
       </defs>
       <use xlink:href="#DejaVuSans-14"/>
       <use xlink:href="#DejaVuSans-13" transform="translate(63.625 0)"/>
      </g>
     </g>
    </g>
    <g id="xtick_3">
     <g id="line2d_3">
      <g>
       <use xlink:href="#mb1e3fd2f76" x="178.519871" y="229.571899" style="fill: #8a929b; stroke: #8a929b; stroke-width: 0.8"/>
      </g>
     </g>
     <g id="text_3">
      <!-- 20 -->
      <g style="fill: #8a929b" transform="translate(173.429871 242.650024) scale(0.08 -0.08)">
       <defs>
        <path id="DejaVuSans-15" d="M 1228 531 
L 3431 531 
L 3431 0 
L 469 0 
L 469 531 
Q 828 903 1448 1529 
Q 2069 2156 2228 2338 
Q 2531 2678 2651 2914 
Q 2772 3150 2772 3378 
Q 2772 3750 2511 3984 
Q 2250 4219 1831 4219 
Q 1534 4219 1204 4116 
Q 875 4013 500 3803 
L 500 4441 
Q 881 4594 1212 4672 
Q 1544 4750 1819 4750 
Q 2544 4750 2975 4387 
Q 3406 4025 3406 3419 
Q 3406 3131 3298 2873 
Q 3191 2616 2906 2266 
Q 2828 2175 2409 1742 
Q 1991 1309 1228 531 
z
" transform="scale(0.015625)"/>
       </defs>
       <use xlink:href="#DejaVuSans-15"/>
       <use xlink:href="#DejaVuSans-13" transform="translate(63.625 0)"/>
      </g>
     </g>
    </g>
    <g id="xtick_4">
     <g id="line2d_4">
      <g>
       <use xlink:href="#mb1e3fd2f76" x="238.197128" y="229.571899" style="fill: #8a929b; stroke: #8a929b; stroke-width: 0.8"/>
      </g>
     </g>
     <g id="text_4">
      <!-- 30 -->
      <g style="fill: #8a929b" transform="translate(233.107128 242.650024) scale(0.08 -0.08)">
       <defs>
        <path id="DejaVuSans-16" d="M 2597 2516 
Q 3050 2419 3304 2112 
Q 3559 1806 3559 1356 
Q 3559 666 3084 287 
Q 2609 -91 1734 -91 
Q 1441 -91 1130 -33 
Q 819 25 488 141 
L 488 750 
Q 750 597 1062 519 
Q 1375 441 1716 441 
Q 2309 441 2620 675 
Q 2931 909 2931 1356 
Q 2931 1769 2642 2001 
Q 2353 2234 1838 2234 
L 1294 2234 
L 1294 2753 
L 1863 2753 
Q 2328 2753 2575 2939 
Q 2822 3125 2822 3475 
Q 2822 3834 2567 4026 
Q 2313 4219 1838 4219 
Q 1578 4219 1281 4162 
Q 984 4106 628 3988 
L 628 4550 
Q 988 4650 1302 4700 
Q 1616 4750 1894 4750 
Q 2613 4750 3031 4423 
Q 3450 4097 3450 3541 
Q 3450 3153 3228 2886 
Q 3006 2619 2597 2516 
z
" transform="scale(0.015625)"/>
       </defs>
       <use xlink:href="#DejaVuSans-16"/>
       <use xlink:href="#DejaVuSans-13" transform="translate(63.625 0)"/>
      </g>
     </g>
    </g>
    <g id="xtick_5">
     <g id="line2d_5">
      <g>
       <use xlink:href="#mb1e3fd2f76" x="297.874384" y="229.571899" style="fill: #8a929b; stroke: #8a929b; stroke-width: 0.8"/>
      </g>
     </g>
     <g id="text_5">
      <!-- 40 -->
      <g style="fill: #8a929b" transform="translate(292.784384 242.650024) scale(0.08 -0.08)">
       <defs>
        <path id="DejaVuSans-17" d="M 2419 4116 
L 825 1625 
L 2419 1625 
L 2419 4116 
z
M 2253 4666 
L 3047 4666 
L 3047 1625 
L 3713 1625 
L 3713 1100 
L 3047 1100 
L 3047 0 
L 2419 0 
L 2419 1100 
L 313 1100 
L 313 1709 
L 2253 4666 
z
" transform="scale(0.015625)"/>
       </defs>
       <use xlink:href="#DejaVuSans-17"/>
       <use xlink:href="#DejaVuSans-13" transform="translate(63.625 0)"/>
      </g>
     </g>
    </g>
    <g id="xtick_6">
     <g id="line2d_6">
      <g>
       <use xlink:href="#mb1e3fd2f76" x="357.551641" y="229.571899" style="fill: #8a929b; stroke: #8a929b; stroke-width: 0.8"/>
      </g>
     </g>
     <g id="text_6">
      <!-- 50 -->
      <g style="fill: #8a929b" transform="translate(352.461641 242.650024) scale(0.08 -0.08)">
       <defs>
        <path id="DejaVuSans-18" d="M 691 4666 
L 3169 4666 
L 3169 4134 
L 1269 4134 
L 1269 2991 
Q 1406 3038 1543 3061 
Q 1681 3084 1819 3084 
Q 2600 3084 3056 2656 
Q 3513 2228 3513 1497 
Q 3513 744 3044 326 
Q 2575 -91 1722 -91 
Q 1428 -91 1123 -41 
Q 819 9 494 109 
L 494 744 
Q 775 591 1075 516 
Q 1375 441 1709 441 
Q 2250 441 2565 725 
Q 2881 1009 2881 1497 
Q 2881 1984 2565 2268 
Q 2250 2553 1709 2553 
Q 1456 2553 1204 2497 
Q 953 2441 691 2322 
L 691 4666 
z
" transform="scale(0.015625)"/>
       </defs>
       <use xlink:href="#DejaVuSans-18"/>
       <use xlink:href="#DejaVuSans-13" transform="translate(63.625 0)"/>
      </g>
     </g>
    </g>
    <g id="text_7">
     <!-- x  (m) -->
     <g style="fill: #1f2933" transform="translate(215.243125 256.169555) scale(0.1 -0.1)">
      <defs>
       <path id="DejaVuSans-5b" d="M 3513 3500 
L 2247 1797 
L 3578 0 
L 2900 0 
L 1881 1375 
L 863 0 
L 184 0 
L 1544 1831 
L 300 3500 
L 978 3500 
L 1906 2253 
L 2834 3500 
L 3513 3500 
z
" transform="scale(0.015625)"/>
       <path id="DejaVuSans-3" transform="scale(0.015625)"/>
       <path id="DejaVuSans-b" d="M 1984 4856 
Q 1566 4138 1362 3434 
Q 1159 2731 1159 2009 
Q 1159 1288 1364 580 
Q 1569 -128 1984 -844 
L 1484 -844 
Q 1016 -109 783 600 
Q 550 1309 550 2009 
Q 550 2706 781 3412 
Q 1013 4119 1484 4856 
L 1984 4856 
z
" transform="scale(0.015625)"/>
       <path id="DejaVuSans-50" d="M 3328 2828 
Q 3544 3216 3844 3400 
Q 4144 3584 4550 3584 
Q 5097 3584 5394 3201 
Q 5691 2819 5691 2113 
L 5691 0 
L 5113 0 
L 5113 2094 
Q 5113 2597 4934 2840 
Q 4756 3084 4391 3084 
Q 3944 3084 3684 2787 
Q 3425 2491 3425 1978 
L 3425 0 
L 2847 0 
L 2847 2094 
Q 2847 2600 2669 2842 
Q 2491 3084 2119 3084 
Q 1678 3084 1418 2786 
Q 1159 2488 1159 1978 
L 1159 0 
L 581 0 
L 581 3500 
L 1159 3500 
L 1159 2956 
Q 1356 3278 1631 3431 
Q 1906 3584 2284 3584 
Q 2666 3584 2933 3390 
Q 3200 3197 3328 2828 
z
" transform="scale(0.015625)"/>
       <path id="DejaVuSans-c" d="M 513 4856 
L 1013 4856 
Q 1481 4119 1714 3412 
Q 1947 2706 1947 2009 
Q 1947 1309 1714 600 
Q 1481 -109 1013 -844 
L 513 -844 
Q 928 -128 1133 580 
Q 1338 1288 1338 2009 
Q 1338 2731 1133 3434 
Q 928 4138 513 4856 
z
" transform="scale(0.015625)"/>
      </defs>
      <use xlink:href="#DejaVuSans-5b"/>
      <use xlink:href="#DejaVuSans-3" transform="translate(59.1875 0)"/>
      <use xlink:href="#DejaVuSans-3" transform="translate(90.96875 0)"/>
      <use xlink:href="#DejaVuSans-b" transform="translate(122.75 0)"/>
      <use xlink:href="#DejaVuSans-50" transform="translate(161.765625 0)"/>
      <use xlink:href="#DejaVuSans-c" transform="translate(259.171875 0)"/>
     </g>
    </g>
   </g>
   <g id="matplotlib.axis_2">
    <g id="ytick_1">
     <g id="line2d_7">
      <defs>
       <path id="m5144927320" d="M 0 0 
L -3.5 0 
" style="stroke: #8a929b; stroke-width: 0.8"/>
      </defs>
      <g>
       <use xlink:href="#m5144927320" x="46.0125" y="219.011899" style="fill: #8a929b; stroke: #8a929b; stroke-width: 0.8"/>
      </g>
     </g>
     <g id="text_8">
      <!-- 0.0 -->
      <g style="fill: #8a929b" transform="translate(26.29 222.050961) scale(0.08 -0.08)">
       <defs>
        <path id="DejaVuSans-11" d="M 684 794 
L 1344 794 
L 1344 0 
L 684 0 
L 684 794 
z
" transform="scale(0.015625)"/>
       </defs>
       <use xlink:href="#DejaVuSans-13"/>
       <use xlink:href="#DejaVuSans-11" transform="translate(63.625 0)"/>
       <use xlink:href="#DejaVuSans-13" transform="translate(95.40625 0)"/>
      </g>
     </g>
    </g>
    <g id="ytick_2">
     <g id="line2d_8">
      <g>
       <use xlink:href="#m5144927320" x="46.0125" y="192.915294" style="fill: #8a929b; stroke: #8a929b; stroke-width: 0.8"/>
      </g>
     </g>
     <g id="text_9">
      <!-- 2.5 -->
      <g style="fill: #8a929b" transform="translate(26.29 195.954357) scale(0.08 -0.08)">
       <use xlink:href="#DejaVuSans-15"/>
       <use xlink:href="#DejaVuSans-11" transform="translate(63.625 0)"/>
       <use xlink:href="#DejaVuSans-18" transform="translate(95.40625 0)"/>
      </g>
     </g>
    </g>
    <g id="ytick_3">
     <g id="line2d_9">
      <g>
       <use xlink:href="#m5144927320" x="46.0125" y="166.81869" style="fill: #8a929b; stroke: #8a929b; stroke-width: 0.8"/>
      </g>
     </g>
     <g id="text_10">
      <!-- 5.0 -->
      <g style="fill: #8a929b" transform="translate(26.29 169.857752) scale(0.08 -0.08)">
       <use xlink:href="#DejaVuSans-18"/>
       <use xlink:href="#DejaVuSans-11" transform="translate(63.625 0)"/>
       <use xlink:href="#DejaVuSans-13" transform="translate(95.40625 0)"/>
      </g>
     </g>
    </g>
    <g id="ytick_4">
     <g id="line2d_10">
      <g>
       <use xlink:href="#m5144927320" x="46.0125" y="140.722085" style="fill: #8a929b; stroke: #8a929b; stroke-width: 0.8"/>
      </g>
     </g>
     <g id="text_11">
      <!-- 7.5 -->
      <g style="fill: #8a929b" transform="translate(26.29 143.761148) scale(0.08 -0.08)">
       <defs>
        <path id="DejaVuSans-1a" d="M 525 4666 
L 3525 4666 
L 3525 4397 
L 1831 0 
L 1172 0 
L 2766 4134 
L 525 4134 
L 525 4666 
z
" transform="scale(0.015625)"/>
       </defs>
       <use xlink:href="#DejaVuSans-1a"/>
       <use xlink:href="#DejaVuSans-11" transform="translate(63.625 0)"/>
       <use xlink:href="#DejaVuSans-18" transform="translate(95.40625 0)"/>
      </g>
     </g>
    </g>
    <g id="ytick_5">
     <g id="line2d_11">
      <g>
       <use xlink:href="#m5144927320" x="46.0125" y="114.625481" style="fill: #8a929b; stroke: #8a929b; stroke-width: 0.8"/>
      </g>
     </g>
     <g id="text_12">
      <!-- 10.0 -->
      <g style="fill: #8a929b" transform="translate(21.2 117.664543) scale(0.08 -0.08)">
       <use xlink:href="#DejaVuSans-14"/>
       <use xlink:href="#DejaVuSans-13" transform="translate(63.625 0)"/>
       <use xlink:href="#DejaVuSans-11" transform="translate(127.25 0)"/>
       <use xlink:href="#DejaVuSans-13" transform="translate(159.03125 0)"/>
      </g>
     </g>
    </g>
    <g id="ytick_6">
     <g id="line2d_12">
      <g>
       <use xlink:href="#m5144927320" x="46.0125" y="88.528876" style="fill: #8a929b; stroke: #8a929b; stroke-width: 0.8"/>
      </g>
     </g>
     <g id="text_13">
      <!-- 12.5 -->
      <g style="fill: #8a929b" transform="translate(21.2 91.567939) scale(0.08 -0.08)">
       <use xlink:href="#DejaVuSans-14"/>
       <use xlink:href="#DejaVuSans-15" transform="translate(63.625 0)"/>
       <use xlink:href="#DejaVuSans-11" transform="translate(127.25 0)"/>
       <use xlink:href="#DejaVuSans-18" transform="translate(159.03125 0)"/>
      </g>
     </g>
    </g>
    <g id="ytick_7">
     <g id="line2d_13">
      <g>
       <use xlink:href="#m5144927320" x="46.0125" y="62.432272" style="fill: #8a929b; stroke: #8a929b; stroke-width: 0.8"/>
      </g>
     </g>
     <g id="text_14">
      <!-- 15.0 -->
      <g style="fill: #8a929b" transform="translate(21.2 65.471334) scale(0.08 -0.08)">
       <use xlink:href="#DejaVuSans-14"/>
       <use xlink:href="#DejaVuSans-18" transform="translate(63.625 0)"/>
       <use xlink:href="#DejaVuSans-11" transform="translate(127.25 0)"/>
       <use xlink:href="#DejaVuSans-13" transform="translate(159.03125 0)"/>
      </g>
     </g>
    </g>
    <g id="ytick_8">
     <g id="line2d_14">
      <g>
       <use xlink:href="#m5144927320" x="46.0125" y="36.335667" style="fill: #8a929b; stroke: #8a929b; stroke-width: 0.8"/>
      </g>
     </g>
     <g id="text_15">
      <!-- 17.5 -->
      <g style="fill: #8a929b" transform="translate(21.2 39.37473) scale(0.08 -0.08)">
       <use xlink:href="#DejaVuSans-14"/>
       <use xlink:href="#DejaVuSans-1a" transform="translate(63.625 0)"/>
       <use xlink:href="#DejaVuSans-11" transform="translate(127.25 0)"/>
       <use xlink:href="#DejaVuSans-18" transform="translate(159.03125 0)"/>
      </g>
     </g>
    </g>
    <g id="ytick_9">
     <g id="line2d_15">
      <g>
       <use xlink:href="#m5144927320" x="46.0125" y="10.239062" style="fill: #8a929b; stroke: #8a929b; stroke-width: 0.8"/>
      </g>
     </g>
     <g id="text_16">
      <!-- 20.0 -->
      <g style="fill: #8a929b" transform="translate(21.2 13.278125) scale(0.08 -0.08)">
       <use xlink:href="#DejaVuSans-15"/>
       <use xlink:href="#DejaVuSans-13" transform="translate(63.625 0)"/>
       <use xlink:href="#DejaVuSans-11" transform="translate(127.25 0)"/>
       <use xlink:href="#DejaVuSans-13" transform="translate(159.03125 0)"/>
      </g>
     </g>
    </g>
    <g id="text_17">
     <!-- y  (m) -->
     <g style="fill: #1f2933" transform="translate(14.797656 133.601274) rotate(-90) scale(0.1 -0.1)">
      <defs>
       <path id="DejaVuSans-5c" d="M 2059 -325 
Q 1816 -950 1584 -1140 
Q 1353 -1331 966 -1331 
L 506 -1331 
L 506 -850 
L 844 -850 
Q 1081 -850 1212 -737 
Q 1344 -625 1503 -206 
L 1606 56 
L 191 3500 
L 800 3500 
L 1894 763 
L 2988 3500 
L 3597 3500 
L 2059 -325 
z
" transform="scale(0.015625)"/>
      </defs>
      <use xlink:href="#DejaVuSans-5c"/>
      <use xlink:href="#DejaVuSans-3" transform="translate(59.1875 0)"/>
      <use xlink:href="#DejaVuSans-3" transform="translate(90.96875 0)"/>
      <use xlink:href="#DejaVuSans-b" transform="translate(122.75 0)"/>
      <use xlink:href="#DejaVuSans-50" transform="translate(161.765625 0)"/>
      <use xlink:href="#DejaVuSans-c" transform="translate(259.171875 0)"/>
     </g>
    </g>
   </g>
   <g id="line2d_16">
    <path d="M 59.165357 219.011899 
L 64.324176 210.075565 
L 69.483065 201.316731 
L 74.519784 192.940838 
L 79.498813 184.835357 
L 84.422002 176.995259 
L 89.350197 169.324914 
L 94.166373 162.004513 
L 98.931858 154.935716 
L 103.648211 148.114366 
L 108.373588 141.457759 
L 112.995568 135.122474 
L 117.572748 129.023228 
L 122.161469 123.086449 
L 126.652433 117.451868 
L 131.102405 112.043399 
L 135.512537 106.858035 
L 139.937026 101.833698 
L 144.270335 97.088698 
L 148.56702 92.558526 
L 152.828072 88.240686 
L 157.105749 84.083946 
L 161.297898 80.186178 
L 165.457116 76.493801 
L 169.584228 73.004726 
L 173.729792 69.678067 
L 177.794667 66.592049 
L 181.829715 63.70351 
L 185.884295 60.979025 
L 189.861372 58.48255 
L 193.810592 56.178408 
L 197.732558 54.065043 
L 201.675172 52.118643 
L 205.543971 50.384628 
L 209.387126 48.837005 
L 213.205116 47.474408 
L 217.044512 46.282294 
L 220.813226 45.288107 
L 224.558064 44.475135 
L 228.324647 43.83557 
L 232.022567 43.383661 
L 235.697671 43.109469 
L 239.350277 43.011899 
L 243.024797 43.09189 
L 246.63295 43.346447 
L 250.219392 43.77441 
L 253.784332 44.374768 
L 257.371054 45.156946 
L 260.893325 46.101079 
L 264.394638 47.214548 
L 267.875135 48.496351 
L 271.37702 49.964191 
L 274.816011 51.58169 
L 278.234528 53.364495 
L 281.673967 55.336375 
L 285.051502 57.448791 
L 288.408766 59.723454 
L 291.745793 62.159364 
L 295.102937 64.788106 
L 298.399324 67.545264 
L 301.675527 70.460485 
L 304.931548 73.532682 
L 308.206714 76.801072 
L 311.422089 80.185781 
L 314.617233 83.724115 
L 317.830704 87.460878 
L 320.985035 91.304835 
L 324.119022 95.298909 
L 327.232623 99.441902 
L 330.363387 103.785828 
L 333.435811 108.224777 
L 336.487694 112.808917 
L 339.518977 117.536995 
L 342.566187 122.468001 
L 345.555838 127.481795 
L 348.524704 132.635603 
L 351.472743 137.928089 
L 354.435444 143.424973 
L 357.341363 148.992412 
L 360.226269 154.694416 
L 363.1249 160.601581 
L 365.967352 166.570156 
L 368.788624 172.669068 
L 371.588669 178.896908 
L 374.401199 185.330504 
L 377.158383 191.813391 
L 379.89421 198.420832 
L 382.608636 205.151376 
L 385.334335 212.087854 
L 387.986786 219.011899 
" clip-path="url(#p8f62e83c5e)" style="fill: none; stroke: #2f6f4f; stroke-width: 2.4; stroke-linecap: square"/>
   </g>
   <g id="line2d_17">
    <path d="M 59.165357 219.011899 
L 65.178599 208.6114 
L 71.25514 198.340674 
L 77.268381 188.413703 
L 83.281623 178.722249 
L 89.358164 169.168031 
L 95.371406 159.950105 
L 101.384647 150.967696 
L 107.461188 142.129987 
L 113.47443 133.621105 
L 119.487671 125.34774 
L 125.564213 117.22654 
L 131.577454 109.426703 
L 137.653995 101.78401 
L 143.667237 94.457691 
L 149.680478 87.366899 
L 155.75702 80.440714 
L 161.770261 73.823439 
L 167.783509 67.441682 
L 173.860044 61.232016 
L 179.873285 55.323786 
L 185.886533 49.651073 
L 191.963068 44.157915 
L 197.976316 38.958731 
L 203.989557 33.995063 
L 210.066092 29.218413 
L 216.07934 24.728273 
L 222.092581 20.47365 
L 228.169123 16.413498 
L 234.182364 12.632413 
L 240.195606 9.086835 
L 246.272147 5.743192 
L 252.285388 2.671141 
L 258.29863 -0.165382 
L 260.229094 -1 
M 395.19618 -1 
L 397.172882 -0.144808 
L 403.186124 2.693501 
L 409.199365 5.767336 
L 415.275906 9.112775 
L 421.289148 12.660128 
L 422.4925 13.417144 
" clip-path="url(#p8f62e83c5e)" style="fill: none; stroke-dasharray: 5.92,2.56; stroke-dashoffset: 0; stroke: #8a929b; stroke-width: 1.6"/>
   </g>
   <g id="line2d_18">
    <path d="M 46.0125 219.011899 
L 414.2925 219.011899 
" clip-path="url(#p8f62e83c5e)" style="fill: none; stroke: #d8d4c8; stroke-linecap: square"/>
   </g>
   <g id="patch_3">
    <path d="M 46.0125 229.571899 
L 46.0125 7.811899 
" style="fill: none; stroke: #d8d4c8; stroke-width: 0.8; stroke-linejoin: miter; stroke-linecap: square"/>
   </g>
   <g id="patch_4">
    <path d="M 46.0125 229.571899 
L 414.2925 229.571899 
" style="fill: none; stroke: #d8d4c8; stroke-width: 0.8; stroke-linejoin: miter; stroke-linecap: square"/>
   </g>
   <g id="text_18">
    <g id="patch_5">
     <path d="M 328.011064 213.635899 
L 383.986783 213.635899 
Q 386.310783 213.635899 386.310783 211.311899 
L 386.310783 203.011899 
Q 386.310783 200.687899 383.986783 200.687899 
L 328.011064 200.687899 
Q 325.687064 200.687899 325.687064 203.011899 
L 325.687064 211.311899 
Q 325.687064 213.635899 328.011064 213.635899 
z
" style="fill: #fbfaf7; opacity: 0.92; stroke: #d8d4c8; stroke-width: 0.6; stroke-linejoin: miter"/>
    </g>
    <!-- range 55.1 m -->
    <g style="fill: #1f2933" transform="translate(328.011064 209.317953) scale(0.083 -0.083)">
     <defs>
      <path id="DejaVuSans-55" d="M 2631 2963 
Q 2534 3019 2420 3045 
Q 2306 3072 2169 3072 
Q 1681 3072 1420 2755 
Q 1159 2438 1159 1844 
L 1159 0 
L 581 0 
L 581 3500 
L 1159 3500 
L 1159 2956 
Q 1341 3275 1631 3429 
Q 1922 3584 2338 3584 
Q 2397 3584 2469 3576 
Q 2541 3569 2628 3553 
L 2631 2963 
z
" transform="scale(0.015625)"/>
      <path id="DejaVuSans-44" d="M 2194 1759 
Q 1497 1759 1228 1600 
Q 959 1441 959 1056 
Q 959 750 1161 570 
Q 1363 391 1709 391 
Q 2188 391 2477 730 
Q 2766 1069 2766 1631 
L 2766 1759 
L 2194 1759 
z
M 3341 1997 
L 3341 0 
L 2766 0 
L 2766 531 
Q 2569 213 2275 61 
Q 1981 -91 1556 -91 
Q 1019 -91 701 211 
Q 384 513 384 1019 
Q 384 1609 779 1909 
Q 1175 2209 1959 2209 
L 2766 2209 
L 2766 2266 
Q 2766 2663 2505 2880 
Q 2244 3097 1772 3097 
Q 1472 3097 1187 3025 
Q 903 2953 641 2809 
L 641 3341 
Q 956 3463 1253 3523 
Q 1550 3584 1831 3584 
Q 2591 3584 2966 3190 
Q 3341 2797 3341 1997 
z
" transform="scale(0.015625)"/>
      <path id="DejaVuSans-51" d="M 3513 2113 
L 3513 0 
L 2938 0 
L 2938 2094 
Q 2938 2591 2744 2837 
Q 2550 3084 2163 3084 
Q 1697 3084 1428 2787 
Q 1159 2491 1159 1978 
L 1159 0 
L 581 0 
L 581 3500 
L 1159 3500 
L 1159 2956 
Q 1366 3272 1645 3428 
Q 1925 3584 2291 3584 
Q 2894 3584 3203 3211 
Q 3513 2838 3513 2113 
z
" transform="scale(0.015625)"/>
      <path id="DejaVuSans-4a" d="M 2906 1791 
Q 2906 2416 2648 2759 
Q 2391 3103 1925 3103 
Q 1463 3103 1205 2759 
Q 947 2416 947 1791 
Q 947 1169 1205 825 
Q 1463 481 1925 481 
Q 2391 481 2648 825 
Q 2906 1169 2906 1791 
z
M 3481 434 
Q 3481 -459 3084 -895 
Q 2688 -1331 1869 -1331 
Q 1566 -1331 1297 -1286 
Q 1028 -1241 775 -1147 
L 775 -588 
Q 1028 -725 1275 -790 
Q 1522 -856 1778 -856 
Q 2344 -856 2625 -561 
Q 2906 -266 2906 331 
L 2906 616 
Q 2728 306 2450 153 
Q 2172 0 1784 0 
Q 1141 0 747 490 
Q 353 981 353 1791 
Q 353 2603 747 3093 
Q 1141 3584 1784 3584 
Q 2172 3584 2450 3431 
Q 2728 3278 2906 2969 
L 2906 3500 
L 3481 3500 
L 3481 434 
z
" transform="scale(0.015625)"/>
      <path id="DejaVuSans-48" d="M 3597 1894 
L 3597 1613 
L 953 1613 
Q 991 1019 1311 708 
Q 1631 397 2203 397 
Q 2534 397 2845 478 
Q 3156 559 3463 722 
L 3463 178 
Q 3153 47 2828 -22 
Q 2503 -91 2169 -91 
Q 1331 -91 842 396 
Q 353 884 353 1716 
Q 353 2575 817 3079 
Q 1281 3584 2069 3584 
Q 2775 3584 3186 3129 
Q 3597 2675 3597 1894 
z
M 3022 2063 
Q 3016 2534 2758 2815 
Q 2500 3097 2075 3097 
Q 1594 3097 1305 2825 
Q 1016 2553 972 2059 
L 3022 2063 
z
" transform="scale(0.015625)"/>
     </defs>
     <use xlink:href="#DejaVuSans-55"/>
     <use xlink:href="#DejaVuSans-44" transform="translate(41.109375 0)"/>
     <use xlink:href="#DejaVuSans-51" transform="translate(102.390625 0)"/>
     <use xlink:href="#DejaVuSans-4a" transform="translate(165.765625 0)"/>
     <use xlink:href="#DejaVuSans-48" transform="translate(229.25 0)"/>
     <use xlink:href="#DejaVuSans-3" transform="translate(290.78125 0)"/>
     <use xlink:href="#DejaVuSans-18" transform="translate(322.5625 0)"/>
     <use xlink:href="#DejaVuSans-18" transform="translate(386.1875 0)"/>
     <use xlink:href="#DejaVuSans-11" transform="translate(449.8125 0)"/>
     <use xlink:href="#DejaVuSans-14" transform="translate(481.59375 0)"/>
     <use xlink:href="#DejaVuSans-3" transform="translate(545.21875 0)"/>
     <use xlink:href="#DejaVuSans-50" transform="translate(577 0)"/>
    </g>
   </g>
   <g id="PathCollection_1">
    <defs>
     <path id="m7691d648e8" d="M 0 3 
C 0.795609 3 1.55874 2.683901 2.12132 2.12132 
C 2.683901 1.55874 3 0.795609 3 0 
C 3 -0.795609 2.683901 -1.55874 2.12132 -2.12132 
C 1.55874 -2.683901 0.795609 -3 0 -3 
C -0.795609 -3 -1.55874 -2.683901 -2.12132 -2.12132 
C -2.683901 -1.55874 -3 -0.795609 -3 0 
C -3 0.795609 -2.683901 1.55874 -2.12132 2.12132 
C -1.55874 2.683901 -0.795609 3 0 3 
z
" style="stroke: #2f6f4f"/>
    </defs>
    <g clip-path="url(#p8f62e83c5e)">
     <use xlink:href="#m7691d648e8" x="387.986783" y="219.011899" style="fill: #2f6f4f; stroke: #2f6f4f"/>
    </g>
   </g>
   <g id="legend_1">
    <g id="line2d_19">
     <path d="M 159.159687 18.945571 
L 167.659687 18.945571 
L 176.159687 18.945571 
" style="fill: none; stroke: #2f6f4f; stroke-width: 2.4; stroke-linecap: square"/>
    </g>
    <g id="text_19">
     <!-- b = 0.01 kg/m: range 55.1 m (vs 90.0 m undamped) -->
     <g transform="translate(182.959688 21.920571) scale(0.085 -0.085)">
      <defs>
       <path id="DejaVuSans-45" d="M 3116 1747 
Q 3116 2381 2855 2742 
Q 2594 3103 2138 3103 
Q 1681 3103 1420 2742 
Q 1159 2381 1159 1747 
Q 1159 1113 1420 752 
Q 1681 391 2138 391 
Q 2594 391 2855 752 
Q 3116 1113 3116 1747 
z
M 1159 2969 
Q 1341 3281 1617 3432 
Q 1894 3584 2278 3584 
Q 2916 3584 3314 3078 
Q 3713 2572 3713 1747 
Q 3713 922 3314 415 
Q 2916 -91 2278 -91 
Q 1894 -91 1617 61 
Q 1341 213 1159 525 
L 1159 0 
L 581 0 
L 581 4863 
L 1159 4863 
L 1159 2969 
z
" transform="scale(0.015625)"/>
       <path id="DejaVuSans-20" d="M 678 2906 
L 4684 2906 
L 4684 2381 
L 678 2381 
L 678 2906 
z
M 678 1631 
L 4684 1631 
L 4684 1100 
L 678 1100 
L 678 1631 
z
" transform="scale(0.015625)"/>
       <path id="DejaVuSans-4e" d="M 581 4863 
L 1159 4863 
L 1159 1991 
L 2875 3500 
L 3609 3500 
L 1753 1863 
L 3688 0 
L 2938 0 
L 1159 1709 
L 1159 0 
L 581 0 
L 581 4863 
z
" transform="scale(0.015625)"/>
       <path id="DejaVuSans-12" d="M 1625 4666 
L 2156 4666 
L 531 -594 
L 0 -594 
L 1625 4666 
z
" transform="scale(0.015625)"/>
       <path id="DejaVuSans-1d" d="M 750 794 
L 1409 794 
L 1409 0 
L 750 0 
L 750 794 
z
M 750 3309 
L 1409 3309 
L 1409 2516 
L 750 2516 
L 750 3309 
z
" transform="scale(0.015625)"/>
       <path id="DejaVuSans-59" d="M 191 3500 
L 800 3500 
L 1894 563 
L 2988 3500 
L 3597 3500 
L 2284 0 
L 1503 0 
L 191 3500 
z
" transform="scale(0.015625)"/>
       <path id="DejaVuSans-56" d="M 2834 3397 
L 2834 2853 
Q 2591 2978 2328 3040 
Q 2066 3103 1784 3103 
Q 1356 3103 1142 2972 
Q 928 2841 928 2578 
Q 928 2378 1081 2264 
Q 1234 2150 1697 2047 
L 1894 2003 
Q 2506 1872 2764 1633 
Q 3022 1394 3022 966 
Q 3022 478 2636 193 
Q 2250 -91 1575 -91 
Q 1294 -91 989 -36 
Q 684 19 347 128 
L 347 722 
Q 666 556 975 473 
Q 1284 391 1588 391 
Q 1994 391 2212 530 
Q 2431 669 2431 922 
Q 2431 1156 2273 1281 
Q 2116 1406 1581 1522 
L 1381 1569 
Q 847 1681 609 1914 
Q 372 2147 372 2553 
Q 372 3047 722 3315 
Q 1072 3584 1716 3584 
Q 2034 3584 2315 3537 
Q 2597 3491 2834 3397 
z
" transform="scale(0.015625)"/>
       <path id="DejaVuSans-1c" d="M 703 97 
L 703 672 
Q 941 559 1184 500 
Q 1428 441 1663 441 
Q 2288 441 2617 861 
Q 2947 1281 2994 2138 
Q 2813 1869 2534 1725 
Q 2256 1581 1919 1581 
Q 1219 1581 811 2004 
Q 403 2428 403 3163 
Q 403 3881 828 4315 
Q 1253 4750 1959 4750 
Q 2769 4750 3195 4129 
Q 3622 3509 3622 2328 
Q 3622 1225 3098 567 
Q 2575 -91 1691 -91 
Q 1453 -91 1209 -44 
Q 966 3 703 97 
z
M 1959 2075 
Q 2384 2075 2632 2365 
Q 2881 2656 2881 3163 
Q 2881 3666 2632 3958 
Q 2384 4250 1959 4250 
Q 1534 4250 1286 3958 
Q 1038 3666 1038 3163 
Q 1038 2656 1286 2365 
Q 1534 2075 1959 2075 
z
" transform="scale(0.015625)"/>
       <path id="DejaVuSans-58" d="M 544 1381 
L 544 3500 
L 1119 3500 
L 1119 1403 
Q 1119 906 1312 657 
Q 1506 409 1894 409 
Q 2359 409 2629 706 
Q 2900 1003 2900 1516 
L 2900 3500 
L 3475 3500 
L 3475 0 
L 2900 0 
L 2900 538 
Q 2691 219 2414 64 
Q 2138 -91 1772 -91 
Q 1169 -91 856 284 
Q 544 659 544 1381 
z
M 1991 3584 
L 1991 3584 
z
" transform="scale(0.015625)"/>
       <path id="DejaVuSans-47" d="M 2906 2969 
L 2906 4863 
L 3481 4863 
L 3481 0 
L 2906 0 
L 2906 525 
Q 2725 213 2448 61 
Q 2172 -91 1784 -91 
Q 1150 -91 751 415 
Q 353 922 353 1747 
Q 353 2572 751 3078 
Q 1150 3584 1784 3584 
Q 2172 3584 2448 3432 
Q 2725 3281 2906 2969 
z
M 947 1747 
Q 947 1113 1208 752 
Q 1469 391 1925 391 
Q 2381 391 2643 752 
Q 2906 1113 2906 1747 
Q 2906 2381 2643 2742 
Q 2381 3103 1925 3103 
Q 1469 3103 1208 2742 
Q 947 2381 947 1747 
z
" transform="scale(0.015625)"/>
       <path id="DejaVuSans-53" d="M 1159 525 
L 1159 -1331 
L 581 -1331 
L 581 3500 
L 1159 3500 
L 1159 2969 
Q 1341 3281 1617 3432 
Q 1894 3584 2278 3584 
Q 2916 3584 3314 3078 
Q 3713 2572 3713 1747 
Q 3713 922 3314 415 
Q 2916 -91 2278 -91 
Q 1894 -91 1617 61 
Q 1341 213 1159 525 
z
M 3116 1747 
Q 3116 2381 2855 2742 
Q 2594 3103 2138 3103 
Q 1681 3103 1420 2742 
Q 1159 2381 1159 1747 
Q 1159 1113 1420 752 
Q 1681 391 2138 391 
Q 2594 391 2855 752 
Q 3116 1113 3116 1747 
z
" transform="scale(0.015625)"/>
      </defs>
      <use xlink:href="#DejaVuSans-45"/>
      <use xlink:href="#DejaVuSans-3" transform="translate(63.484375 0)"/>
      <use xlink:href="#DejaVuSans-20" transform="translate(95.265625 0)"/>
      <use xlink:href="#DejaVuSans-3" transform="translate(179.0625 0)"/>
      <use xlink:href="#DejaVuSans-13" transform="translate(210.84375 0)"/>
      <use xlink:href="#DejaVuSans-11" transform="translate(274.46875 0)"/>
      <use xlink:href="#DejaVuSans-13" transform="translate(306.25 0)"/>
      <use xlink:href="#DejaVuSans-14" transform="translate(369.875 0)"/>
      <use xlink:href="#DejaVuSans-3" transform="translate(433.5 0)"/>
      <use xlink:href="#DejaVuSans-4e" transform="translate(465.28125 0)"/>
      <use xlink:href="#DejaVuSans-4a" transform="translate(523.1875 0)"/>
      <use xlink:href="#DejaVuSans-12" transform="translate(586.671875 0)"/>
      <use xlink:href="#DejaVuSans-50" transform="translate(620.359375 0)"/>
      <use xlink:href="#DejaVuSans-1d" transform="translate(717.765625 0)"/>
      <use xlink:href="#DejaVuSans-3" transform="translate(751.453125 0)"/>
      <use xlink:href="#DejaVuSans-55" transform="translate(783.234375 0)"/>
      <use xlink:href="#DejaVuSans-44" transform="translate(824.34375 0)"/>
      <use xlink:href="#DejaVuSans-51" transform="translate(885.625 0)"/>
      <use xlink:href="#DejaVuSans-4a" transform="translate(949 0)"/>
      <use xlink:href="#DejaVuSans-48" transform="translate(1012.484375 0)"/>
      <use xlink:href="#DejaVuSans-3" transform="translate(1074.015625 0)"/>
      <use xlink:href="#DejaVuSans-18" transform="translate(1105.796875 0)"/>
      <use xlink:href="#DejaVuSans-18" transform="translate(1169.421875 0)"/>
      <use xlink:href="#DejaVuSans-11" transform="translate(1233.046875 0)"/>
      <use xlink:href="#DejaVuSans-14" transform="translate(1264.828125 0)"/>
      <use xlink:href="#DejaVuSans-3" transform="translate(1328.453125 0)"/>
      <use xlink:href="#DejaVuSans-50" transform="translate(1360.234375 0)"/>
      <use xlink:href="#DejaVuSans-3" transform="translate(1457.640625 0)"/>
      <use xlink:href="#DejaVuSans-b" transform="translate(1489.421875 0)"/>
      <use xlink:href="#DejaVuSans-59" transform="translate(1528.4375 0)"/>
      <use xlink:href="#DejaVuSans-56" transform="translate(1587.625 0)"/>
      <use xlink:href="#DejaVuSans-3" transform="translate(1639.71875 0)"/>
      <use xlink:href="#DejaVuSans-1c" transform="translate(1671.5 0)"/>
      <use xlink:href="#DejaVuSans-13" transform="translate(1735.125 0)"/>
      <use xlink:href="#DejaVuSans-11" transform="translate(1798.75 0)"/>
      <use xlink:href="#DejaVuSans-13" transform="translate(1830.53125 0)"/>
      <use xlink:href="#DejaVuSans-3" transform="translate(1894.15625 0)"/>
      <use xlink:href="#DejaVuSans-50" transform="translate(1925.9375 0)"/>
      <use xlink:href="#DejaVuSans-3" transform="translate(2023.34375 0)"/>
      <use xlink:href="#DejaVuSans-58" transform="translate(2055.125 0)"/>
      <use xlink:href="#DejaVuSans-51" transform="translate(2118.5 0)"/>
      <use xlink:href="#DejaVuSans-47" transform="translate(2181.875 0)"/>
      <use xlink:href="#DejaVuSans-44" transform="translate(2245.359375 0)"/>
      <use xlink:href="#DejaVuSans-50" transform="translate(2306.640625 0)"/>
      <use xlink:href="#DejaVuSans-53" transform="translate(2404.046875 0)"/>
      <use xlink:href="#DejaVuSans-48" transform="translate(2467.53125 0)"/>
      <use xlink:href="#DejaVuSans-47" transform="translate(2529.0625 0)"/>
      <use xlink:href="#DejaVuSans-c" transform="translate(2592.546875 0)"/>
     </g>
    </g>
    <g id="line2d_20">
     <path d="M 159.159687 31.696235 
L 167.659687 31.696235 
L 176.159687 31.696235 
" style="fill: none; stroke-dasharray: 5.92,2.56; stroke-dashoffset: 0; stroke: #8a929b; stroke-width: 1.6"/>
    </g>
    <g id="text_20">
     <!-- no drag -->
     <g transform="translate(182.959688 34.671235) scale(0.085 -0.085)">
      <defs>
       <path id="DejaVuSans-52" d="M 1959 3097 
Q 1497 3097 1228 2736 
Q 959 2375 959 1747 
Q 959 1119 1226 758 
Q 1494 397 1959 397 
Q 2419 397 2687 759 
Q 2956 1122 2956 1747 
Q 2956 2369 2687 2733 
Q 2419 3097 1959 3097 
z
M 1959 3584 
Q 2709 3584 3137 3096 
Q 3566 2609 3566 1747 
Q 3566 888 3137 398 
Q 2709 -91 1959 -91 
Q 1206 -91 779 398 
Q 353 888 353 1747 
Q 353 2609 779 3096 
Q 1206 3584 1959 3584 
z
" transform="scale(0.015625)"/>
      </defs>
      <use xlink:href="#DejaVuSans-51"/>
      <use xlink:href="#DejaVuSans-52" transform="translate(63.375 0)"/>
      <use xlink:href="#DejaVuSans-3" transform="translate(124.5625 0)"/>
      <use xlink:href="#DejaVuSans-47" transform="translate(156.34375 0)"/>
      <use xlink:href="#DejaVuSans-55" transform="translate(219.828125 0)"/>
      <use xlink:href="#DejaVuSans-44" transform="translate(260.9375 0)"/>
      <use xlink:href="#DejaVuSans-4a" transform="translate(322.21875 0)"/>
     </g>
    </g>
   </g>
  </g>
 </g>
 <defs>
  <clipPath id="p8f62e83c5e">
   <rect x="46.0125" y="7.811899" width="368.28" height="221.76"/>
  </clipPath>
 </defs>
</svg>
