<?xml version="1.0" encoding="utf-8" standalone="no"?>
<!DOCTYPE svg PUBLIC "-//W3C//DTD SVG 1.1//EN"
  "http://www.w3.org/Graphics/SVG/1.1/DTD/svg11.dtd">
<svg xmlns:xlink="http://www.w3.org/1999/xlink" width="419.23875pt" height="353.942906pt" viewBox="0 0 419.23875 353.942906" xmlns="http://www.w3.org/2000/svg" version="1.1">
 <metadata>
  <rdf:RDF xmlns:dc="http://purl.org/dc/elements/1.1/" xmlns:cc="http://creativecommons.org/ns#" xmlns:rdf="http://www.w3.org/1999/02/22-rdf-syntax-ns#">
   <cc:Work>
    <dc:type rdf:resource="http://purl.org/dc/dcmitype/StillImage"/>
    <dc:date>2026-06-26T19:42:18.773552</dc:date>
    <dc:format>image/svg+xml</dc:format>
    <dc:creator>
     <cc:Agent>
      <dc:title>Matplotlib v3.11.0, https://matplotlib.org/</dc:title>
     </cc:Agent>
    </dc:creator>
   </cc:Work>
  </rdf:RDF>
 </metadata>
 <defs>
  <style type="text/css">*{stroke-linejoin: round; stroke-linecap: butt}</style>
 </defs>
 <g id="figure_1">
  <g id="patch_1">
   <path d="M 0 353.942906 
L 419.23875 353.942906 
L 419.23875 0 
L 0 0 
z
" style="fill: #fbfaf7"/>
  </g>
  <g id="axes_1">
   <g id="patch_2">
    <path d="M 46.0125 152.276636 
L 403.1325 152.276636 
L 403.1325 7.2 
L 46.0125 7.2 
z
" style="fill: #fbfaf7"/>
   </g>
   <g id="FillBetweenPolyCollection_1">
    <defs>
     <path id="m04d5fb073e" d="M 46.0125 -212.826012 
L 46.0125 -212.826012 
L 47.506726 -213.292947 
L 49.000952 -213.759881 
L 50.495178 -214.226816 
L 51.989404 -214.693751 
L 53.48363 -215.160686 
L 54.977856 -215.627621 
L 56.472082 -216.094555 
L 57.966308 -216.56149 
L 59.460533 -217.028425 
L 60.954759 -217.49536 
L 62.448985 -217.962294 
L 63.943211 -218.429229 
L 65.437437 -218.896164 
L 66.931663 -219.363099 
L 68.425889 -219.830034 
L 69.920115 -220.296968 
L 71.414341 -220.763903 
L 72.908567 -221.230838 
L 74.402793 -221.697773 
L 75.897019 -222.164707 
L 77.391245 -222.631642 
L 78.885471 -223.098577 
L 80.379697 -223.565512 
L 81.873923 -224.032447 
L 83.368149 -224.499381 
L 84.862374 -224.966316 
L 86.3566 -225.433251 
L 87.850826 -225.900186 
L 89.345052 -226.36712 
L 90.839278 -226.834055 
L 92.333504 -227.30099 
L 93.82773 -227.767925 
L 95.321956 -228.23486 
L 96.816182 -228.701794 
L 98.310408 -229.168729 
L 99.804634 -229.635664 
L 101.29886 -230.102599 
L 102.793086 -230.569533 
L 104.287312 -231.036468 
L 105.781538 -231.503403 
L 107.275764 -231.970338 
L 108.76999 -232.437273 
L 110.264215 -232.904207 
L 111.758441 -233.371142 
L 113.252667 -233.838077 
L 114.746893 -234.305012 
L 116.241119 -234.771946 
L 117.735345 -235.238881 
L 119.229571 -235.705816 
L 120.723797 -236.172751 
L 122.218023 -236.639686 
L 123.712249 -237.10662 
L 125.206475 -237.573555 
L 126.700701 -238.04049 
L 128.194927 -238.507425 
L 129.689153 -238.974359 
L 131.183379 -239.441294 
L 132.677605 -239.908229 
L 134.171831 -240.375164 
L 135.666056 -240.842099 
L 137.160282 -241.309033 
L 138.654508 -241.775968 
L 140.148734 -242.242903 
L 141.64296 -242.709838 
L 143.137186 -243.176772 
L 144.631412 -243.643707 
L 146.125638 -244.110642 
L 147.619864 -244.577577 
L 149.11409 -245.044512 
L 150.608316 -245.511446 
L 152.102542 -245.978381 
L 153.596768 -246.445316 
L 155.090994 -246.912251 
L 156.58522 -247.379185 
L 158.079446 -247.84612 
L 159.573672 -248.313055 
L 161.067897 -248.77999 
L 162.562123 -249.246925 
L 164.056349 -249.713859 
L 165.550575 -250.180794 
L 167.044801 -250.647729 
L 168.539027 -251.114664 
L 170.033253 -251.581599 
L 171.527479 -252.048533 
L 173.021705 -252.515468 
L 174.515931 -252.982403 
L 176.010157 -253.449338 
L 177.504383 -253.916272 
L 178.998609 -254.383207 
L 180.492835 -254.850142 
L 181.987061 -255.317077 
L 183.481287 -255.784012 
L 184.975513 -256.250946 
L 186.469738 -256.717881 
L 187.963964 -257.184816 
L 189.45819 -257.651751 
L 190.952416 -258.118685 
L 192.446642 -258.58562 
L 193.940868 -259.052555 
L 195.435094 -259.51949 
L 196.92932 -259.986425 
L 198.423546 -260.453359 
L 199.917772 -260.920294 
L 201.411998 -261.387229 
L 202.906224 -261.854164 
L 204.40045 -262.321098 
L 205.894676 -262.788033 
L 207.388902 -263.254968 
L 208.883128 -263.721903 
L 210.377354 -264.188838 
L 211.871579 -264.655772 
L 213.365805 -265.122707 
L 214.860031 -265.589642 
L 216.354257 -266.056577 
L 217.848483 -266.523511 
L 219.342709 -266.990446 
L 220.836935 -267.457381 
L 222.331161 -267.924316 
L 223.825387 -268.391251 
L 225.319613 -268.858185 
L 226.813839 -269.32512 
L 228.308065 -269.792055 
L 229.802291 -270.25899 
L 231.296517 -270.725924 
L 232.790743 -271.192859 
L 234.284969 -271.659794 
L 235.779195 -272.126729 
L 237.273421 -272.593664 
L 238.767646 -273.060598 
L 240.261872 -273.527533 
L 241.756098 -273.994468 
L 243.250324 -274.461403 
L 244.74455 -274.928337 
L 246.238776 -275.395272 
L 247.733002 -275.862207 
L 249.227228 -276.329142 
L 250.721454 -276.796077 
L 252.21568 -277.263011 
L 253.709906 -277.729946 
L 255.204132 -278.196881 
L 256.698358 -278.663816 
L 258.192584 -279.13075 
L 259.68681 -279.597685 
L 261.181036 -280.06462 
L 262.675262 -280.531555 
L 264.169487 -280.99849 
L 265.663713 -281.465424 
L 267.157939 -281.932359 
L 268.652165 -282.399294 
L 270.146391 -282.866229 
L 271.640617 -283.333163 
L 273.134843 -283.800098 
L 274.629069 -284.267033 
L 276.123295 -284.733968 
L 277.617521 -285.200903 
L 279.111747 -285.667837 
L 280.605973 -286.134772 
L 282.100199 -286.601707 
L 283.594425 -287.068642 
L 285.088651 -287.535576 
L 286.582877 -288.002511 
L 288.077103 -288.469446 
L 289.571328 -288.936381 
L 291.065554 -289.403316 
L 292.55978 -289.87025 
L 294.054006 -290.337185 
L 295.548232 -290.80412 
L 297.042458 -291.271055 
L 298.536684 -291.737989 
L 300.03091 -292.204924 
L 301.525136 -292.671859 
L 303.019362 -293.138794 
L 304.513588 -293.605729 
L 306.007814 -294.072663 
L 307.50204 -294.539598 
L 308.996266 -295.006533 
L 310.490492 -295.473468 
L 311.984718 -295.940402 
L 313.478944 -296.407337 
L 314.973169 -296.874272 
L 316.467395 -297.341207 
L 317.961621 -297.808142 
L 319.455847 -298.275076 
L 320.950073 -298.742011 
L 322.444299 -299.208946 
L 323.938525 -299.675881 
L 325.432751 -300.142815 
L 326.926977 -300.60975 
L 328.421203 -301.076685 
L 329.915429 -301.54362 
L 331.409655 -302.010555 
L 332.903881 -302.477489 
L 334.398107 -302.944424 
L 335.892333 -303.411359 
L 337.386559 -303.878294 
L 338.880785 -304.345228 
L 340.37501 -304.812163 
L 341.869236 -305.279098 
L 343.363462 -305.746033 
L 344.857688 -306.212968 
L 346.351914 -306.679902 
L 347.84614 -307.146837 
L 349.340366 -307.613772 
L 350.834592 -308.080707 
L 352.328818 -308.547641 
L 353.823044 -309.014576 
L 355.31727 -309.481511 
L 356.811496 -309.948446 
L 358.305722 -310.415381 
L 359.799948 -310.882315 
L 361.294174 -311.34925 
L 362.7884 -311.816185 
L 364.282626 -312.28312 
L 365.776851 -312.750054 
L 367.271077 -313.216989 
L 368.765303 -313.683924 
L 370.259529 -314.150859 
L 371.753755 -314.617794 
L 373.247981 -315.084728 
L 374.742207 -315.551663 
L 376.236433 -316.018598 
L 377.730659 -316.485533 
L 379.224885 -316.952467 
L 380.719111 -317.419402 
L 382.213337 -317.886337 
L 383.707563 -318.353272 
L 385.201789 -318.820207 
L 386.696015 -319.287141 
L 388.190241 -319.754076 
L 389.684467 -320.221011 
L 391.178692 -320.687946 
L 392.672918 -321.15488 
L 394.167144 -321.621815 
L 395.66137 -322.08875 
L 397.155596 -322.555685 
L 398.649822 -323.02262 
L 400.144048 -323.489554 
L 401.638274 -323.956489 
L 403.1325 -324.423424 
L 403.1325 -212.826012 
L 403.1325 -212.826012 
L 401.638274 -212.826012 
L 400.144048 -212.826012 
L 398.649822 -212.826012 
L 397.155596 -212.826012 
L 395.66137 -212.826012 
L 394.167144 -212.826012 
L 392.672918 -212.826012 
L 391.178692 -212.826012 
L 389.684467 -212.826012 
L 388.190241 -212.826012 
L 386.696015 -212.826012 
L 385.201789 -212.826012 
L 383.707563 -212.826012 
L 382.213337 -212.826012 
L 380.719111 -212.826012 
L 379.224885 -212.826012 
L 377.730659 -212.826012 
L 376.236433 -212.826012 
L 374.742207 -212.826012 
L 373.247981 -212.826012 
L 371.753755 -212.826012 
L 370.259529 -212.826012 
L 368.765303 -212.826012 
L 367.271077 -212.826012 
L 365.776851 -212.826012 
L 364.282626 -212.826012 
L 362.7884 -212.826012 
L 361.294174 -212.826012 
L 359.799948 -212.826012 
L 358.305722 -212.826012 
L 356.811496 -212.826012 
L 355.31727 -212.826012 
L 353.823044 -212.826012 
L 352.328818 -212.826012 
L 350.834592 -212.826012 
L 349.340366 -212.826012 
L 347.84614 -212.826012 
L 346.351914 -212.826012 
L 344.857688 -212.826012 
L 343.363462 -212.826012 
L 341.869236 -212.826012 
L 340.37501 -212.826012 
L 338.880785 -212.826012 
L 337.386559 -212.826012 
L 335.892333 -212.826012 
L 334.398107 -212.826012 
L 332.903881 -212.826012 
L 331.409655 -212.826012 
L 329.915429 -212.826012 
L 328.421203 -212.826012 
L 326.926977 -212.826012 
L 325.432751 -212.826012 
L 323.938525 -212.826012 
L 322.444299 -212.826012 
L 320.950073 -212.826012 
L 319.455847 -212.826012 
L 317.961621 -212.826012 
L 316.467395 -212.826012 
L 314.973169 -212.826012 
L 313.478944 -212.826012 
L 311.984718 -212.826012 
L 310.490492 -212.826012 
L 308.996266 -212.826012 
L 307.50204 -212.826012 
L 306.007814 -212.826012 
L 304.513588 -212.826012 
L 303.019362 -212.826012 
L 301.525136 -212.826012 
L 300.03091 -212.826012 
L 298.536684 -212.826012 
L 297.042458 -212.826012 
L 295.548232 -212.826012 
L 294.054006 -212.826012 
L 292.55978 -212.826012 
L 291.065554 -212.826012 
L 289.571328 -212.826012 
L 288.077103 -212.826012 
L 286.582877 -212.826012 
L 285.088651 -212.826012 
L 283.594425 -212.826012 
L 282.100199 -212.826012 
L 280.605973 -212.826012 
L 279.111747 -212.826012 
L 277.617521 -212.826012 
L 276.123295 -212.826012 
L 274.629069 -212.826012 
L 273.134843 -212.826012 
L 271.640617 -212.826012 
L 270.146391 -212.826012 
L 268.652165 -212.826012 
L 267.157939 -212.826012 
L 265.663713 -212.826012 
L 264.169487 -212.826012 
L 262.675262 -212.826012 
L 261.181036 -212.826012 
L 259.68681 -212.826012 
L 258.192584 -212.826012 
L 256.698358 -212.826012 
L 255.204132 -212.826012 
L 253.709906 -212.826012 
L 252.21568 -212.826012 
L 250.721454 -212.826012 
L 249.227228 -212.826012 
L 247.733002 -212.826012 
L 246.238776 -212.826012 
L 244.74455 -212.826012 
L 243.250324 -212.826012 
L 241.756098 -212.826012 
L 240.261872 -212.826012 
L 238.767646 -212.826012 
L 237.273421 -212.826012 
L 235.779195 -212.826012 
L 234.284969 -212.826012 
L 232.790743 -212.826012 
L 231.296517 -212.826012 
L 229.802291 -212.826012 
L 228.308065 -212.826012 
L 226.813839 -212.826012 
L 225.319613 -212.826012 
L 223.825387 -212.826012 
L 222.331161 -212.826012 
L 220.836935 -212.826012 
L 219.342709 -212.826012 
L 217.848483 -212.826012 
L 216.354257 -212.826012 
L 214.860031 -212.826012 
L 213.365805 -212.826012 
L 211.871579 -212.826012 
L 210.377354 -212.826012 
L 208.883128 -212.826012 
L 207.388902 -212.826012 
L 205.894676 -212.826012 
L 204.40045 -212.826012 
L 202.906224 -212.826012 
L 201.411998 -212.826012 
L 199.917772 -212.826012 
L 198.423546 -212.826012 
L 196.92932 -212.826012 
L 195.435094 -212.826012 
L 193.940868 -212.826012 
L 192.446642 -212.826012 
L 190.952416 -212.826012 
L 189.45819 -212.826012 
L 187.963964 -212.826012 
L 186.469738 -212.826012 
L 184.975513 -212.826012 
L 183.481287 -212.826012 
L 181.987061 -212.826012 
L 180.492835 -212.826012 
L 178.998609 -212.826012 
L 177.504383 -212.826012 
L 176.010157 -212.826012 
L 174.515931 -212.826012 
L 173.021705 -212.826012 
L 171.527479 -212.826012 
L 170.033253 -212.826012 
L 168.539027 -212.826012 
L 167.044801 -212.826012 
L 165.550575 -212.826012 
L 164.056349 -212.826012 
L 162.562123 -212.826012 
L 161.067897 -212.826012 
L 159.573672 -212.826012 
L 158.079446 -212.826012 
L 156.58522 -212.826012 
L 155.090994 -212.826012 
L 153.596768 -212.826012 
L 152.102542 -212.826012 
L 150.608316 -212.826012 
L 149.11409 -212.826012 
L 147.619864 -212.826012 
L 146.125638 -212.826012 
L 144.631412 -212.826012 
L 143.137186 -212.826012 
L 141.64296 -212.826012 
L 140.148734 -212.826012 
L 138.654508 -212.826012 
L 137.160282 -212.826012 
L 135.666056 -212.826012 
L 134.171831 -212.826012 
L 132.677605 -212.826012 
L 131.183379 -212.826012 
L 129.689153 -212.826012 
L 128.194927 -212.826012 
L 126.700701 -212.826012 
L 125.206475 -212.826012 
L 123.712249 -212.826012 
L 122.218023 -212.826012 
L 120.723797 -212.826012 
L 119.229571 -212.826012 
L 117.735345 -212.826012 
L 116.241119 -212.826012 
L 114.746893 -212.826012 
L 113.252667 -212.826012 
L 111.758441 -212.826012 
L 110.264215 -212.826012 
L 108.76999 -212.826012 
L 107.275764 -212.826012 
L 105.781538 -212.826012 
L 104.287312 -212.826012 
L 102.793086 -212.826012 
L 101.29886 -212.826012 
L 99.804634 -212.826012 
L 98.310408 -212.826012 
L 96.816182 -212.826012 
L 95.321956 -212.826012 
L 93.82773 -212.826012 
L 92.333504 -212.826012 
L 90.839278 -212.826012 
L 89.345052 -212.826012 
L 87.850826 -212.826012 
L 86.3566 -212.826012 
L 84.862374 -212.826012 
L 83.368149 -212.826012 
L 81.873923 -212.826012 
L 80.379697 -212.826012 
L 78.885471 -212.826012 
L 77.391245 -212.826012 
L 75.897019 -212.826012 
L 74.402793 -212.826012 
L 72.908567 -212.826012 
L 71.414341 -212.826012 
L 69.920115 -212.826012 
L 68.425889 -212.826012 
L 66.931663 -212.826012 
L 65.437437 -212.826012 
L 63.943211 -212.826012 
L 62.448985 -212.826012 
L 60.954759 -212.826012 
L 59.460533 -212.826012 
L 57.966308 -212.826012 
L 56.472082 -212.826012 
L 54.977856 -212.826012 
L 53.48363 -212.826012 
L 51.989404 -212.826012 
L 50.495178 -212.826012 
L 49.000952 -212.826012 
L 47.506726 -212.826012 
L 46.0125 -212.826012 
z
"/>
    </defs>
    <g clip-path="url(#p20f87993c9)">
     <use xlink:href="#m04d5fb073e" x="0" y="353.942906" style="fill: #2f6f4f; fill-opacity: 0.16"/>
    </g>
   </g>
   <g id="matplotlib.axis_1">
    <g id="xtick_1">
     <g id="line2d_1">
      <defs>
       <path id="mbaa46cf2f4" d="M 0 0 
L 0 3.5 
" style="stroke: #8a929b; stroke-width: 0.8"/>
      </defs>
      <g>
       <use xlink:href="#mbaa46cf2f4" x="46.0125" y="152.276636" style="fill: #8a929b; stroke: #8a929b; stroke-width: 0.8"/>
      </g>
     </g>
    </g>
    <g id="xtick_2">
     <g id="line2d_2">
      <g>
       <use xlink:href="#mbaa46cf2f4" x="90.6525" y="152.276636" style="fill: #8a929b; stroke: #8a929b; stroke-width: 0.8"/>
      </g>
     </g>
    </g>
    <g id="xtick_3">
     <g id="line2d_3">
      <g>
       <use xlink:href="#mbaa46cf2f4" x="135.2925" y="152.276636" style="fill: #8a929b; stroke: #8a929b; stroke-width: 0.8"/>
      </g>
     </g>
    </g>
    <g id="xtick_4">
     <g id="line2d_4">
      <g>
       <use xlink:href="#mbaa46cf2f4" x="179.9325" y="152.276636" style="fill: #8a929b; stroke: #8a929b; stroke-width: 0.8"/>
      </g>
     </g>
    </g>
    <g id="xtick_5">
     <g id="line2d_5">
      <g>
       <use xlink:href="#mbaa46cf2f4" x="224.5725" y="152.276636" style="fill: #8a929b; stroke: #8a929b; stroke-width: 0.8"/>
      </g>
     </g>
    </g>
    <g id="xtick_6">
     <g id="line2d_6">
      <g>
       <use xlink:href="#mbaa46cf2f4" x="269.2125" y="152.276636" style="fill: #8a929b; stroke: #8a929b; stroke-width: 0.8"/>
      </g>
     </g>
    </g>
    <g id="xtick_7">
     <g id="line2d_7">
      <g>
       <use xlink:href="#mbaa46cf2f4" x="313.8525" y="152.276636" style="fill: #8a929b; stroke: #8a929b; stroke-width: 0.8"/>
      </g>
     </g>
    </g>
    <g id="xtick_8">
     <g id="line2d_8">
      <g>
       <use xlink:href="#mbaa46cf2f4" x="358.4925" y="152.276636" style="fill: #8a929b; stroke: #8a929b; stroke-width: 0.8"/>
      </g>
     </g>
    </g>
    <g id="xtick_9">
     <g id="line2d_9">
      <g>
       <use xlink:href="#mbaa46cf2f4" x="403.1325" y="152.276636" style="fill: #8a929b; stroke: #8a929b; stroke-width: 0.8"/>
      </g>
     </g>
    </g>
   </g>
   <g id="matplotlib.axis_2">
    <g id="ytick_1">
     <g id="line2d_10">
      <defs>
       <path id="mf4dc6debb4" d="M 0 0 
L -3.5 0 
" style="stroke: #8a929b; stroke-width: 0.8"/>
      </defs>
      <g>
       <use xlink:href="#mf4dc6debb4" x="46.0125" y="141.116894" style="fill: #8a929b; stroke: #8a929b; stroke-width: 0.8"/>
      </g>
     </g>
     <g id="text_1">
      <!-- 0.0 -->
      <g style="fill: #8a929b" transform="translate(26.29 144.155957) scale(0.08 -0.08)">
       <defs>
        <path id="DejaVuSans-13" d="M 2034 4250 
Q 1547 4250 1301 3770 
Q 1056 3291 1056 2328 
Q 1056 1369 1301 889 
Q 1547 409 2034 409 
Q 2525 409 2770 889 
Q 3016 1369 3016 2328 
Q 3016 3291 2770 3770 
Q 2525 4250 2034 4250 
z
M 2034 4750 
Q 2819 4750 3233 4129 
Q 3647 3509 3647 2328 
Q 3647 1150 3233 529 
Q 2819 -91 2034 -91 
Q 1250 -91 836 529 
Q 422 1150 422 2328 
Q 422 3509 836 4129 
Q 1250 4750 2034 4750 
z
" transform="scale(0.015625)"/>
        <path id="DejaVuSans-11" d="M 684 794 
L 1344 794 
L 1344 0 
L 684 0 
L 684 794 
z
" transform="scale(0.015625)"/>
       </defs>
       <use xlink:href="#DejaVuSans-13"/>
       <use xlink:href="#DejaVuSans-11" transform="translate(63.625 0)"/>
       <use xlink:href="#DejaVuSans-13" transform="translate(95.40625 0)"/>
      </g>
     </g>
    </g>
    <g id="ytick_2">
     <g id="line2d_11">
      <g>
       <use xlink:href="#mf4dc6debb4" x="46.0125" y="123.679799" style="fill: #8a929b; stroke: #8a929b; stroke-width: 0.8"/>
      </g>
     </g>
     <g id="text_2">
      <!-- 2.5 -->
      <g style="fill: #8a929b" transform="translate(26.29 126.718861) scale(0.08 -0.08)">
       <defs>
        <path id="DejaVuSans-15" d="M 1228 531 
L 3431 531 
L 3431 0 
L 469 0 
L 469 531 
Q 828 903 1448 1529 
Q 2069 2156 2228 2338 
Q 2531 2678 2651 2914 
Q 2772 3150 2772 3378 
Q 2772 3750 2511 3984 
Q 2250 4219 1831 4219 
Q 1534 4219 1204 4116 
Q 875 4013 500 3803 
L 500 4441 
Q 881 4594 1212 4672 
Q 1544 4750 1819 4750 
Q 2544 4750 2975 4387 
Q 3406 4025 3406 3419 
Q 3406 3131 3298 2873 
Q 3191 2616 2906 2266 
Q 2828 2175 2409 1742 
Q 1991 1309 1228 531 
z
" transform="scale(0.015625)"/>
        <path id="DejaVuSans-18" d="M 691 4666 
L 3169 4666 
L 3169 4134 
L 1269 4134 
L 1269 2991 
Q 1406 3038 1543 3061 
Q 1681 3084 1819 3084 
Q 2600 3084 3056 2656 
Q 3513 2228 3513 1497 
Q 3513 744 3044 326 
Q 2575 -91 1722 -91 
Q 1428 -91 1123 -41 
Q 819 9 494 109 
L 494 744 
Q 775 591 1075 516 
Q 1375 441 1709 441 
Q 2250 441 2565 725 
Q 2881 1009 2881 1497 
Q 2881 1984 2565 2268 
Q 2250 2553 1709 2553 
Q 1456 2553 1204 2497 
Q 953 2441 691 2322 
L 691 4666 
z
" transform="scale(0.015625)"/>
       </defs>
       <use xlink:href="#DejaVuSans-15"/>
       <use xlink:href="#DejaVuSans-11" transform="translate(63.625 0)"/>
       <use xlink:href="#DejaVuSans-18" transform="translate(95.40625 0)"/>
      </g>
     </g>
    </g>
    <g id="ytick_3">
     <g id="line2d_12">
      <g>
       <use xlink:href="#mf4dc6debb4" x="46.0125" y="106.242703" style="fill: #8a929b; stroke: #8a929b; stroke-width: 0.8"/>
      </g>
     </g>
     <g id="text_3">
      <!-- 5.0 -->
      <g style="fill: #8a929b" transform="translate(26.29 109.281766) scale(0.08 -0.08)">
       <use xlink:href="#DejaVuSans-18"/>
       <use xlink:href="#DejaVuSans-11" transform="translate(63.625 0)"/>
       <use xlink:href="#DejaVuSans-13" transform="translate(95.40625 0)"/>
      </g>
     </g>
    </g>
    <g id="ytick_4">
     <g id="line2d_13">
      <g>
       <use xlink:href="#mf4dc6debb4" x="46.0125" y="88.805607" style="fill: #8a929b; stroke: #8a929b; stroke-width: 0.8"/>
      </g>
     </g>
     <g id="text_4">
      <!-- 7.5 -->
      <g style="fill: #8a929b" transform="translate(26.29 91.84467) scale(0.08 -0.08)">
       <defs>
        <path id="DejaVuSans-1a" d="M 525 4666 
L 3525 4666 
L 3525 4397 
L 1831 0 
L 1172 0 
L 2766 4134 
L 525 4134 
L 525 4666 
z
" transform="scale(0.015625)"/>
       </defs>
       <use xlink:href="#DejaVuSans-1a"/>
       <use xlink:href="#DejaVuSans-11" transform="translate(63.625 0)"/>
       <use xlink:href="#DejaVuSans-18" transform="translate(95.40625 0)"/>
      </g>
     </g>
    </g>
    <g id="ytick_5">
     <g id="line2d_14">
      <g>
       <use xlink:href="#mf4dc6debb4" x="46.0125" y="71.368512" style="fill: #8a929b; stroke: #8a929b; stroke-width: 0.8"/>
      </g>
     </g>
     <g id="text_5">
      <!-- 10.0 -->
      <g style="fill: #8a929b" transform="translate(21.2 74.407574) scale(0.08 -0.08)">
       <defs>
        <path id="DejaVuSans-14" d="M 794 531 
L 1825 531 
L 1825 4091 
L 703 3866 
L 703 4441 
L 1819 4666 
L 2450 4666 
L 2450 531 
L 3481 531 
L 3481 0 
L 794 0 
L 794 531 
z
" transform="scale(0.015625)"/>
       </defs>
       <use xlink:href="#DejaVuSans-14"/>
       <use xlink:href="#DejaVuSans-13" transform="translate(63.625 0)"/>
       <use xlink:href="#DejaVuSans-11" transform="translate(127.25 0)"/>
       <use xlink:href="#DejaVuSans-13" transform="translate(159.03125 0)"/>
      </g>
     </g>
    </g>
    <g id="ytick_6">
     <g id="line2d_15">
      <g>
       <use xlink:href="#mf4dc6debb4" x="46.0125" y="53.931416" style="fill: #8a929b; stroke: #8a929b; stroke-width: 0.8"/>
      </g>
     </g>
     <g id="text_6">
      <!-- 12.5 -->
      <g style="fill: #8a929b" transform="translate(21.2 56.970479) scale(0.08 -0.08)">
       <use xlink:href="#DejaVuSans-14"/>
       <use xlink:href="#DejaVuSans-15" transform="translate(63.625 0)"/>
       <use xlink:href="#DejaVuSans-11" transform="translate(127.25 0)"/>
       <use xlink:href="#DejaVuSans-18" transform="translate(159.03125 0)"/>
      </g>
     </g>
    </g>
    <g id="ytick_7">
     <g id="line2d_16">
      <g>
       <use xlink:href="#mf4dc6debb4" x="46.0125" y="36.494321" style="fill: #8a929b; stroke: #8a929b; stroke-width: 0.8"/>
      </g>
     </g>
     <g id="text_7">
      <!-- 15.0 -->
      <g style="fill: #8a929b" transform="translate(21.2 39.533383) scale(0.08 -0.08)">
       <use xlink:href="#DejaVuSans-14"/>
       <use xlink:href="#DejaVuSans-18" transform="translate(63.625 0)"/>
       <use xlink:href="#DejaVuSans-11" transform="translate(127.25 0)"/>
       <use xlink:href="#DejaVuSans-13" transform="translate(159.03125 0)"/>
      </g>
     </g>
    </g>
    <g id="ytick_8">
     <g id="line2d_17">
      <g>
       <use xlink:href="#mf4dc6debb4" x="46.0125" y="19.057225" style="fill: #8a929b; stroke: #8a929b; stroke-width: 0.8"/>
      </g>
     </g>
     <g id="text_8">
      <!-- 17.5 -->
      <g style="fill: #8a929b" transform="translate(21.2 22.096288) scale(0.08 -0.08)">
       <use xlink:href="#DejaVuSans-14"/>
       <use xlink:href="#DejaVuSans-1a" transform="translate(63.625 0)"/>
       <use xlink:href="#DejaVuSans-11" transform="translate(127.25 0)"/>
       <use xlink:href="#DejaVuSans-18" transform="translate(159.03125 0)"/>
      </g>
     </g>
    </g>
    <g id="text_9">
     <!-- τ  (N·m) -->
     <g style="fill: #1f2933" transform="translate(14.797656 100.028162) rotate(-90) scale(0.1 -0.1)">
      <defs>
       <path id="DejaVuSans-358" d="M 2319 638 
Q 2431 488 2769 488 
L 3047 488 
L 3047 0 
L 2700 0 
Q 2138 0 1881 300 
Q 1625 606 1625 1269 
L 1625 2925 
L 313 2925 
L 313 3500 
L 3541 3500 
L 3541 2925 
L 2213 2925 
L 2213 1234 
Q 2213 781 2319 638 
z
" transform="scale(0.015625)"/>
       <path id="DejaVuSans-3" transform="scale(0.015625)"/>
       <path id="DejaVuSans-b" d="M 1984 4856 
Q 1566 4138 1362 3434 
Q 1159 2731 1159 2009 
Q 1159 1288 1364 580 
Q 1569 -128 1984 -844 
L 1484 -844 
Q 1016 -109 783 600 
Q 550 1309 550 2009 
Q 550 2706 781 3412 
Q 1013 4119 1484 4856 
L 1984 4856 
z
" transform="scale(0.015625)"/>
       <path id="DejaVuSans-31" d="M 628 4666 
L 1478 4666 
L 3547 763 
L 3547 4666 
L 4159 4666 
L 4159 0 
L 3309 0 
L 1241 3903 
L 1241 0 
L 628 0 
L 628 4666 
z
" transform="scale(0.015625)"/>
       <path id="DejaVuSans-79" d="M 684 2619 
L 1344 2619 
L 1344 1825 
L 684 1825 
L 684 2619 
z
" transform="scale(0.015625)"/>
       <path id="DejaVuSans-50" d="M 3328 2828 
Q 3544 3216 3844 3400 
Q 4144 3584 4550 3584 
Q 5097 3584 5394 3201 
Q 5691 2819 5691 2113 
L 5691 0 
L 5113 0 
L 5113 2094 
Q 5113 2597 4934 2840 
Q 4756 3084 4391 3084 
Q 3944 3084 3684 2787 
Q 3425 2491 3425 1978 
L 3425 0 
L 2847 0 
L 2847 2094 
Q 2847 2600 2669 2842 
Q 2491 3084 2119 3084 
Q 1678 3084 1418 2786 
Q 1159 2488 1159 1978 
L 1159 0 
L 581 0 
L 581 3500 
L 1159 3500 
L 1159 2956 
Q 1356 3278 1631 3431 
Q 1906 3584 2284 3584 
Q 2666 3584 2933 3390 
Q 3200 3197 3328 2828 
z
" transform="scale(0.015625)"/>
       <path id="DejaVuSans-c" d="M 513 4856 
L 1013 4856 
Q 1481 4119 1714 3412 
Q 1947 2706 1947 2009 
Q 1947 1309 1714 600 
Q 1481 -109 1013 -844 
L 513 -844 
Q 928 -128 1133 580 
Q 1338 1288 1338 2009 
Q 1338 2731 1133 3434 
Q 928 4138 513 4856 
z
" transform="scale(0.015625)"/>
      </defs>
      <use xlink:href="#DejaVuSans-358"/>
      <use xlink:href="#DejaVuSans-3" transform="translate(60.203125 0)"/>
      <use xlink:href="#DejaVuSans-3" transform="translate(91.984375 0)"/>
      <use xlink:href="#DejaVuSans-b" transform="translate(123.765625 0)"/>
      <use xlink:href="#DejaVuSans-31" transform="translate(162.78125 0)"/>
      <use xlink:href="#DejaVuSans-79" transform="translate(237.59375 0)"/>
      <use xlink:href="#DejaVuSans-50" transform="translate(269.375 0)"/>
      <use xlink:href="#DejaVuSans-c" transform="translate(366.78125 0)"/>
     </g>
    </g>
   </g>
   <g id="line2d_18">
    <path d="M 46.0125 141.116894 
L 403.1325 141.116894 
" clip-path="url(#p20f87993c9)" style="fill: none; stroke: #d8d4c8; stroke-linecap: square"/>
   </g>
   <g id="line2d_19">
    <path d="M 46.0125 141.116894 
L 403.1325 29.519482 
L 403.1325 29.519482 
" clip-path="url(#p20f87993c9)" style="fill: none; stroke: #1f2933; stroke-width: 2.2; stroke-linecap: square"/>
   </g>
   <g id="patch_3">
    <path d="M 46.0125 152.276636 
L 46.0125 7.2 
" style="fill: none; stroke: #d8d4c8; stroke-width: 0.8; stroke-linejoin: miter; stroke-linecap: square"/>
   </g>
   <g id="patch_4">
    <path d="M 46.0125 152.276636 
L 403.1325 152.276636 
" style="fill: none; stroke: #d8d4c8; stroke-width: 0.8; stroke-linejoin: miter; stroke-linecap: square"/>
   </g>
   <g id="text_10">
    <g id="patch_5">
     <path d="M 151.027047 122.715813 
L 298.117953 122.715813 
Q 300.525953 122.715813 300.525953 120.307813 
L 300.525953 111.707141 
Q 300.525953 109.299141 298.117953 109.299141 
L 151.027047 109.299141 
Q 148.619047 109.299141 148.619047 111.707141 
L 148.619047 120.307813 
Q 148.619047 122.715813 151.027047 122.715813 
z
" style="fill: #fbfaf7; opacity: 0.92; stroke: #d8d4c8; stroke-width: 0.6; stroke-linejoin: miter"/>
    </g>
    <!-- shaded area  =  ∫ F dx  =  work W -->
    <g style="fill: #1f2933" transform="translate(151.027047 118.241797) scale(0.086 -0.086)">
     <defs>
      <path id="DejaVuSans-56" d="M 2834 3397 
L 2834 2853 
Q 2591 2978 2328 3040 
Q 2066 3103 1784 3103 
Q 1356 3103 1142 2972 
Q 928 2841 928 2578 
Q 928 2378 1081 2264 
Q 1234 2150 1697 2047 
L 1894 2003 
Q 2506 1872 2764 1633 
Q 3022 1394 3022 966 
Q 3022 478 2636 193 
Q 2250 -91 1575 -91 
Q 1294 -91 989 -36 
Q 684 19 347 128 
L 347 722 
Q 666 556 975 473 
Q 1284 391 1588 391 
Q 1994 391 2212 530 
Q 2431 669 2431 922 
Q 2431 1156 2273 1281 
Q 2116 1406 1581 1522 
L 1381 1569 
Q 847 1681 609 1914 
Q 372 2147 372 2553 
Q 372 3047 722 3315 
Q 1072 3584 1716 3584 
Q 2034 3584 2315 3537 
Q 2597 3491 2834 3397 
z
" transform="scale(0.015625)"/>
      <path id="DejaVuSans-4b" d="M 3513 2113 
L 3513 0 
L 2938 0 
L 2938 2094 
Q 2938 2591 2744 2837 
Q 2550 3084 2163 3084 
Q 1697 3084 1428 2787 
Q 1159 2491 1159 1978 
L 1159 0 
L 581 0 
L 581 4863 
L 1159 4863 
L 1159 2956 
Q 1366 3272 1645 3428 
Q 1925 3584 2291 3584 
Q 2894 3584 3203 3211 
Q 3513 2838 3513 2113 
z
" transform="scale(0.015625)"/>
      <path id="DejaVuSans-44" d="M 2194 1759 
Q 1497 1759 1228 1600 
Q 959 1441 959 1056 
Q 959 750 1161 570 
Q 1363 391 1709 391 
Q 2188 391 2477 730 
Q 2766 1069 2766 1631 
L 2766 1759 
L 2194 1759 
z
M 3341 1997 
L 3341 0 
L 2766 0 
L 2766 531 
Q 2569 213 2275 61 
Q 1981 -91 1556 -91 
Q 1019 -91 701 211 
Q 384 513 384 1019 
Q 384 1609 779 1909 
Q 1175 2209 1959 2209 
L 2766 2209 
L 2766 2266 
Q 2766 2663 2505 2880 
Q 2244 3097 1772 3097 
Q 1472 3097 1187 3025 
Q 903 2953 641 2809 
L 641 3341 
Q 956 3463 1253 3523 
Q 1550 3584 1831 3584 
Q 2591 3584 2966 3190 
Q 3341 2797 3341 1997 
z
" transform="scale(0.015625)"/>
      <path id="DejaVuSans-47" d="M 2906 2969 
L 2906 4863 
L 3481 4863 
L 3481 0 
L 2906 0 
L 2906 525 
Q 2725 213 2448 61 
Q 2172 -91 1784 -91 
Q 1150 -91 751 415 
Q 353 922 353 1747 
Q 353 2572 751 3078 
Q 1150 3584 1784 3584 
Q 2172 3584 2448 3432 
Q 2725 3281 2906 2969 
z
M 947 1747 
Q 947 1113 1208 752 
Q 1469 391 1925 391 
Q 2381 391 2643 752 
Q 2906 1113 2906 1747 
Q 2906 2381 2643 2742 
Q 2381 3103 1925 3103 
Q 1469 3103 1208 2742 
Q 947 2381 947 1747 
z
" transform="scale(0.015625)"/>
      <path id="DejaVuSans-48" d="M 3597 1894 
L 3597 1613 
L 953 1613 
Q 991 1019 1311 708 
Q 1631 397 2203 397 
Q 2534 397 2845 478 
Q 3156 559 3463 722 
L 3463 178 
Q 3153 47 2828 -22 
Q 2503 -91 2169 -91 
Q 1331 -91 842 396 
Q 353 884 353 1716 
Q 353 2575 817 3079 
Q 1281 3584 2069 3584 
Q 2775 3584 3186 3129 
Q 3597 2675 3597 1894 
z
M 3022 2063 
Q 3016 2534 2758 2815 
Q 2500 3097 2075 3097 
Q 1594 3097 1305 2825 
Q 1016 2553 972 2059 
L 3022 2063 
z
" transform="scale(0.015625)"/>
      <path id="DejaVuSans-55" d="M 2631 2963 
Q 2534 3019 2420 3045 
Q 2306 3072 2169 3072 
Q 1681 3072 1420 2755 
Q 1159 2438 1159 1844 
L 1159 0 
L 581 0 
L 581 3500 
L 1159 3500 
L 1159 2956 
Q 1341 3275 1631 3429 
Q 1922 3584 2338 3584 
Q 2397 3584 2469 3576 
Q 2541 3569 2628 3553 
L 2631 2963 
z
" transform="scale(0.015625)"/>
      <path id="DejaVuSans-20" d="M 678 2906 
L 4684 2906 
L 4684 2381 
L 678 2381 
L 678 2906 
z
M 678 1631 
L 4684 1631 
L 4684 1100 
L 678 1100 
L 678 1631 
z
" transform="scale(0.015625)"/>
      <path id="DejaVuSans-cb5" d="M 1509 3906 
Q 1534 4428 1787 4636 
Q 2041 4844 2277 4844 
Q 2513 4844 2709 4648 
Q 2906 4453 2969 4016 
L 2506 3969 
Q 2453 4375 2275 4375 
Q 2053 4375 2028 3828 
L 1825 -422 
Q 1800 -944 1547 -1151 
Q 1294 -1359 1058 -1359 
Q 822 -1359 625 -1164 
Q 428 -969 366 -531 
L 828 -484 
Q 881 -891 1059 -891 
Q 1281 -891 1306 -344 
L 1509 3906 
z
" transform="scale(0.015625)"/>
      <path id="DejaVuSans-29" d="M 628 4666 
L 3309 4666 
L 3309 4134 
L 1259 4134 
L 1259 2759 
L 3109 2759 
L 3109 2228 
L 1259 2228 
L 1259 0 
L 628 0 
L 628 4666 
z
" transform="scale(0.015625)"/>
      <path id="DejaVuSans-5b" d="M 3513 3500 
L 2247 1797 
L 3578 0 
L 2900 0 
L 1881 1375 
L 863 0 
L 184 0 
L 1544 1831 
L 300 3500 
L 978 3500 
L 1906 2253 
L 2834 3500 
L 3513 3500 
z
" transform="scale(0.015625)"/>
      <path id="DejaVuSans-5a" d="M 269 3500 
L 844 3500 
L 1563 769 
L 2278 3500 
L 2956 3500 
L 3675 769 
L 4391 3500 
L 4966 3500 
L 4050 0 
L 3372 0 
L 2619 2869 
L 1863 0 
L 1184 0 
L 269 3500 
z
" transform="scale(0.015625)"/>
      <path id="DejaVuSans-52" d="M 1959 3097 
Q 1497 3097 1228 2736 
Q 959 2375 959 1747 
Q 959 1119 1226 758 
Q 1494 397 1959 397 
Q 2419 397 2687 759 
Q 2956 1122 2956 1747 
Q 2956 2369 2687 2733 
Q 2419 3097 1959 3097 
z
M 1959 3584 
Q 2709 3584 3137 3096 
Q 3566 2609 3566 1747 
Q 3566 888 3137 398 
Q 2709 -91 1959 -91 
Q 1206 -91 779 398 
Q 353 888 353 1747 
Q 353 2609 779 3096 
Q 1206 3584 1959 3584 
z
" transform="scale(0.015625)"/>
      <path id="DejaVuSans-4e" d="M 581 4863 
L 1159 4863 
L 1159 1991 
L 2875 3500 
L 3609 3500 
L 1753 1863 
L 3688 0 
L 2938 0 
L 1159 1709 
L 1159 0 
L 581 0 
L 581 4863 
z
" transform="scale(0.015625)"/>
      <path id="DejaVuSans-3a" d="M 213 4666 
L 850 4666 
L 1831 722 
L 2809 4666 
L 3519 4666 
L 4500 722 
L 5478 4666 
L 6119 4666 
L 4947 0 
L 4153 0 
L 3169 4050 
L 2175 0 
L 1381 0 
L 213 4666 
z
" transform="scale(0.015625)"/>
     </defs>
     <use xlink:href="#DejaVuSans-56"/>
     <use xlink:href="#DejaVuSans-4b" transform="translate(52.09375 0)"/>
     <use xlink:href="#DejaVuSans-44" transform="translate(115.46875 0)"/>
     <use xlink:href="#DejaVuSans-47" transform="translate(176.75 0)"/>
     <use xlink:href="#DejaVuSans-48" transform="translate(240.234375 0)"/>
     <use xlink:href="#DejaVuSans-47" transform="translate(301.765625 0)"/>
     <use xlink:href="#DejaVuSans-3" transform="translate(365.25 0)"/>
     <use xlink:href="#DejaVuSans-44" transform="translate(397.03125 0)"/>
     <use xlink:href="#DejaVuSans-55" transform="translate(458.3125 0)"/>
     <use xlink:href="#DejaVuSans-48" transform="translate(497.21875 0)"/>
     <use xlink:href="#DejaVuSans-44" transform="translate(558.75 0)"/>
     <use xlink:href="#DejaVuSans-3" transform="translate(620.03125 0)"/>
     <use xlink:href="#DejaVuSans-3" transform="translate(651.8125 0)"/>
     <use xlink:href="#DejaVuSans-20" transform="translate(683.59375 0)"/>
     <use xlink:href="#DejaVuSans-3" transform="translate(767.390625 0)"/>
     <use xlink:href="#DejaVuSans-3" transform="translate(799.171875 0)"/>
     <use xlink:href="#DejaVuSans-cb5" transform="translate(830.953125 0)"/>
     <use xlink:href="#DejaVuSans-3" transform="translate(883.046875 0)"/>
     <use xlink:href="#DejaVuSans-29" transform="translate(914.828125 0)"/>
     <use xlink:href="#DejaVuSans-3" transform="translate(972.34375 0)"/>
     <use xlink:href="#DejaVuSans-47" transform="translate(1004.125 0)"/>
     <use xlink:href="#DejaVuSans-5b" transform="translate(1067.609375 0)"/>
     <use xlink:href="#DejaVuSans-3" transform="translate(1126.796875 0)"/>
     <use xlink:href="#DejaVuSans-3" transform="translate(1158.578125 0)"/>
     <use xlink:href="#DejaVuSans-20" transform="translate(1190.359375 0)"/>
     <use xlink:href="#DejaVuSans-3" transform="translate(1274.15625 0)"/>
     <use xlink:href="#DejaVuSans-3" transform="translate(1305.9375 0)"/>
     <use xlink:href="#DejaVuSans-5a" transform="translate(1337.71875 0)"/>
     <use xlink:href="#DejaVuSans-52" transform="translate(1419.5 0)"/>
     <use xlink:href="#DejaVuSans-55" transform="translate(1480.6875 0)"/>
     <use xlink:href="#DejaVuSans-4e" transform="translate(1521.796875 0)"/>
     <use xlink:href="#DejaVuSans-3" transform="translate(1579.703125 0)"/>
     <use xlink:href="#DejaVuSans-3a" transform="translate(1611.484375 0)"/>
    </g>
   </g>
  </g>
  <g id="axes_2">
   <g id="patch_6">
    <path d="M 46.0125 317.664 
L 403.1325 317.664 
L 403.1325 172.587364 
L 46.0125 172.587364 
z
" style="fill: #fbfaf7"/>
   </g>
   <g id="matplotlib.axis_3">
    <g id="xtick_10">
     <g id="line2d_20">
      <g>
       <use xlink:href="#mbaa46cf2f4" x="46.0125" y="317.664" style="fill: #8a929b; stroke: #8a929b; stroke-width: 0.8"/>
      </g>
     </g>
     <g id="text_11">
      <!-- 0.00 -->
      <g style="fill: #8a929b" transform="translate(37.10625 330.742125) scale(0.08 -0.08)">
       <use xlink:href="#DejaVuSans-13"/>
       <use xlink:href="#DejaVuSans-11" transform="translate(63.625 0)"/>
       <use xlink:href="#DejaVuSans-13" transform="translate(95.40625 0)"/>
       <use xlink:href="#DejaVuSans-13" transform="translate(159.03125 0)"/>
      </g>
     </g>
    </g>
    <g id="xtick_11">
     <g id="line2d_21">
      <g>
       <use xlink:href="#mbaa46cf2f4" x="90.6525" y="317.664" style="fill: #8a929b; stroke: #8a929b; stroke-width: 0.8"/>
      </g>
     </g>
     <g id="text_12">
      <!-- 0.25 -->
      <g style="fill: #8a929b" transform="translate(81.74625 330.742125) scale(0.08 -0.08)">
       <use xlink:href="#DejaVuSans-13"/>
       <use xlink:href="#DejaVuSans-11" transform="translate(63.625 0)"/>
       <use xlink:href="#DejaVuSans-15" transform="translate(95.40625 0)"/>
       <use xlink:href="#DejaVuSans-18" transform="translate(159.03125 0)"/>
      </g>
     </g>
    </g>
    <g id="xtick_12">
     <g id="line2d_22">
      <g>
       <use xlink:href="#mbaa46cf2f4" x="135.2925" y="317.664" style="fill: #8a929b; stroke: #8a929b; stroke-width: 0.8"/>
      </g>
     </g>
     <g id="text_13">
      <!-- 0.50 -->
      <g style="fill: #8a929b" transform="translate(126.38625 330.742125) scale(0.08 -0.08)">
       <use xlink:href="#DejaVuSans-13"/>
       <use xlink:href="#DejaVuSans-11" transform="translate(63.625 0)"/>
       <use xlink:href="#DejaVuSans-18" transform="translate(95.40625 0)"/>
       <use xlink:href="#DejaVuSans-13" transform="translate(159.03125 0)"/>
      </g>
     </g>
    </g>
    <g id="xtick_13">
     <g id="line2d_23">
      <g>
       <use xlink:href="#mbaa46cf2f4" x="179.9325" y="317.664" style="fill: #8a929b; stroke: #8a929b; stroke-width: 0.8"/>
      </g>
     </g>
     <g id="text_14">
      <!-- 0.75 -->
      <g style="fill: #8a929b" transform="translate(171.02625 330.742125) scale(0.08 -0.08)">
       <use xlink:href="#DejaVuSans-13"/>
       <use xlink:href="#DejaVuSans-11" transform="translate(63.625 0)"/>
       <use xlink:href="#DejaVuSans-1a" transform="translate(95.40625 0)"/>
       <use xlink:href="#DejaVuSans-18" transform="translate(159.03125 0)"/>
      </g>
     </g>
    </g>
    <g id="xtick_14">
     <g id="line2d_24">
      <g>
       <use xlink:href="#mbaa46cf2f4" x="224.5725" y="317.664" style="fill: #8a929b; stroke: #8a929b; stroke-width: 0.8"/>
      </g>
     </g>
     <g id="text_15">
      <!-- 1.00 -->
      <g style="fill: #8a929b" transform="translate(215.66625 330.742125) scale(0.08 -0.08)">
       <use xlink:href="#DejaVuSans-14"/>
       <use xlink:href="#DejaVuSans-11" transform="translate(63.625 0)"/>
       <use xlink:href="#DejaVuSans-13" transform="translate(95.40625 0)"/>
       <use xlink:href="#DejaVuSans-13" transform="translate(159.03125 0)"/>
      </g>
     </g>
    </g>
    <g id="xtick_15">
     <g id="line2d_25">
      <g>
       <use xlink:href="#mbaa46cf2f4" x="269.2125" y="317.664" style="fill: #8a929b; stroke: #8a929b; stroke-width: 0.8"/>
      </g>
     </g>
     <g id="text_16">
      <!-- 1.25 -->
      <g style="fill: #8a929b" transform="translate(260.30625 330.742125) scale(0.08 -0.08)">
       <use xlink:href="#DejaVuSans-14"/>
       <use xlink:href="#DejaVuSans-11" transform="translate(63.625 0)"/>
       <use xlink:href="#DejaVuSans-15" transform="translate(95.40625 0)"/>
       <use xlink:href="#DejaVuSans-18" transform="translate(159.03125 0)"/>
      </g>
     </g>
    </g>
    <g id="xtick_16">
     <g id="line2d_26">
      <g>
       <use xlink:href="#mbaa46cf2f4" x="313.8525" y="317.664" style="fill: #8a929b; stroke: #8a929b; stroke-width: 0.8"/>
      </g>
     </g>
     <g id="text_17">
      <!-- 1.50 -->
      <g style="fill: #8a929b" transform="translate(304.94625 330.742125) scale(0.08 -0.08)">
       <use xlink:href="#DejaVuSans-14"/>
       <use xlink:href="#DejaVuSans-11" transform="translate(63.625 0)"/>
       <use xlink:href="#DejaVuSans-18" transform="translate(95.40625 0)"/>
       <use xlink:href="#DejaVuSans-13" transform="translate(159.03125 0)"/>
      </g>
     </g>
    </g>
    <g id="xtick_17">
     <g id="line2d_27">
      <g>
       <use xlink:href="#mbaa46cf2f4" x="358.4925" y="317.664" style="fill: #8a929b; stroke: #8a929b; stroke-width: 0.8"/>
      </g>
     </g>
     <g id="text_18">
      <!-- 1.75 -->
      <g style="fill: #8a929b" transform="translate(349.58625 330.742125) scale(0.08 -0.08)">
       <use xlink:href="#DejaVuSans-14"/>
       <use xlink:href="#DejaVuSans-11" transform="translate(63.625 0)"/>
       <use xlink:href="#DejaVuSans-1a" transform="translate(95.40625 0)"/>
       <use xlink:href="#DejaVuSans-18" transform="translate(159.03125 0)"/>
      </g>
     </g>
    </g>
    <g id="xtick_18">
     <g id="line2d_28">
      <g>
       <use xlink:href="#mbaa46cf2f4" x="403.1325" y="317.664" style="fill: #8a929b; stroke: #8a929b; stroke-width: 0.8"/>
      </g>
     </g>
     <g id="text_19">
      <!-- 2.00 -->
      <g style="fill: #8a929b" transform="translate(394.22625 330.742125) scale(0.08 -0.08)">
       <use xlink:href="#DejaVuSans-15"/>
       <use xlink:href="#DejaVuSans-11" transform="translate(63.625 0)"/>
       <use xlink:href="#DejaVuSans-13" transform="translate(95.40625 0)"/>
       <use xlink:href="#DejaVuSans-13" transform="translate(159.03125 0)"/>
      </g>
     </g>
    </g>
    <g id="text_20">
     <!-- θ  (rad) -->
     <g style="fill: #1f2933" transform="translate(206.139688 344.340562) scale(0.1 -0.1)">
      <defs>
       <path id="DejaVuSans-34c" d="M 2953 2219 
L 963 2219 
Q 1009 1284 1225 888 
Q 1494 400 1959 400 
Q 2428 400 2688 891 
Q 2916 1322 2953 2219 
z
M 2944 2750 
Q 2856 3638 2688 3950 
Q 2419 4444 1959 4444 
Q 1481 4444 1228 3956 
Q 1028 3563 969 2750 
L 2944 2750 
z
M 1959 4913 
Q 2709 4913 3138 4250 
Q 3566 3591 3566 2422 
Q 3566 1256 3138 594 
Q 2709 -72 1959 -72 
Q 1206 -72 781 594 
Q 353 1256 353 2422 
Q 353 3591 781 4250 
Q 1206 4913 1959 4913 
z
" transform="scale(0.015625)"/>
      </defs>
      <use xlink:href="#DejaVuSans-34c"/>
      <use xlink:href="#DejaVuSans-3" transform="translate(61.1875 0)"/>
      <use xlink:href="#DejaVuSans-3" transform="translate(92.96875 0)"/>
      <use xlink:href="#DejaVuSans-b" transform="translate(124.75 0)"/>
      <use xlink:href="#DejaVuSans-55" transform="translate(163.765625 0)"/>
      <use xlink:href="#DejaVuSans-44" transform="translate(204.875 0)"/>
      <use xlink:href="#DejaVuSans-47" transform="translate(266.15625 0)"/>
      <use xlink:href="#DejaVuSans-c" transform="translate(329.640625 0)"/>
     </g>
    </g>
   </g>
   <g id="matplotlib.axis_4">
    <g id="ytick_9">
     <g id="line2d_29">
      <g>
       <use xlink:href="#mf4dc6debb4" x="46.0125" y="306.504259" style="fill: #8a929b; stroke: #8a929b; stroke-width: 0.8"/>
      </g>
     </g>
     <g id="text_21">
      <!-- 0.0 -->
      <g style="fill: #8a929b" transform="translate(26.29 309.543321) scale(0.08 -0.08)">
       <use xlink:href="#DejaVuSans-13"/>
       <use xlink:href="#DejaVuSans-11" transform="translate(63.625 0)"/>
       <use xlink:href="#DejaVuSans-13" transform="translate(95.40625 0)"/>
      </g>
     </g>
    </g>
    <g id="ytick_10">
     <g id="line2d_30">
      <g>
       <use xlink:href="#mf4dc6debb4" x="46.0125" y="289.067163" style="fill: #8a929b; stroke: #8a929b; stroke-width: 0.8"/>
      </g>
     </g>
     <g id="text_22">
      <!-- 2.5 -->
      <g style="fill: #8a929b" transform="translate(26.29 292.106226) scale(0.08 -0.08)">
       <use xlink:href="#DejaVuSans-15"/>
       <use xlink:href="#DejaVuSans-11" transform="translate(63.625 0)"/>
       <use xlink:href="#DejaVuSans-18" transform="translate(95.40625 0)"/>
      </g>
     </g>
    </g>
    <g id="ytick_11">
     <g id="line2d_31">
      <g>
       <use xlink:href="#mf4dc6debb4" x="46.0125" y="271.630068" style="fill: #8a929b; stroke: #8a929b; stroke-width: 0.8"/>
      </g>
     </g>
     <g id="text_23">
      <!-- 5.0 -->
      <g style="fill: #8a929b" transform="translate(26.29 274.66913) scale(0.08 -0.08)">
       <use xlink:href="#DejaVuSans-18"/>
       <use xlink:href="#DejaVuSans-11" transform="translate(63.625 0)"/>
       <use xlink:href="#DejaVuSans-13" transform="translate(95.40625 0)"/>
      </g>
     </g>
    </g>
    <g id="ytick_12">
     <g id="line2d_32">
      <g>
       <use xlink:href="#mf4dc6debb4" x="46.0125" y="254.192972" style="fill: #8a929b; stroke: #8a929b; stroke-width: 0.8"/>
      </g>
     </g>
     <g id="text_24">
      <!-- 7.5 -->
      <g style="fill: #8a929b" transform="translate(26.29 257.232034) scale(0.08 -0.08)">
       <use xlink:href="#DejaVuSans-1a"/>
       <use xlink:href="#DejaVuSans-11" transform="translate(63.625 0)"/>
       <use xlink:href="#DejaVuSans-18" transform="translate(95.40625 0)"/>
      </g>
     </g>
    </g>
    <g id="ytick_13">
     <g id="line2d_33">
      <g>
       <use xlink:href="#mf4dc6debb4" x="46.0125" y="236.755876" style="fill: #8a929b; stroke: #8a929b; stroke-width: 0.8"/>
      </g>
     </g>
     <g id="text_25">
      <!-- 10.0 -->
      <g style="fill: #8a929b" transform="translate(21.2 239.794939) scale(0.08 -0.08)">
       <use xlink:href="#DejaVuSans-14"/>
       <use xlink:href="#DejaVuSans-13" transform="translate(63.625 0)"/>
       <use xlink:href="#DejaVuSans-11" transform="translate(127.25 0)"/>
       <use xlink:href="#DejaVuSans-13" transform="translate(159.03125 0)"/>
      </g>
     </g>
    </g>
    <g id="ytick_14">
     <g id="line2d_34">
      <g>
       <use xlink:href="#mf4dc6debb4" x="46.0125" y="219.318781" style="fill: #8a929b; stroke: #8a929b; stroke-width: 0.8"/>
      </g>
     </g>
     <g id="text_26">
      <!-- 12.5 -->
      <g style="fill: #8a929b" transform="translate(21.2 222.357843) scale(0.08 -0.08)">
       <use xlink:href="#DejaVuSans-14"/>
       <use xlink:href="#DejaVuSans-15" transform="translate(63.625 0)"/>
       <use xlink:href="#DejaVuSans-11" transform="translate(127.25 0)"/>
       <use xlink:href="#DejaVuSans-18" transform="translate(159.03125 0)"/>
      </g>
     </g>
    </g>
    <g id="ytick_15">
     <g id="line2d_35">
      <g>
       <use xlink:href="#mf4dc6debb4" x="46.0125" y="201.881685" style="fill: #8a929b; stroke: #8a929b; stroke-width: 0.8"/>
      </g>
     </g>
     <g id="text_27">
      <!-- 15.0 -->
      <g style="fill: #8a929b" transform="translate(21.2 204.920748) scale(0.08 -0.08)">
       <use xlink:href="#DejaVuSans-14"/>
       <use xlink:href="#DejaVuSans-18" transform="translate(63.625 0)"/>
       <use xlink:href="#DejaVuSans-11" transform="translate(127.25 0)"/>
       <use xlink:href="#DejaVuSans-13" transform="translate(159.03125 0)"/>
      </g>
     </g>
    </g>
    <g id="ytick_16">
     <g id="line2d_36">
      <g>
       <use xlink:href="#mf4dc6debb4" x="46.0125" y="184.44459" style="fill: #8a929b; stroke: #8a929b; stroke-width: 0.8"/>
      </g>
     </g>
     <g id="text_28">
      <!-- 17.5 -->
      <g style="fill: #8a929b" transform="translate(21.2 187.483652) scale(0.08 -0.08)">
       <use xlink:href="#DejaVuSans-14"/>
       <use xlink:href="#DejaVuSans-1a" transform="translate(63.625 0)"/>
       <use xlink:href="#DejaVuSans-11" transform="translate(127.25 0)"/>
       <use xlink:href="#DejaVuSans-18" transform="translate(159.03125 0)"/>
      </g>
     </g>
    </g>
    <g id="text_29">
     <!-- W  (J) -->
     <g style="fill: #1f2933" transform="translate(14.797656 258.62412) rotate(-90) scale(0.1 -0.1)">
      <defs>
       <path id="DejaVuSans-2d" d="M 628 4666 
L 1259 4666 
L 1259 325 
Q 1259 -519 939 -900 
Q 619 -1281 -91 -1281 
L -331 -1281 
L -331 -750 
L -134 -750 
Q 284 -750 456 -515 
Q 628 -281 628 325 
L 628 4666 
z
" transform="scale(0.015625)"/>
      </defs>
      <use xlink:href="#DejaVuSans-3a"/>
      <use xlink:href="#DejaVuSans-3" transform="translate(98.875 0)"/>
      <use xlink:href="#DejaVuSans-3" transform="translate(130.65625 0)"/>
      <use xlink:href="#DejaVuSans-b" transform="translate(162.4375 0)"/>
      <use xlink:href="#DejaVuSans-2d" transform="translate(201.453125 0)"/>
      <use xlink:href="#DejaVuSans-c" transform="translate(230.953125 0)"/>
     </g>
    </g>
   </g>
   <g id="line2d_37">
    <path d="M 46.0125 306.504259 
L 403.1325 306.504259 
" clip-path="url(#pad3e78d6c8)" style="fill: none; stroke: #d8d4c8; stroke-linecap: square"/>
   </g>
   <g id="line2d_38">
    <path d="M 46.0125 306.504259 
L 57.966308 306.379222 
L 69.920115 306.004111 
L 81.873923 305.378926 
L 93.82773 304.503668 
L 105.781538 303.378336 
L 117.735345 302.002929 
L 129.689153 300.377449 
L 141.64296 298.501895 
L 153.596768 296.376268 
L 165.550575 294.000566 
L 177.504383 291.374791 
L 189.45819 288.498941 
L 201.411998 285.373018 
L 213.365805 281.997021 
L 225.319613 278.37095 
L 237.273421 274.494805 
L 249.227228 270.368587 
L 261.181036 265.992294 
L 273.134843 261.365928 
L 285.088651 256.489488 
L 297.042458 251.362974 
L 308.996266 245.986386 
L 320.950073 240.359724 
L 332.903881 234.482988 
L 344.857688 228.356179 
L 356.811496 221.979295 
L 368.765303 215.352338 
L 380.719111 208.475307 
L 392.672918 201.348202 
L 403.1325 194.906847 
L 403.1325 194.906847 
" clip-path="url(#pad3e78d6c8)" style="fill: none; stroke: #2f6f4f; stroke-width: 2.2; stroke-linecap: square"/>
   </g>
   <g id="patch_7">
    <path d="M 46.0125 317.664 
L 46.0125 172.587364 
" style="fill: none; stroke: #d8d4c8; stroke-width: 0.8; stroke-linejoin: miter; stroke-linecap: square"/>
   </g>
   <g id="patch_8">
    <path d="M 46.0125 317.664 
L 403.1325 317.664 
" style="fill: none; stroke: #d8d4c8; stroke-width: 0.8; stroke-linejoin: miter; stroke-linecap: square"/>
   </g>
   <g id="text_30">
    <g id="patch_9">
     <path d="M 275.4269 276.614886 
L 355.455275 276.614886 
Q 357.863275 276.614886 357.863275 274.206886 
L 357.863275 265.606214 
Q 357.863275 263.198214 355.455275 263.198214 
L 275.4269 263.198214 
Q 273.0189 263.198214 273.0189 265.606214 
L 273.0189 274.206886 
Q 273.0189 276.614886 275.4269 276.614886 
z
" style="fill: #fbfaf7; opacity: 0.92; stroke: #d8d4c8; stroke-width: 0.6; stroke-linejoin: miter"/>
    </g>
    <!-- slope of W  =  F(x) -->
    <g style="fill: #1f2933" transform="translate(275.4269 272.14087) scale(0.086 -0.086)">
     <defs>
      <path id="DejaVuSans-4f" d="M 603 4863 
L 1178 4863 
L 1178 0 
L 603 0 
L 603 4863 
z
" transform="scale(0.015625)"/>
      <path id="DejaVuSans-53" d="M 1159 525 
L 1159 -1331 
L 581 -1331 
L 581 3500 
L 1159 3500 
L 1159 2969 
Q 1341 3281 1617 3432 
Q 1894 3584 2278 3584 
Q 2916 3584 3314 3078 
Q 3713 2572 3713 1747 
Q 3713 922 3314 415 
Q 2916 -91 2278 -91 
Q 1894 -91 1617 61 
Q 1341 213 1159 525 
z
M 3116 1747 
Q 3116 2381 2855 2742 
Q 2594 3103 2138 3103 
Q 1681 3103 1420 2742 
Q 1159 2381 1159 1747 
Q 1159 1113 1420 752 
Q 1681 391 2138 391 
Q 2594 391 2855 752 
Q 3116 1113 3116 1747 
z
" transform="scale(0.015625)"/>
      <path id="DejaVuSans-49" d="M 2375 4863 
L 2375 4384 
L 1825 4384 
Q 1516 4384 1395 4259 
Q 1275 4134 1275 3809 
L 1275 3500 
L 2222 3500 
L 2222 3053 
L 1275 3053 
L 1275 0 
L 697 0 
L 697 3053 
L 147 3053 
L 147 3500 
L 697 3500 
L 697 3744 
Q 697 4328 969 4595 
Q 1241 4863 1831 4863 
L 2375 4863 
z
" transform="scale(0.015625)"/>
     </defs>
     <use xlink:href="#DejaVuSans-56"/>
     <use xlink:href="#DejaVuSans-4f" transform="translate(52.09375 0)"/>
     <use xlink:href="#DejaVuSans-52" transform="translate(79.875 0)"/>
     <use xlink:href="#DejaVuSans-53" transform="translate(141.0625 0)"/>
     <use xlink:href="#DejaVuSans-48" transform="translate(204.546875 0)"/>
     <use xlink:href="#DejaVuSans-3" transform="translate(266.078125 0)"/>
     <use xlink:href="#DejaVuSans-52" transform="translate(297.859375 0)"/>
     <use xlink:href="#DejaVuSans-49" transform="translate(359.046875 0)"/>
     <use xlink:href="#DejaVuSans-3" transform="translate(394.25 0)"/>
     <use xlink:href="#DejaVuSans-3a" transform="translate(426.03125 0)"/>
     <use xlink:href="#DejaVuSans-3" transform="translate(524.90625 0)"/>
     <use xlink:href="#DejaVuSans-3" transform="translate(556.6875 0)"/>
     <use xlink:href="#DejaVuSans-20" transform="translate(588.46875 0)"/>
     <use xlink:href="#DejaVuSans-3" transform="translate(672.265625 0)"/>
     <use xlink:href="#DejaVuSans-3" transform="translate(704.046875 0)"/>
     <use xlink:href="#DejaVuSans-29" transform="translate(735.828125 0)"/>
     <use xlink:href="#DejaVuSans-b" transform="translate(793.34375 0)"/>
     <use xlink:href="#DejaVuSans-5b" transform="translate(832.359375 0)"/>
     <use xlink:href="#DejaVuSans-c" transform="translate(891.546875 0)"/>
    </g>
   </g>
  </g>
 </g>
 <defs>
  <clipPath id="p20f87993c9">
   <rect x="46.0125" y="7.2" width="357.12" height="145.076636"/>
  </clipPath>
  <clipPath id="pad3e78d6c8">
   <rect x="46.0125" y="172.587364" width="357.12" height="145.076636"/>
  </clipPath>
 </defs>
</svg>
