<?xml version="1.0" encoding="utf-8" standalone="no"?>
<!DOCTYPE svg PUBLIC "-//W3C//DTD SVG 1.1//EN"
  "http://www.w3.org/Graphics/SVG/1.1/DTD/svg11.dtd">
<svg xmlns:xlink="http://www.w3.org/1999/xlink" width="414.49125pt" height="475.832pt" viewBox="0 0 414.49125 475.832" xmlns="http://www.w3.org/2000/svg" version="1.1">
 <metadata>
  <rdf:RDF xmlns:dc="http://purl.org/dc/elements/1.1/" xmlns:cc="http://creativecommons.org/ns#" xmlns:rdf="http://www.w3.org/1999/02/22-rdf-syntax-ns#">
   <cc:Work>
    <dc:type rdf:resource="http://purl.org/dc/dcmitype/StillImage"/>
    <dc:date>2026-06-26T12:59:05.110118</dc:date>
    <dc:format>image/svg+xml</dc:format>
    <dc:creator>
     <cc:Agent>
      <dc:title>Matplotlib v3.11.0, https://matplotlib.org/</dc:title>
     </cc:Agent>
    </dc:creator>
   </cc:Work>
  </rdf:RDF>
 </metadata>
 <defs>
  <style type="text/css">*{stroke-linejoin: round; stroke-linecap: butt}</style>
 </defs>
 <g id="figure_1">
  <g id="patch_1">
   <path d="M 0 475.832 
L 414.49125 475.832 
L 414.49125 0 
L 0 0 
z
" style="fill: #fbfaf7"/>
  </g>
  <g id="axes_1">
   <g id="patch_2">
    <path d="M 47.62625 137.450602 
L 404.74625 137.450602 
L 404.74625 7.2 
L 47.62625 7.2 
z
" style="fill: #fbfaf7"/>
   </g>
   <g id="matplotlib.axis_1">
    <g id="xtick_1">
     <g id="line2d_1">
      <defs>
       <path id="mc6b798389b" d="M 0 0 
L 0 3.5 
" style="stroke: #8a929b; stroke-width: 0.8"/>
      </defs>
      <g>
       <use xlink:href="#mc6b798389b" x="47.62625" y="137.450602" style="fill: #8a929b; stroke: #8a929b; stroke-width: 0.8"/>
      </g>
     </g>
    </g>
    <g id="xtick_2">
     <g id="line2d_2">
      <g>
       <use xlink:href="#mc6b798389b" x="107.14625" y="137.450602" style="fill: #8a929b; stroke: #8a929b; stroke-width: 0.8"/>
      </g>
     </g>
    </g>
    <g id="xtick_3">
     <g id="line2d_3">
      <g>
       <use xlink:href="#mc6b798389b" x="166.66625" y="137.450602" style="fill: #8a929b; stroke: #8a929b; stroke-width: 0.8"/>
      </g>
     </g>
    </g>
    <g id="xtick_4">
     <g id="line2d_4">
      <g>
       <use xlink:href="#mc6b798389b" x="226.18625" y="137.450602" style="fill: #8a929b; stroke: #8a929b; stroke-width: 0.8"/>
      </g>
     </g>
    </g>
    <g id="xtick_5">
     <g id="line2d_5">
      <g>
       <use xlink:href="#mc6b798389b" x="285.70625" y="137.450602" style="fill: #8a929b; stroke: #8a929b; stroke-width: 0.8"/>
      </g>
     </g>
    </g>
    <g id="xtick_6">
     <g id="line2d_6">
      <g>
       <use xlink:href="#mc6b798389b" x="345.22625" y="137.450602" style="fill: #8a929b; stroke: #8a929b; stroke-width: 0.8"/>
      </g>
     </g>
    </g>
    <g id="xtick_7">
     <g id="line2d_7">
      <g>
       <use xlink:href="#mc6b798389b" x="404.74625" y="137.450602" style="fill: #8a929b; stroke: #8a929b; stroke-width: 0.8"/>
      </g>
     </g>
    </g>
   </g>
   <g id="matplotlib.axis_2">
    <g id="ytick_1">
     <g id="line2d_8">
      <defs>
       <path id="mae856704c0" d="M 0 0 
L -3.5 0 
" style="stroke: #8a929b; stroke-width: 0.8"/>
      </defs>
      <g>
       <use xlink:href="#mae856704c0" x="47.62625" y="112.25427" style="fill: #8a929b; stroke: #8a929b; stroke-width: 0.8"/>
      </g>
     </g>
     <g id="text_1">
      <!-- −0.5 -->
      <g style="fill: #8a929b" transform="translate(21.2 115.293332) scale(0.08 -0.08)">
       <defs>
        <path id="DejaVuSans-c9c" d="M 678 2272 
L 4684 2272 
L 4684 1741 
L 678 1741 
L 678 2272 
z
" transform="scale(0.015625)"/>
        <path id="DejaVuSans-13" d="M 2034 4250 
Q 1547 4250 1301 3770 
Q 1056 3291 1056 2328 
Q 1056 1369 1301 889 
Q 1547 409 2034 409 
Q 2525 409 2770 889 
Q 3016 1369 3016 2328 
Q 3016 3291 2770 3770 
Q 2525 4250 2034 4250 
z
M 2034 4750 
Q 2819 4750 3233 4129 
Q 3647 3509 3647 2328 
Q 3647 1150 3233 529 
Q 2819 -91 2034 -91 
Q 1250 -91 836 529 
Q 422 1150 422 2328 
Q 422 3509 836 4129 
Q 1250 4750 2034 4750 
z
" transform="scale(0.015625)"/>
        <path id="DejaVuSans-11" d="M 684 794 
L 1344 794 
L 1344 0 
L 684 0 
L 684 794 
z
" transform="scale(0.015625)"/>
        <path id="DejaVuSans-18" d="M 691 4666 
L 3169 4666 
L 3169 4134 
L 1269 4134 
L 1269 2991 
Q 1406 3038 1543 3061 
Q 1681 3084 1819 3084 
Q 2600 3084 3056 2656 
Q 3513 2228 3513 1497 
Q 3513 744 3044 326 
Q 2575 -91 1722 -91 
Q 1428 -91 1123 -41 
Q 819 9 494 109 
L 494 744 
Q 775 591 1075 516 
Q 1375 441 1709 441 
Q 2250 441 2565 725 
Q 2881 1009 2881 1497 
Q 2881 1984 2565 2268 
Q 2250 2553 1709 2553 
Q 1456 2553 1204 2497 
Q 953 2441 691 2322 
L 691 4666 
z
" transform="scale(0.015625)"/>
       </defs>
       <use xlink:href="#DejaVuSans-c9c"/>
       <use xlink:href="#DejaVuSans-13" transform="translate(83.796875 0)"/>
       <use xlink:href="#DejaVuSans-11" transform="translate(147.421875 0)"/>
       <use xlink:href="#DejaVuSans-18" transform="translate(179.203125 0)"/>
      </g>
     </g>
    </g>
    <g id="ytick_2">
     <g id="line2d_9">
      <g>
       <use xlink:href="#mae856704c0" x="47.62625" y="83.621013" style="fill: #8a929b; stroke: #8a929b; stroke-width: 0.8"/>
      </g>
     </g>
     <g id="text_2">
      <!-- 0.0 -->
      <g style="fill: #8a929b" transform="translate(27.90375 86.660076) scale(0.08 -0.08)">
       <use xlink:href="#DejaVuSans-13"/>
       <use xlink:href="#DejaVuSans-11" transform="translate(63.625 0)"/>
       <use xlink:href="#DejaVuSans-13" transform="translate(95.40625 0)"/>
      </g>
     </g>
    </g>
    <g id="ytick_3">
     <g id="line2d_10">
      <g>
       <use xlink:href="#mae856704c0" x="47.62625" y="54.987757" style="fill: #8a929b; stroke: #8a929b; stroke-width: 0.8"/>
      </g>
     </g>
     <g id="text_3">
      <!-- 0.5 -->
      <g style="fill: #8a929b" transform="translate(27.90375 58.026819) scale(0.08 -0.08)">
       <use xlink:href="#DejaVuSans-13"/>
       <use xlink:href="#DejaVuSans-11" transform="translate(63.625 0)"/>
       <use xlink:href="#DejaVuSans-18" transform="translate(95.40625 0)"/>
      </g>
     </g>
    </g>
    <g id="ytick_4">
     <g id="line2d_11">
      <g>
       <use xlink:href="#mae856704c0" x="47.62625" y="26.3545" style="fill: #8a929b; stroke: #8a929b; stroke-width: 0.8"/>
      </g>
     </g>
     <g id="text_4">
      <!-- 1.0 -->
      <g style="fill: #8a929b" transform="translate(27.90375 29.393563) scale(0.08 -0.08)">
       <defs>
        <path id="DejaVuSans-14" d="M 794 531 
L 1825 531 
L 1825 4091 
L 703 3866 
L 703 4441 
L 1819 4666 
L 2450 4666 
L 2450 531 
L 3481 531 
L 3481 0 
L 794 0 
L 794 531 
z
" transform="scale(0.015625)"/>
       </defs>
       <use xlink:href="#DejaVuSans-14"/>
       <use xlink:href="#DejaVuSans-11" transform="translate(63.625 0)"/>
       <use xlink:href="#DejaVuSans-13" transform="translate(95.40625 0)"/>
      </g>
     </g>
    </g>
    <g id="text_5">
     <!-- x  (m) -->
     <g style="fill: #1f2933" transform="translate(14.797656 87.234676) rotate(-90) scale(0.1 -0.1)">
      <defs>
       <path id="DejaVuSans-5b" d="M 3513 3500 
L 2247 1797 
L 3578 0 
L 2900 0 
L 1881 1375 
L 863 0 
L 184 0 
L 1544 1831 
L 300 3500 
L 978 3500 
L 1906 2253 
L 2834 3500 
L 3513 3500 
z
" transform="scale(0.015625)"/>
       <path id="DejaVuSans-3" transform="scale(0.015625)"/>
       <path id="DejaVuSans-b" d="M 1984 4856 
Q 1566 4138 1362 3434 
Q 1159 2731 1159 2009 
Q 1159 1288 1364 580 
Q 1569 -128 1984 -844 
L 1484 -844 
Q 1016 -109 783 600 
Q 550 1309 550 2009 
Q 550 2706 781 3412 
Q 1013 4119 1484 4856 
L 1984 4856 
z
" transform="scale(0.015625)"/>
       <path id="DejaVuSans-50" d="M 3328 2828 
Q 3544 3216 3844 3400 
Q 4144 3584 4550 3584 
Q 5097 3584 5394 3201 
Q 5691 2819 5691 2113 
L 5691 0 
L 5113 0 
L 5113 2094 
Q 5113 2597 4934 2840 
Q 4756 3084 4391 3084 
Q 3944 3084 3684 2787 
Q 3425 2491 3425 1978 
L 3425 0 
L 2847 0 
L 2847 2094 
Q 2847 2600 2669 2842 
Q 2491 3084 2119 3084 
Q 1678 3084 1418 2786 
Q 1159 2488 1159 1978 
L 1159 0 
L 581 0 
L 581 3500 
L 1159 3500 
L 1159 2956 
Q 1356 3278 1631 3431 
Q 1906 3584 2284 3584 
Q 2666 3584 2933 3390 
Q 3200 3197 3328 2828 
z
" transform="scale(0.015625)"/>
       <path id="DejaVuSans-c" d="M 513 4856 
L 1013 4856 
Q 1481 4119 1714 3412 
Q 1947 2706 1947 2009 
Q 1947 1309 1714 600 
Q 1481 -109 1013 -844 
L 513 -844 
Q 928 -128 1133 580 
Q 1338 1288 1338 2009 
Q 1338 2731 1133 3434 
Q 928 4138 513 4856 
z
" transform="scale(0.015625)"/>
      </defs>
      <use xlink:href="#DejaVuSans-5b"/>
      <use xlink:href="#DejaVuSans-3" transform="translate(59.1875 0)"/>
      <use xlink:href="#DejaVuSans-3" transform="translate(90.96875 0)"/>
      <use xlink:href="#DejaVuSans-b" transform="translate(122.75 0)"/>
      <use xlink:href="#DejaVuSans-50" transform="translate(161.765625 0)"/>
      <use xlink:href="#DejaVuSans-c" transform="translate(259.171875 0)"/>
     </g>
    </g>
   </g>
   <g id="line2d_12">
    <path d="M 47.62625 83.621013 
L 404.74625 83.621013 
" clip-path="url(#p6d3c0172aa)" style="fill: none; stroke: #d8d4c8; stroke-linecap: square"/>
   </g>
   <g id="line2d_13">
    <path d="M 47.62625 26.3545 
L 49.120476 26.640593 
L 50.614702 27.486546 
L 52.108928 28.870062 
L 53.603154 30.764048 
L 55.09738 33.137004 
L 56.591606 35.953443 
L 58.085832 39.174348 
L 59.580058 42.757642 
L 62.568509 50.830794 
L 65.556961 59.79423 
L 76.016543 92.514971 
L 79.004995 100.731136 
L 80.499221 104.452389 
L 81.993447 107.874113 
L 83.487673 110.969688 
L 84.981899 113.716398 
L 86.476124 116.095564 
L 87.97035 118.092624 
L 89.464576 119.697182 
L 90.958802 120.903002 
L 92.453028 121.707973 
L 93.947254 122.114023 
L 95.44148 122.127002 
L 96.935706 121.756526 
L 98.429932 121.015787 
L 99.924158 119.921337 
L 101.418384 118.492832 
L 102.91261 116.75277 
L 104.406836 114.726188 
L 105.901062 112.440353 
L 108.889514 107.209179 
L 111.877965 101.30934 
L 116.360643 91.784567 
L 120.843321 82.242505 
L 123.831773 76.285714 
L 126.820225 70.908224 
L 129.808677 66.292504 
L 131.302903 64.316834 
L 132.797129 62.582221 
L 134.291355 61.099949 
L 135.785581 59.878508 
L 137.279806 58.923587 
L 138.774032 58.238079 
L 140.268258 57.822126 
L 141.762484 57.673183 
L 143.25671 57.786113 
L 144.750936 58.1533 
L 146.245162 58.764786 
L 147.739388 59.608431 
L 149.233614 60.670084 
L 150.72784 61.933778 
L 152.222066 63.38193 
L 155.210518 66.754502 
L 158.19897 70.623214 
L 162.681647 76.970317 
L 168.658551 85.51413 
L 171.647003 89.444951 
L 174.635455 92.95494 
L 177.623907 95.927086 
L 179.118133 97.182166 
L 180.612359 98.271197 
L 182.106585 99.187459 
L 183.600811 99.92612 
L 185.095037 100.484233 
L 186.589263 100.86072 
L 188.083488 101.056339 
L 189.577714 101.073627 
L 191.07194 100.916834 
L 192.566166 100.591835 
L 194.060392 100.106034 
L 195.554618 99.468252 
L 197.048844 98.688602 
L 200.037296 96.749818 
L 203.025748 94.391228 
L 206.0142 91.725864 
L 211.991104 85.954401 
L 216.473781 81.707353 
L 219.462233 79.119673 
L 222.450685 76.835196 
L 225.439137 74.928645 
L 228.427589 73.456262 
L 229.921815 72.895071 
L 231.416041 72.454516 
L 232.910267 72.13599 
L 234.404493 71.939636 
L 235.898719 71.864379 
L 237.392945 71.907967 
L 240.381396 72.337088 
L 243.369848 73.18761 
L 246.3583 74.40555 
L 249.346752 75.925163 
L 252.335204 77.672097 
L 258.312108 81.527535 
L 264.289012 85.331684 
L 267.277463 87.030942 
L 270.265915 88.513294 
L 273.254367 89.731241 
L 276.242819 90.64998 
L 279.231271 91.248139 
L 282.219723 91.517967 
L 285.208175 91.464961 
L 288.196627 91.107009 
L 291.185078 90.473079 
L 294.17353 89.60154 
L 297.161982 88.538198 
L 301.64466 86.696187 
L 312.104242 82.19093 
L 316.586919 80.577211 
L 319.575371 79.707338 
L 322.563823 79.033507 
L 325.552275 78.572538 
L 328.540727 78.332081 
L 331.529179 78.310764 
L 334.517631 78.498694 
L 337.506083 78.878253 
L 341.98876 79.752312 
L 346.471438 80.898617 
L 362.907924 85.493895 
L 367.390601 86.373859 
L 371.873279 86.951141 
L 374.861731 87.152668 
L 379.344409 87.178229 
L 383.827087 86.893304 
L 388.309765 86.345138 
L 394.286668 85.321883 
L 404.74625 83.264196 
L 404.74625 83.264196 
" clip-path="url(#p6d3c0172aa)" style="fill: none; stroke: #1f2933; stroke-width: 2.2; stroke-linecap: square"/>
   </g>
   <g id="patch_3">
    <path d="M 47.62625 137.450602 
L 47.62625 7.2 
" style="fill: none; stroke: #d8d4c8; stroke-width: 0.8; stroke-linejoin: miter; stroke-linecap: square"/>
   </g>
   <g id="patch_4">
    <path d="M 47.62625 137.450602 
L 404.74625 137.450602 
" style="fill: none; stroke: #d8d4c8; stroke-width: 0.8; stroke-linejoin: miter; stroke-linecap: square"/>
   </g>
   <g id="text_6">
    <g id="patch_5">
     <path d="M 128.583438 99.142725 
L 323.789062 99.142725 
Q 326.113062 99.142725 326.113062 96.818725 
L 326.113062 88.518077 
Q 326.113062 86.194077 323.789062 86.194077 
L 128.583438 86.194077 
Q 126.259438 86.194077 126.259438 88.518077 
L 126.259438 96.818725 
Q 126.259438 99.142725 128.583438 99.142725 
z
" style="fill: #fbfaf7; opacity: 0.92; stroke: #d8d4c8; stroke-width: 0.6; stroke-linejoin: miter"/>
    </g>
    <!-- amplitude decays inside an e^{−γt} envelope -->
    <g style="fill: #1f2933" transform="translate(128.583438 94.82478) scale(0.083 -0.083)">
     <defs>
      <path id="DejaVuSans-44" d="M 2194 1759 
Q 1497 1759 1228 1600 
Q 959 1441 959 1056 
Q 959 750 1161 570 
Q 1363 391 1709 391 
Q 2188 391 2477 730 
Q 2766 1069 2766 1631 
L 2766 1759 
L 2194 1759 
z
M 3341 1997 
L 3341 0 
L 2766 0 
L 2766 531 
Q 2569 213 2275 61 
Q 1981 -91 1556 -91 
Q 1019 -91 701 211 
Q 384 513 384 1019 
Q 384 1609 779 1909 
Q 1175 2209 1959 2209 
L 2766 2209 
L 2766 2266 
Q 2766 2663 2505 2880 
Q 2244 3097 1772 3097 
Q 1472 3097 1187 3025 
Q 903 2953 641 2809 
L 641 3341 
Q 956 3463 1253 3523 
Q 1550 3584 1831 3584 
Q 2591 3584 2966 3190 
Q 3341 2797 3341 1997 
z
" transform="scale(0.015625)"/>
      <path id="DejaVuSans-53" d="M 1159 525 
L 1159 -1331 
L 581 -1331 
L 581 3500 
L 1159 3500 
L 1159 2969 
Q 1341 3281 1617 3432 
Q 1894 3584 2278 3584 
Q 2916 3584 3314 3078 
Q 3713 2572 3713 1747 
Q 3713 922 3314 415 
Q 2916 -91 2278 -91 
Q 1894 -91 1617 61 
Q 1341 213 1159 525 
z
M 3116 1747 
Q 3116 2381 2855 2742 
Q 2594 3103 2138 3103 
Q 1681 3103 1420 2742 
Q 1159 2381 1159 1747 
Q 1159 1113 1420 752 
Q 1681 391 2138 391 
Q 2594 391 2855 752 
Q 3116 1113 3116 1747 
z
" transform="scale(0.015625)"/>
      <path id="DejaVuSans-4f" d="M 603 4863 
L 1178 4863 
L 1178 0 
L 603 0 
L 603 4863 
z
" transform="scale(0.015625)"/>
      <path id="DejaVuSans-4c" d="M 603 3500 
L 1178 3500 
L 1178 0 
L 603 0 
L 603 3500 
z
M 603 4863 
L 1178 4863 
L 1178 4134 
L 603 4134 
L 603 4863 
z
" transform="scale(0.015625)"/>
      <path id="DejaVuSans-57" d="M 1172 4494 
L 1172 3500 
L 2356 3500 
L 2356 3053 
L 1172 3053 
L 1172 1153 
Q 1172 725 1289 603 
Q 1406 481 1766 481 
L 2356 481 
L 2356 0 
L 1766 0 
Q 1100 0 847 248 
Q 594 497 594 1153 
L 594 3053 
L 172 3053 
L 172 3500 
L 594 3500 
L 594 4494 
L 1172 4494 
z
" transform="scale(0.015625)"/>
      <path id="DejaVuSans-58" d="M 544 1381 
L 544 3500 
L 1119 3500 
L 1119 1403 
Q 1119 906 1312 657 
Q 1506 409 1894 409 
Q 2359 409 2629 706 
Q 2900 1003 2900 1516 
L 2900 3500 
L 3475 3500 
L 3475 0 
L 2900 0 
L 2900 538 
Q 2691 219 2414 64 
Q 2138 -91 1772 -91 
Q 1169 -91 856 284 
Q 544 659 544 1381 
z
M 1991 3584 
L 1991 3584 
z
" transform="scale(0.015625)"/>
      <path id="DejaVuSans-47" d="M 2906 2969 
L 2906 4863 
L 3481 4863 
L 3481 0 
L 2906 0 
L 2906 525 
Q 2725 213 2448 61 
Q 2172 -91 1784 -91 
Q 1150 -91 751 415 
Q 353 922 353 1747 
Q 353 2572 751 3078 
Q 1150 3584 1784 3584 
Q 2172 3584 2448 3432 
Q 2725 3281 2906 2969 
z
M 947 1747 
Q 947 1113 1208 752 
Q 1469 391 1925 391 
Q 2381 391 2643 752 
Q 2906 1113 2906 1747 
Q 2906 2381 2643 2742 
Q 2381 3103 1925 3103 
Q 1469 3103 1208 2742 
Q 947 2381 947 1747 
z
" transform="scale(0.015625)"/>
      <path id="DejaVuSans-48" d="M 3597 1894 
L 3597 1613 
L 953 1613 
Q 991 1019 1311 708 
Q 1631 397 2203 397 
Q 2534 397 2845 478 
Q 3156 559 3463 722 
L 3463 178 
Q 3153 47 2828 -22 
Q 2503 -91 2169 -91 
Q 1331 -91 842 396 
Q 353 884 353 1716 
Q 353 2575 817 3079 
Q 1281 3584 2069 3584 
Q 2775 3584 3186 3129 
Q 3597 2675 3597 1894 
z
M 3022 2063 
Q 3016 2534 2758 2815 
Q 2500 3097 2075 3097 
Q 1594 3097 1305 2825 
Q 1016 2553 972 2059 
L 3022 2063 
z
" transform="scale(0.015625)"/>
      <path id="DejaVuSans-46" d="M 3122 3366 
L 3122 2828 
Q 2878 2963 2633 3030 
Q 2388 3097 2138 3097 
Q 1578 3097 1268 2742 
Q 959 2388 959 1747 
Q 959 1106 1268 751 
Q 1578 397 2138 397 
Q 2388 397 2633 464 
Q 2878 531 3122 666 
L 3122 134 
Q 2881 22 2623 -34 
Q 2366 -91 2075 -91 
Q 1284 -91 818 406 
Q 353 903 353 1747 
Q 353 2603 823 3093 
Q 1294 3584 2113 3584 
Q 2378 3584 2631 3529 
Q 2884 3475 3122 3366 
z
" transform="scale(0.015625)"/>
      <path id="DejaVuSans-5c" d="M 2059 -325 
Q 1816 -950 1584 -1140 
Q 1353 -1331 966 -1331 
L 506 -1331 
L 506 -850 
L 844 -850 
Q 1081 -850 1212 -737 
Q 1344 -625 1503 -206 
L 1606 56 
L 191 3500 
L 800 3500 
L 1894 763 
L 2988 3500 
L 3597 3500 
L 2059 -325 
z
" transform="scale(0.015625)"/>
      <path id="DejaVuSans-56" d="M 2834 3397 
L 2834 2853 
Q 2591 2978 2328 3040 
Q 2066 3103 1784 3103 
Q 1356 3103 1142 2972 
Q 928 2841 928 2578 
Q 928 2378 1081 2264 
Q 1234 2150 1697 2047 
L 1894 2003 
Q 2506 1872 2764 1633 
Q 3022 1394 3022 966 
Q 3022 478 2636 193 
Q 2250 -91 1575 -91 
Q 1294 -91 989 -36 
Q 684 19 347 128 
L 347 722 
Q 666 556 975 473 
Q 1284 391 1588 391 
Q 1994 391 2212 530 
Q 2431 669 2431 922 
Q 2431 1156 2273 1281 
Q 2116 1406 1581 1522 
L 1381 1569 
Q 847 1681 609 1914 
Q 372 2147 372 2553 
Q 372 3047 722 3315 
Q 1072 3584 1716 3584 
Q 2034 3584 2315 3537 
Q 2597 3491 2834 3397 
z
" transform="scale(0.015625)"/>
      <path id="DejaVuSans-51" d="M 3513 2113 
L 3513 0 
L 2938 0 
L 2938 2094 
Q 2938 2591 2744 2837 
Q 2550 3084 2163 3084 
Q 1697 3084 1428 2787 
Q 1159 2491 1159 1978 
L 1159 0 
L 581 0 
L 581 3500 
L 1159 3500 
L 1159 2956 
Q 1366 3272 1645 3428 
Q 1925 3584 2291 3584 
Q 2894 3584 3203 3211 
Q 3513 2838 3513 2113 
z
" transform="scale(0.015625)"/>
      <path id="DejaVuSans-41" d="M 2988 4666 
L 4684 2925 
L 4056 2925 
L 2681 4159 
L 1306 2925 
L 678 2925 
L 2375 4666 
L 2988 4666 
z
" transform="scale(0.015625)"/>
      <path id="DejaVuSans-5e" d="M 3272 -594 
L 3272 -1044 
L 3078 -1044 
Q 2300 -1044 2036 -812 
Q 1772 -581 1772 109 
L 1772 856 
Q 1772 1328 1603 1509 
Q 1434 1691 991 1691 
L 800 1691 
L 800 2138 
L 991 2138 
Q 1438 2138 1605 2317 
Q 1772 2497 1772 2963 
L 1772 3713 
Q 1772 4403 2036 4633 
Q 2300 4863 3078 4863 
L 3272 4863 
L 3272 4416 
L 3059 4416 
Q 2619 4416 2484 4278 
Q 2350 4141 2350 3700 
L 2350 2925 
Q 2350 2434 2208 2212 
Q 2066 1991 1722 1913 
Q 2069 1828 2209 1606 
Q 2350 1384 2350 897 
L 2350 122 
Q 2350 -319 2484 -456 
Q 2619 -594 3059 -594 
L 3272 -594 
z
" transform="scale(0.015625)"/>
      <path id="DejaVuSans-347" d="M 1128 2950 
L 1894 788 
L 2988 3500 
L 3597 3500 
L 2181 0 
L 2181 -1331 
L 1606 -1331 
L 1606 0 
L 688 2613 
Q 550 3006 253 3006 
L 100 3006 
L 100 3500 
L 319 3500 
Q 934 3500 1128 2950 
z
" transform="scale(0.015625)"/>
      <path id="DejaVuSans-60" d="M 800 -594 
L 1019 -594 
Q 1456 -594 1589 -459 
Q 1722 -325 1722 122 
L 1722 897 
Q 1722 1384 1862 1606 
Q 2003 1828 2350 1913 
Q 2003 1991 1862 2212 
Q 1722 2434 1722 2925 
L 1722 3700 
Q 1722 4144 1589 4280 
Q 1456 4416 1019 4416 
L 800 4416 
L 800 4863 
L 997 4863 
Q 1775 4863 2036 4633 
Q 2297 4403 2297 3713 
L 2297 2963 
Q 2297 2497 2465 2317 
Q 2634 2138 3078 2138 
L 3272 2138 
L 3272 1691 
L 3078 1691 
Q 2634 1691 2465 1509 
Q 2297 1328 2297 856 
L 2297 109 
Q 2297 -581 2036 -812 
Q 1775 -1044 997 -1044 
L 800 -1044 
L 800 -594 
z
" transform="scale(0.015625)"/>
      <path id="DejaVuSans-59" d="M 191 3500 
L 800 3500 
L 1894 563 
L 2988 3500 
L 3597 3500 
L 2284 0 
L 1503 0 
L 191 3500 
z
" transform="scale(0.015625)"/>
      <path id="DejaVuSans-52" d="M 1959 3097 
Q 1497 3097 1228 2736 
Q 959 2375 959 1747 
Q 959 1119 1226 758 
Q 1494 397 1959 397 
Q 2419 397 2687 759 
Q 2956 1122 2956 1747 
Q 2956 2369 2687 2733 
Q 2419 3097 1959 3097 
z
M 1959 3584 
Q 2709 3584 3137 3096 
Q 3566 2609 3566 1747 
Q 3566 888 3137 398 
Q 2709 -91 1959 -91 
Q 1206 -91 779 398 
Q 353 888 353 1747 
Q 353 2609 779 3096 
Q 1206 3584 1959 3584 
z
" transform="scale(0.015625)"/>
     </defs>
     <use xlink:href="#DejaVuSans-44"/>
     <use xlink:href="#DejaVuSans-50" transform="translate(61.28125 0)"/>
     <use xlink:href="#DejaVuSans-53" transform="translate(158.6875 0)"/>
     <use xlink:href="#DejaVuSans-4f" transform="translate(222.171875 0)"/>
     <use xlink:href="#DejaVuSans-4c" transform="translate(249.953125 0)"/>
     <use xlink:href="#DejaVuSans-57" transform="translate(277.734375 0)"/>
     <use xlink:href="#DejaVuSans-58" transform="translate(316.9375 0)"/>
     <use xlink:href="#DejaVuSans-47" transform="translate(380.3125 0)"/>
     <use xlink:href="#DejaVuSans-48" transform="translate(443.796875 0)"/>
     <use xlink:href="#DejaVuSans-3" transform="translate(505.328125 0)"/>
     <use xlink:href="#DejaVuSans-47" transform="translate(537.109375 0)"/>
     <use xlink:href="#DejaVuSans-48" transform="translate(600.59375 0)"/>
     <use xlink:href="#DejaVuSans-46" transform="translate(662.125 0)"/>
     <use xlink:href="#DejaVuSans-44" transform="translate(717.109375 0)"/>
     <use xlink:href="#DejaVuSans-5c" transform="translate(778.390625 0)"/>
     <use xlink:href="#DejaVuSans-56" transform="translate(837.578125 0)"/>
     <use xlink:href="#DejaVuSans-3" transform="translate(889.671875 0)"/>
     <use xlink:href="#DejaVuSans-4c" transform="translate(921.453125 0)"/>
     <use xlink:href="#DejaVuSans-51" transform="translate(949.234375 0)"/>
     <use xlink:href="#DejaVuSans-56" transform="translate(1012.609375 0)"/>
     <use xlink:href="#DejaVuSans-4c" transform="translate(1064.703125 0)"/>
     <use xlink:href="#DejaVuSans-47" transform="translate(1092.484375 0)"/>
     <use xlink:href="#DejaVuSans-48" transform="translate(1155.96875 0)"/>
     <use xlink:href="#DejaVuSans-3" transform="translate(1217.5 0)"/>
     <use xlink:href="#DejaVuSans-44" transform="translate(1249.28125 0)"/>
     <use xlink:href="#DejaVuSans-51" transform="translate(1310.5625 0)"/>
     <use xlink:href="#DejaVuSans-3" transform="translate(1373.9375 0)"/>
     <use xlink:href="#DejaVuSans-48" transform="translate(1405.71875 0)"/>
     <use xlink:href="#DejaVuSans-41" transform="translate(1467.25 0)"/>
     <use xlink:href="#DejaVuSans-5e" transform="translate(1551.046875 0)"/>
     <use xlink:href="#DejaVuSans-c9c" transform="translate(1614.671875 0)"/>
     <use xlink:href="#DejaVuSans-347" transform="translate(1698.46875 0)"/>
     <use xlink:href="#DejaVuSans-57" transform="translate(1757.65625 0)"/>
     <use xlink:href="#DejaVuSans-60" transform="translate(1796.859375 0)"/>
     <use xlink:href="#DejaVuSans-3" transform="translate(1860.484375 0)"/>
     <use xlink:href="#DejaVuSans-48" transform="translate(1892.265625 0)"/>
     <use xlink:href="#DejaVuSans-51" transform="translate(1953.796875 0)"/>
     <use xlink:href="#DejaVuSans-59" transform="translate(2017.171875 0)"/>
     <use xlink:href="#DejaVuSans-48" transform="translate(2076.359375 0)"/>
     <use xlink:href="#DejaVuSans-4f" transform="translate(2137.890625 0)"/>
     <use xlink:href="#DejaVuSans-52" transform="translate(2165.671875 0)"/>
     <use xlink:href="#DejaVuSans-53" transform="translate(2226.859375 0)"/>
     <use xlink:href="#DejaVuSans-48" transform="translate(2290.34375 0)"/>
    </g>
   </g>
  </g>
  <g id="axes_2">
   <g id="patch_6">
    <path d="M 47.62625 288.541301 
L 404.74625 288.541301 
L 404.74625 158.290699 
L 47.62625 158.290699 
z
" style="fill: #fbfaf7"/>
   </g>
   <g id="matplotlib.axis_3">
    <g id="xtick_8">
     <g id="line2d_14">
      <g>
       <use xlink:href="#mc6b798389b" x="47.62625" y="288.541301" style="fill: #8a929b; stroke: #8a929b; stroke-width: 0.8"/>
      </g>
     </g>
    </g>
    <g id="xtick_9">
     <g id="line2d_15">
      <g>
       <use xlink:href="#mc6b798389b" x="107.14625" y="288.541301" style="fill: #8a929b; stroke: #8a929b; stroke-width: 0.8"/>
      </g>
     </g>
    </g>
    <g id="xtick_10">
     <g id="line2d_16">
      <g>
       <use xlink:href="#mc6b798389b" x="166.66625" y="288.541301" style="fill: #8a929b; stroke: #8a929b; stroke-width: 0.8"/>
      </g>
     </g>
    </g>
    <g id="xtick_11">
     <g id="line2d_17">
      <g>
       <use xlink:href="#mc6b798389b" x="226.18625" y="288.541301" style="fill: #8a929b; stroke: #8a929b; stroke-width: 0.8"/>
      </g>
     </g>
    </g>
    <g id="xtick_12">
     <g id="line2d_18">
      <g>
       <use xlink:href="#mc6b798389b" x="285.70625" y="288.541301" style="fill: #8a929b; stroke: #8a929b; stroke-width: 0.8"/>
      </g>
     </g>
    </g>
    <g id="xtick_13">
     <g id="line2d_19">
      <g>
       <use xlink:href="#mc6b798389b" x="345.22625" y="288.541301" style="fill: #8a929b; stroke: #8a929b; stroke-width: 0.8"/>
      </g>
     </g>
    </g>
    <g id="xtick_14">
     <g id="line2d_20">
      <g>
       <use xlink:href="#mc6b798389b" x="404.74625" y="288.541301" style="fill: #8a929b; stroke: #8a929b; stroke-width: 0.8"/>
      </g>
     </g>
    </g>
   </g>
   <g id="matplotlib.axis_4">
    <g id="ytick_5">
     <g id="line2d_21">
      <g>
       <use xlink:href="#mae856704c0" x="47.62625" y="284.729425" style="fill: #8a929b; stroke: #8a929b; stroke-width: 0.8"/>
      </g>
     </g>
     <g id="text_7">
      <!-- −4 -->
      <g style="fill: #8a929b" transform="translate(28.8325 287.768488) scale(0.08 -0.08)">
       <defs>
        <path id="DejaVuSans-17" d="M 2419 4116 
L 825 1625 
L 2419 1625 
L 2419 4116 
z
M 2253 4666 
L 3047 4666 
L 3047 1625 
L 3713 1625 
L 3713 1100 
L 3047 1100 
L 3047 0 
L 2419 0 
L 2419 1100 
L 313 1100 
L 313 1709 
L 2253 4666 
z
" transform="scale(0.015625)"/>
       </defs>
       <use xlink:href="#DejaVuSans-c9c"/>
       <use xlink:href="#DejaVuSans-17" transform="translate(83.796875 0)"/>
      </g>
     </g>
    </g>
    <g id="ytick_6">
     <g id="line2d_22">
      <g>
       <use xlink:href="#mae856704c0" x="47.62625" y="267.548138" style="fill: #8a929b; stroke: #8a929b; stroke-width: 0.8"/>
      </g>
     </g>
     <g id="text_8">
      <!-- −3 -->
      <g style="fill: #8a929b" transform="translate(28.8325 270.587201) scale(0.08 -0.08)">
       <defs>
        <path id="DejaVuSans-16" d="M 2597 2516 
Q 3050 2419 3304 2112 
Q 3559 1806 3559 1356 
Q 3559 666 3084 287 
Q 2609 -91 1734 -91 
Q 1441 -91 1130 -33 
Q 819 25 488 141 
L 488 750 
Q 750 597 1062 519 
Q 1375 441 1716 441 
Q 2309 441 2620 675 
Q 2931 909 2931 1356 
Q 2931 1769 2642 2001 
Q 2353 2234 1838 2234 
L 1294 2234 
L 1294 2753 
L 1863 2753 
Q 2328 2753 2575 2939 
Q 2822 3125 2822 3475 
Q 2822 3834 2567 4026 
Q 2313 4219 1838 4219 
Q 1578 4219 1281 4162 
Q 984 4106 628 3988 
L 628 4550 
Q 988 4650 1302 4700 
Q 1616 4750 1894 4750 
Q 2613 4750 3031 4423 
Q 3450 4097 3450 3541 
Q 3450 3153 3228 2886 
Q 3006 2619 2597 2516 
z
" transform="scale(0.015625)"/>
       </defs>
       <use xlink:href="#DejaVuSans-c9c"/>
       <use xlink:href="#DejaVuSans-16" transform="translate(83.796875 0)"/>
      </g>
     </g>
    </g>
    <g id="ytick_7">
     <g id="line2d_23">
      <g>
       <use xlink:href="#mae856704c0" x="47.62625" y="250.366851" style="fill: #8a929b; stroke: #8a929b; stroke-width: 0.8"/>
      </g>
     </g>
     <g id="text_9">
      <!-- −2 -->
      <g style="fill: #8a929b" transform="translate(28.8325 253.405913) scale(0.08 -0.08)">
       <defs>
        <path id="DejaVuSans-15" d="M 1228 531 
L 3431 531 
L 3431 0 
L 469 0 
L 469 531 
Q 828 903 1448 1529 
Q 2069 2156 2228 2338 
Q 2531 2678 2651 2914 
Q 2772 3150 2772 3378 
Q 2772 3750 2511 3984 
Q 2250 4219 1831 4219 
Q 1534 4219 1204 4116 
Q 875 4013 500 3803 
L 500 4441 
Q 881 4594 1212 4672 
Q 1544 4750 1819 4750 
Q 2544 4750 2975 4387 
Q 3406 4025 3406 3419 
Q 3406 3131 3298 2873 
Q 3191 2616 2906 2266 
Q 2828 2175 2409 1742 
Q 1991 1309 1228 531 
z
" transform="scale(0.015625)"/>
       </defs>
       <use xlink:href="#DejaVuSans-c9c"/>
       <use xlink:href="#DejaVuSans-15" transform="translate(83.796875 0)"/>
      </g>
     </g>
    </g>
    <g id="ytick_8">
     <g id="line2d_24">
      <g>
       <use xlink:href="#mae856704c0" x="47.62625" y="233.185563" style="fill: #8a929b; stroke: #8a929b; stroke-width: 0.8"/>
      </g>
     </g>
     <g id="text_10">
      <!-- −1 -->
      <g style="fill: #8a929b" transform="translate(28.8325 236.224626) scale(0.08 -0.08)">
       <use xlink:href="#DejaVuSans-c9c"/>
       <use xlink:href="#DejaVuSans-14" transform="translate(83.796875 0)"/>
      </g>
     </g>
    </g>
    <g id="ytick_9">
     <g id="line2d_25">
      <g>
       <use xlink:href="#mae856704c0" x="47.62625" y="216.004276" style="fill: #8a929b; stroke: #8a929b; stroke-width: 0.8"/>
      </g>
     </g>
     <g id="text_11">
      <!-- 0 -->
      <g style="fill: #8a929b" transform="translate(35.53625 219.043338) scale(0.08 -0.08)">
       <use xlink:href="#DejaVuSans-13"/>
      </g>
     </g>
    </g>
    <g id="ytick_10">
     <g id="line2d_26">
      <g>
       <use xlink:href="#mae856704c0" x="47.62625" y="198.822988" style="fill: #8a929b; stroke: #8a929b; stroke-width: 0.8"/>
      </g>
     </g>
     <g id="text_12">
      <!-- 1 -->
      <g style="fill: #8a929b" transform="translate(35.53625 201.862051) scale(0.08 -0.08)">
       <use xlink:href="#DejaVuSans-14"/>
      </g>
     </g>
    </g>
    <g id="ytick_11">
     <g id="line2d_27">
      <g>
       <use xlink:href="#mae856704c0" x="47.62625" y="181.641701" style="fill: #8a929b; stroke: #8a929b; stroke-width: 0.8"/>
      </g>
     </g>
     <g id="text_13">
      <!-- 2 -->
      <g style="fill: #8a929b" transform="translate(35.53625 184.680763) scale(0.08 -0.08)">
       <use xlink:href="#DejaVuSans-15"/>
      </g>
     </g>
    </g>
    <g id="ytick_12">
     <g id="line2d_28">
      <g>
       <use xlink:href="#mae856704c0" x="47.62625" y="164.460413" style="fill: #8a929b; stroke: #8a929b; stroke-width: 0.8"/>
      </g>
     </g>
     <g id="text_14">
      <!-- 3 -->
      <g style="fill: #8a929b" transform="translate(35.53625 167.499476) scale(0.08 -0.08)">
       <use xlink:href="#DejaVuSans-16"/>
      </g>
     </g>
    </g>
    <g id="text_15">
     <!-- v  (m/s) -->
     <g style="fill: #1f2933" transform="translate(22.430156 242.614437) rotate(-90) scale(0.1 -0.1)">
      <defs>
       <path id="DejaVuSans-12" d="M 1625 4666 
L 2156 4666 
L 531 -594 
L 0 -594 
L 1625 4666 
z
" transform="scale(0.015625)"/>
      </defs>
      <use xlink:href="#DejaVuSans-59"/>
      <use xlink:href="#DejaVuSans-3" transform="translate(59.1875 0)"/>
      <use xlink:href="#DejaVuSans-3" transform="translate(90.96875 0)"/>
      <use xlink:href="#DejaVuSans-b" transform="translate(122.75 0)"/>
      <use xlink:href="#DejaVuSans-50" transform="translate(161.765625 0)"/>
      <use xlink:href="#DejaVuSans-12" transform="translate(259.171875 0)"/>
      <use xlink:href="#DejaVuSans-56" transform="translate(292.859375 0)"/>
      <use xlink:href="#DejaVuSans-c" transform="translate(344.953125 0)"/>
     </g>
    </g>
   </g>
   <g id="line2d_29">
    <path d="M 47.62625 216.004276 
L 404.74625 216.004276 
" clip-path="url(#p00dd6f8e1d)" style="fill: none; stroke: #d8d4c8; stroke-linecap: square"/>
   </g>
   <g id="line2d_30">
    <path d="M 47.62625 216.004276 
L 50.614702 229.375725 
L 53.603154 241.568118 
L 55.09738 247.0877 
L 56.591606 252.161161 
L 58.085832 256.749081 
L 59.580058 260.817846 
L 61.074283 264.339845 
L 62.568509 267.293588 
L 64.062735 269.663775 
L 65.556961 271.44129 
L 67.051187 272.62314 
L 68.545413 273.212333 
L 70.039639 273.217701 
L 71.533865 272.653664 
L 73.028091 271.53995 
L 74.522317 269.90127 
L 76.016543 267.766943 
L 77.510769 265.170493 
L 79.004995 262.149213 
L 80.499221 258.743695 
L 83.487673 250.955909 
L 86.476124 242.17912 
L 90.958802 228.01983 
L 95.44148 213.845266 
L 98.429932 205.002003 
L 101.418384 197.023162 
L 102.91261 193.444609 
L 104.406836 190.179244 
L 105.901062 187.251793 
L 107.395288 184.683005 
L 108.889514 182.489549 
L 110.38374 180.683943 
L 111.877965 179.274539 
L 113.372191 178.265536 
L 114.866417 177.657048 
L 116.360643 177.445199 
L 117.854869 177.622264 
L 119.349095 178.176839 
L 120.843321 179.094047 
L 122.337547 180.355771 
L 123.831773 181.940916 
L 125.325999 183.825691 
L 126.820225 185.983914 
L 128.314451 188.387332 
L 131.302903 193.808384 
L 134.291355 199.834214 
L 144.750936 221.874373 
L 147.739388 227.419391 
L 150.72784 232.245314 
L 152.222066 234.338895 
L 153.716292 236.198143 
L 155.210518 237.810367 
L 156.704744 239.165652 
L 158.19897 240.256881 
L 159.693196 241.079743 
L 161.187422 241.632705 
L 162.681647 241.916956 
L 164.175873 241.936329 
L 165.670099 241.697199 
L 167.164325 241.208354 
L 168.658551 240.480848 
L 170.152777 239.527837 
L 171.647003 238.364395 
L 173.141229 237.007315 
L 176.129681 233.786745 
L 179.118133 230.026678 
L 183.600811 223.757095 
L 191.07194 213.112074 
L 194.060392 209.271438 
L 197.048844 205.882854 
L 200.037296 203.057043 
L 201.531522 201.882323 
L 203.025748 200.87724 
L 204.519974 200.047588 
L 206.0142 199.397274 
L 207.508426 198.928321 
L 209.002652 198.6409 
L 210.496878 198.53337 
L 211.991104 198.602341 
L 213.485329 198.84275 
L 214.979555 199.247956 
L 216.473781 199.809841 
L 217.968007 200.51893 
L 220.956459 202.334806 
L 223.944911 204.597705 
L 226.933363 207.197015 
L 231.416041 211.466891 
L 237.392945 217.222955 
L 240.381396 219.874525 
L 243.369848 222.244506 
L 246.3583 224.253766 
L 249.346752 225.841192 
L 252.335204 226.965201 
L 253.82943 227.345953 
L 255.323656 227.604417 
L 256.817882 227.741052 
L 258.312108 227.757518 
L 259.806334 227.656632 
L 262.794786 227.119487 
L 265.783237 226.172846 
L 268.771689 224.873877 
L 271.760141 223.290763 
L 276.242819 220.550843 
L 286.702401 213.858089 
L 289.690853 212.20664 
L 292.679304 210.784958 
L 295.667756 209.637531 
L 298.656208 208.795918 
L 301.64466 208.27814 
L 304.633112 208.088639 
L 307.621564 208.218771 
L 310.610016 208.647781 
L 313.598468 209.344212 
L 316.586919 210.267664 
L 321.069597 211.97363 
L 328.540727 215.227908 
L 334.517631 217.720871 
L 339.000309 219.279824 
L 341.98876 220.103784 
L 344.977212 220.726663 
L 347.965664 221.133888 
L 350.954116 221.320051 
L 353.942568 221.288679 
L 356.93102 221.051656 
L 359.919472 220.628344 
L 364.40215 219.701763 
L 368.884827 218.521601 
L 383.827087 214.306203 
L 388.309765 213.379695 
L 392.792442 212.748118 
L 395.780894 212.508694 
L 400.263572 212.427572 
L 404.74625 212.662658 
L 404.74625 212.662658 
" clip-path="url(#p00dd6f8e1d)" style="fill: none; stroke: #2f6f4f; stroke-width: 2.2; stroke-linecap: square"/>
   </g>
   <g id="patch_7">
    <path d="M 47.62625 288.541301 
L 47.62625 158.290699 
" style="fill: none; stroke: #d8d4c8; stroke-width: 0.8; stroke-linejoin: miter; stroke-linecap: square"/>
   </g>
   <g id="patch_8">
    <path d="M 47.62625 288.541301 
L 404.74625 288.541301 
" style="fill: none; stroke: #d8d4c8; stroke-width: 0.8; stroke-linejoin: miter; stroke-linecap: square"/>
   </g>
  </g>
  <g id="axes_3">
   <g id="patch_9">
    <path d="M 47.62625 439.632 
L 404.74625 439.632 
L 404.74625 309.381398 
L 47.62625 309.381398 
z
" style="fill: #fbfaf7"/>
   </g>
   <g id="matplotlib.axis_5">
    <g id="xtick_15">
     <g id="line2d_31">
      <g>
       <use xlink:href="#mc6b798389b" x="47.62625" y="439.632" style="fill: #8a929b; stroke: #8a929b; stroke-width: 0.8"/>
      </g>
     </g>
     <g id="text_16">
      <!-- 0 -->
      <g style="fill: #8a929b" transform="translate(45.08125 452.710125) scale(0.08 -0.08)">
       <use xlink:href="#DejaVuSans-13"/>
      </g>
     </g>
    </g>
    <g id="xtick_16">
     <g id="line2d_32">
      <g>
       <use xlink:href="#mc6b798389b" x="107.14625" y="439.632" style="fill: #8a929b; stroke: #8a929b; stroke-width: 0.8"/>
      </g>
     </g>
     <g id="text_17">
      <!-- 1 -->
      <g style="fill: #8a929b" transform="translate(104.60125 452.710125) scale(0.08 -0.08)">
       <use xlink:href="#DejaVuSans-14"/>
      </g>
     </g>
    </g>
    <g id="xtick_17">
     <g id="line2d_33">
      <g>
       <use xlink:href="#mc6b798389b" x="166.66625" y="439.632" style="fill: #8a929b; stroke: #8a929b; stroke-width: 0.8"/>
      </g>
     </g>
     <g id="text_18">
      <!-- 2 -->
      <g style="fill: #8a929b" transform="translate(164.12125 452.710125) scale(0.08 -0.08)">
       <use xlink:href="#DejaVuSans-15"/>
      </g>
     </g>
    </g>
    <g id="xtick_18">
     <g id="line2d_34">
      <g>
       <use xlink:href="#mc6b798389b" x="226.18625" y="439.632" style="fill: #8a929b; stroke: #8a929b; stroke-width: 0.8"/>
      </g>
     </g>
     <g id="text_19">
      <!-- 3 -->
      <g style="fill: #8a929b" transform="translate(223.64125 452.710125) scale(0.08 -0.08)">
       <use xlink:href="#DejaVuSans-16"/>
      </g>
     </g>
    </g>
    <g id="xtick_19">
     <g id="line2d_35">
      <g>
       <use xlink:href="#mc6b798389b" x="285.70625" y="439.632" style="fill: #8a929b; stroke: #8a929b; stroke-width: 0.8"/>
      </g>
     </g>
     <g id="text_20">
      <!-- 4 -->
      <g style="fill: #8a929b" transform="translate(283.16125 452.710125) scale(0.08 -0.08)">
       <use xlink:href="#DejaVuSans-17"/>
      </g>
     </g>
    </g>
    <g id="xtick_20">
     <g id="line2d_36">
      <g>
       <use xlink:href="#mc6b798389b" x="345.22625" y="439.632" style="fill: #8a929b; stroke: #8a929b; stroke-width: 0.8"/>
      </g>
     </g>
     <g id="text_21">
      <!-- 5 -->
      <g style="fill: #8a929b" transform="translate(342.68125 452.710125) scale(0.08 -0.08)">
       <use xlink:href="#DejaVuSans-18"/>
      </g>
     </g>
    </g>
    <g id="xtick_21">
     <g id="line2d_37">
      <g>
       <use xlink:href="#mc6b798389b" x="404.74625" y="439.632" style="fill: #8a929b; stroke: #8a929b; stroke-width: 0.8"/>
      </g>
     </g>
     <g id="text_22">
      <!-- 6 -->
      <g style="fill: #8a929b" transform="translate(402.20125 452.710125) scale(0.08 -0.08)">
       <defs>
        <path id="DejaVuSans-19" d="M 2113 2584 
Q 1688 2584 1439 2293 
Q 1191 2003 1191 1497 
Q 1191 994 1439 701 
Q 1688 409 2113 409 
Q 2538 409 2786 701 
Q 3034 994 3034 1497 
Q 3034 2003 2786 2293 
Q 2538 2584 2113 2584 
z
M 3366 4563 
L 3366 3988 
Q 3128 4100 2886 4159 
Q 2644 4219 2406 4219 
Q 1781 4219 1451 3797 
Q 1122 3375 1075 2522 
Q 1259 2794 1537 2939 
Q 1816 3084 2150 3084 
Q 2853 3084 3261 2657 
Q 3669 2231 3669 1497 
Q 3669 778 3244 343 
Q 2819 -91 2113 -91 
Q 1303 -91 875 529 
Q 447 1150 447 2328 
Q 447 3434 972 4092 
Q 1497 4750 2381 4750 
Q 2619 4750 2861 4703 
Q 3103 4656 3366 4563 
z
" transform="scale(0.015625)"/>
       </defs>
       <use xlink:href="#DejaVuSans-19"/>
      </g>
     </g>
    </g>
    <g id="text_23">
     <!-- t  (s) -->
     <g style="fill: #1f2933" transform="translate(214.541719 466.229656) scale(0.1 -0.1)">
      <use xlink:href="#DejaVuSans-57"/>
      <use xlink:href="#DejaVuSans-3" transform="translate(39.203125 0)"/>
      <use xlink:href="#DejaVuSans-3" transform="translate(70.984375 0)"/>
      <use xlink:href="#DejaVuSans-b" transform="translate(102.765625 0)"/>
      <use xlink:href="#DejaVuSans-56" transform="translate(141.78125 0)"/>
      <use xlink:href="#DejaVuSans-c" transform="translate(193.875 0)"/>
     </g>
    </g>
   </g>
   <g id="matplotlib.axis_6">
    <g id="ytick_13">
     <g id="line2d_38">
      <g>
       <use xlink:href="#mae856704c0" x="47.62625" y="438.436349" style="fill: #8a929b; stroke: #8a929b; stroke-width: 0.8"/>
      </g>
     </g>
     <g id="text_24">
      <!-- −20 -->
      <g style="fill: #8a929b" transform="translate(23.7425 441.475411) scale(0.08 -0.08)">
       <use xlink:href="#DejaVuSans-c9c"/>
       <use xlink:href="#DejaVuSans-15" transform="translate(83.796875 0)"/>
       <use xlink:href="#DejaVuSans-13" transform="translate(147.421875 0)"/>
      </g>
     </g>
    </g>
    <g id="ytick_14">
     <g id="line2d_39">
      <g>
       <use xlink:href="#mae856704c0" x="47.62625" y="420.776413" style="fill: #8a929b; stroke: #8a929b; stroke-width: 0.8"/>
      </g>
     </g>
     <g id="text_25">
      <!-- −15 -->
      <g style="fill: #8a929b" transform="translate(23.7425 423.815475) scale(0.08 -0.08)">
       <use xlink:href="#DejaVuSans-c9c"/>
       <use xlink:href="#DejaVuSans-14" transform="translate(83.796875 0)"/>
       <use xlink:href="#DejaVuSans-18" transform="translate(147.421875 0)"/>
      </g>
     </g>
    </g>
    <g id="ytick_15">
     <g id="line2d_40">
      <g>
       <use xlink:href="#mae856704c0" x="47.62625" y="403.116476" style="fill: #8a929b; stroke: #8a929b; stroke-width: 0.8"/>
      </g>
     </g>
     <g id="text_26">
      <!-- −10 -->
      <g style="fill: #8a929b" transform="translate(23.7425 406.155539) scale(0.08 -0.08)">
       <use xlink:href="#DejaVuSans-c9c"/>
       <use xlink:href="#DejaVuSans-14" transform="translate(83.796875 0)"/>
       <use xlink:href="#DejaVuSans-13" transform="translate(147.421875 0)"/>
      </g>
     </g>
    </g>
    <g id="ytick_16">
     <g id="line2d_41">
      <g>
       <use xlink:href="#mae856704c0" x="47.62625" y="385.45654" style="fill: #8a929b; stroke: #8a929b; stroke-width: 0.8"/>
      </g>
     </g>
     <g id="text_27">
      <!-- −5 -->
      <g style="fill: #8a929b" transform="translate(28.8325 388.495603) scale(0.08 -0.08)">
       <use xlink:href="#DejaVuSans-c9c"/>
       <use xlink:href="#DejaVuSans-18" transform="translate(83.796875 0)"/>
      </g>
     </g>
    </g>
    <g id="ytick_17">
     <g id="line2d_42">
      <g>
       <use xlink:href="#mae856704c0" x="47.62625" y="367.796604" style="fill: #8a929b; stroke: #8a929b; stroke-width: 0.8"/>
      </g>
     </g>
     <g id="text_28">
      <!-- 0 -->
      <g style="fill: #8a929b" transform="translate(35.53625 370.835667) scale(0.08 -0.08)">
       <use xlink:href="#DejaVuSans-13"/>
      </g>
     </g>
    </g>
    <g id="ytick_18">
     <g id="line2d_43">
      <g>
       <use xlink:href="#mae856704c0" x="47.62625" y="350.136668" style="fill: #8a929b; stroke: #8a929b; stroke-width: 0.8"/>
      </g>
     </g>
     <g id="text_29">
      <!-- 5 -->
      <g style="fill: #8a929b" transform="translate(35.53625 353.175731) scale(0.08 -0.08)">
       <use xlink:href="#DejaVuSans-18"/>
      </g>
     </g>
    </g>
    <g id="ytick_19">
     <g id="line2d_44">
      <g>
       <use xlink:href="#mae856704c0" x="47.62625" y="332.476732" style="fill: #8a929b; stroke: #8a929b; stroke-width: 0.8"/>
      </g>
     </g>
     <g id="text_30">
      <!-- 10 -->
      <g style="fill: #8a929b" transform="translate(30.44625 335.515795) scale(0.08 -0.08)">
       <use xlink:href="#DejaVuSans-14"/>
       <use xlink:href="#DejaVuSans-13" transform="translate(63.625 0)"/>
      </g>
     </g>
    </g>
    <g id="ytick_20">
     <g id="line2d_45">
      <g>
       <use xlink:href="#mae856704c0" x="47.62625" y="314.816796" style="fill: #8a929b; stroke: #8a929b; stroke-width: 0.8"/>
      </g>
     </g>
     <g id="text_31">
      <!-- 15 -->
      <g style="fill: #8a929b" transform="translate(30.44625 317.855859) scale(0.08 -0.08)">
       <use xlink:href="#DejaVuSans-14"/>
       <use xlink:href="#DejaVuSans-18" transform="translate(63.625 0)"/>
      </g>
     </g>
    </g>
    <g id="text_32">
     <!-- a  (m/s²) -->
     <g style="fill: #1f2933" transform="translate(17.340156 395.814511) rotate(-90) scale(0.1 -0.1)">
      <defs>
       <path id="DejaVuSans-74" d="M 838 2444 
L 2163 2444 
L 2163 2088 
L 294 2088 
L 294 2431 
Q 400 2528 597 2703 
Q 1672 3656 1672 3950 
Q 1672 4156 1509 4282 
Q 1347 4409 1081 4409 
Q 919 4409 728 4354 
Q 538 4300 313 4191 
L 313 4575 
Q 553 4663 761 4706 
Q 969 4750 1147 4750 
Q 1600 4750 1872 4544 
Q 2144 4338 2144 4000 
Q 2144 3566 1109 2678 
Q 934 2528 838 2444 
z
" transform="scale(0.015625)"/>
      </defs>
      <use xlink:href="#DejaVuSans-44"/>
      <use xlink:href="#DejaVuSans-3" transform="translate(61.28125 0)"/>
      <use xlink:href="#DejaVuSans-3" transform="translate(93.0625 0)"/>
      <use xlink:href="#DejaVuSans-b" transform="translate(124.84375 0)"/>
      <use xlink:href="#DejaVuSans-50" transform="translate(163.859375 0)"/>
      <use xlink:href="#DejaVuSans-12" transform="translate(261.265625 0)"/>
      <use xlink:href="#DejaVuSans-56" transform="translate(294.953125 0)"/>
      <use xlink:href="#DejaVuSans-74" transform="translate(347.046875 0)"/>
      <use xlink:href="#DejaVuSans-c" transform="translate(387.140625 0)"/>
     </g>
    </g>
   </g>
   <g id="line2d_46">
    <path d="M 47.62625 367.796604 
L 404.74625 367.796604 
" clip-path="url(#pefc21a8f7c)" style="fill: none; stroke: #d8d4c8; stroke-linecap: square"/>
   </g>
   <g id="line2d_47">
    <path d="M 47.62625 424.3084 
L 49.120476 422.627385 
L 50.614702 420.442481 
L 52.108928 417.787922 
L 53.603154 414.701762 
L 55.09738 411.225409 
L 58.085832 403.281525 
L 61.074283 394.335374 
L 65.556961 379.91309 
L 70.039639 365.485854 
L 73.028091 356.490495 
L 76.016543 348.378919 
L 77.510769 344.742632 
L 79.004995 341.425882 
L 80.499221 338.453749 
L 81.993447 335.847263 
L 83.487673 333.623291 
L 84.981899 331.79448 
L 86.476124 330.369229 
L 87.97035 329.351714 
L 89.464576 328.741951 
L 90.958802 328.535898 
L 92.453028 328.725596 
L 93.947254 329.299346 
L 95.44148 330.241919 
L 96.935706 331.534791 
L 98.429932 333.156414 
L 99.924158 335.082502 
L 101.418384 337.286343 
L 102.91261 339.739122 
L 105.901062 345.267774 
L 108.889514 351.408989 
L 119.349095 373.845113 
L 122.337547 379.483259 
L 125.325999 384.387103 
L 126.820225 386.513189 
L 128.314451 388.400336 
L 129.808677 390.03569 
L 131.302903 391.409221 
L 132.797129 392.513755 
L 134.291355 393.344971 
L 135.785581 393.901373 
L 137.279806 394.18424 
L 138.774032 394.197537 
L 140.268258 393.947817 
L 141.762484 393.444083 
L 143.25671 392.697647 
L 144.750936 391.721952 
L 146.245162 390.53239 
L 147.739388 389.146099 
L 150.72784 385.859324 
L 153.716292 382.025307 
L 158.19897 375.637455 
L 164.175873 366.886469 
L 167.164325 362.799925 
L 170.152777 359.109404 
L 173.141229 355.94021 
L 174.635455 354.58308 
L 176.129681 353.39107 
L 177.623907 352.371947 
L 179.118133 351.531565 
L 180.612359 350.873855 
L 182.106585 350.400832 
L 183.600811 350.112623 
L 185.095037 350.007514 
L 186.589263 350.082012 
L 188.083488 350.330923 
L 189.577714 350.747446 
L 191.07194 351.323281 
L 192.566166 352.048749 
L 195.554618 353.903762 
L 198.54307 356.21264 
L 201.531522 358.862631 
L 206.0142 363.212498 
L 211.991104 369.071315 
L 214.979555 371.768206 
L 217.968007 374.177315 
L 220.956459 376.218279 
L 223.944911 377.829105 
L 225.439137 378.459261 
L 226.933363 378.967701 
L 228.427589 379.352383 
L 229.921815 379.612549 
L 231.416041 379.748696 
L 232.910267 379.762545 
L 234.404493 379.65699 
L 237.392945 379.104758 
L 240.381396 378.136205 
L 243.369848 376.809691 
L 246.3583 375.194755 
L 250.840978 372.402283 
L 261.30056 365.589946 
L 264.289012 363.910958 
L 267.277463 362.466537 
L 270.265915 361.301827 
L 273.254367 360.448796 
L 276.242819 359.925627 
L 279.231271 359.736679 
L 282.219723 359.872994 
L 285.208175 360.313298 
L 288.196627 361.025442 
L 291.185078 361.968194 
L 295.667756 363.707778 
L 303.138886 367.022227 
L 309.11579 369.558501 
L 313.598468 371.142972 
L 316.586919 371.979577 
L 319.575371 372.611211 
L 322.563823 373.023144 
L 325.552275 373.209986 
L 328.540727 373.175433 
L 331.529179 372.931682 
L 334.517631 372.498533 
L 339.000309 371.552566 
L 343.482986 370.34935 
L 358.425246 366.059024 
L 362.907924 365.117858 
L 367.390601 364.477385 
L 370.379053 364.23543 
L 373.367505 364.144948 
L 377.850183 364.283226 
L 382.332861 364.7163 
L 386.815539 365.38521 
L 392.792442 366.512689 
L 404.74625 368.835661 
L 404.74625 368.835661 
" clip-path="url(#pefc21a8f7c)" style="fill: none; stroke: #1f2933; stroke-width: 2.2; stroke-linecap: square"/>
   </g>
   <g id="patch_10">
    <path d="M 47.62625 439.632 
L 47.62625 309.381398 
" style="fill: none; stroke: #d8d4c8; stroke-width: 0.8; stroke-linejoin: miter; stroke-linecap: square"/>
   </g>
   <g id="patch_11">
    <path d="M 47.62625 439.632 
L 404.74625 439.632 
" style="fill: none; stroke: #d8d4c8; stroke-width: 0.8; stroke-linejoin: miter; stroke-linecap: square"/>
   </g>
  </g>
 </g>
 <defs>
  <clipPath id="p6d3c0172aa">
   <rect x="47.62625" y="7.2" width="357.12" height="130.250602"/>
  </clipPath>
  <clipPath id="p00dd6f8e1d">
   <rect x="47.62625" y="158.290699" width="357.12" height="130.250602"/>
  </clipPath>
  <clipPath id="pefc21a8f7c">
   <rect x="47.62625" y="309.381398" width="357.12" height="130.250602"/>
  </clipPath>
 </defs>
</svg>
