<?xml version="1.0" encoding="utf-8" standalone="no"?>
<!DOCTYPE svg PUBLIC "-//W3C//DTD SVG 1.1//EN"
  "http://www.w3.org/Graphics/SVG/1.1/DTD/svg11.dtd">
<svg xmlns:xlink="http://www.w3.org/1999/xlink" width="417.03625pt" height="475.832pt" viewBox="0 0 417.03625 475.832" xmlns="http://www.w3.org/2000/svg" version="1.1">
 <metadata>
  <rdf:RDF xmlns:dc="http://purl.org/dc/elements/1.1/" xmlns:cc="http://creativecommons.org/ns#" xmlns:rdf="http://www.w3.org/1999/02/22-rdf-syntax-ns#">
   <cc:Work>
    <dc:type rdf:resource="http://purl.org/dc/dcmitype/StillImage"/>
    <dc:date>2026-06-26T13:21:02.603344</dc:date>
    <dc:format>image/svg+xml</dc:format>
    <dc:creator>
     <cc:Agent>
      <dc:title>Matplotlib v3.11.0, https://matplotlib.org/</dc:title>
     </cc:Agent>
    </dc:creator>
   </cc:Work>
  </rdf:RDF>
 </metadata>
 <defs>
  <style type="text/css">*{stroke-linejoin: round; stroke-linecap: butt}</style>
 </defs>
 <g id="figure_1">
  <g id="patch_1">
   <path d="M 0 475.832 
L 417.03625 475.832 
L 417.03625 0 
L 0 0 
z
" style="fill: #fbfaf7"/>
  </g>
  <g id="axes_1">
   <g id="patch_2">
    <path d="M 52.71625 137.450602 
L 409.83625 137.450602 
L 409.83625 7.2 
L 52.71625 7.2 
z
" style="fill: #fbfaf7"/>
   </g>
   <g id="matplotlib.axis_1">
    <g id="xtick_1">
     <g id="line2d_1">
      <defs>
       <path id="m1263b5a5d3" d="M 0 0 
L 0 3.5 
" style="stroke: #8a929b; stroke-width: 0.8"/>
      </defs>
      <g>
       <use xlink:href="#m1263b5a5d3" x="52.71625" y="137.450602" style="fill: #8a929b; stroke: #8a929b; stroke-width: 0.8"/>
      </g>
     </g>
    </g>
    <g id="xtick_2">
     <g id="line2d_2">
      <g>
       <use xlink:href="#m1263b5a5d3" x="109.553663" y="137.450602" style="fill: #8a929b; stroke: #8a929b; stroke-width: 0.8"/>
      </g>
     </g>
    </g>
    <g id="xtick_3">
     <g id="line2d_3">
      <g>
       <use xlink:href="#m1263b5a5d3" x="166.391077" y="137.450602" style="fill: #8a929b; stroke: #8a929b; stroke-width: 0.8"/>
      </g>
     </g>
    </g>
    <g id="xtick_4">
     <g id="line2d_4">
      <g>
       <use xlink:href="#m1263b5a5d3" x="223.22849" y="137.450602" style="fill: #8a929b; stroke: #8a929b; stroke-width: 0.8"/>
      </g>
     </g>
    </g>
    <g id="xtick_5">
     <g id="line2d_5">
      <g>
       <use xlink:href="#m1263b5a5d3" x="280.065903" y="137.450602" style="fill: #8a929b; stroke: #8a929b; stroke-width: 0.8"/>
      </g>
     </g>
    </g>
    <g id="xtick_6">
     <g id="line2d_6">
      <g>
       <use xlink:href="#m1263b5a5d3" x="336.903316" y="137.450602" style="fill: #8a929b; stroke: #8a929b; stroke-width: 0.8"/>
      </g>
     </g>
    </g>
    <g id="xtick_7">
     <g id="line2d_7">
      <g>
       <use xlink:href="#m1263b5a5d3" x="393.74073" y="137.450602" style="fill: #8a929b; stroke: #8a929b; stroke-width: 0.8"/>
      </g>
     </g>
    </g>
   </g>
   <g id="matplotlib.axis_2">
    <g id="ytick_1">
     <g id="line2d_8">
      <defs>
       <path id="m60f06b0d50" d="M 0 0 
L -3.5 0 
" style="stroke: #8a929b; stroke-width: 0.8"/>
      </defs>
      <g>
       <use xlink:href="#m60f06b0d50" x="52.71625" y="106.168366" style="fill: #8a929b; stroke: #8a929b; stroke-width: 0.8"/>
      </g>
     </g>
     <g id="text_1">
      <!-- −0.2 -->
      <g style="fill: #8a929b" transform="translate(26.29 109.207429) scale(0.08 -0.08)">
       <defs>
        <path id="DejaVuSans-c9c" d="M 678 2272 
L 4684 2272 
L 4684 1741 
L 678 1741 
L 678 2272 
z
" transform="scale(0.015625)"/>
        <path id="DejaVuSans-13" d="M 2034 4250 
Q 1547 4250 1301 3770 
Q 1056 3291 1056 2328 
Q 1056 1369 1301 889 
Q 1547 409 2034 409 
Q 2525 409 2770 889 
Q 3016 1369 3016 2328 
Q 3016 3291 2770 3770 
Q 2525 4250 2034 4250 
z
M 2034 4750 
Q 2819 4750 3233 4129 
Q 3647 3509 3647 2328 
Q 3647 1150 3233 529 
Q 2819 -91 2034 -91 
Q 1250 -91 836 529 
Q 422 1150 422 2328 
Q 422 3509 836 4129 
Q 1250 4750 2034 4750 
z
" transform="scale(0.015625)"/>
        <path id="DejaVuSans-11" d="M 684 794 
L 1344 794 
L 1344 0 
L 684 0 
L 684 794 
z
" transform="scale(0.015625)"/>
        <path id="DejaVuSans-15" d="M 1228 531 
L 3431 531 
L 3431 0 
L 469 0 
L 469 531 
Q 828 903 1448 1529 
Q 2069 2156 2228 2338 
Q 2531 2678 2651 2914 
Q 2772 3150 2772 3378 
Q 2772 3750 2511 3984 
Q 2250 4219 1831 4219 
Q 1534 4219 1204 4116 
Q 875 4013 500 3803 
L 500 4441 
Q 881 4594 1212 4672 
Q 1544 4750 1819 4750 
Q 2544 4750 2975 4387 
Q 3406 4025 3406 3419 
Q 3406 3131 3298 2873 
Q 3191 2616 2906 2266 
Q 2828 2175 2409 1742 
Q 1991 1309 1228 531 
z
" transform="scale(0.015625)"/>
       </defs>
       <use xlink:href="#DejaVuSans-c9c"/>
       <use xlink:href="#DejaVuSans-13" transform="translate(83.796875 0)"/>
       <use xlink:href="#DejaVuSans-11" transform="translate(147.421875 0)"/>
       <use xlink:href="#DejaVuSans-15" transform="translate(179.203125 0)"/>
      </g>
     </g>
    </g>
    <g id="ytick_2">
     <g id="line2d_9">
      <g>
       <use xlink:href="#m60f06b0d50" x="52.71625" y="74.24282" style="fill: #8a929b; stroke: #8a929b; stroke-width: 0.8"/>
      </g>
     </g>
     <g id="text_2">
      <!-- 0.0 -->
      <g style="fill: #8a929b" transform="translate(32.99375 77.281882) scale(0.08 -0.08)">
       <use xlink:href="#DejaVuSans-13"/>
       <use xlink:href="#DejaVuSans-11" transform="translate(63.625 0)"/>
       <use xlink:href="#DejaVuSans-13" transform="translate(95.40625 0)"/>
      </g>
     </g>
    </g>
    <g id="ytick_3">
     <g id="line2d_10">
      <g>
       <use xlink:href="#m60f06b0d50" x="52.71625" y="42.317274" style="fill: #8a929b; stroke: #8a929b; stroke-width: 0.8"/>
      </g>
     </g>
     <g id="text_3">
      <!-- 0.2 -->
      <g style="fill: #8a929b" transform="translate(32.99375 45.356336) scale(0.08 -0.08)">
       <use xlink:href="#DejaVuSans-13"/>
       <use xlink:href="#DejaVuSans-11" transform="translate(63.625 0)"/>
       <use xlink:href="#DejaVuSans-15" transform="translate(95.40625 0)"/>
      </g>
     </g>
    </g>
    <g id="ytick_4">
     <g id="line2d_11">
      <g>
       <use xlink:href="#m60f06b0d50" x="52.71625" y="10.391727" style="fill: #8a929b; stroke: #8a929b; stroke-width: 0.8"/>
      </g>
     </g>
     <g id="text_4">
      <!-- 0.4 -->
      <g style="fill: #8a929b" transform="translate(32.99375 13.43079) scale(0.08 -0.08)">
       <defs>
        <path id="DejaVuSans-17" d="M 2419 4116 
L 825 1625 
L 2419 1625 
L 2419 4116 
z
M 2253 4666 
L 3047 4666 
L 3047 1625 
L 3713 1625 
L 3713 1100 
L 3047 1100 
L 3047 0 
L 2419 0 
L 2419 1100 
L 313 1100 
L 313 1709 
L 2253 4666 
z
" transform="scale(0.015625)"/>
       </defs>
       <use xlink:href="#DejaVuSans-13"/>
       <use xlink:href="#DejaVuSans-11" transform="translate(63.625 0)"/>
       <use xlink:href="#DejaVuSans-17" transform="translate(95.40625 0)"/>
      </g>
     </g>
    </g>
    <g id="text_5">
     <!-- x  (m) -->
     <g style="fill: #1f2933" transform="translate(19.887656 87.234676) rotate(-90) scale(0.1 -0.1)">
      <defs>
       <path id="DejaVuSans-5b" d="M 3513 3500 
L 2247 1797 
L 3578 0 
L 2900 0 
L 1881 1375 
L 863 0 
L 184 0 
L 1544 1831 
L 300 3500 
L 978 3500 
L 1906 2253 
L 2834 3500 
L 3513 3500 
z
" transform="scale(0.015625)"/>
       <path id="DejaVuSans-3" transform="scale(0.015625)"/>
       <path id="DejaVuSans-b" d="M 1984 4856 
Q 1566 4138 1362 3434 
Q 1159 2731 1159 2009 
Q 1159 1288 1364 580 
Q 1569 -128 1984 -844 
L 1484 -844 
Q 1016 -109 783 600 
Q 550 1309 550 2009 
Q 550 2706 781 3412 
Q 1013 4119 1484 4856 
L 1984 4856 
z
" transform="scale(0.015625)"/>
       <path id="DejaVuSans-50" d="M 3328 2828 
Q 3544 3216 3844 3400 
Q 4144 3584 4550 3584 
Q 5097 3584 5394 3201 
Q 5691 2819 5691 2113 
L 5691 0 
L 5113 0 
L 5113 2094 
Q 5113 2597 4934 2840 
Q 4756 3084 4391 3084 
Q 3944 3084 3684 2787 
Q 3425 2491 3425 1978 
L 3425 0 
L 2847 0 
L 2847 2094 
Q 2847 2600 2669 2842 
Q 2491 3084 2119 3084 
Q 1678 3084 1418 2786 
Q 1159 2488 1159 1978 
L 1159 0 
L 581 0 
L 581 3500 
L 1159 3500 
L 1159 2956 
Q 1356 3278 1631 3431 
Q 1906 3584 2284 3584 
Q 2666 3584 2933 3390 
Q 3200 3197 3328 2828 
z
" transform="scale(0.015625)"/>
       <path id="DejaVuSans-c" d="M 513 4856 
L 1013 4856 
Q 1481 4119 1714 3412 
Q 1947 2706 1947 2009 
Q 1947 1309 1714 600 
Q 1481 -109 1013 -844 
L 513 -844 
Q 928 -128 1133 580 
Q 1338 1288 1338 2009 
Q 1338 2731 1133 3434 
Q 928 4138 513 4856 
z
" transform="scale(0.015625)"/>
      </defs>
      <use xlink:href="#DejaVuSans-5b"/>
      <use xlink:href="#DejaVuSans-3" transform="translate(59.1875 0)"/>
      <use xlink:href="#DejaVuSans-3" transform="translate(90.96875 0)"/>
      <use xlink:href="#DejaVuSans-b" transform="translate(122.75 0)"/>
      <use xlink:href="#DejaVuSans-50" transform="translate(161.765625 0)"/>
      <use xlink:href="#DejaVuSans-c" transform="translate(259.171875 0)"/>
     </g>
    </g>
   </g>
   <g id="line2d_12">
    <path d="M 52.71625 74.24282 
L 409.83625 74.24282 
" clip-path="url(#p0d787b5823)" style="fill: none; stroke: #d8d4c8; stroke-linecap: square"/>
   </g>
   <g id="line2d_13">
    <path d="M 97.35625 137.450602 
L 97.35625 7.2 
" clip-path="url(#p0d787b5823)" style="fill: none; stroke-dasharray: 3.7,1.6; stroke-dashoffset: 0; stroke: #8a929b; stroke-opacity: 0.7"/>
   </g>
   <g id="line2d_14">
    <path d="M 141.99625 137.450602 
L 141.99625 7.2 
" clip-path="url(#p0d787b5823)" style="fill: none; stroke-dasharray: 3.7,1.6; stroke-dashoffset: 0; stroke: #8a929b; stroke-opacity: 0.7"/>
   </g>
   <g id="line2d_15">
    <path d="M 231.27625 137.450602 
L 231.27625 7.2 
" clip-path="url(#p0d787b5823)" style="fill: none; stroke-dasharray: 3.7,1.6; stroke-dashoffset: 0; stroke: #8a929b; stroke-opacity: 0.7"/>
   </g>
   <g id="line2d_16">
    <path d="M 52.71625 26.3545 
L 54.210476 26.42068 
L 55.704702 26.619035 
L 57.198928 26.949019 
L 58.693154 27.409718 
L 60.18738 27.99986 
L 61.681606 28.717813 
L 64.670058 30.528868 
L 67.658509 32.822875 
L 70.646961 35.574489 
L 73.635413 38.753311 
L 76.623865 42.324221 
L 79.612317 46.247768 
L 82.600769 50.480604 
L 87.083447 57.306671 
L 91.566124 64.553252 
L 109.496836 94.084278 
L 113.979514 100.68436 
L 116.967965 104.729165 
L 119.956417 108.437156 
L 122.944869 111.767369 
L 125.933321 114.68301 
L 128.921773 117.151868 
L 131.910225 119.146666 
L 134.898677 120.645367 
L 136.392903 121.203287 
L 137.887129 121.631413 
L 139.381355 121.928561 
L 140.875581 122.09391 
L 142.369806 122.127002 
L 143.864032 122.027747 
L 145.358258 121.796419 
L 146.852484 121.433657 
L 148.34671 120.940464 
L 149.840936 120.318202 
L 151.335162 119.568593 
L 154.323614 117.695963 
L 157.312066 115.343262 
L 160.300518 112.536484 
L 163.28897 109.306638 
L 166.277422 105.689406 
L 169.265873 101.724753 
L 172.254325 97.456479 
L 176.737003 90.588723 
L 182.713907 80.83139 
L 196.16194 58.489986 
L 200.644618 51.581728 
L 203.63307 47.278754 
L 206.621522 43.273679 
L 209.609974 39.610751 
L 212.598426 36.330438 
L 215.586878 33.468981 
L 218.575329 31.057994 
L 221.563781 29.124112 
L 223.058007 28.342976 
L 224.552233 27.688702 
L 226.046459 27.1631 
L 227.540685 26.767622 
L 229.034911 26.503361 
L 230.529137 26.371048 
L 232.023363 26.371048 
L 233.517589 26.503361 
L 235.011815 26.767622 
L 236.506041 27.1631 
L 238.000267 27.688702 
L 239.494493 28.342976 
L 242.482945 30.029953 
L 245.471396 32.205394 
L 248.459848 34.845264 
L 251.4483 37.920398 
L 254.436752 41.396823 
L 257.425204 45.23613 
L 260.413656 49.395903 
L 264.896334 56.135061 
L 269.379012 63.323824 
L 278.344367 78.32946 
L 284.321271 88.200527 
L 288.803949 95.223104 
L 293.286627 101.724753 
L 296.275078 105.689406 
L 299.26353 109.306638 
L 302.251982 112.536484 
L 305.240434 115.343262 
L 308.228886 117.695963 
L 311.217338 119.568593 
L 312.711564 120.318202 
L 314.20579 120.940464 
L 315.700016 121.433657 
L 317.194242 121.796419 
L 318.688468 122.027747 
L 320.182694 122.127002 
L 321.676919 122.09391 
L 323.171145 121.928561 
L 324.665371 121.631413 
L 326.159597 121.203287 
L 327.653823 120.645367 
L 329.148049 119.959195 
L 332.136501 118.210028 
L 335.124953 115.975111 
L 338.113405 113.279136 
L 341.101857 110.151887 
L 344.090309 106.627915 
L 347.07876 102.746153 
L 350.067212 98.549486 
L 354.54989 91.766287 
L 359.032568 84.547992 
L 369.49215 67.031344 
L 375.469053 57.306671 
L 379.951731 50.480604 
L 382.940183 46.247768 
L 385.928635 42.324221 
L 388.917087 38.753311 
L 391.905539 35.574489 
L 394.893991 32.822875 
L 397.882442 30.528868 
L 400.870894 28.717813 
L 402.36512 27.99986 
L 403.859346 27.409718 
L 405.353572 26.949019 
L 406.847798 26.619035 
L 408.342024 26.42068 
L 409.83625 26.3545 
L 409.83625 26.3545 
" clip-path="url(#p0d787b5823)" style="fill: none; stroke: #1f2933; stroke-width: 2.2; stroke-linecap: square"/>
   </g>
   <g id="patch_3">
    <path d="M 52.71625 137.450602 
L 52.71625 7.2 
" style="fill: none; stroke: #d8d4c8; stroke-width: 0.8; stroke-linejoin: miter; stroke-linecap: square"/>
   </g>
   <g id="patch_4">
    <path d="M 52.71625 137.450602 
L 409.83625 137.450602 
" style="fill: none; stroke: #d8d4c8; stroke-width: 0.8; stroke-linejoin: miter; stroke-linecap: square"/>
   </g>
   <g id="text_6">
    <g id="patch_5">
     <path d="M 75.47343 98.867468 
L 119.23907 98.867468 
Q 121.56307 98.867468 121.56307 96.543468 
L 121.56307 88.24282 
Q 121.56307 85.91882 119.23907 85.91882 
L 75.47343 85.91882 
Q 73.14943 85.91882 73.14943 88.24282 
L 73.14943 96.543468 
Q 73.14943 98.867468 75.47343 98.867468 
z
" style="fill: #fbfaf7; opacity: 0.92; stroke: #d8d4c8; stroke-width: 0.6; stroke-linejoin: miter"/>
    </g>
    <!-- x = 0 here -->
    <g style="fill: #1f2933" transform="translate(75.47343 94.549523) scale(0.083 -0.083)">
     <defs>
      <path id="DejaVuSans-20" d="M 678 2906 
L 4684 2906 
L 4684 2381 
L 678 2381 
L 678 2906 
z
M 678 1631 
L 4684 1631 
L 4684 1100 
L 678 1100 
L 678 1631 
z
" transform="scale(0.015625)"/>
      <path id="DejaVuSans-4b" d="M 3513 2113 
L 3513 0 
L 2938 0 
L 2938 2094 
Q 2938 2591 2744 2837 
Q 2550 3084 2163 3084 
Q 1697 3084 1428 2787 
Q 1159 2491 1159 1978 
L 1159 0 
L 581 0 
L 581 4863 
L 1159 4863 
L 1159 2956 
Q 1366 3272 1645 3428 
Q 1925 3584 2291 3584 
Q 2894 3584 3203 3211 
Q 3513 2838 3513 2113 
z
" transform="scale(0.015625)"/>
      <path id="DejaVuSans-48" d="M 3597 1894 
L 3597 1613 
L 953 1613 
Q 991 1019 1311 708 
Q 1631 397 2203 397 
Q 2534 397 2845 478 
Q 3156 559 3463 722 
L 3463 178 
Q 3153 47 2828 -22 
Q 2503 -91 2169 -91 
Q 1331 -91 842 396 
Q 353 884 353 1716 
Q 353 2575 817 3079 
Q 1281 3584 2069 3584 
Q 2775 3584 3186 3129 
Q 3597 2675 3597 1894 
z
M 3022 2063 
Q 3016 2534 2758 2815 
Q 2500 3097 2075 3097 
Q 1594 3097 1305 2825 
Q 1016 2553 972 2059 
L 3022 2063 
z
" transform="scale(0.015625)"/>
      <path id="DejaVuSans-55" d="M 2631 2963 
Q 2534 3019 2420 3045 
Q 2306 3072 2169 3072 
Q 1681 3072 1420 2755 
Q 1159 2438 1159 1844 
L 1159 0 
L 581 0 
L 581 3500 
L 1159 3500 
L 1159 2956 
Q 1341 3275 1631 3429 
Q 1922 3584 2338 3584 
Q 2397 3584 2469 3576 
Q 2541 3569 2628 3553 
L 2631 2963 
z
" transform="scale(0.015625)"/>
     </defs>
     <use xlink:href="#DejaVuSans-5b"/>
     <use xlink:href="#DejaVuSans-3" transform="translate(59.1875 0)"/>
     <use xlink:href="#DejaVuSans-20" transform="translate(90.96875 0)"/>
     <use xlink:href="#DejaVuSans-3" transform="translate(174.765625 0)"/>
     <use xlink:href="#DejaVuSans-13" transform="translate(206.546875 0)"/>
     <use xlink:href="#DejaVuSans-3" transform="translate(270.171875 0)"/>
     <use xlink:href="#DejaVuSans-4b" transform="translate(301.953125 0)"/>
     <use xlink:href="#DejaVuSans-48" transform="translate(365.328125 0)"/>
     <use xlink:href="#DejaVuSans-55" transform="translate(426.859375 0)"/>
     <use xlink:href="#DejaVuSans-48" transform="translate(465.765625 0)"/>
    </g>
   </g>
   <g id="PathCollection_1">
    <defs>
     <path id="m5d3bd11ae2" d="M 0 3 
C 0.795609 3 1.55874 2.683901 2.12132 2.12132 
C 2.683901 1.55874 3 0.795609 3 0 
C 3 -0.795609 2.683901 -1.55874 2.12132 -2.12132 
C 1.55874 -2.683901 0.795609 -3 0 -3 
C -0.795609 -3 -1.55874 -2.683901 -2.12132 -2.12132 
C -2.683901 -1.55874 -3 -0.795609 -3 0 
C -3 0.795609 -2.683901 1.55874 -2.12132 2.12132 
C -1.55874 2.683901 -0.795609 3 0 3 
z
" style="stroke: #2f6f4f"/>
    </defs>
    <g clip-path="url(#p0d787b5823)">
     <use xlink:href="#m5d3bd11ae2" x="97.35625" y="74.24282" style="fill: #2f6f4f; stroke: #2f6f4f"/>
    </g>
   </g>
  </g>
  <g id="axes_2">
   <g id="patch_6">
    <path d="M 52.71625 288.541301 
L 409.83625 288.541301 
L 409.83625 158.290699 
L 52.71625 158.290699 
z
" style="fill: #fbfaf7"/>
   </g>
   <g id="matplotlib.axis_3">
    <g id="xtick_8">
     <g id="line2d_17">
      <g>
       <use xlink:href="#m1263b5a5d3" x="52.71625" y="288.541301" style="fill: #8a929b; stroke: #8a929b; stroke-width: 0.8"/>
      </g>
     </g>
    </g>
    <g id="xtick_9">
     <g id="line2d_18">
      <g>
       <use xlink:href="#m1263b5a5d3" x="109.553663" y="288.541301" style="fill: #8a929b; stroke: #8a929b; stroke-width: 0.8"/>
      </g>
     </g>
    </g>
    <g id="xtick_10">
     <g id="line2d_19">
      <g>
       <use xlink:href="#m1263b5a5d3" x="166.391077" y="288.541301" style="fill: #8a929b; stroke: #8a929b; stroke-width: 0.8"/>
      </g>
     </g>
    </g>
    <g id="xtick_11">
     <g id="line2d_20">
      <g>
       <use xlink:href="#m1263b5a5d3" x="223.22849" y="288.541301" style="fill: #8a929b; stroke: #8a929b; stroke-width: 0.8"/>
      </g>
     </g>
    </g>
    <g id="xtick_12">
     <g id="line2d_21">
      <g>
       <use xlink:href="#m1263b5a5d3" x="280.065903" y="288.541301" style="fill: #8a929b; stroke: #8a929b; stroke-width: 0.8"/>
      </g>
     </g>
    </g>
    <g id="xtick_13">
     <g id="line2d_22">
      <g>
       <use xlink:href="#m1263b5a5d3" x="336.903316" y="288.541301" style="fill: #8a929b; stroke: #8a929b; stroke-width: 0.8"/>
      </g>
     </g>
    </g>
    <g id="xtick_14">
     <g id="line2d_23">
      <g>
       <use xlink:href="#m1263b5a5d3" x="393.74073" y="288.541301" style="fill: #8a929b; stroke: #8a929b; stroke-width: 0.8"/>
      </g>
     </g>
    </g>
   </g>
   <g id="matplotlib.axis_4">
    <g id="ytick_5">
     <g id="line2d_24">
      <g>
       <use xlink:href="#m60f06b0d50" x="52.71625" y="285.190556" style="fill: #8a929b; stroke: #8a929b; stroke-width: 0.8"/>
      </g>
     </g>
     <g id="text_7">
      <!-- −0.75 -->
      <g style="fill: #8a929b" transform="translate(21.2 288.229619) scale(0.08 -0.08)">
       <defs>
        <path id="DejaVuSans-1a" d="M 525 4666 
L 3525 4666 
L 3525 4397 
L 1831 0 
L 1172 0 
L 2766 4134 
L 525 4134 
L 525 4666 
z
" transform="scale(0.015625)"/>
        <path id="DejaVuSans-18" d="M 691 4666 
L 3169 4666 
L 3169 4134 
L 1269 4134 
L 1269 2991 
Q 1406 3038 1543 3061 
Q 1681 3084 1819 3084 
Q 2600 3084 3056 2656 
Q 3513 2228 3513 1497 
Q 3513 744 3044 326 
Q 2575 -91 1722 -91 
Q 1428 -91 1123 -41 
Q 819 9 494 109 
L 494 744 
Q 775 591 1075 516 
Q 1375 441 1709 441 
Q 2250 441 2565 725 
Q 2881 1009 2881 1497 
Q 2881 1984 2565 2268 
Q 2250 2553 1709 2553 
Q 1456 2553 1204 2497 
Q 953 2441 691 2322 
L 691 4666 
z
" transform="scale(0.015625)"/>
       </defs>
       <use xlink:href="#DejaVuSans-c9c"/>
       <use xlink:href="#DejaVuSans-13" transform="translate(83.796875 0)"/>
       <use xlink:href="#DejaVuSans-11" transform="translate(147.421875 0)"/>
       <use xlink:href="#DejaVuSans-1a" transform="translate(179.203125 0)"/>
       <use xlink:href="#DejaVuSans-18" transform="translate(242.828125 0)"/>
      </g>
     </g>
    </g>
    <g id="ytick_6">
     <g id="line2d_25">
      <g>
       <use xlink:href="#m60f06b0d50" x="52.71625" y="265.237521" style="fill: #8a929b; stroke: #8a929b; stroke-width: 0.8"/>
      </g>
     </g>
     <g id="text_8">
      <!-- −0.50 -->
      <g style="fill: #8a929b" transform="translate(21.2 268.276583) scale(0.08 -0.08)">
       <use xlink:href="#DejaVuSans-c9c"/>
       <use xlink:href="#DejaVuSans-13" transform="translate(83.796875 0)"/>
       <use xlink:href="#DejaVuSans-11" transform="translate(147.421875 0)"/>
       <use xlink:href="#DejaVuSans-18" transform="translate(179.203125 0)"/>
       <use xlink:href="#DejaVuSans-13" transform="translate(242.828125 0)"/>
      </g>
     </g>
    </g>
    <g id="ytick_7">
     <g id="line2d_26">
      <g>
       <use xlink:href="#m60f06b0d50" x="52.71625" y="245.284486" style="fill: #8a929b; stroke: #8a929b; stroke-width: 0.8"/>
      </g>
     </g>
     <g id="text_9">
      <!-- −0.25 -->
      <g style="fill: #8a929b" transform="translate(21.2 248.323548) scale(0.08 -0.08)">
       <use xlink:href="#DejaVuSans-c9c"/>
       <use xlink:href="#DejaVuSans-13" transform="translate(83.796875 0)"/>
       <use xlink:href="#DejaVuSans-11" transform="translate(147.421875 0)"/>
       <use xlink:href="#DejaVuSans-15" transform="translate(179.203125 0)"/>
       <use xlink:href="#DejaVuSans-18" transform="translate(242.828125 0)"/>
      </g>
     </g>
    </g>
    <g id="ytick_8">
     <g id="line2d_27">
      <g>
       <use xlink:href="#m60f06b0d50" x="52.71625" y="225.33145" style="fill: #8a929b; stroke: #8a929b; stroke-width: 0.8"/>
      </g>
     </g>
     <g id="text_10">
      <!-- 0.00 -->
      <g style="fill: #8a929b" transform="translate(27.90375 228.370513) scale(0.08 -0.08)">
       <use xlink:href="#DejaVuSans-13"/>
       <use xlink:href="#DejaVuSans-11" transform="translate(63.625 0)"/>
       <use xlink:href="#DejaVuSans-13" transform="translate(95.40625 0)"/>
       <use xlink:href="#DejaVuSans-13" transform="translate(159.03125 0)"/>
      </g>
     </g>
    </g>
    <g id="ytick_9">
     <g id="line2d_28">
      <g>
       <use xlink:href="#m60f06b0d50" x="52.71625" y="205.378415" style="fill: #8a929b; stroke: #8a929b; stroke-width: 0.8"/>
      </g>
     </g>
     <g id="text_11">
      <!-- 0.25 -->
      <g style="fill: #8a929b" transform="translate(27.90375 208.417477) scale(0.08 -0.08)">
       <use xlink:href="#DejaVuSans-13"/>
       <use xlink:href="#DejaVuSans-11" transform="translate(63.625 0)"/>
       <use xlink:href="#DejaVuSans-15" transform="translate(95.40625 0)"/>
       <use xlink:href="#DejaVuSans-18" transform="translate(159.03125 0)"/>
      </g>
     </g>
    </g>
    <g id="ytick_10">
     <g id="line2d_29">
      <g>
       <use xlink:href="#m60f06b0d50" x="52.71625" y="185.425379" style="fill: #8a929b; stroke: #8a929b; stroke-width: 0.8"/>
      </g>
     </g>
     <g id="text_12">
      <!-- 0.50 -->
      <g style="fill: #8a929b" transform="translate(27.90375 188.464442) scale(0.08 -0.08)">
       <use xlink:href="#DejaVuSans-13"/>
       <use xlink:href="#DejaVuSans-11" transform="translate(63.625 0)"/>
       <use xlink:href="#DejaVuSans-18" transform="translate(95.40625 0)"/>
       <use xlink:href="#DejaVuSans-13" transform="translate(159.03125 0)"/>
      </g>
     </g>
    </g>
    <g id="ytick_11">
     <g id="line2d_30">
      <g>
       <use xlink:href="#m60f06b0d50" x="52.71625" y="165.472344" style="fill: #8a929b; stroke: #8a929b; stroke-width: 0.8"/>
      </g>
     </g>
     <g id="text_13">
      <!-- 0.75 -->
      <g style="fill: #8a929b" transform="translate(27.90375 168.511406) scale(0.08 -0.08)">
       <use xlink:href="#DejaVuSans-13"/>
       <use xlink:href="#DejaVuSans-11" transform="translate(63.625 0)"/>
       <use xlink:href="#DejaVuSans-1a" transform="translate(95.40625 0)"/>
       <use xlink:href="#DejaVuSans-18" transform="translate(159.03125 0)"/>
      </g>
     </g>
    </g>
    <g id="text_14">
     <!-- v  (m/s) -->
     <g style="fill: #1f2933" transform="translate(14.797656 242.614437) rotate(-90) scale(0.1 -0.1)">
      <defs>
       <path id="DejaVuSans-59" d="M 191 3500 
L 800 3500 
L 1894 563 
L 2988 3500 
L 3597 3500 
L 2284 0 
L 1503 0 
L 191 3500 
z
" transform="scale(0.015625)"/>
       <path id="DejaVuSans-12" d="M 1625 4666 
L 2156 4666 
L 531 -594 
L 0 -594 
L 1625 4666 
z
" transform="scale(0.015625)"/>
       <path id="DejaVuSans-56" d="M 2834 3397 
L 2834 2853 
Q 2591 2978 2328 3040 
Q 2066 3103 1784 3103 
Q 1356 3103 1142 2972 
Q 928 2841 928 2578 
Q 928 2378 1081 2264 
Q 1234 2150 1697 2047 
L 1894 2003 
Q 2506 1872 2764 1633 
Q 3022 1394 3022 966 
Q 3022 478 2636 193 
Q 2250 -91 1575 -91 
Q 1294 -91 989 -36 
Q 684 19 347 128 
L 347 722 
Q 666 556 975 473 
Q 1284 391 1588 391 
Q 1994 391 2212 530 
Q 2431 669 2431 922 
Q 2431 1156 2273 1281 
Q 2116 1406 1581 1522 
L 1381 1569 
Q 847 1681 609 1914 
Q 372 2147 372 2553 
Q 372 3047 722 3315 
Q 1072 3584 1716 3584 
Q 2034 3584 2315 3537 
Q 2597 3491 2834 3397 
z
" transform="scale(0.015625)"/>
      </defs>
      <use xlink:href="#DejaVuSans-59"/>
      <use xlink:href="#DejaVuSans-3" transform="translate(59.1875 0)"/>
      <use xlink:href="#DejaVuSans-3" transform="translate(90.96875 0)"/>
      <use xlink:href="#DejaVuSans-b" transform="translate(122.75 0)"/>
      <use xlink:href="#DejaVuSans-50" transform="translate(161.765625 0)"/>
      <use xlink:href="#DejaVuSans-12" transform="translate(259.171875 0)"/>
      <use xlink:href="#DejaVuSans-56" transform="translate(292.859375 0)"/>
      <use xlink:href="#DejaVuSans-c" transform="translate(344.953125 0)"/>
     </g>
    </g>
   </g>
   <g id="line2d_31">
    <path d="M 52.71625 225.33145 
L 409.83625 225.33145 
" clip-path="url(#p729278dd31)" style="fill: none; stroke: #d8d4c8; stroke-linecap: square"/>
   </g>
   <g id="line2d_32">
    <path d="M 97.35625 288.541301 
L 97.35625 158.290699 
" clip-path="url(#p729278dd31)" style="fill: none; stroke-dasharray: 3.7,1.6; stroke-dashoffset: 0; stroke: #8a929b; stroke-opacity: 0.7"/>
   </g>
   <g id="line2d_33">
    <path d="M 141.99625 288.541301 
L 141.99625 158.290699 
" clip-path="url(#p729278dd31)" style="fill: none; stroke-dasharray: 3.7,1.6; stroke-dashoffset: 0; stroke: #8a929b; stroke-opacity: 0.7"/>
   </g>
   <g id="line2d_34">
    <path d="M 231.27625 288.541301 
L 231.27625 158.290699 
" clip-path="url(#p729278dd31)" style="fill: none; stroke-dasharray: 3.7,1.6; stroke-dashoffset: 0; stroke: #8a929b; stroke-opacity: 0.7"/>
   </g>
   <g id="line2d_35">
    <path d="M 52.71625 225.33145 
L 60.18738 237.776252 
L 64.670058 244.885606 
L 69.152735 251.509443 
L 72.141187 255.573763 
L 75.129639 259.303966 
L 78.118091 262.65884 
L 81.106543 265.601322 
L 84.094995 268.098902 
L 87.083447 270.123987 
L 90.071899 271.654204 
L 91.566124 272.228235 
L 93.06035 272.672647 
L 94.554576 272.986213 
L 96.048802 273.168065 
L 97.543028 273.217701 
L 99.037254 273.134984 
L 100.53148 272.920142 
L 102.025706 272.573769 
L 103.519932 272.096823 
L 105.014158 271.490621 
L 106.508384 270.75684 
L 109.496836 268.914997 
L 112.485288 266.591644 
L 115.47374 263.812448 
L 118.462191 260.608113 
L 121.450643 257.014043 
L 124.439095 253.069942 
L 127.427547 248.819387 
L 131.910225 241.972476 
L 136.392903 234.712378 
L 152.829388 207.515837 
L 157.312066 200.754659 
L 160.300518 196.576439 
L 163.28897 192.715904 
L 166.277422 189.215706 
L 169.265873 186.114514 
L 172.254325 183.446591 
L 175.242777 181.241413 
L 178.231229 179.52334 
L 179.725455 178.853117 
L 181.219681 178.311356 
L 182.713907 177.899555 
L 184.208133 177.61885 
L 185.702359 177.470019 
L 187.196585 177.453473 
L 188.690811 177.569257 
L 190.185037 177.817052 
L 191.679263 178.196172 
L 193.173488 178.705569 
L 194.667714 179.343837 
L 196.16194 180.10921 
L 199.150392 182.012465 
L 202.138844 184.394309 
L 205.127296 187.228427 
L 208.115748 190.483506 
L 211.1042 194.123586 
L 214.092652 198.10845 
L 217.081104 202.394074 
L 221.563781 209.282081 
L 227.540685 219.054903 
L 240.988719 241.380819 
L 245.471396 248.268826 
L 248.459848 252.55445 
L 251.4483 256.539314 
L 254.436752 260.179394 
L 257.425204 263.434473 
L 260.413656 266.268591 
L 263.402108 268.650435 
L 266.39056 270.55369 
L 267.884786 271.319063 
L 269.379012 271.957331 
L 270.873237 272.466728 
L 272.367463 272.845848 
L 273.861689 273.093643 
L 275.355915 273.209427 
L 276.850141 273.192881 
L 278.344367 273.04405 
L 279.838593 272.763345 
L 281.332819 272.351544 
L 282.827045 271.809783 
L 284.321271 271.13956 
L 287.309723 269.421487 
L 290.298175 267.216309 
L 293.286627 264.548386 
L 296.275078 261.447194 
L 299.26353 257.946996 
L 302.251982 254.086461 
L 305.240434 249.908241 
L 309.723112 243.147063 
L 314.20579 235.943534 
L 323.171145 220.931404 
L 329.148049 211.07328 
L 333.630727 204.069154 
L 336.619179 199.68279 
L 339.607631 195.579792 
L 342.596083 191.805491 
L 345.584535 188.401584 
L 348.572986 185.405679 
L 351.561438 182.850873 
L 354.54989 180.765393 
L 357.538342 179.172279 
L 359.032568 178.566077 
L 360.526794 178.089131 
L 362.02102 177.742758 
L 363.515246 177.527916 
L 365.009472 177.445199 
L 366.503698 177.494835 
L 367.997924 177.676687 
L 369.49215 177.990253 
L 370.986376 178.434665 
L 372.480601 179.008696 
L 373.974827 179.710759 
L 376.963279 181.49087 
L 379.951731 183.755332 
L 382.940183 186.479127 
L 385.928635 189.632162 
L 388.917087 193.179603 
L 391.905539 197.082258 
L 394.893991 201.297009 
L 399.376668 208.101642 
L 403.859346 215.33408 
L 409.83625 225.33145 
L 409.83625 225.33145 
" clip-path="url(#p729278dd31)" style="fill: none; stroke: #2f6f4f; stroke-width: 2.2; stroke-linecap: square"/>
   </g>
   <g id="patch_7">
    <path d="M 52.71625 288.541301 
L 52.71625 158.290699 
" style="fill: none; stroke: #d8d4c8; stroke-width: 0.8; stroke-linejoin: miter; stroke-linecap: square"/>
   </g>
   <g id="patch_8">
    <path d="M 52.71625 288.541301 
L 409.83625 288.541301 
" style="fill: none; stroke: #d8d4c8; stroke-width: 0.8; stroke-linejoin: miter; stroke-linecap: square"/>
   </g>
   <g id="text_15">
    <g id="patch_9">
     <path d="M 105.35625 261.542735 
L 238.278156 261.542735 
Q 240.602156 261.542735 240.602156 259.218735 
L 240.602156 239.294196 
Q 240.602156 236.970196 238.278156 236.970196 
L 105.35625 236.970196 
Q 103.03225 236.970196 103.03225 239.294196 
L 103.03225 259.218735 
Q 103.03225 261.542735 105.35625 261.542735 
z
" style="fill: #fbfaf7; opacity: 0.92; stroke: #d8d4c8; stroke-width: 0.6; stroke-linejoin: miter"/>
    </g>
    <!-- v is largest where x = 0 -->
    <g style="fill: #1f2933" transform="translate(105.35625 246.43171) scale(0.083 -0.083)">
     <defs>
      <path id="DejaVuSans-4c" d="M 603 3500 
L 1178 3500 
L 1178 0 
L 603 0 
L 603 3500 
z
M 603 4863 
L 1178 4863 
L 1178 4134 
L 603 4134 
L 603 4863 
z
" transform="scale(0.015625)"/>
      <path id="DejaVuSans-4f" d="M 603 4863 
L 1178 4863 
L 1178 0 
L 603 0 
L 603 4863 
z
" transform="scale(0.015625)"/>
      <path id="DejaVuSans-44" d="M 2194 1759 
Q 1497 1759 1228 1600 
Q 959 1441 959 1056 
Q 959 750 1161 570 
Q 1363 391 1709 391 
Q 2188 391 2477 730 
Q 2766 1069 2766 1631 
L 2766 1759 
L 2194 1759 
z
M 3341 1997 
L 3341 0 
L 2766 0 
L 2766 531 
Q 2569 213 2275 61 
Q 1981 -91 1556 -91 
Q 1019 -91 701 211 
Q 384 513 384 1019 
Q 384 1609 779 1909 
Q 1175 2209 1959 2209 
L 2766 2209 
L 2766 2266 
Q 2766 2663 2505 2880 
Q 2244 3097 1772 3097 
Q 1472 3097 1187 3025 
Q 903 2953 641 2809 
L 641 3341 
Q 956 3463 1253 3523 
Q 1550 3584 1831 3584 
Q 2591 3584 2966 3190 
Q 3341 2797 3341 1997 
z
" transform="scale(0.015625)"/>
      <path id="DejaVuSans-4a" d="M 2906 1791 
Q 2906 2416 2648 2759 
Q 2391 3103 1925 3103 
Q 1463 3103 1205 2759 
Q 947 2416 947 1791 
Q 947 1169 1205 825 
Q 1463 481 1925 481 
Q 2391 481 2648 825 
Q 2906 1169 2906 1791 
z
M 3481 434 
Q 3481 -459 3084 -895 
Q 2688 -1331 1869 -1331 
Q 1566 -1331 1297 -1286 
Q 1028 -1241 775 -1147 
L 775 -588 
Q 1028 -725 1275 -790 
Q 1522 -856 1778 -856 
Q 2344 -856 2625 -561 
Q 2906 -266 2906 331 
L 2906 616 
Q 2728 306 2450 153 
Q 2172 0 1784 0 
Q 1141 0 747 490 
Q 353 981 353 1791 
Q 353 2603 747 3093 
Q 1141 3584 1784 3584 
Q 2172 3584 2450 3431 
Q 2728 3278 2906 2969 
L 2906 3500 
L 3481 3500 
L 3481 434 
z
" transform="scale(0.015625)"/>
      <path id="DejaVuSans-57" d="M 1172 4494 
L 1172 3500 
L 2356 3500 
L 2356 3053 
L 1172 3053 
L 1172 1153 
Q 1172 725 1289 603 
Q 1406 481 1766 481 
L 2356 481 
L 2356 0 
L 1766 0 
Q 1100 0 847 248 
Q 594 497 594 1153 
L 594 3053 
L 172 3053 
L 172 3500 
L 594 3500 
L 594 4494 
L 1172 4494 
z
" transform="scale(0.015625)"/>
      <path id="DejaVuSans-5a" d="M 269 3500 
L 844 3500 
L 1563 769 
L 2278 3500 
L 2956 3500 
L 3675 769 
L 4391 3500 
L 4966 3500 
L 4050 0 
L 3372 0 
L 2619 2869 
L 1863 0 
L 1184 0 
L 269 3500 
z
" transform="scale(0.015625)"/>
     </defs>
     <use xlink:href="#DejaVuSans-59"/>
     <use xlink:href="#DejaVuSans-3" transform="translate(59.1875 0)"/>
     <use xlink:href="#DejaVuSans-4c" transform="translate(90.96875 0)"/>
     <use xlink:href="#DejaVuSans-56" transform="translate(118.75 0)"/>
     <use xlink:href="#DejaVuSans-3" transform="translate(170.84375 0)"/>
     <use xlink:href="#DejaVuSans-4f" transform="translate(202.625 0)"/>
     <use xlink:href="#DejaVuSans-44" transform="translate(230.40625 0)"/>
     <use xlink:href="#DejaVuSans-55" transform="translate(291.6875 0)"/>
     <use xlink:href="#DejaVuSans-4a" transform="translate(331.046875 0)"/>
     <use xlink:href="#DejaVuSans-48" transform="translate(394.53125 0)"/>
     <use xlink:href="#DejaVuSans-56" transform="translate(456.0625 0)"/>
     <use xlink:href="#DejaVuSans-57" transform="translate(508.15625 0)"/>
     <use xlink:href="#DejaVuSans-3" transform="translate(547.359375 0)"/>
     <use xlink:href="#DejaVuSans-5a" transform="translate(579.140625 0)"/>
     <use xlink:href="#DejaVuSans-4b" transform="translate(660.921875 0)"/>
     <use xlink:href="#DejaVuSans-48" transform="translate(724.296875 0)"/>
     <use xlink:href="#DejaVuSans-55" transform="translate(785.828125 0)"/>
     <use xlink:href="#DejaVuSans-48" transform="translate(824.734375 0)"/>
     <use xlink:href="#DejaVuSans-3" transform="translate(886.265625 0)"/>
     <use xlink:href="#DejaVuSans-5b" transform="translate(918.046875 0)"/>
     <use xlink:href="#DejaVuSans-3" transform="translate(977.234375 0)"/>
     <use xlink:href="#DejaVuSans-20" transform="translate(1009.015625 0)"/>
     <use xlink:href="#DejaVuSans-3" transform="translate(1092.8125 0)"/>
     <use xlink:href="#DejaVuSans-13" transform="translate(1124.59375 0)"/>
    </g>
    <!-- — a quarter-period out of phase -->
    <g style="fill: #1f2933" transform="translate(105.35625 256.393979) scale(0.083 -0.083)">
     <defs>
      <path id="DejaVuSans-af6" d="M 313 1978 
L 6088 1978 
L 6088 1528 
L 313 1528 
L 313 1978 
z
" transform="scale(0.015625)"/>
      <path id="DejaVuSans-54" d="M 947 1747 
Q 947 1113 1208 752 
Q 1469 391 1925 391 
Q 2381 391 2643 752 
Q 2906 1113 2906 1747 
Q 2906 2381 2643 2742 
Q 2381 3103 1925 3103 
Q 1469 3103 1208 2742 
Q 947 2381 947 1747 
z
M 2906 525 
Q 2725 213 2448 61 
Q 2172 -91 1784 -91 
Q 1150 -91 751 415 
Q 353 922 353 1747 
Q 353 2572 751 3078 
Q 1150 3584 1784 3584 
Q 2172 3584 2448 3432 
Q 2725 3281 2906 2969 
L 2906 3500 
L 3481 3500 
L 3481 -1331 
L 2906 -1331 
L 2906 525 
z
" transform="scale(0.015625)"/>
      <path id="DejaVuSans-58" d="M 544 1381 
L 544 3500 
L 1119 3500 
L 1119 1403 
Q 1119 906 1312 657 
Q 1506 409 1894 409 
Q 2359 409 2629 706 
Q 2900 1003 2900 1516 
L 2900 3500 
L 3475 3500 
L 3475 0 
L 2900 0 
L 2900 538 
Q 2691 219 2414 64 
Q 2138 -91 1772 -91 
Q 1169 -91 856 284 
Q 544 659 544 1381 
z
M 1991 3584 
L 1991 3584 
z
" transform="scale(0.015625)"/>
      <path id="DejaVuSans-10" d="M 313 2009 
L 1997 2009 
L 1997 1497 
L 313 1497 
L 313 2009 
z
" transform="scale(0.015625)"/>
      <path id="DejaVuSans-53" d="M 1159 525 
L 1159 -1331 
L 581 -1331 
L 581 3500 
L 1159 3500 
L 1159 2969 
Q 1341 3281 1617 3432 
Q 1894 3584 2278 3584 
Q 2916 3584 3314 3078 
Q 3713 2572 3713 1747 
Q 3713 922 3314 415 
Q 2916 -91 2278 -91 
Q 1894 -91 1617 61 
Q 1341 213 1159 525 
z
M 3116 1747 
Q 3116 2381 2855 2742 
Q 2594 3103 2138 3103 
Q 1681 3103 1420 2742 
Q 1159 2381 1159 1747 
Q 1159 1113 1420 752 
Q 1681 391 2138 391 
Q 2594 391 2855 752 
Q 3116 1113 3116 1747 
z
" transform="scale(0.015625)"/>
      <path id="DejaVuSans-52" d="M 1959 3097 
Q 1497 3097 1228 2736 
Q 959 2375 959 1747 
Q 959 1119 1226 758 
Q 1494 397 1959 397 
Q 2419 397 2687 759 
Q 2956 1122 2956 1747 
Q 2956 2369 2687 2733 
Q 2419 3097 1959 3097 
z
M 1959 3584 
Q 2709 3584 3137 3096 
Q 3566 2609 3566 1747 
Q 3566 888 3137 398 
Q 2709 -91 1959 -91 
Q 1206 -91 779 398 
Q 353 888 353 1747 
Q 353 2609 779 3096 
Q 1206 3584 1959 3584 
z
" transform="scale(0.015625)"/>
      <path id="DejaVuSans-47" d="M 2906 2969 
L 2906 4863 
L 3481 4863 
L 3481 0 
L 2906 0 
L 2906 525 
Q 2725 213 2448 61 
Q 2172 -91 1784 -91 
Q 1150 -91 751 415 
Q 353 922 353 1747 
Q 353 2572 751 3078 
Q 1150 3584 1784 3584 
Q 2172 3584 2448 3432 
Q 2725 3281 2906 2969 
z
M 947 1747 
Q 947 1113 1208 752 
Q 1469 391 1925 391 
Q 2381 391 2643 752 
Q 2906 1113 2906 1747 
Q 2906 2381 2643 2742 
Q 2381 3103 1925 3103 
Q 1469 3103 1208 2742 
Q 947 2381 947 1747 
z
" transform="scale(0.015625)"/>
      <path id="DejaVuSans-49" d="M 2375 4863 
L 2375 4384 
L 1825 4384 
Q 1516 4384 1395 4259 
Q 1275 4134 1275 3809 
L 1275 3500 
L 2222 3500 
L 2222 3053 
L 1275 3053 
L 1275 0 
L 697 0 
L 697 3053 
L 147 3053 
L 147 3500 
L 697 3500 
L 697 3744 
Q 697 4328 969 4595 
Q 1241 4863 1831 4863 
L 2375 4863 
z
" transform="scale(0.015625)"/>
     </defs>
     <use xlink:href="#DejaVuSans-af6"/>
     <use xlink:href="#DejaVuSans-3" transform="translate(100 0)"/>
     <use xlink:href="#DejaVuSans-44" transform="translate(131.78125 0)"/>
     <use xlink:href="#DejaVuSans-3" transform="translate(193.0625 0)"/>
     <use xlink:href="#DejaVuSans-54" transform="translate(224.84375 0)"/>
     <use xlink:href="#DejaVuSans-58" transform="translate(288.328125 0)"/>
     <use xlink:href="#DejaVuSans-44" transform="translate(351.703125 0)"/>
     <use xlink:href="#DejaVuSans-55" transform="translate(412.984375 0)"/>
     <use xlink:href="#DejaVuSans-57" transform="translate(454.09375 0)"/>
     <use xlink:href="#DejaVuSans-48" transform="translate(493.296875 0)"/>
     <use xlink:href="#DejaVuSans-55" transform="translate(554.828125 0)"/>
     <use xlink:href="#DejaVuSans-10" transform="translate(589.546875 0)"/>
     <use xlink:href="#DejaVuSans-53" transform="translate(625.625 0)"/>
     <use xlink:href="#DejaVuSans-48" transform="translate(689.109375 0)"/>
     <use xlink:href="#DejaVuSans-55" transform="translate(750.640625 0)"/>
     <use xlink:href="#DejaVuSans-4c" transform="translate(791.75 0)"/>
     <use xlink:href="#DejaVuSans-52" transform="translate(819.53125 0)"/>
     <use xlink:href="#DejaVuSans-47" transform="translate(880.71875 0)"/>
     <use xlink:href="#DejaVuSans-3" transform="translate(944.203125 0)"/>
     <use xlink:href="#DejaVuSans-52" transform="translate(975.984375 0)"/>
     <use xlink:href="#DejaVuSans-58" transform="translate(1037.171875 0)"/>
     <use xlink:href="#DejaVuSans-57" transform="translate(1100.546875 0)"/>
     <use xlink:href="#DejaVuSans-3" transform="translate(1139.75 0)"/>
     <use xlink:href="#DejaVuSans-52" transform="translate(1171.53125 0)"/>
     <use xlink:href="#DejaVuSans-49" transform="translate(1232.71875 0)"/>
     <use xlink:href="#DejaVuSans-3" transform="translate(1267.921875 0)"/>
     <use xlink:href="#DejaVuSans-53" transform="translate(1299.703125 0)"/>
     <use xlink:href="#DejaVuSans-4b" transform="translate(1363.1875 0)"/>
     <use xlink:href="#DejaVuSans-44" transform="translate(1426.5625 0)"/>
     <use xlink:href="#DejaVuSans-56" transform="translate(1487.84375 0)"/>
     <use xlink:href="#DejaVuSans-48" transform="translate(1539.9375 0)"/>
    </g>
   </g>
   <g id="PathCollection_2">
    <g clip-path="url(#p729278dd31)">
     <use xlink:href="#m5d3bd11ae2" x="97.35625" y="273.218735" style="fill: #2f6f4f; stroke: #2f6f4f"/>
    </g>
   </g>
  </g>
  <g id="axes_3">
   <g id="patch_10">
    <path d="M 52.71625 439.632 
L 409.83625 439.632 
L 409.83625 309.381398 
L 52.71625 309.381398 
z
" style="fill: #fbfaf7"/>
   </g>
   <g id="matplotlib.axis_5">
    <g id="xtick_15">
     <g id="line2d_36">
      <g>
       <use xlink:href="#m1263b5a5d3" x="52.71625" y="439.632" style="fill: #8a929b; stroke: #8a929b; stroke-width: 0.8"/>
      </g>
     </g>
     <g id="text_16">
      <!-- 0 -->
      <g style="fill: #8a929b" transform="translate(50.17125 452.710125) scale(0.08 -0.08)">
       <use xlink:href="#DejaVuSans-13"/>
      </g>
     </g>
    </g>
    <g id="xtick_16">
     <g id="line2d_37">
      <g>
       <use xlink:href="#m1263b5a5d3" x="109.553663" y="439.632" style="fill: #8a929b; stroke: #8a929b; stroke-width: 0.8"/>
      </g>
     </g>
     <g id="text_17">
      <!-- 1 -->
      <g style="fill: #8a929b" transform="translate(107.008663 452.710125) scale(0.08 -0.08)">
       <defs>
        <path id="DejaVuSans-14" d="M 794 531 
L 1825 531 
L 1825 4091 
L 703 3866 
L 703 4441 
L 1819 4666 
L 2450 4666 
L 2450 531 
L 3481 531 
L 3481 0 
L 794 0 
L 794 531 
z
" transform="scale(0.015625)"/>
       </defs>
       <use xlink:href="#DejaVuSans-14"/>
      </g>
     </g>
    </g>
    <g id="xtick_17">
     <g id="line2d_38">
      <g>
       <use xlink:href="#m1263b5a5d3" x="166.391077" y="439.632" style="fill: #8a929b; stroke: #8a929b; stroke-width: 0.8"/>
      </g>
     </g>
     <g id="text_18">
      <!-- 2 -->
      <g style="fill: #8a929b" transform="translate(163.846077 452.710125) scale(0.08 -0.08)">
       <use xlink:href="#DejaVuSans-15"/>
      </g>
     </g>
    </g>
    <g id="xtick_18">
     <g id="line2d_39">
      <g>
       <use xlink:href="#m1263b5a5d3" x="223.22849" y="439.632" style="fill: #8a929b; stroke: #8a929b; stroke-width: 0.8"/>
      </g>
     </g>
     <g id="text_19">
      <!-- 3 -->
      <g style="fill: #8a929b" transform="translate(220.68349 452.710125) scale(0.08 -0.08)">
       <defs>
        <path id="DejaVuSans-16" d="M 2597 2516 
Q 3050 2419 3304 2112 
Q 3559 1806 3559 1356 
Q 3559 666 3084 287 
Q 2609 -91 1734 -91 
Q 1441 -91 1130 -33 
Q 819 25 488 141 
L 488 750 
Q 750 597 1062 519 
Q 1375 441 1716 441 
Q 2309 441 2620 675 
Q 2931 909 2931 1356 
Q 2931 1769 2642 2001 
Q 2353 2234 1838 2234 
L 1294 2234 
L 1294 2753 
L 1863 2753 
Q 2328 2753 2575 2939 
Q 2822 3125 2822 3475 
Q 2822 3834 2567 4026 
Q 2313 4219 1838 4219 
Q 1578 4219 1281 4162 
Q 984 4106 628 3988 
L 628 4550 
Q 988 4650 1302 4700 
Q 1616 4750 1894 4750 
Q 2613 4750 3031 4423 
Q 3450 4097 3450 3541 
Q 3450 3153 3228 2886 
Q 3006 2619 2597 2516 
z
" transform="scale(0.015625)"/>
       </defs>
       <use xlink:href="#DejaVuSans-16"/>
      </g>
     </g>
    </g>
    <g id="xtick_19">
     <g id="line2d_40">
      <g>
       <use xlink:href="#m1263b5a5d3" x="280.065903" y="439.632" style="fill: #8a929b; stroke: #8a929b; stroke-width: 0.8"/>
      </g>
     </g>
     <g id="text_20">
      <!-- 4 -->
      <g style="fill: #8a929b" transform="translate(277.520903 452.710125) scale(0.08 -0.08)">
       <use xlink:href="#DejaVuSans-17"/>
      </g>
     </g>
    </g>
    <g id="xtick_20">
     <g id="line2d_41">
      <g>
       <use xlink:href="#m1263b5a5d3" x="336.903316" y="439.632" style="fill: #8a929b; stroke: #8a929b; stroke-width: 0.8"/>
      </g>
     </g>
     <g id="text_21">
      <!-- 5 -->
      <g style="fill: #8a929b" transform="translate(334.358316 452.710125) scale(0.08 -0.08)">
       <use xlink:href="#DejaVuSans-18"/>
      </g>
     </g>
    </g>
    <g id="xtick_21">
     <g id="line2d_42">
      <g>
       <use xlink:href="#m1263b5a5d3" x="393.74073" y="439.632" style="fill: #8a929b; stroke: #8a929b; stroke-width: 0.8"/>
      </g>
     </g>
     <g id="text_22">
      <!-- 6 -->
      <g style="fill: #8a929b" transform="translate(391.19573 452.710125) scale(0.08 -0.08)">
       <defs>
        <path id="DejaVuSans-19" d="M 2113 2584 
Q 1688 2584 1439 2293 
Q 1191 2003 1191 1497 
Q 1191 994 1439 701 
Q 1688 409 2113 409 
Q 2538 409 2786 701 
Q 3034 994 3034 1497 
Q 3034 2003 2786 2293 
Q 2538 2584 2113 2584 
z
M 3366 4563 
L 3366 3988 
Q 3128 4100 2886 4159 
Q 2644 4219 2406 4219 
Q 1781 4219 1451 3797 
Q 1122 3375 1075 2522 
Q 1259 2794 1537 2939 
Q 1816 3084 2150 3084 
Q 2853 3084 3261 2657 
Q 3669 2231 3669 1497 
Q 3669 778 3244 343 
Q 2819 -91 2113 -91 
Q 1303 -91 875 529 
Q 447 1150 447 2328 
Q 447 3434 972 4092 
Q 1497 4750 2381 4750 
Q 2619 4750 2861 4703 
Q 3103 4656 3366 4563 
z
" transform="scale(0.015625)"/>
       </defs>
       <use xlink:href="#DejaVuSans-19"/>
      </g>
     </g>
    </g>
    <g id="text_23">
     <!-- t  (s) -->
     <g style="fill: #1f2933" transform="translate(219.631719 466.229656) scale(0.1 -0.1)">
      <use xlink:href="#DejaVuSans-57"/>
      <use xlink:href="#DejaVuSans-3" transform="translate(39.203125 0)"/>
      <use xlink:href="#DejaVuSans-3" transform="translate(70.984375 0)"/>
      <use xlink:href="#DejaVuSans-b" transform="translate(102.765625 0)"/>
      <use xlink:href="#DejaVuSans-56" transform="translate(141.78125 0)"/>
      <use xlink:href="#DejaVuSans-c" transform="translate(193.875 0)"/>
     </g>
    </g>
   </g>
   <g id="matplotlib.axis_6">
    <g id="ytick_12">
     <g id="line2d_43">
      <g>
       <use xlink:href="#m60f06b0d50" x="52.71625" y="436.28048" style="fill: #8a929b; stroke: #8a929b; stroke-width: 0.8"/>
      </g>
     </g>
     <g id="text_24">
      <!-- −1.5 -->
      <g style="fill: #8a929b" transform="translate(26.29 439.319542) scale(0.08 -0.08)">
       <use xlink:href="#DejaVuSans-c9c"/>
       <use xlink:href="#DejaVuSans-14" transform="translate(83.796875 0)"/>
       <use xlink:href="#DejaVuSans-11" transform="translate(147.421875 0)"/>
       <use xlink:href="#DejaVuSans-18" transform="translate(179.203125 0)"/>
      </g>
     </g>
    </g>
    <g id="ytick_13">
     <g id="line2d_44">
      <g>
       <use xlink:href="#m60f06b0d50" x="52.71625" y="416.327013" style="fill: #8a929b; stroke: #8a929b; stroke-width: 0.8"/>
      </g>
     </g>
     <g id="text_25">
      <!-- −1.0 -->
      <g style="fill: #8a929b" transform="translate(26.29 419.366076) scale(0.08 -0.08)">
       <use xlink:href="#DejaVuSans-c9c"/>
       <use xlink:href="#DejaVuSans-14" transform="translate(83.796875 0)"/>
       <use xlink:href="#DejaVuSans-11" transform="translate(147.421875 0)"/>
       <use xlink:href="#DejaVuSans-13" transform="translate(179.203125 0)"/>
      </g>
     </g>
    </g>
    <g id="ytick_14">
     <g id="line2d_45">
      <g>
       <use xlink:href="#m60f06b0d50" x="52.71625" y="396.373547" style="fill: #8a929b; stroke: #8a929b; stroke-width: 0.8"/>
      </g>
     </g>
     <g id="text_26">
      <!-- −0.5 -->
      <g style="fill: #8a929b" transform="translate(26.29 399.412609) scale(0.08 -0.08)">
       <use xlink:href="#DejaVuSans-c9c"/>
       <use xlink:href="#DejaVuSans-13" transform="translate(83.796875 0)"/>
       <use xlink:href="#DejaVuSans-11" transform="translate(147.421875 0)"/>
       <use xlink:href="#DejaVuSans-18" transform="translate(179.203125 0)"/>
      </g>
     </g>
    </g>
    <g id="ytick_15">
     <g id="line2d_46">
      <g>
       <use xlink:href="#m60f06b0d50" x="52.71625" y="376.42008" style="fill: #8a929b; stroke: #8a929b; stroke-width: 0.8"/>
      </g>
     </g>
     <g id="text_27">
      <!-- 0.0 -->
      <g style="fill: #8a929b" transform="translate(32.99375 379.459143) scale(0.08 -0.08)">
       <use xlink:href="#DejaVuSans-13"/>
       <use xlink:href="#DejaVuSans-11" transform="translate(63.625 0)"/>
       <use xlink:href="#DejaVuSans-13" transform="translate(95.40625 0)"/>
      </g>
     </g>
    </g>
    <g id="ytick_16">
     <g id="line2d_47">
      <g>
       <use xlink:href="#m60f06b0d50" x="52.71625" y="356.466614" style="fill: #8a929b; stroke: #8a929b; stroke-width: 0.8"/>
      </g>
     </g>
     <g id="text_28">
      <!-- 0.5 -->
      <g style="fill: #8a929b" transform="translate(32.99375 359.505676) scale(0.08 -0.08)">
       <use xlink:href="#DejaVuSans-13"/>
       <use xlink:href="#DejaVuSans-11" transform="translate(63.625 0)"/>
       <use xlink:href="#DejaVuSans-18" transform="translate(95.40625 0)"/>
      </g>
     </g>
    </g>
    <g id="ytick_17">
     <g id="line2d_48">
      <g>
       <use xlink:href="#m60f06b0d50" x="52.71625" y="336.513147" style="fill: #8a929b; stroke: #8a929b; stroke-width: 0.8"/>
      </g>
     </g>
     <g id="text_29">
      <!-- 1.0 -->
      <g style="fill: #8a929b" transform="translate(32.99375 339.55221) scale(0.08 -0.08)">
       <use xlink:href="#DejaVuSans-14"/>
       <use xlink:href="#DejaVuSans-11" transform="translate(63.625 0)"/>
       <use xlink:href="#DejaVuSans-13" transform="translate(95.40625 0)"/>
      </g>
     </g>
    </g>
    <g id="ytick_18">
     <g id="line2d_49">
      <g>
       <use xlink:href="#m60f06b0d50" x="52.71625" y="316.559681" style="fill: #8a929b; stroke: #8a929b; stroke-width: 0.8"/>
      </g>
     </g>
     <g id="text_30">
      <!-- 1.5 -->
      <g style="fill: #8a929b" transform="translate(32.99375 319.598743) scale(0.08 -0.08)">
       <use xlink:href="#DejaVuSans-14"/>
       <use xlink:href="#DejaVuSans-11" transform="translate(63.625 0)"/>
       <use xlink:href="#DejaVuSans-18" transform="translate(95.40625 0)"/>
      </g>
     </g>
    </g>
    <g id="text_31">
     <!-- a  (m/s²) -->
     <g style="fill: #1f2933" transform="translate(19.887656 395.814511) rotate(-90) scale(0.1 -0.1)">
      <defs>
       <path id="DejaVuSans-74" d="M 838 2444 
L 2163 2444 
L 2163 2088 
L 294 2088 
L 294 2431 
Q 400 2528 597 2703 
Q 1672 3656 1672 3950 
Q 1672 4156 1509 4282 
Q 1347 4409 1081 4409 
Q 919 4409 728 4354 
Q 538 4300 313 4191 
L 313 4575 
Q 553 4663 761 4706 
Q 969 4750 1147 4750 
Q 1600 4750 1872 4544 
Q 2144 4338 2144 4000 
Q 2144 3566 1109 2678 
Q 934 2528 838 2444 
z
" transform="scale(0.015625)"/>
      </defs>
      <use xlink:href="#DejaVuSans-44"/>
      <use xlink:href="#DejaVuSans-3" transform="translate(61.28125 0)"/>
      <use xlink:href="#DejaVuSans-3" transform="translate(93.0625 0)"/>
      <use xlink:href="#DejaVuSans-b" transform="translate(124.84375 0)"/>
      <use xlink:href="#DejaVuSans-50" transform="translate(163.859375 0)"/>
      <use xlink:href="#DejaVuSans-12" transform="translate(261.265625 0)"/>
      <use xlink:href="#DejaVuSans-56" transform="translate(294.953125 0)"/>
      <use xlink:href="#DejaVuSans-74" transform="translate(347.046875 0)"/>
      <use xlink:href="#DejaVuSans-c" transform="translate(387.140625 0)"/>
     </g>
    </g>
   </g>
   <g id="line2d_50">
    <path d="M 52.71625 376.42008 
L 409.83625 376.42008 
" clip-path="url(#pc6cc01503d)" style="fill: none; stroke: #d8d4c8; stroke-linecap: square"/>
   </g>
   <g id="line2d_51">
    <path d="M 97.35625 439.632 
L 97.35625 309.381398 
" clip-path="url(#pc6cc01503d)" style="fill: none; stroke-dasharray: 3.7,1.6; stroke-dashoffset: 0; stroke: #8a929b; stroke-opacity: 0.7"/>
   </g>
   <g id="line2d_52">
    <path d="M 141.99625 439.632 
L 141.99625 309.381398 
" clip-path="url(#pc6cc01503d)" style="fill: none; stroke-dasharray: 3.7,1.6; stroke-dashoffset: 0; stroke: #8a929b; stroke-opacity: 0.7"/>
   </g>
   <g id="line2d_53">
    <path d="M 231.27625 439.632 
L 231.27625 309.381398 
" clip-path="url(#pc6cc01503d)" style="fill: none; stroke-dasharray: 3.7,1.6; stroke-dashoffset: 0; stroke: #8a929b; stroke-opacity: 0.7"/>
   </g>
   <g id="line2d_54">
    <path d="M 52.71625 424.3084 
L 54.210476 424.24222 
L 55.704702 424.043865 
L 57.198928 423.713881 
L 58.693154 423.253182 
L 60.18738 422.66304 
L 61.681606 421.945087 
L 64.670058 420.134032 
L 67.658509 417.840025 
L 70.646961 415.088411 
L 73.635413 411.909589 
L 76.623865 408.338679 
L 79.612317 404.415132 
L 82.600769 400.182296 
L 87.083447 393.356229 
L 91.566124 386.109648 
L 109.496836 356.578622 
L 113.979514 349.97854 
L 116.967965 345.933735 
L 119.956417 342.225744 
L 122.944869 338.895532 
L 125.933321 335.97989 
L 128.921773 333.511033 
L 131.910225 331.516234 
L 134.898677 330.017533 
L 136.392903 329.459613 
L 137.887129 329.031487 
L 139.381355 328.734339 
L 140.875581 328.568991 
L 142.369806 328.535898 
L 143.864032 328.635153 
L 145.358258 328.866481 
L 146.852484 329.229243 
L 148.34671 329.722436 
L 149.840936 330.344698 
L 151.335162 331.094307 
L 154.323614 332.966937 
L 157.312066 335.319638 
L 160.300518 338.126416 
L 163.28897 341.356262 
L 166.277422 344.973494 
L 169.265873 348.938147 
L 172.254325 353.206421 
L 176.737003 360.074177 
L 182.713907 369.831511 
L 196.16194 392.172914 
L 200.644618 399.081173 
L 203.63307 403.384147 
L 206.621522 407.389221 
L 209.609974 411.052149 
L 212.598426 414.332462 
L 215.586878 417.193919 
L 218.575329 419.604906 
L 221.563781 421.538788 
L 223.058007 422.319924 
L 224.552233 422.974198 
L 226.046459 423.4998 
L 227.540685 423.895278 
L 229.034911 424.159539 
L 230.529137 424.291852 
L 232.023363 424.291852 
L 233.517589 424.159539 
L 235.011815 423.895278 
L 236.506041 423.4998 
L 238.000267 422.974198 
L 239.494493 422.319924 
L 242.482945 420.632947 
L 245.471396 418.457507 
L 248.459848 415.817636 
L 251.4483 412.742502 
L 254.436752 409.266077 
L 257.425204 405.42677 
L 260.413656 401.266997 
L 264.896334 394.527839 
L 269.379012 387.339076 
L 278.344367 372.33344 
L 284.321271 362.462373 
L 288.803949 355.439796 
L 293.286627 348.938147 
L 296.275078 344.973494 
L 299.26353 341.356262 
L 302.251982 338.126416 
L 305.240434 335.319638 
L 308.228886 332.966937 
L 311.217338 331.094307 
L 312.711564 330.344698 
L 314.20579 329.722436 
L 315.700016 329.229243 
L 317.194242 328.866481 
L 318.688468 328.635153 
L 320.182694 328.535898 
L 321.676919 328.568991 
L 323.171145 328.734339 
L 324.665371 329.031487 
L 326.159597 329.459613 
L 327.653823 330.017533 
L 329.148049 330.703705 
L 332.136501 332.452872 
L 335.124953 334.687789 
L 338.113405 337.383765 
L 341.101857 340.511013 
L 344.090309 344.034985 
L 347.07876 347.916747 
L 350.067212 352.113414 
L 354.54989 358.896613 
L 359.032568 366.114908 
L 369.49215 383.631556 
L 375.469053 393.356229 
L 379.951731 400.182296 
L 382.940183 404.415132 
L 385.928635 408.338679 
L 388.917087 411.909589 
L 391.905539 415.088411 
L 394.893991 417.840025 
L 397.882442 420.134032 
L 400.870894 421.945087 
L 402.36512 422.66304 
L 403.859346 423.253182 
L 405.353572 423.713881 
L 406.847798 424.043865 
L 408.342024 424.24222 
L 409.83625 424.3084 
L 409.83625 424.3084 
" clip-path="url(#pc6cc01503d)" style="fill: none; stroke: #1f2933; stroke-width: 2.2; stroke-linecap: square"/>
   </g>
   <g id="patch_11">
    <path d="M 52.71625 439.632 
L 52.71625 309.381398 
" style="fill: none; stroke: #d8d4c8; stroke-width: 0.8; stroke-linejoin: miter; stroke-linecap: square"/>
   </g>
   <g id="patch_12">
    <path d="M 52.71625 439.632 
L 409.83625 439.632 
" style="fill: none; stroke: #d8d4c8; stroke-width: 0.8; stroke-linejoin: miter; stroke-linecap: square"/>
   </g>
   <g id="text_32">
    <g id="patch_13">
     <path d="M 64.844508 316.855761 
L 219.147992 316.855761 
Q 221.471992 316.855761 221.471992 314.531761 
L 221.471992 306.231112 
Q 221.471992 303.907112 219.147992 303.907112 
L 64.844508 303.907112 
Q 62.520508 303.907112 62.520508 306.231112 
L 62.520508 314.531761 
Q 62.520508 316.855761 64.844508 316.855761 
z
" style="fill: #fbfaf7; opacity: 0.92; stroke: #d8d4c8; stroke-width: 0.6; stroke-linejoin: miter"/>
    </g>
    <!-- a = −ω²x: always toward equilibrium -->
    <g style="fill: #1f2933" transform="translate(64.844508 312.537816) scale(0.083 -0.083)">
     <defs>
      <path id="DejaVuSans-35d" d="M 1719 -91 
Q 422 -91 422 1766 
Q 422 2500 906 3500 
L 1525 3500 
Q 1078 2500 1078 1750 
Q 1078 397 1772 397 
Q 2406 397 2406 2078 
L 2938 2078 
Q 2938 397 3572 397 
Q 4266 397 4266 1750 
Q 4266 2500 3819 3500 
L 4438 3500 
Q 4922 2500 4922 1766 
Q 4922 -91 3625 -91 
Q 2775 -91 2672 844 
Q 2544 -91 1719 -91 
z
" transform="scale(0.015625)"/>
      <path id="DejaVuSans-1d" d="M 750 794 
L 1409 794 
L 1409 0 
L 750 0 
L 750 794 
z
M 750 3309 
L 1409 3309 
L 1409 2516 
L 750 2516 
L 750 3309 
z
" transform="scale(0.015625)"/>
      <path id="DejaVuSans-5c" d="M 2059 -325 
Q 1816 -950 1584 -1140 
Q 1353 -1331 966 -1331 
L 506 -1331 
L 506 -850 
L 844 -850 
Q 1081 -850 1212 -737 
Q 1344 -625 1503 -206 
L 1606 56 
L 191 3500 
L 800 3500 
L 1894 763 
L 2988 3500 
L 3597 3500 
L 2059 -325 
z
" transform="scale(0.015625)"/>
      <path id="DejaVuSans-45" d="M 3116 1747 
Q 3116 2381 2855 2742 
Q 2594 3103 2138 3103 
Q 1681 3103 1420 2742 
Q 1159 2381 1159 1747 
Q 1159 1113 1420 752 
Q 1681 391 2138 391 
Q 2594 391 2855 752 
Q 3116 1113 3116 1747 
z
M 1159 2969 
Q 1341 3281 1617 3432 
Q 1894 3584 2278 3584 
Q 2916 3584 3314 3078 
Q 3713 2572 3713 1747 
Q 3713 922 3314 415 
Q 2916 -91 2278 -91 
Q 1894 -91 1617 61 
Q 1341 213 1159 525 
L 1159 0 
L 581 0 
L 581 4863 
L 1159 4863 
L 1159 2969 
z
" transform="scale(0.015625)"/>
     </defs>
     <use xlink:href="#DejaVuSans-44"/>
     <use xlink:href="#DejaVuSans-3" transform="translate(61.28125 0)"/>
     <use xlink:href="#DejaVuSans-20" transform="translate(93.0625 0)"/>
     <use xlink:href="#DejaVuSans-3" transform="translate(176.859375 0)"/>
     <use xlink:href="#DejaVuSans-c9c" transform="translate(208.640625 0)"/>
     <use xlink:href="#DejaVuSans-35d" transform="translate(292.4375 0)"/>
     <use xlink:href="#DejaVuSans-74" transform="translate(376.171875 0)"/>
     <use xlink:href="#DejaVuSans-5b" transform="translate(416.265625 0)"/>
     <use xlink:href="#DejaVuSans-1d" transform="translate(475.453125 0)"/>
     <use xlink:href="#DejaVuSans-3" transform="translate(509.140625 0)"/>
     <use xlink:href="#DejaVuSans-44" transform="translate(540.921875 0)"/>
     <use xlink:href="#DejaVuSans-4f" transform="translate(602.203125 0)"/>
     <use xlink:href="#DejaVuSans-5a" transform="translate(629.984375 0)"/>
     <use xlink:href="#DejaVuSans-44" transform="translate(711.765625 0)"/>
     <use xlink:href="#DejaVuSans-5c" transform="translate(773.046875 0)"/>
     <use xlink:href="#DejaVuSans-56" transform="translate(832.234375 0)"/>
     <use xlink:href="#DejaVuSans-3" transform="translate(884.328125 0)"/>
     <use xlink:href="#DejaVuSans-57" transform="translate(916.109375 0)"/>
     <use xlink:href="#DejaVuSans-52" transform="translate(955.3125 0)"/>
     <use xlink:href="#DejaVuSans-5a" transform="translate(1016.5 0)"/>
     <use xlink:href="#DejaVuSans-44" transform="translate(1098.28125 0)"/>
     <use xlink:href="#DejaVuSans-55" transform="translate(1159.5625 0)"/>
     <use xlink:href="#DejaVuSans-47" transform="translate(1198.921875 0)"/>
     <use xlink:href="#DejaVuSans-3" transform="translate(1262.40625 0)"/>
     <use xlink:href="#DejaVuSans-48" transform="translate(1294.1875 0)"/>
     <use xlink:href="#DejaVuSans-54" transform="translate(1355.71875 0)"/>
     <use xlink:href="#DejaVuSans-58" transform="translate(1419.203125 0)"/>
     <use xlink:href="#DejaVuSans-4c" transform="translate(1482.578125 0)"/>
     <use xlink:href="#DejaVuSans-4f" transform="translate(1510.359375 0)"/>
     <use xlink:href="#DejaVuSans-4c" transform="translate(1538.140625 0)"/>
     <use xlink:href="#DejaVuSans-45" transform="translate(1565.921875 0)"/>
     <use xlink:href="#DejaVuSans-55" transform="translate(1629.40625 0)"/>
     <use xlink:href="#DejaVuSans-4c" transform="translate(1670.515625 0)"/>
     <use xlink:href="#DejaVuSans-58" transform="translate(1698.296875 0)"/>
     <use xlink:href="#DejaVuSans-50" transform="translate(1761.671875 0)"/>
    </g>
   </g>
  </g>
 </g>
 <defs>
  <clipPath id="p0d787b5823">
   <rect x="52.71625" y="7.2" width="357.12" height="130.250602"/>
  </clipPath>
  <clipPath id="p729278dd31">
   <rect x="52.71625" y="158.290699" width="357.12" height="130.250602"/>
  </clipPath>
  <clipPath id="pc6cc01503d">
   <rect x="52.71625" y="309.381398" width="357.12" height="130.250602"/>
  </clipPath>
 </defs>
</svg>
