<?xml version="1.0" encoding="utf-8" standalone="no"?>
<!DOCTYPE svg PUBLIC "-//W3C//DTD SVG 1.1//EN"
  "http://www.w3.org/Graphics/SVG/1.1/DTD/svg11.dtd">
<svg xmlns:xlink="http://www.w3.org/1999/xlink" width="423.10625pt" height="231.896pt" viewBox="0 0 423.10625 231.896" xmlns="http://www.w3.org/2000/svg" version="1.1">
 <metadata>
  <rdf:RDF xmlns:dc="http://purl.org/dc/elements/1.1/" xmlns:cc="http://creativecommons.org/ns#" xmlns:rdf="http://www.w3.org/1999/02/22-rdf-syntax-ns#">
   <cc:Work>
    <dc:type rdf:resource="http://purl.org/dc/dcmitype/StillImage"/>
    <dc:date>2026-06-27T08:27:33.308213</dc:date>
    <dc:format>image/svg+xml</dc:format>
    <dc:creator>
     <cc:Agent>
      <dc:title>Matplotlib v3.11.0, https://matplotlib.org/</dc:title>
     </cc:Agent>
    </dc:creator>
   </cc:Work>
  </rdf:RDF>
 </metadata>
 <defs>
  <style type="text/css">*{stroke-linejoin: round; stroke-linecap: butt}</style>
 </defs>
 <g id="figure_1">
  <g id="patch_1">
   <path d="M 0 231.896 
L 423.10625 231.896 
L 423.10625 0 
L 0 0 
z
" style="fill: #fbfaf7"/>
  </g>
  <g id="axes_1">
   <g id="patch_2">
    <path d="M 47.62625 195.696 
L 415.90625 195.696 
L 415.90625 7.2 
L 47.62625 7.2 
z
" style="fill: #fbfaf7"/>
   </g>
   <g id="FillBetweenPolyCollection_1">
    <defs>
     <path id="mf60efb4a24" d="M 54.708558 -130.448 
L 54.708558 -130.448 
L 55.89289 -128.247779 
L 57.077222 -126.049743 
L 58.261555 -123.856077 
L 59.445887 -121.66896 
L 60.63022 -119.490565 
L 61.814552 -117.323056 
L 62.998884 -115.168587 
L 64.183217 -113.029297 
L 65.367549 -110.907313 
L 66.551882 -108.804743 
L 67.736214 -106.723675 
L 68.920546 -104.666176 
L 70.104879 -102.634292 
L 71.289211 -100.63004 
L 72.473544 -98.655412 
L 73.657876 -96.71237 
L 74.842208 -94.802844 
L 76.026541 -92.928731 
L 77.210873 -91.091893 
L 78.395205 -89.294156 
L 79.579538 -87.537304 
L 80.76387 -85.823083 
L 81.948203 -84.153197 
L 83.132535 -82.529304 
L 84.316867 -80.953018 
L 85.5012 -79.425905 
L 86.685532 -77.949482 
L 87.869865 -76.525216 
L 89.054197 -75.154521 
L 90.238529 -73.838761 
L 91.422862 -72.57924 
L 92.607194 -71.377212 
L 93.791527 -70.233871 
L 94.975859 -69.150351 
L 96.160191 -68.12773 
L 97.344524 -67.167024 
L 98.528856 -66.269187 
L 99.713189 -65.435111 
L 100.897521 -64.665624 
L 102.081853 -63.961492 
L 103.266186 -63.323413 
L 104.450518 -62.752023 
L 105.63485 -62.247887 
L 106.819183 -61.811508 
L 108.003515 -61.443318 
L 109.187848 -61.143684 
L 110.37218 -60.912904 
L 111.556512 -60.751205 
L 112.740845 -60.65875 
L 113.925177 -60.63563 
L 115.10951 -60.681868 
L 116.293842 -60.797418 
L 117.478174 -60.982165 
L 118.662507 -61.235925 
L 119.846839 -61.558448 
L 121.031172 -61.949411 
L 122.215504 -62.408427 
L 123.399836 -62.93504 
L 124.584169 -63.528727 
L 125.768501 -64.188897 
L 126.952833 -64.914894 
L 128.137166 -65.705999 
L 129.321498 -66.561424 
L 130.505831 -67.48032 
L 131.690163 -68.461773 
L 132.874495 -69.50481 
L 134.058828 -70.608392 
L 135.24316 -71.771425 
L 136.427493 -72.992753 
L 137.611825 -74.271162 
L 138.796157 -75.605382 
L 139.98049 -76.994088 
L 141.164822 -78.435899 
L 142.349155 -79.929385 
L 143.533487 -81.47306 
L 144.717819 -83.065391 
L 145.902152 -84.704796 
L 147.086484 -86.389647 
L 148.270817 -88.118269 
L 149.455149 -89.888946 
L 150.639481 -91.699918 
L 151.823814 -93.549385 
L 153.008146 -95.435511 
L 154.192478 -97.356422 
L 155.376811 -99.310208 
L 156.561143 -101.29493 
L 157.745476 -103.308616 
L 158.929808 -105.349263 
L 160.11414 -107.414847 
L 161.298473 -109.503313 
L 162.482805 -111.612588 
L 163.667138 -113.740576 
L 164.85147 -115.885162 
L 166.035802 -118.044217 
L 167.220135 -120.215594 
L 168.404467 -122.397137 
L 169.5888 -124.586679 
L 170.773132 -126.782044 
L 171.957464 -128.981051 
L 173.141797 -129.714485 
L 174.326129 -127.514749 
L 175.510461 -125.317928 
L 176.694794 -123.126203 
L 177.879126 -120.941752 
L 179.063459 -118.766746 
L 180.247791 -116.603345 
L 181.432123 -114.453698 
L 182.616456 -112.319942 
L 183.800788 -110.204196 
L 184.985121 -108.108562 
L 186.169453 -106.035121 
L 187.353785 -103.985935 
L 188.538118 -101.963039 
L 189.72245 -99.968442 
L 190.906783 -98.004126 
L 192.091115 -96.072043 
L 193.275447 -94.174113 
L 194.45978 -92.312219 
L 195.644112 -90.488214 
L 196.828444 -88.703908 
L 198.012777 -86.961075 
L 199.197109 -85.261445 
L 200.381442 -83.606708 
L 201.565774 -81.998508 
L 202.750106 -80.438441 
L 203.934439 -78.928058 
L 205.118771 -77.468861 
L 206.303104 -76.062297 
L 207.487436 -74.709765 
L 208.671768 -73.412609 
L 209.856101 -72.172116 
L 211.040433 -70.98952 
L 212.224766 -69.865996 
L 213.409098 -68.802659 
L 214.59343 -67.800567 
L 215.777763 -66.860714 
L 216.962095 -65.984035 
L 218.146428 -65.171399 
L 219.33076 -64.423616 
L 220.515092 -63.741427 
L 221.699425 -63.125511 
L 222.883757 -62.576479 
L 224.068089 -62.094876 
L 225.252422 -61.681182 
L 226.436754 -61.335807 
L 227.621087 -61.059094 
L 228.805419 -60.851319 
L 229.989751 -60.712687 
L 231.174084 -60.643337 
L 232.358416 -60.643337 
L 233.542749 -60.712687 
L 234.727081 -60.851319 
L 235.911413 -61.059094 
L 237.095746 -61.335807 
L 238.280078 -61.681182 
L 239.464411 -62.094876 
L 240.648743 -62.576479 
L 241.833075 -63.125511 
L 243.017408 -63.741427 
L 244.20174 -64.423616 
L 245.386072 -65.171399 
L 246.570405 -65.984035 
L 247.754737 -66.860714 
L 248.93907 -67.800567 
L 250.123402 -68.802659 
L 251.307734 -69.865996 
L 252.492067 -70.98952 
L 253.676399 -72.172116 
L 254.860732 -73.412609 
L 256.045064 -74.709765 
L 257.229396 -76.062297 
L 258.413729 -77.468861 
L 259.598061 -78.928058 
L 260.782394 -80.438441 
L 261.966726 -81.998508 
L 263.151058 -83.606708 
L 264.335391 -85.261445 
L 265.519723 -86.961075 
L 266.704056 -88.703908 
L 267.888388 -90.488214 
L 269.07272 -92.312219 
L 270.257053 -94.174113 
L 271.441385 -96.072043 
L 272.625717 -98.004126 
L 273.81005 -99.968442 
L 274.994382 -101.963039 
L 276.178715 -103.985935 
L 277.363047 -106.035121 
L 278.547379 -108.108562 
L 279.731712 -110.204196 
L 280.916044 -112.319942 
L 282.100377 -114.453698 
L 283.284709 -116.603345 
L 284.469041 -118.766746 
L 285.653374 -120.941752 
L 286.837706 -123.126203 
L 288.022039 -125.317928 
L 289.206371 -127.514749 
L 290.390703 -129.714485 
L 291.575036 -128.981051 
L 292.759368 -126.782044 
L 293.9437 -124.586679 
L 295.128033 -122.397137 
L 296.312365 -120.215594 
L 297.496698 -118.044217 
L 298.68103 -115.885162 
L 299.865362 -113.740576 
L 301.049695 -111.612588 
L 302.234027 -109.503313 
L 303.41836 -107.414847 
L 304.602692 -105.349263 
L 305.787024 -103.308616 
L 306.971357 -101.29493 
L 308.155689 -99.310208 
L 309.340022 -97.356422 
L 310.524354 -95.435511 
L 311.708686 -93.549385 
L 312.893019 -91.699918 
L 314.077351 -89.888946 
L 315.261683 -88.118269 
L 316.446016 -86.389647 
L 317.630348 -84.704796 
L 318.814681 -83.065391 
L 319.999013 -81.47306 
L 321.183345 -79.929385 
L 322.367678 -78.435899 
L 323.55201 -76.994088 
L 324.736343 -75.605382 
L 325.920675 -74.271162 
L 327.105007 -72.992753 
L 328.28934 -71.771425 
L 329.473672 -70.608392 
L 330.658005 -69.50481 
L 331.842337 -68.461773 
L 333.026669 -67.48032 
L 334.211002 -66.561424 
L 335.395334 -65.705999 
L 336.579667 -64.914894 
L 337.763999 -64.188897 
L 338.948331 -63.528727 
L 340.132664 -62.93504 
L 341.316996 -62.408427 
L 342.501328 -61.949411 
L 343.685661 -61.558448 
L 344.869993 -61.235925 
L 346.054326 -60.982165 
L 347.238658 -60.797418 
L 348.42299 -60.681868 
L 349.607323 -60.63563 
L 350.791655 -60.65875 
L 351.975988 -60.751205 
L 353.16032 -60.912904 
L 354.344652 -61.143684 
L 355.528985 -61.443318 
L 356.713317 -61.811508 
L 357.89765 -62.247887 
L 359.081982 -62.752023 
L 360.266314 -63.323413 
L 361.450647 -63.961492 
L 362.634979 -64.665624 
L 363.819311 -65.435111 
L 365.003644 -66.269187 
L 366.187976 -67.167024 
L 367.372309 -68.12773 
L 368.556641 -69.150351 
L 369.740973 -70.233871 
L 370.925306 -71.377212 
L 372.109638 -72.57924 
L 373.293971 -73.838761 
L 374.478303 -75.154521 
L 375.662635 -76.525216 
L 376.846968 -77.949482 
L 378.0313 -79.425905 
L 379.215633 -80.953018 
L 380.399965 -82.529304 
L 381.584297 -84.153197 
L 382.76863 -85.823083 
L 383.952962 -87.537304 
L 385.137295 -89.294156 
L 386.321627 -91.091893 
L 387.505959 -92.928731 
L 388.690292 -94.802844 
L 389.874624 -96.71237 
L 391.058956 -98.655412 
L 392.243289 -100.63004 
L 393.427621 -102.634292 
L 394.611954 -104.666176 
L 395.796286 -106.723675 
L 396.980618 -108.804743 
L 398.164951 -110.907313 
L 399.349283 -113.029297 
L 400.533616 -115.168587 
L 401.717948 -117.323056 
L 402.90228 -119.490565 
L 404.086613 -121.66896 
L 405.270945 -123.856077 
L 406.455278 -126.049743 
L 407.63961 -128.247779 
L 408.823942 -130.448 
L 408.823942 -130.448 
L 408.823942 -130.448 
L 407.63961 -132.648221 
L 406.455278 -134.846257 
L 405.270945 -137.039923 
L 404.086613 -139.22704 
L 402.90228 -141.405435 
L 401.717948 -143.572944 
L 400.533616 -145.727413 
L 399.349283 -147.866703 
L 398.164951 -149.988687 
L 396.980618 -152.091257 
L 395.796286 -154.172325 
L 394.611954 -156.229824 
L 393.427621 -158.261708 
L 392.243289 -160.26596 
L 391.058956 -162.240588 
L 389.874624 -164.18363 
L 388.690292 -166.093156 
L 387.505959 -167.967269 
L 386.321627 -169.804107 
L 385.137295 -171.601844 
L 383.952962 -173.358696 
L 382.76863 -175.072917 
L 381.584297 -176.742803 
L 380.399965 -178.366696 
L 379.215633 -179.942982 
L 378.0313 -181.470095 
L 376.846968 -182.946518 
L 375.662635 -184.370784 
L 374.478303 -185.741479 
L 373.293971 -187.057239 
L 372.109638 -188.31676 
L 370.925306 -189.518788 
L 369.740973 -190.662129 
L 368.556641 -191.745649 
L 367.372309 -192.76827 
L 366.187976 -193.728976 
L 365.003644 -194.626813 
L 363.819311 -195.460889 
L 362.634979 -196.230376 
L 361.450647 -196.934508 
L 360.266314 -197.572587 
L 359.081982 -198.143977 
L 357.89765 -198.648113 
L 356.713317 -199.084492 
L 355.528985 -199.452682 
L 354.344652 -199.752316 
L 353.16032 -199.983096 
L 351.975988 -200.144795 
L 350.791655 -200.23725 
L 349.607323 -200.26037 
L 348.42299 -200.214132 
L 347.238658 -200.098582 
L 346.054326 -199.913835 
L 344.869993 -199.660075 
L 343.685661 -199.337552 
L 342.501328 -198.946589 
L 341.316996 -198.487573 
L 340.132664 -197.96096 
L 338.948331 -197.367273 
L 337.763999 -196.707103 
L 336.579667 -195.981106 
L 335.395334 -195.190001 
L 334.211002 -194.334576 
L 333.026669 -193.41568 
L 331.842337 -192.434227 
L 330.658005 -191.39119 
L 329.473672 -190.287608 
L 328.28934 -189.124575 
L 327.105007 -187.903247 
L 325.920675 -186.624838 
L 324.736343 -185.290618 
L 323.55201 -183.901912 
L 322.367678 -182.460101 
L 321.183345 -180.966615 
L 319.999013 -179.42294 
L 318.814681 -177.830609 
L 317.630348 -176.191204 
L 316.446016 -174.506353 
L 315.261683 -172.777731 
L 314.077351 -171.007054 
L 312.893019 -169.196082 
L 311.708686 -167.346615 
L 310.524354 -165.460489 
L 309.340022 -163.539578 
L 308.155689 -161.585792 
L 306.971357 -159.60107 
L 305.787024 -157.587384 
L 304.602692 -155.546737 
L 303.41836 -153.481153 
L 302.234027 -151.392687 
L 301.049695 -149.283412 
L 299.865362 -147.155424 
L 298.68103 -145.010838 
L 297.496698 -142.851783 
L 296.312365 -140.680406 
L 295.128033 -138.498863 
L 293.9437 -136.309321 
L 292.759368 -134.113956 
L 291.575036 -131.914949 
L 290.390703 -131.181515 
L 289.206371 -133.381251 
L 288.022039 -135.578072 
L 286.837706 -137.769797 
L 285.653374 -139.954248 
L 284.469041 -142.129254 
L 283.284709 -144.292655 
L 282.100377 -146.442302 
L 280.916044 -148.576058 
L 279.731712 -150.691804 
L 278.547379 -152.787438 
L 277.363047 -154.860879 
L 276.178715 -156.910065 
L 274.994382 -158.932961 
L 273.81005 -160.927558 
L 272.625717 -162.891874 
L 271.441385 -164.823957 
L 270.257053 -166.721887 
L 269.07272 -168.583781 
L 267.888388 -170.407786 
L 266.704056 -172.192092 
L 265.519723 -173.934925 
L 264.335391 -175.634555 
L 263.151058 -177.289292 
L 261.966726 -178.897492 
L 260.782394 -180.457559 
L 259.598061 -181.967942 
L 258.413729 -183.427139 
L 257.229396 -184.833703 
L 256.045064 -186.186235 
L 254.860732 -187.483391 
L 253.676399 -188.723884 
L 252.492067 -189.90648 
L 251.307734 -191.030004 
L 250.123402 -192.093341 
L 248.93907 -193.095433 
L 247.754737 -194.035286 
L 246.570405 -194.911965 
L 245.386072 -195.724601 
L 244.20174 -196.472384 
L 243.017408 -197.154573 
L 241.833075 -197.770489 
L 240.648743 -198.319521 
L 239.464411 -198.801124 
L 238.280078 -199.214818 
L 237.095746 -199.560193 
L 235.911413 -199.836906 
L 234.727081 -200.044681 
L 233.542749 -200.183313 
L 232.358416 -200.252663 
L 231.174084 -200.252663 
L 229.989751 -200.183313 
L 228.805419 -200.044681 
L 227.621087 -199.836906 
L 226.436754 -199.560193 
L 225.252422 -199.214818 
L 224.068089 -198.801124 
L 222.883757 -198.319521 
L 221.699425 -197.770489 
L 220.515092 -197.154573 
L 219.33076 -196.472384 
L 218.146428 -195.724601 
L 216.962095 -194.911965 
L 215.777763 -194.035286 
L 214.59343 -193.095433 
L 213.409098 -192.093341 
L 212.224766 -191.030004 
L 211.040433 -189.90648 
L 209.856101 -188.723884 
L 208.671768 -187.483391 
L 207.487436 -186.186235 
L 206.303104 -184.833703 
L 205.118771 -183.427139 
L 203.934439 -181.967942 
L 202.750106 -180.457559 
L 201.565774 -178.897492 
L 200.381442 -177.289292 
L 199.197109 -175.634555 
L 198.012777 -173.934925 
L 196.828444 -172.192092 
L 195.644112 -170.407786 
L 194.45978 -168.583781 
L 193.275447 -166.721887 
L 192.091115 -164.823957 
L 190.906783 -162.891874 
L 189.72245 -160.927558 
L 188.538118 -158.932961 
L 187.353785 -156.910065 
L 186.169453 -154.860879 
L 184.985121 -152.787438 
L 183.800788 -150.691804 
L 182.616456 -148.576058 
L 181.432123 -146.442302 
L 180.247791 -144.292655 
L 179.063459 -142.129254 
L 177.879126 -139.954248 
L 176.694794 -137.769797 
L 175.510461 -135.578072 
L 174.326129 -133.381251 
L 173.141797 -131.181515 
L 171.957464 -131.914949 
L 170.773132 -134.113956 
L 169.5888 -136.309321 
L 168.404467 -138.498863 
L 167.220135 -140.680406 
L 166.035802 -142.851783 
L 164.85147 -145.010838 
L 163.667138 -147.155424 
L 162.482805 -149.283412 
L 161.298473 -151.392687 
L 160.11414 -153.481153 
L 158.929808 -155.546737 
L 157.745476 -157.587384 
L 156.561143 -159.60107 
L 155.376811 -161.585792 
L 154.192478 -163.539578 
L 153.008146 -165.460489 
L 151.823814 -167.346615 
L 150.639481 -169.196082 
L 149.455149 -171.007054 
L 148.270817 -172.777731 
L 147.086484 -174.506353 
L 145.902152 -176.191204 
L 144.717819 -177.830609 
L 143.533487 -179.42294 
L 142.349155 -180.966615 
L 141.164822 -182.460101 
L 139.98049 -183.901912 
L 138.796157 -185.290618 
L 137.611825 -186.624838 
L 136.427493 -187.903247 
L 135.24316 -189.124575 
L 134.058828 -190.287608 
L 132.874495 -191.39119 
L 131.690163 -192.434227 
L 130.505831 -193.41568 
L 129.321498 -194.334576 
L 128.137166 -195.190001 
L 126.952833 -195.981106 
L 125.768501 -196.707103 
L 124.584169 -197.367273 
L 123.399836 -197.96096 
L 122.215504 -198.487573 
L 121.031172 -198.946589 
L 119.846839 -199.337552 
L 118.662507 -199.660075 
L 117.478174 -199.913835 
L 116.293842 -200.098582 
L 115.10951 -200.214132 
L 113.925177 -200.26037 
L 112.740845 -200.23725 
L 111.556512 -200.144795 
L 110.37218 -199.983096 
L 109.187848 -199.752316 
L 108.003515 -199.452682 
L 106.819183 -199.084492 
L 105.63485 -198.648113 
L 104.450518 -198.143977 
L 103.266186 -197.572587 
L 102.081853 -196.934508 
L 100.897521 -196.230376 
L 99.713189 -195.460889 
L 98.528856 -194.626813 
L 97.344524 -193.728976 
L 96.160191 -192.76827 
L 94.975859 -191.745649 
L 93.791527 -190.662129 
L 92.607194 -189.518788 
L 91.422862 -188.31676 
L 90.238529 -187.057239 
L 89.054197 -185.741479 
L 87.869865 -184.370784 
L 86.685532 -182.946518 
L 85.5012 -181.470095 
L 84.316867 -179.942982 
L 83.132535 -178.366696 
L 81.948203 -176.742803 
L 80.76387 -175.072917 
L 79.579538 -173.358696 
L 78.395205 -171.601844 
L 77.210873 -169.804107 
L 76.026541 -167.967269 
L 74.842208 -166.093156 
L 73.657876 -164.18363 
L 72.473544 -162.240588 
L 71.289211 -160.26596 
L 70.104879 -158.261708 
L 68.920546 -156.229824 
L 67.736214 -154.172325 
L 66.551882 -152.091257 
L 65.367549 -149.988687 
L 64.183217 -147.866703 
L 62.998884 -145.727413 
L 61.814552 -143.572944 
L 60.63022 -141.405435 
L 59.445887 -139.22704 
L 58.261555 -137.039923 
L 57.077222 -134.846257 
L 55.89289 -132.648221 
L 54.708558 -130.448 
z
"/>
    </defs>
    <g clip-path="url(#peca163c6f7)">
     <use xlink:href="#mf60efb4a24" x="0" y="231.896" style="fill: #2f6f4f; fill-opacity: 0.1"/>
    </g>
   </g>
   <g id="matplotlib.axis_1">
    <g id="xtick_1">
     <g id="line2d_1">
      <defs>
       <path id="m4efb2c569e" d="M 0 0 
L 0 3.5 
" style="stroke: #8a929b; stroke-width: 0.8"/>
      </defs>
      <g>
       <use xlink:href="#m4efb2c569e" x="54.708558" y="195.696" style="fill: #8a929b; stroke: #8a929b; stroke-width: 0.8"/>
      </g>
     </g>
     <g id="text_1">
      <!-- 0.0 -->
      <g style="fill: #8a929b" transform="translate(48.347308 208.774125) scale(0.08 -0.08)">
       <defs>
        <path id="DejaVuSans-13" d="M 2034 4250 
Q 1547 4250 1301 3770 
Q 1056 3291 1056 2328 
Q 1056 1369 1301 889 
Q 1547 409 2034 409 
Q 2525 409 2770 889 
Q 3016 1369 3016 2328 
Q 3016 3291 2770 3770 
Q 2525 4250 2034 4250 
z
M 2034 4750 
Q 2819 4750 3233 4129 
Q 3647 3509 3647 2328 
Q 3647 1150 3233 529 
Q 2819 -91 2034 -91 
Q 1250 -91 836 529 
Q 422 1150 422 2328 
Q 422 3509 836 4129 
Q 1250 4750 2034 4750 
z
" transform="scale(0.015625)"/>
        <path id="DejaVuSans-11" d="M 684 794 
L 1344 794 
L 1344 0 
L 684 0 
L 684 794 
z
" transform="scale(0.015625)"/>
       </defs>
       <use xlink:href="#DejaVuSans-13"/>
       <use xlink:href="#DejaVuSans-11" transform="translate(63.625 0)"/>
       <use xlink:href="#DejaVuSans-13" transform="translate(95.40625 0)"/>
      </g>
     </g>
    </g>
    <g id="xtick_2">
     <g id="line2d_2">
      <g>
       <use xlink:href="#m4efb2c569e" x="125.531635" y="195.696" style="fill: #8a929b; stroke: #8a929b; stroke-width: 0.8"/>
      </g>
     </g>
     <g id="text_2">
      <!-- 0.2 -->
      <g style="fill: #8a929b" transform="translate(119.170385 208.774125) scale(0.08 -0.08)">
       <defs>
        <path id="DejaVuSans-15" d="M 1228 531 
L 3431 531 
L 3431 0 
L 469 0 
L 469 531 
Q 828 903 1448 1529 
Q 2069 2156 2228 2338 
Q 2531 2678 2651 2914 
Q 2772 3150 2772 3378 
Q 2772 3750 2511 3984 
Q 2250 4219 1831 4219 
Q 1534 4219 1204 4116 
Q 875 4013 500 3803 
L 500 4441 
Q 881 4594 1212 4672 
Q 1544 4750 1819 4750 
Q 2544 4750 2975 4387 
Q 3406 4025 3406 3419 
Q 3406 3131 3298 2873 
Q 3191 2616 2906 2266 
Q 2828 2175 2409 1742 
Q 1991 1309 1228 531 
z
" transform="scale(0.015625)"/>
       </defs>
       <use xlink:href="#DejaVuSans-13"/>
       <use xlink:href="#DejaVuSans-11" transform="translate(63.625 0)"/>
       <use xlink:href="#DejaVuSans-15" transform="translate(95.40625 0)"/>
      </g>
     </g>
    </g>
    <g id="xtick_3">
     <g id="line2d_3">
      <g>
       <use xlink:href="#m4efb2c569e" x="196.354712" y="195.696" style="fill: #8a929b; stroke: #8a929b; stroke-width: 0.8"/>
      </g>
     </g>
     <g id="text_3">
      <!-- 0.4 -->
      <g style="fill: #8a929b" transform="translate(189.993462 208.774125) scale(0.08 -0.08)">
       <defs>
        <path id="DejaVuSans-17" d="M 2419 4116 
L 825 1625 
L 2419 1625 
L 2419 4116 
z
M 2253 4666 
L 3047 4666 
L 3047 1625 
L 3713 1625 
L 3713 1100 
L 3047 1100 
L 3047 0 
L 2419 0 
L 2419 1100 
L 313 1100 
L 313 1709 
L 2253 4666 
z
" transform="scale(0.015625)"/>
       </defs>
       <use xlink:href="#DejaVuSans-13"/>
       <use xlink:href="#DejaVuSans-11" transform="translate(63.625 0)"/>
       <use xlink:href="#DejaVuSans-17" transform="translate(95.40625 0)"/>
      </g>
     </g>
    </g>
    <g id="xtick_4">
     <g id="line2d_4">
      <g>
       <use xlink:href="#m4efb2c569e" x="267.177788" y="195.696" style="fill: #8a929b; stroke: #8a929b; stroke-width: 0.8"/>
      </g>
     </g>
     <g id="text_4">
      <!-- 0.6 -->
      <g style="fill: #8a929b" transform="translate(260.816538 208.774125) scale(0.08 -0.08)">
       <defs>
        <path id="DejaVuSans-19" d="M 2113 2584 
Q 1688 2584 1439 2293 
Q 1191 2003 1191 1497 
Q 1191 994 1439 701 
Q 1688 409 2113 409 
Q 2538 409 2786 701 
Q 3034 994 3034 1497 
Q 3034 2003 2786 2293 
Q 2538 2584 2113 2584 
z
M 3366 4563 
L 3366 3988 
Q 3128 4100 2886 4159 
Q 2644 4219 2406 4219 
Q 1781 4219 1451 3797 
Q 1122 3375 1075 2522 
Q 1259 2794 1537 2939 
Q 1816 3084 2150 3084 
Q 2853 3084 3261 2657 
Q 3669 2231 3669 1497 
Q 3669 778 3244 343 
Q 2819 -91 2113 -91 
Q 1303 -91 875 529 
Q 447 1150 447 2328 
Q 447 3434 972 4092 
Q 1497 4750 2381 4750 
Q 2619 4750 2861 4703 
Q 3103 4656 3366 4563 
z
" transform="scale(0.015625)"/>
       </defs>
       <use xlink:href="#DejaVuSans-13"/>
       <use xlink:href="#DejaVuSans-11" transform="translate(63.625 0)"/>
       <use xlink:href="#DejaVuSans-19" transform="translate(95.40625 0)"/>
      </g>
     </g>
    </g>
    <g id="xtick_5">
     <g id="line2d_5">
      <g>
       <use xlink:href="#m4efb2c569e" x="338.000865" y="195.696" style="fill: #8a929b; stroke: #8a929b; stroke-width: 0.8"/>
      </g>
     </g>
     <g id="text_5">
      <!-- 0.8 -->
      <g style="fill: #8a929b" transform="translate(331.639615 208.774125) scale(0.08 -0.08)">
       <defs>
        <path id="DejaVuSans-1b" d="M 2034 2216 
Q 1584 2216 1326 1975 
Q 1069 1734 1069 1313 
Q 1069 891 1326 650 
Q 1584 409 2034 409 
Q 2484 409 2743 651 
Q 3003 894 3003 1313 
Q 3003 1734 2745 1975 
Q 2488 2216 2034 2216 
z
M 1403 2484 
Q 997 2584 770 2862 
Q 544 3141 544 3541 
Q 544 4100 942 4425 
Q 1341 4750 2034 4750 
Q 2731 4750 3128 4425 
Q 3525 4100 3525 3541 
Q 3525 3141 3298 2862 
Q 3072 2584 2669 2484 
Q 3125 2378 3379 2068 
Q 3634 1759 3634 1313 
Q 3634 634 3220 271 
Q 2806 -91 2034 -91 
Q 1263 -91 848 271 
Q 434 634 434 1313 
Q 434 1759 690 2068 
Q 947 2378 1403 2484 
z
M 1172 3481 
Q 1172 3119 1398 2916 
Q 1625 2713 2034 2713 
Q 2441 2713 2670 2916 
Q 2900 3119 2900 3481 
Q 2900 3844 2670 4047 
Q 2441 4250 2034 4250 
Q 1625 4250 1398 4047 
Q 1172 3844 1172 3481 
z
" transform="scale(0.015625)"/>
       </defs>
       <use xlink:href="#DejaVuSans-13"/>
       <use xlink:href="#DejaVuSans-11" transform="translate(63.625 0)"/>
       <use xlink:href="#DejaVuSans-1b" transform="translate(95.40625 0)"/>
      </g>
     </g>
    </g>
    <g id="xtick_6">
     <g id="line2d_6">
      <g>
       <use xlink:href="#m4efb2c569e" x="408.823942" y="195.696" style="fill: #8a929b; stroke: #8a929b; stroke-width: 0.8"/>
      </g>
     </g>
     <g id="text_6">
      <!-- 1.0 -->
      <g style="fill: #8a929b" transform="translate(402.462692 208.774125) scale(0.08 -0.08)">
       <defs>
        <path id="DejaVuSans-14" d="M 794 531 
L 1825 531 
L 1825 4091 
L 703 3866 
L 703 4441 
L 1819 4666 
L 2450 4666 
L 2450 531 
L 3481 531 
L 3481 0 
L 794 0 
L 794 531 
z
" transform="scale(0.015625)"/>
       </defs>
       <use xlink:href="#DejaVuSans-14"/>
       <use xlink:href="#DejaVuSans-11" transform="translate(63.625 0)"/>
       <use xlink:href="#DejaVuSans-13" transform="translate(95.40625 0)"/>
      </g>
     </g>
    </g>
    <g id="text_7">
     <!-- x  (m) -->
     <g style="fill: #1f2933" transform="translate(216.856875 222.293656) scale(0.1 -0.1)">
      <defs>
       <path id="DejaVuSans-5b" d="M 3513 3500 
L 2247 1797 
L 3578 0 
L 2900 0 
L 1881 1375 
L 863 0 
L 184 0 
L 1544 1831 
L 300 3500 
L 978 3500 
L 1906 2253 
L 2834 3500 
L 3513 3500 
z
" transform="scale(0.015625)"/>
       <path id="DejaVuSans-3" transform="scale(0.015625)"/>
       <path id="DejaVuSans-b" d="M 1984 4856 
Q 1566 4138 1362 3434 
Q 1159 2731 1159 2009 
Q 1159 1288 1364 580 
Q 1569 -128 1984 -844 
L 1484 -844 
Q 1016 -109 783 600 
Q 550 1309 550 2009 
Q 550 2706 781 3412 
Q 1013 4119 1484 4856 
L 1984 4856 
z
" transform="scale(0.015625)"/>
       <path id="DejaVuSans-50" d="M 3328 2828 
Q 3544 3216 3844 3400 
Q 4144 3584 4550 3584 
Q 5097 3584 5394 3201 
Q 5691 2819 5691 2113 
L 5691 0 
L 5113 0 
L 5113 2094 
Q 5113 2597 4934 2840 
Q 4756 3084 4391 3084 
Q 3944 3084 3684 2787 
Q 3425 2491 3425 1978 
L 3425 0 
L 2847 0 
L 2847 2094 
Q 2847 2600 2669 2842 
Q 2491 3084 2119 3084 
Q 1678 3084 1418 2786 
Q 1159 2488 1159 1978 
L 1159 0 
L 581 0 
L 581 3500 
L 1159 3500 
L 1159 2956 
Q 1356 3278 1631 3431 
Q 1906 3584 2284 3584 
Q 2666 3584 2933 3390 
Q 3200 3197 3328 2828 
z
" transform="scale(0.015625)"/>
       <path id="DejaVuSans-c" d="M 513 4856 
L 1013 4856 
Q 1481 4119 1714 3412 
Q 1947 2706 1947 2009 
Q 1947 1309 1714 600 
Q 1481 -109 1013 -844 
L 513 -844 
Q 928 -128 1133 580 
Q 1338 1288 1338 2009 
Q 1338 2731 1133 3434 
Q 928 4138 513 4856 
z
" transform="scale(0.015625)"/>
      </defs>
      <use xlink:href="#DejaVuSans-5b"/>
      <use xlink:href="#DejaVuSans-3" transform="translate(59.1875 0)"/>
      <use xlink:href="#DejaVuSans-3" transform="translate(90.96875 0)"/>
      <use xlink:href="#DejaVuSans-b" transform="translate(122.75 0)"/>
      <use xlink:href="#DejaVuSans-50" transform="translate(161.765625 0)"/>
      <use xlink:href="#DejaVuSans-c" transform="translate(259.171875 0)"/>
     </g>
    </g>
   </g>
   <g id="matplotlib.axis_2">
    <g id="ytick_1">
     <g id="line2d_7">
      <defs>
       <path id="m10b23b5a72" d="M 0 0 
L -3.5 0 
" style="stroke: #8a929b; stroke-width: 0.8"/>
      </defs>
      <g>
       <use xlink:href="#m10b23b5a72" x="47.62625" y="171.261333" style="fill: #8a929b; stroke: #8a929b; stroke-width: 0.8"/>
      </g>
     </g>
     <g id="text_8">
      <!-- −1.0 -->
      <g style="fill: #8a929b" transform="translate(21.2 174.300396) scale(0.08 -0.08)">
       <defs>
        <path id="DejaVuSans-c9c" d="M 678 2272 
L 4684 2272 
L 4684 1741 
L 678 1741 
L 678 2272 
z
" transform="scale(0.015625)"/>
       </defs>
       <use xlink:href="#DejaVuSans-c9c"/>
       <use xlink:href="#DejaVuSans-14" transform="translate(83.796875 0)"/>
       <use xlink:href="#DejaVuSans-11" transform="translate(147.421875 0)"/>
       <use xlink:href="#DejaVuSans-13" transform="translate(179.203125 0)"/>
      </g>
     </g>
    </g>
    <g id="ytick_2">
     <g id="line2d_8">
      <g>
       <use xlink:href="#m10b23b5a72" x="47.62625" y="136.354667" style="fill: #8a929b; stroke: #8a929b; stroke-width: 0.8"/>
      </g>
     </g>
     <g id="text_9">
      <!-- −0.5 -->
      <g style="fill: #8a929b" transform="translate(21.2 139.393729) scale(0.08 -0.08)">
       <defs>
        <path id="DejaVuSans-18" d="M 691 4666 
L 3169 4666 
L 3169 4134 
L 1269 4134 
L 1269 2991 
Q 1406 3038 1543 3061 
Q 1681 3084 1819 3084 
Q 2600 3084 3056 2656 
Q 3513 2228 3513 1497 
Q 3513 744 3044 326 
Q 2575 -91 1722 -91 
Q 1428 -91 1123 -41 
Q 819 9 494 109 
L 494 744 
Q 775 591 1075 516 
Q 1375 441 1709 441 
Q 2250 441 2565 725 
Q 2881 1009 2881 1497 
Q 2881 1984 2565 2268 
Q 2250 2553 1709 2553 
Q 1456 2553 1204 2497 
Q 953 2441 691 2322 
L 691 4666 
z
" transform="scale(0.015625)"/>
       </defs>
       <use xlink:href="#DejaVuSans-c9c"/>
       <use xlink:href="#DejaVuSans-13" transform="translate(83.796875 0)"/>
       <use xlink:href="#DejaVuSans-11" transform="translate(147.421875 0)"/>
       <use xlink:href="#DejaVuSans-18" transform="translate(179.203125 0)"/>
      </g>
     </g>
    </g>
    <g id="ytick_3">
     <g id="line2d_9">
      <g>
       <use xlink:href="#m10b23b5a72" x="47.62625" y="101.448" style="fill: #8a929b; stroke: #8a929b; stroke-width: 0.8"/>
      </g>
     </g>
     <g id="text_10">
      <!-- 0.0 -->
      <g style="fill: #8a929b" transform="translate(27.90375 104.487062) scale(0.08 -0.08)">
       <use xlink:href="#DejaVuSans-13"/>
       <use xlink:href="#DejaVuSans-11" transform="translate(63.625 0)"/>
       <use xlink:href="#DejaVuSans-13" transform="translate(95.40625 0)"/>
      </g>
     </g>
    </g>
    <g id="ytick_4">
     <g id="line2d_10">
      <g>
       <use xlink:href="#m10b23b5a72" x="47.62625" y="66.541333" style="fill: #8a929b; stroke: #8a929b; stroke-width: 0.8"/>
      </g>
     </g>
     <g id="text_11">
      <!-- 0.5 -->
      <g style="fill: #8a929b" transform="translate(27.90375 69.580396) scale(0.08 -0.08)">
       <use xlink:href="#DejaVuSans-13"/>
       <use xlink:href="#DejaVuSans-11" transform="translate(63.625 0)"/>
       <use xlink:href="#DejaVuSans-18" transform="translate(95.40625 0)"/>
      </g>
     </g>
    </g>
    <g id="ytick_5">
     <g id="line2d_11">
      <g>
       <use xlink:href="#m10b23b5a72" x="47.62625" y="31.634667" style="fill: #8a929b; stroke: #8a929b; stroke-width: 0.8"/>
      </g>
     </g>
     <g id="text_12">
      <!-- 1.0 -->
      <g style="fill: #8a929b" transform="translate(27.90375 34.673729) scale(0.08 -0.08)">
       <use xlink:href="#DejaVuSans-14"/>
       <use xlink:href="#DejaVuSans-11" transform="translate(63.625 0)"/>
       <use xlink:href="#DejaVuSans-13" transform="translate(95.40625 0)"/>
      </g>
     </g>
    </g>
    <g id="text_13">
     <!-- y  (m) -->
     <g style="fill: #1f2933" transform="translate(14.797656 116.357375) rotate(-90) scale(0.1 -0.1)">
      <defs>
       <path id="DejaVuSans-5c" d="M 2059 -325 
Q 1816 -950 1584 -1140 
Q 1353 -1331 966 -1331 
L 506 -1331 
L 506 -850 
L 844 -850 
Q 1081 -850 1212 -737 
Q 1344 -625 1503 -206 
L 1606 56 
L 191 3500 
L 800 3500 
L 1894 763 
L 2988 3500 
L 3597 3500 
L 2059 -325 
z
" transform="scale(0.015625)"/>
      </defs>
      <use xlink:href="#DejaVuSans-5c"/>
      <use xlink:href="#DejaVuSans-3" transform="translate(59.1875 0)"/>
      <use xlink:href="#DejaVuSans-3" transform="translate(90.96875 0)"/>
      <use xlink:href="#DejaVuSans-b" transform="translate(122.75 0)"/>
      <use xlink:href="#DejaVuSans-50" transform="translate(161.765625 0)"/>
      <use xlink:href="#DejaVuSans-c" transform="translate(259.171875 0)"/>
     </g>
    </g>
   </g>
   <g id="line2d_12">
    <path d="M 54.708558 101.448 
L 64.183217 84.029297 
L 70.104879 73.634292 
L 74.842208 65.802844 
L 78.395205 60.294156 
L 81.948203 55.153197 
L 85.5012 50.425905 
L 89.054197 46.154521 
L 91.422862 43.57924 
L 93.791527 41.233871 
L 96.160191 39.12773 
L 98.528856 37.269187 
L 100.897521 35.665624 
L 103.266186 34.323413 
L 105.63485 33.247887 
L 108.003515 32.443318 
L 110.37218 31.912904 
L 112.740845 31.65875 
L 115.10951 31.681868 
L 117.478174 31.982165 
L 119.846839 32.558448 
L 122.215504 33.408427 
L 124.584169 34.528727 
L 126.952833 35.914894 
L 129.321498 37.561424 
L 131.690163 39.461773 
L 134.058828 41.608392 
L 136.427493 43.992753 
L 138.796157 46.605382 
L 142.349155 50.929385 
L 145.902152 55.704796 
L 149.455149 60.888946 
L 153.008146 66.435511 
L 157.745476 74.308616 
L 162.482805 82.612588 
L 169.5888 95.586679 
L 182.616456 119.576058 
L 188.538118 129.932961 
L 193.275447 137.721887 
L 196.828444 143.192092 
L 200.381442 148.289292 
L 203.934439 152.967942 
L 207.487436 157.186235 
L 209.856101 159.723884 
L 212.224766 162.030004 
L 214.59343 164.095433 
L 216.962095 165.911965 
L 219.33076 167.472384 
L 221.699425 168.770489 
L 224.068089 169.801124 
L 226.436754 170.560193 
L 228.805419 171.044681 
L 231.174084 171.252663 
L 233.542749 171.183313 
L 235.911413 170.836906 
L 238.280078 170.214818 
L 240.648743 169.319521 
L 243.017408 168.154573 
L 245.386072 166.724601 
L 247.754737 165.035286 
L 250.123402 163.093341 
L 252.492067 160.90648 
L 254.860732 158.483391 
L 258.413729 154.427139 
L 261.966726 149.897492 
L 265.519723 144.934925 
L 269.07272 139.583781 
L 272.625717 133.891874 
L 277.363047 125.860879 
L 283.284709 115.292655 
L 292.759368 97.782044 
L 301.049695 82.612588 
L 305.787024 74.308616 
L 310.524354 66.435511 
L 314.077351 60.888946 
L 317.630348 55.704796 
L 321.183345 50.929385 
L 324.736343 46.605382 
L 327.105007 43.992753 
L 329.473672 41.608392 
L 331.842337 39.461773 
L 334.211002 37.561424 
L 336.579667 35.914894 
L 338.948331 34.528727 
L 341.316996 33.408427 
L 343.685661 32.558448 
L 346.054326 31.982165 
L 348.42299 31.681868 
L 350.791655 31.65875 
L 353.16032 31.912904 
L 355.528985 32.443318 
L 357.89765 33.247887 
L 360.266314 34.323413 
L 362.634979 35.665624 
L 365.003644 37.269187 
L 367.372309 39.12773 
L 369.740973 41.233871 
L 372.109638 43.57924 
L 374.478303 46.154521 
L 378.0313 50.425905 
L 381.584297 55.153197 
L 385.137295 60.294156 
L 388.690292 65.802844 
L 393.427621 73.634292 
L 398.164951 81.907313 
L 405.270945 94.856077 
L 408.823942 101.448 
L 408.823942 101.448 
" clip-path="url(#peca163c6f7)" style="fill: none; stroke: #2f6f4f; stroke-width: 2.4; stroke-linecap: square"/>
   </g>
   <g id="line2d_13">
    <path d="M 54.708558 101.448 
L 64.183217 118.866703 
L 70.104879 129.261708 
L 74.842208 137.093156 
L 78.395205 142.601844 
L 81.948203 147.742803 
L 85.5012 152.470095 
L 89.054197 156.741479 
L 91.422862 159.31676 
L 93.791527 161.662129 
L 96.160191 163.76827 
L 98.528856 165.626813 
L 100.897521 167.230376 
L 103.266186 168.572587 
L 105.63485 169.648113 
L 108.003515 170.452682 
L 110.37218 170.983096 
L 112.740845 171.23725 
L 115.10951 171.214132 
L 117.478174 170.913835 
L 119.846839 170.337552 
L 122.215504 169.487573 
L 124.584169 168.367273 
L 126.952833 166.981106 
L 129.321498 165.334576 
L 131.690163 163.434227 
L 134.058828 161.287608 
L 136.427493 158.903247 
L 138.796157 156.290618 
L 142.349155 151.966615 
L 145.902152 147.191204 
L 149.455149 142.007054 
L 153.008146 136.460489 
L 157.745476 128.587384 
L 162.482805 120.283412 
L 169.5888 107.309321 
L 182.616456 83.319942 
L 188.538118 72.963039 
L 193.275447 65.174113 
L 196.828444 59.703908 
L 200.381442 54.606708 
L 203.934439 49.928058 
L 207.487436 45.709765 
L 209.856101 43.172116 
L 212.224766 40.865996 
L 214.59343 38.800567 
L 216.962095 36.984035 
L 219.33076 35.423616 
L 221.699425 34.125511 
L 224.068089 33.094876 
L 226.436754 32.335807 
L 228.805419 31.851319 
L 231.174084 31.643337 
L 233.542749 31.712687 
L 235.911413 32.059094 
L 238.280078 32.681182 
L 240.648743 33.576479 
L 243.017408 34.741427 
L 245.386072 36.171399 
L 247.754737 37.860714 
L 250.123402 39.802659 
L 252.492067 41.98952 
L 254.860732 44.412609 
L 258.413729 48.468861 
L 261.966726 52.998508 
L 265.519723 57.961075 
L 269.07272 63.312219 
L 272.625717 69.004126 
L 277.363047 77.035121 
L 283.284709 87.603345 
L 292.759368 105.113956 
L 301.049695 120.283412 
L 305.787024 128.587384 
L 310.524354 136.460489 
L 314.077351 142.007054 
L 317.630348 147.191204 
L 321.183345 151.966615 
L 324.736343 156.290618 
L 327.105007 158.903247 
L 329.473672 161.287608 
L 331.842337 163.434227 
L 334.211002 165.334576 
L 336.579667 166.981106 
L 338.948331 168.367273 
L 341.316996 169.487573 
L 343.685661 170.337552 
L 346.054326 170.913835 
L 348.42299 171.214132 
L 350.791655 171.23725 
L 353.16032 170.983096 
L 355.528985 170.452682 
L 357.89765 169.648113 
L 360.266314 168.572587 
L 362.634979 167.230376 
L 365.003644 165.626813 
L 367.372309 163.76827 
L 369.740973 161.662129 
L 372.109638 159.31676 
L 374.478303 156.741479 
L 378.0313 152.470095 
L 381.584297 147.742803 
L 385.137295 142.601844 
L 388.690292 137.093156 
L 393.427621 129.261708 
L 398.164951 120.988687 
L 405.270945 108.039923 
L 408.823942 101.448 
L 408.823942 101.448 
" clip-path="url(#peca163c6f7)" style="fill: none; stroke-dasharray: 0.9,1.485; stroke-dashoffset: 0; stroke: #2f6f4f; stroke-opacity: 0.5; stroke-width: 0.9"/>
   </g>
   <g id="line2d_14">
    <path d="M 47.62625 101.448 
L 415.90625 101.448 
" clip-path="url(#peca163c6f7)" style="fill: none; stroke: #d8d4c8; stroke-linecap: square"/>
   </g>
   <g id="line2d_15">
    <path d="M 54.708558 181.733333 
L 54.708558 21.162667 
" clip-path="url(#peca163c6f7)" style="fill: none; stroke: #8a929b; stroke-width: 2; stroke-linecap: square"/>
   </g>
   <g id="line2d_16">
    <path d="M 408.823942 181.733333 
L 408.823942 21.162667 
" clip-path="url(#peca163c6f7)" style="fill: none; stroke: #8a929b; stroke-width: 2; stroke-linecap: square"/>
   </g>
   <g id="patch_3">
    <path d="M 47.62625 195.696 
L 415.90625 195.696 
" style="fill: none; stroke: #d8d4c8; stroke-width: 0.8; stroke-linejoin: miter; stroke-linecap: square"/>
   </g>
   <g id="text_14">
    <g id="patch_4">
     <path d="M 133.502516 27.172869 
L 330.029984 27.172869 
Q 332.437984 27.172869 332.437984 24.764869 
L 332.437984 16.164197 
Q 332.437984 13.756197 330.029984 13.756197 
L 133.502516 13.756197 
Q 131.094516 13.756197 131.094516 16.164197 
L 131.094516 24.764869 
Q 131.094516 27.172869 133.502516 27.172869 
z
" style="fill: #fbfaf7; opacity: 0.92; stroke: #d8d4c8; stroke-width: 0.6; stroke-linejoin: miter"/>
    </g>
    <!-- n = 3:  3 half-wavelengths,  2 interior node(s) -->
    <g style="fill: #1f2933" transform="translate(133.502516 22.698854) scale(0.086 -0.086)">
     <defs>
      <path id="DejaVuSans-51" d="M 3513 2113 
L 3513 0 
L 2938 0 
L 2938 2094 
Q 2938 2591 2744 2837 
Q 2550 3084 2163 3084 
Q 1697 3084 1428 2787 
Q 1159 2491 1159 1978 
L 1159 0 
L 581 0 
L 581 3500 
L 1159 3500 
L 1159 2956 
Q 1366 3272 1645 3428 
Q 1925 3584 2291 3584 
Q 2894 3584 3203 3211 
Q 3513 2838 3513 2113 
z
" transform="scale(0.015625)"/>
      <path id="DejaVuSans-20" d="M 678 2906 
L 4684 2906 
L 4684 2381 
L 678 2381 
L 678 2906 
z
M 678 1631 
L 4684 1631 
L 4684 1100 
L 678 1100 
L 678 1631 
z
" transform="scale(0.015625)"/>
      <path id="DejaVuSans-16" d="M 2597 2516 
Q 3050 2419 3304 2112 
Q 3559 1806 3559 1356 
Q 3559 666 3084 287 
Q 2609 -91 1734 -91 
Q 1441 -91 1130 -33 
Q 819 25 488 141 
L 488 750 
Q 750 597 1062 519 
Q 1375 441 1716 441 
Q 2309 441 2620 675 
Q 2931 909 2931 1356 
Q 2931 1769 2642 2001 
Q 2353 2234 1838 2234 
L 1294 2234 
L 1294 2753 
L 1863 2753 
Q 2328 2753 2575 2939 
Q 2822 3125 2822 3475 
Q 2822 3834 2567 4026 
Q 2313 4219 1838 4219 
Q 1578 4219 1281 4162 
Q 984 4106 628 3988 
L 628 4550 
Q 988 4650 1302 4700 
Q 1616 4750 1894 4750 
Q 2613 4750 3031 4423 
Q 3450 4097 3450 3541 
Q 3450 3153 3228 2886 
Q 3006 2619 2597 2516 
z
" transform="scale(0.015625)"/>
      <path id="DejaVuSans-1d" d="M 750 794 
L 1409 794 
L 1409 0 
L 750 0 
L 750 794 
z
M 750 3309 
L 1409 3309 
L 1409 2516 
L 750 2516 
L 750 3309 
z
" transform="scale(0.015625)"/>
      <path id="DejaVuSans-4b" d="M 3513 2113 
L 3513 0 
L 2938 0 
L 2938 2094 
Q 2938 2591 2744 2837 
Q 2550 3084 2163 3084 
Q 1697 3084 1428 2787 
Q 1159 2491 1159 1978 
L 1159 0 
L 581 0 
L 581 4863 
L 1159 4863 
L 1159 2956 
Q 1366 3272 1645 3428 
Q 1925 3584 2291 3584 
Q 2894 3584 3203 3211 
Q 3513 2838 3513 2113 
z
" transform="scale(0.015625)"/>
      <path id="DejaVuSans-44" d="M 2194 1759 
Q 1497 1759 1228 1600 
Q 959 1441 959 1056 
Q 959 750 1161 570 
Q 1363 391 1709 391 
Q 2188 391 2477 730 
Q 2766 1069 2766 1631 
L 2766 1759 
L 2194 1759 
z
M 3341 1997 
L 3341 0 
L 2766 0 
L 2766 531 
Q 2569 213 2275 61 
Q 1981 -91 1556 -91 
Q 1019 -91 701 211 
Q 384 513 384 1019 
Q 384 1609 779 1909 
Q 1175 2209 1959 2209 
L 2766 2209 
L 2766 2266 
Q 2766 2663 2505 2880 
Q 2244 3097 1772 3097 
Q 1472 3097 1187 3025 
Q 903 2953 641 2809 
L 641 3341 
Q 956 3463 1253 3523 
Q 1550 3584 1831 3584 
Q 2591 3584 2966 3190 
Q 3341 2797 3341 1997 
z
" transform="scale(0.015625)"/>
      <path id="DejaVuSans-4f" d="M 603 4863 
L 1178 4863 
L 1178 0 
L 603 0 
L 603 4863 
z
" transform="scale(0.015625)"/>
      <path id="DejaVuSans-49" d="M 2375 4863 
L 2375 4384 
L 1825 4384 
Q 1516 4384 1395 4259 
Q 1275 4134 1275 3809 
L 1275 3500 
L 2222 3500 
L 2222 3053 
L 1275 3053 
L 1275 0 
L 697 0 
L 697 3053 
L 147 3053 
L 147 3500 
L 697 3500 
L 697 3744 
Q 697 4328 969 4595 
Q 1241 4863 1831 4863 
L 2375 4863 
z
" transform="scale(0.015625)"/>
      <path id="DejaVuSans-10" d="M 313 2009 
L 1997 2009 
L 1997 1497 
L 313 1497 
L 313 2009 
z
" transform="scale(0.015625)"/>
      <path id="DejaVuSans-5a" d="M 269 3500 
L 844 3500 
L 1563 769 
L 2278 3500 
L 2956 3500 
L 3675 769 
L 4391 3500 
L 4966 3500 
L 4050 0 
L 3372 0 
L 2619 2869 
L 1863 0 
L 1184 0 
L 269 3500 
z
" transform="scale(0.015625)"/>
      <path id="DejaVuSans-59" d="M 191 3500 
L 800 3500 
L 1894 563 
L 2988 3500 
L 3597 3500 
L 2284 0 
L 1503 0 
L 191 3500 
z
" transform="scale(0.015625)"/>
      <path id="DejaVuSans-48" d="M 3597 1894 
L 3597 1613 
L 953 1613 
Q 991 1019 1311 708 
Q 1631 397 2203 397 
Q 2534 397 2845 478 
Q 3156 559 3463 722 
L 3463 178 
Q 3153 47 2828 -22 
Q 2503 -91 2169 -91 
Q 1331 -91 842 396 
Q 353 884 353 1716 
Q 353 2575 817 3079 
Q 1281 3584 2069 3584 
Q 2775 3584 3186 3129 
Q 3597 2675 3597 1894 
z
M 3022 2063 
Q 3016 2534 2758 2815 
Q 2500 3097 2075 3097 
Q 1594 3097 1305 2825 
Q 1016 2553 972 2059 
L 3022 2063 
z
" transform="scale(0.015625)"/>
      <path id="DejaVuSans-4a" d="M 2906 1791 
Q 2906 2416 2648 2759 
Q 2391 3103 1925 3103 
Q 1463 3103 1205 2759 
Q 947 2416 947 1791 
Q 947 1169 1205 825 
Q 1463 481 1925 481 
Q 2391 481 2648 825 
Q 2906 1169 2906 1791 
z
M 3481 434 
Q 3481 -459 3084 -895 
Q 2688 -1331 1869 -1331 
Q 1566 -1331 1297 -1286 
Q 1028 -1241 775 -1147 
L 775 -588 
Q 1028 -725 1275 -790 
Q 1522 -856 1778 -856 
Q 2344 -856 2625 -561 
Q 2906 -266 2906 331 
L 2906 616 
Q 2728 306 2450 153 
Q 2172 0 1784 0 
Q 1141 0 747 490 
Q 353 981 353 1791 
Q 353 2603 747 3093 
Q 1141 3584 1784 3584 
Q 2172 3584 2450 3431 
Q 2728 3278 2906 2969 
L 2906 3500 
L 3481 3500 
L 3481 434 
z
" transform="scale(0.015625)"/>
      <path id="DejaVuSans-57" d="M 1172 4494 
L 1172 3500 
L 2356 3500 
L 2356 3053 
L 1172 3053 
L 1172 1153 
Q 1172 725 1289 603 
Q 1406 481 1766 481 
L 2356 481 
L 2356 0 
L 1766 0 
Q 1100 0 847 248 
Q 594 497 594 1153 
L 594 3053 
L 172 3053 
L 172 3500 
L 594 3500 
L 594 4494 
L 1172 4494 
z
" transform="scale(0.015625)"/>
      <path id="DejaVuSans-56" d="M 2834 3397 
L 2834 2853 
Q 2591 2978 2328 3040 
Q 2066 3103 1784 3103 
Q 1356 3103 1142 2972 
Q 928 2841 928 2578 
Q 928 2378 1081 2264 
Q 1234 2150 1697 2047 
L 1894 2003 
Q 2506 1872 2764 1633 
Q 3022 1394 3022 966 
Q 3022 478 2636 193 
Q 2250 -91 1575 -91 
Q 1294 -91 989 -36 
Q 684 19 347 128 
L 347 722 
Q 666 556 975 473 
Q 1284 391 1588 391 
Q 1994 391 2212 530 
Q 2431 669 2431 922 
Q 2431 1156 2273 1281 
Q 2116 1406 1581 1522 
L 1381 1569 
Q 847 1681 609 1914 
Q 372 2147 372 2553 
Q 372 3047 722 3315 
Q 1072 3584 1716 3584 
Q 2034 3584 2315 3537 
Q 2597 3491 2834 3397 
z
" transform="scale(0.015625)"/>
      <path id="DejaVuSans-f" d="M 750 794 
L 1409 794 
L 1409 256 
L 897 -744 
L 494 -744 
L 750 256 
L 750 794 
z
" transform="scale(0.015625)"/>
      <path id="DejaVuSans-4c" d="M 603 3500 
L 1178 3500 
L 1178 0 
L 603 0 
L 603 3500 
z
M 603 4863 
L 1178 4863 
L 1178 4134 
L 603 4134 
L 603 4863 
z
" transform="scale(0.015625)"/>
      <path id="DejaVuSans-55" d="M 2631 2963 
Q 2534 3019 2420 3045 
Q 2306 3072 2169 3072 
Q 1681 3072 1420 2755 
Q 1159 2438 1159 1844 
L 1159 0 
L 581 0 
L 581 3500 
L 1159 3500 
L 1159 2956 
Q 1341 3275 1631 3429 
Q 1922 3584 2338 3584 
Q 2397 3584 2469 3576 
Q 2541 3569 2628 3553 
L 2631 2963 
z
" transform="scale(0.015625)"/>
      <path id="DejaVuSans-52" d="M 1959 3097 
Q 1497 3097 1228 2736 
Q 959 2375 959 1747 
Q 959 1119 1226 758 
Q 1494 397 1959 397 
Q 2419 397 2687 759 
Q 2956 1122 2956 1747 
Q 2956 2369 2687 2733 
Q 2419 3097 1959 3097 
z
M 1959 3584 
Q 2709 3584 3137 3096 
Q 3566 2609 3566 1747 
Q 3566 888 3137 398 
Q 2709 -91 1959 -91 
Q 1206 -91 779 398 
Q 353 888 353 1747 
Q 353 2609 779 3096 
Q 1206 3584 1959 3584 
z
" transform="scale(0.015625)"/>
      <path id="DejaVuSans-47" d="M 2906 2969 
L 2906 4863 
L 3481 4863 
L 3481 0 
L 2906 0 
L 2906 525 
Q 2725 213 2448 61 
Q 2172 -91 1784 -91 
Q 1150 -91 751 415 
Q 353 922 353 1747 
Q 353 2572 751 3078 
Q 1150 3584 1784 3584 
Q 2172 3584 2448 3432 
Q 2725 3281 2906 2969 
z
M 947 1747 
Q 947 1113 1208 752 
Q 1469 391 1925 391 
Q 2381 391 2643 752 
Q 2906 1113 2906 1747 
Q 2906 2381 2643 2742 
Q 2381 3103 1925 3103 
Q 1469 3103 1208 2742 
Q 947 2381 947 1747 
z
" transform="scale(0.015625)"/>
     </defs>
     <use xlink:href="#DejaVuSans-51"/>
     <use xlink:href="#DejaVuSans-3" transform="translate(63.375 0)"/>
     <use xlink:href="#DejaVuSans-20" transform="translate(95.15625 0)"/>
     <use xlink:href="#DejaVuSans-3" transform="translate(178.953125 0)"/>
     <use xlink:href="#DejaVuSans-16" transform="translate(210.734375 0)"/>
     <use xlink:href="#DejaVuSans-1d" transform="translate(274.359375 0)"/>
     <use xlink:href="#DejaVuSans-3" transform="translate(308.046875 0)"/>
     <use xlink:href="#DejaVuSans-3" transform="translate(339.828125 0)"/>
     <use xlink:href="#DejaVuSans-16" transform="translate(371.609375 0)"/>
     <use xlink:href="#DejaVuSans-3" transform="translate(435.234375 0)"/>
     <use xlink:href="#DejaVuSans-4b" transform="translate(467.015625 0)"/>
     <use xlink:href="#DejaVuSans-44" transform="translate(530.390625 0)"/>
     <use xlink:href="#DejaVuSans-4f" transform="translate(591.671875 0)"/>
     <use xlink:href="#DejaVuSans-49" transform="translate(619.453125 0)"/>
     <use xlink:href="#DejaVuSans-10" transform="translate(649.1875 0)"/>
     <use xlink:href="#DejaVuSans-5a" transform="translate(685.265625 0)"/>
     <use xlink:href="#DejaVuSans-44" transform="translate(767.046875 0)"/>
     <use xlink:href="#DejaVuSans-59" transform="translate(828.328125 0)"/>
     <use xlink:href="#DejaVuSans-48" transform="translate(887.515625 0)"/>
     <use xlink:href="#DejaVuSans-4f" transform="translate(949.046875 0)"/>
     <use xlink:href="#DejaVuSans-48" transform="translate(976.828125 0)"/>
     <use xlink:href="#DejaVuSans-51" transform="translate(1038.359375 0)"/>
     <use xlink:href="#DejaVuSans-4a" transform="translate(1101.734375 0)"/>
     <use xlink:href="#DejaVuSans-57" transform="translate(1165.21875 0)"/>
     <use xlink:href="#DejaVuSans-4b" transform="translate(1204.421875 0)"/>
     <use xlink:href="#DejaVuSans-56" transform="translate(1267.796875 0)"/>
     <use xlink:href="#DejaVuSans-f" transform="translate(1319.890625 0)"/>
     <use xlink:href="#DejaVuSans-3" transform="translate(1351.671875 0)"/>
     <use xlink:href="#DejaVuSans-3" transform="translate(1383.453125 0)"/>
     <use xlink:href="#DejaVuSans-15" transform="translate(1415.234375 0)"/>
     <use xlink:href="#DejaVuSans-3" transform="translate(1478.859375 0)"/>
     <use xlink:href="#DejaVuSans-4c" transform="translate(1510.640625 0)"/>
     <use xlink:href="#DejaVuSans-51" transform="translate(1538.421875 0)"/>
     <use xlink:href="#DejaVuSans-57" transform="translate(1601.796875 0)"/>
     <use xlink:href="#DejaVuSans-48" transform="translate(1641 0)"/>
     <use xlink:href="#DejaVuSans-55" transform="translate(1702.53125 0)"/>
     <use xlink:href="#DejaVuSans-4c" transform="translate(1743.640625 0)"/>
     <use xlink:href="#DejaVuSans-52" transform="translate(1771.421875 0)"/>
     <use xlink:href="#DejaVuSans-55" transform="translate(1832.609375 0)"/>
     <use xlink:href="#DejaVuSans-3" transform="translate(1873.71875 0)"/>
     <use xlink:href="#DejaVuSans-51" transform="translate(1905.5 0)"/>
     <use xlink:href="#DejaVuSans-52" transform="translate(1968.875 0)"/>
     <use xlink:href="#DejaVuSans-47" transform="translate(2030.0625 0)"/>
     <use xlink:href="#DejaVuSans-48" transform="translate(2093.546875 0)"/>
     <use xlink:href="#DejaVuSans-b" transform="translate(2155.078125 0)"/>
     <use xlink:href="#DejaVuSans-56" transform="translate(2194.09375 0)"/>
     <use xlink:href="#DejaVuSans-c" transform="translate(2246.1875 0)"/>
    </g>
   </g>
   <g id="line2d_17">
    <defs>
     <path id="ma633e530cd" d="M 0 3 
C 0.795609 3 1.55874 2.683901 2.12132 2.12132 
C 2.683901 1.55874 3 0.795609 3 0 
C 3 -0.795609 2.683901 -1.55874 2.12132 -2.12132 
C 1.55874 -2.683901 0.795609 -3 0 -3 
C -0.795609 -3 -1.55874 -2.683901 -2.12132 -2.12132 
C -2.683901 -1.55874 -3 -0.795609 -3 0 
C -3 0.795609 -2.683901 1.55874 -2.12132 2.12132 
C -1.55874 2.683901 -0.795609 3 0 3 
z
" style="stroke: #1f2933"/>
    </defs>
    <g clip-path="url(#peca163c6f7)">
     <use xlink:href="#ma633e530cd" x="54.708558" y="101.448" style="fill: #1f2933; stroke: #1f2933"/>
     <use xlink:href="#ma633e530cd" x="172.747019" y="101.448" style="fill: #1f2933; stroke: #1f2933"/>
     <use xlink:href="#ma633e530cd" x="290.785481" y="101.448" style="fill: #1f2933; stroke: #1f2933"/>
     <use xlink:href="#ma633e530cd" x="408.823942" y="101.448" style="fill: #1f2933; stroke: #1f2933"/>
    </g>
   </g>
  </g>
 </g>
 <defs>
  <clipPath id="peca163c6f7">
   <rect x="47.62625" y="7.2" width="368.28" height="188.496"/>
  </clipPath>
 </defs>
</svg>
