<?xml version="1.0" encoding="utf-8" standalone="no"?>
<!DOCTYPE svg PUBLIC "-//W3C//DTD SVG 1.1//EN"
  "http://www.w3.org/Graphics/SVG/1.1/DTD/svg11.dtd">
<svg xmlns:xlink="http://www.w3.org/1999/xlink" width="431.675pt" height="265.160781pt" viewBox="0 0 431.675 265.160781" xmlns="http://www.w3.org/2000/svg" version="1.1">
 <metadata>
  <rdf:RDF xmlns:dc="http://purl.org/dc/elements/1.1/" xmlns:cc="http://creativecommons.org/ns#" xmlns:rdf="http://www.w3.org/1999/02/22-rdf-syntax-ns#">
   <cc:Work>
    <dc:type rdf:resource="http://purl.org/dc/dcmitype/StillImage"/>
    <dc:date>2026-06-27T05:45:53.961871</dc:date>
    <dc:format>image/svg+xml</dc:format>
    <dc:creator>
     <cc:Agent>
      <dc:title>Matplotlib v3.11.0, https://matplotlib.org/</dc:title>
     </cc:Agent>
    </dc:creator>
   </cc:Work>
  </rdf:RDF>
 </metadata>
 <defs>
  <style type="text/css">*{stroke-linejoin: round; stroke-linecap: butt}</style>
 </defs>
 <g id="figure_1">
  <g id="patch_1">
   <path d="M 0 265.160781 
L 431.675 265.160781 
L 431.675 0 
L 0 0 
z
" style="fill: #fbfaf7"/>
  </g>
  <g id="axes_1">
   <g id="patch_2">
    <path d="M 53.65 228.96 
L 421.93 228.96 
L 421.93 7.2 
L 53.65 7.2 
z
" style="fill: #fbfaf7"/>
   </g>
   <g id="FillBetweenPolyCollection_1">
    <defs>
     <path id="m15454aa660" d="M 53.65 -36.200781 
L 53.65 -36.200781 
L 55.190921 -36.200781 
L 56.731841 -36.200781 
L 58.272762 -36.200781 
L 59.813682 -36.200781 
L 61.354603 -36.200781 
L 62.895523 -36.200781 
L 64.436444 -36.200781 
L 65.977364 -36.200781 
L 67.518285 -36.200781 
L 69.059205 -36.200781 
L 70.600126 -36.200781 
L 72.141046 -36.200781 
L 73.681967 -36.200781 
L 75.222887 -36.200781 
L 76.763808 -36.200781 
L 78.304728 -36.200781 
L 79.845649 -36.200781 
L 81.386569 -36.200781 
L 82.92749 -36.200781 
L 84.46841 -36.200781 
L 86.009331 -36.200781 
L 87.550251 -36.200781 
L 89.091172 -36.200781 
L 90.632092 -36.200781 
L 92.173013 -36.200781 
L 93.713933 -36.200781 
L 95.254854 -36.200781 
L 96.795774 -36.200781 
L 98.336695 -36.200781 
L 99.877615 -36.200781 
L 101.418536 -36.200781 
L 102.959456 -36.200781 
L 104.500377 -36.200781 
L 106.041297 -36.200781 
L 107.582218 -36.200781 
L 109.123138 -36.200781 
L 110.664059 -36.200781 
L 112.204979 -36.200781 
L 113.7459 -36.200781 
L 115.28682 -36.200781 
L 116.827741 -36.200781 
L 118.368661 -36.200781 
L 119.909582 -36.200781 
L 121.450502 -36.200781 
L 122.991423 -36.200781 
L 124.532343 -36.200781 
L 126.073264 -36.200781 
L 127.614184 -36.200781 
L 129.155105 -36.200781 
L 130.696025 -36.200781 
L 132.236946 -36.200781 
L 133.777866 -36.200781 
L 135.318787 -36.200781 
L 136.859707 -36.200781 
L 138.400628 -36.200781 
L 139.941548 -36.200781 
L 141.482469 -36.200781 
L 143.023389 -36.200781 
L 144.56431 -36.200781 
L 146.10523 -36.200781 
L 147.646151 -36.200781 
L 149.187071 -36.200781 
L 150.727992 -36.200781 
L 152.268912 -36.200781 
L 153.809833 -36.200781 
L 155.350753 -36.200781 
L 156.891674 -36.200781 
L 158.432594 -36.200781 
L 159.973515 -36.200781 
L 161.514435 -36.200781 
L 163.055356 -36.200781 
L 164.596276 -36.200781 
L 166.137197 -36.200781 
L 167.678117 -36.200781 
L 169.219038 -36.200781 
L 170.759958 -36.200781 
L 172.300879 -36.200781 
L 173.841799 -36.200781 
L 175.38272 -36.200781 
L 176.92364 -36.200781 
L 178.464561 -36.200781 
L 180.005481 -36.200781 
L 181.546402 -36.200781 
L 183.087322 -36.200781 
L 184.628243 -36.200781 
L 186.169163 -36.200781 
L 187.710084 -36.200781 
L 189.251004 -36.200781 
L 190.791925 -36.200781 
L 192.332845 -36.200781 
L 193.873766 -36.200781 
L 195.414686 -36.200781 
L 196.955607 -36.200781 
L 198.496527 -36.200781 
L 200.037448 -36.200781 
L 201.578368 -36.200781 
L 203.119289 -36.200781 
L 204.660209 -36.200781 
L 206.20113 -36.200781 
L 207.74205 -36.200781 
L 209.282971 -36.200781 
L 210.823891 -36.200781 
L 212.364812 -36.200781 
L 213.905732 -36.200781 
L 215.446653 -36.200781 
L 216.987573 -36.200781 
L 218.528494 -36.200781 
L 220.069414 -36.200781 
L 221.610335 -36.200781 
L 223.151255 -36.200781 
L 224.692176 -36.200781 
L 226.233096 -36.200781 
L 227.774017 -36.200781 
L 229.314937 -36.200781 
L 230.855858 -36.200781 
L 232.396778 -36.200781 
L 233.937699 -36.200781 
L 235.478619 -36.200781 
L 237.01954 -36.200781 
L 238.56046 -36.200781 
L 240.101381 -36.200781 
L 241.642301 -36.200781 
L 243.183222 -36.200781 
L 244.724142 -36.200781 
L 246.265063 -36.200781 
L 247.805983 -36.200781 
L 249.346904 -36.200781 
L 250.887824 -36.200781 
L 252.428745 -36.200781 
L 253.969665 -36.200781 
L 255.510586 -36.200781 
L 257.051506 -36.200781 
L 258.592427 -36.200781 
L 260.133347 -36.200781 
L 261.674268 -36.200781 
L 263.215188 -36.200781 
L 264.756109 -36.200781 
L 266.297029 -36.200781 
L 267.83795 -36.200781 
L 269.37887 -36.200781 
L 270.919791 -36.200781 
L 272.460711 -36.200781 
L 274.001632 -36.200781 
L 275.542552 -36.200781 
L 277.083473 -36.200781 
L 278.624393 -36.200781 
L 280.165314 -36.200781 
L 281.706234 -36.200781 
L 283.247155 -36.200781 
L 284.788075 -36.200781 
L 286.328996 -36.200781 
L 287.869916 -36.200781 
L 289.410837 -36.200781 
L 290.951757 -36.200781 
L 292.492678 -36.200781 
L 294.033598 -36.200781 
L 295.574519 -36.200781 
L 297.115439 -36.200781 
L 298.65636 -36.200781 
L 300.19728 -36.200781 
L 301.738201 -36.200781 
L 303.279121 -36.200781 
L 304.820042 -36.200781 
L 306.360962 -36.200781 
L 307.901883 -36.200781 
L 309.442803 -36.200781 
L 310.983724 -36.200781 
L 312.524644 -36.200781 
L 314.065565 -36.200781 
L 315.606485 -36.200781 
L 317.147406 -36.200781 
L 318.688326 -36.200781 
L 320.229247 -36.200781 
L 321.770167 -36.200781 
L 323.311088 -36.200781 
L 324.852008 -36.200781 
L 326.392929 -36.200781 
L 327.933849 -36.200781 
L 329.47477 -36.200781 
L 331.01569 -36.200781 
L 332.556611 -36.200781 
L 334.097531 -36.200781 
L 335.638452 -36.200781 
L 337.179372 -36.200781 
L 338.720293 -36.200781 
L 340.261213 -36.200781 
L 341.802134 -36.200781 
L 343.343054 -36.200781 
L 344.883975 -36.200781 
L 346.424895 -36.200781 
L 347.965816 -36.200781 
L 349.506736 -36.200781 
L 351.047657 -36.200781 
L 352.588577 -36.200781 
L 354.129498 -36.200781 
L 355.670418 -36.200781 
L 357.211339 -36.200781 
L 358.752259 -36.200781 
L 360.29318 -36.200781 
L 361.8341 -36.200781 
L 363.375021 -36.200781 
L 364.915941 -36.200781 
L 366.456862 -36.200781 
L 367.997782 -36.200781 
L 369.538703 -36.200781 
L 371.079623 -36.200781 
L 372.620544 -36.200781 
L 374.161464 -36.200781 
L 375.702385 -36.200781 
L 377.243305 -36.200781 
L 378.784226 -36.200781 
L 380.325146 -36.200781 
L 381.866067 -36.200781 
L 383.406987 -36.200781 
L 384.947908 -36.200781 
L 386.488828 -36.200781 
L 388.029749 -36.200781 
L 389.570669 -36.200781 
L 391.11159 -36.200781 
L 392.65251 -36.200781 
L 394.193431 -36.200781 
L 395.734351 -36.200781 
L 397.275272 -36.200781 
L 398.816192 -36.200781 
L 400.357113 -36.200781 
L 401.898033 -36.200781 
L 403.438954 -36.200781 
L 404.979874 -36.200781 
L 406.520795 -36.200781 
L 408.061715 -36.200781 
L 409.602636 -36.200781 
L 411.143556 -36.200781 
L 412.684477 -36.200781 
L 414.225397 -36.200781 
L 415.766318 -36.200781 
L 417.307238 -36.200781 
L 418.848159 -36.200781 
L 420.389079 -36.200781 
L 421.93 -36.200781 
L 421.93 -224.132985 
L 421.93 -224.132985 
L 420.389079 -223.346657 
L 418.848159 -222.56033 
L 417.307238 -221.774003 
L 415.766318 -220.987676 
L 414.225397 -220.201349 
L 412.684477 -219.415021 
L 411.143556 -218.628694 
L 409.602636 -217.842367 
L 408.061715 -217.05604 
L 406.520795 -216.269713 
L 404.979874 -215.483385 
L 403.438954 -214.697058 
L 401.898033 -213.910731 
L 400.357113 -213.124404 
L 398.816192 -212.338076 
L 397.275272 -211.551749 
L 395.734351 -210.765422 
L 394.193431 -209.979095 
L 392.65251 -209.192768 
L 391.11159 -208.40644 
L 389.570669 -207.620113 
L 388.029749 -206.833786 
L 386.488828 -206.047459 
L 384.947908 -205.261132 
L 383.406987 -204.474804 
L 381.866067 -203.688477 
L 380.325146 -202.90215 
L 378.784226 -202.115823 
L 377.243305 -201.329496 
L 375.702385 -200.543168 
L 374.161464 -199.756841 
L 372.620544 -198.970514 
L 371.079623 -198.184187 
L 369.538703 -197.397859 
L 367.997782 -196.611532 
L 366.456862 -195.825205 
L 364.915941 -195.038878 
L 363.375021 -194.252551 
L 361.8341 -193.466223 
L 360.29318 -192.679896 
L 358.752259 -191.893569 
L 357.211339 -191.107242 
L 355.670418 -190.320915 
L 354.129498 -189.534587 
L 352.588577 -188.74826 
L 351.047657 -187.961933 
L 349.506736 -187.175606 
L 347.965816 -186.389279 
L 346.424895 -185.602951 
L 344.883975 -184.816624 
L 343.343054 -184.030297 
L 341.802134 -183.24397 
L 340.261213 -182.457642 
L 338.720293 -181.671315 
L 337.179372 -180.884988 
L 335.638452 -180.098661 
L 334.097531 -179.312334 
L 332.556611 -178.526006 
L 331.01569 -177.739679 
L 329.47477 -176.953352 
L 327.933849 -176.167025 
L 326.392929 -175.380698 
L 324.852008 -174.59437 
L 323.311088 -173.808043 
L 321.770167 -173.021716 
L 320.229247 -172.235389 
L 318.688326 -171.449062 
L 317.147406 -170.662734 
L 315.606485 -169.876407 
L 314.065565 -169.09008 
L 312.524644 -168.303753 
L 310.983724 -167.517425 
L 309.442803 -166.731098 
L 307.901883 -165.944771 
L 306.360962 -165.158444 
L 304.820042 -164.372117 
L 303.279121 -163.585789 
L 301.738201 -162.799462 
L 300.19728 -162.013135 
L 298.65636 -161.226808 
L 297.115439 -160.440481 
L 295.574519 -159.654153 
L 294.033598 -158.867826 
L 292.492678 -158.081499 
L 290.951757 -157.295172 
L 289.410837 -156.508845 
L 287.869916 -155.722517 
L 286.328996 -154.93619 
L 284.788075 -154.149863 
L 283.247155 -153.363536 
L 281.706234 -152.577208 
L 280.165314 -151.790881 
L 278.624393 -151.004554 
L 277.083473 -150.218227 
L 275.542552 -149.4319 
L 274.001632 -148.645572 
L 272.460711 -147.859245 
L 270.919791 -147.072918 
L 269.37887 -146.286591 
L 267.83795 -145.500264 
L 266.297029 -144.713936 
L 264.756109 -143.927609 
L 263.215188 -143.141282 
L 261.674268 -142.354955 
L 260.133347 -141.568628 
L 258.592427 -140.7823 
L 257.051506 -139.995973 
L 255.510586 -139.209646 
L 253.969665 -138.423319 
L 252.428745 -137.636991 
L 250.887824 -136.850664 
L 249.346904 -136.064337 
L 247.805983 -135.27801 
L 246.265063 -134.491683 
L 244.724142 -133.705355 
L 243.183222 -132.919028 
L 241.642301 -132.132701 
L 240.101381 -131.346374 
L 238.56046 -130.560047 
L 237.01954 -129.773719 
L 235.478619 -128.987392 
L 233.937699 -128.201065 
L 232.396778 -127.414738 
L 230.855858 -126.62841 
L 229.314937 -125.842083 
L 227.774017 -125.055756 
L 226.233096 -124.269429 
L 224.692176 -123.483102 
L 223.151255 -122.696774 
L 221.610335 -121.910447 
L 220.069414 -121.12412 
L 218.528494 -120.337793 
L 216.987573 -119.551466 
L 215.446653 -118.765138 
L 213.905732 -117.978811 
L 212.364812 -117.192484 
L 210.823891 -116.406157 
L 209.282971 -115.61983 
L 207.74205 -114.833502 
L 206.20113 -114.047175 
L 204.660209 -113.260848 
L 203.119289 -112.474521 
L 201.578368 -111.688193 
L 200.037448 -110.901866 
L 198.496527 -110.115539 
L 196.955607 -109.329212 
L 195.414686 -108.542885 
L 193.873766 -107.756557 
L 192.332845 -106.97023 
L 190.791925 -106.183903 
L 189.251004 -105.397576 
L 187.710084 -104.611249 
L 186.169163 -103.824921 
L 184.628243 -103.038594 
L 183.087322 -102.252267 
L 181.546402 -101.46594 
L 180.005481 -100.679613 
L 178.464561 -99.893285 
L 176.92364 -99.106958 
L 175.38272 -98.320631 
L 173.841799 -97.534304 
L 172.300879 -96.747976 
L 170.759958 -95.961649 
L 169.219038 -95.175322 
L 167.678117 -94.388995 
L 166.137197 -93.602668 
L 164.596276 -92.81634 
L 163.055356 -92.030013 
L 161.514435 -91.243686 
L 159.973515 -90.457359 
L 158.432594 -89.671032 
L 156.891674 -88.884704 
L 155.350753 -88.098377 
L 153.809833 -87.31205 
L 152.268912 -86.525723 
L 150.727992 -85.739396 
L 149.187071 -84.953068 
L 147.646151 -84.166741 
L 146.10523 -83.380414 
L 144.56431 -82.594087 
L 143.023389 -81.807759 
L 141.482469 -81.021432 
L 139.941548 -80.235105 
L 138.400628 -79.448778 
L 136.859707 -78.662451 
L 135.318787 -77.876123 
L 133.777866 -77.089796 
L 132.236946 -76.303469 
L 130.696025 -75.517142 
L 129.155105 -74.730815 
L 127.614184 -73.944487 
L 126.073264 -73.15816 
L 124.532343 -72.371833 
L 122.991423 -71.585506 
L 121.450502 -70.799179 
L 119.909582 -70.012851 
L 118.368661 -69.226524 
L 116.827741 -68.440197 
L 115.28682 -67.65387 
L 113.7459 -66.867542 
L 112.204979 -66.081215 
L 110.664059 -65.294888 
L 109.123138 -64.508561 
L 107.582218 -63.722234 
L 106.041297 -62.935906 
L 104.500377 -62.149579 
L 102.959456 -61.363252 
L 101.418536 -60.576925 
L 99.877615 -59.790598 
L 98.336695 -59.00427 
L 96.795774 -58.217943 
L 95.254854 -57.431616 
L 93.713933 -56.645289 
L 92.173013 -55.858962 
L 90.632092 -55.072634 
L 89.091172 -54.286307 
L 87.550251 -53.49998 
L 86.009331 -52.713653 
L 84.46841 -51.927325 
L 82.92749 -51.140998 
L 81.386569 -50.354671 
L 79.845649 -49.568344 
L 78.304728 -48.782017 
L 76.763808 -47.995689 
L 75.222887 -47.209362 
L 73.681967 -46.423035 
L 72.141046 -45.636708 
L 70.600126 -44.850381 
L 69.059205 -44.064053 
L 67.518285 -43.277726 
L 65.977364 -42.491399 
L 64.436444 -41.705072 
L 62.895523 -40.918745 
L 61.354603 -40.132417 
L 59.813682 -39.34609 
L 58.272762 -38.559763 
L 56.731841 -37.773436 
L 55.190921 -36.987108 
L 53.65 -36.200781 
z
"/>
    </defs>
    <g clip-path="url(#padb487a014)">
     <use xlink:href="#m15454aa660" x="0" y="265.160781" style="fill: #2f6f4f; fill-opacity: 0.16"/>
    </g>
   </g>
   <g id="matplotlib.axis_1">
    <g id="xtick_1">
     <g id="line2d_1">
      <defs>
       <path id="m4aef2824d0" d="M 0 0 
L 0 3.5 
" style="stroke: #8a929b; stroke-width: 0.8"/>
      </defs>
      <g>
       <use xlink:href="#m4aef2824d0" x="53.65" y="228.96" style="fill: #8a929b; stroke: #8a929b; stroke-width: 0.8"/>
      </g>
     </g>
     <g id="text_1">
      <!-- 0 -->
      <g style="fill: #8a929b" transform="translate(51.105 242.038125) scale(0.08 -0.08)">
       <defs>
        <path id="DejaVuSans-13" d="M 2034 4250 
Q 1547 4250 1301 3770 
Q 1056 3291 1056 2328 
Q 1056 1369 1301 889 
Q 1547 409 2034 409 
Q 2525 409 2770 889 
Q 3016 1369 3016 2328 
Q 3016 3291 2770 3770 
Q 2525 4250 2034 4250 
z
M 2034 4750 
Q 2819 4750 3233 4129 
Q 3647 3509 3647 2328 
Q 3647 1150 3233 529 
Q 2819 -91 2034 -91 
Q 1250 -91 836 529 
Q 422 1150 422 2328 
Q 422 3509 836 4129 
Q 1250 4750 2034 4750 
z
" transform="scale(0.015625)"/>
       </defs>
       <use xlink:href="#DejaVuSans-13"/>
      </g>
     </g>
    </g>
    <g id="xtick_2">
     <g id="line2d_2">
      <g>
       <use xlink:href="#m4aef2824d0" x="127.306" y="228.96" style="fill: #8a929b; stroke: #8a929b; stroke-width: 0.8"/>
      </g>
     </g>
     <g id="text_2">
      <!-- 1 -->
      <g style="fill: #8a929b" transform="translate(124.761 242.038125) scale(0.08 -0.08)">
       <defs>
        <path id="DejaVuSans-14" d="M 794 531 
L 1825 531 
L 1825 4091 
L 703 3866 
L 703 4441 
L 1819 4666 
L 2450 4666 
L 2450 531 
L 3481 531 
L 3481 0 
L 794 0 
L 794 531 
z
" transform="scale(0.015625)"/>
       </defs>
       <use xlink:href="#DejaVuSans-14"/>
      </g>
     </g>
    </g>
    <g id="xtick_3">
     <g id="line2d_3">
      <g>
       <use xlink:href="#m4aef2824d0" x="200.962" y="228.96" style="fill: #8a929b; stroke: #8a929b; stroke-width: 0.8"/>
      </g>
     </g>
     <g id="text_3">
      <!-- 2 -->
      <g style="fill: #8a929b" transform="translate(198.417 242.038125) scale(0.08 -0.08)">
       <defs>
        <path id="DejaVuSans-15" d="M 1228 531 
L 3431 531 
L 3431 0 
L 469 0 
L 469 531 
Q 828 903 1448 1529 
Q 2069 2156 2228 2338 
Q 2531 2678 2651 2914 
Q 2772 3150 2772 3378 
Q 2772 3750 2511 3984 
Q 2250 4219 1831 4219 
Q 1534 4219 1204 4116 
Q 875 4013 500 3803 
L 500 4441 
Q 881 4594 1212 4672 
Q 1544 4750 1819 4750 
Q 2544 4750 2975 4387 
Q 3406 4025 3406 3419 
Q 3406 3131 3298 2873 
Q 3191 2616 2906 2266 
Q 2828 2175 2409 1742 
Q 1991 1309 1228 531 
z
" transform="scale(0.015625)"/>
       </defs>
       <use xlink:href="#DejaVuSans-15"/>
      </g>
     </g>
    </g>
    <g id="xtick_4">
     <g id="line2d_4">
      <g>
       <use xlink:href="#m4aef2824d0" x="274.618" y="228.96" style="fill: #8a929b; stroke: #8a929b; stroke-width: 0.8"/>
      </g>
     </g>
     <g id="text_4">
      <!-- 3 -->
      <g style="fill: #8a929b" transform="translate(272.073 242.038125) scale(0.08 -0.08)">
       <defs>
        <path id="DejaVuSans-16" d="M 2597 2516 
Q 3050 2419 3304 2112 
Q 3559 1806 3559 1356 
Q 3559 666 3084 287 
Q 2609 -91 1734 -91 
Q 1441 -91 1130 -33 
Q 819 25 488 141 
L 488 750 
Q 750 597 1062 519 
Q 1375 441 1716 441 
Q 2309 441 2620 675 
Q 2931 909 2931 1356 
Q 2931 1769 2642 2001 
Q 2353 2234 1838 2234 
L 1294 2234 
L 1294 2753 
L 1863 2753 
Q 2328 2753 2575 2939 
Q 2822 3125 2822 3475 
Q 2822 3834 2567 4026 
Q 2313 4219 1838 4219 
Q 1578 4219 1281 4162 
Q 984 4106 628 3988 
L 628 4550 
Q 988 4650 1302 4700 
Q 1616 4750 1894 4750 
Q 2613 4750 3031 4423 
Q 3450 4097 3450 3541 
Q 3450 3153 3228 2886 
Q 3006 2619 2597 2516 
z
" transform="scale(0.015625)"/>
       </defs>
       <use xlink:href="#DejaVuSans-16"/>
      </g>
     </g>
    </g>
    <g id="xtick_5">
     <g id="line2d_5">
      <g>
       <use xlink:href="#m4aef2824d0" x="348.274" y="228.96" style="fill: #8a929b; stroke: #8a929b; stroke-width: 0.8"/>
      </g>
     </g>
     <g id="text_5">
      <!-- 4 -->
      <g style="fill: #8a929b" transform="translate(345.729 242.038125) scale(0.08 -0.08)">
       <defs>
        <path id="DejaVuSans-17" d="M 2419 4116 
L 825 1625 
L 2419 1625 
L 2419 4116 
z
M 2253 4666 
L 3047 4666 
L 3047 1625 
L 3713 1625 
L 3713 1100 
L 3047 1100 
L 3047 0 
L 2419 0 
L 2419 1100 
L 313 1100 
L 313 1709 
L 2253 4666 
z
" transform="scale(0.015625)"/>
       </defs>
       <use xlink:href="#DejaVuSans-17"/>
      </g>
     </g>
    </g>
    <g id="xtick_6">
     <g id="line2d_6">
      <g>
       <use xlink:href="#m4aef2824d0" x="421.93" y="228.96" style="fill: #8a929b; stroke: #8a929b; stroke-width: 0.8"/>
      </g>
     </g>
     <g id="text_6">
      <!-- 5 -->
      <g style="fill: #8a929b" transform="translate(419.385 242.038125) scale(0.08 -0.08)">
       <defs>
        <path id="DejaVuSans-18" d="M 691 4666 
L 3169 4666 
L 3169 4134 
L 1269 4134 
L 1269 2991 
Q 1406 3038 1543 3061 
Q 1681 3084 1819 3084 
Q 2600 3084 3056 2656 
Q 3513 2228 3513 1497 
Q 3513 744 3044 326 
Q 2575 -91 1722 -91 
Q 1428 -91 1123 -41 
Q 819 9 494 109 
L 494 744 
Q 775 591 1075 516 
Q 1375 441 1709 441 
Q 2250 441 2565 725 
Q 2881 1009 2881 1497 
Q 2881 1984 2565 2268 
Q 2250 2553 1709 2553 
Q 1456 2553 1204 2497 
Q 953 2441 691 2322 
L 691 4666 
z
" transform="scale(0.015625)"/>
       </defs>
       <use xlink:href="#DejaVuSans-18"/>
      </g>
     </g>
    </g>
    <g id="text_7">
     <!-- d  (m) -->
     <g style="fill: #1f2933" transform="translate(222.665781 255.558437) scale(0.1 -0.1)">
      <defs>
       <path id="DejaVuSans-47" d="M 2906 2969 
L 2906 4863 
L 3481 4863 
L 3481 0 
L 2906 0 
L 2906 525 
Q 2725 213 2448 61 
Q 2172 -91 1784 -91 
Q 1150 -91 751 415 
Q 353 922 353 1747 
Q 353 2572 751 3078 
Q 1150 3584 1784 3584 
Q 2172 3584 2448 3432 
Q 2725 3281 2906 2969 
z
M 947 1747 
Q 947 1113 1208 752 
Q 1469 391 1925 391 
Q 2381 391 2643 752 
Q 2906 1113 2906 1747 
Q 2906 2381 2643 2742 
Q 2381 3103 1925 3103 
Q 1469 3103 1208 2742 
Q 947 2381 947 1747 
z
" transform="scale(0.015625)"/>
       <path id="DejaVuSans-3" transform="scale(0.015625)"/>
       <path id="DejaVuSans-b" d="M 1984 4856 
Q 1566 4138 1362 3434 
Q 1159 2731 1159 2009 
Q 1159 1288 1364 580 
Q 1569 -128 1984 -844 
L 1484 -844 
Q 1016 -109 783 600 
Q 550 1309 550 2009 
Q 550 2706 781 3412 
Q 1013 4119 1484 4856 
L 1984 4856 
z
" transform="scale(0.015625)"/>
       <path id="DejaVuSans-50" d="M 3328 2828 
Q 3544 3216 3844 3400 
Q 4144 3584 4550 3584 
Q 5097 3584 5394 3201 
Q 5691 2819 5691 2113 
L 5691 0 
L 5113 0 
L 5113 2094 
Q 5113 2597 4934 2840 
Q 4756 3084 4391 3084 
Q 3944 3084 3684 2787 
Q 3425 2491 3425 1978 
L 3425 0 
L 2847 0 
L 2847 2094 
Q 2847 2600 2669 2842 
Q 2491 3084 2119 3084 
Q 1678 3084 1418 2786 
Q 1159 2488 1159 1978 
L 1159 0 
L 581 0 
L 581 3500 
L 1159 3500 
L 1159 2956 
Q 1356 3278 1631 3431 
Q 1906 3584 2284 3584 
Q 2666 3584 2933 3390 
Q 3200 3197 3328 2828 
z
" transform="scale(0.015625)"/>
       <path id="DejaVuSans-c" d="M 513 4856 
L 1013 4856 
Q 1481 4119 1714 3412 
Q 1947 2706 1947 2009 
Q 1947 1309 1714 600 
Q 1481 -109 1013 -844 
L 513 -844 
Q 928 -128 1133 580 
Q 1338 1288 1338 2009 
Q 1338 2731 1133 3434 
Q 928 4138 513 4856 
z
" transform="scale(0.015625)"/>
      </defs>
      <use xlink:href="#DejaVuSans-47"/>
      <use xlink:href="#DejaVuSans-3" transform="translate(63.484375 0)"/>
      <use xlink:href="#DejaVuSans-3" transform="translate(95.265625 0)"/>
      <use xlink:href="#DejaVuSans-b" transform="translate(127.046875 0)"/>
      <use xlink:href="#DejaVuSans-50" transform="translate(166.0625 0)"/>
      <use xlink:href="#DejaVuSans-c" transform="translate(263.46875 0)"/>
     </g>
    </g>
   </g>
   <g id="matplotlib.axis_2">
    <g id="ytick_1">
     <g id="line2d_7">
      <defs>
       <path id="m19ee127fb2" d="M 0 0 
L -3.5 0 
" style="stroke: #8a929b; stroke-width: 0.8"/>
      </defs>
      <g>
       <use xlink:href="#m19ee127fb2" x="53.65" y="228.96" style="fill: #8a929b; stroke: #8a929b; stroke-width: 0.8"/>
      </g>
     </g>
     <g id="text_8">
      <!-- 0 -->
      <g style="fill: #8a929b" transform="translate(41.56 231.999062) scale(0.08 -0.08)">
       <use xlink:href="#DejaVuSans-13"/>
      </g>
     </g>
    </g>
    <g id="ytick_2">
     <g id="line2d_8">
      <g>
       <use xlink:href="#m19ee127fb2" x="53.65" y="191.373559" style="fill: #8a929b; stroke: #8a929b; stroke-width: 0.8"/>
      </g>
     </g>
     <g id="text_9">
      <!-- 10000 -->
      <g style="fill: #8a929b" transform="translate(21.2 194.412622) scale(0.08 -0.08)">
       <use xlink:href="#DejaVuSans-14"/>
       <use xlink:href="#DejaVuSans-13" transform="translate(63.625 0)"/>
       <use xlink:href="#DejaVuSans-13" transform="translate(127.25 0)"/>
       <use xlink:href="#DejaVuSans-13" transform="translate(190.875 0)"/>
       <use xlink:href="#DejaVuSans-13" transform="translate(254.5 0)"/>
      </g>
     </g>
    </g>
    <g id="ytick_3">
     <g id="line2d_9">
      <g>
       <use xlink:href="#m19ee127fb2" x="53.65" y="153.787119" style="fill: #8a929b; stroke: #8a929b; stroke-width: 0.8"/>
      </g>
     </g>
     <g id="text_10">
      <!-- 20000 -->
      <g style="fill: #8a929b" transform="translate(21.2 156.826181) scale(0.08 -0.08)">
       <use xlink:href="#DejaVuSans-15"/>
       <use xlink:href="#DejaVuSans-13" transform="translate(63.625 0)"/>
       <use xlink:href="#DejaVuSans-13" transform="translate(127.25 0)"/>
       <use xlink:href="#DejaVuSans-13" transform="translate(190.875 0)"/>
       <use xlink:href="#DejaVuSans-13" transform="translate(254.5 0)"/>
      </g>
     </g>
    </g>
    <g id="ytick_4">
     <g id="line2d_10">
      <g>
       <use xlink:href="#m19ee127fb2" x="53.65" y="116.200678" style="fill: #8a929b; stroke: #8a929b; stroke-width: 0.8"/>
      </g>
     </g>
     <g id="text_11">
      <!-- 30000 -->
      <g style="fill: #8a929b" transform="translate(21.2 119.23974) scale(0.08 -0.08)">
       <use xlink:href="#DejaVuSans-16"/>
       <use xlink:href="#DejaVuSans-13" transform="translate(63.625 0)"/>
       <use xlink:href="#DejaVuSans-13" transform="translate(127.25 0)"/>
       <use xlink:href="#DejaVuSans-13" transform="translate(190.875 0)"/>
       <use xlink:href="#DejaVuSans-13" transform="translate(254.5 0)"/>
      </g>
     </g>
    </g>
    <g id="ytick_5">
     <g id="line2d_11">
      <g>
       <use xlink:href="#m19ee127fb2" x="53.65" y="78.614237" style="fill: #8a929b; stroke: #8a929b; stroke-width: 0.8"/>
      </g>
     </g>
     <g id="text_12">
      <!-- 40000 -->
      <g style="fill: #8a929b" transform="translate(21.2 81.6533) scale(0.08 -0.08)">
       <use xlink:href="#DejaVuSans-17"/>
       <use xlink:href="#DejaVuSans-13" transform="translate(63.625 0)"/>
       <use xlink:href="#DejaVuSans-13" transform="translate(127.25 0)"/>
       <use xlink:href="#DejaVuSans-13" transform="translate(190.875 0)"/>
       <use xlink:href="#DejaVuSans-13" transform="translate(254.5 0)"/>
      </g>
     </g>
    </g>
    <g id="ytick_6">
     <g id="line2d_12">
      <g>
       <use xlink:href="#m19ee127fb2" x="53.65" y="41.027797" style="fill: #8a929b; stroke: #8a929b; stroke-width: 0.8"/>
      </g>
     </g>
     <g id="text_13">
      <!-- 50000 -->
      <g style="fill: #8a929b" transform="translate(21.2 44.066859) scale(0.08 -0.08)">
       <use xlink:href="#DejaVuSans-18"/>
       <use xlink:href="#DejaVuSans-13" transform="translate(63.625 0)"/>
       <use xlink:href="#DejaVuSans-13" transform="translate(127.25 0)"/>
       <use xlink:href="#DejaVuSans-13" transform="translate(190.875 0)"/>
       <use xlink:href="#DejaVuSans-13" transform="translate(254.5 0)"/>
      </g>
     </g>
    </g>
    <g id="text_14">
     <!-- energy  (J) -->
     <g style="fill: #1f2933" transform="translate(14.797656 144.058125) rotate(-90) scale(0.1 -0.1)">
      <defs>
       <path id="DejaVuSans-48" d="M 3597 1894 
L 3597 1613 
L 953 1613 
Q 991 1019 1311 708 
Q 1631 397 2203 397 
Q 2534 397 2845 478 
Q 3156 559 3463 722 
L 3463 178 
Q 3153 47 2828 -22 
Q 2503 -91 2169 -91 
Q 1331 -91 842 396 
Q 353 884 353 1716 
Q 353 2575 817 3079 
Q 1281 3584 2069 3584 
Q 2775 3584 3186 3129 
Q 3597 2675 3597 1894 
z
M 3022 2063 
Q 3016 2534 2758 2815 
Q 2500 3097 2075 3097 
Q 1594 3097 1305 2825 
Q 1016 2553 972 2059 
L 3022 2063 
z
" transform="scale(0.015625)"/>
       <path id="DejaVuSans-51" d="M 3513 2113 
L 3513 0 
L 2938 0 
L 2938 2094 
Q 2938 2591 2744 2837 
Q 2550 3084 2163 3084 
Q 1697 3084 1428 2787 
Q 1159 2491 1159 1978 
L 1159 0 
L 581 0 
L 581 3500 
L 1159 3500 
L 1159 2956 
Q 1366 3272 1645 3428 
Q 1925 3584 2291 3584 
Q 2894 3584 3203 3211 
Q 3513 2838 3513 2113 
z
" transform="scale(0.015625)"/>
       <path id="DejaVuSans-55" d="M 2631 2963 
Q 2534 3019 2420 3045 
Q 2306 3072 2169 3072 
Q 1681 3072 1420 2755 
Q 1159 2438 1159 1844 
L 1159 0 
L 581 0 
L 581 3500 
L 1159 3500 
L 1159 2956 
Q 1341 3275 1631 3429 
Q 1922 3584 2338 3584 
Q 2397 3584 2469 3576 
Q 2541 3569 2628 3553 
L 2631 2963 
z
" transform="scale(0.015625)"/>
       <path id="DejaVuSans-4a" d="M 2906 1791 
Q 2906 2416 2648 2759 
Q 2391 3103 1925 3103 
Q 1463 3103 1205 2759 
Q 947 2416 947 1791 
Q 947 1169 1205 825 
Q 1463 481 1925 481 
Q 2391 481 2648 825 
Q 2906 1169 2906 1791 
z
M 3481 434 
Q 3481 -459 3084 -895 
Q 2688 -1331 1869 -1331 
Q 1566 -1331 1297 -1286 
Q 1028 -1241 775 -1147 
L 775 -588 
Q 1028 -725 1275 -790 
Q 1522 -856 1778 -856 
Q 2344 -856 2625 -561 
Q 2906 -266 2906 331 
L 2906 616 
Q 2728 306 2450 153 
Q 2172 0 1784 0 
Q 1141 0 747 490 
Q 353 981 353 1791 
Q 353 2603 747 3093 
Q 1141 3584 1784 3584 
Q 2172 3584 2450 3431 
Q 2728 3278 2906 2969 
L 2906 3500 
L 3481 3500 
L 3481 434 
z
" transform="scale(0.015625)"/>
       <path id="DejaVuSans-5c" d="M 2059 -325 
Q 1816 -950 1584 -1140 
Q 1353 -1331 966 -1331 
L 506 -1331 
L 506 -850 
L 844 -850 
Q 1081 -850 1212 -737 
Q 1344 -625 1503 -206 
L 1606 56 
L 191 3500 
L 800 3500 
L 1894 763 
L 2988 3500 
L 3597 3500 
L 2059 -325 
z
" transform="scale(0.015625)"/>
       <path id="DejaVuSans-2d" d="M 628 4666 
L 1259 4666 
L 1259 325 
Q 1259 -519 939 -900 
Q 619 -1281 -91 -1281 
L -331 -1281 
L -331 -750 
L -134 -750 
Q 284 -750 456 -515 
Q 628 -281 628 325 
L 628 4666 
z
" transform="scale(0.015625)"/>
      </defs>
      <use xlink:href="#DejaVuSans-48"/>
      <use xlink:href="#DejaVuSans-51" transform="translate(61.53125 0)"/>
      <use xlink:href="#DejaVuSans-48" transform="translate(124.90625 0)"/>
      <use xlink:href="#DejaVuSans-55" transform="translate(186.4375 0)"/>
      <use xlink:href="#DejaVuSans-4a" transform="translate(225.796875 0)"/>
      <use xlink:href="#DejaVuSans-5c" transform="translate(289.28125 0)"/>
      <use xlink:href="#DejaVuSans-3" transform="translate(348.46875 0)"/>
      <use xlink:href="#DejaVuSans-3" transform="translate(380.25 0)"/>
      <use xlink:href="#DejaVuSans-b" transform="translate(412.03125 0)"/>
      <use xlink:href="#DejaVuSans-2d" transform="translate(451.046875 0)"/>
      <use xlink:href="#DejaVuSans-c" transform="translate(480.546875 0)"/>
     </g>
    </g>
   </g>
   <g id="line2d_13">
    <path d="M 53.65 228.96 
L 421.93 41.027797 
L 421.93 41.027797 
" clip-path="url(#padb487a014)" style="fill: none; stroke: #2f6f4f; stroke-width: 2.2; stroke-linecap: square"/>
   </g>
   <g id="line2d_14">
    <path d="M 53.65 41.027797 
L 421.93 228.96 
L 421.93 228.96 
" clip-path="url(#padb487a014)" style="fill: none; stroke: #1f2933; stroke-width: 2.2; stroke-linecap: square"/>
   </g>
   <g id="line2d_15">
    <path d="M 53.65 41.027797 
L 421.93 41.027797 
L 421.93 41.027797 
" clip-path="url(#padb487a014)" style="fill: none; stroke-dasharray: 6.66,2.88; stroke-dashoffset: 0; stroke: #8a929b; stroke-width: 1.8"/>
   </g>
   <g id="patch_3">
    <path d="M 53.65 228.96 
L 53.65 7.2 
" style="fill: none; stroke: #d8d4c8; stroke-width: 0.8; stroke-linejoin: miter; stroke-linecap: square"/>
   </g>
   <g id="patch_4">
    <path d="M 53.65 228.96 
L 421.93 228.96 
" style="fill: none; stroke: #d8d4c8; stroke-width: 0.8; stroke-linejoin: miter; stroke-linecap: square"/>
   </g>
   <g id="text_15">
    <g id="patch_5">
     <path d="M 156.159203 40.218844 
L 319.420797 40.218844 
Q 321.828797 40.218844 321.828797 37.810844 
L 321.828797 29.210173 
Q 321.828797 26.802173 319.420797 26.802173 
L 156.159203 26.802173 
Q 153.751203 26.802173 153.751203 29.210173 
L 153.751203 37.810844 
Q 153.751203 40.218844 156.159203 40.218844 
z
" style="fill: #fbfaf7; opacity: 0.92; stroke: #d8d4c8; stroke-width: 0.6; stroke-linejoin: miter"/>
    </g>
    <!-- Total stays flat — energy is conserved -->
    <g style="fill: #1f2933" transform="translate(156.159203 35.744829) scale(0.086 -0.086)">
     <defs>
      <path id="DejaVuSans-37" d="M -19 4666 
L 3928 4666 
L 3928 4134 
L 2272 4134 
L 2272 0 
L 1638 0 
L 1638 4134 
L -19 4134 
L -19 4666 
z
" transform="scale(0.015625)"/>
      <path id="DejaVuSans-52" d="M 1959 3097 
Q 1497 3097 1228 2736 
Q 959 2375 959 1747 
Q 959 1119 1226 758 
Q 1494 397 1959 397 
Q 2419 397 2687 759 
Q 2956 1122 2956 1747 
Q 2956 2369 2687 2733 
Q 2419 3097 1959 3097 
z
M 1959 3584 
Q 2709 3584 3137 3096 
Q 3566 2609 3566 1747 
Q 3566 888 3137 398 
Q 2709 -91 1959 -91 
Q 1206 -91 779 398 
Q 353 888 353 1747 
Q 353 2609 779 3096 
Q 1206 3584 1959 3584 
z
" transform="scale(0.015625)"/>
      <path id="DejaVuSans-57" d="M 1172 4494 
L 1172 3500 
L 2356 3500 
L 2356 3053 
L 1172 3053 
L 1172 1153 
Q 1172 725 1289 603 
Q 1406 481 1766 481 
L 2356 481 
L 2356 0 
L 1766 0 
Q 1100 0 847 248 
Q 594 497 594 1153 
L 594 3053 
L 172 3053 
L 172 3500 
L 594 3500 
L 594 4494 
L 1172 4494 
z
" transform="scale(0.015625)"/>
      <path id="DejaVuSans-44" d="M 2194 1759 
Q 1497 1759 1228 1600 
Q 959 1441 959 1056 
Q 959 750 1161 570 
Q 1363 391 1709 391 
Q 2188 391 2477 730 
Q 2766 1069 2766 1631 
L 2766 1759 
L 2194 1759 
z
M 3341 1997 
L 3341 0 
L 2766 0 
L 2766 531 
Q 2569 213 2275 61 
Q 1981 -91 1556 -91 
Q 1019 -91 701 211 
Q 384 513 384 1019 
Q 384 1609 779 1909 
Q 1175 2209 1959 2209 
L 2766 2209 
L 2766 2266 
Q 2766 2663 2505 2880 
Q 2244 3097 1772 3097 
Q 1472 3097 1187 3025 
Q 903 2953 641 2809 
L 641 3341 
Q 956 3463 1253 3523 
Q 1550 3584 1831 3584 
Q 2591 3584 2966 3190 
Q 3341 2797 3341 1997 
z
" transform="scale(0.015625)"/>
      <path id="DejaVuSans-4f" d="M 603 4863 
L 1178 4863 
L 1178 0 
L 603 0 
L 603 4863 
z
" transform="scale(0.015625)"/>
      <path id="DejaVuSans-56" d="M 2834 3397 
L 2834 2853 
Q 2591 2978 2328 3040 
Q 2066 3103 1784 3103 
Q 1356 3103 1142 2972 
Q 928 2841 928 2578 
Q 928 2378 1081 2264 
Q 1234 2150 1697 2047 
L 1894 2003 
Q 2506 1872 2764 1633 
Q 3022 1394 3022 966 
Q 3022 478 2636 193 
Q 2250 -91 1575 -91 
Q 1294 -91 989 -36 
Q 684 19 347 128 
L 347 722 
Q 666 556 975 473 
Q 1284 391 1588 391 
Q 1994 391 2212 530 
Q 2431 669 2431 922 
Q 2431 1156 2273 1281 
Q 2116 1406 1581 1522 
L 1381 1569 
Q 847 1681 609 1914 
Q 372 2147 372 2553 
Q 372 3047 722 3315 
Q 1072 3584 1716 3584 
Q 2034 3584 2315 3537 
Q 2597 3491 2834 3397 
z
" transform="scale(0.015625)"/>
      <path id="DejaVuSans-13b0" d="M 1831 4863 
L 3431 4863 
L 3431 0 
L 2853 0 
L 2853 4384 
L 1825 4384 
Q 1516 4384 1395 4259 
Q 1275 4134 1275 3809 
L 1275 3500 
L 2222 3500 
L 2222 3053 
L 1275 3053 
L 1275 0 
L 697 0 
L 697 3053 
L 147 3053 
L 147 3500 
L 697 3500 
L 697 3744 
Q 697 4328 969 4595 
Q 1241 4863 1831 4863 
z
" transform="scale(0.015625)"/>
      <path id="DejaVuSans-af6" d="M 313 1978 
L 6088 1978 
L 6088 1528 
L 313 1528 
L 313 1978 
z
" transform="scale(0.015625)"/>
      <path id="DejaVuSans-4c" d="M 603 3500 
L 1178 3500 
L 1178 0 
L 603 0 
L 603 3500 
z
M 603 4863 
L 1178 4863 
L 1178 4134 
L 603 4134 
L 603 4863 
z
" transform="scale(0.015625)"/>
      <path id="DejaVuSans-46" d="M 3122 3366 
L 3122 2828 
Q 2878 2963 2633 3030 
Q 2388 3097 2138 3097 
Q 1578 3097 1268 2742 
Q 959 2388 959 1747 
Q 959 1106 1268 751 
Q 1578 397 2138 397 
Q 2388 397 2633 464 
Q 2878 531 3122 666 
L 3122 134 
Q 2881 22 2623 -34 
Q 2366 -91 2075 -91 
Q 1284 -91 818 406 
Q 353 903 353 1747 
Q 353 2603 823 3093 
Q 1294 3584 2113 3584 
Q 2378 3584 2631 3529 
Q 2884 3475 3122 3366 
z
" transform="scale(0.015625)"/>
      <path id="DejaVuSans-59" d="M 191 3500 
L 800 3500 
L 1894 563 
L 2988 3500 
L 3597 3500 
L 2284 0 
L 1503 0 
L 191 3500 
z
" transform="scale(0.015625)"/>
     </defs>
     <use xlink:href="#DejaVuSans-37"/>
     <use xlink:href="#DejaVuSans-52" transform="translate(44.09375 0)"/>
     <use xlink:href="#DejaVuSans-57" transform="translate(105.28125 0)"/>
     <use xlink:href="#DejaVuSans-44" transform="translate(144.484375 0)"/>
     <use xlink:href="#DejaVuSans-4f" transform="translate(205.765625 0)"/>
     <use xlink:href="#DejaVuSans-3" transform="translate(233.546875 0)"/>
     <use xlink:href="#DejaVuSans-56" transform="translate(265.328125 0)"/>
     <use xlink:href="#DejaVuSans-57" transform="translate(317.421875 0)"/>
     <use xlink:href="#DejaVuSans-44" transform="translate(356.625 0)"/>
     <use xlink:href="#DejaVuSans-5c" transform="translate(417.90625 0)"/>
     <use xlink:href="#DejaVuSans-56" transform="translate(477.09375 0)"/>
     <use xlink:href="#DejaVuSans-3" transform="translate(529.1875 0)"/>
     <use xlink:href="#DejaVuSans-13b0" transform="translate(560.96875 0)"/>
     <use xlink:href="#DejaVuSans-44" transform="translate(623.953125 0)"/>
     <use xlink:href="#DejaVuSans-57" transform="translate(685.234375 0)"/>
     <use xlink:href="#DejaVuSans-3" transform="translate(724.4375 0)"/>
     <use xlink:href="#DejaVuSans-af6" transform="translate(756.21875 0)"/>
     <use xlink:href="#DejaVuSans-3" transform="translate(856.21875 0)"/>
     <use xlink:href="#DejaVuSans-48" transform="translate(888 0)"/>
     <use xlink:href="#DejaVuSans-51" transform="translate(949.53125 0)"/>
     <use xlink:href="#DejaVuSans-48" transform="translate(1012.90625 0)"/>
     <use xlink:href="#DejaVuSans-55" transform="translate(1074.4375 0)"/>
     <use xlink:href="#DejaVuSans-4a" transform="translate(1113.796875 0)"/>
     <use xlink:href="#DejaVuSans-5c" transform="translate(1177.28125 0)"/>
     <use xlink:href="#DejaVuSans-3" transform="translate(1236.46875 0)"/>
     <use xlink:href="#DejaVuSans-4c" transform="translate(1268.25 0)"/>
     <use xlink:href="#DejaVuSans-56" transform="translate(1296.03125 0)"/>
     <use xlink:href="#DejaVuSans-3" transform="translate(1348.125 0)"/>
     <use xlink:href="#DejaVuSans-46" transform="translate(1379.90625 0)"/>
     <use xlink:href="#DejaVuSans-52" transform="translate(1434.890625 0)"/>
     <use xlink:href="#DejaVuSans-51" transform="translate(1496.078125 0)"/>
     <use xlink:href="#DejaVuSans-56" transform="translate(1559.453125 0)"/>
     <use xlink:href="#DejaVuSans-48" transform="translate(1611.546875 0)"/>
     <use xlink:href="#DejaVuSans-55" transform="translate(1673.078125 0)"/>
     <use xlink:href="#DejaVuSans-59" transform="translate(1714.1875 0)"/>
     <use xlink:href="#DejaVuSans-48" transform="translate(1773.375 0)"/>
     <use xlink:href="#DejaVuSans-47" transform="translate(1834.90625 0)"/>
    </g>
   </g>
   <g id="legend_1">
    <g id="line2d_16">
     <path d="M 370.024969 104.403648 
L 378.624969 104.403648 
L 387.224969 104.403648 
" style="fill: none; stroke: #2f6f4f; stroke-width: 2.2; stroke-linecap: square"/>
    </g>
    <g id="text_16">
     <!-- KE -->
     <g transform="translate(394.104969 107.413648) scale(0.086 -0.086)">
      <defs>
       <path id="DejaVuSans-2e" d="M 628 4666 
L 1259 4666 
L 1259 2694 
L 3353 4666 
L 4166 4666 
L 1850 2491 
L 4331 0 
L 3500 0 
L 1259 2247 
L 1259 0 
L 628 0 
L 628 4666 
z
" transform="scale(0.015625)"/>
       <path id="DejaVuSans-28" d="M 628 4666 
L 3578 4666 
L 3578 4134 
L 1259 4134 
L 1259 2753 
L 3481 2753 
L 3481 2222 
L 1259 2222 
L 1259 531 
L 3634 531 
L 3634 0 
L 628 0 
L 628 4666 
z
" transform="scale(0.015625)"/>
      </defs>
      <use xlink:href="#DejaVuSans-2e"/>
      <use xlink:href="#DejaVuSans-28" transform="translate(65.578125 0)"/>
     </g>
    </g>
    <g id="line2d_17">
     <path d="M 370.024969 117.30432 
L 378.624969 117.30432 
L 387.224969 117.30432 
" style="fill: none; stroke: #1f2933; stroke-width: 2.2; stroke-linecap: square"/>
    </g>
    <g id="text_17">
     <!-- PE -->
     <g transform="translate(394.104969 120.31432) scale(0.086 -0.086)">
      <defs>
       <path id="DejaVuSans-33" d="M 1259 4147 
L 1259 2394 
L 2053 2394 
Q 2494 2394 2734 2622 
Q 2975 2850 2975 3272 
Q 2975 3691 2734 3919 
Q 2494 4147 2053 4147 
L 1259 4147 
z
M 628 4666 
L 2053 4666 
Q 2838 4666 3239 4311 
Q 3641 3956 3641 3272 
Q 3641 2581 3239 2228 
Q 2838 1875 2053 1875 
L 1259 1875 
L 1259 0 
L 628 0 
L 628 4666 
z
" transform="scale(0.015625)"/>
      </defs>
      <use xlink:href="#DejaVuSans-33"/>
      <use xlink:href="#DejaVuSans-28" transform="translate(60.296875 0)"/>
     </g>
    </g>
    <g id="line2d_18">
     <path d="M 370.024969 130.204992 
L 378.624969 130.204992 
L 387.224969 130.204992 
" style="fill: none; stroke-dasharray: 6.66,2.88; stroke-dashoffset: 0; stroke: #8a929b; stroke-width: 1.8"/>
    </g>
    <g id="text_18">
     <!-- Total -->
     <g transform="translate(394.104969 133.214992) scale(0.086 -0.086)">
      <use xlink:href="#DejaVuSans-37"/>
      <use xlink:href="#DejaVuSans-52" transform="translate(44.09375 0)"/>
      <use xlink:href="#DejaVuSans-57" transform="translate(105.28125 0)"/>
      <use xlink:href="#DejaVuSans-44" transform="translate(144.484375 0)"/>
      <use xlink:href="#DejaVuSans-4f" transform="translate(205.765625 0)"/>
     </g>
    </g>
   </g>
  </g>
 </g>
 <defs>
  <clipPath id="padb487a014">
   <rect x="53.65" y="7.2" width="368.28" height="221.76"/>
  </clipPath>
 </defs>
</svg>
